<?xml version="1.0" encoding="UTF-8" standalone="no"?>
<!-- Created with Inkscape (http://www.inkscape.org/) -->

<svg
   xmlns:dc="http://purl.org/dc/elements/1.1/"
   xmlns:cc="http://creativecommons.org/ns#"
   xmlns:rdf="http://www.w3.org/1999/02/22-rdf-syntax-ns#"
   xmlns:svg="http://www.w3.org/2000/svg"
   xmlns="http://www.w3.org/2000/svg"
   xmlns:sodipodi="http://sodipodi.sourceforge.net/DTD/sodipodi-0.dtd"
   xmlns:inkscape="http://www.inkscape.org/namespaces/inkscape"
   viewBox="0 0 708.66141 708.66142"
   id="Hans"
   version="1.1"
   inkscape:version="0.91 r13725"
   sodipodi:docname="Hans.svg">
  <defs
     id="defs4" />
  <sodipodi:namedview
     id="base"
     pagecolor="#ffffff"
     bordercolor="#666666"
     borderopacity="1.0"
     inkscape:pageopacity="0.0"
     inkscape:pageshadow="2"
     inkscape:zoom="0.7"
     inkscape:cx="415.67022"
     inkscape:cy="317.79155"
     inkscape:document-units="mm"
     inkscape:current-layer="layer1"
     showgrid="true"
     units="mm"
     inkscape:window-width="1280"
     inkscape:window-height="747"
     inkscape:window-x="0"
     inkscape:window-y="25"
     inkscape:window-maximized="1">
    <inkscape:grid
       type="xygrid"
       id="grid3371" />
  </sodipodi:namedview>
  <metadata
     id="metadata7">
    <rdf:RDF>
      <cc:Work
         rdf:about="">
        <dc:format>image/svg+xml</dc:format>
        <dc:type
           rdf:resource="http://purl.org/dc/dcmitype/StillImage" />
        <dc:title></dc:title>
      </cc:Work>
    </rdf:RDF>
  </metadata>
  <g
     inkscape:label="レイヤー 1"
     inkscape:groupmode="layer"
     id="layer1"
     transform="translate(0,-343.70078)">
    <flowRoot
       xml:space="preserve"
       id="flowRoot3351"
       style="font-style:normal;font-variant:normal;font-weight:normal;font-stretch:normal;font-size:14px;line-height:125%;font-family:'DejaVu Sans';-inkscape-font-specification:'DejaVu Sans';text-align:start;letter-spacing:0px;word-spacing:0px;writing-mode:tb-rl;text-anchor:start;fill-opacity:1;stroke:none;stroke-width:1px;stroke-linecap:butt;stroke-linejoin:miter;stroke-opacity:1"><flowRegion
         id="flowRegion3353"><rect
           id="rect3355"
           width="628.57141"
           height="480"
           x="80"
           y="243.79077" /></flowRegion><flowPara
         id="flowPara3357"></flowPara></flowRoot>    <g
       transform="matrix(41.310125,0,0,44.571309,-25805.186,-7808.0898)"
       style="font-style:normal;font-variant:normal;font-weight:normal;font-stretch:normal;font-size:14px;line-height:125%;font-family:'DejaVu Sans';-inkscape-font-specification:'DejaVu Sans';text-align:start;letter-spacing:0px;word-spacing:0px;writing-mode:tb-rl;text-anchor:start;fill-opacity:1;stroke:none;stroke-width:1px;stroke-linecap:butt;stroke-linejoin:miter;stroke-opacity:1"
       id="flowRoot3359">
      <path
         d="m 631.18312,186.22461 -0.69043,0.93652 q -1.09375,-1.14843 -2.78223,-1.68164 l 0.65625,-0.84082 q 1.6543,0.44434 2.81641,1.58594 z m 8.80468,9.44727 -0.82715,0.98437 q -2.59765,-1.46973 -3.75293,-2.87109 -1.51074,1.77734 -3.84863,2.93945 l -0.66992,-0.93652 q 2.61133,-1.38086 3.83496,-2.89844 -1.76367,-2.47461 -2.2832,-6.54199 l -0.79981,0 0,-0.96387 6.84961,0 q -0.0137,1.32617 -0.63574,3.61621 -0.61523,2.29004 -1.74316,3.90332 1.38769,1.64063 3.87597,2.76856 z m -2.61816,-9.32422 -3.90332,0 q 0.54004,3.43164 1.91406,5.57129 1.51074,-2.2627 1.98926,-5.57129 z m -6.80176,2.46777 -0.60156,0.96387 q -1.1211,-1.0459 -2.80274,-1.51075 l 0.56055,-0.92285 q 1.70899,0.45801 2.84375,1.46973 z m 0.66992,2.68652 -0.54687,1.43555 q -0.43067,1.16895 -0.95703,1.98242 -0.52637,0.81348 -1.35352,1.67481 l -0.86816,-0.72461 q 1.91406,-1.91407 2.78906,-4.86035 l 0.93652,0.49218 z"
         style=""
         id="path3434" />
    </g>
  </g>
</svg>
