<?xml version="1.0" encoding="utf-8"?>
<!-- Generator: Adobe Illustrator 18.0.0, SVG Export Plug-In . SVG Version: 6.00 Build 0)  -->
<!DOCTYPE svg PUBLIC "-//W3C//DTD SVG 1.1//EN" "http://www.w3.org/Graphics/SVG/1.1/DTD/svg11.dtd">
<svg version="1.1" id="Capa_1" xmlns="http://www.w3.org/2000/svg" xmlns:xlink="http://www.w3.org/1999/xlink" x="0px" y="0px"
	 width="20px" height="20px" viewBox="0 0 128 128" enable-background="new 0 0 128 128" xml:space="preserve">
<path d="M54.4,20.7L32.5,37.1h-20c-3.3,0-6,2.7-6,6v41.8c0,3.3,2.7,6,6,6h20l21.9,16.4c4,3,9.6,0.2,9.6-4.8V25.5
	C64,20.5,58.3,17.7,54.4,20.7z"/>
<path d="M83.8,30.5c-2.7-2.7-7.2-2.7-9.9,0c-2.7,2.7-2.7,7.2,0,9.9c13,13,13,34.1,0,47.1c-2.7,2.7-2.7,7.2,0,9.9
	c1.4,1.4,3.2,2,4.9,2s3.6-0.7,4.9-2.1C102.3,79,102.3,49,83.8,30.5z"/>
<path d="M91.6,14.8c-2.7,2.7-2.7,7.2,0,9.9c10.5,10.5,16.3,24.4,16.3,39.3s-5.8,28.8-16.3,39.3c-2.7,2.7-2.7,7.2,0,9.9
	c1.4,1.4,3.2,2.1,4.9,2.1c1.8,0,3.6-0.7,4.9-2c13.1-13.1,20.4-30.6,20.4-49.2s-7.2-36-20.4-49.2C98.8,12.1,94.4,12.1,91.6,14.8z"/>
</svg>
