<?xml version="1.0" encoding="iso-8859-1"?>
<!-- http://www.flaticon.com/free-icon/copy-file_73547#term=copy&page=1&position=4  -->
<!DOCTYPE svg PUBLIC "-//W3C//DTD SVG 1.1//EN" "http://www.w3.org/Graphics/SVG/1.1/DTD/svg11.dtd">
<svg version="1.1" id="copy" xmlns="http://www.w3.org/2000/svg" xmlns:xlink="http://www.w3.org/1999/xlink" x="0px" y="0px"
	 viewBox="0 0 247.744 247.744" style="enable-background:new 0 0 247.744 247.744;" xml:space="preserve">
<g>
	<path style="fill:#000002;" d="M206.89,0H74.824c-9.649,0-17.5,7.851-17.5,17.5v21.005h-16.47c-9.649,0-17.5,7.85-17.5,17.5
		v174.239c0,9.649,7.851,17.5,17.5,17.5h132.065c9.649,0,17.5-7.851,17.5-17.5V209.24h16.471c9.649,0,17.5-7.851,17.5-17.5V17.5
		C224.39,7.851,216.54,0,206.89,0z M175.419,230.244c0,1.355-1.145,2.5-2.5,2.5H40.854c-1.355,0-2.5-1.145-2.5-2.5V56.005
		c0-1.356,1.145-2.5,2.5-2.5h132.065c1.355,0,2.5,1.144,2.5,2.5V230.244z M209.39,191.74c0,1.355-1.145,2.5-2.5,2.5h-16.471V56.005
		c0-9.65-7.851-17.5-17.5-17.5H72.324V17.5c0-1.355,1.144-2.5,2.5-2.5H206.89c1.355,0,2.5,1.145,2.5,2.5V191.74z"/>
	<path style="fill:#000002;" d="M149.553,77.121H64.22c-4.143,0-7.5,3.357-7.5,7.5c0,4.143,3.357,7.5,7.5,7.5h85.333
		c4.143,0,7.5-3.357,7.5-7.5C157.053,80.479,153.696,77.121,149.553,77.121z"/>
	<path style="fill:#000002;" d="M149.553,110.898H64.22c-4.143,0-7.5,3.357-7.5,7.5s3.357,7.5,7.5,7.5h85.333
		c4.143,0,7.5-3.357,7.5-7.5S153.696,110.898,149.553,110.898z"/>
	<path style="fill:#000002;" d="M149.553,144.676H64.22c-4.143,0-7.5,3.357-7.5,7.5c0,4.143,3.357,7.5,7.5,7.5h85.333
		c4.143,0,7.5-3.357,7.5-7.5C157.053,148.033,153.696,144.676,149.553,144.676z"/>
	<path style="fill:#000002;" d="M149.553,178.453H64.22c-4.143,0-7.5,3.357-7.5,7.5c0,4.143,3.357,7.5,7.5,7.5h85.333
		c4.143,0,7.5-3.357,7.5-7.5C157.053,181.811,153.696,178.453,149.553,178.453z"/>
</g>
</svg>
