<?xml version="1.0" encoding="utf-8"?>
<!DOCTYPE svg PUBLIC "-//W3C//DTD SVG 1.1//EN" "http://www.w3.org/Graphics/SVG/1.1/DTD/svg11.dtd">
<svg version="1.0" id="list" xmlns="http://www.w3.org/2000/svg" viewBox="0 0 26 26">
<path d="M23,26H3c-1.103,0-2-0.897-2-2V2c0-1.103,0.897-2,2-2h20c1.103,0,2,0.897,2,2v22C25,25.103,24.103,26,23,26z
	 M23,24v1V24L23,24z M3,2v22h19.998L23,2H3z"/>
<rect x="6" y="7" width="2" height="2"/>
<rect x="10" y="7" width="10" height="2"/>
<rect x="10" y="12" width="10" height="2"/>
<rect x="10" y="17" width="10" height="2"/>
<rect x="6" y="12" width="2" height="2"/>
<rect x="6" y="17" width="2" height="2"/>
</svg>
