<?xml version="1.0" encoding="utf-8"?>
<!-- Generator: Adobe Illustrator 16.0.0, SVG Export Plug-In . SVG Version: 6.00 Build 0)  -->
<!DOCTYPE svg PUBLIC "-//W3C//DTD SVG 1.1//EN" "http://www.w3.org/Graphics/SVG/1.1/DTD/svg11.dtd">
<svg version="1.1" id="Layer_1" xmlns="http://www.w3.org/2000/svg" xmlns:xlink="http://www.w3.org/1999/xlink" x="0px" y="0px"
	 width="96px" height="96px" viewBox="0 0 96 96" enable-background="new 0 0 96 96" xml:space="preserve">
<path d="M75.156,38.427v-9.129C75.156,14.323,62.974,2.141,48,2.141S20.844,14.323,20.844,29.298v9.129h-8.798V93.68h71.908V38.427
	H75.156z M32.12,29.298c0-8.757,7.124-15.881,15.88-15.881s15.88,7.124,15.88,15.881v9.129H32.12V29.298z M52.519,73.192v12.215
	h-9.037V73.192C41.38,71.751,40,69.334,40,66.593c0-4.418,3.582-8,8-8s8,3.582,8,8C56,69.334,54.62,71.751,52.519,73.192z"/>
</svg>
