<?xml version="1.0" ?><svg height="22px" version="1.1" viewBox="0 0 22 22" width="22px" xmlns="http://www.w3.org/2000/svg" xmlns:sketch="http://www.bohemiancoding.com/sketch/ns" xmlns:xlink="http://www.w3.org/1999/xlink"><title/><defs/><g fill="none" fill-rule="evenodd" id="miu" stroke="none" stroke-width="1"><path d="M0,11 C0,4.92486745 4.92486745,0 11,0 C17.0751325,0 22,4.92486745 22,11 C22,17.0751325 17.0751325,22 11,22 C4.92486745,22 0,17.0751325 0,11 Z M17,13 C18.1045696,13 19,12.1045696 19,11 C19,9.89543045 18.1045696,9 17,9 C15.8954304,9 15,9.89543045 15,11 C15,12.1045696 15.8954304,13 17,13 Z M11,13 C12.1045696,13 13,12.1045696 13,11 C13,9.89543045 12.1045696,9 11,9 C9.89543045,9 9,9.89543045 9,11 C9,12.1045696 9.89543045,13 11,13 Z M5,13 C6.10456955,13 7,12.1045696 7,11 C7,9.89543045 6.10456955,9 5,9 C3.89543045,9 3,9.89543045 3,11 C3,12.1045696 3.89543045,13 5,13 Z" fill="#000000" id="circle_more_detail_glyph"/></g></svg>