<?xml version="1.0" ?><!DOCTYPE svg  PUBLIC '-//W3C//DTD SVG 1.1//EN'  'http://www.w3.org/Graphics/SVG/1.1/DTD/svg11.dtd'><svg enable-background="new 0 0 25.531 27.5" height="27.5px" id="Capa_1" version="1.1" viewBox="0 0 25.531 27.5" width="25.531px" xml:space="preserve" xmlns="http://www.w3.org/2000/svg" xmlns:xlink="http://www.w3.org/1999/xlink"><g><path d="M19.182,13.168c-1.207,2.764-3.845,5.074-6.403,5.074c-3.122,0-5.39-2.284-6.599-5.047   c-7.031,3.643-6.145,12.86-6.145,12.86c0,1.262,0.994,1.444,2.162,1.444h10.581h10.566c1.17,0,2.168-0.185,2.168-1.444   C25.512,26.055,26.213,16.811,19.182,13.168z M23.346,25.501H12.779H2.198c-0.071,0-0.135-0.001-0.192-0.002   c-0.05-1.396,0.025-6.456,3.476-9.435c1.799,2.651,4.412,4.179,7.297,4.179c2.594-0.001,5.286-1.66,7.083-4.224   c3.455,2.957,3.68,8.018,3.668,9.479C23.475,25.5,23.413,25.501,23.346,25.501z"/><path d="M12.779,16.744c3.521,0,6.321-5.039,6.321-9.203C19.1,3.376,16.245,0,12.723,0C9.202,0,6.347,3.376,6.347,7.541   C6.347,11.705,9.257,16.744,12.779,16.744z M12.723,2C15.137,2,17.1,4.485,17.1,7.541c0,3.434-2.262,7.203-4.321,7.203   c-2.071,0-4.432-3.837-4.432-7.203C8.347,4.485,10.31,2,12.723,2z"/></g></svg>