<?xml version="1.0" encoding="utf-8"?>
<!-- Generator: Adobe Illustrator 16.0.0, SVG Export Plug-In . SVG Version: 6.00 Build 0)  -->
<!DOCTYPE svg PUBLIC "-//W3C//DTD SVG 1.1//EN" "http://www.w3.org/Graphics/SVG/1.1/DTD/svg11.dtd">
<svg version="1.1" id="Layer_3" xmlns="http://www.w3.org/2000/svg" xmlns:xlink="http://www.w3.org/1999/xlink" x="0px" y="0px"
	 width="100px" height="100px" viewBox="0 0 100 100" enable-background="new 0 0 100 100" xml:space="preserve">
<path fill="#231F20" d="M66.918,50l28.66-29.858c0.771-0.805,1.033-1.971,0.68-3.026c-0.354-1.058-1.265-1.831-2.364-2.007
	l-9.896-1.598c-0.76-0.125-1.534,0.05-2.167,0.483L51.943,34.398l-4.291-4.471c-0.061-4.717-1.917-9.145-5.26-12.488l-8.077-8.077
	c-3.4-3.401-7.92-5.273-12.729-5.273c-4.809,0-9.329,1.874-12.728,5.272c-3.4,3.399-5.273,7.921-5.273,12.729
	c0,4.808,1.873,9.327,5.272,12.727l8.076,8.077c3.4,3.399,7.92,5.272,12.729,5.272c2.253,0,4.438-0.428,6.479-1.214L37.687,50
	l-1.543,3.047c-2.042-0.786-4.226-1.214-6.479-1.214c-4.809,0-9.329,1.873-12.729,5.272l-8.076,8.077
	c-3.4,3.399-5.272,7.919-5.272,12.727c0,4.809,1.873,9.33,5.272,12.729c3.399,3.399,7.919,5.272,12.727,5.273
	c0.001,0,0.001,0,0.001,0c4.808,0,9.328-1.872,12.729-5.273l8.077-8.077c3.343-3.344,5.199-7.771,5.26-12.488l4.291-4.471
	l29.887,20.404c0.501,0.343,1.09,0.522,1.689,0.522c0.159,0,0.319-0.013,0.478-0.039l9.896-1.598c1.1-0.176,2.011-0.95,2.364-2.007
	c0.354-1.056,0.092-2.222-0.68-3.026L66.918,50z M34.849,35.353c-1.385,1.384-3.227,2.147-5.185,2.147
	c-1.959,0-3.801-0.764-5.186-2.147l-8.076-8.077c-1.386-1.385-2.148-3.227-2.148-5.187c0-1.958,0.763-3.799,2.148-5.185
	c1.385-1.386,3.226-2.148,5.185-2.148c1.958,0,3.8,0.763,5.186,2.148l8.076,8.077c1.386,1.386,2.148,3.227,2.148,5.187
	C36.998,32.126,36.235,33.967,34.849,35.353z M34.849,75.019l-8.076,8.077c-1.385,1.386-3.228,2.148-5.186,2.148
	c-1.959,0-3.8-0.763-5.186-2.148c-1.385-1.386-2.147-3.227-2.147-5.185c0-1.96,0.763-3.802,2.148-5.187l8.076-8.077
	c1.385-1.384,3.227-2.147,5.186-2.147c1.958,0,3.8,0.764,5.186,2.148c1.385,1.385,2.147,3.226,2.147,5.184
	C36.998,71.792,36.235,73.633,34.849,75.019z M50,51.125c-1.864,0-3.375-1.511-3.375-3.375s1.511-3.375,3.375-3.375
	s3.375,1.511,3.375,3.375S51.864,51.125,50,51.125z M84.222,80.384L56.151,61.218l6.614-6.891l24.534,25.561L84.222,80.384z"/>
</svg>
