<?xml version="1.0" encoding="utf-8"?>
<!-- Generator: Adobe Illustrator 16.0.0, SVG Export Plug-In . SVG Version: 6.00 Build 0)  -->
<!DOCTYPE svg PUBLIC "-//W3C//DTD SVG 1.1//EN" "http://www.w3.org/Graphics/SVG/1.1/DTD/svg11.dtd">
<svg version="1.1" id="Layer_1" xmlns="http://www.w3.org/2000/svg" xmlns:xlink="http://www.w3.org/1999/xlink" x="0px" y="0px"
	 width="96px" height="96px" viewBox="0 0 96 96" enable-background="new 0 0 96 96" xml:space="preserve">
<path d="M75.346,38.45v-9.192C75.346,14.178,63.079,1.91,48,1.91S20.654,14.178,20.654,29.258h11.355
	c0-8.818,7.173-15.992,15.991-15.992s15.991,7.174,15.991,15.992v9.192H11.794v55.64h72.411V38.45H75.346z M52.519,73.025V85.24
	h-9.037V73.025C41.38,71.584,40,69.167,40,66.426c0-4.418,3.582-8,8-8s8,3.582,8,8C56,69.167,54.62,71.584,52.519,73.025z"/>
</svg>
