<?xml version="1.0" encoding="iso-8859-1"?>
<!-- http://www.flaticon.com/free-icon/faq-circular-filled-button_59049  -->
<!DOCTYPE svg PUBLIC "-//W3C//DTD SVG 1.1//EN" "http://www.w3.org/Graphics/SVG/1.1/DTD/svg11.dtd">
<svg version="1.1" id="unsure" xmlns="http://www.w3.org/2000/svg" xmlns:xlink="http://www.w3.org/1999/xlink" x="0px" y="0px"
	 viewBox="0 0 98.27 98.27" style="enable-background:new 0 0 98.27 98.27;" xml:space="preserve">
<g>
	<path d="M49.135,0C21.998,0,0,21.999,0,49.135S21.998,98.27,49.135,98.27c27.136,0,49.134-21.999,49.134-49.135S76.27,0,49.135,0z
		 M53.234,82.086c-1.539,1.521-3.684,2.293-6.369,2.293c-2.746,0-4.918-0.754-6.456-2.241c-1.545-1.495-2.328-3.604-2.328-6.269
		c0-2.754,0.769-4.887,2.284-6.336c1.51-1.44,3.696-2.172,6.5-2.172c2.714,0,4.861,0.746,6.386,2.219
		c1.528,1.479,2.304,3.596,2.304,6.289C55.555,78.472,54.773,80.564,53.234,82.086z M68.424,40.295
		c-1.572,2.511-4.566,5.354-8.9,8.45c-2.817,2.083-4.627,3.684-5.355,4.74c-0.686,0.995-1.034,2.346-1.034,4.014v1.98
		c0,0.828-0.672,1.5-1.5,1.5H41.045c-0.828,0-1.5-0.672-1.5-1.5v-2.621c0-3.041,0.663-5.732,1.972-8
		c1.296-2.244,3.665-4.638,7.043-7.116c3.135-2.239,5.209-4.06,6.183-5.422c0.923-1.297,1.392-2.768,1.392-4.369
		c0-1.742-0.615-3.024-1.881-3.92c-1.329-0.941-3.246-1.419-5.698-1.419c-4.252,0-9.173,1.366-14.624,4.061
		c-0.739,0.366-1.639,0.064-2.008-0.676l-4.316-8.67c-0.36-0.725-0.082-1.604,0.63-1.988c6.689-3.614,13.864-5.447,21.325-5.447
		c6.421,0,11.613,1.578,15.434,4.69c3.864,3.15,5.825,7.402,5.825,12.639C70.82,34.697,70.014,37.749,68.424,40.295z"/>
</g>
</svg>
