<svg xmlns="http://www.w3.org/2000/svg" viewBox="0 0 72 72"><path id="q" d="M18.967 65.828q-4.063 0-6.625-2.656-2.563-2.625-2.563-6.812V45.391q0-3.344-2.28-5.219-2.282-1.875-6.313-2.031V33.86q4.062-.157 6.312-2.063 2.281-1.906 2.281-5.156v-11q0-4.281 2.532-6.875 2.531-2.594 6.656-2.594h8.281v4.344h-6.656q-2.844 0-4.094 1.375-1.25 1.375-1.25 4.719v10.812q0 3.063-2 5.406-2 2.313-5.219 3.094v.06q3.188.75 5.188 3.062 2.031 2.281 2.031 5.5v10.844q0 3.312 1.25 4.687 1.25 1.407 4.094 1.407h6.656v4.343z" style="fill:#4caf50;stroke:#4caf50;stroke-width:2.9"/><use href="#q" transform="matrix(-1 0 0 1 72 0)"/></svg>