<?xml version="1.0" encoding="UTF-8" standalone="no"?>
<!-- Creator: CorelDRAW Home & Student X8 -->

<svg
   xml:space="preserve"
   width="7.9375005mm"
   height="5.291667mm"
   version="1.1"
   style="clip-rule:evenodd;fill-rule:evenodd;image-rendering:optimizeQuality;shape-rendering:geometricPrecision;text-rendering:geometricPrecision"
   viewBox="0 0 793.75005 529.1667"
   id="svg11"
   sodipodi:docname="Abhazya.svg"
   inkscape:version="1.4 (86a8ad7, 2024-10-11)"
   xmlns:inkscape="http://www.inkscape.org/namespaces/inkscape"
   xmlns:sodipodi="http://sodipodi.sourceforge.net/DTD/sodipodi-0.dtd"
   xmlns="http://www.w3.org/2000/svg"
   xmlns:svg="http://www.w3.org/2000/svg"><sodipodi:namedview
   id="namedview11"
   pagecolor="#ffffff"
   bordercolor="#000000"
   borderopacity="0.25"
   inkscape:showpageshadow="2"
   inkscape:pageopacity="0.0"
   inkscape:pagecheckerboard="0"
   inkscape:deskcolor="#d1d1d1"
   inkscape:document-units="mm"
   inkscape:zoom="2.8469167"
   inkscape:cx="162.80772"
   inkscape:cy="91.502503"
   inkscape:window-width="1920"
   inkscape:window-height="1009"
   inkscape:window-x="-8"
   inkscape:window-y="-8"
   inkscape:window-maximized="1"
   inkscape:current-layer="Layer_x0020_1" />
 <defs
   id="defs1">
  <style
   type="text/css"
   id="style1">
   <![CDATA[
    .fil0 {fill:#139A3E}
    .fil2 {fill:#C9302A}
    .fil1 {fill:#FEFEFE}
   ]]>
  </style>
 </defs>
 <g
   id="Layer_x0020_1"
   inkscape:label="Layer 1"
   inkscape:groupmode="layer">
  <metadata
   id="CorelCorpID_0Corel-Layer" />
  <rect
   class="fil0"
   width="793.75"
   height="529.16669"
   id="rect1"
   x="0"
   y="0"
   style="stroke-width:0.0352778" />
  <g
   id="_532720704"
   transform="scale(0.03527778)">
   <rect
   class="fil1"
   y="2143"
   width="22500"
   height="2143"
   id="rect2"
   x="0" />
   <rect
   class="fil1"
   y="6429"
   width="22500"
   height="2143"
   id="rect3"
   x="0" />
   <rect
   class="fil1"
   y="10714"
   width="22500"
   height="2143"
   id="rect4"
   x="0" />
  </g>
  <rect
   class="fil2"
   width="301.625"
   height="226.80084"
   id="rect5"
   x="0"
   y="0"
   style="stroke-width:0.0352778" />
  <path
   class="fil1"
   d="m 127.45861,122.27278 c 0,0 -2.57528,1.09361 -0.81139,21.83694 1.44639,17.07445 7.54945,22.64834 7.54945,22.64834 l 2.64583,10.58333 25.22361,0.10583 c 0,0 0.45861,-6.56166 1.41111,-8.60777 2.39889,-5.11528 11.92389,-10.90084 15.98084,-19.685 4.37444,-5.36223 2.18722,-16.29834 10.97139,-26.81112 4.37444,-5.25638 -5.11528,-3.03388 -5.11528,-3.03388 -5.18583,3.45722 -7.72583,7.51416 -9.03111,10.33638 -0.88195,5.43278 -4.97417,9.98362 -5.36222,6.0325 0,0 -1.48167,-6.84388 -5.92667,-20.14361 -0.42333,-3.95111 -2.32833,-17.56833 -2.75167,-27.975275 -0.28222,-6.773333 -6.20889,-7.196666 -6.70278,-0.3175 l -0.70555,27.269725 -1.41111,-31.46778 c -0.635,-8.925278 -7.37306,-7.584723 -7.65528,-0.211667 l -0.28222,32.773057 -1.23473,-31.785279 c -1.83444,-6.067778 -6.63222,-2.469445 -6.70277,4.092222 l -0.81139,30.938607 c 0,0 -1.02306,-16.93333 -1.27,-24.094718 -0.21167,-4.303889 -5.25639,-3.986389 -5.715,2.187222 -0.70556,8.854726 -1.76389,16.121946 -2.29306,25.329446 z"
   id="path5"
   style="stroke-width:0.0352778" />
  <polygon
   class="fil1"
   points="1458,3750 1541,4006 1324,3848 1107,4006 1190,3750 973,3592 1242,3593 1324,3337 1407,3593 1676,3592 "
   id="polygon5"
   transform="scale(0.03527778)" />
  <polygon
   class="fil1"
   points="2080,2628 2163,2884 1946,2725 1729,2884 1812,2628 1595,2470 1864,2471 1946,2214 2029,2471 2298,2470 "
   id="polygon6"
   transform="scale(0.03527778)" />
  <polygon
   class="fil1"
   points="3154,1834 3237,2090 3020,1931 2803,2090 2886,1834 2668,1676 2937,1676 3020,1420 3103,1676 3372,1676 "
   id="polygon7"
   transform="scale(0.03527778)" />
  <polygon
   class="fil1"
   points="4409,1567 4492,1823 4275,1664 4058,1823 4141,1567 3923,1409 4192,1409 4275,1153 4358,1409 4627,1409 "
   id="polygon8"
   transform="scale(0.03527778)" />
  <polygon
   class="fil1"
   points="5664,1834 5747,2090 5530,1931 5313,2090 5396,1834 5178,1676 5447,1676 5530,1420 5613,1676 5882,1676 "
   id="polygon9"
   transform="scale(0.03527778)" />
  <polygon
   class="fil1"
   points="6737,2628 6821,2884 6604,2725 6387,2884 6470,2628 6252,2470 6521,2471 6604,2214 6686,2471 6955,2470 "
   id="polygon10"
   transform="scale(0.03527778)" />
  <polygon
   class="fil1"
   points="7360,3750 7443,4006 7226,3848 7009,4006 7092,3750 6874,3592 7143,3593 7226,3337 7308,3593 7577,3592 "
   id="polygon11"
   transform="scale(0.03527778)" />
 </g>
</svg>
