<?xml version="1.0" encoding="UTF-8" standalone="no"?>
<!-- Created with Inkscape (http://www.inkscape.org/) -->

<svg
   width="7.9375mm"
   height="5.2916698mm"
   viewBox="0 0 7.9375 5.29167"
   version="1.1"
   id="svg1"
   inkscape:version="1.4 (86a8ad7, 2024-10-11)"
   sodipodi:docname="acm.svg"
   xmlns:inkscape="http://www.inkscape.org/namespaces/inkscape"
   xmlns:sodipodi="http://sodipodi.sourceforge.net/DTD/sodipodi-0.dtd"
   xmlns:xlink="http://www.w3.org/1999/xlink"
   xmlns="http://www.w3.org/2000/svg"
   xmlns:svg="http://www.w3.org/2000/svg">
  <sodipodi:namedview
     id="namedview1"
     pagecolor="#ffffff"
     bordercolor="#000000"
     borderopacity="0.25"
     inkscape:showpageshadow="2"
     inkscape:pageopacity="0.0"
     inkscape:pagecheckerboard="0"
     inkscape:deskcolor="#d1d1d1"
     inkscape:document-units="mm"
     inkscape:zoom="0.71891835"
     inkscape:cx="475.01917"
     inkscape:cy="346.35366"
     inkscape:window-width="1904"
     inkscape:window-height="992"
     inkscape:window-x="-26"
     inkscape:window-y="145"
     inkscape:window-maximized="0"
     inkscape:current-layer="layer1" />
  <defs
     id="defs1">
    <radialGradient
       id="n"
       cx="489.07001"
       cy="210.33"
       r="0.345"
       gradientTransform="matrix(0.00861722,0,0,0.0090267,-825.15993,-674.59387)"
       gradientUnits="userSpaceOnUse">
      <stop
         style="stop-color:#fff"
         offset="0"
         id="stop19" />
      <stop
         style="stop-color:#fff;stop-opacity:0"
         offset="1"
         id="stop21" />
    </radialGradient>
    <radialGradient
       id="m"
       cx="477.85999"
       cy="215.27"
       r="0.345"
       gradientUnits="userSpaceOnUse"
       gradientTransform="matrix(0.00881945,0,0,0.00881945,-825.15993,-674.59387)">
      <stop
         style="stop-color:#a50a0a"
         offset=".259"
         id="stop14" />
      <stop
         style="stop-color:#4c0505"
         offset="1"
         id="stop16" />
    </radialGradient>
    <linearGradient
       id="l"
       x1="473.31"
       x2="475.92999"
       y1="237.25"
       y2="270.45001"
       gradientUnits="userSpaceOnUse"
       gradientTransform="matrix(0.00881945,0,0,0.00881945,-825.15993,-674.59387)">
      <stop
         style="stop-color:#f9f0aa"
         offset=".216"
         id="stop39" />
      <stop
         style="stop-color:#b07e09"
         offset="1"
         id="stop41" />
    </linearGradient>
    <linearGradient
       id="k"
       x1="451.54001"
       x2="455.37"
       y1="249.52"
       y2="240.58"
       gradientUnits="userSpaceOnUse"
       gradientTransform="matrix(0.00881945,0,0,0.00881945,-825.15993,-674.59387)">
      <stop
         style="stop-color:#f9f0aa"
         offset=".216"
         id="stop34" />
      <stop
         style="stop-color:#b07e09"
         offset="1"
         id="stop36" />
    </linearGradient>
    <radialGradient
       id="j"
       cx="445.98001"
       cy="252.36"
       r="13.018"
       gradientUnits="userSpaceOnUse"
       xlink:href="#a"
       gradientTransform="matrix(0.00881945,0,0,0.00881945,-825.15993,-674.59387)" />
    <radialGradient
       id="a">
      <stop
         style="stop-color:#f9f0aa"
         offset=".216"
         id="stop4" />
      <stop
         style="stop-color:#b07e09"
         offset="1"
         id="stop6" />
    </radialGradient>
    <linearGradient
       id="i"
       x1="483.13"
       x2="485.5"
       y1="296.66"
       y2="326.57999"
       gradientUnits="userSpaceOnUse"
       gradientTransform="matrix(0.00881945,0,0,0.00881945,-825.15993,-674.59387)">
      <stop
         style="stop-color:#b07e09;stop-opacity:0"
         offset=".216"
         id="stop29" />
      <stop
         style="stop-color:#b07e09"
         offset="1"
         id="stop31" />
    </linearGradient>
    <linearGradient
       id="h"
       x1="473.91"
       x2="472.35999"
       y1="259.17001"
       y2="231.96001"
       gradientUnits="userSpaceOnUse"
       gradientTransform="matrix(0.00881945,0,0,0.00881945,-825.15993,-674.59387)">
      <stop
         style="stop-color:#b07e09;stop-opacity:0"
         offset=".216"
         id="stop24" />
      <stop
         style="stop-color:#b07e09"
         offset="1"
         id="stop26" />
    </linearGradient>
    <radialGradient
       id="g"
       cx="458.39001"
       cy="307.06"
       r="17.354"
       gradientUnits="userSpaceOnUse"
       xlink:href="#a"
       gradientTransform="matrix(0.00881945,0,0,0.00881945,-825.15993,-674.59387)" />
    <radialGradient
       id="radialGradient2">
      <stop
         style="stop-color:#f9f0aa"
         offset=".216"
         id="stop1" />
      <stop
         style="stop-color:#b07e09"
         offset="1"
         id="stop2" />
    </radialGradient>
    <radialGradient
       id="f"
       cx="454.10999"
       cy="308.64001"
       r="9.7799997"
       gradientUnits="userSpaceOnUse"
       xlink:href="#a"
       gradientTransform="matrix(0.00881945,0,0,0.00881945,-825.15993,-674.59387)" />
    <radialGradient
       id="radialGradient5">
      <stop
         style="stop-color:#f9f0aa"
         offset=".216"
         id="stop3" />
      <stop
         style="stop-color:#b07e09"
         offset="1"
         id="stop5" />
    </radialGradient>
    <radialGradient
       id="e"
       cx="451.56"
       cy="313"
       r="10.911"
       gradientUnits="userSpaceOnUse"
       xlink:href="#a"
       gradientTransform="matrix(0.00881945,0,0,0.00881945,-825.15993,-674.59387)" />
    <radialGradient
       id="radialGradient8">
      <stop
         style="stop-color:#f9f0aa"
         offset=".216"
         id="stop7" />
      <stop
         style="stop-color:#b07e09"
         offset="1"
         id="stop8" />
    </radialGradient>
    <radialGradient
       id="d"
       cx="447.42001"
       cy="308.26999"
       r="16.534"
       gradientUnits="userSpaceOnUse"
       xlink:href="#a"
       gradientTransform="matrix(0.00881945,0,0,0.00881945,-825.15993,-674.59387)" />
    <radialGradient
       id="radialGradient10">
      <stop
         style="stop-color:#f9f0aa"
         offset=".216"
         id="stop9" />
      <stop
         style="stop-color:#b07e09"
         offset="1"
         id="stop10" />
    </radialGradient>
  </defs>
  <g
     inkscape:label="Layer 1"
     inkscape:groupmode="layer"
     id="layer1"
     transform="translate(768.03588,680.99754)">
    <path
       d="m -768.03588,-680.99754 h 7.9375 v 5.29167 h -7.9375 z"
       fill="#ce1126"
       id="path176"
       style="stroke-width:0.0192078" />
    <path
       d="m -768.03588,-679.23365 h 7.9375 v 3.52778 h -7.9375 z"
       fill="#ffffff"
       id="path179"
       style="stroke-width:0.0192078" />
    <path
       d="m -768.03588,-677.46976 h 7.9375 v 1.76388 h -7.9375 z"
       id="path182"
       style="stroke-width:0.0192078" />
    <path
       d="m -763.29336,-678.68174 c -0.0108,-0.006 -0.0229,-0.0148 -0.0269,-0.0204 -0.006,-0.008 -0.003,-0.009 0.0225,-0.002 0.0448,0.0122 0.0737,0.007 0.10232,-0.0169 l 0.0253,-0.0213 0.0297,0.0151 c 0.0164,0.008 0.0338,0.014 0.0388,0.0127 0.0129,-0.003 0.0396,-0.0377 0.0387,-0.0495 -10e-4,-0.0147 0.0113,-0.011 0.0173,0.005 0.0119,0.0315 -0.005,0.0676 -0.036,0.0757 -0.0149,0.004 -0.0287,0.002 -0.0514,-0.005 -0.0278,-0.01 -0.0325,-0.01 -0.0464,0.001 -0.0312,0.0239 -0.0747,0.0262 -0.11382,0.006 z"
       id="path158"
       style="fill:#007a3d;stroke-width:0.0193126" />
    <path
       d="m -763.18263,-678.78298 c -0.0109,-0.0138 -0.0239,-0.0661 -0.0197,-0.079 0.004,-0.0111 0.008,-0.0133 0.0177,-0.0102 0.0177,0.006 0.0218,0.0178 0.0192,0.0592 -0.002,0.0337 -0.007,0.0426 -0.0171,0.03 z"
       id="path161"
       style="fill:#007a3d;stroke-width:0.0193126" />
    <path
       d="m -764.48654,-678.82056 c -0.004,0.0253 0.0449,0.0882 0.0668,0.0996 -0.0149,0.007 -0.0334,0.004 -0.047,0.0111 -0.0762,0.0763 -0.35472,0.34774 -0.40557,0.41263 0.15062,0.003 0.31766,-0.002 0.45889,-0.008 -1.4e-4,-0.10234 0.0969,-0.10761 0.16186,-0.14489 0.0334,0.0526 0.11732,0.0486 0.12781,0.1278 0,0.0948 1.8e-4,0.23768 1.8e-4,0.34079 -0.42602,0 -0.86067,0 -1.28671,0 -0.0226,0.1 -0.11286,0.17622 -0.23859,0.14484 0.0389,-0.0406 0.10439,-0.0546 0.12783,-0.11074 0.0198,-0.12292 -0.0395,-0.19884 -0.0779,-0.26856 0.0634,-0.0231 0.073,-0.0288 0.13753,-0.0722 -0.0453,0.13751 0.11763,0.1224 0.23857,0.11926 0.004,-0.0467 0.002,-0.1018 -0.0341,-0.10862 0.0463,-0.0168 0.054,-0.0226 0.12783,-0.0852 v 0.18527 c 0.28749,0 0.59757,-0.002 0.89107,-0.002 0,-0.058 0.0154,-0.1511 -0.0305,-0.1511 -0.0438,0 -0.002,0.11922 -0.0361,0.11922 -0.034,0 -0.45808,0 -0.68811,0 0,-0.0256 -6.5e-4,-0.0793 -6.5e-4,-0.11789 0.0292,-0.0292 0.0257,-0.0266 0.22495,-0.2259 0.0198,-0.0199 0.15964,-0.14615 0.28194,-0.26483 z"
       id="path164"
       style="fill:#007a3d;stroke-width:0.0193126" />
    <path
       d="m -762.76655,-678.82546 c 0.048,0.0259 0.0861,0.0616 0.14488,0.0767 -0.007,0.0244 -0.0285,0.034 -0.0342,0.0596 v 0.51971 c 0.0657,0.0145 0.0795,-0.0227 0.11079,-0.0426 0.009,0.0832 0.0615,0.16472 0.0596,0.23002 -0.0937,0 -0.18745,0 -0.28117,0 3e-5,-0.2811 3e-5,-0.56227 3e-5,-0.84346 z"
       id="path167"
       style="fill:#007a3d;stroke-width:0.0193126" />
    <path
       d="m -763.14145,-678.54713 c 0,0 0.10228,-0.0863 0.10228,-0.0897 v 0.45354 l 0.0737,-1.1e-4 c 0,-0.17279 -0.002,-0.34805 -0.002,-0.50865 0.0299,-0.0299 0.0885,-0.0732 0.10309,-0.10348 v 0.81229 c -0.20753,0 -0.5947,2.5e-4 -0.64587,2.5e-4 -0.01,-0.16858 -0.0111,-0.34321 0.1854,-0.30564 0,-0.0287 0,-0.0458 0,-0.0688 -0.006,-0.0118 -0.0168,0.003 -0.0193,-0.0124 0.0312,-0.0312 0.0418,-0.0392 0.12627,-0.11302 0,0.0891 0.002,0.29935 0.002,0.29935 0.0207,0 0.0609,7e-5 0.0745,7e-5 2e-5,3e-5 7e-4,-0.35201 7e-4,-0.36364 z m -0.24243,0.35927 c 0.0138,0.0208 0.0609,0.0204 0.0587,-0.0146 -0.008,-0.0288 -0.0698,-0.0178 -0.0587,0.0146 z"
       id="path170"
       style="fill:#007a3d;stroke-width:0.0193126" />
    <path
       id="path185"
       style="fill:#007a3d;stroke-width:0.0193126"
       d="m -765.21414,-677.88623 a 0.03943644,0.03943644 0 0 1 -0.0394,0.0394 0.03943644,0.03943644 0 0 1 -0.0394,-0.0394 0.03943644,0.03943644 0 0 1 0.0394,-0.0394 0.03943644,0.03943644 0 0 1 0.0394,0.0394 z" />
    <path
       d="m -764.03646,-678.82463 c 0.048,0.0259 0.0861,0.0616 0.14489,0.0767 -0.007,0.0243 -0.0285,0.034 -0.0341,0.0596 v 0.51972 c 0.0657,0.0145 0.0795,-0.0228 0.11078,-0.0426 0.009,0.0832 0.0615,0.1647 0.0596,0.23002 -0.0937,0 -0.18745,0 -0.2812,0 4e-5,-0.28112 4e-5,-0.56227 4e-5,-0.84344 z"
       id="path173"
       style="fill:#007a3d;stroke-width:0.0193126" />
  </g>
</svg>
