<?xml version="1.0" encoding="UTF-8" standalone="no"?>
<!-- Creator: CorelDRAW Home & Student X8 -->

<svg
   xml:space="preserve"
   width="7.9375mm"
   height="5.291667mm"
   version="1.1"
   style="clip-rule:evenodd;fill-rule:evenodd;image-rendering:optimizeQuality;shape-rendering:geometricPrecision;text-rendering:geometricPrecision"
   viewBox="0 0 793.75 529.1667"
   id="svg15"
   sodipodi:docname="Çerkesya.svg"
   inkscape:version="1.4 (86a8ad7, 2024-10-11)"
   xmlns:inkscape="http://www.inkscape.org/namespaces/inkscape"
   xmlns:sodipodi="http://sodipodi.sourceforge.net/DTD/sodipodi-0.dtd"
   xmlns="http://www.w3.org/2000/svg"
   xmlns:svg="http://www.w3.org/2000/svg"><sodipodi:namedview
   id="namedview15"
   pagecolor="#ffffff"
   bordercolor="#000000"
   borderopacity="0.25"
   inkscape:showpageshadow="2"
   inkscape:pageopacity="0.0"
   inkscape:pagecheckerboard="0"
   inkscape:deskcolor="#d1d1d1"
   inkscape:document-units="mm"
   inkscape:zoom="1.4234583"
   inkscape:cx="425.37248"
   inkscape:cy="283.46457"
   inkscape:window-width="1920"
   inkscape:window-height="1009"
   inkscape:window-x="-8"
   inkscape:window-y="-8"
   inkscape:window-maximized="1"
   inkscape:current-layer="Layer_x0020_1" />
 <defs
   id="defs1">
  <style
   type="text/css"
   id="style1">
   <![CDATA[
    .fil0 {fill:#3D722D}
    .fil1 {fill:#FCEB0A}
   ]]>
  </style>
 </defs>
 <g
   id="Layer_x0020_1"
   inkscape:label="Layer 1"
   inkscape:groupmode="layer">
  <metadata
   id="CorelCorpID_0Corel-Layer" />
  <rect
   class="fil0"
   width="793.75"
   height="529.16669"
   id="rect1"
   x="0"
   y="0"
   style="stroke-width:0.0352778" />
  <g
   id="_625624112"
   transform="scale(0.03527778)">
   <g
   id="g1">
    <polygon
   class="fil1"
   points="11362,7500 11362,11250 11475,11475 11475,12413 11250,12038 11025,12413 11025,11475 11138,11250 11138,7500 11025,7500 11250,6188 11475,7500 "
   id="polygon1" />
   </g>
  </g>
  <g
   id="_625623488"
   transform="scale(0.03527778)">
   <g
   id="g2">
    <polygon
   class="fil1"
   points="12655,8129 10004,10780 9924,11019 9261,11682 9367,11258 8943,11364 9606,10701 9845,10621 12496,7970 12417,7890 13504,7121 12735,8208 "
   id="polygon2" />
   </g>
  </g>
  <g
   id="_625623848"
   transform="scale(0.03527778)">
   <g
   id="g3">
    <polygon
   class="fil1"
   points="10004,7970 12655,10621 12894,10701 13557,11364 13133,11258 13239,11682 12576,11019 12496,10780 9845,8129 9765,8208 8996,7121 10083,7890 "
   id="polygon3" />
   </g>
  </g>
  <polygon
   class="fil1"
   points="2001,9567 2438,9567 2086,9844 2223,10285 1875,10011 1527,10285 1664,9844 1313,9567 1749,9567 1875,9159 "
   id="polygon4"
   transform="scale(0.03527778)" />
  <polygon
   class="fil1"
   points="4251,6192 4688,6192 4336,6469 4473,6910 4125,6636 3777,6910 3914,6469 3563,6192 3999,6192 4125,5784 "
   id="polygon5"
   transform="scale(0.03527778)" />
  <polygon
   class="fil1"
   points="6501,4317 6938,4317 6586,4594 6723,5035 6375,4761 6027,5035 6164,4594 5813,4317 6249,4317 6375,3909 "
   id="polygon6"
   transform="scale(0.03527778)" />
  <polygon
   class="fil1"
   points="8938,3192 9375,3192 9024,3469 9160,3910 8813,3636 8465,3910 8601,3469 8250,3192 8687,3192 8813,2784 "
   id="polygon7"
   transform="scale(0.03527778)" />
  <polygon
   class="fil1"
   points="8563,5254 9000,5254 8649,5531 8785,5972 8438,5698 8090,5972 8226,5531 7875,5254 8312,5254 8438,4847 "
   id="polygon8"
   transform="scale(0.03527778)" />
  <polygon
   class="fil1"
   points="11376,5254 11812,5254 11461,5531 11598,5972 11250,5698 10902,5972 11039,5531 10687,5254 11124,5254 11250,4847 "
   id="polygon9"
   transform="scale(0.03527778)" />
  <polygon
   class="fil1"
   points="11376,2817 11812,2817 11461,3094 11598,3535 11250,3261 10902,3535 11039,3094 10687,2817 11124,2817 11250,2409 "
   id="polygon10"
   transform="scale(0.03527778)" />
  <polygon
   class="fil1"
   points="20499,9567 20063,9567 20414,9844 20277,10285 20625,10011 20973,10285 20836,9844 21188,9567 20751,9567 20625,9159 "
   id="polygon11"
   transform="scale(0.03527778)" />
  <polygon
   class="fil1"
   points="18249,6192 17813,6192 18164,6469 18027,6910 18375,6636 18723,6910 18586,6469 18938,6192 18501,6192 18375,5784 "
   id="polygon12"
   transform="scale(0.03527778)" />
  <polygon
   class="fil1"
   points="15999,4317 15563,4317 15914,4594 15777,5035 16125,4761 16473,5035 16336,4594 16688,4317 16251,4317 16125,3909 "
   id="polygon13"
   transform="scale(0.03527778)" />
  <polygon
   class="fil1"
   points="13562,3192 13125,3192 13476,3469 13340,3910 13688,3636 14035,3910 13899,3469 14250,3192 13813,3192 13688,2784 "
   id="polygon14"
   transform="scale(0.03527778)" />
  <polygon
   class="fil1"
   points="13937,5254 13500,5254 13851,5531 13715,5972 14062,5698 14410,5972 14274,5531 14625,5254 14188,5254 14062,4847 "
   id="polygon15"
   transform="scale(0.03527778)" />
 </g>
</svg>
