<?xml version="1.0"?>
<svg width="30" height="20" xmlns="http://www.w3.org/2000/svg"><symbol id="Flag_of_South_Africa" width="30" height="20" viewBox="0 0 90 60"><defs><clipPath id="b"><path d="m0 0 45 30L0 60z"/></clipPath><clipPath id="a"><path d="M0 0h90v60H0z"/></clipPath></defs><path d="M0 0h90v30H45z" fill="#E03C31"/><path d="M0 60h90V30H45z" fill="#001489"/><g clip-path="url(#a)" fill="none"><path d="M90 30H45L0 0v60l45-30" stroke="#FFF" stroke-width="20"/><path d="m0 0 45 30L0 60" clip-path="url(#b)" fill="#000" stroke="#ffb81c" stroke-width="20"/><path d="m0 0 45 30h45M0 60l45-30" stroke="#007749" stroke-width="12"/></g></symbol><use href="#Flag_of_South_Africa"/><path d="M19 0h11v20H19z" fill="#fff"/><path transform="matrix(0 -.1.1 0 0 0)" d="m-151.6 264.9 3.9 14.2h13.9l-21.9-68.1h-12l-22.3 68.1h13.9l4-14.2zm-17.3-11.2 7.2-25.1 7 25.1zm89.52-2.8v-10.7h-29.22v-18.5h32.87v-10.7h-46.07v68.1h13.2v-28.2zm42.4 2.8 12.82 25.4h14.09v-.6l-14.65-28.1q2.81-1.3 5.06-3 2.29-1.7 3.93-4.1 1.59-2.3 2.43-5.2.89-2.9.89-6.6 0-5-1.78-8.9-1.73-3.8-4.96-6.4-3.27-2.6-7.86-3.9t-10.25-1.3h-22.84v68.1h13.15v-25.4zm-9.97-10.7v-21.4h9.69q2.71 0 4.82.7t3.56 1.9q1.64 1.3 2.43 3.4.84 2.1.84 4.8 0 2.3-.65 4.1-.61 1.8-1.83 3.1-1.45 1.7-3.79 2.5-2.29.9-5.34.9z"/></svg>
