<?xml version="1.0" encoding="UTF-8" standalone="no"?>
<!-- Created with Inkscape (http://www.inkscape.org/) -->

<svg
   width="7.9375mm"
   height="5.2916698mm"
   viewBox="0 0 7.9375 5.29167"
   version="1.1"
   id="svg1"
   inkscape:version="1.4 (86a8ad7, 2024-10-11)"
   sodipodi:docname="aln.svg"
   xmlns:inkscape="http://www.inkscape.org/namespaces/inkscape"
   xmlns:sodipodi="http://sodipodi.sourceforge.net/DTD/sodipodi-0.dtd"
   xmlns:xlink="http://www.w3.org/1999/xlink"
   xmlns="http://www.w3.org/2000/svg"
   xmlns:svg="http://www.w3.org/2000/svg">
  <sodipodi:namedview
     id="namedview1"
     pagecolor="#ffffff"
     bordercolor="#000000"
     borderopacity="0.25"
     inkscape:showpageshadow="2"
     inkscape:pageopacity="0.0"
     inkscape:pagecheckerboard="0"
     inkscape:deskcolor="#d1d1d1"
     inkscape:document-units="mm"
     inkscape:zoom="0.71891835"
     inkscape:cx="637.76366"
     inkscape:cy="510.48913"
     inkscape:window-width="1904"
     inkscape:window-height="992"
     inkscape:window-x="-26"
     inkscape:window-y="145"
     inkscape:window-maximized="0"
     inkscape:current-layer="layer1" />
  <defs
     id="defs1">
    <radialGradient
       id="n"
       cx="489.07001"
       cy="210.33"
       r="0.345"
       gradientTransform="matrix(0.00861722,0,0,0.0090267,-825.15993,-674.59387)"
       gradientUnits="userSpaceOnUse">
      <stop
         style="stop-color:#fff"
         offset="0"
         id="stop19" />
      <stop
         style="stop-color:#fff;stop-opacity:0"
         offset="1"
         id="stop21" />
    </radialGradient>
    <radialGradient
       id="m"
       cx="477.85999"
       cy="215.27"
       r="0.345"
       gradientUnits="userSpaceOnUse"
       gradientTransform="matrix(0.00881945,0,0,0.00881945,-825.15993,-674.59387)">
      <stop
         style="stop-color:#a50a0a"
         offset=".259"
         id="stop14" />
      <stop
         style="stop-color:#4c0505"
         offset="1"
         id="stop16" />
    </radialGradient>
    <linearGradient
       id="l"
       x1="473.31"
       x2="475.92999"
       y1="237.25"
       y2="270.45001"
       gradientUnits="userSpaceOnUse"
       gradientTransform="matrix(0.00881945,0,0,0.00881945,-825.15993,-674.59387)">
      <stop
         style="stop-color:#f9f0aa"
         offset=".216"
         id="stop39" />
      <stop
         style="stop-color:#b07e09"
         offset="1"
         id="stop41" />
    </linearGradient>
    <linearGradient
       id="k"
       x1="451.54001"
       x2="455.37"
       y1="249.52"
       y2="240.58"
       gradientUnits="userSpaceOnUse"
       gradientTransform="matrix(0.00881945,0,0,0.00881945,-825.15993,-674.59387)">
      <stop
         style="stop-color:#f9f0aa"
         offset=".216"
         id="stop34" />
      <stop
         style="stop-color:#b07e09"
         offset="1"
         id="stop36" />
    </linearGradient>
    <radialGradient
       id="j"
       cx="445.98001"
       cy="252.36"
       r="13.018"
       gradientUnits="userSpaceOnUse"
       xlink:href="#a"
       gradientTransform="matrix(0.00881945,0,0,0.00881945,-825.15993,-674.59387)" />
    <radialGradient
       id="a">
      <stop
         style="stop-color:#f9f0aa"
         offset=".216"
         id="stop4" />
      <stop
         style="stop-color:#b07e09"
         offset="1"
         id="stop6" />
    </radialGradient>
    <linearGradient
       id="i"
       x1="483.13"
       x2="485.5"
       y1="296.66"
       y2="326.57999"
       gradientUnits="userSpaceOnUse"
       gradientTransform="matrix(0.00881945,0,0,0.00881945,-825.15993,-674.59387)">
      <stop
         style="stop-color:#b07e09;stop-opacity:0"
         offset=".216"
         id="stop29" />
      <stop
         style="stop-color:#b07e09"
         offset="1"
         id="stop31" />
    </linearGradient>
    <linearGradient
       id="h"
       x1="473.91"
       x2="472.35999"
       y1="259.17001"
       y2="231.96001"
       gradientUnits="userSpaceOnUse"
       gradientTransform="matrix(0.00881945,0,0,0.00881945,-825.15993,-674.59387)">
      <stop
         style="stop-color:#b07e09;stop-opacity:0"
         offset=".216"
         id="stop24" />
      <stop
         style="stop-color:#b07e09"
         offset="1"
         id="stop26" />
    </linearGradient>
    <radialGradient
       id="g"
       cx="458.39001"
       cy="307.06"
       r="17.354"
       gradientUnits="userSpaceOnUse"
       xlink:href="#a"
       gradientTransform="matrix(0.00881945,0,0,0.00881945,-825.15993,-674.59387)" />
    <radialGradient
       id="radialGradient2">
      <stop
         style="stop-color:#f9f0aa"
         offset=".216"
         id="stop1" />
      <stop
         style="stop-color:#b07e09"
         offset="1"
         id="stop2" />
    </radialGradient>
    <radialGradient
       id="f"
       cx="454.10999"
       cy="308.64001"
       r="9.7799997"
       gradientUnits="userSpaceOnUse"
       xlink:href="#a"
       gradientTransform="matrix(0.00881945,0,0,0.00881945,-825.15993,-674.59387)" />
    <radialGradient
       id="radialGradient5">
      <stop
         style="stop-color:#f9f0aa"
         offset=".216"
         id="stop3" />
      <stop
         style="stop-color:#b07e09"
         offset="1"
         id="stop5" />
    </radialGradient>
    <radialGradient
       id="e"
       cx="451.56"
       cy="313"
       r="10.911"
       gradientUnits="userSpaceOnUse"
       xlink:href="#a"
       gradientTransform="matrix(0.00881945,0,0,0.00881945,-825.15993,-674.59387)" />
    <radialGradient
       id="radialGradient8">
      <stop
         style="stop-color:#f9f0aa"
         offset=".216"
         id="stop7" />
      <stop
         style="stop-color:#b07e09"
         offset="1"
         id="stop8" />
    </radialGradient>
    <radialGradient
       id="d"
       cx="447.42001"
       cy="308.26999"
       r="16.534"
       gradientUnits="userSpaceOnUse"
       xlink:href="#a"
       gradientTransform="matrix(0.00881945,0,0,0.00881945,-825.15993,-674.59387)" />
    <radialGradient
       id="radialGradient10">
      <stop
         style="stop-color:#f9f0aa"
         offset=".216"
         id="stop9" />
      <stop
         style="stop-color:#b07e09"
         offset="1"
         id="stop10" />
    </radialGradient>
  </defs>
  <g
     inkscape:label="Layer 1"
     inkscape:groupmode="layer"
     id="layer1"
     transform="translate(814.42771,827.55082)">
    <path
       d="m -814.42771,-827.55082 h 7.9375 v 5.29167 h -7.9375 z"
       fill="#244aa5"
       id="path203"
       style="stroke-width:0.00881944" />
    <path
       d="m -811.23428,-825.04081 c 0,0 0.0137,-0.009 0.0188,-0.0105 0.005,-0.001 0.0228,-0.007 0.0228,-0.007 0,0 0.0114,-0.006 0.0174,-0.006 0.006,0 0.0188,0.007 0.0228,0.0127 0.004,0.006 0.0238,0.016 0.0238,0.016 0,0 0.0137,0.005 0.0164,0 0.003,-0.005 0.009,-0.008 0.0151,-0.008 0.006,0 0.007,-0.006 0.007,-0.0105 0,-0.005 0.003,-0.0105 0.007,-0.0161 0.005,-0.006 0.0151,-0.009 0.0151,-0.009 0,0 0.0137,-0.006 0.0151,-0.0139 0.001,-0.008 0.0151,-0.0139 0.0228,-0.0151 0.007,-10e-4 0,-0.005 0.0201,-0.002 0.0201,0.002 0.0228,-0.005 0.0238,-0.0105 10e-4,-0.006 0,-0.0117 0.0127,-0.0105 0.0127,10e-4 0.0188,10e-4 0.0188,-0.006 0,-0.007 0.0114,-0.0105 -0.009,-0.016 -0.0201,-0.006 -0.0188,-0.001 -0.0201,-0.0105 -10e-4,-0.009 0,-0.008 -0.0137,-0.009 -0.0137,-10e-4 -0.006,-0.008 -0.007,-0.0151 -10e-4,-0.007 -0.005,-0.0105 -0.007,-0.0151 -0.003,-0.005 -0.0101,-0.005 -0.0101,-0.0114 0,-0.007 -0.001,-0.0105 -0.009,-0.0105 -0.007,0 -0.01,0 -0.01,-0.007 0,-0.007 10e-4,-0.0127 0.009,-0.0127 0.007,0 0.0114,-0.006 0.0101,-0.0127 -10e-4,-0.007 -10e-4,-0.0219 -10e-4,-0.0219 l 0.01,-0.0117 c 0,0 0.0302,-0.0244 0.0328,-0.029 0.003,-0.005 0.0127,-0.008 0.0174,10e-4 0.005,0.009 0.007,0.0117 0.0114,0.0161 0.004,0.005 0.0151,0.001 0.0174,-0.003 0.003,-0.005 0.004,-0.0216 0.0104,-0.0309 0.007,-0.009 0.0114,-0.0136 0.0131,-0.021 0.002,-0.007 0.005,-0.0136 0.0131,-0.0136 0.008,0 0.0131,-0.0105 0.0131,-0.0167 0,-0.006 0.003,-0.012 0.0131,-0.0136 0.01,-0.002 0.0148,-0.007 0.0181,0.002 0.003,0.009 0.007,0.009 0.0131,0.012 0.007,0.003 0.0164,0.007 0.0211,0.003 0.005,-0.005 0.007,-0.012 0.0148,-0.007 0.007,0.005 0.0121,0 0.0137,-0.009 0.002,-0.009 0.003,-0.021 0.003,-0.021 0,0 0.002,-0.006 0.0131,-0.006 0.0114,0 0.003,-0.007 0.01,-0.012 0.007,-0.005 0.007,-0.009 0.0148,-0.006 0.008,0.003 0.0211,-0.004 0.0147,-0.0111 -0.007,-0.007 -0.0211,-0.0195 -0.0131,-0.0287 0.008,-0.009 0.0114,-0.0241 0.003,-0.0256 -0.008,-0.002 -0.0198,0.002 -0.0211,-0.007 -0.002,-0.009 -0.005,-0.0151 0.005,-0.0167 0.01,-0.002 0.0261,-0.002 0.0312,-0.006 0.005,-0.005 0.0211,-0.007 0.0211,-0.021 0,-0.0136 0.005,-0.0151 0.007,-0.0225 0.002,-0.007 0.002,-0.0232 -0.005,-0.0306 -0.007,-0.007 -0.0164,-0.0182 -0.0181,-0.0225 -0.002,-0.005 -0.008,-0.012 -0.0181,-0.0151 -0.01,-0.003 -0.0181,-0.005 -0.0181,-0.012 0,-0.007 0.007,0.002 0.007,-0.0182 0,-0.0195 -0.0131,-0.0225 -0.0131,-0.0225 l -0.0198,-0.012 c 0,0 -0.0349,-0.009 -0.0442,-0.009 -0.009,0 -0.0201,-0.01 -0.009,-0.016 0.0107,-0.006 0.0134,-0.0173 0.009,-0.0259 -0.004,-0.009 -0.007,-0.0148 -0.0214,-0.0185 -0.0148,-0.004 -0.0188,-0.007 -0.0121,-0.0161 0.007,-0.009 0.008,-0.0148 0.0161,-0.009 0.008,0.006 0.0214,0.009 0.0322,0.004 0.0107,-0.005 0.0148,-0.009 0.0201,-0.004 0.005,0.005 0.0121,0.01 0.0201,0.002 0.008,-0.007 0.0228,-0.009 0.0295,-0.005 0.007,0.004 0.0228,0.002 0.0282,0 0.005,-0.002 0.0161,-0.0111 0.0161,-0.0161 0,-0.005 0.007,-0.0136 0.0134,-0.0173 0.007,-0.004 0.0148,-0.016 0.0215,-0.016 0.007,0 0.009,-0.007 0.009,-0.0124 0,-0.005 0.005,-0.0148 0.007,-0.0185 10e-4,-0.004 0.0148,-0.009 0.0241,-10e-4 0.009,0.007 0.0214,0.01 0.0214,0.01 0,0 0.0134,0.002 0.0201,0 0.007,-0.002 0.0161,-0.005 0.0255,10e-4 0.009,0.006 0.0228,0.006 0.0228,0.006 0,0 0.003,-0.01 0.003,-0.0148 0,-0.005 0.003,-0.0136 -0.003,-0.0173 -0.005,-0.004 -0.0121,-0.009 -0.001,-0.0161 0.0107,-0.007 0.0107,-0.006 0.0214,-0.006 0.0107,0 0.0174,10e-4 0.0255,10e-4 0.008,0 0.0214,0.007 0.0214,0.0148 0,0.007 0.005,0.0123 0.0121,0.016 0.007,0.004 0.0148,0.007 0.0121,0.0136 -0.003,0.006 -0.003,0.0111 0.005,0.01 0.008,-10e-4 0.0107,0.004 0.0107,0.01 0,0.006 0.003,0.01 0.0107,0.0123 0.008,0.002 0.0121,0.007 0.0121,0.0136 0,0.006 -0.001,0.01 10e-4,0.0161 0.003,0.006 0.0107,0.016 0.0107,0.016 0,0 0.0147,0.0173 -0.004,0.009 -0.0188,-0.009 -0.0228,-0.0123 -0.0295,-0.0111 -0.007,10e-4 -0.0107,0.005 -0.0107,0.005 0,0 -0.009,0.002 -0.0161,0.002 -0.007,0 -0.0134,0.0136 -0.003,0.016 0.0107,0.002 0.0148,0.005 0.0148,0.0136 0,0.009 -0.004,0.006 -0.009,0.0123 -0.005,0.006 -0.009,0.002 -0.0188,0.002 -0.009,0 -0.0121,0.007 -0.0121,0.0148 0,0.007 0.004,0.006 0.008,0.0123 0.004,0.006 0.0107,0.007 0.0174,10e-4 0.007,-0.006 0.0121,-0.01 0.0161,10e-4 0.004,0.0111 0.009,0.0111 0.0174,0.0111 0.008,0 0.0107,0 0.0174,-0.004 0.007,-0.004 0.0148,0 0.0161,0.01 10e-4,0.01 0.008,0.0111 0.0147,0.0148 0.007,0.004 0.0107,0.006 0.0121,0.0123 0.001,0.006 0.005,0.009 0.0121,0.005 0.007,-0.004 0.0174,-0.006 0.0214,-10e-4 0.004,0.005 0.0107,0.0148 0.0107,0.0148 l 10e-4,0.0123 0.0255,0.009 c 0,0 0.003,0.006 0.003,0.0111 0,0.005 0.004,0.007 0.0107,0.006 0.007,-10e-4 0.0188,0 0.0188,0 0,0 0.009,-0.004 0.009,-0.0111 0,-0.007 0.004,-0.01 0.0107,-0.01 0.007,0 0.0214,0.005 0.0255,-0.002 0.004,-0.007 0.0161,-0.01 0.0255,-0.006 0.009,0.004 0.0335,0.0136 0.0335,0.0136 0,0 -0.003,10e-4 0.005,0.0136 0.008,0.0123 0.0228,0.0123 0.0228,0.0123 0,0 10e-4,0.0111 0.004,0.0161 0.003,0.005 0.0147,0.007 0.0215,0.002 0.007,-0.005 0.0161,-0.0111 0.0241,-0.0111 0.008,0 0.0134,0 0.0134,-0.005 0,-0.005 -0.008,-0.009 -0.008,-0.0161 0,-0.007 0.008,-0.007 0.009,-0.0148 10e-4,-0.007 0.009,0 0.0147,0.004 0.005,0.004 0.0121,0.01 0.0121,0.0148 0,0.005 0.0107,0.0222 0.0174,0.0247 0.007,0.002 0.0241,0.004 0.0295,-0.002 0.005,-0.006 0.0188,-0.009 0.0174,0.006 -10e-4,0.0148 -0.004,0.0161 0.005,0.021 0.009,0.005 0.0107,0.0222 0.003,0.0272 -0.008,0.005 -0.0107,0.006 -0.0107,0.0148 0,0.009 -0.003,0.0185 0.004,0.0235 0.007,0.005 0.0107,0.009 0.0107,0.0136 0,0.005 0.008,0.0272 0.008,0.0272 0,0 0.004,0.0222 0.003,0.0272 -10e-4,0.005 -0.004,0.0136 0.008,0.0123 0.0121,-10e-4 0.0148,-10e-4 0.0148,0.009 0,0.01 0.004,0.0136 -0.003,0.0173 -0.007,0.004 -0.0107,0.016 -0.004,0.0185 0.007,0.002 0.0121,0.006 0.0134,0.0111 0.001,0.005 0.0121,0.0136 0.0188,0.009 0.007,-0.005 0.008,-0.007 0.0134,-0.009 0.005,-10e-4 0.009,-0.005 0.004,-0.0111 -0.005,-0.006 -0.007,-0.0123 -10e-4,-0.016 0.005,-0.004 0.008,-0.0161 0.008,-0.0161 0,0 0.008,-0.0111 0.0174,0 0.009,0.0111 0.0107,0.007 0.0174,0.007 0.007,0 0.009,0.006 0.009,0.0123 0,0.006 0.0134,0.005 0.0134,0.0148 0,0.01 0.003,0.0333 0.003,0.0333 0,0 0,0.0136 0.008,0.0185 0.008,0.005 0.007,0.006 0.003,0.0123 -0.004,0.006 -0.003,0.0161 -0.003,0.021 0,0.005 0.003,0.007 -0.004,0.0123 -0.007,0.005 -0.009,0.0111 -0.005,0.0185 0.004,0.007 0.003,0.0123 0.0134,0.021 0.0107,0.009 0.009,0.0123 0.009,0.0185 0,0.006 0.0107,0.0148 0.0107,0.021 0,0.006 0.008,0.0136 0.0147,0.0148 0.007,10e-4 0.0147,0.0124 0.0147,0.0185 0,0.006 10e-4,0.0222 10e-4,0.0222 0,0 -10e-4,0.004 0.007,0.004 0.008,0 0.0134,0.009 0.0161,-0.001 0.003,-0.01 0.0107,-0.0111 0.0161,-0.0136 0.005,-0.002 0.0161,-0.007 0.0215,-0.004 0.005,0.004 0.0121,0.004 0.0174,0.004 0.005,0 0.0308,0.001 0.0308,0.001 0,0 0.007,-0.001 0.0107,0.009 0.004,0.01 0.0161,0.021 0.009,0.0259 -0.007,0.005 -0.007,0.0148 10e-4,0.0148 0.008,0 0.0161,0 0.0161,0.006 0,0.006 0.001,0.0111 0.008,0.007 0.007,-0.004 0.0107,-0.005 0.0134,0 0.003,0.005 0.008,0.005 0.0148,0.009 0.007,0.004 0.009,10e-4 0.0134,-0.004 0.004,-0.005 0.0201,-0.01 0.0201,-0.01 0,0 0.0214,-0.005 0.0295,-0.002 0.008,0.002 0.0188,0.007 0.0188,0.007 0,0 0.005,0.0124 0.003,0.0198 -0.003,0.007 -0.005,0.006 -0.003,0.0173 0.003,0.0111 -0.003,0.0123 -0.008,0.0111 -0.005,-10e-4 -0.0107,-10e-4 -0.0107,0.009 0,0.01 -0.005,0.0123 -0.005,0.021 0,0.009 0,0.007 -0.005,0.0111 -0.005,0.004 -0.007,0.01 10e-4,0.0111 0.008,10e-4 0.005,0.01 0.005,0.0148 0,0.005 -10e-4,0.0161 -10e-4,0.0161 0,0 10e-4,0.006 -0.008,0.006 -0.009,0 -0.0174,-10e-4 -0.0188,0.005 -0.001,0.006 -0.0121,0.016 -0.003,0.0222 0.009,0.006 0.007,0.01 10e-4,0.0124 -0.005,0.002 -0.009,0.0148 10e-4,0.0185 0.0107,0.004 0.009,0.007 0.003,0.0123 -0.007,0.005 -0.0201,0.009 -0.0201,0.0161 0,0.007 -0.003,0.007 -0.0107,0.009 -0.008,10e-4 -0.0121,0.0111 -0.003,0.0235 0.009,0.0124 0.0121,0.01 0.0188,0.01 0.007,0 0.007,-0.01 0.007,-0.01 0,0 0.0228,10e-4 0.0295,10e-4 0.007,0 0.0161,0 0.0215,-0.004 0.005,-0.004 0.0201,-0.01 0.0201,0.001 0,0.0111 0.003,0.01 0.009,0.0148 0.007,0.005 0.008,10e-4 0.0134,0.009 0.005,0.007 0.007,10e-4 0.0107,-0.007 0.004,-0.009 0.0121,-0.0173 0.0188,-0.007 0.007,0.01 0.007,0.007 0.0147,0.007 0.008,0 0.0107,0.004 0.0107,0.01 0,0.006 0.008,0.006 0.0174,0.005 0.009,-10e-4 0.0107,0.005 0.0147,0.0111 0.004,0.006 0.005,0.005 0.0107,0.005 0.005,0 0.0107,0 0.0147,-0.005 0.004,-0.005 0.009,-0.0111 0.0148,-0.004 0.005,0.007 0.0161,0.006 0.0188,-0.002 0.003,-0.009 0.0147,-0.016 0.0214,-0.006 0.007,0.01 0.0121,0.01 0.0188,0.0111 0.007,10e-4 0.0161,10e-4 0.0201,0.007 0.004,0.006 0.0174,0.0161 0.008,0.0235 -0.009,0.007 -0.0201,0.0173 -0.0121,0.0198 0.008,0.002 0.0134,0.005 0.0188,0.0111 0.005,0.006 0.0228,0.009 0.0308,0.01 0.008,10e-4 0.0148,0.002 0.0241,-0.005 0.009,-0.007 0.0188,-0.007 0.0174,0.002 -10e-4,0.01 0.004,0.021 0.004,0.021 0,0 0.007,0.016 0.007,0.0222 0,0.006 -0.001,0.007 0.0107,0.0148 0.0121,0.007 0.0107,0.0124 0.0201,0.005 0.009,-0.007 0.0121,-0.0111 0.0121,-0.0173 v -0.0198 c 0,0 0.0134,-0.002 0.0188,-0.006 0.005,-0.004 0.0268,-0.0148 0.0322,-0.01 0.005,0.005 0.0121,0.004 0.0174,10e-4 0.005,-0.002 0.0161,-0.002 0.0214,-0.002 0.005,0 0.0147,10e-4 0.0255,-0.007 0.0107,-0.009 0.0107,-0.006 0.0174,0 0.007,0.006 0.007,0.0136 0.003,0.0185 -0.004,0.005 0,0.0161 0.009,0.0161 0.009,0 0.0121,0.005 0.0121,0.0111 0,0.006 10e-4,0.0148 0.003,0.0197 10e-4,0.005 10e-4,0.007 0.0161,0.0111 0.0148,0.004 0.0121,0.0123 0.0148,0.0185 0.003,0.006 0.003,0.0111 -0.005,0.0111 -0.008,0 -0.0107,0.004 -0.0121,0.01 -0.001,0.006 -0.0134,0.009 -0.0134,0.009 l -0.0121,-0.002 c 0,0 -0.008,0 -0.0121,0.005 -0.004,0.005 -0.0121,0.0148 -0.007,0.0235 0.005,0.009 0.005,0.0136 0,0.0173 -0.005,0.004 -0.008,0.0222 -0.0134,0.0185 -0.005,-0.004 -0.0121,10e-4 -0.0174,0.004 -0.005,0.002 -0.004,0.0197 0.007,0.0259 0.0107,0.006 0.0134,0.0148 0.0134,0.0148 l 0.0121,0.0185 c 0,0 -0.004,0.004 -0.007,0.01 -0.003,0.006 -0.0107,0.0185 -0.003,0.021 0.008,0.002 0.004,0.0161 -0.004,0.0161 -0.008,0 -0.0174,-0.004 -0.0188,0.006 -10e-4,0.01 -0.005,0.007 -0.0134,0.006 -0.008,-10e-4 -0.0282,-0.006 -0.0335,0.004 -0.005,0.01 -0.007,0.0136 -0.0161,0.0123 -0.009,-10e-4 -0.005,0.0148 -0.003,0.021 0.003,0.006 0.0121,0.0148 0.0121,0.0148 0,0 0.008,0.006 0.008,0.0185 0,0.0123 -0.005,0.0111 -0.0107,0.002 -0.005,-0.009 -0.0161,-0.007 -0.0174,0.002 -10e-4,0.01 -0.003,0.0247 -0.0121,0.0247 -0.009,0 -0.0134,0.002 -0.0174,0.007 -0.004,0.005 -0.0107,0.0136 -0.0107,0.0185 0,0.005 -10e-4,0.01 -0.008,0.0111 -0.007,0.001 -0.008,0.0148 -0.008,0.0148 0,0 -0.0161,0.002 -0.0174,0.009 -0.001,0.006 10e-4,0.016 -0.0121,0.0173 -0.0134,10e-4 -0.0214,0.01 -0.0255,0.016 -0.004,0.006 -0.005,0.0111 0,0.0173 0.005,0.006 0.009,0.0259 0.0161,0.0296 0.007,0.004 0.0121,0.005 0.0107,0.0148 -10e-4,0.01 -0.009,0.0173 10e-4,0.0173 0.0107,0 0.0174,0.002 0.0134,0.0111 -0.004,0.009 -0.004,0.01 -0.0121,0.0136 -0.008,0.004 -0.0121,0.004 -0.0121,0.0136 0,0.01 0.003,0.01 -0.004,0.0136 -0.007,0.004 -0.007,0.009 -0.007,0.016 0,0.007 -0.003,0.005 -0.0107,0.0136 -0.008,0.009 -0.0188,0.009 -0.0255,0.006 -0.007,-0.002 -0.008,-0.002 -0.009,-0.01 -10e-4,-0.007 -0.0134,-0.007 -0.0201,-0.006 -0.007,10e-4 -0.0161,0.009 -0.0161,0.009 0,0 -0.0121,0.007 -0.007,0.0136 0.005,0.006 0.003,0.0161 -0.007,0.0148 -0.009,-10e-4 -0.0308,0.01 -0.0375,-10e-4 -0.007,-0.0111 -0.0255,-0.0185 -0.0282,-0.004 -0.003,0.0148 0.008,0.0136 0.007,0.0284 -0.001,0.0148 -0.004,0.0148 -0.009,0.0198 -0.005,0.005 -0.005,0.009 -0.007,0.0148 -10e-4,0.006 -0.003,0.0198 0.007,0.0247 0.009,0.005 0.0134,0.0185 0.0134,0.0259 0,0.007 0,0.0148 0.009,0.0148 0.009,0 0.0174,-10e-4 0.0188,-0.01 10e-4,-0.009 0.0201,-0.0136 0.0214,0.004 10e-4,0.0173 10e-4,0.0259 0.008,0.0333 0.007,0.007 0.0121,0.0173 0.0174,0.021 0.005,0.004 0.0144,0.0352 0.0144,0.0352 -0.0131,0.003 -0.0164,0.0198 -0.0248,0.0231 -0.005,0.002 -0.01,3.2e-4 -0.0141,0.003 -0.003,0.002 -0.003,0.007 -0.008,0.009 -0.01,0.004 -0.008,-0.0108 -0.0198,-0.005 -0.0107,0.005 -0.0117,0.0173 -0.0271,0.012 -0.008,-0.003 -0.0131,-0.0343 -0.0154,-0.0417 -0.001,-0.004 -0.01,-0.0173 -0.0124,-0.0213 -0.009,-0.0136 -0.0272,0 -0.0328,-0.004 -0.009,-0.006 -0.005,-0.0167 -0.0188,-0.0179 -0.0278,-0.002 -0.008,0.017 -0.0198,0.0213 -0.0225,0.008 -0.0225,-0.021 -0.0392,-0.008 -0.006,0.005 0.0101,0.008 0.006,0.0167 -0.003,0.007 -0.0198,0.0179 -0.0188,0.0262 10e-4,0.0114 0.0137,0.0148 0.0174,0.0244 0.01,0.0253 -0.007,0.0429 -0.0318,0.0231 -0.0141,-0.0111 -0.0168,-0.0318 -0.0385,-0.0303 -0.005,3.2e-4 -0.007,0.006 -0.0117,0.006 -0.005,3.1e-4 -0.009,-0.005 -0.0144,-0.003 -0.008,0.003 -10e-4,0.008 -0.003,0.013 0,0 -0.0107,0.009 -0.0124,0.0114 -0.006,0.008 -0.004,0.0151 -0.0127,0.0216 -0.007,0.006 -0.0131,0.002 -0.0211,0.0108 -0.008,0.009 -0.009,0.0222 -0.0198,0.0309 -0.005,0.004 -0.009,-0.013 -0.0158,-0.002 -10e-4,0.002 -0.002,0.003 -0.003,0.005 -0.002,0.003 -0.002,0.005 -3.5e-4,0.009 0.0141,0.0272 -0.0154,0.0374 -0.0245,0.0565 -0.004,0.008 0.007,0.0154 0.003,0.0216 -0.003,0.005 -0.0161,0.0173 -0.0171,0.0201 -0.001,0.003 -0.002,0.009 -0.005,0.0111 -0.002,0.002 -0.0104,10e-4 -0.0111,0.005 -6.7e-4,0.004 0.008,0.008 0.0107,0.0105 0.003,0.003 -0.001,0.008 -3.5e-4,0.009 0.0151,0.0151 0.006,0.0105 0.0137,0.0238 10e-4,0.002 0.006,-0.002 0.007,0.003 0.002,0.005 -0.004,0.004 -0.002,0.01 3.5e-4,0.002 0.0111,0.0154 0.0111,0.0157 6.7e-4,0.005 -0.0204,0.0142 -0.0251,0.0142 -0.0127,3.2e-4 0.0111,-0.0262 -0.01,-0.0262 -0.009,0 -0.01,0.0207 -0.0121,0.0228 -10e-4,9.3e-4 -0.009,0 -0.0114,0 -0.0134,0 -0.0221,0.0167 -0.0275,0.0182 -0.003,10e-4 -0.0107,-0.002 -0.0164,-9.3e-4 -0.005,9.3e-4 -0.0117,0.006 -0.0168,0.006 -0.003,0 -0.005,-0.002 -0.008,-0.004 -0.006,-0.003 -0.0171,-0.005 -0.0238,-0.007 -0.004,-10e-4 -0.0107,0.005 -0.0131,0.003 -0.004,-0.003 0.003,-0.0105 -0.007,-0.016 -0.001,-6.1e-4 -0.009,-0.0185 -0.008,-0.0194 0.003,-0.0117 0.007,-0.0244 0.005,-0.0367 -0.002,-0.0127 -0.0218,-0.0235 -0.0272,-0.0336 -0.004,-0.008 -0.008,-0.0281 -0.0154,-0.0333 -0.008,-0.006 -0.0161,-0.0164 -0.0205,-0.0247 -0.001,-0.002 0.003,-0.007 -3.5e-4,-0.0111 -0.003,-0.005 -0.01,-0.006 -0.0114,-0.0127 -10e-4,-0.005 0,-0.021 -0.006,-0.0244 -0.006,-0.004 -0.0473,-0.009 -0.0573,-0.01 -0.005,-3.2e-4 -0.009,-3.2e-4 -0.0134,-0.004 -0.002,-0.002 -0.004,-0.008 -0.006,-0.008 -0.004,-3.1e-4 -0.009,0.002 -0.0127,0.002 -0.003,3.2e-4 -0.008,-0.002 -0.0107,0 -0.0131,0.009 -0.0164,0.0204 -0.0288,0.0299 -0.0127,0.01 -0.0268,0.009 -0.0395,0.0204 -0.008,0.007 -0.0134,0.0241 -0.0214,0.0321 -0.003,0.003 -0.009,0 -0.0101,0.002 -0.007,0.008 -0.0161,0.0133 -0.0228,0.021 -10e-4,0.002 -10e-4,0.005 -0.003,0.006 l -0.0144,0.004 c -0.004,6.2e-4 -0.0107,-3.1e-4 -0.0137,6.2e-4 -0.007,0.002 -0.006,0.009 -0.0292,0.0139 -0.002,3.2e-4 -0.005,0.002 -0.006,0.003 -0.003,0.002 -0.005,0.005 -0.007,0.006 -0.002,10e-4 -0.007,-9.2e-4 -0.01,-6.1e-4 -0.006,9.2e-4 -0.009,0.006 -0.0144,0.006 -0.0121,0.002 -0.0315,-0.006 -0.0409,-0.002 -0.006,0.002 -0.0214,0.0198 -0.0271,0.0216 -0.004,10e-4 -0.006,-3.1e-4 -0.0104,-0.002 -0.002,0.002 -0.007,0.0216 -0.008,0.0259 0,3.2e-4 -0.0258,0.0219 -0.0278,0.0244 -0.003,0.004 -0.005,0.008 -0.009,0.0117 -0.003,0.003 -0.007,0.005 -0.0114,0.005 -0.005,0 -0.0134,-0.004 -0.0184,-0.005 -0.01,-0.002 -0.0389,-0.003 -0.0476,-9.2e-4 -0.009,0.002 -0.006,0.0278 -0.0288,0.0303 -0.0131,0.002 -0.0251,0.004 -0.0385,0.005 -0.001,0 -0.009,-0.006 -0.0174,-0.003 -0.003,9.3e-4 -0.0127,0.0108 -0.0127,0.0139 v 0.006 c 0,9.3e-4 0.003,0.004 0.002,0.005 -0.005,0.006 -0.0164,0.0151 -0.0201,0.0219 -10e-4,0.002 -0.002,0.004 -0.004,0.005 -0.003,0.002 -0.0184,0.008 -0.0198,0.0108 -0.004,0.009 0.0107,0.0179 0.009,0.0216 -0.004,0.012 -0.0201,0.0235 -0.0251,0.0346 -0.002,0.005 0.005,0.0201 0.005,0.0253 -0.002,0.0145 -0.007,0.033 -0.006,0.0472 0,0.003 0.002,0.0173 0.003,0.0188 0.002,0.003 0.005,0.004 0.008,0.007 0.002,0.002 0.0201,0.037 0.0208,0.0407 0.003,0.0256 -0.0338,0.0167 -0.0124,0.0423 0.003,0.004 0.006,0.008 0.01,0.0117 0.005,0.005 0.0322,0.0247 0.0325,0.0268 6.7e-4,0.004 -0.0221,0.007 -0.0261,0.0114 -0.0107,0.0105 -0.0198,0.0299 -0.0302,0.0408 -0.006,0.007 -0.0121,-6.2e-4 -0.0204,0.0151 -0.003,0.006 0,0.0191 -0.004,0.0228 -0.005,0.006 -0.01,-0.002 -0.0151,6.2e-4 -0.002,9.2e-4 -0.004,0.008 -0.006,0.01 -0.006,0.005 -0.0597,0.0337 -0.0647,0.0312 -0.003,-0.001 -0.006,-0.0102 -0.006,-0.013 -6.7e-4,-0.003 -0.004,-0.01 -0.007,-0.012 -0.0137,-0.0117 -0.0349,-0.0139 -0.0483,3.2e-4 -0.003,0.004 -0.004,0.009 -0.008,0.013 -0.007,0.006 -0.0158,0.0117 -0.0228,0.0179 -10e-4,10e-4 -0.005,0.006 -0.007,0.006 -0.005,-6.2e-4 -0.0184,-0.0154 -0.0218,-0.0195 -0.006,-0.007 -0.0235,-0.0241 -0.0251,-0.0321 0,-0.0275 -0.0214,-0.0562 -0.0305,-0.083 l 0.0134,3.2e-4 c 0.0151,-0.0102 0.0107,-0.0352 0.0379,-0.0253 0.003,-0.005 0.003,-0.01 0.009,-0.013 0.002,-10e-4 0.007,-0.002 0.008,-0.005 0.009,-0.0139 0.0198,-0.067 0.0104,-0.0806 -0.008,-0.0124 -0.0171,-0.0117 -0.0238,-0.0321 -0.002,-0.006 0.002,-0.012 0,-0.0182 -10e-4,-0.005 -0.0104,-0.0343 -0.0117,-0.0364 -0.002,-0.002 -0.007,-0.006 -0.008,-0.007 -3.5e-4,-0.002 -0.002,-0.0343 -10e-4,-0.0367 -0.009,-0.0247 -0.0395,-0.0404 -0.0412,-0.0432 -0.004,-0.006 -0.007,-0.0136 -0.0114,-0.0201 -0.005,-0.008 -0.005,-0.0117 -0.007,-0.0191 -10e-4,-0.003 -0.006,-0.006 -0.006,-0.01 -6.7e-4,-0.006 0.0178,-0.0201 0.0171,-0.0315 -3.1e-4,-0.004 -0.0117,-0.0148 -0.009,-0.021 0.002,-0.006 0.0141,-0.021 0.0137,-0.0281 -6.7e-4,-0.01 -0.0184,-0.0303 -0.0208,-0.0404 -10e-4,-0.005 0.007,-0.009 0.005,-0.0123 -0.002,-0.004 -0.0211,-0.0213 -0.0241,-0.0262 -0.002,-0.004 0.007,-0.009 3.5e-4,-0.0154 -0.006,-0.006 -0.001,-0.004 -0.003,-0.009 -0.002,-0.006 -0.009,-0.0111 -0.0114,-0.0173 -0.002,-0.005 -0.0184,-0.0633 -0.0181,-0.0667 -0.003,-0.004 -0.007,-0.007 -0.01,-0.0114 -0.002,-0.004 -0.003,-0.0117 -0.005,-0.0148 -3.6e-4,-3.2e-4 -0.0181,-0.006 -0.0215,-0.0108 -0.003,-0.004 -0.003,-0.0185 -0.008,-0.0256 -0.002,-0.003 -0.006,-0.003 -0.009,-0.005 -0.002,-0.002 -0.002,-0.005 -0.004,-0.007 -0.005,-0.007 -0.0161,-6.2e-4 -0.0235,-0.0278 -0.01,-0.007 -0.0188,-0.0127 -0.0271,-0.021 -0.002,-0.002 -0.003,-0.003 -0.005,-0.004 -0.007,-0.003 -0.0168,-0.004 -0.0225,-0.009 -0.003,0 -0.0211,-6.2e-4 -0.0231,-0.002 -0.002,-10e-4 -0.004,-0.009 -0.005,-0.009 -0.009,-0.002 -0.0248,-9.2e-4 -0.0328,-0.008 -0.006,-0.006 -0.008,-0.0324 -0.0191,-0.0287 -10e-4,-6.2e-4 -0.003,-10e-4 -0.005,-9.3e-4 -0.007,-0.01 -0.0328,-0.0108 -0.0432,-0.017 -0.003,-0.002 -0.0127,-3.1e-4 -0.0127,-0.003 0.002,-0.005 0.002,-0.01 0.002,-0.0148 -0.006,-0.006 -0.009,-0.012 -0.0134,-0.016 -0.01,-0.002 -0.006,-0.003 -0.0121,-0.007 -0.0168,-10e-4 -0.0184,0.002 -0.0292,0.0114 -0.003,0.002 -0.008,0.003 -0.0114,0.005 -0.006,0.003 -0.007,0.0133 -0.0154,0.009 -0.003,-0.002 -0.004,-0.004 -0.006,-0.006 -0.005,-0.004 -0.007,-0.002 -0.01,-0.009 -0.0137,-0.007 -0.0516,0.0182 -0.0607,3.1e-4 -0.006,-0.003 -0.0111,9.3e-4 -0.0164,-0.005 -0.003,-0.003 0.007,-0.0336 -0.0201,-0.0463 0.006,-0.005 0.0131,-0.008 0.0191,-0.013 0.002,-0.003 -3.2e-4,-0.009 -3.2e-4,-0.012 0,-0.005 0.003,-0.0154 0.002,-0.0191 -10e-4,-0.004 -0.005,-0.007 -0.006,-0.0111 -0.002,-0.004 3.5e-4,-0.01 -0.002,-0.0145 -0.002,-0.001 -0.007,-0.004 -0.009,-0.004 -0.007,-0.006 -0.0147,-0.01 -0.0204,-0.0167 -10e-4,-0.002 -0.002,-0.004 -0.004,-0.006 -0.005,-0.004 -0.0214,-0.009 -0.0208,-0.0164 3.5e-4,-0.002 0.004,-0.003 0.005,-0.005 10e-4,-0.003 3.2e-4,-0.007 0.003,-0.01 0.008,-0.0105 0.0248,-0.006 0.0221,-0.0253 -10e-4,-0.009 -0.007,-0.016 -0.009,-0.0253 -0.003,-0.002 -0.003,-0.006 -0.006,-0.008 -0.0168,-0.002 -0.0144,-0.0188 -0.0204,-0.0228 -0.0178,-0.012 -0.0315,-0.005 -0.0117,-0.0284 0.003,-0.008 -0.0171,-0.0201 -0.0211,-0.0244 -0.007,-0.007 -0.004,-0.021 -0.006,-0.0284 -0.001,-0.004 -0.0131,-0.0102 -0.0168,-0.0154 -0.001,-0.002 -0.004,-0.01 -0.006,-0.0105 l 3.2e-4,-0.002 c 0.004,-0.003 0.002,-0.008 6.7e-4,-0.012 -0.002,-0.002 -0.007,-0.002 -0.009,-0.003 -0.0161,-0.0145 -0.0355,-0.021 -0.0566,-0.0293 -0.006,-0.002 -0.004,-0.007 -0.009,-0.009 -0.004,-0.002 -0.0325,-0.0145 -0.0345,-0.0139 -0.003,-9.3e-4 -0.006,-0.0136 -0.008,-0.0176 -0.002,-0.004 -0.0101,-0.0105 -0.0101,-0.0108 6.7e-4,-0.0117 -0.007,-0.0133 -0.0158,-0.0194 6.7e-4,-0.002 -0.001,-0.005 -0.001,-0.007 0,-0.002 0.006,-0.0219 0.007,-0.0247 0.002,-0.004 0.007,-0.008 0.006,-0.0133 -10e-4,-0.008 -0.002,-0.0198 -0.005,-0.0265 -0.009,-0.0241 -0.0198,-0.021 -0.0141,-0.0525 10e-4,-0.006 -10e-4,-0.0102 0.004,-0.0161 -6.7e-4,-3.1e-4 0.002,-0.003 0.003,-0.004 0.003,-0.003 0.0114,-0.007 0.0131,-0.01 0.005,-0.007 0.008,-0.0222 0.0144,-0.0272 0.005,-0.004 0.0181,-0.0108 0.0204,-0.0139 0.002,-0.002 0.005,-0.0102 0.003,-0.0133 -0.005,-0.003 -0.009,-0.002 -0.0141,-0.002 -0.002,-3.2e-4 -0.008,-0.005 -0.0124,-0.006 -10e-4,-0.002 -0.004,-0.003 -0.004,-0.006 l -0.002,-0.002 c -0.005,-6.2e-4 -0.0114,-0.004 -0.0161,-0.006 -0.006,-0.002 -0.0144,-0.003 -0.0201,-0.006 -0.0107,-0.006 -0.0228,-0.0231 -0.0332,-0.0256 -0.0141,-0.003 -0.0231,10e-4 -0.0365,0.002 -0.009,6.2e-4 -0.009,-0.005 -0.0158,-0.007 -0.009,-0.003 -0.002,0.005 -0.0238,-0.002 -0.003,-0.002 10e-4,-0.01 0.002,-0.0124 -0.003,-9.3e-4 -0.007,9.3e-4 -0.0114,0 -0.0178,-0.004 -0.0111,-0.0204 -0.0158,-0.0309 -0.002,-0.002 -0.009,-0.002 -0.0127,-0.002 -10e-4,-3.2e-4 -10e-4,-0.002 -10e-4,-0.002 l 0.002,-10e-4 c 0.003,-0.005 -0.008,-0.0164 -0.007,-0.0179 6.8e-4,-0.004 0.0225,-0.007 0.0255,-0.007 10e-4,-0.003 -0.002,-0.005 -0.002,-0.008 -6.7e-4,-0.006 0.003,-0.0142 0.005,-0.0197 l -6.7e-4,-0.002 c -0.006,-0.003 -0.008,-0.008 -0.0134,-0.0123 3.1e-4,-0.003 0.004,-0.005 0.005,-0.007 0.0104,-0.0287 0.0265,-0.006 0.0406,-0.0324 10e-4,-0.002 0.005,-0.009 0.007,-0.0133 l 0.003,-6.2e-4 c 0.003,6.2e-4 0.006,0.003 0.009,0.002 0.002,-0.003 0.006,-0.004 0.01,-0.005 l 0.005,10e-4 c 0.0261,-0.006 0.0201,-0.0151 0.0352,-0.0259 0.004,-0.003 0.0158,-0.004 0.0211,-0.006 0.006,0.002 0.0137,0.0114 0.0245,0.0154 0.008,0.003 0.0342,0.009 0.0385,0.0111 0.006,0.003 0.007,0.0105 0.0117,0.0133 0.0151,0.008 0.006,-0.006 0.0208,-0.003 0.0147,0.003 0.0268,0.0151 0.0406,0.021 0.002,9.3e-4 0.008,-3.2e-4 0.0107,-9.3e-4 0.004,-9.2e-4 0.0278,-0.005 0.0302,-0.004 0.003,9.3e-4 0.007,0.003 0.009,0.004 0.003,6.1e-4 0.006,-0.006 0.008,-0.006 0.01,0.002 0.0104,0.006 0.0238,0.004 6.7e-4,0 0.007,-0.0377 0.0134,-0.0395 0.004,-9.3e-4 0.0137,0.009 0.0168,0.01 0.005,10e-4 -3.1e-4,-0.008 -6.7e-4,-0.008 -10e-4,-0.003 -0.008,-0.0262 -0.008,-0.0284 3.5e-4,-10e-4 0.007,0.002 0.01,9.2e-4 0.007,-0.002 0.0174,-0.004 0.0228,-0.0102 6.7e-4,-6.2e-4 0.0121,-0.017 0.0124,-0.0176 6.7e-4,-0.003 -0.003,-0.009 -10e-4,-0.0114 0.002,-0.002 0.008,-0.004 0.0111,-0.007 0.004,-0.004 0.005,-0.0117 0.0111,-0.0148 0.0238,-0.002 0.0322,-0.0207 0.0536,-0.0232 10e-4,0 0.006,-9.2e-4 0.007,-6.1e-4 l 0.004,0.007 c 10e-4,0.002 0.0158,0.0105 0.0181,0.01 0.002,-3.1e-4 0.003,-0.004 0.005,-0.004 0.004,6.2e-4 0.0164,-0.007 0.0178,-0.0105 3.5e-4,-6.2e-4 -0.003,-0.004 -10e-4,-0.007 10e-4,-0.002 0.0161,-0.013 0.0184,-0.0142 0.005,0 0.0111,-10e-4 0.0161,6.1e-4 0.003,10e-4 0.003,0.006 0.007,0.006 0.004,3.1e-4 0.0104,-10e-4 0.0131,-6.2e-4 0.003,6.2e-4 0.004,-0.006 0.008,-0.006 z"
       fill="#d0a650"
       id="path206"
       style="stroke-width:0.00881944" />
    <path
       id="path209"
       d="m -810.09,-826.79388 0.18662,0.57436 -0.48858,-0.35498 h 0.60392 l -0.48858,0.35498 z"
       fill="#ffffff"
       style="stroke-width:0.00881944" />
    <path
       id="path212"
       d="m -809.36329,-826.66574 0.18662,0.57437 -0.48858,-0.35498 h 0.60392 l -0.48858,0.35498 z"
       fill="#ffffff"
       style="stroke-width:0.00881944" />
    <path
       id="path215"
       d="m -808.66987,-826.41336 0.18662,0.57437 -0.48858,-0.35498 h 0.60392 l -0.48858,0.35498 z"
       fill="#ffffff"
       style="stroke-width:0.00881944" />
    <path
       id="path218"
       d="m -810.82792,-826.79388 -0.18662,0.57436 0.48858,-0.35498 h -0.60392 l 0.48858,0.35498 z"
       fill="#ffffff"
       style="stroke-width:0.00881944" />
    <path
       id="path221"
       d="m -811.55463,-826.66574 -0.18662,0.57437 0.48858,-0.35498 h -0.60392 l 0.48858,0.35498 z"
       fill="#ffffff"
       style="stroke-width:0.00881944" />
    <path
       id="path224"
       d="m -812.24805,-826.41336 -0.18662,0.57437 0.48858,-0.35498 h -0.60392 l 0.48858,0.35498 z"
       fill="#ffffff"
       style="stroke-width:0.00881944" />
  </g>
</svg>
