<?xml version="1.0" encoding="UTF-8" standalone="no"?>
<!-- Created with Inkscape (http://www.inkscape.org/) -->

<svg
   width="7.9375mm"
   height="5.2916698mm"
   viewBox="0 0 7.9375 5.29167"
   version="1.1"
   id="svg1"
   inkscape:version="1.4 (86a8ad7, 2024-10-11)"
   sodipodi:docname="amh.svg"
   xmlns:inkscape="http://www.inkscape.org/namespaces/inkscape"
   xmlns:sodipodi="http://sodipodi.sourceforge.net/DTD/sodipodi-0.dtd"
   xmlns="http://www.w3.org/2000/svg"
   xmlns:svg="http://www.w3.org/2000/svg">
  <sodipodi:namedview
     id="namedview1"
     pagecolor="#ffffff"
     bordercolor="#000000"
     borderopacity="0.25"
     inkscape:showpageshadow="2"
     inkscape:pageopacity="0.0"
     inkscape:pagecheckerboard="0"
     inkscape:deskcolor="#d1d1d1"
     inkscape:document-units="mm"
     inkscape:zoom="0.71891835"
     inkscape:cx="483.36504"
     inkscape:cy="235.07537"
     inkscape:window-width="1904"
     inkscape:window-height="992"
     inkscape:window-x="-9"
     inkscape:window-y="252"
     inkscape:window-maximized="0"
     inkscape:current-layer="layer1" />
  <defs
     id="defs1" />
  <g
     inkscape:label="Layer 1"
     inkscape:groupmode="layer"
     id="layer1"
     transform="translate(673.82424,535.57029)">
    <path
       d="m -673.82424,-535.57029 h 7.9375 v 5.29167 h -7.9375 z"
       style="fill:#da121a;stroke-width:0.00763789"
       id="path984" />
    <path
       d="m -673.82424,-535.57029 h 7.9375 v 3.52778 h -7.9375 z"
       style="fill:#fcdd09;stroke-width:0.00763789"
       id="path987" />
    <path
       d="m -673.82424,-535.57029 h 7.9375 v 1.76389 h -7.9375 z"
       style="fill:#078930;stroke-width:0.00763789"
       id="path990" />
    <path
       id="path993"
       style="fill:#0f47af;stroke-width:0.0146993"
       d="m -668.09157,-532.92446 a 1.7639242,1.7639242 0 0 1 -1.76392,1.76393 1.7639242,1.7639242 0 0 1 -1.76392,-1.76393 1.7639242,1.7639242 0 0 1 1.76392,-1.76392 1.7639242,1.7639242 0 0 1 1.76392,1.76392 z" />
    <path
       d="m -669.85549,-534.3356 -0.0618,0.19027 0.25501,0.7848 h -0.34 l -0.0382,0.1176 h 1.09015 l 0.16185,-0.1176 h -0.75016 z"
       style="fill:#fcdd09;stroke-width:0.0146993"
       id="path981" />
    <path
       style="color:#000000;fill:#000000;stroke-width:0.0587975;-inkscape-stroke:none"
       d="m -669.47532,-533.44771 0.44927,-0.61839"
       id="path945" />
    <path
       style="color:#000000;fill:#fcdd09;stroke-width:0.00881944;-inkscape-stroke:none"
       d="m -669.04984,-534.08337 -0.44927,0.61838 0.0476,0.0345 0.44928,-0.61838 z"
       id="path948" />
    <path
       d="m -668.51342,-533.36052 -0.20006,-1e-5 -0.66759,0.48504 -0.10506,-0.32335 h -0.12365 l 0.33688,1.0368 0.16185,0.11759 -0.23181,-0.71345 z"
       style="fill:#fcdd09;stroke-width:0.0146993"
       id="path969" />
    <path
       style="color:#000000;fill:#000000;stroke-width:0.0587975;-inkscape-stroke:none"
       d="m -669.24037,-532.72459 0.72696,0.23619"
       id="path957" />
    <path
       style="color:#000000;fill:#fcdd09;stroke-width:0.00881944;-inkscape-stroke:none"
       d="m -669.23129,-532.75255 -0.0182,0.0559 0.72695,0.23619 0.0182,-0.0559 z"
       id="path960" />
    <path
       d="m -669.02604,-531.78282 -0.0618,-0.19027 -0.6676,-0.48503 0.27506,-0.19984 -0.0382,-0.1176 -0.88195,0.64078 -0.0618,0.19027 0.6069,-0.44094 z"
       style="fill:#fcdd09;stroke-width:0.0146993"
       id="path972" />
    <path
       style="color:#000000;fill:#000000;stroke-width:0.0587975;-inkscape-stroke:none"
       d="m -669.85549,-532.27768 1e-5,0.76436"
       id="path963" />
    <path
       style="color:#000000;fill:#fcdd09;stroke-width:0.00881944;-inkscape-stroke:none"
       d="m -669.88489,-532.27767 1e-5,0.76436 h 0.0588 v -0.76436 z"
       id="path966" />
    <path
       d="m -670.68494,-531.78282 0.16186,-0.11759 0.25499,-0.78481 0.27506,0.19985 0.10003,-0.0727 -0.88195,-0.64077 h -0.20006 l 0.60689,0.44093 z"
       style="fill:#fcdd09;stroke-width:0.0146993"
       id="path975" />
    <path
       style="color:#000000;fill:#000000;stroke-width:0.0587975;-inkscape-stroke:none"
       d="m -670.47061,-532.72459 -0.72695,0.23621"
       id="path939" />
    <path
       style="color:#000000;fill:#fcdd09;stroke-width:0.00881944;-inkscape-stroke:none"
       d="m -670.47971,-532.75255 -0.72693,0.2362 0.0182,0.0559 0.72695,-0.23621 z"
       id="path942" />
    <path
       d="m -671.19756,-533.36052 0.16185,0.11759 h 0.82519 l -0.10507,0.32335 0.10004,0.0727 0.33687,-1.03679 -0.0618,-0.19027 -0.23182,0.71345 z"
       style="fill:#fcdd09;stroke-width:0.0146993"
       id="path978" />
    <path
       style="color:#000000;fill:#000000;stroke-width:0.0587975;-inkscape-stroke:none"
       d="m -670.23565,-533.44771 -0.44929,-0.61838"
       id="path951" />
    <path
       style="color:#000000;fill:#fcdd09;stroke-width:0.00881944;-inkscape-stroke:none"
       d="m -670.66116,-534.08337 -0.0476,0.0345 0.44928,0.61838 0.0476,-0.0345 z"
       id="path954" />
  </g>
</svg>
