<?xml version="1.0"?>
<svg width="30" height="20" xmlns="http://www.w3.org/2000/svg"><symbol id="ind" width="30" height="20"><rect width="30" height="20" fill="#fff"/><rect width="30" height="10" fill="red"/></symbol><use href="#ind"/><path d="M19 0h11v20H19z" fill="#fff"/><path transform="matrix(0 -.2.2 0 0 0)" d="m-75.82 132.4 1.99 7.2h6.92l-10.95-34.1h-5.97l-11.16 34.1h6.93l2.01-7.2zm-8.62-5.5 3.59-12.6 3.48 12.6zm46.9-1.9v-4.9q0-2.4-.44-4.4-.42-2.1-1.24-3.8-.75-1.5-1.8-2.8-1.03-1.3-2.42-2.1-1.38-1-3.11-1.5-1.71-.5-3.67-.5-1.94 0-3.61.5-1.66.5-2.99 1.4-1.36.9-2.41 2.3-1.03 1.3-1.76 2.9-.75 1.7-1.15 3.7-.37 2-.37 4.3v4.9q0 2.1.33 4 .35 1.9 1 3.5.73 1.8 1.81 3.2 1.07 1.4 2.43 2.4 1.38.9 3.07 1.4 1.68.5 3.67.5 1.87 0 3.49-.4 1.64-.5 2.99-1.3 1.5-.9 2.67-2.3t1.97-3.1q.75-1.7 1.14-3.7.4-2 .4-4.2zm-6.67-5v5q0 1.3-.14 2.5-.11 1.1-.37 2.1-.33 1.3-.89 2.3-.54 1-1.34 1.6-.63.6-1.45.8-.82.3-1.8.3-1.03 0-1.85-.3-.79-.3-1.43-.8-.67-.7-1.19-1.7-.49-1-.75-2.3-.23-.9-.33-2.1-.1-1.1-.1-2.4v-5q0-1.3.1-2.5.12-1.2.36-2.2.3-1.3.84-2.3.56-1 1.36-1.6.58-.5 1.31-.7.74-.2 1.66-.2.96 0 1.73.2.8.3 1.43.8.79.6 1.38 1.6.58 1 .93 2.2.29 1 .4 2.2.14 1.2.14 2.5zm21.18 14.2 16.499-24.8-.02-3.9h-24.439v5.3h16.48l-16.53 24.7v4.1h24.907v-5.4z"/></svg>
