<?xml version="1.0"?>
<svg width="30" height="20" xmlns="http://www.w3.org/2000/svg"><rect width="30" height="20" fill="#fff"/><rect width="30" height="10" fill="red"/><path d="M19 0h11v20H19z" fill="#fff"/><path transform="matrix(0 -.1.1 0 0 0)" d="m-151.6 264.9 3.9 14.2h13.9l-21.9-68.1h-12l-22.3 68.1h13.9l4-14.2zm-17.3-11.2 7.2-25.1 7 25.1zm93.83-3.6v-10q0-4.6-.89-8.7-.85-4.1-2.48-7.6-1.5-3-3.61-5.6-2.06-2.5-4.82-4.3-2.76-1.9-6.23-2.8-3.41-1.1-7.3-1.1-3.9 0-7.3 1-3.3 1-5.9 2.8-2.8 1.9-4.9 4.5-2 2.6-3.5 5.9-1.5 3.4-2.3 7.4-.7 4-.7 8.5v10q0 4.2.6 8 .7 3.8 2 7 1.5 3.5 3.7 6.3 2.1 2.8 4.8 4.7 2.8 1.9 6.2 2.9 3.3 1.1 7.3 1.1 3.75 0 6.98-1 3.27-.9 5.99-2.5 2.99-1.9 5.33-4.7t3.94-6.2q1.49-3.3 2.29-7.3.8-3.9.8-8.3zm-13.34-10.1v10.1q0 2.5-.29 4.8-.23 2.4-.74 4.3-.66 2.6-1.78 4.6-1.08 1.9-2.67 3.2-1.27 1.1-2.9 1.7-1.64.5-3.61.5-2.1 0-3.7-.6t-2.9-1.7q-1.3-1.3-2.3-3.3t-1.5-4.5q-.5-2-.7-4.3t-.2-4.7v-10.1q0-2.6.2-5t.7-4.4q.6-2.6 1.7-4.6 1.1-1.9 2.7-3.2 1.2-.9 2.6-1.4 1.5-.5 3.4-.5 1.87 0 3.42.6 1.59.5 2.85 1.4 1.6 1.3 2.77 3.3 1.17 1.9 1.87 4.5.56 2 .79 4.4.29 2.3.29 4.9zm42.35 28.5 33-49.7v-7.8h-48.87v10.7h32.96l-33.05 49.4v8h49.8v-10.6z"/></svg>
