<?xml version="1.0"?>
<svg width="30" height="20" xmlns="http://www.w3.org/2000/svg"><rect width="30" height="20" fill="#fff"/><rect width="30" height="10" fill="red"/><rect x="19" width="11" height="20" fill="#fff"/><path transform="rotate(-90)" d="m-15.96 22.26-1.85 5.65h-1.49l2.53-6.81h0.95zm1.54 5.65-1.85-5.65-0.15-1.16h0.95l2.55 6.81zm-0.1-2.53v1.09h-3.6v-1.09zm7.724-1.03v0.32q0 0.78-0.211 1.39-0.21 0.62-0.594 1.06-0.384 0.43-0.917 0.66-0.529 0.23-1.174 0.23-0.638 0-1.178-0.23-0.53-0.23-0.91-0.66-0.39-0.44-0.61-1.06-0.21-0.61-0.21-1.39v-0.32q0-0.79 0.21-1.4 0.21-0.62 0.6-1.05 0.38-0.44 0.91-0.67 0.54-0.23 1.178-0.23 0.646 0 1.175 0.23 0.533 0.23 0.917 0.67 0.388 0.43 0.599 1.05 0.215 0.61 0.215 1.4zm-1.418 0.32v-0.33q0-0.55-0.1-0.96t-0.29-0.69q-0.192-0.28-0.468-0.42-0.276-0.15-0.632-0.15-0.358 0-0.628 0.15-0.27 0.14-0.47 0.42-0.18 0.28-0.28 0.69t-0.1 0.96v0.33q0 0.54 0.1 0.95 0.1 0.42 0.29 0.7t0.47 0.43q0.27 0.14 0.628 0.14 0.355 0 0.631-0.14 0.276-0.15 0.463-0.43 0.188-0.28 0.286-0.7 0.1-0.41 0.1-0.95zm7.2482 2.15v1.09h-4.8092v-1.09zm-0.07-4.94-4.136 6.03h-0.9682v-0.8l4.169-6.01h0.955zm-0.4622-0.78v1.1h-4.637v-1.1z"/></svg>
