<?xml version="1.0" encoding="UTF-8" standalone="no"?>
<!-- Created with Inkscape (http://www.inkscape.org/) -->

<svg
   width="7.9375mm"
   height="5.2916698mm"
   viewBox="0 0 7.9375 5.29167"
   version="1.1"
   id="svg1"
   inkscape:version="1.4 (86a8ad7, 2024-10-11)"
   sodipodi:docname="apc.svg"
   xmlns:inkscape="http://www.inkscape.org/namespaces/inkscape"
   xmlns:sodipodi="http://sodipodi.sourceforge.net/DTD/sodipodi-0.dtd"
   xmlns:xlink="http://www.w3.org/1999/xlink"
   xmlns="http://www.w3.org/2000/svg"
   xmlns:svg="http://www.w3.org/2000/svg">
  <sodipodi:namedview
     id="namedview1"
     pagecolor="#ffffff"
     bordercolor="#000000"
     borderopacity="0.25"
     inkscape:showpageshadow="2"
     inkscape:pageopacity="0.0"
     inkscape:pagecheckerboard="0"
     inkscape:deskcolor="#d1d1d1"
     inkscape:document-units="mm"
     inkscape:zoom="0.71891835"
     inkscape:cx="523.70342"
     inkscape:cy="207.2558"
     inkscape:window-width="1904"
     inkscape:window-height="992"
     inkscape:window-x="-26"
     inkscape:window-y="145"
     inkscape:window-maximized="0"
     inkscape:current-layer="layer1" />
  <defs
     id="defs1">
    <radialGradient
       id="n"
       cx="489.07001"
       cy="210.33"
       r="0.345"
       gradientTransform="matrix(0.00861722,0,0,0.0090267,-825.15993,-674.59387)"
       gradientUnits="userSpaceOnUse">
      <stop
         style="stop-color:#fff"
         offset="0"
         id="stop19" />
      <stop
         style="stop-color:#fff;stop-opacity:0"
         offset="1"
         id="stop21" />
    </radialGradient>
    <radialGradient
       id="m"
       cx="477.85999"
       cy="215.27"
       r="0.345"
       gradientUnits="userSpaceOnUse"
       gradientTransform="matrix(0.00881945,0,0,0.00881945,-825.15993,-674.59387)">
      <stop
         style="stop-color:#a50a0a"
         offset=".259"
         id="stop14" />
      <stop
         style="stop-color:#4c0505"
         offset="1"
         id="stop16" />
    </radialGradient>
    <linearGradient
       id="l"
       x1="473.31"
       x2="475.92999"
       y1="237.25"
       y2="270.45001"
       gradientUnits="userSpaceOnUse"
       gradientTransform="matrix(0.00881945,0,0,0.00881945,-825.15993,-674.59387)">
      <stop
         style="stop-color:#f9f0aa"
         offset=".216"
         id="stop39" />
      <stop
         style="stop-color:#b07e09"
         offset="1"
         id="stop41" />
    </linearGradient>
    <linearGradient
       id="k"
       x1="451.54001"
       x2="455.37"
       y1="249.52"
       y2="240.58"
       gradientUnits="userSpaceOnUse"
       gradientTransform="matrix(0.00881945,0,0,0.00881945,-825.15993,-674.59387)">
      <stop
         style="stop-color:#f9f0aa"
         offset=".216"
         id="stop34" />
      <stop
         style="stop-color:#b07e09"
         offset="1"
         id="stop36" />
    </linearGradient>
    <radialGradient
       id="j"
       cx="445.98001"
       cy="252.36"
       r="13.018"
       gradientUnits="userSpaceOnUse"
       xlink:href="#a"
       gradientTransform="matrix(0.00881945,0,0,0.00881945,-825.15993,-674.59387)" />
    <radialGradient
       id="a">
      <stop
         style="stop-color:#f9f0aa"
         offset=".216"
         id="stop4" />
      <stop
         style="stop-color:#b07e09"
         offset="1"
         id="stop6" />
    </radialGradient>
    <linearGradient
       id="i"
       x1="483.13"
       x2="485.5"
       y1="296.66"
       y2="326.57999"
       gradientUnits="userSpaceOnUse"
       gradientTransform="matrix(0.00881945,0,0,0.00881945,-825.15993,-674.59387)">
      <stop
         style="stop-color:#b07e09;stop-opacity:0"
         offset=".216"
         id="stop29" />
      <stop
         style="stop-color:#b07e09"
         offset="1"
         id="stop31" />
    </linearGradient>
    <linearGradient
       id="h"
       x1="473.91"
       x2="472.35999"
       y1="259.17001"
       y2="231.96001"
       gradientUnits="userSpaceOnUse"
       gradientTransform="matrix(0.00881945,0,0,0.00881945,-825.15993,-674.59387)">
      <stop
         style="stop-color:#b07e09;stop-opacity:0"
         offset=".216"
         id="stop24" />
      <stop
         style="stop-color:#b07e09"
         offset="1"
         id="stop26" />
    </linearGradient>
    <radialGradient
       id="g"
       cx="458.39001"
       cy="307.06"
       r="17.354"
       gradientUnits="userSpaceOnUse"
       xlink:href="#a"
       gradientTransform="matrix(0.00881945,0,0,0.00881945,-825.15993,-674.59387)" />
    <radialGradient
       id="radialGradient2">
      <stop
         style="stop-color:#f9f0aa"
         offset=".216"
         id="stop1" />
      <stop
         style="stop-color:#b07e09"
         offset="1"
         id="stop2" />
    </radialGradient>
    <radialGradient
       id="f"
       cx="454.10999"
       cy="308.64001"
       r="9.7799997"
       gradientUnits="userSpaceOnUse"
       xlink:href="#a"
       gradientTransform="matrix(0.00881945,0,0,0.00881945,-825.15993,-674.59387)" />
    <radialGradient
       id="radialGradient5">
      <stop
         style="stop-color:#f9f0aa"
         offset=".216"
         id="stop3" />
      <stop
         style="stop-color:#b07e09"
         offset="1"
         id="stop5" />
    </radialGradient>
    <radialGradient
       id="e"
       cx="451.56"
       cy="313"
       r="10.911"
       gradientUnits="userSpaceOnUse"
       xlink:href="#a"
       gradientTransform="matrix(0.00881945,0,0,0.00881945,-825.15993,-674.59387)" />
    <radialGradient
       id="radialGradient8">
      <stop
         style="stop-color:#f9f0aa"
         offset=".216"
         id="stop7" />
      <stop
         style="stop-color:#b07e09"
         offset="1"
         id="stop8" />
    </radialGradient>
    <radialGradient
       id="d"
       cx="447.42001"
       cy="308.26999"
       r="16.534"
       gradientUnits="userSpaceOnUse"
       xlink:href="#a"
       gradientTransform="matrix(0.00881945,0,0,0.00881945,-825.15993,-674.59387)" />
    <radialGradient
       id="radialGradient10">
      <stop
         style="stop-color:#f9f0aa"
         offset=".216"
         id="stop9" />
      <stop
         style="stop-color:#b07e09"
         offset="1"
         id="stop10" />
    </radialGradient>
  </defs>
  <g
     inkscape:label="Layer 1"
     inkscape:groupmode="layer"
     id="layer1"
     transform="translate(802.251,812.41381)">
    <path
       fill="#ed1c24"
       d="m -802.251,-812.41381 h 7.9375 v 5.29167 h -7.9375 z"
       id="path2"
       style="stroke-width:0.00881944" />
    <path
       fill="#ffffff"
       d="m -802.251,-811.09089 h 7.9375 v 2.64583 h -7.9375 z"
       id="path4"
       style="stroke-width:0.00881944" />
    <path
       d="m -798.31835,-811.09089 c -0.0568,0.11959 -0.16374,0.20317 -0.26597,0.28227 -0.0168,0.0147 -0.0586,0.0431 -0.0283,0.0648 0.026,-0.029 0.0973,0.009 0.0559,0.0407 -0.0371,0.0348 -0.0882,0.0475 -0.12948,0.0761 -0.0365,0.0199 -0.0736,0.0406 -0.10251,0.0709 -0.002,0.0475 0.0589,0.0212 0.0836,0.0409 0.0321,0.0344 -0.0136,0.0923 -0.0558,0.0791 -0.0539,0.002 -0.0912,0.0491 -0.1116,0.0944 -0.0422,0.0652 -0.12215,0.0846 -0.18582,0.12171 -0.0364,0.0212 -0.0718,0.0447 -0.10567,0.0695 -0.0437,0.0299 -0.006,0.0891 0.0408,0.0745 0.0502,-0.005 0.0954,-0.0445 0.14737,-0.0331 0.0471,0.0166 0.0604,0.0782 0.0443,0.12119 -0.0119,0.0344 -0.0408,0.0587 -0.0638,0.0856 -0.0375,0.038 -0.0866,0.0627 -0.13829,0.0744 -0.05,0.0168 -0.0949,0.0474 -0.12771,0.0888 -0.038,0.0383 -0.076,0.0772 -0.1197,0.10919 -0.0138,0.0353 0.0252,0.0653 0.0577,0.0643 0.0685,-0.004 0.11598,-0.0604 0.17432,-0.0892 0.0484,-0.0218 0.10539,0.0304 0.0936,0.0809 -0.004,0.0491 -0.0497,0.074 -0.0905,0.0891 -0.12008,0.0604 -0.22434,0.1479 -0.31691,0.24447 -0.0191,0.0391 -0.0718,0.0276 -0.10013,0.0548 -0.0185,0.0344 0.0279,0.0526 0.0555,0.0491 0.1188,-0.0143 0.22966,-0.0645 0.33467,-0.11975 0.039,-0.0187 0.0757,-0.0432 0.11633,-0.0581 0.0381,-0.009 0.0913,0.007 0.0981,0.0505 -7e-5,0.0458 -0.0455,0.0712 -0.0814,0.0891 -0.11086,0.0583 -0.23253,0.0905 -0.35102,0.12895 -0.0444,-0.0124 -0.0778,0.0665 -0.0291,0.0807 0.0515,0.0176 0.10616,0.003 0.1588,10e-4 0.16276,-0.0249 0.3051,-0.113 0.45724,-0.16993 0.0633,-0.0206 0.13791,0.008 0.16912,0.0674 0.0314,0.0528 0.0285,0.1223 -0.005,0.17363 -0.0523,0.11185 -0.13176,0.21465 -0.23846,0.27896 -0.067,0.0332 -0.14515,0.0458 -0.20255,0.0966 -0.0531,0.0175 0.0266,0.0892 0.0381,0.0323 0.0319,-0.0435 0.0882,-0.0565 0.1392,-0.0583 0.0767,-0.008 0.15816,-0.0225 0.21775,-0.0756 0.0534,-0.0415 0.10608,-0.0987 0.17863,-0.0996 0.0401,0.005 0.0798,0.037 0.12048,0.0173 0.0356,-0.0163 0.0915,-0.007 0.10082,0.0371 0.017,0.0512 0.0698,0.0746 0.11172,0.10198 0.0152,0.0213 0.0655,0.0762 0.0772,0.0278 -0.009,-0.0345 0.004,-0.0874 0.0493,-0.0758 0.0396,0.002 0.0773,0.0164 0.11676,0.0187 0.0526,0.0109 0.0965,0.0469 0.12631,0.0904 0.0205,0.0284 0.0655,0.0771 0.099,0.0395 0.0207,-0.0389 -0.0189,-0.0713 -0.0511,-0.0852 -0.047,-0.0291 -0.0872,-0.0679 -0.12831,-0.10466 -0.0606,-0.0566 -0.1129,-0.12855 -0.12252,-0.21308 -0.013,-0.0843 -0.006,-0.17023 0.005,-0.25428 0.0139,-0.0541 0.083,-0.0837 0.13143,-0.0549 0.0681,0.0311 0.13568,0.0755 0.21374,0.0707 0.11278,0.002 0.22868,-0.0192 0.33889,0.0135 0.10726,0.0338 0.18395,0.1243 0.28843,0.16347 0.0234,0.0142 0.0533,6.9e-4 0.0619,-0.0243 0.0104,-0.0225 0.003,-0.0512 -0.0186,-0.064 -0.12109,-0.12223 -0.28657,-0.1816 -0.42668,-0.27711 -0.0441,-0.0112 -0.0521,-0.0822 -0.0114,-0.10265 0.0536,-0.039 0.12946,-0.0208 0.17702,0.0194 0.0402,0.0235 0.0854,0.0412 0.13254,0.0412 0.0483,-0.0151 0.0249,-0.085 -0.0184,-0.0902 -0.0783,-0.0442 -0.1344,-0.11677 -0.20224,-0.17427 -0.0391,-0.0331 -0.0818,-0.0666 -0.13432,-0.073 -0.0287,-0.005 -0.058,-0.006 -0.0871,-0.004 -0.0273,-0.0296 0.009,-0.075 0.0443,-0.0713 0.0362,0.002 0.0721,0.005 0.10828,7e-5 0.0404,-0.003 0.0807,-0.007 0.12124,-0.007 0.0327,0.0223 0.0981,-0.0162 0.0685,-0.0546 -0.0322,-0.0283 -0.0789,-0.0258 -0.11741,-0.0403 a 1.810579,1.810579 0 0 0 -0.20636,-0.0542 c -0.0488,-0.003 -0.0428,-0.0671 1.1e-4,-0.0742 0.0281,-0.0105 0.0525,0.0111 0.0794,0.0144 0.046,0.01 0.0935,0.01 0.13952,0.0198 0.039,-0.0193 0.009,-0.0762 -0.0264,-0.0796 -0.0832,-0.0298 -0.15518,-0.0835 -0.22552,-0.13575 -0.0776,-0.0584 -0.14808,-0.12592 -0.22668,-0.18298 -0.0285,-0.0177 -0.0753,-0.0228 -0.0828,-0.0619 -0.003,-0.036 0.0397,-0.0524 0.0698,-0.044 0.0427,0.0126 0.0824,0.0345 0.12588,0.0453 0.0341,0.006 0.0693,0.0159 0.10215,0.0116 0.0417,-0.0262 -0.0179,-0.043 -0.0395,-0.0521 -0.0556,-0.03 -0.10507,-0.07 -0.15515,-0.10813 -0.0423,-0.0361 0.0359,-0.0521 0.0628,-0.0382 0.045,0.0188 0.0501,-0.0467 0.0165,-0.0632 -0.0396,-0.0168 -0.0737,-0.0448 -0.1096,-0.0692 -0.0649,-0.0462 -0.13841,-0.0828 -0.2182,-0.0929 -0.0894,-0.009 -0.17294,-0.0604 -0.2204,-0.13692 -0.0294,-0.0436 -0.051,-0.0918 -0.0719,-0.13989 z m -0.29375,0.50183 c 0.0461,10e-4 0.039,0.0845 -0.006,0.0789 -0.0441,-0.003 -0.0414,-0.0878 0.006,-0.0789 z m 0.43487,0.0448 c 0.0449,-0.008 0.0544,0.0738 0.01,0.0777 -0.0467,0.008 -0.064,-0.0829 -0.01,-0.0777 z m -0.12737,0.0107 c 0.0455,0.009 0.0374,0.0882 -0.009,0.0889 -0.0336,0.007 -0.0698,0.0304 -0.10375,0.0132 -0.0276,-0.0292 0.0123,-0.0724 0.0431,-0.0819 0.0237,-0.005 0.0454,-0.0155 0.0691,-0.0202 z m 0.29314,3.6e-4 c 0.0438,0.016 0.0284,0.0933 -0.0179,0.0924 -0.0437,0.006 -0.0641,-0.0671 -0.0233,-0.0844 0.0132,-0.005 0.027,-0.009 0.0412,-0.008 z m -0.4945,0.0878 c 0.0322,0.0307 0.0132,0.0899 -0.0266,0.10401 -0.0286,0.0159 -0.0677,0.0536 -0.0989,0.0226 -0.0169,-0.0379 0.0256,-0.0664 0.0506,-0.0874 0.0223,-0.0173 0.0469,-0.0331 0.0749,-0.0392 z m 0.36807,0.17107 c 0.0461,0.0218 0.0227,0.10494 -0.0279,0.0998 -0.0416,-0.0105 -0.0362,-0.0819 0.006,-0.0876 0.008,-0.003 0.0152,-0.007 0.0222,-0.0122 z m -0.14641,0.008 c 0.0432,0.0202 0.0102,0.0922 -0.0333,0.0819 -0.0451,-0.005 -0.0442,-0.0845 0.005,-0.0774 0.009,-4.6e-4 0.019,-7.1e-4 0.0278,-0.004 z m 0.31561,0.0413 c 0.0473,-0.0147 0.10424,0.034 0.0889,0.0835 -0.0211,0.0383 -0.0732,0.0432 -0.11055,0.0288 -0.0429,-0.002 -0.0717,-0.0666 -0.0335,-0.0939 0.0158,-0.0119 0.0357,-0.0168 0.0552,-0.0184 z m -0.69867,0.0124 c 0.0391,-0.0213 0.0806,0.0427 0.0474,0.0709 -0.022,0.0324 -0.0786,0.0456 -0.10355,0.01 -0.0207,-0.0352 0.0128,-0.0943 0.0562,-0.0805 z m -0.18045,0.0303 c 0.0444,0.006 0.0733,0.0464 0.0897,0.0847 0.004,0.0468 -0.065,0.0724 -0.0951,0.0384 -0.0339,-0.0212 -0.0635,-0.0649 -0.0457,-0.10542 0.0109,-0.0161 0.0327,-0.0227 0.0512,-0.0177 z m 1.07954,0.169 c 0.0482,-0.0127 0.0831,0.0643 0.0418,0.0921 -0.0378,0.0343 -0.1113,-0.0112 -0.0916,-0.0601 0.01,-0.0182 0.0294,-0.0302 0.0498,-0.0319 z m -0.61282,0.0878 c 0.0404,0.005 0.0273,0.0751 -0.01,0.0728 -0.0401,-0.007 -0.0309,-0.0767 0.01,-0.0728 z m -0.20479,0.0372 c 0.0329,-0.0233 0.0754,0.0336 0.048,0.0601 -0.0328,0.0231 -0.0754,-0.0328 -0.048,-0.0601 z m 0.32562,0.007 c 0.0382,0.0232 0.0608,0.0664 0.0656,0.11007 -0.0183,0.0408 -0.0889,0.0309 -0.0969,-0.0125 -0.014,-0.0343 -10e-4,-0.0785 0.0313,-0.0976 z m 0.11363,0.0675 c 0.0492,-0.0123 0.0315,0.0905 -0.01,0.0548 -0.0136,-0.0162 -0.006,-0.0429 0.01,-0.0548 z m -0.71366,0.0716 c 0.0326,-0.01 0.08,4.9e-4 0.089,0.0379 0.004,0.0351 -0.0348,0.0534 -0.0631,0.0621 -0.0454,0.014 -0.0897,0.037 -0.13852,0.0339 -0.0366,-0.0209 -0.0497,-0.0637 -0.0627,-0.10098 0.0353,-0.0331 0.0873,-0.0234 0.131,-0.0317 0.0148,-7.5e-4 0.0296,-0.001 0.0444,-0.001 z m 1.107,0.16109 c 0.0415,-0.0204 0.0862,0.0456 0.0515,0.0764 -0.0435,0.0501 -0.12727,0.0594 -0.1793,0.0173 -0.006,-0.0443 0.038,-0.0765 0.0773,-0.0829 0.0165,-0.005 0.033,-0.0116 0.0505,-0.0108 z m 0.23352,0.0506 c 0.0472,-0.008 0.0844,0.0592 0.0507,0.0941 -0.0319,0.0481 -0.10798,0.0607 -0.15148,0.0213 -0.017,-0.0399 0.0174,-0.0814 0.0541,-0.0942 0.0157,-0.007 0.0306,-0.0153 0.0467,-0.0211 z m -1.17413,0.0716 c 0.0437,-0.004 0.0838,0.0391 0.078,0.0822 0.0316,0.0312 -0.0244,0.0892 -0.0559,0.0569 -0.0278,-0.0337 -0.0276,-0.0793 -0.0384,-0.11963 -4.8e-4,-0.009 0.006,-0.0205 0.0163,-0.0194 z m 0.3356,0.0251 c 0.0452,-0.0196 0.10367,0.0345 0.0791,0.0803 -0.0176,0.0373 -0.0861,0.0248 -0.0838,-0.0184 -1.1e-4,-0.0207 -0.002,-0.0418 0.005,-0.0619 z m -0.16327,0.0292 c 0.0453,-0.0104 0.0869,0.0484 0.0617,0.0875 -0.0452,0.004 -0.0686,-0.0496 -0.0617,-0.0875 z"
       fill="#00a651"
       id="path6"
       style="stroke-width:0.00881944" />
  </g>
</svg>
