<?xml version="1.0" encoding="UTF-8" standalone="no"?>
<!-- Created with Inkscape (http://www.inkscape.org/) -->

<svg
   width="7.9375mm"
   height="5.2916698mm"
   viewBox="0 0 7.9375 5.29167"
   version="1.1"
   id="svg1"
   inkscape:version="1.4 (86a8ad7, 2024-10-11)"
   sodipodi:docname="ary.svg"
   xmlns:inkscape="http://www.inkscape.org/namespaces/inkscape"
   xmlns:sodipodi="http://sodipodi.sourceforge.net/DTD/sodipodi-0.dtd"
   xmlns="http://www.w3.org/2000/svg"
   xmlns:svg="http://www.w3.org/2000/svg">
  <sodipodi:namedview
     id="namedview1"
     pagecolor="#ffffff"
     bordercolor="#000000"
     borderopacity="0.25"
     inkscape:showpageshadow="2"
     inkscape:pageopacity="0.0"
     inkscape:pagecheckerboard="0"
     inkscape:deskcolor="#d1d1d1"
     inkscape:document-units="mm"
     inkscape:zoom="0.71891835"
     inkscape:cx="530.65831"
     inkscape:cy="450.67705"
     inkscape:window-width="1904"
     inkscape:window-height="992"
     inkscape:window-x="-9"
     inkscape:window-y="252"
     inkscape:window-maximized="0"
     inkscape:current-layer="layer1" />
  <defs
     id="defs1" />
  <g
     inkscape:label="Layer 1"
     inkscape:groupmode="layer"
     id="layer1"
     transform="translate(686.25966,592.45571)">
    <path
       fill="#c1272d"
       d="m -686.25966,-592.45571 h 7.9375 v 5.29167 h -7.9375 z"
       id="path62"
       style="stroke-width:8.81946e-05" />
    <path
       style="color:#000000;fill:#006233;stroke-width:8.81946e-05;-inkscape-stroke:none"
       d="m -682.29091,-591.13274 -0.0598,0.18407 -0.23719,0.73001 h -0.96113 l 0.77758,0.56494 -0.29699,0.91405 0.77754,-0.56491 0.77754,0.56491 -0.29699,-0.91405 0.77758,-0.56494 h -0.96113 z m 0,0.407 0.16476,0.50708 h -0.32952 z m -0.87106,0.63285 h 0.5332 l -0.10183,0.31341 z m 0.66544,0 h 0.41124 l 0.12709,0.39113 -0.33271,0.24173 -0.33271,-0.24173 z m 0.54348,0 h 0.5332 l -0.43137,0.31341 z m -0.71143,0.5169 0.26659,0.19368 -0.43134,0.31339 z m 0.74714,0 0.16475,0.50707 -0.43134,-0.31339 z"
       id="path59" />
  </g>
</svg>
