<?xml version="1.0" encoding="UTF-8" standalone="no"?>
<!-- Created with Inkscape (http://www.inkscape.org/) -->

<svg
   width="7.9375mm"
   height="5.2916698mm"
   viewBox="0 0 7.9375 5.29167"
   version="1.1"
   id="svg1"
   inkscape:version="1.4 (86a8ad7, 2024-10-11)"
   sodipodi:docname="arz.svg"
   xmlns:inkscape="http://www.inkscape.org/namespaces/inkscape"
   xmlns:sodipodi="http://sodipodi.sourceforge.net/DTD/sodipodi-0.dtd"
   xmlns:xlink="http://www.w3.org/1999/xlink"
   xmlns="http://www.w3.org/2000/svg"
   xmlns:svg="http://www.w3.org/2000/svg">
  <sodipodi:namedview
     id="namedview1"
     pagecolor="#ffffff"
     bordercolor="#000000"
     borderopacity="0.25"
     inkscape:showpageshadow="2"
     inkscape:pageopacity="0.0"
     inkscape:pagecheckerboard="0"
     inkscape:deskcolor="#d1d1d1"
     inkscape:document-units="mm"
     inkscape:zoom="0.71891835"
     inkscape:cx="437.46275"
     inkscape:cy="307.40626"
     inkscape:window-width="1904"
     inkscape:window-height="992"
     inkscape:window-x="-26"
     inkscape:window-y="145"
     inkscape:window-maximized="0"
     inkscape:current-layer="layer1" />
  <defs
     id="defs1">
    <radialGradient
       id="n"
       cx="489.07001"
       cy="210.33"
       r="0.345"
       gradientTransform="matrix(0.00861722,0,0,0.0090267,-825.15993,-674.59387)"
       gradientUnits="userSpaceOnUse">
      <stop
         style="stop-color:#fff"
         offset="0"
         id="stop19" />
      <stop
         style="stop-color:#fff;stop-opacity:0"
         offset="1"
         id="stop21" />
    </radialGradient>
    <radialGradient
       id="m"
       cx="477.85999"
       cy="215.27"
       r="0.345"
       gradientUnits="userSpaceOnUse"
       gradientTransform="matrix(0.00881945,0,0,0.00881945,-825.15993,-674.59387)">
      <stop
         style="stop-color:#a50a0a"
         offset=".259"
         id="stop14" />
      <stop
         style="stop-color:#4c0505"
         offset="1"
         id="stop16" />
    </radialGradient>
    <linearGradient
       id="l"
       x1="473.31"
       x2="475.92999"
       y1="237.25"
       y2="270.45001"
       gradientUnits="userSpaceOnUse"
       gradientTransform="matrix(0.00881945,0,0,0.00881945,-825.15993,-674.59387)">
      <stop
         style="stop-color:#f9f0aa"
         offset=".216"
         id="stop39" />
      <stop
         style="stop-color:#b07e09"
         offset="1"
         id="stop41" />
    </linearGradient>
    <linearGradient
       id="k"
       x1="451.54001"
       x2="455.37"
       y1="249.52"
       y2="240.58"
       gradientUnits="userSpaceOnUse"
       gradientTransform="matrix(0.00881945,0,0,0.00881945,-825.15993,-674.59387)">
      <stop
         style="stop-color:#f9f0aa"
         offset=".216"
         id="stop34" />
      <stop
         style="stop-color:#b07e09"
         offset="1"
         id="stop36" />
    </linearGradient>
    <radialGradient
       id="j"
       cx="445.98001"
       cy="252.36"
       r="13.018"
       gradientUnits="userSpaceOnUse"
       xlink:href="#a"
       gradientTransform="matrix(0.00881945,0,0,0.00881945,-825.15993,-674.59387)" />
    <radialGradient
       id="a">
      <stop
         style="stop-color:#f9f0aa"
         offset=".216"
         id="stop4" />
      <stop
         style="stop-color:#b07e09"
         offset="1"
         id="stop6" />
    </radialGradient>
    <linearGradient
       id="i"
       x1="483.13"
       x2="485.5"
       y1="296.66"
       y2="326.57999"
       gradientUnits="userSpaceOnUse"
       gradientTransform="matrix(0.00881945,0,0,0.00881945,-825.15993,-674.59387)">
      <stop
         style="stop-color:#b07e09;stop-opacity:0"
         offset=".216"
         id="stop29" />
      <stop
         style="stop-color:#b07e09"
         offset="1"
         id="stop31" />
    </linearGradient>
    <linearGradient
       id="h"
       x1="473.91"
       x2="472.35999"
       y1="259.17001"
       y2="231.96001"
       gradientUnits="userSpaceOnUse"
       gradientTransform="matrix(0.00881945,0,0,0.00881945,-825.15993,-674.59387)">
      <stop
         style="stop-color:#b07e09;stop-opacity:0"
         offset=".216"
         id="stop24" />
      <stop
         style="stop-color:#b07e09"
         offset="1"
         id="stop26" />
    </linearGradient>
    <radialGradient
       id="g"
       cx="458.39001"
       cy="307.06"
       r="17.354"
       gradientUnits="userSpaceOnUse"
       xlink:href="#a"
       gradientTransform="matrix(0.00881945,0,0,0.00881945,-825.15993,-674.59387)" />
    <radialGradient
       id="radialGradient2">
      <stop
         style="stop-color:#f9f0aa"
         offset=".216"
         id="stop1" />
      <stop
         style="stop-color:#b07e09"
         offset="1"
         id="stop2" />
    </radialGradient>
    <radialGradient
       id="f"
       cx="454.10999"
       cy="308.64001"
       r="9.7799997"
       gradientUnits="userSpaceOnUse"
       xlink:href="#a"
       gradientTransform="matrix(0.00881945,0,0,0.00881945,-825.15993,-674.59387)" />
    <radialGradient
       id="radialGradient5">
      <stop
         style="stop-color:#f9f0aa"
         offset=".216"
         id="stop3" />
      <stop
         style="stop-color:#b07e09"
         offset="1"
         id="stop5" />
    </radialGradient>
    <radialGradient
       id="e"
       cx="451.56"
       cy="313"
       r="10.911"
       gradientUnits="userSpaceOnUse"
       xlink:href="#a"
       gradientTransform="matrix(0.00881945,0,0,0.00881945,-825.15993,-674.59387)" />
    <radialGradient
       id="radialGradient8">
      <stop
         style="stop-color:#f9f0aa"
         offset=".216"
         id="stop7" />
      <stop
         style="stop-color:#b07e09"
         offset="1"
         id="stop8" />
    </radialGradient>
    <radialGradient
       id="d"
       cx="447.42001"
       cy="308.26999"
       r="16.534"
       gradientUnits="userSpaceOnUse"
       xlink:href="#a"
       gradientTransform="matrix(0.00881945,0,0,0.00881945,-825.15993,-674.59387)" />
    <radialGradient
       id="radialGradient10">
      <stop
         style="stop-color:#f9f0aa"
         offset=".216"
         id="stop9" />
      <stop
         style="stop-color:#b07e09"
         offset="1"
         id="stop10" />
    </radialGradient>
    <radialGradient
       id="e-9"
       cx="380.84"
       cy="740.37"
       r="25.858999"
       gradientTransform="matrix(7.0234215e-4,8.3694522e-4,-0.00162376,0.00140249,-873.47471,-923.33034)"
       gradientUnits="userSpaceOnUse"
       xlink:href="#a-6" />
    <linearGradient
       id="a-6">
      <stop
         stop-color="#fff"
         offset="0"
         id="stop2-5" />
      <stop
         stop-color="#f15770"
         offset="1"
         id="stop4-1" />
    </linearGradient>
    <radialGradient
       id="f-0"
       cx="651.52002"
       cy="550.46002"
       r="25.858999"
       gradientTransform="matrix(-1.9245334e-4,-0.00208924,0.00193863,-1.8385685e-4,-876.73368,-920.80848)"
       gradientUnits="userSpaceOnUse"
       xlink:href="#a-6" />
    <radialGradient
       id="g-6"
       cx="842.31"
       cy="103.66"
       r="25.858999"
       gradientTransform="matrix(0.00194862,8.2390338e-4,-8.0461878e-4,0.00195837,-876.97359,-922.9887)"
       gradientUnits="userSpaceOnUse"
       xlink:href="#a-6" />
  </defs>
  <g
     inkscape:label="Layer 1"
     inkscape:groupmode="layer"
     id="layer1"
     transform="translate(898.31858,952.7305)">
    <path
       d="m -898.31858,-952.7305 h 7.9375 v 5.29167 h -7.9375 z"
       id="path10"
       style="stroke-width:0.00885183"
       sodipodi:nodetypes="ccccc" />
    <path
       fill="#ffffff"
       d="m -898.31858,-950.96661 h 7.9375 v 1.76389 h -7.9375 z"
       id="path12"
       style="stroke-width:0.00881945"
       sodipodi:nodetypes="ccccc" />
    <path
       fill="#ce1126"
       d="m -898.31858,-952.7305 h 7.9375 v 1.76389 h -7.9375 z"
       id="path14"
       style="stroke-width:0.00881945"
       sodipodi:nodetypes="ccccc" />
    <path
       style="color:#000000;fill:#ffffff;stroke:none;stroke-width:0.0112038;stroke-linejoin:round;-inkscape-stroke:none"
       d="m -894.34273,-950.06348 0.60402,0.56073 -0.043,-1.01837 c -0.006,-0.15434 -0.14044,-0.11893 -0.23787,-0.0633 -0.0987,0.0633 -0.2113,0.0633 -0.33025,0.0215 -0.11893,0.0418 -0.23154,0.0418 -0.33024,-0.0215 -0.0974,-0.0557 -0.23152,-0.0911 -0.23786,0.0633 l -0.043,1.01837 z"
       id="path4608" />
    <path
       style="color:#000000;fill:#c09300;stroke:none;stroke-width:0.00205575;stroke-linejoin:round;-inkscape-stroke:none"
       d="m -894.81491,-950.63724 c -0.006,-3.5e-4 -0.0126,-3.1e-4 -0.0187,1.5e-4 -0.0243,0.002 -0.0464,0.0107 -0.0625,0.0295 -0.0161,0.0188 -0.0259,0.0468 -0.0275,0.0862 l -0.043,1.01837 a 0.00560248,0.00560248 0 0 0 0.009,0.004 l 0.61442,-0.55728 0.60025,0.55723 a 0.00560248,0.00560248 0 0 0 0.009,-0.004 l -0.043,-1.01837 v -10e-6 c -0.002,-0.0394 -0.0114,-0.0675 -0.0275,-0.0862 -0.016,-0.0188 -0.0381,-0.0277 -0.0625,-0.0295 -0.0487,-0.004 -0.10707,0.0197 -0.1563,0.0479 a 0.00560248,0.00560248 0 0 0 -2.4e-4,1.4e-4 c -0.0971,0.0622 -0.20747,0.0623 -0.32538,0.0209 a 0.00560248,0.00560248 0 0 0 -0.004,0 c -0.11789,0.0414 -0.22829,0.0413 -0.32536,-0.0209 a 0.00560248,0.00560248 0 0 0 -2.5e-4,-1.4e-4 c -0.0431,-0.0246 -0.0932,-0.0456 -0.13761,-0.048 z m -6.3e-4,0.0112 c 0.0413,0.002 0.0905,0.0224 0.13269,0.0465 0.0998,0.0638 0.21382,0.0639 0.33302,0.0225 0.11922,0.0414 0.23328,0.0413 0.33303,-0.0225 0.0482,-0.0276 0.10556,-0.0497 0.1499,-0.0464 0.0222,0.002 0.0409,0.009 0.0548,0.0256 0.0139,0.0163 0.0232,0.0417 0.0248,0.0794 a 0.00560248,0.00560248 0 0 0 0,10e-6 l 0.0424,1.00476 -0.59404,-0.55146 a 0.00560248,0.00560248 0 0 0 -0.008,-3e-5 l -0.60829,0.55173 0.0425,-1.005 a 0.00560248,0.00560248 0 0 0 0,-10e-6 c 0.002,-0.0378 0.0109,-0.0631 0.0248,-0.0794 0.0139,-0.0163 0.0326,-0.024 0.0548,-0.0256 0.006,-4.2e-4 0.0113,-4.3e-4 0.0172,-7e-5 z"
       id="path4610" />
    <path
       d="m -894.84844,-950.55657 -0.0417,0.9906 -0.0709,0.0632 0.043,-1.01837 c 0.0202,-0.0139 0.0557,-0.0354 0.0696,-0.0354 z m 0.0848,0.0709 -0.0354,0.82863 -0.0708,0.0725 0.043,-0.95682 c 0.0139,0.0139 0.0557,0.0481 0.0633,0.0557 z m 0.0772,0.0632 -0.0278,0.69111 -0.0569,0.0557 0.0354,-0.78851 c 0.0139,0.0139 0.0417,0.0342 0.0493,0.0418 z m 0.0835,0.0355 -0.0278,0.58902 -0.0557,0.0452 0.0278,-0.65568 c 0.0139,0.006 0.0418,0.0215 0.0557,0.0215 z m 0.0772,0 -0.0202,0.49086 -0.0569,0.0557 0.0215,-0.54021 c 0.0139,0 0.0493,0 0.0557,-0.006 z"
       id="path5225"
       class="B C"
       style="fill:#c09300;fill-opacity:1;stroke:none;stroke-width:0.00205575" />
    <path
       d="m -893.85131,-950.55657 0.0417,0.9906 0.0709,0.0632 -0.043,-1.01837 c -0.0202,-0.0139 -0.0557,-0.0354 -0.0696,-0.0354 z m -0.0848,0.0709 0.0354,0.82863 0.0708,0.0725 -0.043,-0.95682 c -0.0139,0.0139 -0.0557,0.0481 -0.0633,0.0557 z m -0.0772,0.0632 0.0278,0.69111 0.0569,0.0557 -0.0354,-0.78851 c -0.0139,0.0139 -0.0417,0.0342 -0.0493,0.0418 z m -0.0835,0.0355 0.0278,0.58902 0.0557,0.0452 -0.0278,-0.65568 c -0.0139,0.006 -0.0418,0.0215 -0.0557,0.0215 z m -0.0772,0 0.0203,0.49086 0.0569,0.0557 -0.0215,-0.54021 c -0.0139,0 -0.0493,0 -0.0557,-0.006 z"
       id="path5228"
       class="B C"
       style="fill:#c09300;fill-opacity:1;stroke:none;stroke-width:0.00205575" />
    <path
       style="color:#000000;fill:#c09300;stroke:none;stroke-width:0.00947085;-inkscape-stroke:none"
       d="m -894.32201,-949.95182 0.0848,0.38589 -0.0279,0.0278 -0.0291,-0.0215 -0.0481,-0.34412 0.0203,0.34412 -0.0278,0.0354 -0.0278,-0.0354 0.0203,-0.34412 -0.0481,0.34412 -0.0291,0.0215 -0.0278,-0.0278 0.0848,-0.38589 h 0.0557 z"
       id="path4598" />
    <path
       style="color:#000000;fill:#c09300;stroke:none;stroke-width:0.00205575;-inkscape-stroke:none"
       d="m -894.3815,-949.95656 -0.0861,0.39215 0.0325,0.0325 0.034,-0.0251 0.032,-0.22895 -0.0134,0.22783 0.0327,0.0416 0.0327,-0.0416 -0.0134,-0.22786 0.032,0.22898 0.034,0.0251 0.0326,-0.0325 -0.0852,-0.38792 v -0.004 z m 0.008,0.009 h 0.0481 l 0.0834,0.37965 -0.0231,0.0231 -0.0242,-0.0179 -0.0478,-0.34215 -0.009,9.3e-4 0.0202,0.34233 -0.023,0.0293 -0.023,-0.0293 0.0201,-0.34233 -0.009,-9.3e-4 -0.0478,0.34215 -0.0242,0.0179 -0.0231,-0.0231 z"
       id="path4600" />
    <path
       style="color:#000000;fill:#ffffff;stroke:none;stroke-width:0.0104864;stroke-linejoin:round;-inkscape-stroke:none"
       d="m -894.53967,-950.12133 -0.16828,0.59712 0.23156,0.0354 0.0987,-0.44912 -0.16195,-0.18343 z"
       id="path4642" />
    <path
       style="color:#000000;fill:#c09300;stroke:none;stroke-width:0.00205575;stroke-linejoin:round;-inkscape-stroke:none"
       d="m -894.54325,-950.12514 a 0.00524372,0.00524372 0 0 0 -3.2e-4,0.007 l -10e-4,-0.004 -0.16828,0.59712 a 0.00524372,0.00524372 0 0 0 0.004,0.007 l 0.23156,0.0354 a 0.00524372,0.00524372 0 0 0 0.006,-0.004 l 0.0987,-0.44912 a 0.00524372,0.00524372 0 0 0 -0.001,-0.005 l -0.16195,-0.18343 -2e-5,2e-5 a 0.00524372,0.00524372 0 0 0 -2.2e-4,-2.5e-4 v 0 a 0.00524372,0.00524372 0 0 0 -0.007,-1.1e-4 z m 0.006,0.0145 0.15382,0.17422 -0.097,0.44173 -0.22083,-0.0338 z"
       id="path4644" />
    <path
       style="color:#000000;fill:#c09300;stroke:none;stroke-width:0.00205575;stroke-linejoin:round;-inkscape-stroke:none"
       d="m -894.46954,-949.97682 -0.10347,0.0988 -0.0171,-0.0417 -0.0104,0.004 0.0202,0.0493 a 0.00560043,0.00560043 0 0 0 0.009,0.002 l 0.10941,-0.10449 z"
       id="path25" />
    <path
       style="color:#000000;fill:#c09300;stroke:none;stroke-width:0.00205575;stroke-linejoin:round;-inkscape-stroke:none"
       d="m -894.514,-950.04184 -0.0111,10e-4 0.0229,0.21471 a 0.00560043,0.00560043 0 0 0 0.01,0.003 l 0.0352,-0.0461 0.0288,0.0995 -0.0483,0.0733 -0.0191,-0.10524 a 0.00560043,0.00560043 0 0 0 -0.01,-0.002 l -0.0447,0.0605 -0.0195,-0.0694 a 0.00560043,0.00560043 0 0 0 -0.009,-0.002 l -0.0721,0.074 a 0.00560043,0.00560043 0 0 0 -10e-4,0.005 l 0.0354,0.12993 -0.046,0.0647 0.009,0.006 0.0401,-0.0563 0.0272,0.0901 a 0.00560043,0.00560043 0 0 0 0.0102,10e-4 l 0.0355,-0.0602 0.024,0.073 0.0106,-0.003 -0.0279,-0.0848 a 0.00560043,0.00560043 0 0 0 -0.0101,-10e-4 l -0.0353,0.0598 -0.0254,-0.0843 0.0437,-0.0719 0.024,0.0732 a 0.00560043,0.00560043 0 0 0 0.01,10e-4 l 0.0451,-0.0701 0.0219,0.10368 0.011,-0.002 -0.024,-0.11351 0.0494,-0.075 0.002,0.006 0.0108,-0.003 -0.004,-0.0153 0.0186,-0.0283 -0.009,-0.006 -0.0134,0.0203 -0.0285,-0.0983 0.0259,-0.0339 -0.009,-0.007 -0.0611,0.0799 z m -0.0639,0.24134 0.02,0.0711 a 0.00560043,0.00560043 0 0 0 0.01,0.002 l 0.0438,-0.0593 0.0187,0.10282 -0.0449,0.0698 -0.0242,-0.0736 a 0.00560043,0.00560043 0 0 0 -0.0101,-10e-4 l -0.0438,0.0721 -0.0324,-0.11885 z"
       id="path27" />
    <path
       style="color:#000000;fill:#ffffff;stroke:none;stroke-width:0.0104864;stroke-linejoin:round;-inkscape-stroke:none"
       d="m -894.16008,-950.12133 0.16827,0.59712 -0.23155,0.0354 -0.0987,-0.44912 0.16195,-0.18343 z"
       id="path4648" />
    <path
       style="color:#000000;fill:#c09300;stroke:none;stroke-width:0.00205575;stroke-linejoin:round;-inkscape-stroke:none"
       d="m -894.15884,-950.12641 a 0.00524372,0.00524372 0 0 0 -0.005,10e-4 v 0 a 0.00524372,0.00524372 0 0 0 -1.1e-4,3.6e-4 l -1.4e-4,-1.1e-4 -0.16195,0.18344 a 0.00524372,0.00524372 0 0 0 -10e-4,0.005 l 0.0987,0.44912 a 0.00524372,0.00524372 0 0 0 0.006,0.004 l 0.23155,-0.0354 a 0.00524372,0.00524372 0 0 0 0.004,-0.007 l -0.16827,-0.59712 -4.3e-4,0.002 a 0.00524372,0.00524372 0 0 0 -0.003,-0.005 z m -0.004,0.0158 0.16406,0.58215 -0.22084,0.0338 -0.097,-0.44173 z"
       id="path4650" />
    <path
       style="color:#000000;fill:#c09300;stroke:none;stroke-width:0.00205575;stroke-linejoin:round;-inkscape-stroke:none"
       d="m -894.23021,-949.97682 -0.008,0.008 0.1094,0.10449 a 0.00560043,0.00560043 0 0 0 0.009,-0.002 l 0.0203,-0.0493 -0.0104,-0.004 -0.0171,0.0417 z"
       id="path4526" />
    <path
       style="color:#000000;fill:#c09300;stroke:none;stroke-width:0.00205575;stroke-linejoin:round;-inkscape-stroke:none"
       d="m -894.18576,-950.04184 -0.0214,0.20075 -0.0611,-0.0799 -0.009,0.007 0.0259,0.0339 -0.0285,0.0983 -0.0134,-0.0203 -0.009,0.006 0.0186,0.0283 -0.004,0.0153 0.0108,0.003 0.002,-0.006 0.0494,0.075 -0.024,0.11351 0.0109,0.002 0.0219,-0.10368 0.0451,0.0701 a 0.00560043,0.00560043 0 0 0 0.01,-10e-4 l 0.024,-0.0732 0.0437,0.0719 -0.0254,0.0843 -0.0353,-0.0598 a 0.00560043,0.00560043 0 0 0 -0.0101,10e-4 l -0.0278,0.0848 0.0106,0.003 0.024,-0.073 0.0355,0.0602 a 0.00560043,0.00560043 0 0 0 0.0102,-10e-4 l 0.0272,-0.0901 0.0401,0.0563 0.009,-0.006 -0.046,-0.0647 0.0354,-0.12993 a 0.00560043,0.00560043 0 0 0 -10e-4,-0.005 l -0.0721,-0.074 a 0.00560043,0.00560043 0 0 0 -0.009,0.002 l -0.0195,0.0694 -0.0447,-0.0606 a 0.00560043,0.00560043 0 0 0 -0.01,0.002 l -0.0191,0.10524 -0.0482,-0.0733 0.0288,-0.0995 0.0352,0.0461 a 0.00560043,0.00560043 0 0 0 0.01,-0.003 l 0.0229,-0.21471 z m 0.0639,0.24134 0.0631,0.0647 -0.0324,0.11886 -0.0438,-0.0721 a 0.00560043,0.00560043 0 0 0 -0.0101,10e-4 l -0.0242,0.0736 -0.0449,-0.0698 0.0187,-0.10281 0.0438,0.0593 a 0.00560043,0.00560043 0 0 0 0.01,-0.002 z"
       id="path4528" />
    <path
       style="color:#000000;fill:#ffffff;stroke:none;stroke-width:0.0209727;stroke-linejoin:round;-inkscape-stroke:none"
       d="m -894.34988,-949.25729 c 0.17589,0 0.34417,-0.0139 0.44285,-0.0417 0.0418,-0.008 0.0418,-0.0291 0.0418,-0.0569 0.0418,-0.0139 0.0202,-0.0632 0.0493,-0.0632 -0.0291,0.008 -0.0354,-0.0493 -0.0708,-0.0417 0,-0.0494 -0.0494,-0.0557 -0.0911,-0.0418 -0.0835,0.0279 -0.23156,0.0342 -0.37201,0.0342 -0.14044,-0.006 -0.28722,-0.006 -0.37199,-0.0342 -0.0418,-0.0139 -0.0911,-0.008 -0.0911,0.0418 -0.0354,-0.008 -0.0418,0.0493 -0.0709,0.0417 0.0291,0 0.008,0.0493 0.0493,0.0632 0,0.0278 0,0.0494 0.043,0.0569 0.0974,0.0278 0.26571,0.0417 0.44157,0.0417 z"
       id="path4636" />
    <path
       style="color:#000000;fill:#c09300;stroke:none;stroke-width:0.00205575;stroke-linejoin:round;-inkscape-stroke:none"
       d="m -894.75314,-949.51956 c -0.0116,-6.5e-4 -0.0229,5.2e-4 -0.0333,0.004 -0.0181,0.006 -0.0326,0.0215 -0.0361,0.0438 -0.007,6.8e-4 -0.0132,0.003 -0.0183,0.006 -0.008,0.005 -0.0133,0.0124 -0.0182,0.0187 -0.005,0.006 -0.009,0.0118 -0.0129,0.0147 -0.004,0.003 -0.005,0.004 -0.009,0.002 v 4e-5 c -9e-4,-1.1e-4 -0.002,-3.8e-4 -0.003,-3.8e-4 a 0.01048743,0.01048743 0 0 0 -0.003,0.0206 c 9e-4,2.5e-4 0.002,1.8e-4 0.003,3.2e-4 l -10e-6,2e-5 c 4.8e-4,0 4.2e-4,7e-5 7.8e-4,7e-5 9.5e-4,1.4e-4 0.002,3.2e-4 0.003,3.5e-4 4.8e-4,3.2e-4 6.7e-4,9.3e-4 10e-4,0.002 0.001,0.003 0.003,0.009 0.005,0.0159 0.002,0.007 0.004,0.016 0.01,0.0243 0.004,0.007 0.0109,0.0127 0.0197,0.017 4e-5,0.0116 4.9e-4,0.0233 0.006,0.0341 0.007,0.0131 0.0218,0.0221 0.045,0.0261 l -0.001,-2.5e-4 c 0.0996,0.0285 0.26805,0.0422 0.44446,0.0422 0.17644,0 0.3449,-0.0137 0.4457,-0.0421 l -9.8e-4,2.5e-4 c 0.0226,-0.004 0.037,-0.0132 0.0439,-0.0263 0.006,-0.0108 0.006,-0.0224 0.006,-0.034 0.009,-0.004 0.0154,-0.0104 0.0197,-0.017 0.005,-0.008 0.008,-0.017 0.01,-0.0243 0.002,-0.007 0.003,-0.0133 0.005,-0.0158 6.9e-4,-10e-4 8.8e-4,-0.002 10e-4,-0.002 9.3e-4,-3e-5 0.002,-2.1e-4 0.003,-3.5e-4 3.7e-4,0 3.2e-4,-8e-5 7.9e-4,-8e-5 v -2e-5 c 8.9e-4,-1.4e-4 0.002,-7e-5 0.003,-3.2e-4 a 0.01048743,0.01048743 0 0 0 -0.003,-0.0206 c -9.2e-4,0 -0.002,2.9e-4 -0.003,3.9e-4 v -4e-5 c -0.004,10e-4 -0.006,4.2e-4 -0.009,-0.002 -0.004,-0.003 -0.008,-0.008 -0.0129,-0.0147 -0.005,-0.006 -0.0104,-0.0133 -0.0182,-0.0187 -0.005,-0.003 -0.0113,-0.006 -0.0182,-0.006 -0.004,-0.0223 -0.0181,-0.0376 -0.0361,-0.0438 -0.0208,-0.007 -0.0454,-0.005 -0.0679,0.003 a 0.01048743,0.01048743 0 0 0 -1e-5,0 c -0.0804,0.0268 -0.22846,0.0336 -0.36856,0.0336 -0.14065,-0.006 -0.28751,-0.007 -0.36881,-0.0336 l -3e-5,-3e-5 c -0.0112,-0.004 -0.023,-0.006 -0.0345,-0.007 z m -10e-4,0.0211 c 0.009,5.2e-4 0.0195,0.002 0.0291,0.006 a 0.01048743,0.01048743 0 0 0 3e-5,3e-5 c 0.0882,0.029 0.23468,0.0284 0.3748,0.0347 a 0.01048743,0.01048743 0 0 0 4.7e-4,2e-5 c 0.14076,0 0.28873,-0.006 0.37532,-0.0347 h -10e-6 c 0.0192,-0.006 0.0402,-0.008 0.0545,-0.003 0.0143,0.005 0.0228,0.0135 0.0228,0.0347 a 0.01048743,0.01048743 0 0 0 0.0127,0.0103 c 0.006,-10e-4 0.01,-1.8e-4 0.0138,0.003 0.004,0.003 0.009,0.008 0.0136,0.0143 0.005,0.006 0.01,0.0128 0.0164,0.0183 2.9e-4,2.1e-4 6.6e-4,3.9e-4 9.6e-4,6.1e-4 -0.003,0.007 -0.005,0.0132 -0.006,0.0194 -0.002,0.007 -0.004,0.013 -0.007,0.0179 -0.003,0.005 -0.007,0.009 -0.0158,0.0115 a 0.01048743,0.01048743 0 0 0 -0.007,0.01 c 0,0.0139 -4.9e-4,0.0246 -0.004,0.0311 -0.004,0.007 -0.01,0.012 -0.0292,0.0155 a 0.01048743,0.01048743 0 0 0 -9.8e-4,2.1e-4 c -0.0966,0.0272 -0.26467,0.0414 -0.44,0.0414 -0.17531,0 -0.34346,-0.0141 -0.43869,-0.0413 a 0.01048743,0.01048743 0 0 0 -0.001,-2.5e-4 c -0.0198,-0.003 -0.0267,-0.009 -0.0303,-0.0156 -0.004,-0.007 -0.004,-0.0171 -0.004,-0.031 a 0.01048743,0.01048743 0 0 0 -0.007,-0.01 c -0.008,-0.003 -0.0126,-0.007 -0.0158,-0.0116 -0.003,-0.005 -0.005,-0.0111 -0.007,-0.0179 -0.002,-0.006 -0.003,-0.0129 -0.006,-0.0194 2.8e-4,-2.1e-4 6.7e-4,-3.9e-4 9.5e-4,-6.1e-4 0.007,-0.005 0.0117,-0.0122 0.0164,-0.0182 0.005,-0.006 0.009,-0.0114 0.0136,-0.0143 0.004,-0.003 0.008,-0.004 0.0138,-0.003 a 0.01048743,0.01048743 0 0 0 0.0127,-0.0103 c 0,-0.0212 0.009,-0.0298 0.0228,-0.0347 0.007,-0.002 0.0159,-0.003 0.0254,-0.003 z"
       id="path4638" />
    <path
       style="color:#000000;fill:#ffffff;stroke:none;stroke-width:0.0111997;stroke-linejoin:round;-inkscape-stroke:none"
       d="m -894.58897,-949.52426 c 0.0569,0.008 0.12019,0.0139 0.16955,0.008 0.0278,0 0.0481,0.0481 -0.008,0.0557 -0.0493,0.006 -0.12652,0 -0.16828,-0.008 -0.0354,-0.006 -0.11261,-0.0202 -0.16196,-0.0342 -0.0493,-0.0215 -0.0139,-0.0632 0.0139,-0.0569 0.043,0.0139 0.0987,0.0278 0.15439,0.0354 z m 0.47828,0 c -0.057,0.008 -0.1202,0.0139 -0.16829,0.008 -0.0291,0 -0.0494,0.0481 0.006,0.0557 0.0494,0.006 0.12653,0 0.16825,-0.008 0.0355,-0.006 0.11262,-0.0202 0.16197,-0.0342 0.0493,-0.0215 0.0139,-0.0632 -0.0139,-0.0569 -0.043,0.0139 -0.0987,0.0278 -0.15434,0.0354 z"
       id="path4660" />
    <path
       style="color:#000000;fill:#c09300;stroke:none;stroke-width:0.00205575;stroke-linejoin:round;-inkscape-stroke:none"
       d="m -894.7485,-949.56594 c -0.0149,-4.7e-4 -0.0293,0.009 -0.0358,0.0218 -0.004,0.007 -0.005,0.0165 -6.4e-4,0.0249 0.004,0.008 0.0122,0.0159 0.0254,0.0216 a 0.00560043,0.00560043 0 0 0 7.1e-4,2.5e-4 c 0.0499,0.0141 0.12705,0.028 0.16249,0.0343 0.0424,0.008 0.11946,0.0141 0.16998,0.008 a 0.00560043,0.00560043 0 0 0 3e-5,0 c 0.0148,-0.002 0.0252,-0.007 0.0318,-0.0135 0.007,-0.007 0.009,-0.0154 0.008,-0.0234 -0.002,-0.0159 -0.0159,-0.0299 -0.033,-0.0299 a 0.00560043,0.00560043 0 0 0 -7.2e-4,4e-5 c -0.0483,0.006 -0.1113,-2e-5 -0.16808,-0.008 -10e-6,0 -2e-5,0 -2e-5,0 -0.0553,-0.008 -0.11068,-0.0214 -0.1534,-0.0352 a 0.00560043,0.00560043 0 0 0 -4.8e-4,-1.4e-4 c -0.002,-4.9e-4 -0.004,-7.5e-4 -0.006,-8.1e-4 z m 0.79731,0 c -0.002,7e-5 -0.004,3.1e-4 -0.006,8.1e-4 a 0.00560043,0.00560043 0 0 0 -4.8e-4,1.4e-4 c -0.0427,0.0138 -0.0981,0.0277 -0.15336,0.0352 0,0 0,0 -10e-6,0 0,0 -10e-6,0 -10e-6,0 -0.0568,0.008 -0.11982,0.0138 -0.1668,0.008 a 0.00560043,0.00560043 0 0 0 -7.3e-4,-3e-5 c -0.0176,0 -0.032,0.0139 -0.0342,0.0298 -10e-4,0.008 10e-4,0.0167 0.008,0.0235 0.007,0.007 0.0171,0.0115 0.0318,0.0135 a 0.00560043,0.00560043 0 0 0 3e-5,0 c 0.0505,0.006 0.12757,7e-5 0.16996,-0.008 h 2e-5 c 0.0355,-0.006 0.11261,-0.0202 0.16248,-0.0343 a 0.00560043,0.00560043 0 0 0 7.1e-4,-2.5e-4 c 0.0132,-0.006 0.0215,-0.0132 0.0254,-0.0216 0.004,-0.008 0.003,-0.0175 -6.3e-4,-0.0249 -0.006,-0.0129 -0.0209,-0.0223 -0.0358,-0.0218 z m -0.80189,0.0117 c 0.003,-5.2e-4 0.006,-5.3e-4 0.008,7e-5 0.0433,0.014 0.099,0.0279 0.15491,0.0355 a 0.00560043,0.00560043 0 0 0 10e-6,0 v 0 c 0.0568,0.008 0.12004,0.014 0.17037,0.008 0.0107,3e-5 0.0207,0.0101 0.0219,0.02 6.2e-4,0.005 -6e-4,0.01 -0.005,0.0142 -0.004,0.004 -0.0123,0.009 -0.0254,0.0103 -0.0481,0.006 -0.12543,-7e-5 -0.16652,-0.008 a 0.00560043,0.00560043 0 0 0 -10e-6,0 c -0.0353,-0.006 -0.11218,-0.0202 -0.16102,-0.034 -0.0113,-0.005 -0.017,-0.0107 -0.0194,-0.0159 -0.002,-0.005 -0.002,-0.0102 5.1e-4,-0.0152 0.004,-0.007 0.0124,-0.0136 0.0211,-0.0151 z m 0.80648,0 c 0.009,0.002 0.0175,0.008 0.0212,0.0151 0.002,0.005 0.003,0.01 4.9e-4,0.0152 -0.002,0.005 -0.008,0.011 -0.0194,0.0159 -0.0488,0.0138 -0.12567,0.0276 -0.16101,0.034 a 0.00560043,0.00560043 0 0 0 -2e-5,0 c -0.041,0.007 -0.11834,0.0137 -0.16649,0.008 -0.0131,-0.002 -0.021,-0.006 -0.0253,-0.0103 -0.004,-0.004 -0.005,-0.009 -0.005,-0.0141 0.001,-0.01 0.0116,-0.0201 0.023,-0.0201 0.0491,0.006 0.11226,-7e-5 0.1691,-0.008 h -10e-6 a 0.00560043,0.00560043 0 0 0 2e-5,0 c 0.0559,-0.008 0.11161,-0.0215 0.15487,-0.0355 0.003,-6.1e-4 0.006,-5.9e-4 0.008,-7e-5 z"
       id="path4662" />
    <path
       style="color:#000000;fill:#ffffff;stroke:none;stroke-width:0.0111997;stroke-linejoin:round;-inkscape-stroke:none"
       d="m -894.7636,-949.55204 c -0.043,-0.008 -0.0633,0.0417 -0.0493,0.0696 0.006,-0.0139 0.0354,-0.0139 0.0418,-0.0278 0.008,-0.0215 -0.006,-0.0215 0.008,-0.0417 z m 0.16828,0.12938 c 0,-0.0278 0.0278,-0.0244 0.0278,-0.0522 0,-0.0139 -0.008,-0.0354 -0.0215,-0.0354 -0.0139,0 -0.0279,0.0139 -0.0279,0.0278 -0.006,0.0278 0.0215,0.032 0.0215,0.0598 z m 0.20029,-0.0801 c 0.0417,0 0.0376,0.0557 0.0173,0.0835 0,-0.0202 -0.0354,-0.0278 -0.0354,-0.0417 0,-0.0215 0.032,-0.0215 0.0181,-0.0418 z m 0.45887,-0.0493 c 0.043,-0.008 0.0633,0.0417 0.0494,0.0696 -0.006,-0.0139 -0.0354,-0.0139 -0.0417,-0.0278 -0.008,-0.0215 0.006,-0.0215 -0.008,-0.0417 z m -0.16827,0.12938 c 0,-0.0278 -0.0278,-0.0244 -0.0278,-0.0522 0,-0.0139 0.008,-0.0354 0.0215,-0.0354 0.0139,0 0.0278,0.0139 0.0278,0.0278 0.006,0.0278 -0.0215,0.032 -0.0215,0.0598 z m -0.20029,-0.0801 c -0.0417,0 -0.0376,0.0557 -0.0174,0.0835 0,-0.0202 0.0354,-0.0278 0.0354,-0.0417 10e-6,-0.0215 -0.032,-0.0215 -0.0181,-0.0418 z"
       id="path4654" />
    <path
       style="color:#000000;fill:#c09300;stroke:none;stroke-width:0.00205575;stroke-linejoin:round;-inkscape-stroke:none"
       d="m -894.77126,-949.55839 c -0.0195,-2.8e-4 -0.0348,0.0107 -0.0432,0.025 -0.01,0.0164 -0.0115,0.0373 -0.003,0.0534 a 0.00560043,0.00560043 0 0 0 0.0101,-1.8e-4 c 0.002,-0.004 0.009,-0.008 0.0178,-0.011 0.009,-0.003 0.0194,-0.007 0.0239,-0.0168 a 0.00560043,0.00560043 0 0 0 1.8e-4,-4.6e-4 c 0.004,-0.0118 0.002,-0.0194 0.002,-0.024 -7.1e-4,-0.005 -0.001,-0.007 0.005,-0.0164 l -4.3e-4,-1.4e-4 a 0.00560043,0.00560043 0 0 0 10e-4,-0.003 0.00560043,0.00560043 0 0 0 -0.005,-0.005 l 8.1e-4,-6.9e-4 c -0.003,-5.2e-4 -0.006,-7.9e-4 -0.009,-8.3e-4 z m 0.84277,0 c -0.003,4e-5 -0.006,3.2e-4 -0.009,8.4e-4 l 8.2e-4,6.9e-4 a 0.00560043,0.00560043 0 0 0 -0.005,0.005 0.00560043,0.00560043 0 0 0 0.001,0.003 l -4.3e-4,1.4e-4 c 0.006,0.009 0.006,0.0117 0.005,0.0164 -7.1e-4,0.005 -0.002,0.0123 0.002,0.024 a 0.00560043,0.00560043 0 0 0 1.7e-4,4.5e-4 c 0.005,0.01 0.0151,0.0133 0.0239,0.0168 0.009,0.003 0.016,0.007 0.0178,0.011 a 0.00560043,0.00560043 0 0 0 0.0101,1.7e-4 c 0.008,-0.0161 0.006,-0.037 -0.003,-0.0534 -0.008,-0.0144 -0.0236,-0.0253 -0.0432,-0.025 z m -0.84425,0.0112 c -0.003,0.007 -0.003,0.0122 -0.003,0.0164 8.6e-4,0.006 0.002,0.009 -10e-4,0.0183 -0.002,0.004 -0.009,0.007 -0.0178,0.0109 -0.006,0.002 -0.0115,0.005 -0.0165,0.008 -0.002,-0.0109 -3.2e-4,-0.0239 0.006,-0.0343 0.007,-0.0113 0.0172,-0.0194 0.032,-0.0195 z m 0.84574,0 c 0.0149,7e-5 0.0254,0.008 0.032,0.0195 0.006,0.0104 0.008,0.0235 0.006,0.0343 -0.005,-0.004 -0.011,-0.006 -0.0165,-0.008 -0.009,-0.003 -0.0158,-0.007 -0.0177,-0.0109 -0.003,-0.009 -0.002,-0.0126 -0.001,-0.0183 6.4e-4,-0.004 4.7e-4,-0.01 -0.003,-0.0164 z m -0.66199,0.0313 c -0.009,0 -0.017,0.004 -0.0231,0.0103 -0.006,0.006 -0.01,0.0137 -0.0102,0.0221 -0.003,0.0156 0.003,0.0262 0.009,0.0343 0.006,0.008 0.012,0.0145 0.012,0.0265 a 0.00560043,0.00560043 0 0 0 0.0112,0 c 0,-0.012 0.005,-0.0158 0.012,-0.0219 0.007,-0.006 0.0158,-0.0145 0.0158,-0.0303 0,-0.008 -0.002,-0.0174 -0.006,-0.0255 -0.004,-0.008 -0.0111,-0.0155 -0.0209,-0.0155 z m 0.47825,0 c -0.01,0 -0.0168,0.007 -0.021,0.0155 -0.004,0.008 -0.006,0.0175 -0.006,0.0255 0,0.0158 0.009,0.0242 0.0158,0.0303 0.007,0.006 0.012,0.01 0.012,0.0219 a 0.00560043,0.00560043 0 0 0 0.0112,0 c 0,-0.012 0.006,-0.0183 0.012,-0.0265 0.006,-0.008 0.0129,-0.0188 0.009,-0.0344 -3.6e-4,-0.008 -0.004,-0.0162 -0.0102,-0.022 -0.006,-0.006 -0.0143,-0.0103 -0.0231,-0.0103 z m -0.28429,0.008 a 0.00560043,0.00560043 0 0 0 -0.005,0.009 c 0.003,0.004 0.003,0.006 0.002,0.007 -4.3e-4,10e-4 -0.002,0.003 -0.005,0.006 -0.003,0.002 -0.007,0.005 -0.0102,0.009 -0.003,0.004 -0.006,0.01 -0.006,0.0163 0,0.006 0.004,0.0103 0.007,0.0137 0.004,0.003 0.008,0.006 0.0127,0.009 0.004,0.003 0.008,0.006 0.0112,0.009 0.003,0.003 0.004,0.006 0.004,0.009 a 0.00560043,0.00560043 0 0 0 0.0101,0.003 c 0.0111,-0.0152 0.0174,-0.0369 0.0156,-0.056 -9.1e-4,-0.01 -0.004,-0.0186 -0.0102,-0.0254 -0.006,-0.007 -0.0156,-0.011 -0.0273,-0.011 z m 0.0903,0 c -0.0117,0 -0.0211,0.004 -0.0273,0.011 -0.006,0.007 -0.009,0.0159 -0.0102,0.0254 -0.002,0.0191 0.005,0.0408 0.0156,0.056 a 0.00560043,0.00560043 0 0 0 0.0101,-0.003 c 0,-0.003 10e-4,-0.006 0.004,-0.009 0.003,-0.003 0.007,-0.006 0.0112,-0.009 0.004,-0.003 0.009,-0.006 0.0127,-0.009 0.004,-0.003 0.007,-0.008 0.007,-0.0137 0,-0.007 -0.003,-0.0123 -0.006,-0.0163 -0.003,-0.004 -0.007,-0.007 -0.0102,-0.009 -0.003,-0.002 -0.005,-0.004 -0.005,-0.006 -4.3e-4,-10e-4 -5.7e-4,-0.003 0.002,-0.007 a 0.00560043,0.00560043 0 0 0 -0.005,-0.009 z m -0.28427,0.004 c 0.004,0 0.008,0.003 0.011,0.009 0.003,0.006 0.005,0.0145 0.005,0.0204 0,0.0121 -0.005,0.0158 -0.012,0.0219 -0.003,0.003 -0.007,0.006 -0.01,0.0104 -0.003,-0.005 -0.006,-0.01 -0.009,-0.0134 -0.006,-0.008 -0.0101,-0.0131 -0.007,-0.0253 a 0.00560043,0.00560043 0 0 0 1.4e-4,-10e-4 c 0,-0.005 0.003,-0.0108 0.007,-0.0152 0.004,-0.004 0.0101,-0.007 0.0152,-0.007 z m 0.47825,0 c 0.005,0 0.0108,0.003 0.0152,0.007 0.004,0.004 0.007,0.0101 0.007,0.0152 a 0.00560043,0.00560043 0 0 0 1.4e-4,10e-4 c 0.003,0.0121 -0.001,0.0174 -0.007,0.0253 -0.003,0.004 -0.006,0.008 -0.009,0.0134 -0.003,-0.004 -0.006,-0.008 -0.01,-0.0104 -0.007,-0.006 -0.012,-0.01 -0.012,-0.0219 0,-0.006 0.002,-0.0142 0.005,-0.0204 0.003,-0.006 0.007,-0.009 0.011,-0.009 z m -0.27555,0.009 c 0.004,0.001 0.008,0.003 0.0103,0.006 0.004,0.004 0.007,0.0111 0.007,0.0189 10e-4,0.0121 -0.002,0.0267 -0.008,0.0386 -8.3e-4,-0.001 -0.001,-0.003 -0.002,-0.004 -0.004,-0.004 -0.009,-0.008 -0.0132,-0.011 -0.005,-0.003 -0.009,-0.006 -0.0116,-0.009 -0.003,-0.003 -0.004,-0.004 -0.004,-0.005 0,-0.004 10e-4,-0.007 0.003,-0.009 0.002,-0.003 0.005,-0.005 0.009,-0.008 0.003,-0.003 0.007,-0.006 0.009,-0.0109 7.2e-4,-0.002 7.6e-4,-0.005 3.8e-4,-0.007 z m 0.0728,0 c -3.7e-4,0.002 -3.1e-4,0.005 3.8e-4,0.007 0.002,0.005 0.005,0.008 0.009,0.0109 0.003,0.003 0.007,0.005 0.009,0.008 0.002,0.003 0.003,0.005 0.003,0.009 0,10e-4 -8.6e-4,0.003 -0.004,0.005 -0.003,0.003 -0.007,0.005 -0.0116,0.009 -0.005,0.003 -0.009,0.007 -0.0132,0.011 -9.7e-4,10e-4 -0.002,0.003 -0.002,0.004 -0.006,-0.0119 -0.009,-0.0265 -0.008,-0.0386 7.5e-4,-0.008 0.003,-0.0144 0.007,-0.0189 0.003,-0.003 0.006,-0.005 0.0103,-0.006 z"
       id="path4656" />
    <path
       style="color:#000000;fill:#ffffff;stroke:none;stroke-width:0.00785707;stroke-linejoin:round;-inkscape-stroke:none"
       d="m -894.74966,-949.5381 c 0.0139,0 0.0354,0.006 0.0418,0.0139 z m 0.0695,0.0215 c 0.008,0 0.0354,0.006 0.0494,0.0139 z m 0.25311,0.0278 c -0.0139,0 -0.0417,0 -0.0493,0.006 z m -0.0772,0 c -0.008,-0.008 -0.0354,-0.008 -0.0493,0 z m 0.55422,-0.0493 c -0.0139,0 -0.0342,0.006 -0.0418,0.0139 z m -0.0696,0.0215 c -0.008,0 -0.0354,0.006 -0.0494,0.0139 z m -0.25312,0.0278 c 0.0139,0 0.0418,0 0.0494,0.006 z m 0.0772,0 c 0.008,-0.008 0.0354,-0.008 0.0494,0 z"
       id="path4630" />
    <path
       style="color:#000000;fill:#c09300;stroke:none;stroke-width:0.00205575;stroke-linejoin:round;-inkscape-stroke:none"
       d="m -894.74966,-949.54203 9.5e-4,2.8e-4 a 0.00392893,0.00392893 0 0 0 -0.003,0.007 l 3e-5,2e-5 a 0.00392893,0.00392893 0 0 0 9.2e-4,2.9e-4 l -7e-5,1.4e-4 0.0418,0.0139 a 0.00392893,0.00392893 0 0 0 0.004,-0.006 c -0.004,-0.005 -0.0116,-0.008 -0.0198,-0.011 -0.008,-0.003 -0.0174,-0.004 -0.0249,-0.004 z m 0.79966,0 c -0.008,0 -0.0164,0.002 -0.0245,0.004 -0.008,0.003 -0.0154,0.006 -0.0201,0.0108 a 0.00392893,0.00392893 0 0 0 0.004,0.006 l 0.0418,-0.0139 a 0.00403113,0.00403113 0 0 0 -10e-4,-0.008 z m -0.73016,0.0215 5.9e-4,2.8e-4 a 0.00392893,0.00392893 0 0 0 -0.004,0.006 l 4e-5,4e-5 a 0.00392893,0.00392893 0 0 0 0.002,9.3e-4 l -1.4e-4,2.5e-4 0.0494,0.0139 a 0.00392893,0.00392893 0 0 0 0.003,-0.007 c -0.008,-0.004 -0.0181,-0.008 -0.0279,-0.0101 -0.009,-0.002 -0.0172,-0.004 -0.0222,-0.004 l -1.1e-4,-2e-5 a 0.00392893,0.00392893 0 0 0 -3e-5,2e-5 c -2.8e-4,0 -7.5e-4,-1.1e-4 -9.9e-4,-1.1e-4 z m 0.66057,0 c -2.4e-4,0 -7.1e-4,1.1e-4 -9.7e-4,1.1e-4 a 0.00392893,0.00392893 0 0 0 -7e-5,0 l -10e-5,2e-5 c -0.005,1.8e-4 -0.0129,0.002 -0.0222,0.004 -0.01,0.003 -0.0204,0.006 -0.0279,0.0101 a 0.00392893,0.00392893 0 0 0 0.003,0.007 l 0.0494,-0.0139 -1.4e-4,-2.1e-4 a 0.00392893,0.00392893 0 0 0 0.002,-8.1e-4 l 3e-5,-3e-5 a 0.00392893,0.00392893 0 0 0 -0.003,-0.006 z m -0.50692,0.0221 c -0.0102,0 -0.021,0.002 -0.0289,0.006 a 0.00392893,0.00392893 0 0 0 0.002,0.007 h 0.0493 4e-5 a 0.00392893,0.00392893 0 0 0 0.003,-0.007 c -0.005,-0.006 -0.0149,-0.007 -0.0251,-0.007 z m 0.35328,0 c -0.0102,0 -0.0196,10e-4 -0.0251,0.007 l 0.003,-10e-4 v 0.008 h 4e-5 0.0494 a 0.00392893,0.00392893 0 0 0 0.002,-0.007 c -0.008,-0.004 -0.0188,-0.006 -0.0289,-0.006 z m -0.25434,0.006 -2.9e-4,3e-5 c -0.007,0 -0.017,0 -0.0266,7.8e-4 -0.005,4e-4 -0.01,10e-4 -0.0139,0.002 -0.004,9.5e-4 -0.008,0.002 -0.0106,0.004 a 0.00392893,0.00392893 0 0 0 0.003,0.007 l 0.0467,-0.006 -1.1e-4,-1.7e-4 c 6.3e-4,0 0.002,-7e-5 0.002,-7e-5 a 0.00392893,0.00392893 0 0 0 0.003,-0.006 l -2e-5,-4e-5 a 0.00392893,0.00392893 0 0 0 -0.003,-0.002 l 1.1e-4,-2.2e-4 c -1.1e-4,0 -3.5e-4,3e-5 -4.8e-4,3e-5 a 0.00392893,0.00392893 0 0 0 -7e-5,-3e-5 z m 0.15533,0 a 0.00392893,0.00392893 0 0 0 -4e-5,2e-5 c -10e-5,0 -3.2e-4,-2e-5 -4.2e-4,-2e-5 l 2.5e-4,1.1e-4 a 0.00392893,0.00392893 0 0 0 -0.003,0.006 l 4e-5,3e-5 a 0.00392893,0.00392893 0 0 0 0.002,0.001 l -7e-5,1.4e-4 5.2e-4,7e-5 a 0.00392893,0.00392893 0 0 0 2e-5,0 c 2e-5,0 3e-5,0 7e-5,0 l 0.0488,0.006 a 0.00392893,0.00392893 0 0 0 0.003,-0.007 c -0.003,-0.002 -0.006,-0.004 -0.0106,-0.004 -0.004,-9.5e-4 -0.009,-0.002 -0.0139,-0.002 -0.01,-7.8e-4 -0.0197,-7.8e-4 -0.0267,-7.8e-4 z"
       id="path4632" />
    <path
       d="m -894.76139,-949.42689 c -0.005,-9e-4 -0.007,-0.005 -0.006,-0.009 10e-4,-0.005 0.006,-0.008 0.01,-0.007 0.003,9.1e-4 0.007,0.006 0.007,0.007 3e-5,0.002 -0.002,0.007 -0.004,0.007 -4.7e-4,0 -0.001,4.2e-4 -0.002,9e-4 -8.8e-4,10e-4 -0.004,0.002 -0.006,10e-4 z m 0.48445,0.0346 c -0.002,-6.5e-4 -0.005,-0.005 -0.005,-0.006 2e-5,-0.003 0.005,-0.009 0.008,-0.009 0.002,0 0.006,0.002 0.007,0.004 0.003,0.003 0.002,0.008 -10e-4,0.0107 -0.002,0.001 -0.007,0.002 -0.01,9e-4 z m 0.003,0.0219 c -0.004,-10e-4 -0.005,-0.003 -0.005,-0.007 -3.2e-4,-0.004 1.1e-4,-0.005 0.005,-0.007 l 0.003,-0.002 0.003,10e-4 c 0.004,0.002 0.006,0.004 0.006,0.007 1.8e-4,0.003 -0.002,0.006 -0.006,0.008 -0.003,0.001 -0.003,0.001 -0.006,4.4e-4 z m -0.44873,-0.096 c -0.003,-10e-5 -0.007,0.003 -0.01,0.004 -0.006,10e-4 -0.0124,0.005 -0.0179,10e-4 -0.005,-0.002 -0.0127,-3.6e-4 -0.0135,0.006 10e-4,0.006 0.009,0.009 0.0143,0.005 0.004,-0.005 0.0135,-0.008 0.0146,5.5e-4 -0.004,0.006 -0.004,0.0142 -0.007,0.0207 -5.4e-4,0.004 -0.002,0.008 -0.004,0.0113 -0.004,4e-4 -0.008,-8e-5 -0.0119,0.002 -0.006,3.1e-4 -0.0111,0.003 -0.0143,0.008 -0.004,0.005 -0.007,0.0103 -0.008,0.0165 9.4e-4,0.006 0.008,0.008 0.0138,0.009 0.006,0.002 0.0118,0.004 0.0176,0.006 0.01,0.002 0.0185,0.006 0.0281,0.008 0.014,0.004 0.0286,0.006 0.0427,0.01 10e-4,4.9e-4 0.003,9.1e-4 0.004,10e-4 0.006,10e-4 0.009,-0.005 0.009,-0.01 0.003,-0.0102 0.005,-0.0206 0.008,-0.0309 0.002,-0.004 0.004,-0.0134 -0.004,-0.0113 -0.005,0.003 -0.008,0.007 -0.0141,0.007 -0.008,4.5e-4 -0.003,0.008 -2.8e-4,0.0116 6.7e-4,0.005 -9.7e-4,0.0114 -0.004,0.0154 -0.005,0.003 -0.0103,-4.9e-4 -0.0152,-0.002 -0.005,10e-5 -0.0152,-0.002 -0.0105,-0.009 0.002,-0.005 0.002,-0.0107 0.004,-0.0157 0.003,-0.005 0.003,-0.0113 0.004,-0.0171 -0.003,-0.007 -0.009,0.002 -0.0129,0.003 -0.003,0.002 -0.0142,0.003 -0.008,0.008 0.005,0.004 0.001,0.0105 2.8e-4,0.0154 -3.2e-4,0.007 -0.007,0.008 -0.013,0.007 -0.006,-2.8e-4 -0.0132,-0.004 -0.009,-0.0105 10e-4,-0.005 0.003,-0.01 0.004,-0.0152 l 0.006,-0.0182 c 9.5e-4,-0.005 0.003,-0.0106 0.006,-0.0154 1.4e-4,-0.006 0.004,-0.0113 0.004,-0.0174 -4.1e-4,-0.003 -0.002,-0.004 -0.004,-0.004 z m -0.0317,0.0639 c 7.2e-4,-1.4e-4 10e-4,-2e-5 0.002,2.8e-4 0.002,9.4e-4 0.002,0.003 0,0.005 -9.9e-4,8.6e-4 -0.002,0.002 -0.002,0.002 -0.004,-3.5e-4 -0.005,-9.6e-4 -0.006,-0.002 -1.4e-4,-10e-4 2.8e-4,-0.002 0.003,-0.003 0.001,-6.5e-4 0.002,-9.8e-4 0.003,-10e-4 z m -0.009,0.0443 c -0.004,-0.004 -0.004,-0.007 0.003,-0.0119 0.003,-0.002 0.004,-0.002 0.008,10e-4 0.005,0.004 0.005,0.007 7.6e-4,0.0111 -0.002,0.002 -0.003,0.002 -0.006,0.002 -0.003,2e-5 -0.003,-2.8e-4 -0.006,-0.002 z m 0.0269,0.008 a 0.00758572,0.00758572 0 0 1 -0.005,-0.01 c 0.001,-0.004 0.002,-0.004 0.007,-0.004 0.006,-7e-5 0.008,9.9e-4 0.008,0.007 4e-5,0.003 -2.1e-4,0.004 -0.002,0.005 -0.002,0.002 -0.005,0.003 -0.008,0.002 z m 0.7859,7.1e-4 c -0.002,-0.002 -0.002,-0.002 -0.002,-0.005 -3e-5,-0.004 0.002,-0.006 0.007,-0.008 0.006,-0.003 0.008,-0.002 0.0107,0.002 0.003,0.005 0.003,0.007 -7.4e-4,0.011 -0.002,0.002 -0.002,0.002 -0.007,0.002 -0.004,3e-5 -0.005,-10e-5 -0.007,-0.002 z m -0.75018,0.0101 c -0.003,-8.6e-4 -0.005,-0.003 -0.005,-0.007 -3e-5,-0.003 1.8e-4,-0.003 0.002,-0.005 10e-4,-0.001 0.003,-0.002 0.005,-0.002 0.002,-3.2e-4 0.003,-10e-5 0.005,10e-4 0.005,0.003 0.006,0.007 0.003,0.0101 -0.003,0.003 -0.006,0.004 -0.0106,0.003 z m 0.19332,0.009 c -7.1e-4,-8.9e-4 -0.002,-10e-4 -0.002,-0.003 2.8e-4,-0.005 5.2e-4,-0.01 0.002,-0.0145 8.4e-4,-0.005 10e-5,-0.009 0.002,-0.0139 0.002,-0.008 0.002,-0.0166 0.004,-0.0247 10e-5,-0.004 4.8e-4,-0.008 0.002,-0.0124 10e-4,-0.006 1.1e-4,-0.013 0.002,-0.0193 -2.2e-4,-0.002 0.003,-0.009 0.005,-0.005 0.003,0.005 0.008,0.009 0.0125,0.0134 0.004,0.002 3.2e-4,0.006 -0.002,0.007 -0.004,10e-4 -0.005,0.005 -0.004,0.009 -5.2e-4,0.004 -0.002,0.007 -0.002,0.0109 -7.8e-4,0.005 -6.3e-4,0.0111 -10e-4,0.0165 -0.002,0.005 -9.9e-4,0.0111 -0.002,0.0166 7e-5,0.004 -0.002,0.007 -10e-4,0.0102 -4.2e-4,0.004 -5.8e-4,0.008 -0.004,0.0103 -0.003,0.001 -0.007,0.001 -0.009,-10e-4 z m 0.26193,-0.0864 c -0.004,0.003 -0.008,0.007 -0.0118,0.0108 -0.005,0.004 0.004,0.006 0.006,0.01 10e-4,0.005 10e-4,0.0107 0.002,0.016 0.002,0.005 0.002,0.01 0.002,0.0152 -4.6e-4,0.005 -0.008,0.004 -0.0108,0.007 -0.004,0.002 -0.006,0.006 -0.009,0.009 -0.002,0.004 -0.003,0.009 -0.003,0.0143 3.2e-4,0.004 -0.003,0.008 0,0.0118 3.5e-4,4.9e-4 7.5e-4,10e-4 10e-4,0.002 8.9e-4,0.001 0.003,2.5e-4 0.004,5.5e-4 0.004,-2.5e-4 0.009,4.2e-4 0.0132,-0.001 0.0107,-0.002 0.0214,-0.002 0.0322,-0.002 0.007,2.1e-4 0.013,-0.002 0.0196,-0.002 0.005,10e-4 0.008,-0.004 0.007,-0.009 -0.003,-0.006 -3.9e-4,-0.0126 -0.003,-0.0185 -0.002,-0.006 -10e-4,-0.0126 -0.002,-0.0187 -1.4e-4,-0.005 -0.006,-0.007 -0.009,-0.003 -0.003,0.003 -0.008,0.004 -0.0102,0.007 -0.003,0.005 0.006,0.005 0.007,0.009 0.002,0.004 10e-4,0.009 10e-4,0.013 10e-4,0.005 -0.005,0.006 -0.008,0.006 -0.005,0.002 -0.0114,0.003 -0.014,-0.003 -0.002,-0.004 -10e-4,-0.009 -0.002,-0.0132 -1.1e-4,-0.008 -0.002,-0.0156 -0.002,-0.0234 -4.6e-4,-0.01 -0.002,-0.0193 -0.003,-0.0289 -1.1e-4,-0.004 -6.2e-4,-0.0106 -0.006,-0.009 z m -0.006,0.0728 0.003,2.8e-4 2.8e-4,0.003 2.8e-4,0.003 -0.004,0.001 a 0.02923277,0.02923277 0 0 1 -0.004,8.3e-4 0.02248991,0.02248991 0 0 1 -0.002,-10e-4 c -0.002,-10e-4 -0.001,-0.003 10e-4,-0.006 10e-4,-0.002 0.002,-0.002 0.004,-0.002 z m -0.26427,-0.0818 c -0.003,10e-4 -0.008,0.006 -0.011,0.006 -0.008,5.5e-4 -0.007,0.008 -10e-4,0.0108 7.4e-4,0.002 4e-5,0.005 2.8e-4,0.008 10e-4,0.007 -0.003,0.0126 -0.002,0.0196 -3.9e-4,0.008 -0.003,0.0151 -0.003,0.0229 -0.002,0.008 -0.002,0.0162 -0.004,0.0242 -9.3e-4,0.007 -0.006,0.005 -0.0108,0.003 -4e-5,-0.003 -2.5e-4,-0.006 -2.9e-4,-0.009 0.002,-0.007 -0.004,-0.009 -0.01,-0.0102 -0.006,5.7e-4 -0.009,-0.005 -0.008,-0.01 0.003,-0.003 0.009,-0.002 0.0132,-0.003 0.009,0.002 0.008,-0.01 0.004,-0.0138 -0.003,-0.006 -0.0106,-0.008 -0.0127,-0.0138 8.4e-4,-0.008 -0.004,-0.0153 -0.0105,-0.019 -0.01,-6.8e-4 -0.0168,0.008 -0.0204,0.0157 -0.004,10e-4 -0.008,0.002 -0.0118,0.004 -0.006,0.002 -0.0152,0.0124 -0.007,0.0165 0.005,10e-4 0.0194,0.005 0.013,0.0113 -0.004,0.006 -0.0106,0.006 -0.0168,0.005 -0.006,0 -0.0135,-0.003 -0.0132,-0.0105 -10e-4,-0.007 -10e-4,-0.0137 -0.004,-0.0198 -10e-4,-0.007 -0.01,-0.006 -0.0102,10e-4 -0.006,0.005 -0.006,0.0123 -10e-4,0.0179 0.003,0.006 2e-5,0.0139 -0.003,0.0199 -0.002,0.008 -0.0102,0.008 -0.0163,0.0105 -0.003,10e-4 -0.0144,-6.9e-4 -0.0102,0.006 0.007,0.002 0.0146,0.004 0.0215,0.003 0.007,-9e-4 0.0136,-0.006 0.0171,-0.0121 0.005,-0.005 0.0132,-0.002 0.0196,-0.002 0.007,-2e-5 0.0138,0.005 0.0204,0.002 0.002,-0.005 0.0108,-0.0132 0.0135,-0.005 -4.7e-4,0.008 0.006,0.0117 0.0132,0.0108 0.008,-4.4e-4 0.005,0.005 0.005,0.01 5e-4,0.008 0.006,0.0126 0.0127,0.016 0.002,6.3e-4 0.005,4.2e-4 0.007,0 0.007,-0.002 0.0137,-0.005 0.0157,-0.0124 0.003,-0.006 0.003,-0.0128 0.005,-0.019 0.002,-0.01 0.004,-0.0199 0.004,-0.03 0.002,-0.009 0.002,-0.0188 0.004,-0.0281 10e-4,-0.007 0.002,-0.0138 0.003,-0.0207 -8e-4,-0.004 -0.002,-0.004 -0.004,-0.004 z m -0.0598,0.0367 c 10e-4,1.8e-4 0.002,0.002 0.002,0.005 1.4e-4,0.003 0.002,0.006 0.004,0.006 0.002,4e-4 10e-4,0.002 -2.9e-4,0.003 -0.001,6.9e-4 -0.003,10e-4 -0.006,10e-4 -0.005,-3e-5 -0.008,-10e-4 -0.011,-0.004 l -0.002,-0.002 0.002,-0.002 a 0.05669761,0.05669761 0 0 0 0.005,-0.004 c 0.003,-0.003 0.004,-0.004 0.006,-0.004 z m 0.58236,-0.0695 c -0.005,2.4e-4 -0.01,10e-4 -0.0146,0.002 -0.009,-5.7e-4 -0.0138,0.009 -0.005,0.0138 0.005,0.0135 0.0136,-0.003 0.022,-0.002 0.0127,0.002 0.0138,0.0162 0.0157,0.0265 7.1e-4,0.0102 0.004,0.0201 0.007,0.0298 0.008,0.009 -0.006,0.0153 -0.0127,0.008 -0.005,-0.006 -0.0169,-0.0131 -0.0234,-0.005 -0.008,0.003 -0.008,0.014 -0.0149,0.0171 -0.0107,0.003 -0.012,-0.01 -0.0176,-0.0154 -0.005,-0.007 -0.0151,-0.008 -0.0231,-0.0105 -0.004,-0.008 -0.002,-0.0207 -0.01,-0.0259 -0.007,0.003 -0.0186,0.015 -0.009,0.0207 0.01,0.008 -0.004,0.0124 -0.009,0.0182 -0.006,0.007 -0.007,0.0171 -0.009,0.0262 -0.0111,0.006 -0.0133,-0.007 -0.0146,-0.0151 -8.7e-4,-0.01 -0.009,-0.007 -0.0149,-0.003 -0.008,0.003 -0.0126,0.0114 -0.0185,0.0176 -7.1e-4,0.006 3.2e-4,0.012 2.8e-4,0.0179 0.002,0.007 0.0106,0.004 0.016,0.003 0.009,-0.004 0.0122,0.006 0.005,0.0108 -0.005,0.006 -0.0196,0.003 -0.0182,0.0124 0.005,5.6e-4 0.01,3.8e-4 0.0146,0 0.01,-0.003 0.0199,-0.009 0.0209,-0.0201 10e-4,-0.009 0.0147,-0.008 0.0221,-0.01 0.009,-0.003 0.0202,-0.003 0.0223,0.008 0.006,0.007 0.0198,0.014 0.0267,0.005 0.007,-0.004 0.0104,-0.0118 0.01,-0.0198 -10e-4,-0.007 0.0112,-0.007 0.0143,-0.003 0.005,0.008 0.019,0.005 0.0259,10e-4 0.007,-0.005 0.009,-0.015 0.0196,-0.0152 0.0157,-0.005 0.0321,-0.007 0.0474,-0.0132 0.0124,-0.003 -0.002,-0.0106 -0.005,-0.0152 -0.009,-0.005 -0.0177,0.0145 -0.0284,0.005 -0.008,-0.006 -0.008,-0.0183 -0.0107,-0.0276 -0.002,-0.012 -0.002,-0.0258 -0.0102,-0.0353 -0.006,-0.006 -0.014,-0.008 -0.0223,-0.007 z m -0.0601,0.0835 c 10e-4,-3e-5 0.002,5.2e-4 0.004,0.002 0.004,0.002 0.007,0.006 0.007,0.009 0,0.002 -4.8e-4,0.002 -0.003,0.003 -0.002,8e-4 -0.004,0.002 -0.004,0.002 -0.002,-2e-5 -0.005,-0.003 -0.006,-0.004 0,-5.2e-4 -5.1e-4,-0.003 -0.001,-0.004 -10e-4,-0.003 -8.8e-4,-0.003 5.5e-4,-0.005 9.1e-4,-10e-4 0.002,-0.002 0.003,-0.002 z m 0.0576,0.003 c 0.003,-2.1e-4 0.005,8.1e-4 0.007,0.003 0.002,0.003 5.2e-4,0.005 -0.004,0.007 -0.002,7.8e-4 -0.004,10e-4 -0.004,10e-4 -2.8e-4,-2e-5 -0.002,-9e-4 -0.003,-0.002 -0.002,-0.002 -0.003,-0.002 -0.003,-0.004 -3e-5,-0.003 0.003,-0.005 0.007,-0.006 z m -0.0788,8.2e-4 c 9.7e-4,-1.4e-4 0.002,3.6e-4 0.003,10e-4 0.002,10e-4 0.002,0.002 0.002,0.005 2.8e-4,0.002 2.4e-4,0.004 0,0.006 -4.3e-4,0.002 -4.7e-4,0.002 -0.005,0.002 -0.006,3e-5 -0.006,-5.6e-4 -0.006,-0.006 7e-5,-0.003 1.1e-4,-0.004 0.002,-0.006 0.001,-10e-4 0.003,-0.002 0.004,-0.002 z m -0.0485,0.0127 c 0.002,4.2e-4 0.003,0.002 0.004,0.004 5.8e-4,0.003 7e-5,0.004 -0.002,0.005 -0.002,9.9e-4 -0.006,10e-4 -0.008,5.5e-4 -4e-4,-2.5e-4 -10e-4,-9.1e-4 -0.002,-0.002 -6e-4,-10e-4 -4.9e-4,-0.002 2.9e-4,-0.002 5.3e-4,-4.3e-4 10e-4,-10e-4 10e-4,-10e-4 -10e-6,-3.1e-4 5.9e-4,-10e-4 10e-4,-0.002 0.001,-0.002 0.003,-0.002 0.005,-0.002 z m 0.0816,0.0105 c 0.002,0 0.003,5.3e-4 0.004,10e-4 0.002,0.001 0.002,0.004 -2.9e-4,0.005 -10e-4,9.3e-4 -0.008,8.4e-4 -0.01,0 -9.9e-4,-3.7e-4 -0.001,-8.7e-4 -0.001,-0.002 -2e-5,-10e-4 3.1e-4,-0.002 0.002,-0.003 0.002,-8.6e-4 0.004,-10e-4 0.005,-10e-4 z m -0.15144,0.0425 c -8.5e-4,-5.5e-4 -0.002,-10e-4 -8.4e-4,-0.002 0.002,-0.003 0.005,-0.004 0.007,-0.005 0.005,-0.002 0.009,-0.006 0.0121,-0.01 4.4e-4,-0.003 0.004,-0.005 0.004,-0.008 3e-5,-0.004 2.8e-4,-0.008 -7.5e-4,-0.0126 -10e-4,-0.004 -0.004,-0.007 -0.007,-0.009 -0.002,-0.002 -0.006,-0.002 -0.007,-0.005 -4.6e-4,-0.003 0.002,-0.005 0.003,-0.008 0.002,-0.004 0.004,-0.008 0.006,-0.0112 0.002,-0.003 0.006,-1.4e-4 0.007,0.002 0.002,0.002 0.003,0.005 0.004,0.008 0.003,0.003 0.005,0.006 0.006,0.0102 0.001,0.003 0.003,0.005 0.003,0.009 0,0.004 0.002,0.007 0.002,0.0106 1e-4,0.005 1e-4,0.0101 -0.002,0.0148 -10e-4,0.003 -0.004,0.004 -0.005,0.006 -0.003,0.003 -0.006,0.005 -0.01,0.006 -0.003,8.1e-4 -0.004,0.004 -0.007,0.003 -0.005,7e-5 -0.009,7e-4 -0.0137,-3e-5 2.8e-4,4.7e-4 -10e-4,-8.1e-4 -10e-4,-5.1e-4 z m -0.0604,0.004 c -0.002,-0.002 -0.003,-0.003 -0.003,-0.005 -3e-5,-0.002 3.9e-4,-0.003 0.002,-0.005 0.004,-0.004 0.006,-0.004 0.0124,-6.2e-4 0.006,0.003 0.009,0.004 0.009,10e-4 5.5e-4,-0.002 0.004,-0.004 0.008,-0.004 0.002,-2e-5 0.003,4.2e-4 0.005,0.002 0.002,0.002 0.002,0.002 0.002,0.006 4e-5,0.004 -2e-5,0.004 -0.003,0.006 -0.002,0.002 -0.003,0.002 -0.006,0.002 -0.004,-3.9e-4 -0.006,-0.002 -0.007,-0.005 -4.5e-4,-0.002 -0.001,-0.003 -0.002,-10e-4 -1.7e-4,4.9e-4 -10e-4,10e-4 -0.002,10e-4 -0.002,4.5e-4 -0.005,0.002 -0.007,0.004 -8.2e-4,7.8e-4 -0.002,10e-4 -0.005,10e-4 -0.003,3e-5 -0.004,-1.7e-4 -0.006,-0.003 z m -0.1748,-0.0785 c -0.006,7e-5 -0.0122,0.005 -0.013,0.0108 10e-4,0.007 0.007,0.0131 0.003,0.0201 0.002,0.009 -0.007,0.0123 -0.013,0.007 -0.004,-0.009 -0.006,-0.018 -0.0113,-0.0256 -0.007,-0.002 -0.0102,0.009 -0.0152,0.0132 0.002,0.007 0.01,0.0126 0.0105,0.0209 0.002,0.008 -0.003,0.017 -0.0102,0.0212 -0.006,0.006 -0.0143,0.004 -0.0218,0.005 -0.009,0.005 0.007,0.007 0.0107,0.007 0.009,9.4e-4 0.0188,-2.8e-4 0.0256,-0.007 0.007,-0.003 0.006,-0.015 0.0143,-0.0163 0.014,-6.3e-4 0.0279,0.002 0.0419,0.002 0.007,0.002 0.0191,-9e-4 0.0243,0.005 10e-6,0.01 0.008,0.0158 0.0163,0.0196 0.004,10e-4 0.009,-0.004 0.0135,-0.005 0.009,-0.003 0.006,-0.0132 0.011,-0.0174 0.0145,-7.9e-4 0.0292,-6.2e-4 0.0438,-8.3e-4 0.003,7e-5 0.004,-0.004 0.006,-0.006 -3.2e-4,-0.006 -5.3e-4,-0.0112 -10e-4,-0.0168 -0.003,-0.007 4.6e-4,-0.0163 -0.005,-0.0223 -0.007,-0.002 -0.0136,0.005 -0.021,0.005 -0.008,0.004 -0.015,0.0112 -0.0154,0.0204 -0.005,0.008 -0.0126,-10e-4 -0.01,-0.008 -3.2e-4,-0.003 6.2e-4,-0.006 -2.9e-4,-0.009 -0.004,-0.005 -0.0123,-0.004 -0.0185,-0.004 -0.009,3.5e-4 -0.0177,-0.002 -0.0267,-10e-4 -0.008,-6e-4 -0.0161,6.8e-4 -0.0237,-0.001 -0.009,-2.4e-4 -0.008,-0.009 -0.009,-0.0154 -0.002,-10e-4 -0.004,-0.002 -0.006,-0.002 z m 0.0176,0.0325 c 0.003,7e-5 0.006,4.6e-4 0.009,8.3e-4 0.004,6.3e-4 0.008,-10e-4 0.0116,0 0.009,10e-4 0.0172,10e-4 0.0259,0.002 0.002,-4e-5 0.004,0.002 0.006,0.003 v 0.0182 c -2.4e-4,0.002 6.8e-4,0.005 -0.001,0.007 -6.6e-4,4.5e-4 -10e-4,9.5e-4 -0.002,10e-4 -0.002,-6.1e-4 -0.005,-0.002 -0.006,-0.004 -3.6e-4,-0.003 1.4e-4,-0.006 2.8e-4,-0.009 -7e-5,-8.1e-4 3.6e-4,-0.002 0,-0.003 -0.002,-10e-4 -0.004,-0.002 -0.006,-0.002 -0.007,-2.4e-4 -0.0148,-8e-4 -0.0223,-10e-4 -0.006,-3.9e-4 -0.0126,5.4e-4 -0.0187,-10e-4 -0.002,-8.6e-4 -0.005,-5.6e-4 -0.007,-0.003 -0.002,-0.002 9.1e-4,-0.005 0.003,-0.006 0.003,-0.001 0.006,-0.002 0.009,-0.002 z m 0.0995,0.002 c 0.001,-2e-5 0.002,4.4e-4 0.002,0.003 l 10e-4,0.004 c 3.2e-4,10e-4 -1.7e-4,10e-4 -0.002,0.002 -0.004,0.002 -0.009,10e-4 -0.0102,-5.5e-4 -6.9e-4,-9.2e-4 10e-5,-0.004 10e-4,-0.005 0.003,-0.002 0.005,-0.004 0.007,-0.004 z"
       class="B C"
       id="path5231"
       style="fill:#c09300;fill-opacity:1;stroke:none;stroke-width:0.00205575" />
    <path
       style="color:#000000;fill:#ffffff;stroke:none;stroke-width:0.010742;-inkscape-stroke:none"
       d="m -894.24131,-950.49836 c 0.006,3.5e-4 -0.008,-0.0315 -0.008,-0.0315 0.0156,0.0159 0.0743,0.0197 0.0743,0.0197 -0.0353,-0.0156 -0.0705,-0.13314 -0.0664,-0.22684 0.004,-0.0941 -0.0135,-0.13106 -0.0273,-0.14489 -0.0176,-0.0176 -0.0743,-0.0332 -0.11169,-0.0353 -0.0211,-10e-4 -0.0176,0.0159 -0.0176,0.0159 -0.0391,-0.01 -0.0781,-0.0138 -0.0958,-0.002 -0.0166,0.0111 -0.0201,0.0664 -0.008,0.0567 0.0294,-0.0235 0.055,-0.002 0.0726,0.0235 0.0156,0.0225 0.0145,0.0861 -0.008,0.16045 -0.0235,0.0781 -0.0878,0.1563 -0.0878,0.1563 0.0349,0 0.084,-0.0311 0.084,-0.0311 l -0.0118,0.0487 c 0.037,-0.0176 0.0664,-0.0449 0.0664,-0.0449 l 0.0353,0.037 c 0.0118,-0.0156 0.0353,-0.037 0.0353,-0.037 0,0 0.0294,0.0311 0.0743,0.0353 z"
       id="path4624" />
    <path
       style="color:#000000;fill:#c09300;stroke:none;stroke-width:0.00205575;-inkscape-stroke:none"
       d="m -894.38005,-950.92249 c -0.012,-5.9e-4 -0.0194,0.005 -0.0219,0.0108 -6.3e-4,10e-4 -5.4e-4,0.003 -7.8e-4,0.004 -0.0177,-0.004 -0.0353,-0.007 -0.0509,-0.008 -0.0174,-7.5e-4 -0.0325,9.9e-4 -0.0431,0.008 -0.006,0.004 -0.009,0.0103 -0.012,0.0175 -0.003,0.007 -0.004,0.0152 -0.005,0.0226 -7.6e-4,0.007 -7.2e-4,0.0141 7.6e-4,0.0194 7.4e-4,0.003 0.002,0.005 0.005,0.007 0.002,9.2e-4 0.004,10e-4 0.005,9.2e-4 0.002,-3.5e-4 0.003,-10e-4 0.004,-0.002 0.0135,-0.0108 0.0243,-0.0109 0.0351,-0.006 0.0108,0.005 0.0212,0.016 0.0297,0.0283 v 10e-6 h 10e-6 c 0.006,0.009 0.0104,0.0301 0.009,0.0575 -10e-4,0.0274 -0.007,0.0616 -0.018,0.0983 h -10e-6 c -0.023,0.0765 -0.0868,0.15443 -0.0868,0.15443 l -0.007,0.009 h 0.0114 c 0.0191,0 0.0404,-0.008 0.0574,-0.0161 0.007,-0.003 0.0135,-0.007 0.0185,-0.01 l -0.0115,0.0476 0.0102,-0.005 c 0.034,-0.0162 0.0583,-0.0376 0.0636,-0.0425 l 0.0362,0.038 0.004,-0.005 c 0.01,-0.0127 0.0261,-0.0282 0.031,-0.0329 0.009,0.008 0.0351,0.0297 0.0738,0.0332 l 7e-5,10e-6 h 1.1e-4 c 0.002,1.1e-4 0.004,-5.5e-4 0.005,-0.002 0.001,-10e-4 0.002,-0.003 0.002,-0.004 4.8e-4,-0.002 2.5e-4,-0.004 -3e-5,-0.006 -5.7e-4,-0.004 -0.002,-0.008 -0.003,-0.0117 -2.5e-4,-7.1e-4 -3.2e-4,-7.1e-4 -5.6e-4,-10e-4 0.01,0.004 0.0207,0.007 0.0314,0.008 0.017,0.003 0.0319,0.004 0.0319,0.004 l 0.003,-0.0103 c -0.007,-0.003 -0.0154,-0.0124 -0.0233,-0.0265 -0.008,-0.0142 -0.0154,-0.0329 -0.0217,-0.0542 -0.0125,-0.0425 -0.0202,-0.0949 -0.0182,-0.14097 v 0 l 10e-6,-2e-5 c 0.004,-0.0948 -0.0132,-0.13326 -0.0289,-0.1489 -0.0103,-0.0103 -0.0292,-0.0183 -0.0507,-0.0248 -0.0214,-0.006 -0.0452,-0.011 -0.0645,-0.012 h -2e-5 z m -5.6e-4,0.0107 c 0,0 1e-5,0 1e-5,0 0.0181,10e-4 0.0413,0.005 0.062,0.0116 0.0206,0.006 0.0389,0.0148 0.0462,0.0221 v 0 c 0.012,0.012 0.0295,0.0475 0.0257,0.14087 l 1e-5,-2e-5 c -0.002,0.0476 0.006,0.10086 0.0186,0.14448 0.006,0.0218 0.0141,0.0412 0.0226,0.0564 0.004,0.007 0.008,0.0136 0.0128,0.0188 -0.004,-5.3e-4 -0.008,-9.1e-4 -0.0127,-0.002 -0.0163,-0.003 -0.0345,-0.009 -0.0401,-0.0143 l -0.009,0.006 c 0,0 0.003,0.008 0.006,0.0155 10e-4,0.003 0.002,0.005 0.002,0.008 -0.0397,-0.006 -0.0657,-0.0327 -0.0657,-0.0327 l -0.004,-0.004 -0.004,0.004 c 0,0 -0.019,0.0174 -0.0319,0.0329 l -0.0348,-0.0365 -0.004,0.004 c 0,0 -0.0238,0.0214 -0.0546,0.0383 l 0.012,-0.0498 -0.0112,0.007 c 0,0 -0.012,0.008 -0.0283,0.0152 -0.0125,0.006 -0.0274,0.0115 -0.0409,0.0138 0.0166,-0.0215 0.0615,-0.0831 0.081,-0.14817 0.0114,-0.0376 0.0173,-0.0724 0.0185,-0.101 10e-4,-0.0286 -0.002,-0.0508 -0.0112,-0.064 -0.009,-0.0132 -0.0203,-0.0257 -0.0341,-0.032 -0.0131,-0.006 -0.0288,-0.005 -0.0441,0.006 -6.5e-4,-0.003 -9.3e-4,-0.008 -3.2e-4,-0.0145 6.7e-4,-0.007 0.002,-0.0139 0.004,-0.0199 0.002,-0.006 0.005,-0.0106 0.008,-0.0123 0.007,-0.005 0.0203,-0.007 0.0366,-0.006 0.0163,7.1e-4 0.0355,0.004 0.0548,0.009 l 0.008,0.002 -0.002,-0.008 c 0,0 -4.1e-4,-0.003 5.7e-4,-0.005 9.9e-4,-0.002 0.002,-0.005 0.0115,-0.004 z"
       id="path4626" />
    <path
       style="color:#000000;fill:#c09300;stroke:none;stroke-width:0.00205575;-inkscape-stroke:none"
       d="m -894.35856,-950.72752 c 0,0 -0.002,0.0365 -0.007,0.0788 -0.005,0.0423 -0.0138,0.0909 -0.0255,0.11245 l 0.01,0.005 c 0.0139,-0.0255 0.0217,-0.0737 0.0268,-0.11647 0.005,-0.0427 0.007,-0.0796 0.007,-0.0796 z m -0.0311,0.003 c 0,0 -0.005,0.036 -0.0144,0.0771 -0.009,0.0411 -0.0243,0.0874 -0.0409,0.10597 l 0.008,0.007 c 0.0204,-0.0226 0.0339,-0.0693 0.0435,-0.11094 0.01,-0.0417 0.0146,-0.0781 0.0146,-0.0781 z m 0.0587,0.003 c 0,0 0,0.0402 10e-4,0.0838 6.1e-4,0.0218 0.002,0.0445 0.003,0.0635 10e-4,0.019 0.003,0.0339 0.006,0.0423 l 0.0106,-0.004 c -0.002,-0.005 -0.004,-0.0206 -0.005,-0.0394 -10e-4,-0.0187 -0.002,-0.0413 -0.003,-0.063 -10e-4,-0.0434 -10e-4,-0.0835 -10e-4,-0.0835 z m 0.0461,0.008 -0.0112,6.6e-4 c 0,0 0.002,0.034 0.008,0.074 0.006,0.0401 0.0161,0.0862 0.0339,0.11238 l 0.009,-0.006 c -0.0154,-0.0226 -0.026,-0.0683 -0.0321,-0.10779 -0.006,-0.0395 -0.008,-0.073 -0.008,-0.073 z"
       id="path50" />
    <path
       style="color:#000000;fill:#c09300;stroke:none;stroke-width:0.00312206;-inkscape-stroke:none"
       d="m -894.41973,-950.79364 c -0.002,-0.0128 -0.005,-0.0228 -0.009,-0.0294 -0.0176,-0.0256 -0.0432,-0.047 -0.0726,-0.0235 0,0 0.01,-0.0311 0.0315,-0.0322 0.0166,-10e-4 0.0543,0.0124 0.0875,0.0692 0,0 -0.0246,-0.006 -0.0304,-3.5e-4 -0.0111,0.01 -0.007,0.0163 -0.007,0.0163 z m -0.085,-0.0913 c 0.002,-0.008 0.006,-0.0152 0.0111,-0.0183 0.0176,-0.0118 0.0567,-0.008 0.0958,0.002 0,0 -0.003,-0.0169 0.0176,-0.0159 0.0373,0.002 0.0941,0.0176 0.11168,0.0353 0.004,0.005 0.009,0.0111 0.0131,0.0211 h -6.9e-4 c -0.009,-0.0121 -0.0332,-0.0114 -0.0391,-0.0107 -0.009,10e-4 -0.0152,6.9e-4 -0.0277,0.004 -0.006,10e-4 -0.0149,0.003 -0.0197,0.007 -0.004,0.003 -0.007,0.0145 -0.0128,0.0145 -0.009,0 -0.009,-0.002 -0.0111,-0.005 -0.003,-0.004 -0.005,-0.009 -0.008,-0.009 -0.01,0.002 -0.0252,-0.006 -0.0449,-0.0214 -0.0197,-0.0156 -0.0273,-0.0194 -0.0529,-0.0176 -0.0252,0.002 -0.0332,0.0163 -0.0332,0.0163 z"
       id="path4614" />
    <path
       style="color:#000000;fill:#c09300;stroke:none;stroke-width:0.00205575;-inkscape-stroke:none"
       d="m -894.38018,-950.91863 c -0.011,-5.4e-4 -0.0162,0.004 -0.0182,0.009 -10e-4,0.003 -10e-4,0.005 -10e-4,0.007 -0.0189,-0.005 -0.0377,-0.008 -0.0541,-0.009 -0.017,-7.4e-4 -0.0315,10e-4 -0.0408,0.007 -0.005,0.004 -0.009,0.011 -0.0117,0.0192 l 3e-5,-1.4e-4 -6.9e-4,0.002 0.003,10e-4 c 0,0 0.002,-0.003 0.007,-0.007 0.005,-0.004 0.0129,-0.008 0.0253,-0.009 0.0254,-0.002 0.0322,0.002 0.0518,0.0173 0.01,0.008 0.0188,0.0137 0.0265,0.0174 0.008,0.004 0.0143,0.005 0.0197,0.004 l -1.1e-4,10e-6 c 3.2e-4,-3e-5 5.3e-4,3e-5 9.6e-4,3.9e-4 4.4e-4,3.5e-4 9.8e-4,10e-4 0.002,0.002 10e-4,0.002 0.002,0.004 0.004,0.006 l 2e-5,2e-5 1e-5,10e-6 c 10e-4,10e-4 10e-4,0.003 0.003,0.004 0.002,10e-4 0.004,0.002 0.009,0.002 0.002,0 0.004,-9.7e-4 0.005,-0.002 10e-4,-10e-4 0.002,-0.003 0.003,-0.005 0.002,-0.003 0.004,-0.007 0.005,-0.008 0.004,-0.003 0.0132,-0.005 0.0191,-0.007 h 10e-6 l 10e-6,-10e-6 c 0.0123,-0.003 0.018,-0.003 0.0275,-0.004 v 0 h 10e-6 c 0.003,-3.2e-4 0.0103,-6.7e-4 0.0181,5.5e-4 0.008,10e-4 0.0156,0.004 0.0195,0.01 l 4.7e-4,6.6e-4 h 0.004 l -9e-4,-0.002 c -0.004,-0.0102 -0.009,-0.0169 -0.0134,-0.0216 l -2e-5,-2e-5 -3e-5,-3e-5 c -0.009,-0.009 -0.0279,-0.0175 -0.0491,-0.0239 -0.0212,-0.006 -0.0448,-0.0108 -0.0636,-0.0119 h -10e-6 z m -1.8e-4,0.003 c 0.0185,10e-4 0.0419,0.005 0.0629,0.0117 0.0209,0.006 0.0394,0.0147 0.0478,0.0231 0.003,0.003 0.006,0.008 0.009,0.0141 -0.005,-0.003 -0.0105,-0.005 -0.0162,-0.006 -0.008,-10e-4 -0.0158,-9.3e-4 -0.0189,-5.7e-4 -0.009,10e-4 -0.0153,7e-4 -0.0278,0.004 -10e-6,0 -10e-6,0 -10e-6,0 -10e-6,0 -10e-6,0 -2e-5,0 -0.006,10e-4 -0.0149,0.003 -0.0203,0.007 l -2e-5,10e-6 -10e-6,2e-5 c -0.002,0.002 -0.004,0.006 -0.006,0.009 -9.7e-4,0.002 -0.002,0.003 -0.003,0.004 -10e-4,9.5e-4 -0.002,0.001 -0.003,0.001 -0.005,0 -0.006,-6.1e-4 -0.007,-0.001 -8.8e-4,-6.3e-4 -10e-4,-0.002 -0.003,-0.003 -0.001,-0.002 -0.003,-0.004 -0.004,-0.006 -6.5e-4,-9.6e-4 -10e-4,-0.002 -0.002,-0.003 -8.7e-4,-7e-4 -0.002,-10e-4 -0.003,-10e-4 l -3e-5,10e-6 -4e-5,10e-6 c -0.004,7.7e-4 -0.0104,-5.4e-4 -0.0178,-0.004 -0.007,-0.004 -0.0161,-0.009 -0.0259,-0.017 -0.0198,-0.0156 -0.0282,-0.0197 -0.054,-0.018 v 0 h -2e-5 c -0.0129,10e-4 -0.0215,0.005 -0.0269,0.009 -6.9e-4,5.2e-4 -9.1e-4,9e-4 -0.001,10e-4 0.002,-0.005 0.005,-0.01 0.008,-0.0115 l 10e-6,-10e-6 2e-5,-1e-5 c 0.008,-0.006 0.0222,-0.008 0.0389,-0.007 0.0167,7.3e-4 0.0362,0.004 0.0556,0.009 l 0.002,6.2e-4 -5e-4,-0.002 c 0,0 -7.3e-4,-0.004 8.1e-4,-0.007 0.002,-0.004 0.005,-0.007 0.0152,-0.007 z m -0.0899,0.0353 c -0.0115,5.5e-4 -0.0197,0.009 -0.025,0.0172 -0.005,0.008 -0.008,0.0161 -0.008,0.0161 l -0.002,0.005 0.004,-0.003 c 0.0143,-0.0115 0.0272,-0.0119 0.0391,-0.006 0.0118,0.005 0.0225,0.017 0.0313,0.0296 0.004,0.006 0.007,0.0146 0.008,0.0255 2.1e-4,0.002 9.5e-4,0.004 9.5e-4,0.004 l 0.003,-10e-4 c -1.8e-4,-0.001 -5.4e-4,-0.002 -7.4e-4,-0.003 -2e-5,-3.6e-4 -1.8e-4,-2.1e-4 -1.1e-4,-6.7e-4 2.1e-4,-0.002 0.002,-0.006 0.007,-0.0107 v 0 -10e-6 c 9.6e-4,-8.4e-4 0.003,-0.002 0.006,-0.002 0.003,-2.2e-4 0.007,-10e-6 0.01,3.5e-4 0.007,7.3e-4 0.0128,0.002 0.0128,0.002 l 0.004,7.9e-4 -0.002,-0.003 c -0.0334,-0.057 -0.0713,-0.071 -0.0889,-0.0699 z m 1.7e-4,0.003 c 0.0153,-9.6e-4 0.0516,0.0118 0.0842,0.0655 -0.002,-4.5e-4 -0.005,-10e-4 -0.01,-0.002 -0.003,-3.7e-4 -0.007,-5.9e-4 -0.0104,-3.7e-4 -0.003,2.1e-4 -0.006,7.8e-4 -0.008,0.003 -0.003,0.003 -0.005,0.005 -0.006,0.007 -0.002,-0.008 -0.004,-0.0152 -0.007,-0.0202 v 0 0 c -0.009,-0.0129 -0.0198,-0.0249 -0.0325,-0.0307 -0.0115,-0.005 -0.0246,-0.005 -0.0382,0.004 10e-4,-0.003 0.003,-0.007 0.006,-0.011 0.005,-0.008 0.0126,-0.0153 0.0225,-0.0158 h 10e-6 z"
       id="path4616" />
    <path
       id="path5234"
       style="stroke:none;stroke-width:0.00881941"
       class="C"
       d="m -894.34988,-950.87246 a 0.01037164,0.01037164 0 0 1 -0.0104,0.0104 0.01037164,0.01037164 0 0 1 -0.0104,-0.0104 0.01037164,0.01037164 0 0 1 0.0104,-0.0104 0.01037164,0.01037164 0 0 1 0.0104,0.0104 z" />
    <path
       style="color:#000000;fill:#ffffff;stroke:none;stroke-width:0.0101431;-inkscape-stroke:none"
       d="m -894.35005,-949.84449 c 0.28788,-0.22142 0.2632,-0.54577 0.2632,-0.54577 -0.008,0.002 -0.0148,0.002 -0.0224,0.002 -0.0604,0 -0.20442,-0.0345 -0.23802,-0.0784 -0.036,0.0397 -0.18318,0.0784 -0.24319,0.0784 -0.008,0 -0.0152,-7.5e-4 -0.0224,-0.002 0,0 -0.0251,0.32434 0.26282,0.54577 z"
       id="path4590" />
    <path
       style="color:#000000;fill:#c09300;stroke:none;stroke-width:0.00205575;-inkscape-stroke:none"
       d="m -894.34695,-950.47433 -0.004,0.005 c -0.0162,0.0179 -0.0618,0.0381 -0.11028,0.0526 -0.0484,0.0145 -0.10023,0.0241 -0.12914,0.0241 -0.007,0 -0.0145,-7.3e-4 -0.0214,-0.002 l -0.006,-10e-4 -4.4e-4,0.006 c 0,0 -0.0251,0.32721 0.26479,0.55019 l 10e-4,10e-4 h 0.003 l 10e-4,-10e-4 c 0.2899,-0.22296 0.26517,-0.55018 0.26517,-0.55018 l -4.4e-4,-0.006 -0.006,10e-4 c -0.007,10e-4 -0.0142,0.002 -0.0214,0.002 -0.0292,0 -0.0803,-0.009 -0.12761,-0.0226 -0.0474,-0.014 -0.0913,-0.0342 -0.10638,-0.0539 z m -5.9e-4,0.0151 c 0.0203,0.0222 0.0624,0.0399 0.10779,0.0534 0.0482,0.0142 0.0993,0.023 0.13049,0.023 0.006,0 0.0117,-5.9e-4 0.0175,-10e-4 0.002,0.0284 0.0105,0.3242 -0.25834,0.5334 -0.26886,-0.2092 -0.25951,-0.50498 -0.25797,-0.53339 0.006,8.9e-4 0.0116,10e-4 0.0176,10e-4 0.0311,0 0.0829,-0.01 0.13205,-0.0245 0.0463,-0.0139 0.0895,-0.0316 0.11087,-0.0518 z"
       id="path4592" />
    <path
       style="color:#000000;fill:#c09300;stroke:none;stroke-width:0.00205575;-inkscape-stroke:none"
       d="m -894.34798,-950.44165 -0.003,0.002 c -0.0248,0.0188 -0.0697,0.0364 -0.1149,0.049 -0.0452,0.0126 -0.0909,0.0204 -0.11705,0.0204 -0.002,0 -0.004,-2.8e-4 -0.007,-7e-4 l -0.005,-8.6e-4 -4e-5,0.005 c -1.4e-4,0.0124 5.2e-4,0.0252 10e-4,0.0369 0.003,0.0435 0.0105,0.0872 0.0221,0.12914 v 1e-5 c 0.0365,0.13216 0.11112,0.24458 0.21809,0.32977 l 0.003,0.002 0.003,-0.002 c 0.10706,-0.0853 0.18182,-0.19779 0.21835,-0.33005 0.0116,-0.042 0.0192,-0.0856 0.0221,-0.12913 v -2e-5 -2e-5 c 6.7e-4,-0.0121 0.001,-0.0269 0.001,-0.036 l -2e-5,-0.004 -0.004,1.4e-4 -0.007,2.1e-4 c -0.0267,0 -0.072,-0.007 -0.11646,-0.0192 -0.0445,-0.0122 -0.0882,-0.0298 -0.11172,-0.05 z m -2.8e-4,0.0102 c 0.0258,0.021 0.0687,0.0378 0.11234,0.0498 0.045,0.0124 0.0906,0.0195 0.11864,0.0195 h 7e-5 l 0.003,-1.1e-4 c -1e-4,0.009 -5.5e-4,0.0207 -0.001,0.0314 0,0 0,0 0,0 -0.003,0.0429 -0.0104,0.086 -0.0219,0.12748 -0.0358,0.12959 -0.1087,0.23972 -0.21308,0.32371 -0.10429,-0.0839 -0.1771,-0.19394 -0.21282,-0.32344 -0.0114,-0.0415 -0.019,-0.0846 -0.0218,-0.12753 -6.7e-4,-0.0101 -0.001,-0.0211 -0.001,-0.0318 0.001,10e-5 0.002,3.2e-4 0.003,3.2e-4 0.0277,0 0.0735,-0.008 0.11922,-0.0207 0.0444,-0.0124 0.0882,-0.0292 0.11503,-0.0486 z"
       id="path60" />
    <path
       id="path5237"
       style="fill:#c09300;fill-rule:evenodd;stroke:none;stroke-width:0.0329786"
       d="m -894.43038,-950.39486 c -0.0544,0.0183 -0.11643,0.0303 -0.14962,0.0303 a 0.04023376,0.04023376 0 0 1 -0.007,-7.6e-4 l 10e-4,0.0362 c 0.003,0.0428 0.0103,0.0857 0.0217,0.12697 0.0258,0.0937 0.0714,0.17695 0.1341,0.24766 z" />
    <path
       id="path5240"
       style="fill:#c09300;fill-opacity:1;stroke:none;stroke-width:0.0333334"
       d="m -894.26935,-950.39386 v 0.43894 c 0.0625,-0.0707 0.10809,-0.15395 0.13393,-0.2475 a 0.63846357,0.63846357 0 0 0 0.0218,-0.12697 0.70343116,0.70343116 0 0 0 10e-4,-0.0353 l -0.007,2.2e-4 c -0.034,0 -0.0961,-0.0109 -0.14963,-0.0294 z m 0.15697,0.0291 h 4e-5 l -4e-5,-3e-5 a 0.70343116,0.70343116 0 0 1 0,3e-5 z" />
  </g>
</svg>
