<?xml version="1.0"?>
<svg width="30" height="20" xmlns="http://www.w3.org/2000/svg" xmlns:xlink="http://www.w3.org/1999/xlink"><symbol id="hin" width="30" height="20" fill="#07038D" viewBox="-45 -30 90 60"><path d="m-45-30h90v60h-90z" fill="#FFF"/><path d="m-45-30h90v20h-90z" fill="#FF6820"/><path d="m-45 10h90v20h-90z" fill="#046A38"/><circle r="9.25"/><circle r="8" fill="#FFF"/><circle r="1.6"/><g id="d"><g id="c"><g id="b"><g id="a"><path d="m0-8 .3 4.81409L0-.80235l-.3-2.38356z"/><circle transform="rotate(7.5)" cy="-8" r=".35"/></g><use transform="scale(-1)" xlink:href="#a"/></g><use transform="rotate(15)" xlink:href="#b"/></g><use transform="rotate(30)" xlink:href="#c"/></g><use transform="rotate(60)" xlink:href="#d"/><use transform="rotate(120)" xlink:href="#d"/></symbol><use x="-5.5" href="#hin"/><path d="M19 0h11v20H19z" fill="#fff"/><path transform="matrix(0 -.1.1 0 0 0)" d="m-151.6 264.9 3.9 14.2h13.9l-21.9-68.1h-12l-22.3 68.1h13.9l4-14.2zm-17.3-11.2 7.2-25.1 7 25.1zm81.66 7.6q0 1.9-.75 3.4t-2.16 2.6q-1.4 1.1-3.46 1.7-2.01.6-4.63.6-2.96 0-5.46-.7-2.4-.6-4.1-2-1.8-1.4-2.8-3.6t-1.1-5.3h-12.9q0 5.3 2 9.2 2.1 3.9 5.6 6.8 3.7 3 8.6 4.5 5.1 1.5 10.16 1.5 5.19 0 9.59-1.2 4.4-1.3 7.58-3.7 3.19-2.4 4.97-5.9 1.82-3.5 1.82-8 0-5.2-2.39-9.1-2.38-4-6.41-7-2.67-1.8-5.85-3.2t-6.69-2.4q-3.28-.9-5.88-1.9-2.6-1.1-4.4-2.3-1.8-1.3-2.8-2.8t-1-3.5q0-1.8.7-3.3.8-1.6 2.2-2.8 1.4-1.1 3.4-1.7 2.1-.7 4.69-.7 2.85 0 4.96.8 2.15.8 3.6 2.1 1.41 1.4 2.11 3.3.75 2 .84 4.3h12.83q0-4.6-1.78-8.5-1.78-3.8-4.96-6.6-3.19-2.8-7.63-4.3-4.4-1.6-9.74-1.6-5.12 0-9.52 1.4-4.4 1.3-7.7 3.8-3.2 2.5-5 6t-1.8 7.8q0 3.7 1.3 6.9 1.4 3.2 4.1 5.8 2.8 2.6 7 4.8 4.3 2.2 10 3.8 3.63 1 6.07 2.1 2.48 1.2 4.02 2.5 1.5 1.4 2.11 3 .66 1.6.66 3.4zm43.28-50.3h-16.33v68.1h12.07v-20.2l-.56-30.6 8.01 28.4h6.5l8.94-29.6-.56 31.8v20.2h12.08v-68.1h-16.34l-7.35 25.6z"/></svg>
