<svg width="30" height="20" xmlns="http://www.w3.org/2000/svg"><symbol id="hin" width="30" height="20" fill="#07038D" viewBox="-45 -30 90 60"><path d="m-45-30h90v60h-90z" fill="#FFF"/><path d="m-45-30h90v20h-90z" fill="#FF6820"/><path d="m-45 10h90v20h-90z" fill="#046A38"/><circle r="9.25"/><circle r="8" fill="#FFF"/><circle r="1.6"/><g id="d"><g id="c"><g id="b"><g id="a"><path d="m0-8 .3 4.81409L0-.80235l-.3-2.38356z"/><circle transform="rotate(7.5)" cy="-8" r=".35"/></g><use transform="scale(-1)" href="#a"/></g><use transform="rotate(15)" href="#b"/></g><use transform="rotate(30)" href="#c"/></g><use transform="rotate(60)" href="#d"/><use transform="rotate(120)" href="#d"/></symbol><use x="-5.5" href="#hin"/><path d="M19 0h11v20H19z" fill="#fff"/><path transform="matrix(0 -.2.2 0 0 0)" d="m-75.82 132.4 1.99 7.2h6.92l-10.95-34.1h-5.97l-11.16 34.1h6.93l2.01-7.2zm-8.62-5.5 3.59-12.6 3.48 12.6zm40.82 3.8q0 .9-.38 1.7-.37.7-1.07 1.2-.71.6-1.74.9-1 .3-2.31.3-1.48 0-2.72-.3-1.21-.4-2.08-1.1-.89-.7-1.38-1.8t-.54-2.6h-6.46q0 2.6 1.01 4.6 1.03 2 2.78 3.4 1.85 1.5 4.33 2.3 2.51.7 5.06.7 2.6 0 4.8-.6t3.79-1.9q1.59-1.1 2.48-2.9.91-1.7.91-4 0-2.6-1.19-4.6-1.2-2-3.21-3.5-1.33-.9-2.92-1.6-1.6-.7-3.35-1.2-1.64-.4-2.95-.9-1.29-.5-2.2-1.2-.91-.6-1.4-1.3-.47-.8-.47-1.8 0-.9.35-1.7.37-.8 1.07-1.3.71-.6 1.71-.9 1.03-.3 2.34-.3 1.43 0 2.48.4 1.08.3 1.81 1 .7.7 1.05 1.7.37.9.42 2.1h6.41q0-2.3-.89-4.2-.88-2-2.48-3.4-1.59-1.3-3.81-2.1-2.2-.8-4.87-.8-2.57 0-4.77.7t-3.82 1.9q-1.61 1.2-2.53 3-.91 1.7-.91 3.9 0 1.9.68 3.5.7 1.6 2.06 2.9t3.49 2.4q2.15 1.1 4.98 1.8 1.83.5 3.04 1.1 1.24.6 2.02 1.3.75.7 1.05 1.5.33.8.33 1.7zm21.64-25.2h-8.17v34.1h6.04v-10.1l-.28-15.3 4 14.1h3.26l4.47-14.8-.28 16v10.1h6.035v-34.1h-8.165l-3.68 12.8z"/></svg>
