<?xml version="1.0" encoding="UTF-8" standalone="no"?>
<!-- Creator: CorelDRAW Home & Student X8 -->

<svg
   xml:space="preserve"
   width="7.9375mm"
   height="5.291667mm"
   version="1.1"
   style="clip-rule:evenodd;fill-rule:evenodd;image-rendering:optimizeQuality;shape-rendering:geometricPrecision;text-rendering:geometricPrecision"
   viewBox="0 0 793.75 529.1667"
   id="svg3"
   sodipodi:docname="Asturias.svg"
   inkscape:version="1.4 (86a8ad7, 2024-10-11)"
   xmlns:inkscape="http://www.inkscape.org/namespaces/inkscape"
   xmlns:sodipodi="http://sodipodi.sourceforge.net/DTD/sodipodi-0.dtd"
   xmlns="http://www.w3.org/2000/svg"
   xmlns:svg="http://www.w3.org/2000/svg"><sodipodi:namedview
   id="namedview3"
   pagecolor="#ffffff"
   bordercolor="#000000"
   borderopacity="0.25"
   inkscape:showpageshadow="2"
   inkscape:pageopacity="0.0"
   inkscape:pagecheckerboard="0"
   inkscape:deskcolor="#d1d1d1"
   inkscape:document-units="mm"
   inkscape:zoom="1.4234583"
   inkscape:cx="425.37248"
   inkscape:cy="283.46457"
   inkscape:window-width="1920"
   inkscape:window-height="1009"
   inkscape:window-x="-8"
   inkscape:window-y="-8"
   inkscape:window-maximized="1"
   inkscape:current-layer="Layer_x0020_1" />
 <defs
   id="defs1">
  <style
   type="text/css"
   id="style1">
   <![CDATA[
    .fil0 {fill:#4556A0}
    .fil1 {fill:#F7D513}
   ]]>
  </style>
 </defs>
 <g
   id="Layer_x0020_1"
   inkscape:label="Layer 1"
   inkscape:groupmode="layer">
  <metadata
   id="CorelCorpID_0Corel-Layer" />
  <rect
   class="fil0"
   width="793.75"
   height="529.16669"
   id="rect1"
   x="0"
   y="0"
   style="stroke-width:0.0352778" />
  <path
   class="fil1"
   d="m 189.23,274.49639 1.86972,4.19806 -13.15861,23.63611 -3.95111,4.51555 h 12.91167 l -2.11667,-5.04472 2.50472,-4.51555 8.96056,7.9375 8.85472,-7.9375 2.50472,4.51555 -2.11666,5.04472 h 12.91166 l -3.88055,-4.51555 -13.22917,-23.63611 1.94028,-4.19806 z m 7.02028,6.84389 5.57389,10.12472 -5.57389,5.04473 -5.67972,-5.04473 z"
   id="path1"
   style="stroke-width:0.0352778" />
  <path
   class="fil1"
   d="m 240.41806,262.00806 c 2.25778,4.1275 5.43278,7.62 9.24278,10.12472 l -1.51695,140.05278 c -1.69333,0.3175 -13.15861,11.99444 -13.6525,13.97 -0.21167,0.9525 -0.35278,1.97556 -0.35278,2.92806 0,6.56166 5.08,11.88861 11.39473,11.88861 3.28083,0 6.49111,-1.51695 8.64305,-4.1275 2.8575,2.68111 6.56167,4.1275 10.37167,4.1275 3.84528,0 7.54944,-1.44639 10.37167,-4.1275 2.18722,2.61055 5.36222,4.1275 8.64305,4.1275 6.31472,0 11.39472,-5.32695 11.39472,-11.88861 0,-0.9525 -0.0705,-1.97556 -0.35277,-2.89278 -0.28223,-1.19945 -12.31195,-13.75834 -13.6525,-14.00528 l -1.48167,-140.05278 c 3.84528,-2.57528 7.02028,-6.06778 9.27805,-10.12472 l 77.99917,-0.67028 c 0.56445,4.83306 10.26583,17.74472 15.06361,17.74472 5.08,0 9.2075,-4.37444 9.2075,-9.63083 0,-3.10445 -1.37583,-5.96195 -3.81,-7.76111 -2.11666,-1.62278 -1.02305,-5.11528 1.5875,-5.11528 0.9525,0 1.79917,0.49389 2.32834,1.34056 0.81139,0.21166 1.62277,0.3175 2.46944,0.3175 3.70417,0 6.985,-2.25778 8.46667,-5.75028 0.635,-1.55222 0.98778,-3.21028 0.98778,-4.86834 0,-1.65805 -0.35278,-3.28083 -0.98778,-4.83305 -1.48167,-3.4925 -4.7625,-5.78556 -8.46667,-5.78556 -0.84667,0 -1.65805,0.14111 -2.46944,0.35278 -1.44639,2.43417 -4.97417,1.34056 -4.97417,-1.48167 0,-0.88194 0.38806,-1.72861 1.05833,-2.25777 2.43417,-1.83445 3.81,-4.72723 3.81,-7.79639 0,-5.29167 -4.1275,-9.59556 -9.2075,-9.59556 -4.7625,0 -14.49916,12.91167 -15.06361,17.70945 l -77.99917,-0.67028 c -2.43416,-4.51556 -5.99722,-8.255 -10.30111,-10.83028 l -0.74083,-96.41417 c 4.37444,-0.56444 16.89806,-11.18305 16.89806,-15.73389 0,-5.25638 -4.09223,-9.59555 -9.17223,-9.59555 -2.92805,0 -5.715,1.48167 -7.40833,3.95111 -1.55222,2.2225 -4.90361,1.09361 -4.90361,-1.65806 0,-0.9525 0.49389,-1.86972 1.23472,-2.36361 0.28222,-0.846663 0.38806,-1.763886 0.38806,-2.610552 0,-3.81 -2.18723,-7.3025 -5.50334,-8.819445 -1.48166,-0.705555 -3.10444,-1.023055 -4.69194,-1.023055 -1.5875,0 -3.175,0.3175 -4.62139,1.023055 -3.38667,1.516945 -5.53861,5.009445 -5.53861,8.819445 0,0.917222 0.10583,1.763889 0.35278,2.610552 0.77611,0.49389 1.27,1.41111 1.27,2.36361 0,1.55223 -1.23473,2.8575 -2.71639,2.8575 -0.88195,0 -1.62278,-0.42333 -2.15195,-1.19944 -1.76389,-2.46944 -4.51555,-3.95111 -7.44361,-3.95111 -5.08,0 -9.2075,4.33917 -9.2075,9.59555 0,5.00945 12.3825,15.20473 16.96861,15.73389 l -0.77611,96.41417 c -4.26861,2.57528 -7.79639,6.27945 -10.26583,10.795 l -78.06972,0.67028 c -0.52917,-4.51556 -10.72445,-17.70945 -15.06362,-17.70945 -5.08,0 -9.2075,4.30389 -9.2075,9.63084 0,3.03389 1.44639,5.96194 3.81,7.76111 0.67028,0.52917 1.09361,1.41111 1.09361,2.25778 0,1.55222 -1.19944,2.8575 -2.68111,2.8575 -0.91722,0 -1.79916,-0.49389 -2.25777,-1.34056 -0.81139,-0.21167 -1.69334,-0.38805 -2.50473,-0.38805 -3.66889,0 -7.02027,2.32833 -8.43139,5.78555 -0.67027,1.51695 -0.98777,3.175 -0.98777,4.83306 0,1.72861 0.3175,3.35139 0.98777,4.90361 1.41112,3.4925 4.7625,5.75028 8.43139,5.75028 0.81139,0 1.69334,-0.10584 2.50473,-0.38806 1.44638,-2.36361 4.93888,-1.30528 4.93888,1.51694 0,0.88195 -0.42333,1.76389 -1.09361,2.29306 -2.36361,1.76389 -3.81,4.65667 -3.81,7.79639 0,5.25639 4.1275,9.59556 9.2075,9.59556 4.30389,0 14.53445,-13.22917 15.06362,-17.70945 l 78.06972,0.635 v 0 z"
   id="path2"
   style="stroke-width:0.0352778" />
  <polygon
   class="fil1"
   points="5491,7780 5491,7780 5491,7417 5633,7418 5633,7780 "
   id="polygon2"
   transform="scale(0.03527778)" />
  <path
   class="fil1"
   d="m 327.3425,276.82473 c 1.37584,1.05833 2.25778,2.68111 2.39889,4.51555 0.10584,0.70556 0.17639,1.37583 0.17639,2.15195 0,3.38666 -0.81139,6.70277 -2.36361,9.66611 -2.36361,4.65666 -8.78417,4.33916 -10.75972,-0.49389 -0.81139,-2.08139 -1.23472,-4.33917 -1.16417,-6.59695 0.21167,-4.93889 2.92806,-9.45444 7.19667,-11.60639 h -11.50056 c 0.59972,0.59973 0.91722,1.34056 0.91722,2.18723 0,0.28222 0,0.56444 -0.10583,0.81139 -0.91722,3.45722 -1.37583,7.05555 -1.37583,10.65388 0,1.76389 0.0705,3.45723 0.35278,5.25639 0.70555,5.89139 5.57388,10.33639 11.35944,10.33639 4.51556,0 8.60778,-2.78694 10.40694,-7.09083 1.86973,4.37444 5.96195,7.09083 10.4775,7.09083 5.78556,0 10.65389,-4.445 11.35945,-10.40694 0.21167,-1.76389 0.38805,-3.4925 0.38805,-5.18584 0,-3.59833 -0.52916,-7.16138 -1.44638,-10.65388 -0.24695,-1.05834 0.0353,-2.25778 0.81138,-2.99862 h -11.46527 c 4.26861,2.18723 6.985,6.6675 7.12611,11.60639 v 0.52917 c 0,2.04611 -0.35278,4.1275 -1.12889,6.06778 -1.94028,4.83305 -8.36083,5.15055 -10.72445,0.52916 -1.905,-3.63361 -2.68111,-7.79638 -2.25777,-11.92388 0.21166,-1.76389 1.05833,-3.38667 2.46944,-4.445 z"
   id="path3"
   style="stroke-width:0.0352778" />
  <polygon
   class="fil1"
   points="9365,7847 9365,7847 9365,7418 9510,7416 9510,7847 "
   id="polygon3"
   transform="scale(0.03527778)" />
 </g>
</svg>
