<svg width="30" height="20" xmlns="http://www.w3.org/2000/svg"><symbol id="Wiphala" width="20" height="20" viewBox="0 0 7 7"><path d="M0 0h7v7H0" fill="#fff"/><path d="M0 2v2l3 3h2m0-7H3l4 4V2" fill="#742c64"/><path d="M1 0h2l4 4v2M1 5H0v2h3" fill="#eb7711"/><path d="M1 0h1v2h2v2h2v2h1V5H5V3H3V1H1M0 6h1v1H0" fill="#fcdd09"/><path d="M0 1v1l5 5h1V6H5V5H4V4H3V3H2V2H1V1m4-1h2v2" fill="#078930"/><path d="M0 2h1v2h2v2h2v1H4V5H2V3H0m5-3h1v2h1V1H5" fill="#0f47af"/><path d="M3 0h1v2h2v2h1V3H5V1H3M0 4h1v2h2v1H2V5H0" fill="#da121a"/></symbol><use href="#Wiphala"/><path d="M20 0h10v20H20z" fill="#fff"/><path transform="matrix(0 -.2.2 0 0 0)" d="m-75.82 134.9 1.99 7.2h6.92l-10.95-34.1h-5.97l-11.16 34.1h6.93l2.01-7.2zm-8.62-5.5 3.59-12.6 3.48 12.6zm34.76-5.7-6.72-15.7h-7.21l10.56 22v12.1h6.55v-11.8l10.71-22.3h-7.23zm27.7-15.7h-8.17v34.1h6.04v-10.1l-.28-15.3 4 14.1h3.26l4.47-14.8-.28 16v10.1h6.035v-34.1h-8.165l-3.68 12.8z"/></svg>
