<svg width="30" height="20" xmlns="http://www.w3.org/2000/svg"><symbol id="Wiphala" width="20" height="20" viewBox="0 0 7 7"><path d="M0 0h7v7H0" fill="#fff"/><path d="M0 2v2l3 3h2m0-7H3l4 4V2" fill="#742c64"/><path d="M1 0h2l4 4v2M1 5H0v2h3" fill="#eb7711"/><path d="M1 0h1v2h2v2h2v2h1V5H5V3H3V1H1M0 6h1v1H0" fill="#fcdd09"/><path d="M0 1v1l5 5h1V6H5V5H4V4H3V3H2V2H1V1m4-1h2v2" fill="#078930"/><path d="M0 2h1v2h2v2h2v1H4V5H2V3H0m5-3h1v2h1V1H5" fill="#0f47af"/><path d="M3 0h1v2h2v2h1V3H5V1H3M0 4h1v2h2v1H2V5H0" fill="#da121a"/></symbol><use href="#Wiphala"/><path d="M20 0h10v20H20z" fill="#fff"/><symbol id="A"><path d="m7.62 6.54.409 1.46h1.42l-2.25-7h-1.23l-2.29 7h1.42l.413-1.46zm-1.77-1.15.736-2.58.716 2.58z"/></symbol><symbol id="Y"><path d="m6.56 4.23-1.38-3.23h-1.48l2.17 4.52v2.48h1.35v-2.42l2.21-4.58h-1.49z"/></symbol><symbol id="M"><path d="m5.83 1h-1.68v7h1.24v-2.07l-.0577-3.14.822 2.91h.668l.918-3.04-.0577 3.27v2.07h1.24v-7h-1.68l-.755 2.63z"/></symbol><g transform="rotate(-90 15.25 -5.25)"><use x="-13" href="#A"/><use x="-6.5" href="#Y"/><use href="#M"/></g></svg>
