<?xml version="1.0" encoding="UTF-8" standalone="no"?>
<!-- Created with Inkscape (http://www.inkscape.org/) -->

<svg
   width="7.9375mm"
   height="5.291667mm"
   viewBox="0 0 7.9375 5.291667"
   version="1.1"
   id="svg1"
   inkscape:version="1.4 (86a8ad7, 2024-10-11)"
   sodipodi:docname="aze.svg"
   xmlns:inkscape="http://www.inkscape.org/namespaces/inkscape"
   xmlns:sodipodi="http://sodipodi.sourceforge.net/DTD/sodipodi-0.dtd"
   xmlns="http://www.w3.org/2000/svg"
   xmlns:svg="http://www.w3.org/2000/svg">
  <sodipodi:namedview
     id="namedview1"
     pagecolor="#ffffff"
     bordercolor="#000000"
     borderopacity="0.25"
     inkscape:showpageshadow="2"
     inkscape:pageopacity="0.0"
     inkscape:pagecheckerboard="0"
     inkscape:deskcolor="#d1d1d1"
     inkscape:document-units="mm"
     inkscape:zoom="11.502694"
     inkscape:cx="-5.1727015"
     inkscape:cy="11.08436"
     inkscape:window-width="1920"
     inkscape:window-height="1009"
     inkscape:window-x="-8"
     inkscape:window-y="-8"
     inkscape:window-maximized="1"
     inkscape:current-layer="layer1" />
  <defs
     id="defs1" />
  <g
     inkscape:label="Layer 1"
     inkscape:groupmode="layer"
     id="layer1"
     transform="translate(96.30833,72.231337)">
    <path
       id="path137"
       style="fill:#3f9c35;stroke-width:0.00881944"
       d="m -96.30833,-72.231337 h 7.9375 v 5.291667 h -7.9375 z" />
    <path
       id="path140"
       style="fill:#ed2939;stroke-width:0.00881944"
       d="m -96.30833,-72.231337 h 7.9375 v 3.527778 h -7.9375 z" />
    <path
       id="path143"
       style="fill:#00b9e4;stroke-width:0.00881944"
       d="m -96.30833,-72.231337 h 7.9375 v 1.763889 h -7.9375 z" />
    <path
       id="path146"
       style="fill:#ffffff;stroke-width:0.00881944"
       d="m -91.722219,-69.585504 a 0.79375,0.79375 0 0 1 -0.79375,0.79375 0.79375,0.79375 0 0 1 -0.79375,-0.79375 0.79375,0.79375 0 0 1 0.79375,-0.79375 0.79375,0.79375 0 0 1 0.79375,0.79375 z" />
    <path
       id="path149"
       style="fill:#ed2939;stroke-width:0.00881944"
       d="m -91.678122,-69.585504 a 0.66145833,0.66145833 0 0 1 -0.661458,0.661459 0.66145833,0.66145833 0 0 1 -0.661458,-0.661459 0.66145833,0.66145833 0 0 1 0.661458,-0.661458 0.66145833,0.66145833 0 0 1 0.661458,0.661458 z" />
    <path
       d="m -91.634025,-70.026476 0.0844,0.237243 0.227365,-0.108038 -0.108038,0.227365 0.237243,0.0844 -0.237243,0.0844 0.108038,0.227542 -0.227365,-0.108215 -0.0844,0.237244 -0.0844,-0.237244 -0.227365,0.108039 0.108038,-0.227366 -0.237243,-0.0844 0.237243,-0.0844 -0.108038,-0.227541 0.227365,0.108214 z"
       fill="#ffffff"
       id="path134"
       style="stroke-width:0.00881944" />
  </g>
</svg>
