<svg xmlns="http://www.w3.org/2000/svg"><path d="m4.17 8h2.55q.58 0 1.04-.13.46-.13.784-.389t.495-.644q.17-.38.173-.889 0-.26-.0721-.51-.067-.25-.212-.462-.14-.2-.346-.346-.2-.15-.548-.245.18-.072.322-.168.15-.096.264-.212.21-.21.317-.49.11-.28.115-.601 0-.49-.183-.851-.18-.36-.51-.596-.33-.24-.803-.351-.47-.12-1.04-.115h-2.35zm1.36-3.09h1.26q.28 0 .49.077.21.072.337.207.13.13.188.317.062.19.062.423 0 .23-.082.409-.076.18-.23.312-.14.12-.351.183-.21.067-.471.0674h-1.2zm0-.976v-1.84h1q.33 0 .567.072.25.067.39.216.11.11.163.264.058.16.058.37 0 .2-.067.361-.063.16-.183.269-.14.14-.38.212-.24.067-.543.0721z"/></svg>
