<?xml version="1.0" encoding="UTF-8" standalone="no"?>
<!-- Creator: CorelDRAW Home & Student X8 -->

<svg
   xml:space="preserve"
   width="7.9375mm"
   height="5.2916665mm"
   version="1.1"
   style="clip-rule:evenodd;fill-rule:evenodd;image-rendering:optimizeQuality;shape-rendering:geometricPrecision;text-rendering:geometricPrecision"
   viewBox="0 0 793.75 529.16665"
   id="svg10"
   sodipodi:docname="Başkurdistan.svg"
   inkscape:version="1.4 (86a8ad7, 2024-10-11)"
   xmlns:inkscape="http://www.inkscape.org/namespaces/inkscape"
   xmlns:sodipodi="http://sodipodi.sourceforge.net/DTD/sodipodi-0.dtd"
   xmlns="http://www.w3.org/2000/svg"
   xmlns:svg="http://www.w3.org/2000/svg"><sodipodi:namedview
   id="namedview10"
   pagecolor="#ffffff"
   bordercolor="#000000"
   borderopacity="0.25"
   inkscape:showpageshadow="2"
   inkscape:pageopacity="0.0"
   inkscape:pagecheckerboard="0"
   inkscape:deskcolor="#d1d1d1"
   inkscape:document-units="mm"
   inkscape:zoom="1.4234583"
   inkscape:cx="425.37248"
   inkscape:cy="283.46457"
   inkscape:window-width="1920"
   inkscape:window-height="1009"
   inkscape:window-x="-8"
   inkscape:window-y="-8"
   inkscape:window-maximized="1"
   inkscape:current-layer="Layer_x0020_1" />
 <defs
   id="defs1">
  <style
   type="text/css"
   id="style1">
   <![CDATA[
    .fil2 {fill:#357B32}
    .fil0 {fill:#4760A9}
    .fil1 {fill:#FEFEFE}
    .fil4 {fill:#FFD90C}
    .fil3 {fill:#FFD90C;fill-rule:nonzero}
   ]]>
  </style>
 </defs>
 <g
   id="Layer_x0020_1"
   inkscape:label="Layer 1"
   inkscape:groupmode="layer">
  <metadata
   id="CorelCorpID_0Corel-Layer" />
  <rect
   class="fil0"
   width="793.75"
   height="176.38889"
   id="rect1"
   x="0"
   y="0"
   style="stroke-width:0.0352778" />
  <rect
   class="fil1"
   y="176.38889"
   width="793.75"
   height="176.38889"
   id="rect2"
   x="0"
   style="stroke-width:0.0352778" />
  <rect
   class="fil2"
   y="352.77777"
   width="793.75"
   height="176.38889"
   id="rect3"
   x="0"
   style="stroke-width:0.0352778" />
  <path
   class="fil3"
   d="m 458.61112,264.58334 c 0,-17.03917 -6.91445,-32.49084 -18.0975,-43.63862 -11.14778,-11.18305 -26.59945,-18.0975 -43.63862,-18.0975 -17.03916,0 -32.49083,6.91445 -43.63861,18.0975 -11.18305,11.14778 -18.0975,26.59945 -18.0975,43.63862 0,17.03916 6.91445,32.49083 18.0975,43.63861 11.14778,11.18305 26.59945,18.0975 43.63861,18.0975 17.03917,0 32.49084,-6.91445 43.63862,-18.0975 11.18305,-11.14778 18.0975,-26.59945 18.0975,-43.63861 z m -11.85334,-49.88278 c 12.77056,12.77055 20.67278,30.40944 20.67278,49.88278 0,19.47333 -7.90222,37.11222 -20.67278,49.88277 -12.77055,12.77056 -30.40944,20.67278 -49.88278,20.67278 -19.47333,0 -37.11222,-7.90222 -49.88277,-20.67278 -12.77056,-12.77055 -20.67278,-30.40944 -20.67278,-49.88277 0,-19.47334 7.90222,-37.11223 20.67278,-49.88278 12.77055,-12.77056 30.40944,-20.67278 49.88277,-20.67278 19.47334,0 37.11223,7.90222 49.88278,20.67278 z"
   id="path3"
   style="stroke-width:0.0352778" />
  <circle
   class="fil4"
   cx="396.875"
   cy="264.58334"
   r="14.111112"
   id="circle3"
   style="stroke-width:0.0352778" />
  <polygon
   class="fil3"
   points="11250,7550 11250,7450 12500,7450 12500,7550 "
   id="polygon3"
   transform="scale(0.03527778)" />
  <circle
   class="fil4"
   cx="440.97223"
   cy="264.58334"
   r="8.8194447"
   id="circle4"
   style="stroke-width:0.0352778" />
  <polygon
   class="fil3"
   points="11275,7543 11225,7457 12308,6832 12358,6918 "
   id="polygon4"
   transform="scale(0.03527778)" />
  <circle
   class="fil4"
   transform="rotate(-30.000055)"
   r="8.7999868"
   id="circle5"
   cx="255.50801"
   cy="427.57309"
   style="stroke-width:0.0666666" />
  <polygon
   class="fil3"
   points="11293,7525 11207,7475 11832,6392 11918,6442 "
   id="polygon5"
   transform="scale(0.03527778)" />
  <circle
   class="fil4"
   transform="rotate(-59.999945)"
   r="8.7999868"
   id="circle6"
   cx="13.399238"
   cy="475.99551"
   style="stroke-width:0.0666666" />
  <polygon
   class="fil3"
   points="11300,7500 11200,7500 11200,6250 11300,6250 "
   id="polygon6"
   transform="scale(0.03527778)" />
  <circle
   class="fil4"
   transform="rotate(-90)"
   r="8.7999821"
   id="circle7"
   cx="-220.48647"
   cy="396.875"
   style="stroke-width:0.0666665" />
  <polygon
   class="fil3"
   points="11293,7475 11207,7525 10582,6442 10668,6392 "
   id="polygon7"
   transform="scale(0.03527778)" />
  <circle
   class="fil4"
   transform="rotate(-120.00006)"
   r="8.7999868"
   id="circle8"
   cx="-383.47644"
   cy="211.41177"
   style="stroke-width:0.0666666" />
  <polygon
   class="fil3"
   points="11275,7457 11225,7543 10142,6918 10192,6832 "
   id="polygon8"
   transform="scale(0.03527778)" />
  <circle
   class="fil4"
   transform="rotate(-149.99994)"
   r="8.7999868"
   id="circle9"
   cx="-431.89929"
   cy="-30.697412"
   style="stroke-width:0.0666666" />
  <polygon
   class="fil3"
   points="11250,7450 11250,7550 10000,7550 10000,7450 "
   id="polygon9"
   transform="scale(0.03527778)" />
  <circle
   class="fil4"
   cx="352.77777"
   cy="264.58334"
   r="8.8194447"
   id="circle10"
   style="stroke-width:0.0352778" />
  <polygon
   class="fil3"
   points="11200,7500 11300,7500 11300,8750 11200,8750 "
   id="polygon10"
   transform="scale(0.03527778)" />
 </g>
</svg>
