<?xml version="1.0"?>
<svg xmlns="http://www.w3.org/2000/svg" xmlns:xlink="http://www.w3.org/1999/xlink" viewBox="0 0 7.9374998 5.2916668"><path id="1" d="M 2.8331065,3.9843559 3.0756012,4.1500206 2.9531534,4.402119 2.7130596,4.2364543 Z"/><use xlink:href="#1" transform="translate(4.1368154,-.7274841)"/><use xlink:href="#1" transform="translate(.4153622,-.0648253)"/><use xlink:href="#1" transform="translate(.2857116,.3601406)"/><path d="m 6.1191406,0.52929688 c -0.031835,0.0201031 -0.035549,0.0646509 -0.049362,0.0975371 -0.015401,0.04935 -0.026488,0.0999702 -0.037127,0.15052201 -0.00243,0.0522087 0.00282,0.10477197 0.00382,0.15710588 0.00394,0.10306426 0.00937,0.20607176 0.018084,0.30885186 0.018312,0.2333572 0.037807,0.4666316 0.061236,0.6995377 0.014482,0.1556008 0.031821,0.3109598 0.043136,0.4668373 0.00472,0.055506 0.00942,0.1110383 0.011588,0.1667174 0.00106,0.037339 0.00912,0.075824 0.00504,0.1125362 -0.021424,0.053532 -0.070607,0.091105 -0.1240124,0.1094452 -0.037137,0.015067 -0.078025,0.018078 -0.1167523,0.023936 -0.058995,0.00454 -0.1179911,0.00908 -0.1769866,0.013614 C 5.7492489,2.7417748 5.7253723,2.6483391 5.6808951,2.5645358 5.6525854,2.5087913 5.6216575,2.4522293 5.5749366,2.4096281 5.5357598,2.3776408 5.4899831,2.35251 5.4407249,2.3403009 c -0.049291,-0.011676 -0.1031062,-0.00795 -0.1475253,0.017879 -0.036185,0.01798 -0.067622,0.044449 -0.092198,0.076472 -0.040345,0.050105 -0.065938,0.110139 -0.087186,0.1703483 -0.030996,0.090907 -0.056972,0.185683 -0.055028,0.2825152 0.0013,0.058969 0.018721,0.1198793 0.060353,0.1632658 0.042782,0.04477 0.1049634,0.066205 0.1654361,0.072137 0.055872,0.00398 0.1119717,0.0014 0.1679398,0.00129 0.071921,-9.377e-4 0.1438242,-0.00428 0.2154523,-0.010928 C 5.6365877,3.2685779 5.561777,3.4125126 5.4651584,3.5370663 5.3858554,3.6369826 5.2871659,3.7206302 5.1795454,3.7885827 5.1147332,3.8258541 5.045465,3.8548276 4.9742171,3.8772677 4.8675193,3.912967 4.756948,3.9384351 4.6447384,3.948158 c -0.069327,0.00639 -0.1389509,0.00721 -0.20852,0.00692 -0.030403,1.341e-4 -0.06088,-2.68e-4 -0.091238,2.007e-4 -0.011478,0.00319 -0.022956,0.00638 -0.034434,0.00957 0.065361,0.027725 0.1325807,0.051191 0.2016308,0.067873 0.08208,0.022045 0.1655735,0.038115 0.248266,0.0576 0.095324,0.02215 0.1919258,0.037978 0.2883844,0.054214 0.071634,1.511e-4 0.136893,-0.034362 0.196806,-0.070213 0.064407,-0.040419 0.1223887,-0.090381 0.1766191,-0.1434702 0.068967,-0.067926 0.1268785,-0.1466697 0.172379,-0.2320589 0.082148,-0.1479064 0.1304756,-0.3127456 0.1520764,-0.4800809 0.00487,-0.036967 0.00852,-0.074091 0.011104,-0.1112865 0.033208,-0.00383 0.066378,-0.00828 0.099609,-0.011719 0.062907,-4.467e-4 0.1280364,-0.0095 0.1831138,-0.041854 0.043999,-0.024708 0.084286,-0.055684 0.1219522,-0.089107 0.046035,-0.042289 0.06762,-0.1037694 0.077746,-0.1639608 0.014284,-0.064782 0.010528,-0.1314278 0.014648,-0.197194 0.00111,-0.02606 0.00217,-0.052124 0.00293,-0.078197 0.015395,0.072942 0.033682,0.1457103 0.061435,0.2150273 0.028829,0.069406 0.06497,0.1358337 0.1074817,0.1977841 0.034674,0.048549 0.081988,0.086472 0.1318649,0.1184386 0.040434,0.021544 0.08467,0.037628 0.1308593,0.039063 0.038339,-0.00202 0.087417,-0.00837 0.1288791,-0.017764 0.067726,-0.017113 0.1350245,-0.037999 0.1972928,-0.070126 0.040374,-0.018749 0.061546,-0.059211 0.076534,-0.098905 0.024229,-0.061503 0.040197,-0.1261409 0.047677,-0.1918127 0.016674,-0.1080765 0.00931,-0.2199358 -0.023781,-0.324294 -0.017074,-0.058947 -0.040812,-0.1157867 -0.069991,-0.1697524 -0.02319,-0.043822 -0.049887,-0.087439 -0.088312,-0.119589 -0.00369,-0.0021 -0.015035,-0.01193 -0.014371,-5.818e-4 -0.021515,0.057344 -0.039211,0.1163933 -0.04655,0.1773679 -0.00528,0.040697 -0.012733,0.081176 -0.015973,0.1220985 0.044727,0.063895 0.091316,0.1279547 0.1183649,0.2018297 0.017346,0.040903 0.029162,0.086112 0.024755,0.1306401 -0.027374,0.035704 -0.076689,0.043467 -0.116086,0.060914 -0.042489,0.015658 -0.087351,0.024023 -0.1325027,0.026538 -0.00571,0.00772 0.00439,-0.017565 -0.011573,-0.00211 C 6.7068262,2.8178851 6.6507153,2.8013827 6.6000954,2.775466 6.5296656,2.7360266 6.4793067,2.6678292 6.4481229,2.5945752 6.4158504,2.5196451 6.3894677,2.4422407 6.3658398,2.3641905 6.3410611,2.2749623 6.3205497,2.1845773 6.3053165,2.0932191 6.290758,2.007964 6.2802624,1.9220471 6.2683965,1.8363801 6.2499064,1.6931687 6.2322298,1.5498499 6.2141029,1.406594 6.1958968,1.2476022 6.1768278,1.0886744 6.1634325,0.92918501 6.1520739,0.80862912 6.14411,0.68777434 6.1383579,0.56683584 6.1366781,0.55366763 6.1366753,0.531535 6.1191406,0.52929688 Z M 2.9179688,2.1132812 c -0.044938,5.207e-4 -0.089472,0.00861 -0.1331831,0.018468 -0.060812,0.016189 -0.1213816,0.039216 -0.1710853,0.078704 -0.038284,0.033399 -0.049674,0.08537 -0.064058,0.1317978 -0.011977,0.04392 -0.030975,0.088523 -0.032288,0.1337834 0.026376,0.018971 0.062168,2.331e-4 0.09202,-0.00142 0.082981,-0.017863 0.1654922,-0.038071 0.2492285,-0.052232 0.040775,-0.00978 0.082904,-0.01337 0.1244997,-0.00666 0.07284,0.00998 0.1438424,0.030326 0.2133664,0.053806 0.065694,0.019587 0.1281057,0.048199 0.1926781,0.070949 0.01419,0.00532 0.028368,0.010675 0.042493,0.016166 -0.08932,0.046027 -0.1799333,0.089457 -0.2714844,0.1308594 -0.1256586,0.059029 -0.26144,0.093893 -0.3986641,0.1126707 -0.097747,0.014071 -0.1964404,0.020754 -0.295127,0.022801 -0.072861,0.00484 -0.141811,0.033072 -0.2060612,0.066146 -0.043524,0.021009 -0.080679,0.051576 -0.1141859,0.086019 -0.029083,0.031657 -0.053303,0.067526 -0.076546,0.1035869 -0.020096,0.033881 -0.040079,0.067969 -0.054547,0.1047182 -0.018778,0.04101 -0.0352,0.084671 -0.041953,0.129116 0.00944,0.044176 0.058762,0.058832 0.097744,0.065886 0.095122,0.021128 0.1923215,0.030406 0.2887469,0.043492 0.056499,0.00542 0.1116076,0.019495 0.166928,0.031638 0.056516,0.013145 0.1165115,0.028049 0.1592538,0.069908 0.00836,0.00927 -0.00962,0.022026 -0.01238,0.032177 -0.020996,0.040077 -0.052916,0.072317 -0.090354,0.097217 -0.070137,0.05102 -0.1436127,0.09726 -0.2170116,0.1433801 C 2.264059,3.8579181 2.1560271,3.9087512 2.046793,3.9559839 1.941197,3.9999899 1.8327385,4.0377538 1.7215751,4.0650202 1.6166697,4.0894867 1.5086469,4.1018937 1.4008979,4.0989813 1.3233075,4.0942686 1.2475819,4.070681 1.1779734,4.036769 1.0693897,3.9807731 0.9821381,3.8871354 0.92807818,3.7780732 0.87049495,3.6691035 0.85355017,3.543838 0.85568058,3.4219508 c 9.3651e-4,-0.064761 0.0132622,-0.1288089 0.0330379,-0.1903568 0.0207631,-0.071387 0.0491564,-0.1403843 0.0816514,-0.2071737 0.0176076,-0.037218 0.041796,-0.071554 0.0581414,-0.1088504 0.00667,-0.011785 -0.00559,-0.029091 -0.016971,-0.019973 -0.00676,0.00401 -0.0154079,0.00558 -0.0192359,0.013365 -0.0609599,0.076228 -0.11148736,0.1603825 -0.15530398,0.2474557 -0.0344434,0.074692 -0.0635766,0.1520351 -0.0851853,0.2314177 -0.0330543,0.1319687 -0.0340465,0.2705113 -0.0140442,0.4045954 0.0237889,0.1528742 0.0875061,0.3028927 0.19788618,0.4133534 0.0863975,0.089578 0.19985511,0.1520995 0.32155351,0.1779452 0.1412061,0.031495 0.2882862,0.014665 0.4271139,-0.020466 0.09936,-0.022642 0.1957694,-0.056352 0.2900025,-0.094842 C 2.0990237,4.2191159 2.2188601,4.1581192 2.3346514,4.0906693 2.4230328,4.0369227 2.5098951,3.9801726 2.591024,3.915866 c 0.042145,-0.033279 0.084865,-0.066768 0.1195296,-0.1080782 0.027436,-0.03803 0.039778,-0.084048 0.0567,-0.1271621 C 2.7963716,3.5952809 2.8200816,3.5077754 2.8343398,3.418669 2.8422316,3.3689761 2.8214479,3.3162626 2.7813931,3.285685 2.7397509,3.2523857 2.6867937,3.2390384 2.6368175,3.2235981 2.5735663,3.2074212 2.5097423,3.1932647 2.4456621,3.1807542 2.3789289,3.1691566 2.3110327,3.1657594 2.2446144,3.1522248 c -0.021422,-0.00418 -0.043351,-0.00459 -0.064927,-0.00769 0.02026,-0.033854 0.069054,-0.029528 0.1031806,-0.037819 0.040805,-0.00556 0.08361,-0.00735 0.1233819,-0.011759 0.041764,0.0018 0.090949,-0.00114 0.1353881,-0.00395 0.165575,-0.012269 0.3299426,-0.044741 0.487018,-0.098725 0.1701456,-0.058968 0.3311176,-0.1417928 0.4839492,-0.2365227 0.075761,-0.045177 0.1591157,-0.077777 0.2460354,-0.093406 0.058824,-0.011802 0.1191596,-0.020095 0.1791634,-0.013245 0.045459,0.00243 0.090925,0.00473 0.1363129,0.00819 0.0431,8.941e-4 0.086585,0.00841 0.1294566,0.00504 0.034856,-0.024938 0.035926,-0.075073 0.059141,-0.1092162 0.016856,-0.032971 0.035754,-0.073694 0.041743,-0.1063967 -0.010652,-0.00221 -0.02101,-0.00679 -0.032118,-0.00535 C 4.1760078,2.4405853 4.0797965,2.4337115 3.9842352,2.4216097 3.8807299,2.4095401 3.7777884,2.3922953 3.6760956,2.3695719 3.5977599,2.3513928 3.5206723,2.3277541 3.4464124,2.2967659 3.365704,2.2639191 3.28489,2.2313239 3.203125,2.2011719 3.1290321,2.1711027 3.053659,2.1439061 2.9766855,2.1221915 c -0.019216,-0.00478 -0.038837,-0.0088 -0.058717,-0.00891 z M 5.3164062,2.625 c 0.045589,-0.00108 0.092147,0.013783 0.1250107,0.046222 0.050173,0.043946 0.080434,0.1057398 0.099599,0.1686217 C 5.475256,2.8397016 5.4094909,2.8401472 5.3437352,2.8395845 5.278496,2.8376486 5.2106846,2.8251483 5.15625,2.7871094 c 0.00816,-0.04588 0.026286,-0.092018 0.063213,-0.1223945 0.02573,-0.025718 0.060349,-0.040807 0.096943,-0.039715 z"/></svg>
