<?xml version="1.0"?>
<svg xmlns="http://www.w3.org/2000/svg" width="30" height="20" viewBox="0 0 7.9374998 5.2916668"><path d="m 6.9459126,2.097219 q 0.012005,0 0.045618,0.040816 0.033613,0.040816 0.067226,0.1104431 0.036014,0.067226 0.062424,0.1608628 0.02641,0.091236 0.02641,0.1944759 0,0.060023 -0.0096,0.1200469 -0.0072,0.060023 -0.021609,0.1104431 -0.014406,0.05042 -0.031212,0.088835 -0.016806,0.038415 -0.031212,0.055222 -0.0072,0.0096 -0.038415,0.028811 -0.031212,0.016807 -0.079231,0.036014 -0.048019,0.016807 -0.1104431,0.033613 -0.062424,0.014406 -0.1320516,0.019207 -0.115245,-0.012005 -0.115245,-0.1200469 0,-0.05042 0.048019,-0.098438 0.048019,-0.048019 0.1488581,-0.055222 0.040816,-0.0024 0.084033,-0.012005 0.045618,-0.012005 0.081632,-0.02641 0.036014,-0.014406 0.060023,-0.028811 0.024009,-0.014406 0.024009,-0.02641 0,-0.062424 -0.024009,-0.117646 -0.021608,-0.057622 -0.048019,-0.1008393 -0.02641,-0.043217 -0.072028,-0.1080422 0,-0.014406 0.0072,-0.064825 0.0072,-0.05042 0.016807,-0.1032403 0.0096,-0.052821 0.040816,-0.1368535 z M 6.9699219,3.2568718 7.2124166,3.4225365 7.0899688,3.674635 6.8498751,3.5089703 Z"/><path d="m 6.689012,3.096009 q -0.019208,0 -0.055222,-0.0072 -0.033613,-0.0096 -0.074429,-0.031212 -0.038415,-0.024009 -0.081632,-0.062424 -0.043217,-0.038415 -0.079231,-0.1008393 -0.055222,-0.088835 -0.088835,-0.1752685 -0.031212,-0.088835 -0.052821,-0.1944759 -0.0024,0.081632 -0.0048,0.1512591 0,0.067226 -0.012005,0.1248487 -0.0096,0.057622 -0.033613,0.1056413 -0.024009,0.045618 -0.072028,0.081632 -0.081632,0.067226 -0.1416553,0.088835 -0.060023,0.019207 -0.1344525,0.019207 -0.052821,0 -0.07683,-0.033613 -0.02641,-0.033613 -0.02641,-0.074429 0,-0.060023 0.045618,-0.112844 0.045618,-0.055222 0.1416553,-0.055222 0.016806,0 0.048019,-0.0048 0.033613,-0.0048 0.069627,-0.019207 0.036014,-0.014406 0.067226,-0.040816 0.033613,-0.028811 0.05042,-0.072028 -0.0024,-0.05042 -0.0072,-0.115245 -0.0024,-0.067226 -0.0096,-0.1392544 -0.0048,-0.072028 -0.012005,-0.1464572 Q 6.1415983,2.2076621 6.1343955,2.138035 6.1199898,1.9891768 6.1031833,1.8163093 6.0863767,1.6410409 6.0719711,1.4633715 6.0575655,1.2857021 6.0455608,1.1128346 6.035957,0.93756621 6.0311552,0.78870809 q 0,-0.009604 0.0096,-0.0504197 0.0096,-0.0432169 0.021608,-0.0888347 0.014406,-0.0480187 0.028811,-0.0840328 0.016807,-0.0360141 0.028811,-0.0360141 0.019208,0 0.019208,0.0480187 0.0024,0.0456178 0.0096,0.16806562 0.0096,0.13685344 0.02641,0.31932469 0.019207,0.1800703 0.040816,0.3649425 0.024009,0.1848722 0.045618,0.3553387 0.021608,0.1680657 0.038415,0.2833107 0.012005,0.064825 0.028811,0.1440562 0.016807,0.07683 0.038415,0.156061 0.024009,0.079231 0.05042,0.151259 0.02641,0.072028 0.055222,0.1248488 0.060023,0.1008393 0.1416553,0.1392543 0.081632,0.036014 0.1584618,0.036014 z"/><path d="m 5.8558866,3.096009 -0.098438,0.012005 q -0.012005,0.1728675 -0.055222,0.3265275 -0.043217,0.15366 -0.1224478,0.2905134 -0.043217,0.07683 -0.1080422,0.1512591 -0.064825,0.074429 -0.1392544,0.1344525 -0.072028,0.060023 -0.1464571,0.096038 Q 5.111596,4.1452187 5.0491716,4.1452187 4.9219219,4.1236103 4.8402901,4.1068037 4.7586582,4.0899971 4.6650216,4.0683887 4.5713851,4.0491812 4.4921541,4.0275728 4.4129232,4.0083653 4.3096829,3.9651484 l 0.036014,-0.0096 h 0.1344525 q 0.067226,0 0.1488582,-0.0072 0.084033,-0.0048 0.1752684,-0.024009 0.091236,-0.019207 0.1872731,-0.052821 0.098438,-0.031212 0.194476,-0.086434 0.2112825,-0.1368535 0.3265275,-0.3121219 0.1176459,-0.1728675 0.1560609,-0.3601406 -0.079231,0.0072 -0.1632638,0.0096 -0.084033,0.0024 -0.1752684,0.0024 -0.07683,0 -0.1296506,-0.021609 -0.05042,-0.019207 -0.081632,-0.052821 -0.031212,-0.033613 -0.045618,-0.079231 -0.014406,-0.045618 -0.014406,-0.096037 0,-0.048019 0.0096,-0.1008394 0.0096,-0.052821 0.024009,-0.1008394 0.014406,-0.048019 0.028811,-0.088835 0.016807,-0.043217 0.028811,-0.069627 0.014406,-0.028811 0.036014,-0.060023 0.024009,-0.033613 0.052821,-0.060023 0.031212,-0.02641 0.067226,-0.043217 0.036014,-0.016807 0.07683,-0.016807 0.062424,0 0.1080422,0.021609 0.048019,0.021608 0.088835,0.057622 0.055222,0.052821 0.1080422,0.1632637 0.055222,0.1080422 0.069627,0.2593013 L 5.9375185,2.8223021 Z M 5.5413638,2.8391087 q -0.021608,-0.067226 -0.048019,-0.1056412 -0.024009,-0.040816 -0.067226,-0.074429 -0.043217,-0.033613 -0.1104431,-0.033613 -0.05042,0 -0.081632,0.02641 -0.031212,0.024009 -0.05042,0.055222 -0.016807,0.028811 -0.02641,0.079231 0.036014,0.02641 0.084033,0.040816 0.048019,0.012005 0.1200469,0.012005 z"/><path d="m 2.5161828,2.4669634 q 0.014406,-0.064825 0.024009,-0.098438 0.012005,-0.036014 0.021609,-0.069627 0.012005,-0.033613 0.021608,-0.05042 0.016807,-0.033613 0.057622,-0.057622 0.040816,-0.02641 0.088835,-0.043217 0.048019,-0.016807 0.098438,-0.024009 0.05042,-0.0096 0.088835,-0.0096 0.043217,0 0.1200469,0.02641 0.07683,0.024009 0.1656647,0.060023 0.088835,0.033613 0.1752684,0.069627 0.088835,0.036014 0.1512591,0.057622 0.07683,0.02641 0.1704665,0.048019 0.096037,0.019208 0.1968769,0.033613 0.1008394,0.014406 0.1992778,0.024009 0.1008394,0.0072 0.1872731,0.0072 l 0.024009,0.0072 q -0.016807,0.045618 -0.028811,0.072028 -0.012005,0.02641 -0.02641,0.055222 -0.012005,0.028811 -0.021609,0.052821 -0.012005,0.02641 -0.019208,0.031212 -0.0048,0.0048 -0.019207,0.0048 -0.088835,-0.0048 -0.1368534,-0.0072 -0.048019,-0.0048 -0.096037,-0.0072 -0.045618,-0.0024 -0.067226,-0.0024 -0.074429,0 -0.1776693,0.024009 -0.1008394,0.024009 -0.2088816,0.088835 -0.2905134,0.1800703 -0.5618194,0.2593012 -0.2713059,0.07683 -0.5330081,0.07683 -0.052821,0 -0.084033,-0.031212 -0.033613,-0.033613 -0.033613,-0.086434 0,-0.069627 0.060023,-0.1104431 0.060023,-0.043217 0.1392544,-0.045618 0.1800703,-0.0048 0.3505369,-0.036014 0.1728675,-0.031212 0.3169237,-0.098439 0.057622,-0.02641 0.1344525,-0.062424 0.07683,-0.038415 0.1368534,-0.069627 -0.043217,-0.016807 -0.1080421,-0.040816 -0.062424,-0.02641 -0.1344525,-0.048019 -0.069627,-0.024009 -0.1392544,-0.038415 -0.069627,-0.016807 -0.1224478,-0.016807 -0.016807,0 -0.074429,0.012005 -0.055222,0.0096 -0.1200469,0.024009 -0.064825,0.014406 -0.1224478,0.02641 -0.055222,0.0096 -0.069627,0.0096 -0.014406,0 -0.019208,-0.0024 -0.0048,-0.0024 -0.0048,-0.014406 z M 3.2484687,3.9195306 3.4885624,4.0875962 3.3685156,4.3396946 3.1260209,4.171629 Z M 2.8331065,3.9843559 3.0756012,4.1500206 2.9531534,4.402119 2.7130596,4.2364543 Z M 3.1188181,4.3444965 3.3589118,4.5101612 3.2388649,4.7622596 2.9963703,4.5965949 Z"/><path d="m 2.4057396,3.096009 q -0.072028,0.0048 -0.112844,0.0096 -0.040816,0.0048 -0.07683,0.014406 -0.033613,0.0096 -0.036014,0.024009 0.014406,0.0024 0.055222,0.0072 0.040816,0.0072 0.084033,0.012005 0.043217,0.0048 0.1320515,0.019207 0.096037,0.019207 0.1680657,0.036014 0.072028,0.019208 0.1200468,0.040816 0.048019,0.024009 0.072028,0.057622 0.024009,0.033613 0.024009,0.084033 0,0.016807 -0.012005,0.074429 -0.012005,0.057622 -0.031212,0.1248488 -0.019207,0.067226 -0.043217,0.1272497 -0.021608,0.062424 -0.043217,0.086434 -0.036014,0.040816 -0.1104431,0.098438 -0.074429,0.060023 -0.1752684,0.1248487 -0.1008394,0.067226 -0.2232872,0.1296506 -0.1224478,0.064825 -0.2544994,0.115245 -0.1296506,0.052821 -0.2665041,0.084033 -0.1344525,0.033613 -0.2617022,0.033613 -0.1440562,0 -0.2713059,-0.052821 Q 1.0179978,4.2940768 0.9243612,4.1932374 0.83072464,4.094799 0.77790401,3.9483418 0.72508339,3.8018846 0.72508339,3.6146115 q 0,-0.1296506 0.0336131,-0.2496975 0.0360141,-0.1176459 0.0816319,-0.2136834 0.0480187,-0.093637 0.0912356,-0.1584619 0.0456178,-0.067226 0.0672263,-0.091236 l 0.0192075,-0.0096 q 0.012005,0 0.012005,0.014406 0,0.019208 -0.014406,0.036014 -0.0192075,0.033613 -0.0480187,0.088835 -0.0264103,0.055222 -0.0528206,0.1224478 -0.0240094,0.067226 -0.0432169,0.1416553 -0.0168066,0.074429 -0.0168066,0.1440563 0,0.1752684 0.0552216,0.3001172 0.0552216,0.1248487 0.13925433,0.2040797 0.084033,0.081632 0.1824713,0.1176459 0.1008394,0.038415 0.192075,0.038415 0.1872731,0 0.3721453,-0.055222 0.1872731,-0.055222 0.3481359,-0.1320515 0.1632638,-0.074429 0.2857116,-0.156061 0.1248488,-0.079231 0.1896741,-0.1320515 0.024009,-0.019207 0.040816,-0.048019 0.019208,-0.028811 0.028811,-0.048019 -0.028811,-0.031212 -0.086434,-0.052821 -0.055222,-0.019208 -0.1968769,-0.048019 -0.1560609,-0.019207 -0.2232872,-0.028811 -0.067226,-0.0096 -0.1176459,-0.021608 -0.05042,-0.0096 -0.069627,-0.02641 -0.021608,-0.019207 -0.021608,-0.043217 0.014406,-0.057622 0.02641,-0.091236 0.014406,-0.031212 0.031212,-0.069627 0.019208,-0.036014 0.040816,-0.072028 0.016807,-0.02641 0.028811,-0.043217 0.012005,-0.016807 0.024009,-0.031212 0.012005,-0.016806 0.028811,-0.033613 0.019207,-0.016807 0.045618,-0.040816 0.014406,-0.0096 0.045618,-0.02641 0.031212,-0.019208 0.069627,-0.036014 0.038415,-0.016807 0.084033,-0.028811 0.045618,-0.012005 0.088835,-0.012005 z"/></svg>
