<?xml version="1.0"?>
<svg xmlns="http://www.w3.org/2000/svg" viewBox="0 0 7937 5292"><path d="m 6946,2097 q 12,0 46,41 34,41 67,110 36,67 62,161 26,91 26,194 0,60 -10,120 -7,60 -22,110 -14,50 -31,89 -17,38 -31,55 -7,10 -38,29 -31,17 -79,36 -48,17 -110,34 -62,14 -132,19 -115,-12 -115,-120 0,-50 48,-98 48,-48 149,-55 41,-2 84,-12 46,-12 82,-26 36,-14 60,-29 24,-14 24,-26 0,-62 -24,-118 -22,-58 -48,-101 -26,-43 -72,-108 0,-14 7,-65 7,-50 17,-103 10,-53 41,-137 z M 6970,3257 7212,3423 7090,3675 6850,3509 Z" /><path d="m 6689,3096 q -19,0 -55,-7 -34,-10 -74,-31 -38,-24 -82,-62 -43,-38 -79,-101 -55,-89 -89,-175 -31,-89 -53,-194 -2,82 -5,151 0,67 -12,125 -10,58 -34,106 -24,46 -72,82 -82,67 -142,89 -60,19 -134,19 -53,0 -77,-34 -26,-34 -26,-74 0,-60 46,-113 46,-55 142,-55 17,0 48,-5 34,-5 70,-19 36,-14 67,-41 34,-29 50,-72 -2,-50 -7,-115 -2,-67 -10,-139 -5,-72 -12,-146 Q 6142,2208 6134,2138 6120,1989 6103,1816 6086,1641 6072,1463 6058,1286 6046,1113 6036,938 6031,789 q 0,-10 10,-50 10,-43 22,-89 14,-48 29,-84 17,-36 29,-36 19,0 19,48 2,46 10,168 10,137 26,319 19,180 41,365 24,185 46,355 22,168 38,283 12,65 29,144 17,77 38,156 24,79 50,151 26,72 55,125 60,101 142,139 82,36 158,36 z" /><path d="m 5856,3096 -98,12 q -12,173 -55,327 -43,154 -122,291 -43,77 -108,151 -65,74 -139,134 -72,60 -146,96 Q 5112,4145 5049,4145 4922,4124 4840,4107 4759,4090 4665,4068 4571,4049 4492,4028 4413,4008 4310,3965 l 36,-10 h 134 q 67,0 149,-7 84,-5 175,-24 91,-19 187,-53 98,-31 194,-86 211,-137 327,-312 118,-173 156,-360 -79,7 -163,10 -84,2 -175,2 -77,0 -130,-22 -50,-19 -82,-53 -31,-34 -46,-79 -14,-46 -14,-96 0,-48 10,-101 10,-53 24,-101 14,-48 29,-89 17,-43 29,-70 14,-29 36,-60 24,-34 53,-60 31,-26 67,-43 36,-17 77,-17 62,0 108,22 48,22 89,58 55,53 108,163 55,108 70,259 L 5938,2822 Z M 5541,2839 q -22,-67 -48,-106 -24,-41 -67,-74 -43,-34 -110,-34 -50,0 -82,26 -31,24 -50,55 -17,29 -26,79 36,26 84,41 48,12 120,12 z" /><path d="m 2516,2467 q 14,-65 24,-98 12,-36 22,-70 12,-34 22,-50 17,-34 58,-58 41,-26 89,-43 48,-17 98,-24 50,-10 89,-10 43,0 120,26 77,24 166,60 89,34 175,70 89,36 151,58 77,26 170,48 96,19 197,34 101,14 199,24 101,7 187,7 l 24,7 q -17,46 -29,72 -12,26 -26,55 -12,29 -22,53 -12,26 -19,31 -5,5 -19,5 -89,-5 -137,-7 -48,-5 -96,-7 -46,-2 -67,-2 -74,0 -178,24 -101,24 -209,89 -291,180 -562,259 -271,77 -533,77 -53,0 -84,-31 -34,-34 -34,-86 0,-70 60,-110 60,-43 139,-46 180,-5 351,-36 173,-31 317,-98 58,-26 134,-62 77,-38 137,-70 -43,-17 -108,-41 -62,-26 -134,-48 -70,-24 -139,-38 -70,-17 -122,-17 -17,0 -74,12 -55,10 -120,24 -65,14 -122,26 -55,10 -70,10 -14,0 -19,-2 -5,-2 -5,-14 z M 3248,3920 3489,4088 3369,4340 3126,4172 Z M 2833,3984 3076,4150 2953,4402 2713,4236 Z M 3119,4344 3359,4510 3239,4762 2996,4597 Z" /><path d="m 2406,3096 q -72,5 -113,10 -41,5 -77,14 -34,10 -36,24 14,2 55,7 41,7 84,12 43,5 132,19 96,19 168,36 72,19 120,41 48,24 72,58 24,34 24,84 0,17 -12,74 -12,58 -31,125 -19,67 -43,127 -22,62 -43,86 -36,41 -110,98 -74,60 -175,125 -101,67 -223,130 -122,65 -254,115 -130,53 -267,84 -134,34 -262,34 -144,0 -271,-53 Q 1018,4294 924,4193 831,4095 778,3948 725,3802 725,3615 q 0,-130 34,-250 36,-118 82,-214 48,-94 91,-158 46,-67 67,-91 l 19,-10 q 12,0 12,14 0,19 -14,36 -19,34 -48,89 -26,55 -53,122 -24,67 -43,142 -17,74 -17,144 0,175 55,300 55,125 139,204 84,82 182,118 101,38 192,38 187,0 372,-55 187,-55 348,-132 163,-74 286,-156 125,-79 190,-132 24,-19 41,-48 19,-29 29,-48 -29,-31 -86,-53 -55,-19 -197,-48 -156,-19 -223,-29 -67,-10 -118,-22 -50,-10 -70,-26 -22,-19 -22,-43 14,-58 26,-91 14,-31 31,-70 19,-36 41,-72 17,-26 29,-43 12,-17 24,-31 12,-17 29,-34 19,-17 46,-41 14,-10 46,-26 31,-19 70,-36 38,-17 84,-29 46,-12 89,-12 z" /></svg>
