<?xml version="1.0"?>
<svg width="30" height="20" xmlns="http://www.w3.org/2000/svg" xmlns:xlink="http://www.w3.org/1999/xlink"><symbol id="tgl" width="30" height="20" fill="#fcd116" viewBox="-28 -45 135 90"><path d="m-28-45h180V0L0 44z" fill="#0038a8"/><path d="m0 0h152v45H-28z" fill="#ce1126"/><path d="m49.942 0L-28 45v-90z" fill="#fff"/><circle r="9"/><g id="c"><g id="b"><path id="a" d="m0 0-3.164-15.909.945-.946zl-1.169-17.831L0-19l1.169 1.169zl2.219-16.855.945.946z"/><use transform="scale(-1)" xlink:href="#a"/></g><use transform="rotate(90)" xlink:href="#b"/></g><use transform="rotate(45)" xlink:href="#c"/><path id="d" d="m40.942 0-3.382 1.176-.073 3.579-2.163-2.853-3.427 1.037 2.045-2.939-2.045-2.939 3.427 1.037 2.163-2.853.073 3.579z"/><use transform="rotate(120,-2.019,0)" xlink:href="#d"/><use transform="rotate(240,-2.019,0)" xlink:href="#d"/></symbol><use href="#tgl"/><path d="M19 0h11v20H19z" fill="#fff"/><path transform="matrix(0 -.1.1 0 0 0)" d="m-185.3 279.1h24.9q5.6 0 10.1-1.2 4.5-1.3 7.6-3.8 3.2-2.6 4.9-6.3 1.6-3.7 1.6-8.7 0-2.5-.7-4.9-.6-2.5-2-4.5-1.4-1.9-3.4-3.4-1.9-1.4-5.3-2.4 1.7-.7 3.1-1.6 1.5-1 2.6-2.1 2.1-2 3.1-4.7 1.1-2.8 1.1-5.9 0-4.8-1.8-8.3-1.7-3.5-4.9-5.8-3.3-2.3-7.9-3.4-4.5-1.1-10.1-1.1h-22.9zm13.2-30h12.3q2.8 0 4.8.7t3.3 2q1.2 1.3 1.8 3.1t.6 4.1q0 2.2-.8 4-.7 1.8-2.2 3.1-1.4 1.1-3.5 1.7-2 .7-4.6.7h-11.7zm0-9.5v-17.9h9.8q3.2 0 5.5.7 2.4.6 3.8 2.1 1.1 1 1.6 2.6.6 1.5.6 3.6 0 1.9-.7 3.5-.6 1.5-1.8 2.6-1.4 1.4-3.7 2.1-2.3.6-5.3.7zm96.79 18.2h-13.15q-.19 3.1-1.03 5.3t-2.3 3.6q-1.45 1.4-3.51 2-2.06.7-4.63.7-1.87 0-3.47-.4-1.6-.5-2.8-1.4t-2.2-2.1q-.8-1.3-1.5-2.9-.9-2.4-1.4-5.6-.4-3.2-.4-7.3v-9.3q0-3 .3-5.6.2-2.6.8-4.7.8-2.8 2.2-4.9 1.3-2.1 3.2-3.2 1.2-.6 2.5-1 1.3-.3 2.86-.3 2.91 0 4.97.8 2.1.8 3.51 2.2 1.35 1.6 2.06 3.9.74 2.3.93 5.3h13.11q-.47-5.3-2.25-9.6-1.78-4.2-4.87-7.2-3.09-2.9-7.49-4.5-4.35-1.6-9.97-1.6-3.76 0-7.16 1-3.2.9-6 2.7-3.1 2.1-5.5 5.1-2.4 3.1-3.9 7-1.4 3.1-2 6.9-.7 3.7-.7 7.8v9.2q0 4.4.7 8.3.8 3.9 2.1 7.2 1.4 3.3 3.5 6 2 2.7 4.6 4.6 2.9 2.1 6.5 3.2t7.77 1.1q5.34 0 9.74-1.5 4.4-1.6 7.58-4.5t5.05-7.1q1.92-4.1 2.25-9.2zm29.29 10.7v-57.5h-13.19v68.1h45.12v-10.6z"/></svg>
