<svg width="30" height="20" xmlns="http://www.w3.org/2000/svg" xmlns:xlink="http://www.w3.org/1999/xlink"><symbol id="tgl" width="30" height="20" fill="#fcd116" viewBox="-28 -45 135 90"><path d="m-28-45h180V0L0 44z" fill="#0038a8"/><path d="m0 0h152v45H-28z" fill="#ce1126"/><path d="m49.942 0L-28 45v-90z" fill="#fff"/><circle r="9"/><g id="c"><g id="b"><path id="a" d="m0 0-3.164-15.909.945-.946zl-1.169-17.831L0-19l1.169 1.169zl2.219-16.855.945.946z"/><use transform="scale(-1)" xlink:href="#a"/></g><use transform="rotate(90)" xlink:href="#b"/></g><use transform="rotate(45)" xlink:href="#c"/><path id="d" d="m40.942 0-3.382 1.176-.073 3.579-2.163-2.853-3.427 1.037 2.045-2.939-2.045-2.939 3.427 1.037 2.163-2.853.073 3.579z"/><use transform="rotate(120,-2.019,0)" xlink:href="#d"/><use transform="rotate(240,-2.019,0)" xlink:href="#d"/></symbol><use href="#tgl"/><path d="M19 0h11v20H19z" fill="#fff"/><path transform="matrix(0 -.2.2 0 0 0)" d="m-92.63 139.6h12.43q2.81 0 5.06-.7 2.24-.6 3.81-1.9 1.57-1.2 2.41-3.1t.84-4.3q0-1.3-.35-2.5-.32-1.2-1.03-2.3-.68-.9-1.68-1.6-.98-.8-2.67-1.2v-.1q.87-.3 1.57-.8.72-.4 1.29-1 1.03-1 1.54-2.4.54-1.4.56-2.9 0-2.4-.89-4.1-.86-1.8-2.48-2.9-1.61-1.2-3.91-1.8-2.27-.5-5.05-.5h-11.45zm6.6-15.1h6.14q1.38.1 2.38.4 1.01.4 1.64 1t.91 1.6q.31.9.31 2t-.4 2q-.37.9-1.12 1.5-.68.6-1.71.9-1.01.3-2.3.3h-5.85zm0-4.7v-9h4.87q1.59.1 2.76.4 1.2.3 1.9 1 .54.6.79 1.3.29.8.29 1.8t-.33 1.8q-.31.8-.89 1.3-.7.7-1.85 1-1.15.4-2.65.4zm48.38 9.1h-6.58q-.1 1.5-.52 2.6t-1.14 1.8q-.73.7-1.76 1.1-1.03.3-2.31.3-.96 0-1.76-.2-.77-.3-1.4-.7-.59-.4-1.06-1.1-.44-.6-.77-1.4-.47-1.2-.7-2.8-.21-1.6-.21-3.7v-4.6q0-1.5.14-2.8t.44-2.4q.4-1.3 1.06-2.4.67-1 1.63-1.6.57-.3 1.22-.5.68-.1 1.45-.1 1.45 0 2.48.4 1.06.3 1.76 1.1.68.7 1.03 1.9.37 1.1.47 2.7h6.55q-.23-2.7-1.12-4.8-.89-2.2-2.44-3.6-1.54-1.5-3.74-2.3-2.18-.8-4.99-.8-1.89 0-3.56.5-1.63.5-3.01 1.3-1.55 1.1-2.77 2.6-1.21 1.5-1.96 3.5-.66 1.6-.99 3.4-.32 1.9-.32 4v4.5q0 2.2.35 4.2.37 2 1.05 3.6.7 1.6 1.71 3 1.03 1.4 2.34 2.3 1.43 1.1 3.21 1.6 1.8.6 3.91.6 2.66 0 4.86-.8t3.79-2.3q1.6-1.4 2.53-3.5.96-2 1.13-4.6zm14.64 5.3v-28.7h-6.6v34.1h22.564v-5.4z"/></svg>
