<?xml version="1.0" encoding="UTF-8" standalone="no"?>
<!-- Created with Inkscape (http://www.inkscape.org/) -->

<svg
   width="7.9375mm"
   height="5.2916889mm"
   viewBox="0 0 7.9375 5.2916889"
   version="1.1"
   id="svg1"
   inkscape:version="1.4 (86a8ad7, 2024-10-11)"
   sodipodi:docname="bel.svg"
   xmlns:inkscape="http://www.inkscape.org/namespaces/inkscape"
   xmlns:sodipodi="http://sodipodi.sourceforge.net/DTD/sodipodi-0.dtd"
   xmlns="http://www.w3.org/2000/svg"
   xmlns:svg="http://www.w3.org/2000/svg">
  <sodipodi:namedview
     id="namedview1"
     pagecolor="#ffffff"
     bordercolor="#000000"
     borderopacity="0.25"
     inkscape:showpageshadow="2"
     inkscape:pageopacity="0.0"
     inkscape:pagecheckerboard="0"
     inkscape:deskcolor="#d1d1d1"
     inkscape:document-units="mm"
     inkscape:zoom="0.71891835"
     inkscape:cx="226.03401"
     inkscape:cy="264.98141"
     inkscape:window-width="1904"
     inkscape:window-height="993"
     inkscape:window-x="93"
     inkscape:window-y="37"
     inkscape:window-maximized="0"
     inkscape:current-layer="layer1" />
  <defs
     id="defs1" />
  <g
     inkscape:label="Layer 1"
     inkscape:groupmode="layer"
     id="layer1"
     transform="translate(62.441667,16.933344)">
    <path
       id="path262"
       style="fill:#ce1720;stroke-width:0.0117592"
       d="m -62.441667,-16.933333 h 7.9375 v 5.291666 h -7.9375 z" />
    <path
       d="m -62.382871,-16.933333 h 1.175926 v 5.291666 h -1.175926 z"
       fill="#ffffff"
       id="path256"
       style="stroke-width:0.0117592" />
    <path
       id="path250"
       d="m -61.769037,-16.933333 v 0.191676 h -0.05174 v -0.191676 z m -0.660871,0.335139 h 0.0929 v -0.07644 h 0.04704 v -0.0929 h 0.06585 v -0.08114 h 0.05409 v -0.08467 h 0.163454 v 0.08467 h 0.05292 v 0.08114 h 0.06585 v 0.0929 h 0.04704 v 0.07644 h 0.07173 v 0.118768 h -0.07173 v 0.07644 h -0.04704 v 0.0929 h -0.06585 v 0.08114 h -0.05292 v 0.08702 h -0.03763 v 0.07291 h -0.08819 v -0.07291 h -0.03763 v -0.08702 h -0.05409 v -0.08114 h -0.06585 v -0.0929 h -0.04704 v -0.07644 h -0.0929 m 0,-0.413926 h 0.0929 v 0.105834 h -0.0929 m 0.364537,0.03175 h -0.04821 v 0.07173 h -0.04586 v 0.09055 h -0.04469 v 0.111713 h 0.04469 v 0.09055 h 0.04586 v 0.07056 h 0.04821 v -0.07056 h 0.04586 v -0.09055 h 0.04586 v -0.111713 h -0.04586 v -0.09055 h -0.04586 z m 0.0047,0.163454 v 0.105833 h -0.05762 v -0.105833 z m -0.369241,0.277518 h 0.0929 v 0.114065 h -0.0929 m 0.660871,-0.103482 v 0.161102 h -0.05174 v -0.161102 z m -0.127,0.178741 v 0.07996 h 0.05644 v 0.08231 h 0.07056 v 0.108185 h -0.07056 v 0.08349 h -0.05644 v 0.07996 h -0.06585 v -0.07996 h -0.05645 v -0.08349 h -0.04704 v -0.108185 h 0.04704 v -0.08231 h 0.05645 v -0.07996 z m -0.533871,0.162278 h 0.0929 v -0.08231 h 0.05644 v -0.07996 h 0.06468 v 0.07996 h 0.05644 v 0.08231 h 0.04704 v 0.108185 h -0.04704 v 0.08349 h -0.05644 v 0.07996 h -0.06468 v -0.07996 h -0.05644 v -0.08349 h -0.0929 m 0.525639,-0.105833 h -0.04821 v 0.102305 h 0.04821 z m -0.318676,0 h -0.04821 v 0.102305 h 0.04821 z m 0.01882,1.694509 v -0.05527 h -0.03998 v -0.08349 h -0.05292 v -0.05057 h -0.03998 v -0.08114 h -0.0929 v -0.188148 h 0.0929 v 0.05409 h 0.03998 v 0.07879 h 0.05292 v 0.09407 h 0.07526 v -0.08467 h 0.05527 v -0.06232 h 0.03998 v -0.07408 h 0.05292 v -0.07879 h 0.03881 v -0.07996 h 0.03763 v -0.08231 h 0.05056 v -0.110537 h -0.06703 v -0.09995 h -0.07291 v -0.05997 h -0.122296 v 0.08702 h 0.07056 v 0.07879 h -0.04704 v 0.09643 h -0.05527 v 0.08467 h -0.06938 v -0.08467 h -0.05762 v -0.09643 h -0.03528 v -0.07879 h -0.07996 v -0.149342 h 0.0929 v -0.09643 h 0.03528 v -0.07408 h 0.03293 v -0.08467 h 0.04704 v -0.08349 h 0.04586 v -0.05527 h 0.05527 v -0.08349 h 0.06703 v 0.08349 h 0.05527 v 0.05527 h 0.04704 v 0.08349 h 0.04586 v 0.08467 h 0.03763 v 0.07291 h 0.03763 v 0.0635 h 0.06115 v 0.466842 h -0.06938 v 0.07879 h -0.01999 v 0.08232 h -0.05174 v 0.07996 h -0.03175 v 0.0588 h -0.03293 v 0.06232 h -0.05645 v 0.06115 h -0.08114 v 0.170509 m 0.343371,-1.426398 v 0.161102 h -0.05174 v -0.161102 z m -0.660871,0.03057 h 0.0929 v 0.114065 h -0.0929 m 0,0.5715 h 0.0929 v 0.114065 h -0.0929 z m 0.658519,0.289278 v 0.103481 h -0.04939 v -0.103481 z m -0.0682,0.420981 v -0.06468 h -0.03057 v -0.05057 h -0.04469 v -0.151694 h 0.04469 v 0.06115 h 0.04704 v 0.08937 h 0.05174 v 0.115241 m -0.251648,0 v -0.07526 h 0.04939 v 0.07526"
       fill="#ce1720"
       style="stroke-width:0.00117592" />
    <path
       id="path253"
       d="m -61.820778,-16.933333 v 0.191676 h 0.05174 v -0.191676 z m 0.66087,0.335139 h -0.0929 v -0.07644 h -0.04704 v -0.0929 h -0.06585 v -0.08114 h -0.05409 v -0.08467 h -0.163454 v 0.08467 h -0.05292 v 0.08114 h -0.06585 v 0.0929 h -0.04704 v 0.07644 h -0.07173 v 0.118768 h 0.07173 v 0.07644 h 0.04704 v 0.0929 h 0.06585 v 0.08114 h 0.05292 v 0.08702 h 0.03763 v 0.07291 h 0.08819 v -0.07291 h 0.03763 v -0.08702 h 0.05409 v -0.08114 h 0.06585 v -0.0929 h 0.04704 v -0.07644 h 0.0929 m 0,-0.413926 h -0.0929 v 0.105834 h 0.0929 m -0.364537,0.03175 h 0.04821 v 0.07173 h 0.04586 v 0.09055 h 0.04469 v 0.111713 h -0.04469 v 0.09055 h -0.04586 v 0.07056 h -0.04821 v -0.07056 h -0.04586 v -0.09055 h -0.04586 v -0.111713 h 0.04586 v -0.09055 h 0.04586 z m -0.0047,0.163454 v 0.105833 h 0.05762 v -0.105833 z m 0.36924,0.277518 h -0.0929 v 0.114065 h 0.0929 m -0.66087,-0.103482 v 0.161102 h 0.05174 v -0.161102 z m 0.127,0.178741 v 0.07996 h -0.05644 v 0.08231 h -0.07055 v 0.108185 h 0.07055 v 0.08349 h 0.05644 v 0.07996 h 0.06585 v -0.07996 h 0.05644 v -0.08349 h 0.04704 v -0.108185 h -0.04704 v -0.08231 h -0.05644 v -0.07996 z m 0.53387,0.162278 h -0.0929 v -0.08231 h -0.05644 v -0.07996 h -0.06468 v 0.07996 h -0.05645 v 0.08231 h -0.04704 v 0.108185 h 0.04704 v 0.08349 h 0.05645 v 0.07996 h 0.06468 v -0.07996 h 0.05644 v -0.08349 h 0.0929 m -0.525639,-0.105833 h 0.04821 v 0.102305 h -0.04821 z m 0.318676,0 h 0.04821 v 0.102305 h -0.04821 z m -0.01881,1.694509 v -0.05527 h 0.03998 v -0.08349 h 0.05292 v -0.05057 h 0.03998 v -0.08114 h 0.0929 v -0.188148 h -0.0929 v 0.05409 h -0.03998 v 0.07879 h -0.05292 v 0.09407 h -0.07526 v -0.08467 h -0.05527 v -0.06232 h -0.03998 v -0.07408 h -0.05292 v -0.07879 h -0.03881 v -0.07996 h -0.03763 v -0.08231 h -0.05056 v -0.110537 h 0.06703 v -0.09995 h 0.07291 v -0.05997 h 0.122296 v 0.08702 h -0.07056 v 0.07879 h 0.04704 v 0.09643 h 0.05527 v 0.08467 h 0.06938 v -0.08467 h 0.05762 v -0.09643 h 0.03528 v -0.07879 h 0.07996 v -0.149342 h -0.0929 v -0.09643 h -0.03528 v -0.07408 h -0.03293 v -0.08467 h -0.04704 v -0.08349 h -0.04586 v -0.05527 h -0.05527 v -0.08349 h -0.06703 v 0.08349 h -0.05527 v 0.05527 h -0.04704 v 0.08349 h -0.04586 v 0.08467 H -61.722 v 0.07291 h -0.03763 v 0.0635 h -0.06115 v 0.466842 h 0.06938 v 0.07879 h 0.01999 v 0.08232 h 0.05174 v 0.07996 h 0.03175 v 0.0588 h 0.03293 v 0.06232 h 0.05644 v 0.06115 h 0.08114 v 0.170509 m -0.34337,-1.426398 v 0.161102 h 0.05174 v -0.161102 z m 0.66087,0.03057 h -0.0929 v 0.114065 h 0.0929 m 0,0.5715 h -0.0929 v 0.114065 h 0.0929 z m -0.658518,0.289278 v 0.103481 h 0.04939 v -0.103481 z m 0.0682,0.420981 v -0.06468 h 0.03057 v -0.05057 h 0.04469 v -0.151694 h -0.04469 v 0.06115 h -0.04704 v 0.08937 h -0.05174 v 0.115241 m 0.251648,0 v -0.07526 h -0.04939 v 0.07526"
       fill="#ce1720"
       style="stroke-width:0.00117592" />
    <path
       id="path244"
       d="m -61.769037,-11.641667 v -0.191675 h -0.05174 v 0.191675 z m -0.660871,-0.335138 h 0.0929 v 0.07644 h 0.04704 v 0.0929 h 0.06585 v 0.08114 h 0.05409 v 0.08467 h 0.163454 v -0.08467 h 0.05292 v -0.08114 h 0.06585 v -0.0929 h 0.04704 v -0.07644 h 0.07173 v -0.118769 h -0.07173 v -0.07644 h -0.04704 v -0.0929 h -0.06585 v -0.08114 h -0.05292 v -0.08702 h -0.03763 v -0.07291 h -0.08819 v 0.07291 h -0.03763 v 0.08702 h -0.05409 v 0.08114 h -0.06585 v 0.0929 h -0.04704 v 0.07644 h -0.0929 m 0,0.413926 h 0.0929 v -0.105833 h -0.0929 m 0.364537,-0.03175 h -0.04821 v -0.07173 h -0.04586 v -0.09055 h -0.04469 v -0.111713 h 0.04469 v -0.09055 h 0.04586 v -0.07056 h 0.04821 v 0.07056 h 0.04586 v 0.09055 h 0.04586 v 0.111713 h -0.04586 v 0.09055 h -0.04586 z m 0.0047,-0.163454 v -0.105833 h -0.05762 v 0.105833 z m -0.369241,-0.277518 h 0.0929 v -0.114065 h -0.0929 m 0.660871,0.103481 v -0.161101 h -0.05174 v 0.161101 z m -0.127,-0.178741 v -0.07996 h 0.05644 v -0.08232 h 0.07056 v -0.108185 h -0.07056 v -0.08349 h -0.05644 v -0.07996 h -0.06585 v 0.07996 h -0.05645 v 0.08349 h -0.04704 v 0.108185 h 0.04704 v 0.08232 h 0.05645 v 0.07996 z m -0.533871,-0.162277 h 0.0929 v 0.08232 h 0.05644 v 0.07996 h 0.06468 v -0.07996 h 0.05644 v -0.08232 h 0.04704 v -0.108185 h -0.04704 v -0.08349 h -0.05644 v -0.07996 h -0.06468 v 0.07996 h -0.05644 v 0.08349 h -0.0929 m 0.525639,0.105833 h -0.04821 v -0.102306 h 0.04821 z m -0.318676,0 h -0.04821 v -0.102306 h 0.04821 z m 0.01882,-1.694509 v 0.05527 h -0.03998 v 0.08349 h -0.05292 v 0.05057 h -0.03998 v 0.08114 h -0.0929 v 0.188148 h 0.0929 v -0.05409 h 0.03998 v -0.07879 h 0.05292 v -0.09407 h 0.07526 v 0.08467 h 0.05527 v 0.06232 h 0.03998 v 0.07408 h 0.05292 v 0.07879 h 0.03881 v 0.07996 h 0.03763 v 0.08231 h 0.05056 v 0.110537 h -0.06703 v 0.09995 h -0.07291 v 0.05997 h -0.122296 v -0.08702 h 0.07056 v -0.07879 h -0.04704 v -0.09643 h -0.05527 v -0.08467 h -0.06938 v 0.08467 h -0.05762 v 0.09643 h -0.03528 v 0.07879 h -0.07996 v 0.149343 h 0.0929 v 0.09643 h 0.03528 v 0.07408 h 0.03293 v 0.08467 h 0.04704 v 0.08349 h 0.04586 v 0.05527 h 0.05527 v 0.08349 h 0.06703 v -0.08349 h 0.05527 v -0.05527 h 0.04704 v -0.08349 h 0.04586 v -0.08467 h 0.03763 v -0.07291 h 0.03763 v -0.0635 h 0.06115 v -0.466843 h -0.06938 v -0.07879 h -0.01999 v -0.08231 h -0.05174 v -0.07996 h -0.03175 v -0.0588 h -0.03293 v -0.06232 h -0.05645 v -0.06115 h -0.08114 v -0.170509 m 0.343371,1.426398 v -0.161102 h -0.05174 v 0.161102 z m -0.660871,-0.03057 h 0.0929 v -0.114065 h -0.0929 m 0,-0.5715 h 0.0929 v -0.114065 h -0.0929 z m 0.658519,-0.289278 v -0.103481 h -0.04939 v 0.103481 z m -0.0682,-0.420981 v 0.06468 h -0.03057 v 0.05056 h -0.04469 v 0.151695 h 0.04469 v -0.06115 h 0.04704 v -0.08937 h 0.05174 v -0.11524 m -0.251648,0 v 0.07526 h 0.04939 v -0.07526"
       fill="#ce1720"
       style="stroke-width:0.00117592" />
    <path
       id="path247"
       d="m -61.820778,-11.641667 v -0.191675 h 0.05174 v 0.191675 z m 0.66087,-0.335138 h -0.0929 v 0.07644 h -0.04704 v 0.0929 h -0.06585 v 0.08114 h -0.05409 v 0.08467 h -0.163454 v -0.08467 h -0.05292 v -0.08114 h -0.06585 v -0.0929 h -0.04704 v -0.07644 h -0.07173 v -0.118769 h 0.07173 v -0.07644 h 0.04704 v -0.0929 h 0.06585 v -0.08114 h 0.05292 v -0.08702 h 0.03763 v -0.07291 h 0.08819 v 0.07291 h 0.03763 v 0.08702 h 0.05409 v 0.08114 h 0.06585 v 0.0929 h 0.04704 v 0.07644 h 0.0929 m 0,0.413926 h -0.0929 v -0.105833 h 0.0929 m -0.364537,-0.03175 h 0.04821 v -0.07173 h 0.04586 v -0.09055 h 0.04469 v -0.111713 h -0.04469 v -0.09055 h -0.04586 v -0.07056 h -0.04821 v 0.07056 h -0.04586 v 0.09055 h -0.04586 v 0.111713 h 0.04586 v 0.09055 h 0.04586 z m -0.0047,-0.163454 v -0.105833 h 0.05762 v 0.105833 z m 0.36924,-0.277518 h -0.0929 v -0.114065 h 0.0929 m -0.66087,0.103481 v -0.161101 h 0.05174 v 0.161101 z m 0.127,-0.178741 v -0.07996 h -0.05644 v -0.08232 h -0.07055 v -0.108185 h 0.07055 v -0.08349 h 0.05644 v -0.07996 h 0.06585 v 0.07996 h 0.05644 v 0.08349 h 0.04704 v 0.108185 h -0.04704 v 0.08232 h -0.05644 v 0.07996 z m 0.53387,-0.162277 h -0.0929 v 0.08232 h -0.05644 v 0.07996 h -0.06468 v -0.07996 h -0.05645 v -0.08232 h -0.04704 v -0.108185 h 0.04704 v -0.08349 h 0.05645 v -0.07996 h 0.06468 v 0.07996 h 0.05644 v 0.08349 h 0.0929 m -0.525639,0.105833 h 0.04821 v -0.102306 h -0.04821 z m 0.318676,0 h 0.04821 v -0.102306 h -0.04821 z m -0.01881,-1.694509 v 0.05527 h 0.03998 v 0.08349 h 0.05292 v 0.05057 h 0.03998 v 0.08114 h 0.0929 v 0.188148 h -0.0929 v -0.05409 h -0.03998 v -0.07879 h -0.05292 v -0.09407 h -0.07526 v 0.08467 h -0.05527 v 0.06232 h -0.03998 v 0.07408 h -0.05292 v 0.07879 h -0.03881 v 0.07996 h -0.03763 v 0.08231 h -0.05056 v 0.110537 h 0.06703 v 0.09995 h 0.07291 v 0.05997 h 0.122296 v -0.08702 h -0.07056 v -0.07879 h 0.04704 v -0.09643 h 0.05527 v -0.08467 h 0.06938 v 0.08467 h 0.05762 v 0.09643 h 0.03528 v 0.07879 h 0.07996 v 0.149343 h -0.0929 v 0.09643 h -0.03528 v 0.07408 h -0.03293 v 0.08467 h -0.04704 v 0.08349 h -0.04586 v 0.05527 h -0.05527 v 0.08349 h -0.06703 v -0.08349 h -0.05527 v -0.05527 h -0.04704 v -0.08349 h -0.04586 v -0.08467 H -61.722 v -0.07291 h -0.03763 v -0.0635 h -0.06115 v -0.466843 h 0.06938 v -0.07879 h 0.01999 v -0.08231 h 0.05174 v -0.07996 h 0.03175 v -0.0588 h 0.03293 v -0.06232 h 0.05644 v -0.06115 h 0.08114 v -0.170509 m -0.34337,1.426398 v -0.161102 h 0.05174 v 0.161102 z m 0.66087,-0.03057 h -0.0929 v -0.114065 h 0.0929 m 0,-0.5715 h -0.0929 v -0.114065 h 0.0929 z m -0.658518,-0.289278 v -0.103481 h 0.04939 v 0.103481 z m 0.0682,-0.420981 v 0.06468 h 0.03057 v 0.05056 h 0.04469 v 0.151695 h -0.04469 v -0.06115 h -0.04704 v -0.08937 h -0.05174 v -0.11524 m 0.251648,0 v 0.07526 h -0.04939 v -0.07526"
       fill="#ce1720"
       style="stroke-width:0.00117592" />
    <path
       d="m -61.206945,-13.405555 h 6.702778 v 1.763888 h -6.702778 z"
       fill="#007c30"
       id="path259"
       style="stroke-width:0.00995715" />
  </g>
</svg>
