<svg width="30" height="20" xmlns="http://www.w3.org/2000/svg"><symbol id="Berber_flag" width="30" height="20" viewBox="0 0 900 600"><path d="M0 0h900v200H0z" fill="#0090DA"/><path d="M0 200h900v200H0z" fill="#78BE20"/><path d="M0 400h900v200H0z" fill="#FEDD00"/><path d="m429.68 477.64 28.455 30.081 8.13-409.75-16.26-17.073z" fill="#C03"/><path d="m657.32 515.85 54.471-23.577c-104.88-104.06-165.04-142.28-264.22-144.71-126.02 8.9431-208.13 59.349-243.09 159.35l24.39-4.8778c99.999-123.58 156.91-109.76 220.32-117.07 67.479 2.4391 136.58 46.341 208.13 130.89v-3e-4zm-367.48-422.76-52.032 13.821c50.406 89.43 122.76 143.9 215.44 147.97 122.76.81292 193.49-82.113 242.27-156.91l-41.463 12.195c-78.861 111.38-164.23 115.45-202.44 109.76-64.227-4.8778-117.07-57.723-161.79-126.83z" fill="#C03"/></symbol><use x="-6" href="#Berber_flag"/><path d="M19 0h11v20H19z" fill="#fff"/><path transform="matrix(0 -.2.2 0 0 0)" d="m-92.63 139.6h12.43q2.81 0 5.06-.7 2.24-.6 3.81-1.9 1.57-1.2 2.41-3.1t.84-4.3q0-1.3-.35-2.5-.32-1.2-1.03-2.3-.68-.9-1.68-1.6-.98-.8-2.67-1.2v-.1q.87-.3 1.57-.8.72-.4 1.29-1 1.03-1 1.54-2.4.54-1.4.56-2.9 0-2.4-.89-4.1-.86-1.8-2.48-2.9-1.61-1.2-3.91-1.8-2.27-.5-5.05-.5h-11.45zm6.6-15.1h6.14q1.38.1 2.38.4 1.01.4 1.64 1t.91 1.6q.31.9.31 2t-.4 2q-.37.9-1.12 1.5-.68.6-1.71.9-1.01.3-2.3.3h-5.85zm0-4.7v-9h4.87q1.59.1 2.76.4 1.2.3 1.9 1 .54.6.79 1.3.29.8.29 1.8t-.33 1.8q-.31.8-.89 1.3-.7.7-1.85 1-1.15.4-2.65.4zm45.68 4.8v-5.2h-13.99v-8.6h16.29v-5.3h-22.89v34.1h22.96v-5.4h-16.36v-9.6zm21.86 2.2 6.41 12.8h7.047v-.3l-7.327-14.1q1.41-.6 2.529-1.5 1.147-.9 1.966-2 .796-1.2 1.217-2.6.445-1.5.445-3.3 0-2.6-.89-4.5-.866-1.9-2.48-3.2-1.637-1.3-3.937-1.9-2.29-.7-5.12-.7h-11.42v34.1h6.57v-12.8zm-4.99-5.3v-10.7h4.85q1.36 0 2.41.3 1.05.4 1.78 1 .82.7 1.22 1.7.42 1 .42 2.4 0 1.1-.33 2-.31 1-.91 1.6-.73.8-1.9 1.3-1.15.4-2.67.4z"/></svg>
