<?xml version="1.0"?>
<svg width="30" height="20" xmlns="http://www.w3.org/2000/svg"><symbol id="Berber_flag" width="30" height="20" viewBox="0 0 900 600"><path d="M0 0h900v200H0z" fill="#0090DA"/><path d="M0 200h900v200H0z" fill="#78BE20"/><path d="M0 400h900v200H0z" fill="#FEDD00"/><path d="m429.68 477.64 28.455 30.081 8.13-409.75-16.26-17.073z" fill="#C03"/><path d="m657.32 515.85 54.471-23.577c-104.88-104.06-165.04-142.28-264.22-144.71-126.02 8.9431-208.13 59.349-243.09 159.35l24.39-4.8778c99.999-123.58 156.91-109.76 220.32-117.07 67.479 2.4391 136.58 46.341 208.13 130.89v-3e-4zm-367.48-422.76-52.032 13.821c50.406 89.43 122.76 143.9 215.44 147.97 122.76.81292 193.49-82.113 242.27-156.91l-41.463 12.195c-78.861 111.38-164.23 115.45-202.44 109.76-64.227-4.8778-117.07-57.723-161.79-126.83z" fill="#C03"/></symbol><use x="-6" href="#Berber_flag"/><path d="M19 0h11v20H19z" fill="#fff"/><path transform="matrix(0 -.1.1 0 0 0)" d="m-185.3 279.1h24.9q5.6 0 10.1-1.2 4.5-1.3 7.6-3.8 3.2-2.6 4.9-6.3 1.6-3.7 1.6-8.7 0-2.5-.7-4.9-.6-2.5-2-4.5-1.4-1.9-3.4-3.4-1.9-1.4-5.3-2.4 1.7-.7 3.1-1.6 1.5-1 2.6-2.1 2.1-2 3.1-4.7 1.1-2.8 1.1-5.9 0-4.8-1.8-8.3-1.7-3.5-4.9-5.8-3.3-2.3-7.9-3.4-4.5-1.1-10.1-1.1h-22.9zm13.2-30h12.3q2.8 0 4.8.7t3.3 2q1.2 1.3 1.8 3.1t.6 4.1q0 2.2-.8 4-.7 1.8-2.2 3.1-1.4 1.1-3.5 1.7-2 .7-4.6.7h-11.7zm0-9.5v-17.9h9.8q3.2 0 5.5.7 2.4.6 3.8 2.1 1.1 1 1.6 2.6.6 1.5.6 3.6 0 1.9-.7 3.5-.6 1.5-1.8 2.6-1.4 1.4-3.7 2.1-2.3.6-5.3.7zm91.41 9.7v-10.4h-28.01v-17.2h32.6v-10.7h-45.8v68.1h45.94v-10.6h-32.74v-19.2zm43.71 4.4 12.82 25.4h14.09v-.6l-14.65-28.1q2.81-1.3 5.06-3 2.29-1.7 3.93-4.1 1.59-2.3 2.43-5.2.89-2.9.89-6.6 0-5-1.78-8.9-1.73-3.8-4.96-6.4-3.27-2.6-7.86-3.9t-10.25-1.3h-22.84v68.1h13.15v-25.4zm-9.97-10.7v-21.4h9.69q2.71 0 4.82.7t3.56 1.9q1.64 1.3 2.43 3.4.84 2.1.84 4.8 0 2.3-.65 4.1-.61 1.8-1.83 3.1-1.45 1.7-3.79 2.5-2.29.9-5.34.9z"/></svg>
