<svg xmlns="http://www.w3.org/2000/svg" width="30" height="20" viewBox="0 0 900 600"><path fill="#0090DA" d="M0 0h900v200H0z"/><path fill="#78BE20" d="M0 200h900v200H0z"/><path fill="#FEDD00" d="M0 400h900v200H0z"/><path fill="#C03" d="m429.675 477.64 28.455 30.081 8.13-409.7515L450 80.8966z"/><path fill="#C03" d="m657.315 515.851 54.4711-23.5769c-104.877-104.064-165.039-142.275-264.225-144.714-126.015 8.94308-208.128 59.3489-243.087 159.348l24.3898-4.87785c99.9991-123.576 156.909-109.755 220.323-117.072 67.4791 2.43908 136.584 46.3409 208.128 130.893v-.0003zM289.839 93.0917l-52.032 13.8209c50.4058 89.4298 122.763 143.901 215.445 147.966 122.763.81292 193.494-82.1129 242.274-156.909l-41.4631 12.1951c-78.8609 111.381-164.226 115.446-202.437 109.755-64.2271-4.87785-117.072-57.7231-161.787-126.828z"/></svg>