<?xml version="1.0"?>
<svg width="30" height="20" xmlns="http://www.w3.org/2000/svg" xmlns:xlink="http://www.w3.org/1999/xlink"><symbol id="hin" width="30" height="20" fill="#07038D" viewBox="-45 -30 90 60"><path d="m-45-30h90v60h-90z" fill="#FFF"/><path d="m-45-30h90v20h-90z" fill="#FF6820"/><path d="m-45 10h90v20h-90z" fill="#046A38"/><circle r="9.25"/><circle r="8" fill="#FFF"/><circle r="1.6"/><g id="d"><g id="c"><g id="b"><g id="a"><path d="m0-8 .3 4.81409L0-.80235l-.3-2.38356z"/><circle transform="rotate(7.5)" cy="-8" r=".35"/></g><use transform="scale(-1)" xlink:href="#a"/></g><use transform="rotate(15)" xlink:href="#b"/></g><use transform="rotate(30)" xlink:href="#c"/></g><use transform="rotate(60)" xlink:href="#d"/><use transform="rotate(120)" xlink:href="#d"/></symbol><use x="-5.5" href="#hin"/><path d="M19 0h11v20H19z" fill="#fff"/><path transform="matrix(0 -.1.1 0 0 0)" d="m-185.3 279.1h24.9q5.6 0 10.1-1.2 4.5-1.3 7.6-3.8 3.2-2.6 4.9-6.3 1.6-3.7 1.6-8.7 0-2.5-.7-4.9-.6-2.5-2-4.5-1.4-1.9-3.4-3.4-1.9-1.4-5.3-2.4 1.7-.7 3.1-1.6 1.5-1 2.6-2.1 2.1-2 3.1-4.7 1.1-2.8 1.1-5.9 0-4.8-1.8-8.3-1.7-3.5-4.9-5.8-3.3-2.3-7.9-3.4-4.5-1.1-10.1-1.1h-22.9zm13.2-30h12.3q2.8 0 4.8.7t3.3 2q1.2 1.3 1.8 3.1t.6 4.1q0 2.2-.8 4-.7 1.8-2.2 3.1-1.4 1.1-3.5 1.7-2 .7-4.6.7h-11.7zm0-9.5v-17.9h9.8q3.2 0 5.5.7 2.4.6 3.8 2.1 1.1 1 1.6 2.6.6 1.5.6 3.6 0 1.9-.7 3.5-.6 1.5-1.8 2.6-1.4 1.4-3.7 2.1-2.3.6-5.3.7zm94.45 39.5v-68.1h-13.01v27.9h-19.24v-27.9h-13.1v68.1h13.1v-29.5h19.24v29.5zm65.1-29v-10q0-4.6-.89-8.7-.84-4.1-2.48-7.6-1.5-3-3.6-5.6-2.06-2.5-4.82-4.3-2.76-1.9-6.23-2.8-3.42-1.1-7.35-1.1-3.88 0-7.21 1-3.32 1-5.99 2.8-2.71 1.9-4.82 4.5-2.06 2.6-3.51 5.9-1.5 3.4-2.29 7.4-.75 4-.75 8.5v10q0 4.2.65 8 .71 3.8 2.02 7 1.45 3.5 3.6 6.3t4.87 4.7q2.76 1.9 6.13 2.9 3.37 1.1 7.35 1.1 3.74 0 6.97-1 3.28-.9 6-2.5 2.99-1.9 5.33-4.7t3.93-6.2q1.5-3.3 2.3-7.3.79-3.9.79-8.3zm-13.34-10.1v10.1q0 2.5-.28 4.8-.23 2.4-.75 4.3-.65 2.6-1.78 4.6-1.07 1.9-2.66 3.2-1.27 1.1-2.91 1.7-1.63.5-3.6.5-2.06 0-3.7-.6-1.59-.6-2.85-1.7-1.36-1.3-2.39-3.3-.98-2-1.5-4.5-.47-2-.65-4.3-.19-2.3-.19-4.7v-10.1q0-2.6.19-5 .23-2.4.7-4.4.61-2.6 1.68-4.6 1.13-1.9 2.72-3.2 1.17-.9 2.62-1.4 1.5-.5 3.32-.5 1.92 0 3.47.6 1.59.5 2.85 1.4 1.59 1.3 2.76 3.3 1.17 1.9 1.88 4.5.56 2 .79 4.4.28 2.3.28 4.9z"/></svg>
