<svg width="30" height="20" xmlns="http://www.w3.org/2000/svg"><symbol id="hin" width="30" height="20" fill="#07038D" viewBox="-45 -30 90 60"><path d="m-45-30h90v60h-90z" fill="#FFF"/><path d="m-45-30h90v20h-90z" fill="#FF6820"/><path d="m-45 10h90v20h-90z" fill="#046A38"/><circle r="9.25"/><circle r="8" fill="#FFF"/><circle r="1.6"/><g id="d"><g id="c"><g id="b"><g id="a"><path d="m0-8 .3 4.81409L0-.80235l-.3-2.38356z"/><circle transform="rotate(7.5)" cy="-8" r=".35"/></g><use transform="scale(-1)" href="#a"/></g><use transform="rotate(15)" href="#b"/></g><use transform="rotate(30)" href="#c"/></g><use transform="rotate(60)" href="#d"/><use transform="rotate(120)" href="#d"/></symbol><use x="-5.5" href="#hin"/><path d="M19 0h11v20H19z" fill="#fff"/><symbol id="B"><path d="m4.17 8h2.55q.58 0 1.04-.13.46-.13.784-.389t.495-.644q.17-.38.173-.889 0-.26-.0721-.51-.067-.25-.212-.462-.14-.2-.346-.346-.2-.15-.548-.245.18-.072.322-.168.15-.096.264-.212.21-.21.317-.49.11-.28.115-.601 0-.49-.183-.851-.18-.36-.51-.596-.33-.24-.803-.351-.47-.12-1.04-.115h-2.35zm1.36-3.09h1.26q.28 0 .49.077.21.072.337.207.13.13.188.317.062.19.062.423 0 .23-.082.409-.076.18-.23.312-.14.12-.351.183-.21.067-.471.0674h-1.2zm0-.976v-1.84h1q.33 0 .567.072.25.067.39.216.11.11.163.264.058.16.058.37 0 .2-.067.361-.063.16-.183.269-.14.14-.38.212-.24.067-.543.0721z"/></symbol><symbol id="H"><path d="m8.8 8v-7h-1.34v2.87h-1.98v-2.87h-1.34v7h1.34v-3.03h1.98v3.03z"/></symbol><symbol id="O"><path d="m9.06 5.01v-1.02q0-.48-.091-.899-.087-.42-.255-.779-.15-.31-.37-.572-.21-.26-.495-.442-.28-.19-.64-.293-.35-.11-.755-.106-.4 0-.74.101-.34.1-.615.288-.28.19-.495.462-.21.27-.361.601-.15.35-.236.764-.077.41-.0769.875v1.02q0 .43.067.822.072.39.207.721.15.36.37.649.22.28.5.486.28.19.63.298.35.11.755.106.38 0 .716-.0962.34-.091.615-.26.31-.19.548-.481.24-.29.404-.635.15-.35.236-.75.082-.41.0817-.861zm-1.37-1.03v1.03q0 .26-.029.5-.024.24-.0768.442-.067.26-.183.466-.11.2-.274.336-.13.11-.298.168-.17.058-.37.0577-.21 0-.38-.0625-.16-.062-.293-.178-.14-.13-.245-.336-.1-.21-.154-.466-.048-.2-.0673-.438t-.0192-.49v-1.03q0-.27.019-.514.024-.25.0723-.452.062-.27.173-.471.12-.2.279-.337.12-.091.269-.139.15-.048.341-.0481.2 0 .356.053.16.053.293.149.16.13.284.336.12.2.192.462.058.21.082.452.029.24.029.51z"/></symbol><g transform="rotate(-90 15 -5)"><use x="-13" href="#B"/><use x="-6.5" href="#H"/><use href="#O"/></g></svg>
