<svg width="30" height="20" xmlns="http://www.w3.org/2000/svg"><symbol id="hin" width="30" height="20" fill="#07038D" viewBox="-45 -30 90 60"><path d="m-45-30h90v60h-90z" fill="#FFF"/><path d="m-45-30h90v20h-90z" fill="#FF6820"/><path d="m-45 10h90v20h-90z" fill="#046A38"/><circle r="9.25"/><circle r="8" fill="#FFF"/><circle r="1.6"/><g id="d"><g id="c"><g id="b"><g id="a"><path d="m0-8 .3 4.81409L0-.80235l-.3-2.38356z"/><circle transform="rotate(7.5)" cy="-8" r=".35"/></g><use transform="scale(-1)" href="#a"/></g><use transform="rotate(15)" href="#b"/></g><use transform="rotate(30)" href="#c"/></g><use transform="rotate(60)" href="#d"/><use transform="rotate(120)" href="#d"/></symbol><use x="-5.5" href="#hin"/><path d="M19 0h11v20H19z" fill="#fff"/><path transform="matrix(0 -.2.2 0 0 0)" d="m-92.63 139.6h12.43q2.81 0 5.06-.7 2.24-.6 3.81-1.9 1.57-1.2 2.41-3.1t.84-4.3q0-1.3-.35-2.5-.32-1.2-1.03-2.3-.68-.9-1.68-1.6-.98-.8-2.67-1.2v-.1q.87-.3 1.57-.8.72-.4 1.29-1 1.03-1 1.54-2.4.54-1.4.56-2.9 0-2.4-.89-4.1-.86-1.8-2.48-2.9-1.61-1.2-3.91-1.8-2.27-.5-5.05-.5h-11.45zm6.6-15.1h6.14q1.38.1 2.38.4 1.01.4 1.64 1t.91 1.6q.31.9.31 2t-.4 2q-.37.9-1.12 1.5-.68.6-1.71.9-1.01.3-2.3.3h-5.85zm0-4.7v-9h4.87q1.59.1 2.76.4 1.2.3 1.9 1 .54.6.79 1.3.29.8.29 1.8t-.33 1.8q-.31.8-.89 1.3-.7.7-1.85 1-1.15.4-2.65.4zm47.21 19.8v-34.1h-6.51v14h-9.64v-14h-6.53v34.1h6.53v-14.8h9.64v14.8zm32.546-14.6v-4.9q0-2.4-.444-4.4-.421-2.1-1.241-3.8-.749-1.5-1.802-2.8-1.029-1.3-2.409-2.1-1.38-1-3.11-1.5-1.71-.5-3.68-.5-1.94 0-3.6.5t-3 1.4q-1.36.9-2.41 2.3-1.03 1.3-1.75 2.9-.75 1.7-1.15 3.7-.38 2-.38 4.3v4.9q0 2.1.33 4 .35 1.9 1.01 3.5.72 1.8 1.8 3.2t2.43 2.4q1.39.9 3.07 1.4 1.69.5 3.67.5 1.88 0 3.49-.4 1.64-.5 3-1.3 1.5-.9 2.666-2.3 1.17-1.4 1.966-3.1.749-1.7 1.147-3.7.397-2 .397-4.2zm-6.666-5v5q0 1.3-.14 2.5-.12 1.1-.38 2.1-.33 1.3-.89 2.3-.54 1-1.33 1.6-.63.6-1.45.8-.82.3-1.81.3-1.02 0-1.84-.3-.8-.3-1.43-.8-.68-.7-1.2-1.7-.49-1-.74-2.3-.24-.9-.33-2.1-.1-1.1-.1-2.4v-5q0-1.3.1-2.5.12-1.2.35-2.2.3-1.3.84-2.3.56-1 1.36-1.6.58-.5 1.31-.7.75-.2 1.66-.2.96 0 1.73.2.8.3 1.43.8.8.6 1.38 1.6.59 1 .94 2.2.28 1 .4 2.2.14 1.2.14 2.5z"/></svg>
