<?xml version="1.0" encoding="UTF-8" standalone="no"?>
<!-- Created with Inkscape (http://www.inkscape.org/) -->

<svg
   width="7.9375mm"
   height="5.2916999mm"
   viewBox="0 0 7.9375002 5.2917001"
   version="1.1"
   id="svg1"
   inkscape:version="1.4 (86a8ad7, 2024-10-11)"
   sodipodi:docname="bis.svg"
   xmlns:inkscape="http://www.inkscape.org/namespaces/inkscape"
   xmlns:sodipodi="http://sodipodi.sourceforge.net/DTD/sodipodi-0.dtd"
   xmlns:xlink="http://www.w3.org/1999/xlink"
   xmlns="http://www.w3.org/2000/svg"
   xmlns:svg="http://www.w3.org/2000/svg">
  <sodipodi:namedview
     id="namedview1"
     pagecolor="#ffffff"
     bordercolor="#000000"
     borderopacity="0.25"
     inkscape:showpageshadow="2"
     inkscape:pageopacity="0.0"
     inkscape:pagecheckerboard="0"
     inkscape:deskcolor="#d1d1d1"
     inkscape:document-units="mm"
     inkscape:zoom="0.71891835"
     inkscape:cx="369.3048"
     inkscape:cy="50.075228"
     inkscape:window-width="1904"
     inkscape:window-height="992"
     inkscape:window-x="-26"
     inkscape:window-y="145"
     inkscape:window-maximized="0"
     inkscape:current-layer="layer1" />
  <defs
     id="defs1">
    <radialGradient
       id="n"
       cx="489.07001"
       cy="210.33"
       r="0.345"
       gradientTransform="matrix(0.00861722,0,0,0.0090267,-825.15993,-674.59387)"
       gradientUnits="userSpaceOnUse">
      <stop
         style="stop-color:#fff"
         offset="0"
         id="stop19" />
      <stop
         style="stop-color:#fff;stop-opacity:0"
         offset="1"
         id="stop21" />
    </radialGradient>
    <radialGradient
       id="m"
       cx="477.85999"
       cy="215.27"
       r="0.345"
       gradientUnits="userSpaceOnUse"
       gradientTransform="matrix(0.00881945,0,0,0.00881945,-825.15993,-674.59387)">
      <stop
         style="stop-color:#a50a0a"
         offset=".259"
         id="stop14" />
      <stop
         style="stop-color:#4c0505"
         offset="1"
         id="stop16" />
    </radialGradient>
    <linearGradient
       id="l"
       x1="473.31"
       x2="475.92999"
       y1="237.25"
       y2="270.45001"
       gradientUnits="userSpaceOnUse"
       gradientTransform="matrix(0.00881945,0,0,0.00881945,-825.15993,-674.59387)">
      <stop
         style="stop-color:#f9f0aa"
         offset=".216"
         id="stop39" />
      <stop
         style="stop-color:#b07e09"
         offset="1"
         id="stop41" />
    </linearGradient>
    <linearGradient
       id="k"
       x1="451.54001"
       x2="455.37"
       y1="249.52"
       y2="240.58"
       gradientUnits="userSpaceOnUse"
       gradientTransform="matrix(0.00881945,0,0,0.00881945,-825.15993,-674.59387)">
      <stop
         style="stop-color:#f9f0aa"
         offset=".216"
         id="stop34" />
      <stop
         style="stop-color:#b07e09"
         offset="1"
         id="stop36" />
    </linearGradient>
    <radialGradient
       id="j"
       cx="445.98001"
       cy="252.36"
       r="13.018"
       gradientUnits="userSpaceOnUse"
       xlink:href="#a"
       gradientTransform="matrix(0.00881945,0,0,0.00881945,-825.15993,-674.59387)" />
    <radialGradient
       id="a">
      <stop
         style="stop-color:#f9f0aa"
         offset=".216"
         id="stop4" />
      <stop
         style="stop-color:#b07e09"
         offset="1"
         id="stop6" />
    </radialGradient>
    <linearGradient
       id="i"
       x1="483.13"
       x2="485.5"
       y1="296.66"
       y2="326.57999"
       gradientUnits="userSpaceOnUse"
       gradientTransform="matrix(0.00881945,0,0,0.00881945,-825.15993,-674.59387)">
      <stop
         style="stop-color:#b07e09;stop-opacity:0"
         offset=".216"
         id="stop29" />
      <stop
         style="stop-color:#b07e09"
         offset="1"
         id="stop31" />
    </linearGradient>
    <linearGradient
       id="h"
       x1="473.91"
       x2="472.35999"
       y1="259.17001"
       y2="231.96001"
       gradientUnits="userSpaceOnUse"
       gradientTransform="matrix(0.00881945,0,0,0.00881945,-825.15993,-674.59387)">
      <stop
         style="stop-color:#b07e09;stop-opacity:0"
         offset=".216"
         id="stop24" />
      <stop
         style="stop-color:#b07e09"
         offset="1"
         id="stop26" />
    </linearGradient>
    <radialGradient
       id="g"
       cx="458.39001"
       cy="307.06"
       r="17.354"
       gradientUnits="userSpaceOnUse"
       xlink:href="#a"
       gradientTransform="matrix(0.00881945,0,0,0.00881945,-825.15993,-674.59387)" />
    <radialGradient
       id="radialGradient2">
      <stop
         style="stop-color:#f9f0aa"
         offset=".216"
         id="stop1" />
      <stop
         style="stop-color:#b07e09"
         offset="1"
         id="stop2" />
    </radialGradient>
    <radialGradient
       id="f"
       cx="454.10999"
       cy="308.64001"
       r="9.7799997"
       gradientUnits="userSpaceOnUse"
       xlink:href="#a"
       gradientTransform="matrix(0.00881945,0,0,0.00881945,-825.15993,-674.59387)" />
    <radialGradient
       id="radialGradient5">
      <stop
         style="stop-color:#f9f0aa"
         offset=".216"
         id="stop3" />
      <stop
         style="stop-color:#b07e09"
         offset="1"
         id="stop5" />
    </radialGradient>
    <radialGradient
       id="e"
       cx="451.56"
       cy="313"
       r="10.911"
       gradientUnits="userSpaceOnUse"
       xlink:href="#a"
       gradientTransform="matrix(0.00881945,0,0,0.00881945,-825.15993,-674.59387)" />
    <radialGradient
       id="radialGradient8">
      <stop
         style="stop-color:#f9f0aa"
         offset=".216"
         id="stop7" />
      <stop
         style="stop-color:#b07e09"
         offset="1"
         id="stop8" />
    </radialGradient>
    <radialGradient
       id="d"
       cx="447.42001"
       cy="308.26999"
       r="16.534"
       gradientUnits="userSpaceOnUse"
       xlink:href="#a"
       gradientTransform="matrix(0.00881945,0,0,0.00881945,-825.15993,-674.59387)" />
    <radialGradient
       id="radialGradient10">
      <stop
         style="stop-color:#f9f0aa"
         offset=".216"
         id="stop9" />
      <stop
         style="stop-color:#b07e09"
         offset="1"
         id="stop10" />
    </radialGradient>
    <radialGradient
       id="e-9"
       cx="380.84"
       cy="740.37"
       r="25.858999"
       gradientTransform="matrix(7.0234215e-4,8.3694522e-4,-0.00162376,0.00140249,-873.47471,-923.33034)"
       gradientUnits="userSpaceOnUse"
       xlink:href="#a-6" />
    <linearGradient
       id="a-6">
      <stop
         stop-color="#fff"
         offset="0"
         id="stop2-5" />
      <stop
         stop-color="#f15770"
         offset="1"
         id="stop4-1" />
    </linearGradient>
    <radialGradient
       id="f-0"
       cx="651.52002"
       cy="550.46002"
       r="25.858999"
       gradientTransform="matrix(-1.9245334e-4,-0.00208924,0.00193863,-1.8385685e-4,-876.73368,-920.80848)"
       gradientUnits="userSpaceOnUse"
       xlink:href="#a-6" />
    <radialGradient
       id="g-6"
       cx="842.31"
       cy="103.66"
       r="25.858999"
       gradientTransform="matrix(0.00194862,8.2390338e-4,-8.0461878e-4,0.00195837,-876.97359,-922.9887)"
       gradientUnits="userSpaceOnUse"
       xlink:href="#a-6" />
  </defs>
  <g
     inkscape:label="Layer 1"
     inkscape:groupmode="layer"
     id="layer1"
     transform="translate(765.87688,1331.7604)">
    <path
       id="path494"
       style="fill:#d21034;stroke-width:0.00928359"
       d="m -765.87688,-1331.7604 h 7.9375 v 2.6458 h -7.9375 z" />
    <path
       id="path497"
       style="fill:#009543;stroke-width:0.00928359"
       d="m -765.87688,-1329.1146 h 7.9375 v 2.6459 h -7.9375 z" />
    <path
       d="m -765.87688,-1331.7604 5.13211,2.6458 -5.13211,2.6459 z"
       id="path482"
       style="stroke-width:0.00928359" />
    <path
       id="path500"
       d="m -765.87688,-1329.588 h 7.9375 v 0.9469 h -7.9375 z"
       style="stroke-width:0.00928359" />
    <path
       d="m -765.87688,-1331.3844 4.40276,2.2699 -4.40276,2.2698 z"
       fill="#fdce12"
       id="path485"
       style="stroke-width:0.00928359" />
    <path
       id="path503"
       style="fill:#fdce12;stroke-width:0.00928359"
       d="m -765.87688,-1329.2538 h 7.9375 v 0.2785 h -7.9375 z" />
    <path
       d="m -765.87688,-1331.071 3.79496,1.9565 -3.79496,1.9564 z"
       id="path488"
       style="stroke-width:0.00928359" />
    <path
       d="m -764.80481,-1328.6084 v 0.3015 c 0.26229,0 0.77704,-0.201 0.77704,-0.8481 0,-0.6472 -0.54907,-0.7673 -0.7133,-0.7673 -0.16423,0 -0.67164,0.1177 -0.67164,0.6471 0,0.5295 0.4976,0.5785 0.59565,0.5785 0.098,0 0.46573,-0.088 0.42407,-0.4853 0,0.1127 -0.12747,0.3505 -0.39466,0.3505 -0.26718,0 -0.43386,-0.1985 -0.43386,-0.3946 0,-0.1961 0.16177,-0.4584 0.44366,-0.4584 0.28189,0 0.48779,0.25 0.48779,0.5025 0,0.2525 -0.19854,0.5736 -0.51475,0.5736 z"
       fill="#fdce12"
       id="path491"
       style="stroke-width:0.00928359" />
    <path
       style="color:#000000;fill:#fdce12;stroke-width:0.00928359;-inkscape-stroke:none"
       d="m -765.0346,-1329.0009 0.0156,0.01 c 0,0 0.12409,-0.2831 0.45777,-0.4844 -0.0423,0.023 -0.26566,0.1342 -0.4734,0.4743 z"
       id="path464" />
    <path
       style="color:#000000;fill:#fdce12;stroke-width:0.00928359;-inkscape-stroke:none"
       d="m -764.56343,-1329.4793 c -3e-5,0 -1.4e-4,0 -1.7e-4,0 -0.021,0.011 -0.0879,0.045 -0.17523,0.1186 -0.0874,0.073 -0.19559,0.1867 -0.29973,0.3572 h -0.002 0.004 l 0.0202,0.013 0.002,-0.01 c 0,0 0.12341,-0.2816 0.45573,-0.4822 7e-5,0 1.1e-4,0 1.8e-4,0 z m -0.37209,0.3426 c -0.0567,0.079 -0.0825,0.1331 -0.0852,0.1392 h -0.007 c 0.0308,-0.05 0.0618,-0.094 0.0926,-0.1344 z"
       id="path467" />
    <path
       d="m -765.00243,-1329.0496 c 0,0 -0.0386,-0.079 -0.005,-0.114 0.034,-0.035 0.0184,0.093 0.0184,0.093 l 0.0147,-0.021 c 0,0 -0.023,-0.097 0.003,-0.1167 0.0257,-0.02 0.0129,0.093 0.0129,0.093 l 0.0156,-0.02 c 0,0 -0.0165,-0.094 0.008,-0.1112 0.0248,-0.017 0.009,0.088 0.009,0.088 l 0.0184,-0.021 c 0,0 -0.0138,-0.089 0.0166,-0.1103 0.0303,-0.021 0.004,0.085 0.004,0.085 l 0.0202,-0.022 c 0,0 -0.009,-0.082 0.0166,-0.1002 0.0257,-0.018 0.004,0.077 0.004,0.077 l 0.0184,-0.019 c 0,0 -0.006,-0.076 0.0193,-0.094 0.0248,-0.017 0.002,0.073 0.002,0.073 l 0.0193,-0.018 c 0,0 -0.005,-0.076 0.0267,-0.091 0.0312,-0.015 -0.006,0.072 -0.006,0.072 l 0.0211,-0.018 c 0,0 0.006,-0.089 0.0331,-0.097 0.0267,-0.01 -0.0119,0.079 -0.0119,0.079 l 0.0193,-0.016 c 0,0 0.0101,-0.076 0.0395,-0.085 0.0294,-0.01 -0.0184,0.07 -0.0184,0.07 l 0.0193,-0.015 c 0,0 0.0212,-0.076 0.0487,-0.085 0.0276,-0.01 -0.0285,0.072 -0.0285,0.072 l 0.0184,-0.013 c 0,0 0.0303,-0.069 0.0552,-0.073 0.0248,0 -0.0276,0.057 -0.0276,0.057 l 0.023,-0.014 c 0,0 0.0395,-0.072 0.0533,-0.05 0.0138,0.022 -0.0552,0.054 -0.0552,0.054 l -0.023,0.013 c 0,0 0.0837,-0.04 0.0938,-0.019 0.0101,0.02 -0.11491,0.033 -0.11491,0.033 l -0.0202,0.014 c 0,0 0.0836,-0.023 0.0735,0 -0.0101,0.021 -0.0928,0.016 -0.0928,0.016 l -0.0193,0.014 c 0,0 0.0837,-0.02 0.0726,-9e-4 -0.011,0.019 -0.0928,0.017 -0.0928,0.017 l -0.0202,0.016 c 0,0 0.0818,-0.021 0.0699,0 -0.012,0.025 -0.10479,0.024 -0.10479,0.024 l -0.023,0.021 c 0,0 0.0864,-0.029 0.0791,-0.01 -0.007,0.023 -0.10571,0.035 -0.10571,0.035 l -0.0221,0.022 c 0,0 0.0928,-0.031 0.0653,0 -0.0276,0.028 -0.0947,0.036 -0.0947,0.036 l -0.0267,0.032 c 0,0 0.0919,-0.055 0.079,-0.024 -0.0129,0.031 -0.10295,0.052 -0.10295,0.052 l -0.0184,0.022 c 0,0 0.0827,-0.048 0.0745,-0.021 -0.008,0.027 -0.0965,0.055 -0.0965,0.055 l -0.0147,0.02 c 0,0 0.0974,-0.058 0.0892,-0.029 -0.008,0.029 -0.10111,0.051 -0.10111,0.051 l -0.0119,0.018 c 0,0 0.0901,-0.052 0.091,-0.027 9.2e-4,0.025 -0.10571,0.05 -0.10571,0.05 z"
       id="path479"
       style="fill:#fdce12;stroke-width:0.00928359" />
    <path
       style="color:#000000;fill:#fdce12;stroke-width:0.00928359;-inkscape-stroke:none"
       d="m -764.50502,-1329.0009 -0.0156,0.01 c 0,0 -0.1241,-0.2831 -0.45777,-0.4844 0.0423,0.023 0.26565,0.1342 0.47339,0.4743 z"
       id="path470" />
    <path
       style="color:#000000;fill:#fdce12;stroke-width:0.00928359;-inkscape-stroke:none"
       d="m -764.97619,-1329.4793 -0.005,0.01 c 7e-5,0 1.1e-4,0 1.8e-4,0 0.33231,0.2006 0.45573,0.4822 0.45573,0.4822 l 0.002,0.01 0.024,-0.016 h -0.002 c -0.10414,-0.1705 -0.21227,-0.2837 -0.29972,-0.3572 -0.0873,-0.073 -0.15423,-0.1072 -0.17523,-0.1186 -3e-5,0 -1.4e-4,0 -1.8e-4,0 z m 0.37209,0.3426 c 0.0308,0.041 0.0618,0.084 0.0926,0.1344 h -0.007 c -0.003,-0.01 -0.0285,-0.06 -0.0852,-0.1392 z"
       id="path473" />
    <path
       d="m -764.53719,-1329.0496 c 0,0 0.0386,-0.079 0.005,-0.114 -0.034,-0.035 -0.0184,0.093 -0.0184,0.093 l -0.0147,-0.021 c 0,0 0.023,-0.097 -0.003,-0.1167 -0.0257,-0.02 -0.0129,0.093 -0.0129,0.093 l -0.0156,-0.02 c 0,0 0.0165,-0.094 -0.008,-0.1112 -0.0248,-0.017 -0.009,0.088 -0.009,0.088 l -0.0184,-0.021 c 0,0 0.0138,-0.089 -0.0166,-0.1103 -0.0303,-0.021 -0.004,0.085 -0.004,0.085 l -0.0202,-0.022 c 0,0 0.009,-0.082 -0.0166,-0.1002 -0.0257,-0.018 -0.004,0.077 -0.004,0.077 l -0.0184,-0.019 c 0,0 0.006,-0.076 -0.0193,-0.094 -0.0248,-0.017 -0.002,0.073 -0.002,0.073 l -0.0193,-0.018 c 0,0 0.005,-0.076 -0.0267,-0.091 -0.0312,-0.015 0.006,0.072 0.006,0.072 l -0.0211,-0.018 c 0,0 -0.006,-0.089 -0.0331,-0.097 -0.0267,-0.01 0.0119,0.079 0.0119,0.079 l -0.0193,-0.016 c 0,0 -0.0101,-0.076 -0.0395,-0.085 -0.0294,-0.01 0.0184,0.07 0.0184,0.07 l -0.0193,-0.015 c 0,0 -0.0211,-0.076 -0.0487,-0.085 -0.0276,-0.01 0.0285,0.072 0.0285,0.072 l -0.0184,-0.013 c 0,0 -0.0303,-0.069 -0.0551,-0.073 -0.0248,0 0.0276,0.057 0.0276,0.057 l -0.023,-0.014 c 0,0 -0.0395,-0.072 -0.0533,-0.05 -0.0138,0.022 0.0551,0.054 0.0551,0.054 l 0.023,0.013 c 0,0 -0.0837,-0.04 -0.0938,-0.019 -0.0101,0.02 0.11491,0.033 0.11491,0.033 l 0.0202,0.014 c 0,0 -0.0836,-0.023 -0.0735,0 0.0101,0.021 0.0928,0.016 0.0928,0.016 l 0.0193,0.014 c 0,0 -0.0837,-0.02 -0.0726,-9e-4 0.011,0.019 0.0928,0.017 0.0928,0.017 l 0.0202,0.016 c 0,0 -0.0818,-0.021 -0.0699,0 0.012,0.025 0.10479,0.024 0.10479,0.024 l 0.023,0.021 c 0,0 -0.0864,-0.029 -0.079,-0.01 0.007,0.023 0.10571,0.035 0.10571,0.035 l 0.0221,0.022 c 0,0 -0.0928,-0.031 -0.0653,0 0.0276,0.028 0.0947,0.036 0.0947,0.036 l 0.0267,0.032 c 0,0 -0.0919,-0.055 -0.079,-0.024 0.0129,0.031 0.10295,0.052 0.10295,0.052 l 0.0184,0.022 c 0,0 -0.0827,-0.048 -0.0745,-0.021 0.008,0.027 0.0965,0.055 0.0965,0.055 l 0.0147,0.02 c 0,0 -0.0974,-0.058 -0.0892,-0.029 0.008,0.029 0.10111,0.051 0.10111,0.051 l 0.012,0.018 c 0,0 -0.0901,-0.052 -0.091,-0.027 -9.2e-4,0.025 0.10571,0.05 0.10571,0.05 z"
       id="path476"
       style="fill:#fdce12;stroke-width:0.00928359" />
  </g>
</svg>
