<svg width="30" height="20" xmlns="http://www.w3.org/2000/svg"><symbol id="Flag_of_Nigeria" preserveAspectRatio="none" viewBox="0 0 6 3"><path d="m0 0h6v3H0z" fill="#008751"/><path d="m2 0h2v3H2z" fill="#fff"/></symbol><use width="19" height="20" href="#Flag_of_Nigeria"/><path d="M19 0h11v20H19z" fill="#fff"/><path transform="matrix(0 -.2.2 0 0 0)" d="m-92.63 139.6h12.43q2.81 0 5.06-.7 2.24-.6 3.81-1.9 1.57-1.2 2.41-3.1t.84-4.3q0-1.3-.35-2.5-.32-1.2-1.03-2.3-.68-.9-1.68-1.6-.98-.8-2.67-1.2v-.1q.87-.3 1.57-.8.72-.4 1.29-1 1.03-1 1.54-2.4.54-1.4.56-2.9 0-2.4-.89-4.1-.86-1.8-2.48-2.9-1.61-1.2-3.91-1.8-2.27-.5-5.05-.5h-11.45zm6.6-15.1h6.14q1.38.1 2.38.4 1.01.4 1.64 1t.91 1.6q.31.9.31 2t-.4 2q-.37.9-1.12 1.5-.68.6-1.71.9-1.01.3-2.3.3h-5.85zm0-4.7v-9h4.87q1.59.1 2.76.4 1.2.3 1.9 1 .54.6.79 1.3.29.8.29 1.8t-.33 1.8q-.31.8-.89 1.3-.7.7-1.85 1-1.15.4-2.65.4zm48.49 5.2v-4.9q0-2.4-.44-4.4-.42-2.1-1.24-3.8-.75-1.5-1.8-2.8-1.03-1.3-2.42-2.1-1.38-1-3.11-1.5-1.71-.5-3.67-.5-1.94 0-3.61.5-1.66.5-2.99 1.4-1.36.9-2.41 2.3-1.03 1.3-1.76 2.9-.75 1.7-1.15 3.7-.37 2-.37 4.3v4.9q0 2.1.33 4 .35 1.9 1 3.5.73 1.8 1.81 3.2 1.07 1.4 2.43 2.4 1.38.9 3.07 1.4 1.68.5 3.67.5 1.87 0 3.49-.4 1.64-.5 2.99-1.3 1.5-.9 2.67-2.3t1.97-3.1q.75-1.7 1.14-3.7.4-2 .4-4.2zm-6.67-5v5q0 1.3-.14 2.5-.11 1.1-.37 2.1-.33 1.3-.89 2.3-.54 1-1.34 1.6-.63.6-1.45.8-.82.3-1.8.3-1.03 0-1.85-.3-.79-.3-1.43-.8-.67-.7-1.19-1.7-.49-1-.75-2.3-.23-.9-.33-2.1-.1-1.1-.1-2.4v-5q0-1.3.1-2.5.12-1.2.36-2.2.3-1.3.84-2.3.56-1 1.36-1.6.58-.5 1.31-.7.74-.2 1.66-.2.96 0 1.73.2.8.3 1.43.8.79.6 1.38 1.6.58 1 .93 2.2.29 1 .4 2.2.14 1.2.14 2.5zm22.23-14.5h-8.17v34.1h6.04v-10.1l-.28-15.3 4 14.1h3.26l4.47-14.8-.28 16v10.1h6.035v-34.1h-8.165l-3.68 12.8z"/></svg>
