<?xml version="1.0" encoding="UTF-8" standalone="no"?>
<!-- Created with Inkscape (http://www.inkscape.org/) -->

<svg
   width="7.9375mm"
   height="5.2916698mm"
   viewBox="0 0 7.9375 5.2916698"
   version="1.1"
   id="svg1"
   inkscape:version="1.4 (86a8ad7, 2024-10-11)"
   sodipodi:docname="bos.svg"
   xmlns:inkscape="http://www.inkscape.org/namespaces/inkscape"
   xmlns:sodipodi="http://sodipodi.sourceforge.net/DTD/sodipodi-0.dtd"
   xmlns="http://www.w3.org/2000/svg"
   xmlns:svg="http://www.w3.org/2000/svg">
  <sodipodi:namedview
     id="namedview1"
     pagecolor="#ffffff"
     bordercolor="#000000"
     borderopacity="0.25"
     inkscape:showpageshadow="2"
     inkscape:pageopacity="0.0"
     inkscape:pagecheckerboard="0"
     inkscape:deskcolor="#d1d1d1"
     inkscape:document-units="mm"
     inkscape:zoom="0.71891835"
     inkscape:cx="359.56795"
     inkscape:cy="424.94395"
     inkscape:window-width="1904"
     inkscape:window-height="993"
     inkscape:window-x="57"
     inkscape:window-y="125"
     inkscape:window-maximized="0"
     inkscape:current-layer="layer1" />
  <defs
     id="defs1" />
  <g
     inkscape:label="Layer 1"
     inkscape:groupmode="layer"
     id="layer1"
     transform="translate(141.72531,153.74077)">
    <path
       id="path296"
       style="fill:#002395;stroke-width:0.661458"
       d="m -141.72531,-153.74077 h 7.9375 v 5.29167 h -7.9375 z" />
    <path
       d="m -140.24364,-153.74077 h 5.29166 v 5.29167 z"
       fill="#fecb00"
       id="path293"
       style="stroke-width:0.661458" />
    <path
       id="path284"
       style="fill:#ffffff;fill-opacity:1;stroke-width:0.661458"
       d="m -141.37885,-153.74077 -0.11278,0.34716 0.29551,-0.21469 0.29549,0.21469 -0.11279,-0.34716 z" />
    <path
       id="path287"
       d="m -140.83016,-152.73215 0.29549,-0.90943 0.29548,0.90943 -0.77357,-0.56204 h 0.9562 z"
       fill="#ffffff"
       style="stroke-width:0.661458" />
    <path
       id="path290"
       d="m -140.1687,-152.07069 0.29549,-0.90944 0.29548,0.90944 -0.77357,-0.56204 h 0.9562 z"
       fill="#ffffff"
       style="stroke-width:0.661458" />
    <path
       id="path266"
       d="m -139.50724,-151.40923 0.29548,-0.90944 0.29549,0.90944 -0.77357,-0.56205 h 0.9562 z"
       fill="#ffffff"
       style="stroke-width:0.661458" />
    <path
       id="path269"
       d="m -138.84578,-150.74777 0.29548,-0.90944 0.29549,0.90944 -0.77358,-0.56205 h 0.95621 z"
       fill="#ffffff"
       style="stroke-width:0.661458" />
    <path
       id="path272"
       d="m -138.18433,-150.08631 0.29549,-0.90944 0.29549,0.90944 -0.77358,-0.56205 h 0.95621 z"
       fill="#ffffff"
       style="stroke-width:0.661458" />
    <path
       id="path275"
       d="m -137.52287,-149.42485 0.29549,-0.90944 0.29549,0.90944 -0.77358,-0.56205 h 0.95621 z"
       fill="#ffffff"
       style="stroke-width:0.661458" />
    <path
       id="path278"
       d="m -136.86141,-148.7634 0.29549,-0.90943 0.29548,0.90943 -0.77357,-0.56204 h 0.9562 z"
       fill="#ffffff"
       style="stroke-width:0.661458" />
    <path
       id="path281"
       style="fill:#ffffff;fill-opacity:1;stroke-width:0.661458"
       d="m -135.90445,-149.01137 -0.11289,0.3474 h -0.36522 l 0.29546,0.21466 -7e-5,2.1e-4 h 0.36543 l -7e-5,-2.1e-4 0.29548,-0.21466 h -0.36525 z" />
  </g>
</svg>
