<?xml version="1.0" encoding="UTF-8" standalone="no"?>
<!-- Creator: CorelDRAW Home & Student X8 -->

<svg
   xml:space="preserve"
   width="7.9375mm"
   height="5.291667mm"
   version="1.1"
   style="clip-rule:evenodd;fill-rule:evenodd;image-rendering:optimizeQuality;shape-rendering:geometricPrecision;text-rendering:geometricPrecision"
   viewBox="0 0 793.75 529.1667"
   id="svg49"
   sodipodi:docname="Bretonya.svg"
   inkscape:version="1.4 (86a8ad7, 2024-10-11)"
   xmlns:inkscape="http://www.inkscape.org/namespaces/inkscape"
   xmlns:sodipodi="http://sodipodi.sourceforge.net/DTD/sodipodi-0.dtd"
   xmlns="http://www.w3.org/2000/svg"
   xmlns:svg="http://www.w3.org/2000/svg"><sodipodi:namedview
   id="namedview49"
   pagecolor="#ffffff"
   bordercolor="#000000"
   borderopacity="0.25"
   inkscape:showpageshadow="2"
   inkscape:pageopacity="0.0"
   inkscape:pagecheckerboard="0"
   inkscape:deskcolor="#d1d1d1"
   inkscape:document-units="mm"
   inkscape:zoom="1.4234583"
   inkscape:cx="425.37248"
   inkscape:cy="283.46457"
   inkscape:window-width="1920"
   inkscape:window-height="1009"
   inkscape:window-x="-8"
   inkscape:window-y="-8"
   inkscape:window-maximized="1"
   inkscape:current-layer="Layer_x0020_1" />
 <defs
   id="defs1">
  <style
   type="text/css"
   id="style1">
   <![CDATA[
    .fil1 {fill:#1F1B20}
    .fil0 {fill:#FEFEFE}
   ]]>
  </style>
 </defs>
 <g
   id="Layer_x0020_1"
   inkscape:label="Layer 1"
   inkscape:groupmode="layer">
  <metadata
   id="CorelCorpID_0Corel-Layer" />
  <rect
   class="fil0"
   width="793.75"
   height="529.16669"
   id="rect1"
   x="0"
   y="0"
   style="stroke-width:0.0352778" />
  <rect
   class="fil1"
   x="359.83334"
   width="433.91666"
   height="58.808056"
   id="rect2"
   y="0"
   style="stroke-width:0.0352778" />
  <rect
   class="fil1"
   x="359.83334"
   y="117.58083"
   width="433.91666"
   height="58.808056"
   id="rect3"
   style="stroke-width:0.0352778" />
  <rect
   class="fil1"
   y="235.19695"
   width="793.75"
   height="58.808056"
   id="rect4"
   x="0"
   style="stroke-width:0.0352778" />
  <rect
   class="fil1"
   y="352.77777"
   width="793.75"
   height="58.808056"
   id="rect5"
   x="0"
   style="stroke-width:0.0352778" />
  <rect
   class="fil1"
   y="470.35861"
   width="793.75"
   height="58.808056"
   id="rect6"
   x="0"
   style="stroke-width:0.0352778" />
  <g
   id="_510645784"
   transform="scale(0.03527778)">
   <g
   id="g9">
    <path
   class="fil1"
   d="m 1276,2491 c -53,-53 -150,-427 -150,-427 0,0 -245,131 -271,98 -25,-32 85,-134 169,-227 42,-46 53,-40 53,-64 0,-24 -11,-79 -11,-79 0,0 -355,192 -381,138 -27,-54 169,-127 317,-397 148,-269 274,-682 274,-682 0,0 127,413 274,682 148,270 344,343 318,397 -27,54 -382,-138 -382,-138 0,0 -11,55 -11,79 0,24 11,18 53,64 85,93 195,195 169,227 -25,33 -271,-98 -271,-98 0,0 -97,374 -150,427 z"
   id="path6" />
    <path
   class="fil1"
   d="m 1276,851 c 0,0 125,-133 250,-133 124,0 249,133 249,133 0,0 -125,133 -249,133 -125,0 -250,-133 -250,-133 z"
   id="path7" />
    <path
   class="fil1"
   d="m 1276,352 c 0,0 133,125 133,250 0,124 -133,249 -133,249 0,0 -133,-125 -133,-249 0,-125 133,-250 133,-250 z"
   id="path8" />
    <path
   class="fil1"
   d="m 777,851 c 0,0 125,-133 250,-133 124,0 249,133 249,133 0,0 -125,133 -249,133 C 902,984 777,851 777,851 Z"
   id="path9" />
   </g>
  </g>
  <g
   id="_510645760"
   transform="scale(0.03527778)">
   <g
   id="g13">
    <path
   class="fil1"
   d="m 3826,2491 c -53,-53 -150,-427 -150,-427 0,0 -245,131 -271,98 -25,-32 85,-134 169,-227 42,-46 53,-40 53,-64 0,-24 -11,-79 -11,-79 0,0 -355,192 -381,138 -27,-54 169,-127 317,-397 148,-269 274,-682 274,-682 0,0 127,413 274,682 148,270 344,343 318,397 -27,54 -382,-138 -382,-138 0,0 -11,55 -11,79 0,24 11,18 53,64 85,93 195,195 169,227 -25,33 -271,-98 -271,-98 0,0 -97,374 -150,427 z"
   id="path10" />
    <path
   class="fil1"
   d="m 3826,851 c 0,0 125,-133 250,-133 124,0 249,133 249,133 0,0 -125,133 -249,133 -125,0 -250,-133 -250,-133 z"
   id="path11" />
    <path
   class="fil1"
   d="m 3826,352 c 0,0 133,125 133,250 0,124 -133,249 -133,249 0,0 -133,-125 -133,-249 0,-125 133,-250 133,-250 z"
   id="path12" />
    <path
   class="fil1"
   d="m 3327,851 c 0,0 125,-133 250,-133 124,0 249,133 249,133 0,0 -125,133 -249,133 -125,0 -250,-133 -250,-133 z"
   id="path13" />
   </g>
  </g>
  <g
   id="_510644776"
   transform="scale(0.03527778)">
   <g
   id="g17">
    <path
   class="fil1"
   d="m 6376,2491 c -53,-53 -150,-427 -150,-427 0,0 -245,131 -271,98 -25,-32 85,-134 169,-227 42,-46 53,-40 53,-64 0,-24 -11,-79 -11,-79 0,0 -355,192 -381,138 -27,-54 169,-127 317,-397 148,-269 274,-682 274,-682 0,0 127,413 274,682 148,270 344,343 318,397 -27,54 -382,-138 -382,-138 0,0 -11,55 -11,79 0,24 11,18 53,64 85,93 195,195 169,227 -25,33 -271,-98 -271,-98 0,0 -97,374 -150,427 z"
   id="path14" />
    <path
   class="fil1"
   d="m 6376,851 c 0,0 125,-133 250,-133 124,0 249,133 249,133 0,0 -125,133 -249,133 -125,0 -250,-133 -250,-133 z"
   id="path15" />
    <path
   class="fil1"
   d="m 6376,352 c 0,0 133,125 133,250 0,124 -133,249 -133,249 0,0 -133,-125 -133,-249 0,-125 133,-250 133,-250 z"
   id="path16" />
    <path
   class="fil1"
   d="m 5877,851 c 0,0 125,-133 250,-133 124,0 249,133 249,133 0,0 -125,133 -249,133 -125,0 -250,-133 -250,-133 z"
   id="path17" />
   </g>
  </g>
  <g
   id="_510643888"
   transform="scale(0.03527778)">
   <g
   id="g21">
    <path
   class="fil1"
   d="m 8926,2491 c -53,-53 -150,-427 -150,-427 0,0 -245,131 -271,98 -25,-32 85,-134 169,-227 42,-46 53,-40 53,-64 0,-24 -11,-79 -11,-79 0,0 -355,192 -381,138 -27,-54 169,-127 317,-397 148,-269 274,-682 274,-682 0,0 127,413 274,682 148,270 344,343 318,397 -27,54 -382,-138 -382,-138 0,0 -11,55 -11,79 0,24 11,18 53,64 85,93 195,195 169,227 -25,33 -271,-98 -271,-98 0,0 -97,374 -150,427 z"
   id="path18" />
    <path
   class="fil1"
   d="m 8926,851 c 0,0 125,-133 250,-133 124,0 249,133 249,133 0,0 -125,133 -249,133 -125,0 -250,-133 -250,-133 z"
   id="path19" />
    <path
   class="fil1"
   d="m 8926,352 c 0,0 133,125 133,250 0,124 -133,249 -133,249 0,0 -133,-125 -133,-249 0,-125 133,-250 133,-250 z"
   id="path20" />
    <path
   class="fil1"
   d="m 8427,851 c 0,0 125,-133 250,-133 124,0 249,133 249,133 0,0 -125,133 -249,133 -125,0 -250,-133 -250,-133 z"
   id="path21" />
   </g>
  </g>
  <g
   id="_510643264"
   transform="scale(0.03527778)">
   <g
   id="g25">
    <path
   class="fil1"
   d="m 2551,4491 c -53,-53 -150,-427 -150,-427 0,0 -245,131 -271,98 -25,-32 85,-134 169,-227 42,-46 53,-40 53,-64 0,-24 -11,-79 -11,-79 0,0 -355,192 -381,138 -27,-54 169,-127 317,-397 148,-269 274,-682 274,-682 0,0 127,413 274,682 148,270 344,343 318,397 -27,54 -382,-138 -382,-138 0,0 -11,55 -11,79 0,24 11,18 53,64 85,93 195,195 169,227 -25,33 -271,-98 -271,-98 0,0 -97,374 -150,427 z"
   id="path22" />
    <path
   class="fil1"
   d="m 2551,2851 c 0,0 125,-133 250,-133 124,0 249,133 249,133 0,0 -125,133 -249,133 -125,0 -250,-133 -250,-133 z"
   id="path23" />
    <path
   class="fil1"
   d="m 2551,2352 c 0,0 133,125 133,250 0,124 -133,249 -133,249 0,0 -133,-125 -133,-249 0,-125 133,-250 133,-250 z"
   id="path24" />
    <path
   class="fil1"
   d="m 2052,2851 c 0,0 125,-133 250,-133 124,0 249,133 249,133 0,0 -125,133 -249,133 -125,0 -250,-133 -250,-133 z"
   id="path25" />
   </g>
  </g>
  <g
   id="ermine"
   transform="scale(0.03527778)">
   <path
   class="fil1"
   d="m 5101,4491 c -53,-53 -150,-427 -150,-427 0,0 -245,131 -271,98 -25,-32 85,-134 169,-227 42,-46 53,-40 53,-64 0,-24 -11,-79 -11,-79 0,0 -355,192 -381,138 -27,-54 169,-127 317,-397 148,-269 274,-682 274,-682 0,0 127,413 274,682 148,270 344,343 318,397 -27,54 -382,-138 -382,-138 0,0 -11,55 -11,79 0,24 11,18 53,64 85,93 195,195 169,227 -25,33 -271,-98 -271,-98 0,0 -97,374 -150,427 z"
   id="path26" />
   <path
   class="fil1"
   d="m 5101,2851 c 0,0 125,-133 250,-133 124,0 249,133 249,133 0,0 -125,133 -249,133 -125,0 -250,-133 -250,-133 z"
   id="path27" />
   <path
   class="fil1"
   d="m 5101,2352 c 0,0 133,125 133,250 0,124 -133,249 -133,249 0,0 -133,-125 -133,-249 0,-125 133,-250 133,-250 z"
   id="path28" />
   <path
   class="fil1"
   d="m 4602,2851 c 0,0 125,-133 250,-133 124,0 249,133 249,133 0,0 -125,133 -249,133 -125,0 -250,-133 -250,-133 z"
   id="path29" />
  </g>
  <g
   id="_510662952"
   transform="scale(0.03527778)">
   <g
   id="g33">
    <path
   class="fil1"
   d="m 7651,4491 c -53,-53 -150,-427 -150,-427 0,0 -245,131 -271,98 -25,-32 85,-134 169,-227 42,-46 53,-40 53,-64 0,-24 -11,-79 -11,-79 0,0 -355,192 -381,138 -27,-54 169,-127 317,-397 148,-269 274,-682 274,-682 0,0 127,413 274,682 148,270 344,343 318,397 -27,54 -382,-138 -382,-138 0,0 -11,55 -11,79 0,24 11,18 53,64 85,93 195,195 169,227 -25,33 -271,-98 -271,-98 0,0 -97,374 -150,427 z"
   id="path30" />
    <path
   class="fil1"
   d="m 7651,2851 c 0,0 125,-133 250,-133 124,0 249,133 249,133 0,0 -125,133 -249,133 -125,0 -250,-133 -250,-133 z"
   id="path31" />
    <path
   class="fil1"
   d="m 7651,2352 c 0,0 133,125 133,250 0,124 -133,249 -133,249 0,0 -133,-125 -133,-249 0,-125 133,-250 133,-250 z"
   id="path32" />
    <path
   class="fil1"
   d="m 7152,2851 c 0,0 125,-133 250,-133 124,0 249,133 249,133 0,0 -125,133 -249,133 -125,0 -250,-133 -250,-133 z"
   id="path33" />
   </g>
  </g>
  <g
   id="_510665928"
   transform="scale(0.03527778)">
   <g
   id="g37">
    <path
   class="fil1"
   d="m 1276,6491 c -53,-53 -150,-427 -150,-427 0,0 -245,131 -271,98 -25,-32 85,-134 169,-227 42,-46 53,-40 53,-64 0,-24 -11,-79 -11,-79 0,0 -355,192 -381,138 -27,-54 169,-127 317,-397 148,-269 274,-682 274,-682 0,0 127,413 274,682 148,270 344,343 318,397 -27,54 -382,-138 -382,-138 0,0 -11,55 -11,79 0,24 11,18 53,64 85,93 195,195 169,227 -25,33 -271,-98 -271,-98 0,0 -97,374 -150,427 z"
   id="path34" />
    <path
   class="fil1"
   d="m 1276,4851 c 0,0 125,-133 250,-133 124,0 249,133 249,133 0,0 -125,133 -249,133 -125,0 -250,-133 -250,-133 z"
   id="path35" />
    <path
   class="fil1"
   d="m 1276,4352 c 0,0 133,125 133,250 0,124 -133,249 -133,249 0,0 -133,-125 -133,-249 0,-125 133,-250 133,-250 z"
   id="path36" />
    <path
   class="fil1"
   d="m 777,4851 c 0,0 125,-133 250,-133 124,0 249,133 249,133 0,0 -125,133 -249,133 -125,0 -250,-133 -250,-133 z"
   id="path37" />
   </g>
  </g>
  <g
   id="_510665040"
   transform="scale(0.03527778)">
   <g
   id="g41">
    <path
   class="fil1"
   d="m 3826,6491 c -53,-53 -150,-427 -150,-427 0,0 -245,131 -271,98 -25,-32 85,-134 169,-227 42,-46 53,-40 53,-64 0,-24 -11,-79 -11,-79 0,0 -355,192 -381,138 -27,-54 169,-127 317,-397 148,-269 274,-682 274,-682 0,0 127,413 274,682 148,270 344,343 318,397 -27,54 -382,-138 -382,-138 0,0 -11,55 -11,79 0,24 11,18 53,64 85,93 195,195 169,227 -25,33 -271,-98 -271,-98 0,0 -97,374 -150,427 z"
   id="path38" />
    <path
   class="fil1"
   d="m 3826,4851 c 0,0 125,-133 250,-133 124,0 249,133 249,133 0,0 -125,133 -249,133 -125,0 -250,-133 -250,-133 z"
   id="path39" />
    <path
   class="fil1"
   d="m 3826,4352 c 0,0 133,125 133,250 0,124 -133,249 -133,249 0,0 -133,-125 -133,-249 0,-125 133,-250 133,-250 z"
   id="path40" />
    <path
   class="fil1"
   d="m 3327,4851 c 0,0 125,-133 250,-133 124,0 249,133 249,133 0,0 -125,133 -249,133 -125,0 -250,-133 -250,-133 z"
   id="path41" />
   </g>
  </g>
  <g
   id="_510664296"
   transform="scale(0.03527778)">
   <g
   id="g45">
    <path
   class="fil1"
   d="m 6376,6491 c -53,-53 -150,-427 -150,-427 0,0 -245,131 -271,98 -25,-32 85,-134 169,-227 42,-46 53,-40 53,-64 0,-24 -11,-79 -11,-79 0,0 -355,192 -381,138 -27,-54 169,-127 317,-397 148,-269 274,-682 274,-682 0,0 127,413 274,682 148,270 344,343 318,397 -27,54 -382,-138 -382,-138 0,0 -11,55 -11,79 0,24 11,18 53,64 85,93 195,195 169,227 -25,33 -271,-98 -271,-98 0,0 -97,374 -150,427 z"
   id="path42" />
    <path
   class="fil1"
   d="m 6376,4851 c 0,0 125,-133 250,-133 124,0 249,133 249,133 0,0 -125,133 -249,133 -125,0 -250,-133 -250,-133 z"
   id="path43" />
    <path
   class="fil1"
   d="m 6376,4352 c 0,0 133,125 133,250 0,124 -133,249 -133,249 0,0 -133,-125 -133,-249 0,-125 133,-250 133,-250 z"
   id="path44" />
    <path
   class="fil1"
   d="m 5877,4851 c 0,0 125,-133 250,-133 124,0 249,133 249,133 0,0 -125,133 -249,133 -125,0 -250,-133 -250,-133 z"
   id="path45" />
   </g>
  </g>
  <g
   id="_510663648"
   transform="scale(0.03527778)">
   <g
   id="g49">
    <path
   class="fil1"
   d="m 8926,6491 c -53,-53 -150,-427 -150,-427 0,0 -245,131 -271,98 -25,-32 85,-134 169,-227 42,-46 53,-40 53,-64 0,-24 -11,-79 -11,-79 0,0 -355,192 -381,138 -27,-54 169,-127 317,-397 148,-269 274,-682 274,-682 0,0 127,413 274,682 148,270 344,343 318,397 -27,54 -382,-138 -382,-138 0,0 -11,55 -11,79 0,24 11,18 53,64 85,93 195,195 169,227 -25,33 -271,-98 -271,-98 0,0 -97,374 -150,427 z"
   id="path46" />
    <path
   class="fil1"
   d="m 8926,4851 c 0,0 125,-133 250,-133 124,0 249,133 249,133 0,0 -125,133 -249,133 -125,0 -250,-133 -250,-133 z"
   id="path47" />
    <path
   class="fil1"
   d="m 8926,4352 c 0,0 133,125 133,250 0,124 -133,249 -133,249 0,0 -133,-125 -133,-249 0,-125 133,-250 133,-250 z"
   id="path48" />
    <path
   class="fil1"
   d="m 8427,4851 c 0,0 125,-133 250,-133 124,0 249,133 249,133 0,0 -125,133 -249,133 -125,0 -250,-133 -250,-133 z"
   id="path49" />
   </g>
  </g>
 </g>
</svg>
