<svg width="30" height="20" xmlns="http://www.w3.org/2000/svg"><symbol id="hin" width="30" height="20" fill="#07038D" viewBox="-45 -30 90 60"><path d="m-45-30h90v60h-90z" fill="#FFF"/><path d="m-45-30h90v20h-90z" fill="#FF6820"/><path d="m-45 10h90v20h-90z" fill="#046A38"/><circle r="9.25"/><circle r="8" fill="#FFF"/><circle r="1.6"/><g id="d"><g id="c"><g id="b"><g id="a"><path d="m0-8 .3 4.81409L0-.80235l-.3-2.38356z"/><circle transform="rotate(7.5)" cy="-8" r=".35"/></g><use transform="scale(-1)" href="#a"/></g><use transform="rotate(15)" href="#b"/></g><use transform="rotate(30)" href="#c"/></g><use transform="rotate(60)" href="#d"/><use transform="rotate(120)" href="#d"/></symbol><use x="-5.5" href="#hin"/><path d="M19 0h11v20H19z" fill="#fff"/><path transform="matrix(0 -.2.2 0 0 0)" d="m-92.63 139.6h12.43q2.81 0 5.06-.7 2.24-.6 3.81-1.9 1.57-1.2 2.41-3.1t.84-4.3q0-1.3-.35-2.5-.32-1.2-1.03-2.3-.68-.9-1.68-1.6-.98-.8-2.67-1.2v-.1q.87-.3 1.57-.8.72-.4 1.29-1 1.03-1 1.54-2.4.54-1.4.56-2.9 0-2.4-.89-4.1-.86-1.8-2.48-2.9-1.61-1.2-3.91-1.8-2.27-.5-5.05-.5h-11.45zm6.6-15.1h6.14q1.38.1 2.38.4 1.01.4 1.64 1t.91 1.6q.31.9.31 2t-.4 2q-.37.9-1.12 1.5-.68.6-1.71.9-1.01.3-2.3.3h-5.85zm0-4.7v-9h4.87q1.59.1 2.76.4 1.2.3 1.9 1 .54.6.79 1.3.29.8.29 1.8t-.33 1.8q-.31.8-.89 1.3-.7.7-1.85 1-1.15.4-2.65.4zm36.28 7 6.41 12.8h7.04v-.3l-7.32-14.1q1.4-.6 2.53-1.5 1.14-.9 1.96-2 .8-1.2 1.22-2.6.44-1.5.44-3.3 0-2.6-.89-4.5-.86-1.9-2.48-3.2-1.64-1.3-3.93-1.9-2.29-.7-5.12-.7h-11.43v34.1h6.58v-12.8zm-4.99-5.3v-10.7h4.85q1.35 0 2.41.3 1.05.4 1.77 1 .82.7 1.22 1.7.42 1 .42 2.4 0 1.1-.32 2-.31 1-.92 1.6-.72.8-1.89 1.3-1.15.4-2.67.4zm36.23-3.8-5.97-12.2h-7.68l9.57 16.9-9.83 17.2h7.77l6.23-12.4 6.25 12.4h7.675l-9.825-17.2 9.591-16.9h-7.721z"/></svg>
