<svg width="30" height="20" xmlns="http://www.w3.org/2000/svg"><symbol id="hin" width="30" height="20" fill="#07038D" viewBox="-45 -30 90 60"><path d="m-45-30h90v60h-90z" fill="#FFF"/><path d="m-45-30h90v20h-90z" fill="#FF6820"/><path d="m-45 10h90v20h-90z" fill="#046A38"/><circle r="9.25"/><circle r="8" fill="#FFF"/><circle r="1.6"/><g id="d"><g id="c"><g id="b"><g id="a"><path d="m0-8 .3 4.81409L0-.80235l-.3-2.38356z"/><circle transform="rotate(7.5)" cy="-8" r=".35"/></g><use transform="scale(-1)" href="#a"/></g><use transform="rotate(15)" href="#b"/></g><use transform="rotate(30)" href="#c"/></g><use transform="rotate(60)" href="#d"/><use transform="rotate(120)" href="#d"/></symbol><use x="-5.5" href="#hin"/><path d="M19 0h11v20H19z" fill="#fff"/><symbol id="B"><path d="m4.17 8h2.55q.58 0 1.04-.13.46-.13.784-.389t.495-.644q.17-.38.173-.889 0-.26-.0721-.51-.067-.25-.212-.462-.14-.2-.346-.346-.2-.15-.548-.245.18-.072.322-.168.15-.096.264-.212.21-.21.317-.49.11-.28.115-.601 0-.49-.183-.851-.18-.36-.51-.596-.33-.24-.803-.351-.47-.12-1.04-.115h-2.35zm1.36-3.09h1.26q.28 0 .49.077.21.072.337.207.13.13.188.317.062.19.062.423 0 .23-.082.409-.076.18-.23.312-.14.12-.351.183-.21.067-.471.0674h-1.2zm0-.976v-1.84h1q.33 0 .567.072.25.067.39.216.11.11.163.264.058.16.058.37 0 .2-.067.361-.063.16-.183.269-.14.14-.38.212-.24.067-.543.0721z"/></symbol><symbol id="R"><path d="m6.55 5.38 1.32 2.62h1.45v-.0625l-1.5-2.89q.29-.13.519-.308.24-.18.404-.418.16-.24.25-.534.091-.3.0913-.678 0-.52-.183-.914-.18-.39-.51-.659-.34-.26-.808-.399-.47-.14-1.05-.139h-2.35v7h1.35v-2.62zm-1.02-1.1v-2.19h.995q.28 0 .495.067.22.067.365.192.17.14.25.356.087.21.087.49 0 .23-.067.418-.062.19-.188.322-.15.17-.389.26-.24.087-.548.087z"/></symbol><symbol id="X"><path d="m6.55 3.51-1.23-2.51h-1.58l1.97 3.47-2.02 3.53h1.6l1.28-2.55 1.28 2.55h1.58l-2.02-3.53 1.97-3.47h-1.59z"/></symbol><g transform="rotate(-90 15 -5)"><use x="-13" href="#B"/><use x="-6.5" href="#R"/><use href="#X"/></g></svg>
