<?xml version="1.0" encoding="UTF-8" standalone="no"?>
<!-- Creator: CorelDRAW Home & Student X8 -->

<svg
   xml:space="preserve"
   width="7.9375mm"
   height="5.291667mm"
   version="1.1"
   style="clip-rule:evenodd;fill-rule:evenodd;image-rendering:optimizeQuality;shape-rendering:geometricPrecision;text-rendering:geometricPrecision"
   viewBox="0 0 793.75 529.1667"
   id="svg4"
   sodipodi:docname="Buryatya.svg"
   inkscape:version="1.4 (86a8ad7, 2024-10-11)"
   xmlns:inkscape="http://www.inkscape.org/namespaces/inkscape"
   xmlns:sodipodi="http://sodipodi.sourceforge.net/DTD/sodipodi-0.dtd"
   xmlns="http://www.w3.org/2000/svg"
   xmlns:svg="http://www.w3.org/2000/svg"><sodipodi:namedview
   id="namedview4"
   pagecolor="#ffffff"
   bordercolor="#000000"
   borderopacity="0.25"
   inkscape:showpageshadow="2"
   inkscape:pageopacity="0.0"
   inkscape:pagecheckerboard="0"
   inkscape:deskcolor="#d1d1d1"
   inkscape:document-units="mm"
   inkscape:zoom="1.4234583"
   inkscape:cx="425.37248"
   inkscape:cy="283.46457"
   inkscape:window-width="1920"
   inkscape:window-height="1009"
   inkscape:window-x="-8"
   inkscape:window-y="-8"
   inkscape:window-maximized="1"
   inkscape:current-layer="Layer_x0020_1" />
 <defs
   id="defs1">
  <style
   type="text/css"
   id="style1">
   <![CDATA[
    .fil2 {fill:#37307D}
    .fil0 {fill:#FECB09}
    .fil1 {fill:#FEFEFE}
   ]]>
  </style>
 </defs>
 <g
   id="Layer_x0020_1"
   inkscape:label="Layer 1"
   inkscape:groupmode="layer">
  <metadata
   id="CorelCorpID_0Corel-Layer" />
  <rect
   class="fil0"
   width="793.75"
   height="529.16669"
   id="rect1"
   x="0"
   y="0"
   style="stroke-width:0.0352778" />
  <rect
   class="fil1"
   width="793.75"
   height="396.875"
   id="rect2"
   x="0"
   y="0"
   style="stroke-width:0.0352778" />
  <rect
   class="fil2"
   width="793.75"
   height="264.58334"
   id="rect3"
   x="0"
   y="0"
   style="stroke-width:0.0352778" />
  <g
   id="_244026448"
   transform="scale(0.03527778)">
   <g
   id="g3">
    <path
   class="fil0"
   d="m 3660,4125 c -23,122 -35,248 -35,373 0,1104 896,2000 2000,2000 1104,0 2000,-896 2000,-2000 0,-125 -12,-251 -35,-373 -179,944 -1004,1627 -1965,1627 -961,0 -1786,-683 -1965,-1627 z m 0,0 z"
   id="path3" />
   </g>
   <circle
   class="fil0"
   cx="5625"
   cy="4000"
   r="1500"
   id="circle3" />
   <path
   class="fil0"
   d="m 5610,500 c 11,85 62,154 110,221 37,69 39,150 15,224 -12,76 -25,163 26,229 53,72 103,156 89,250 -2,97 -67,188 -54,284 25,64 98,146 139,44 52,-82 -25,-174 -2,-261 17,-87 88,-160 69,-254 -1,-82 -116,-160 -27,-237 31,-36 83,-108 78,-17 53,63 115,134 107,223 -8,88 -42,189 40,254 84,88 157,199 158,325 10,110 -14,227 -86,313 -95,79 -198,161 -324,181 -89,13 -177,37 -236,112 -82,68 -164,2 -215,-64 -88,-35 -186,-26 -276,-55 -119,-34 -232,-109 -287,-223 -57,-114 -64,-246 -56,-371 3,-100 60,-188 130,-257 68,-61 40,-160 43,-240 35,-90 129,-136 179,-215 60,-74 43,105 45,142 3,65 -69,105 -55,171 -8,85 93,127 102,209 37,81 -48,169 5,244 27,37 100,125 108,28 43,-75 38,-162 3,-239 -14,-86 -87,-166 -47,-255 30,-80 126,-122 132,-214 12,-85 -45,-157 -56,-239 -25,-92 17,-201 87,-264 18,-17 35,-36 56,-49 z"
   id="path4" />
  </g>
 </g>
</svg>
