<?xml version="1.0"?>
<svg width="30" height="20" xmlns="http://www.w3.org/2000/svg" xmlns:xlink="http://www.w3.org/1999/xlink"><symbol id="tgl" width="30" height="20" fill="#fcd116" viewBox="-28 -45 135 90"><path d="m-28-45h180V0L0 44z" fill="#0038a8"/><path d="m0 0h152v45H-28z" fill="#ce1126"/><path d="m49.942 0L-28 45v-90z" fill="#fff"/><circle r="9"/><g id="c"><g id="b"><path id="a" d="m0 0-3.164-15.909.945-.946zl-1.169-17.831L0-19l1.169 1.169zl2.219-16.855.945.946z"/><use transform="scale(-1)" xlink:href="#a"/></g><use transform="rotate(90)" xlink:href="#b"/></g><use transform="rotate(45)" xlink:href="#c"/><path id="d" d="m40.942 0-3.382 1.176-.073 3.579-2.163-2.853-3.427 1.037 2.045-2.939-2.045-2.939 3.427 1.037 2.163-2.853.073 3.579z"/><use transform="rotate(120,-2.019,0)" xlink:href="#d"/><use transform="rotate(240,-2.019,0)" xlink:href="#d"/></symbol><use href="#tgl"/><path d="M19 0h11v20H19z" fill="#fff"/><path transform="matrix(0 -.2.2 0 0 0)" d="m-92.63 139.6h12.43q2.81 0 5.06-.7 2.24-.6 3.81-1.9 1.57-1.2 2.41-3.1t.84-4.3q0-1.3-.35-2.5-.32-1.2-1.03-2.3-.68-.9-1.68-1.6-.98-.8-2.67-1.2v-.1q.87-.3 1.57-.8.72-.4 1.29-1 1.03-1 1.54-2.4.54-1.4.56-2.9 0-2.4-.89-4.1-.86-1.8-2.48-2.9-1.61-1.2-3.91-1.8-2.27-.5-5.05-.5h-11.45zm6.6-15.1h6.14q1.38.1 2.38.4 1.01.4 1.64 1t.91 1.6q.31.9.31 2t-.4 2q-.37.9-1.12 1.5-.68.6-1.71.9-1.01.3-2.3.3h-5.85zm0-4.7v-9h4.87q1.59.1 2.76.4 1.2.3 1.9 1 .54.6.79 1.3.29.8.29 1.8t-.33 1.8q-.31.8-.89 1.3-.7.7-1.85 1-1.15.4-2.65.4zm32.67 19.8h6.7l10.32-34.1h-7.26l-5.8 22.2-.64 2.3-.58-2.3-5.78-22.2h-7.26zm34.94-18.4-6.72-15.7h-7.21l10.56 22v12.1h6.56v-11.8l10.719-22.3h-7.189z"/></svg>
