<svg width="30" height="20" xmlns="http://www.w3.org/2000/svg"><symbol id="tgl" width="30" height="20" fill="#fcd116" viewBox="-28 -45 135 90"><path d="m-28-45h180V0L0 44z" fill="#0038a8"/><path d="m0 0h152v45H-28z" fill="#ce1126"/><path d="m49.942 0L-28 45v-90z" fill="#fff"/><circle r="9"/><g id="c"><g id="b"><path id="a" d="m0 0-3.164-15.909.945-.946zl-1.169-17.831L0-19l1.169 1.169zl2.219-16.855.945.946z"/><use transform="scale(-1)" href="#a"/></g><use transform="rotate(90)" href="#b"/></g><use transform="rotate(45)" href="#c"/><path id="d" d="m40.942 0-3.382 1.176-.073 3.579-2.163-2.853-3.427 1.037 2.045-2.939-2.045-2.939 3.427 1.037 2.163-2.853.073 3.579z"/><use transform="rotate(120,-2.019,0)" href="#d"/><use transform="rotate(240,-2.019,0)" href="#d"/></symbol><use href="#tgl"/><path d="M19 0h11v20H19z" fill="#fff"/><symbol id="B"><path d="m4.17 8h2.55q.58 0 1.04-.13.46-.13.784-.389t.495-.644q.17-.38.173-.889 0-.26-.0721-.51-.067-.25-.212-.462-.14-.2-.346-.346-.2-.15-.548-.245.18-.072.322-.168.15-.096.264-.212.21-.21.317-.49.11-.28.115-.601 0-.49-.183-.851-.18-.36-.51-.596-.33-.24-.803-.351-.47-.12-1.04-.115h-2.35zm1.36-3.09h1.26q.28 0 .49.077.21.072.337.207.13.13.188.317.062.19.062.423 0 .23-.082.409-.076.18-.23.312-.14.12-.351.183-.21.067-.471.0674h-1.2zm0-.976v-1.84h1q.33 0 .567.072.25.067.39.216.11.11.163.264.058.16.058.37 0 .2-.067.361-.063.16-.183.269-.14.14-.38.212-.24.067-.543.0721z"/></symbol><symbol id="V"><path d="m5.81 8h1.38l2.12-7h-1.49l-1.19 4.57-.13.476-.12-.471-1.19-4.57h-1.49z"/></symbol><symbol id="Y"><path d="m6.56 4.23-1.38-3.23h-1.48l2.17 4.52v2.48h1.35v-2.42l2.21-4.58h-1.49z"/></symbol><g transform="rotate(-90 15 -5)"><use x="-13" href="#B"/><use x="-6.5" href="#V"/><use href="#Y"/></g></svg>
