<?xml version="1.0"?>
<svg width="30" height="20" xmlns="http://www.w3.org/2000/svg" xmlns:xlink="http://www.w3.org/1999/xlink"><symbol id="tgl" width="30" height="20" fill="#fcd116" viewBox="-28 -45 135 90"><path d="m-28-45h180V0L0 44z" fill="#0038a8"/><path d="m0 0h152v45H-28z" fill="#ce1126"/><path d="m49.942 0L-28 45v-90z" fill="#fff"/><circle r="9"/><g id="c"><g id="b"><path id="a" d="m0 0-3.164-15.909.945-.946zl-1.169-17.831L0-19l1.169 1.169zl2.219-16.855.945.946z"/><use transform="scale(-1)" xlink:href="#a"/></g><use transform="rotate(90)" xlink:href="#b"/></g><use transform="rotate(45)" xlink:href="#c"/><path id="d" d="m40.942 0-3.382 1.176-.073 3.579-2.163-2.853-3.427 1.037 2.045-2.939-2.045-2.939 3.427 1.037 2.163-2.853.073 3.579z"/><use transform="rotate(120,-2.019,0)" xlink:href="#d"/><use transform="rotate(240,-2.019,0)" xlink:href="#d"/></symbol><use href="#tgl"/><path d="M19 0h11v20H19z" fill="#fff"/><path transform="matrix(0 -.2.2 0 0 0)" d="m-68.92 128.9h-6.57q-.1 1.5-.52 2.6t-1.15 1.8q-.72.7-1.75 1.1-1.03.3-2.32.3-.96 0-1.75-.2-.78-.3-1.41-.7-.58-.4-1.05-1.1-.45-.6-.77-1.4-.47-1.2-.71-2.8-.21-1.6-.21-3.7v-4.6q0-1.5.14-2.8t.45-2.4q.4-1.3 1.05-2.4.68-1 1.64-1.6.56-.3 1.22-.5.68-.1 1.45-.1 1.45 0 2.48.4 1.05.3 1.75 1.1.68.7 1.03 1.9.38 1.1.47 2.7h6.56q-.24-2.7-1.13-4.8-.89-2.2-2.43-3.6-1.55-1.5-3.75-2.3-2.17-.8-4.98-.8-1.9 0-3.56.5-1.64.5-3.02 1.3-1.54 1.1-2.76 2.6t-1.97 3.5q-.65 1.6-.98 3.4-.33 1.9-.33 4v4.5q0 2.2.35 4.2.38 2 1.06 3.6.7 1.6 1.71 3 1.03 1.4 2.34 2.3 1.42 1.1 3.2 1.6 1.8.6 3.91.6 2.67 0 4.87-.8t3.79-2.3q1.59-1.4 2.53-3.5.96-2 1.12-4.6zm7.56 10.7h12.42q2.81 0 5.06-.7 2.25-.6 3.82-1.9 1.56-1.2 2.41-3.1.84-1.9.84-4.3 0-1.3-.35-2.5-.33-1.2-1.03-2.3-.68-.9-1.69-1.6-.98-.8-2.67-1.2v-.1q.87-.3 1.57-.8.73-.4 1.29-1 1.03-1 1.54-2.4.54-1.4.57-2.9 0-2.4-.89-4.1-.87-1.8-2.48-2.9-1.62-1.2-3.91-1.8-2.27-.5-5.06-.5h-11.44zm6.6-15.1h6.13q1.38.1 2.39.4 1 .4 1.63 1 .64.6.92 1.6.3.9.3 2t-.4 2q-.37.9-1.12 1.5-.68.6-1.71.9-1 .3-2.29.3h-5.85zm0-4.7v-9h4.87q1.59.1 2.76.4 1.19.3 1.89 1 .54.6.8 1.3.28.8.28 1.8t-.33 1.8q-.3.8-.89 1.3-.7.7-1.85 1-1.14.4-2.64.4zm34.87 5.8 8.42 14h7.818l-11.888-19 11.466-15.1h-8.046l-8.29 11.4-3.09 4.2v-15.6h-6.6v34.1h6.6v-10.1z"/></svg>
