<svg width="30" height="20" xmlns="http://www.w3.org/2000/svg"><symbol id="tgl" width="30" height="20" fill="#fcd116" viewBox="-28 -45 135 90"><path d="m-28-45h180V0L0 44z" fill="#0038a8"/><path d="m0 0h152v45H-28z" fill="#ce1126"/><path d="m49.942 0L-28 45v-90z" fill="#fff"/><circle r="9"/><g id="c"><g id="b"><path id="a" d="m0 0-3.164-15.909.945-.946zl-1.169-17.831L0-19l1.169 1.169zl2.219-16.855.945.946z"/><use transform="scale(-1)" href="#a"/></g><use transform="rotate(90)" href="#b"/></g><use transform="rotate(45)" href="#c"/><path id="d" d="m40.942 0-3.382 1.176-.073 3.579-2.163-2.853-3.427 1.037 2.045-2.939-2.045-2.939 3.427 1.037 2.163-2.853.073 3.579z"/><use transform="rotate(120,-2.019,0)" href="#d"/><use transform="rotate(240,-2.019,0)" href="#d"/></symbol><use href="#tgl"/><path d="M19 0h11v20H19z" fill="#fff"/><path transform="matrix(0 -.2.2 0 0 0)" d="m-68.92 128.9h-6.57q-.1 1.5-.52 2.6t-1.15 1.8q-.72.7-1.75 1.1-1.03.3-2.32.3-.96 0-1.75-.2-.78-.3-1.41-.7-.58-.4-1.05-1.1-.45-.6-.77-1.4-.47-1.2-.71-2.8-.21-1.6-.21-3.7v-4.6q0-1.5.14-2.8t.45-2.4q.4-1.3 1.05-2.4.68-1 1.64-1.6.56-.3 1.22-.5.68-.1 1.45-.1 1.45 0 2.48.4 1.05.3 1.75 1.1.68.7 1.03 1.9.38 1.1.47 2.7h6.56q-.24-2.7-1.13-4.8-.89-2.2-2.43-3.6-1.55-1.5-3.75-2.3-2.17-.8-4.98-.8-1.9 0-3.56.5-1.64.5-3.02 1.3-1.54 1.1-2.76 2.6t-1.97 3.5q-.65 1.6-.98 3.4-.33 1.9-.33 4v4.5q0 2.2.35 4.2.38 2 1.06 3.6.7 1.6 1.71 3 1.03 1.4 2.34 2.3 1.42 1.1 3.2 1.6 1.8.6 3.91.6 2.67 0 4.87-.8t3.79-2.3q1.59-1.4 2.53-3.5.96-2 1.12-4.6zm28.57-4.3v-5.2h-13.99v-8.6h16.29v-5.3h-22.89v34.1h22.96v-5.4h-16.36v-9.6zm10.25 15h12.43q2.81 0 5.05-.7 2.25-.6 3.819-1.9 1.568-1.2 2.41-3.1.843-1.9.843-4.3 0-1.3-.351-2.5-.328-1.2-1.03-2.3-.679-.9-1.685-1.6-.983-.8-2.666-1.2v-.1q.86-.3 1.566-.8.726-.4 1.287-1 1.03-1 1.545-2.4.538-1.4.562-2.9 0-2.4-.89-4.1-.866-1.8-2.481-2.9-1.619-1.2-3.909-1.8-2.27-.5-5.05-.5h-11.45zm6.6-15.1h6.13q1.38.1 2.39.4 1.01.4 1.64 1t.91 1.6q.31.9.31 2t-.4 2q-.38.9-1.13 1.5-.67.6-1.7.9-1.01.3-2.3.3h-5.85zm0-4.7v-9h4.87q1.59.1 2.76.4 1.19.3 1.9 1 .53.6.79 1.3.28.8.28 1.8t-.32 1.8q-.31.8-.89 1.3-.71.7-1.85 1-1.15.4-2.65.4z"/></svg>
