<?xml version="1.0"?>
<svg width="30" height="20" xmlns="http://www.w3.org/2000/svg" xmlns:xlink="http://www.w3.org/1999/xlink"><symbol id="tgl" width="30" height="20" fill="#fcd116" viewBox="-28 -45 135 90"><path d="m-28-45h180V0L0 44z" fill="#0038a8"/><path d="m0 0h152v45H-28z" fill="#ce1126"/><path d="m49.942 0L-28 45v-90z" fill="#fff"/><circle r="9"/><g id="c"><g id="b"><path id="a" d="m0 0-3.164-15.909.945-.946zl-1.169-17.831L0-19l1.169 1.169zl2.219-16.855.945.946z"/><use transform="scale(-1)" xlink:href="#a"/></g><use transform="rotate(90)" xlink:href="#b"/></g><use transform="rotate(45)" xlink:href="#c"/><path id="d" d="m40.942 0-3.382 1.176-.073 3.579-2.163-2.853-3.427 1.037 2.045-2.939-2.045-2.939 3.427 1.037 2.163-2.853.073 3.579z"/><use transform="rotate(120,-2.019,0)" xlink:href="#d"/><use transform="rotate(240,-2.019,0)" xlink:href="#d"/></symbol><use href="#tgl"/><path d="M19 0h11v20H19z" fill="#fff"/><path transform="matrix(0 -.1.1 0 0 0)" d="m-137.8 257.8h-13.2q-.2 3.1-1 5.3-.9 2.2-2.3 3.6-1.5 1.4-3.5 2-2.1.7-4.7.7-1.9 0-3.5-.4-1.5-.5-2.8-1.4-1.1-.9-2.1-2.1-.9-1.3-1.5-2.9-1-2.4-1.4-5.6-.5-3.2-.5-7.3v-9.3q0-3 .3-5.6t.9-4.7q.8-2.8 2.1-4.9 1.4-2.1 3.3-3.2 1.1-.6 2.4-1 1.4-.3 2.9-.3 2.9 0 5 .8t3.5 2.2q1.4 1.6 2.1 3.9t.9 5.3h13.1q-.5-5.3-2.2-9.6-1.8-4.2-4.9-7.2-3.1-2.9-7.5-4.5-4.3-1.6-10-1.6-3.8 0-7.1 1-3.3.9-6 2.7-3.1 2.1-5.5 5.1-2.5 3.1-4 7-1.3 3.1-1.9 6.9-.7 3.7-.7 7.8v9.2q0 4.4.7 8.3.8 3.9 2.1 7.2 1.4 3.3 3.4 6 2.1 2.7 4.7 4.6 2.9 2.1 6.4 3.2 3.6 1.1 7.8 1.1 5.4 0 9.8-1.5 4.4-1.6 7.6-4.5 3.1-2.9 5-7.1 1.9-4.1 2.3-9.2zm57.11-8.5v-10.4h-28.01v-17.2h32.6v-10.7h-45.8v68.1h45.94v-10.6h-32.74v-19.2zm20.49 29.8h24.86q5.61 0 10.11-1.2 4.49-1.3 7.63-3.8 3.13-2.6 4.82-6.3 1.68-3.7 1.68-8.7 0-2.5-.7-4.9-.65-2.5-2.06-4.5-1.36-1.9-3.37-3.4-1.96-1.4-5.33-2.4 1.73-.7 3.13-1.6 1.45-1 2.58-2.1 2.06-2 3.09-4.7 1.07-2.8 1.12-5.9 0-4.8-1.78-8.3-1.73-3.5-4.96-5.8t-7.82-3.4q-4.54-1.1-10.11-1.1h-22.89zm13.2-30h12.27q2.76 0 4.77.7t3.28 2q1.26 1.3 1.82 3.1.61 1.8.61 4.1 0 2.2-.79 4-.75 1.8-2.25 3.1-1.36 1.1-3.42 1.7-2.01.7-4.59.7h-11.7zm0-9.5v-17.9h9.74q3.18 0 5.52.7 2.39.6 3.79 2.1 1.08 1 1.59 2.6.57 1.5.57 3.6 0 1.9-.66 3.5-.61 1.5-1.78 2.6-1.4 1.4-3.7 2.1-2.29.6-5.29.7z"/></svg>
