<?xml version="1.0" encoding="UTF-8" standalone="no"?>
<!-- Creator: CorelDRAW Home & Student X8 -->

<svg
   xml:space="preserve"
   width="7.9375mm"
   height="5.291667mm"
   version="1.1"
   style="clip-rule:evenodd;fill-rule:evenodd;image-rendering:optimizeQuality;shape-rendering:geometricPrecision;text-rendering:geometricPrecision"
   viewBox="0 0 793.75 529.1667"
   id="svg9"
   sodipodi:docname="Guam.svg"
   inkscape:version="1.4 (86a8ad7, 2024-10-11)"
   xmlns:inkscape="http://www.inkscape.org/namespaces/inkscape"
   xmlns:sodipodi="http://sodipodi.sourceforge.net/DTD/sodipodi-0.dtd"
   xmlns="http://www.w3.org/2000/svg"
   xmlns:svg="http://www.w3.org/2000/svg"><sodipodi:namedview
   id="namedview9"
   pagecolor="#ffffff"
   bordercolor="#000000"
   borderopacity="0.25"
   inkscape:showpageshadow="2"
   inkscape:pageopacity="0.0"
   inkscape:pagecheckerboard="0"
   inkscape:deskcolor="#d1d1d1"
   inkscape:document-units="mm"
   inkscape:zoom="1.4234583"
   inkscape:cx="425.37248"
   inkscape:cy="283.46457"
   inkscape:window-width="1920"
   inkscape:window-height="1009"
   inkscape:window-x="-8"
   inkscape:window-y="-8"
   inkscape:window-maximized="1"
   inkscape:current-layer="Layer_x0020_1" />
 <defs
   id="defs1">
  <style
   type="text/css"
   id="style1">
   <![CDATA[
    .fil6 {fill:#0E9370}
    .fil8 {fill:#1F1B20}
    .fil1 {fill:#33357E}
    .fil3 {fill:#3672B7}
    .fil2 {fill:#6BABDD}
    .fil7 {fill:#81521D}
    .fil4 {fill:#9D8530}
    .fil0 {fill:#C72139}
    .fil5 {fill:#FCEB08}
    .fil9 {fill:#FEFEFE}
   ]]>
  </style>
 </defs>
 <g
   id="Layer_x0020_1"
   inkscape:label="Layer 1"
   inkscape:groupmode="layer">
  <metadata
   id="CorelCorpID_0Corel-Layer" />
  <rect
   id="rect3197"
   class="fil0"
   width="793.75"
   height="529.16669"
   x="0"
   y="0"
   style="stroke-width:0.0352778" />
  <rect
   id="rect3199"
   class="fil1"
   x="24.059444"
   y="24.059444"
   width="745.6311"
   height="481.04779"
   style="stroke-width:0.0352778" />
  <g
   id="g3201"
   transform="scale(0.03527778)">
   <path
   id="path3203"
   class="fil0"
   d="m 11259,3409 c 0,0 -2736,1865 -2736,4064 0,2200 2736,4118 2736,4118 0,0 2718,-1760 2718,-4118 0,-2357 -2718,-4064 -2718,-4064 z" />
   <path
   id="path3205"
   class="fil2"
   d="m 13566,8201 c 60,-234 94,-477 94,-728 0,-2111 -2401,-3677 -2401,-3677 0,0 -2436,1619 -2436,3677 0,248 35,489 96,722 z" />
   <path
   id="path3207"
   class="fil3"
   d="m 11239,11186 c 0,0 1883,-1247 2326,-2991 H 8917 c 450,1710 2322,2991 2322,2991 z" />
   <g
   id="g1">
    <path
   id="path3209"
   class="fil4"
   d="m 13648,7720 c -412,293 -2730,153 -2730,153 l -130,328 h 2777 c 12,-45 22,-90 32,-136 z m 0,0 z" />
   </g>
   <g
   id="g3211">
    <path
   id="path3213"
   class="fil5"
   d="m 11116,9796 c -35,-246 -1119,-509 -1695,-487 180,282 383,540 588,769 293,-314 1119,-201 1107,-282 z" />
    <g
   id="g2">
     <path
   id="path3215"
   class="fil5"
   d="m 13311,8882 c -138,5 -388,27 -559,117 -247,128 -800,269 -1048,199 -247,-71 -635,152 -588,199 79,78 647,-11 647,493 0,422 -659,235 -918,411 -156,105 -265,220 -326,294 404,374 721,591 721,591 0,0 750,-497 1415,-1302 l 313,-415 c 126,-185 243,-380 343,-587 z m 0,0 z" />
    </g>
   </g>
   <g
   id="g3217">
    <g
   id="g3">
     <path
   id="path3219"
   class="fil6"
   d="m 11109,5631 c 0,0 -375,-220 -887,-115 -512,106 -623,427 -623,427 l 173,-79 4,70 154,-97 5,71 132,-123 22,79 119,-106 9,57 194,-123 v 79 l 155,-70 -13,75 291,-53 c 0,0 -689,229 -777,778 l 132,-158 14,75 84,-167 22,66 75,-154 22,92 114,-167 9,97 132,-180 v 87 l 142,-154 -5,115 c 0,0 137,-115 181,-115 l -163,212 53,17 c 0,0 -115,93 -124,110 -8,18 75,0 75,0 0,0 -101,105 -106,136 -4,31 67,0 67,0 0,0 -93,119 -106,163 -14,44 48,9 48,9 0,0 -57,141 -62,180 -4,40 67,-9 67,-9 l 39,242 71,-290 44,66 v -207 l 40,35 -5,-136 53,53 -26,-167 57,65 -9,-140 58,57 v -184 l 53,48 8,-127 62,30 c 0,0 9,-154 80,-149 70,4 158,79 123,114 l 62,-17 -13,149 57,-35 -9,109 49,-22 -18,141 58,-35 4,171 66,-48 -5,202 67,-52 v 167 l 61,-44 67,163 -14,-242 49,39 -88,-171 66,-9 -71,-115 66,5 -97,-114 66,-13 -145,-106 79,-31 -150,-96 58,-22 -106,-110 110,44 35,-71 133,106 v -106 l 114,159 14,-97 88,123 18,-57 61,123 31,-92 62,132 17,-93 58,145 53,-57 26,150 53,-58 48,132 62,-48 53,150 c 0,0 146,-801 -1103,-814 l -371,-70 z m 0,0 z" />
    </g>
    <g
   id="g4">
     <path
   id="path3221"
   class="fil6"
   d="m 10535,4918 71,88 -36,26 120,66 -27,49 119,44 -44,35 106,61 -71,22 128,62 -17,57 110,26 -48,40 127,101 146,101 102,-35 -40,-194 c 0,0 -419,-571 -746,-549 z m 0,0 z" />
    </g>
    <g
   id="g5">
     <path
   id="path3223"
   class="fil6"
   d="m 10919,4364 49,114 -67,13 150,150 -119,4 146,114 -71,23 133,132 -71,35 137,136 -93,35 155,141 -89,4 93,119 -84,26 c 0,0 102,189 97,269 l 172,8 c 0,0 27,-510 5,-576 l -44,31 13,-185 -67,40 -12,-220 -67,70 -17,-215 -49,75 -49,-212 -52,66 -49,-136 -40,53 -110,-115 z m 0,0 z" />
    </g>
    <g
   id="g6">
     <path
   id="path3225"
   class="fil6"
   d="m 11365,5648 c 48,-308 371,-756 975,-774 l -137,70 80,36 -159,57 79,48 -190,13 97,66 -141,18 -110,22 79,74 -159,18 102,53 c 0,0 -252,88 -269,114 0,0 847,-215 1055,185 l -164,-71 14,75 -115,-83 17,61 -119,-61 18,74 -124,-70 27,66 -159,-75 26,71 -136,-44 13,74 -137,-8 13,88 -423,-9 z m 0,0 z" />
    </g>
   </g>
   <g
   id="g3227">
    <g
   id="g7">
     <path
   id="path3229"
   class="fil7"
   d="m 11235,5913 89,-5 c -42,838 -3,2041 111,2486 194,757 760,1048 895,1121 76,41 47,211 -107,199 -152,-12 -686,-405 -870,-1109 -247,-944 -127,-2593 -118,-2692 z m 0,0 z" />
    </g>
    <circle
   id="circle3231"
   class="fil7"
   cx="11378"
   cy="5732"
   r="100" />
    <circle
   id="circle3233"
   class="fil7"
   cx="11219"
   cy="5696"
   r="93" />
    <circle
   id="circle3235"
   class="fil7"
   cx="11219"
   cy="5859"
   r="87" />
    <circle
   id="circle3237"
   class="fil7"
   cx="11338"
   cy="5815"
   r="93" />
   </g>
   <g
   id="g3239">
    <polygon
   id="path3241"
   class="fil8"
   points="10385,7694 10385,8767 10485,8767 10485,7694 " />
    <g
   id="g8">
     <path
   id="path3243"
   class="fil7"
   d="m 10709,8969 c 0,0 -41,8 -106,16 v -84 h -66 v 91 c -68,7 -150,12 -236,12 -91,0 -184,-6 -260,-14 v -87 h -73 v 79 c -63,-8 -104,-15 -104,-15 0,0 -19,110 431,110 450,0 414,-108 414,-108 z m 0,0 z" />
    </g>
    <path
   id="path3245"
   class="fil7"
   d="m 10282,8764 c 365,0 671,-59 671,-59 0,0 47,235 -671,235 -718,0 -659,-199 -659,-199 0,0 294,23 659,23 z" />
    <path
   id="path3247"
   class="fil9"
   d="m 9976,7755 c 0,0 565,211 788,950 0,0 -517,-105 -812,12 h -164 c 0,0 282,-410 188,-962 z" />
   </g>
   <g
   id="g3249">
    <g
   id="g9">
     <path
   id="path3251"
   class="fil0"
   d="m 10056,7199 h -105 c -8,-45 -28,-77 -59,-94 -18,-10 -37,-15 -58,-15 -42,0 -75,19 -101,60 -27,39 -40,100 -40,180 0,81 14,138 43,172 28,33 61,50 97,50 36,0 65,-13 88,-40 23,-26 37,-61 42,-104 h -118 v -110 h 212 v 353 h -70 l -11,-82 c -20,31 -39,53 -55,66 -28,22 -63,33 -104,33 -67,0 -122,-30 -165,-90 -45,-61 -68,-144 -68,-249 0,-107 23,-192 68,-256 46,-65 106,-97 180,-97 65,0 117,22 156,64 39,42 62,95 68,159 z m 0,0 z" />
    </g>
    <path
   id="path3253"
   class="fil0"
   d="m 10554,7398 v -405 h 108 v 405 c 0,45 5,78 13,99 13,36 41,55 84,55 43,0 71,-19 84,-55 8,-21 12,-54 12,-99 v -405 h 108 v 405 c 0,69 -8,124 -25,163 -31,71 -91,107 -179,107 -88,0 -148,-36 -180,-107 -16,-39 -25,-94 -25,-163 z" />
    <path
   id="path3255"
   class="fil0"
   d="m 11697,6993 -182,658 h 112 l 35,-135 h 188 l 33,135 h 115 l -181,-658 z m 59,150 64,259 h -129 z" />
    <path
   id="path3257"
   class="fil0"
   d="m 12670,7510 92,-517 h 153 v 658 h -99 v -445 c 0,-13 0,-31 0,-54 0,-23 1,-41 1,-53 l -97,552 h -103 l -96,-552 c 0,12 0,30 1,53 0,23 0,41 0,54 v 445 h -99 v -658 h 155 z" />
   </g>
  </g>
 </g>
</svg>
