<?xml version="1.0" encoding="UTF-8" standalone="no"?>
<!-- Creator: CorelDRAW Home & Student X8 -->

<svg
   xml:space="preserve"
   width="7.9375005mm"
   height="5.291666mm"
   version="1.1"
   style="clip-rule:evenodd;fill-rule:evenodd;image-rendering:optimizeQuality;shape-rendering:geometricPrecision;text-rendering:geometricPrecision"
   viewBox="0 0 793.75005 529.1666"
   id="svg10"
   sodipodi:docname="Çeçenistan.svg"
   inkscape:version="1.4 (86a8ad7, 2024-10-11)"
   xmlns:inkscape="http://www.inkscape.org/namespaces/inkscape"
   xmlns:sodipodi="http://sodipodi.sourceforge.net/DTD/sodipodi-0.dtd"
   xmlns="http://www.w3.org/2000/svg"
   xmlns:svg="http://www.w3.org/2000/svg"><sodipodi:namedview
   id="namedview10"
   pagecolor="#ffffff"
   bordercolor="#000000"
   borderopacity="0.25"
   inkscape:showpageshadow="2"
   inkscape:pageopacity="0.0"
   inkscape:pagecheckerboard="0"
   inkscape:deskcolor="#d1d1d1"
   inkscape:document-units="mm"
   inkscape:zoom="1.4234583"
   inkscape:cx="426.07499"
   inkscape:cy="283.46457"
   inkscape:window-width="1920"
   inkscape:window-height="1009"
   inkscape:window-x="-8"
   inkscape:window-y="-8"
   inkscape:window-maximized="1"
   inkscape:current-layer="Layer_x0020_1" />
 <defs
   id="defs1">
  <style
   type="text/css"
   id="style1">
   <![CDATA[
    .fil2 {fill:#2C7337}
    .fil1 {fill:#DE2D24}
    .fil3 {fill:#FECC09}
    .fil0 {fill:#FEFEFE}
    .fil4 {fill:#FECC09;fill-rule:nonzero}
   ]]>
  </style>
 </defs>
 <g
   id="Layer_x0020_1"
   inkscape:label="Layer 1"
   inkscape:groupmode="layer"
   transform="translate(12,3)">
  <metadata
   id="CorelCorpID_0Corel-Layer" />
  <g
   id="g1"
   transform="matrix(0.03524019,0,0,0.03526367,-11.577118,-2.894209)">
   <path
   class="fil0"
   d="M -12,-3 H 22488 V 14998 H -12 Z m 0,0 z"
   id="path1" />
  </g>
  <g
   id="g2"
   transform="matrix(0.03524019,0,0,0.03526367,-11.577118,-2.894209)">
   <path
   class="fil1"
   d="m 2108,10206 h 20404 v 4797 H 2108 Z m 0,0 z"
   id="path2" />
  </g>
  <g
   id="g3"
   transform="matrix(0.03524019,0,0,0.03526367,-11.577118,-2.894209)">
   <path
   class="fil2"
   d="M 2108,3 H 22512 V 8857 H 2108 Z m 0,0 z"
   id="path3" />
  </g>
  <polygon
   id="c"
   class="fil3"
   points="461,3750 1060,3700 1659,3750 1060,3800 "
   transform="matrix(0.03524019,0,0,0.03526367,-11.577118,-2.894209)" />
  <path
   class="fil4"
   d="m 4.5276485,127.58138 21.1088725,-1.76319 c 0.105721,0 0.211442,0 0.281922,0 l 21.108873,1.76319 c 0.951485,0.0705 1.691529,0.95211 1.621049,1.90423 -0.07048,0.88159 -0.775285,1.55161 -1.621049,1.62213 l -21.108873,1.76319 c -0.105721,0 -0.176201,0 -0.281922,0 L 4.5276485,131.10774 c -0.9514851,-0.0705 -1.6562889,-0.95212 -1.5858085,-1.90423 0.07048,-0.8816 0.7752841,-1.55161 1.5858085,-1.62213 z"
   id="path4"
   style="stroke-width:0.0352519" />
  <path
   class="fil4"
   d="m 26.588007,15.407636 c 0.951485,-0.246845 1.90297,0.317373 2.114411,1.269492 0.246681,0.952119 -0.317162,1.904238 -1.268647,2.151085 -0.845764,0.211582 -1.656289,0.564218 -2.361093,1.022646 -1.409607,0.952119 -2.466813,2.327403 -3.065896,3.914267 -0.634323,1.62213 -0.775284,3.491104 -0.317162,5.395342 0.281922,1.128438 0.775284,2.256875 1.515328,3.350049 v 0.03526 c 0.740044,1.1637 1.656289,2.080556 2.678255,2.821093 1.86773,1.375284 4.158342,2.045293 6.484194,2.01003 2.361093,0 4.792666,-0.740537 6.977558,-2.11582 1.409607,-0.916856 2.713494,-2.151085 3.84118,-3.667422 2.572534,-3.596895 3.277338,-7.828536 2.572534,-11.989649 C 44.983385,14.984472 42.481332,10.505986 38.816352,7.1206736 37.935347,6.2743455 36.913382,5.5338084 35.891416,4.8990623 32.120716,2.6069237 27.715693,1.725332 23.41639,2.3248144 19.117087,2.8890331 14.958744,4.934326 11.716647,8.4606932 10.800402,9.448076 9.9546375,10.576514 9.1793534,11.846005 5.3029326,18.334521 4.5981288,25.069882 5.8315354,31.558398 7.3821037,39.633779 11.963328,47.321259 17.390317,53.598193 l 18.853501,18.548691 c 5.814631,6.735361 10.783498,15.022323 12.475027,23.838241 1.409608,7.264315 0.563843,14.810745 -3.841181,22.110325 -0.916244,1.51634 -1.93821,2.89162 -3.065896,4.09058 -3.73546,4.09059 -8.598606,6.48851 -13.567473,7.22906 -5.004106,0.70527 -10.149174,-0.21158 -14.518957,-2.8211 -1.268647,-0.74053 -2.431573,-1.62213 -3.559259,-2.64477 v 0 c -4.2640632,-4.02006 -7.1889988,-9.20382 -8.1404839,-14.49337 -0.8810047,-5.04271 0,-10.226467 3.1716169,-14.634426 1.3743674,-1.868975 2.9954161,-3.385312 4.7926657,-4.549013 2.7134943,-1.763184 5.8146313,-2.680039 8.8452873,-2.680039 3.065896,-0.03526 6.061312,0.846328 8.563366,2.644775 1.339127,0.987383 2.572534,2.256875 3.559259,3.808476 0.881005,1.410548 1.515328,2.856357 1.86773,4.302168 0.669563,2.680039 0.458122,5.360079 -0.422882,7.652209 -0.881005,2.36268 -2.466814,4.33744 -4.510744,5.67746 -0.986726,0.63475 -2.079172,1.09317 -3.277338,1.41054 -0.916245,0.21159 -1.86773,-0.35263 -2.114411,-1.30475 -0.246682,-0.91685 0.317161,-1.86898 1.268646,-2.11582 0.810525,-0.21158 1.550569,-0.52896 2.220132,-0.95212 1.409608,-0.91686 2.537294,-2.3274 3.136377,-3.94953 0.634323,-1.69265 0.775284,-3.59689 0.317162,-5.57166 -0.281922,-1.093174 -0.740044,-2.186348 -1.444848,-3.244259 -0.740044,-1.163701 -1.656289,-2.11582 -2.678254,-2.856357 -1.86773,-1.340019 -4.123102,-2.010029 -6.484195,-2.010029 -2.361093,0.03526 -4.792666,0.740537 -6.942317,2.151084 -1.444848,0.916856 -2.7487348,2.151084 -3.8411807,3.667421 -2.6077739,3.56163 -3.3125777,7.79328 -2.5725338,11.95439 0.8105244,4.54901 3.347818,9.0275 7.0832775,12.48334 0.916245,0.88159 1.902971,1.58686 2.960176,2.22161 3.66498,2.18635 7.999523,2.96214 12.228346,2.36266 4.193582,-0.63474 8.316684,-2.64477 11.488301,-6.10061 0.951485,-1.05791 1.83249,-2.22161 2.607774,-3.52637 l 0.03524,-0.0352 c 3.911661,-6.45326 4.651705,-13.15335 3.383058,-19.641868 C 43.714738,88.544491 39.063033,80.821746 33.636044,74.50955 L 14.782543,55.960858 C 9.0031524,49.260761 4.069526,40.973798 2.377997,32.228407 1.0036296,24.928827 1.8141539,17.347139 6.1839373,10.047559 v -0.03526 C 7.064942,8.5664842 8.0516673,7.2617284 9.1441132,6.0627635 12.950054,1.936914 17.88368,-0.46101567 22.958267,-1.1662891 c 5.074587,-0.7052735 10.290135,0.31737305 14.730399,3.0326757 1.233407,0.7758008 2.431573,1.6573926 3.524019,2.6800391 4.193582,3.9142675 7.083278,9.0980273 7.999523,14.4581053 0.881004,5.042705 -0.03524,10.226464 -3.206858,14.634423 -1.339127,1.904239 -2.995416,3.420576 -4.792665,4.584277 -2.713495,1.763184 -5.814631,2.644776 -8.845288,2.68004 -3.065896,0 -6.061312,-0.881592 -8.563365,-2.68004 -1.339128,-0.987382 -2.537294,-2.22161 -3.524019,-3.773212 -0.951485,-1.410547 -1.621049,-2.926884 -1.973451,-4.407959 -0.669563,-2.644775 -0.458122,-5.254287 0.387642,-7.511162 0.881005,-2.292139 2.431573,-4.266904 4.440264,-5.606923 v 0 c 1.021966,-0.67001 2.184892,-1.198966 3.453539,-1.516339 z"
   id="path5"
   style="stroke-width:0.0352519" />
  <path
   class="fil4"
   d="m 27.433771,239.86091 c 0.951485,0.24684 1.515328,1.19896 1.268647,2.15108 -0.211441,0.95212 -1.162926,1.51634 -2.114411,1.26949 -1.268647,-0.31737 -2.431573,-0.84633 -3.453539,-1.51634 v 0 c -2.008691,-1.34002 -3.559259,-3.31478 -4.440264,-5.60692 -0.845764,-2.25687 -1.057205,-4.86639 -0.387642,-7.51116 0.352402,-1.48108 1.021966,-2.99742 1.973451,-4.44322 0.986725,-1.51634 2.184891,-2.75057 3.524019,-3.73795 2.502053,-1.79845 5.497469,-2.68004 8.563365,-2.68004 3.030657,0.0352 6.131793,0.91686 8.845288,2.68004 1.797249,1.16369 3.453538,2.7153 4.792665,4.58427 3.171617,4.40796 4.087862,9.59172 3.206858,14.63443 -0.916245,5.36008 -3.805941,10.54383 -7.999523,14.45811 -1.092446,1.02264 -2.290612,1.90423 -3.524019,2.68003 -4.440264,2.7153 -9.655812,3.73795 -14.730399,3.03268 C 17.88368,259.15013 12.950054,256.7522 9.1441132,252.62636 8.0516673,251.42739 7.064942,250.12263 6.1839373,248.67683 v -0.0352 C 1.8141539,241.34198 1.0036296,233.76029 2.377997,226.46071 4.069526,217.71532 9.0031524,209.42836 14.782543,202.72826 l 18.853501,-18.54869 c 5.426989,-6.3122 10.078694,-14.03494 11.629262,-22.11033 1.268647,-6.48851 0.528603,-13.18861 -3.383058,-19.64186 l -0.03524,-0.0352 c -0.775284,-1.30476 -1.656289,-2.46846 -2.607774,-3.52637 -3.171617,-3.45584 -7.294719,-5.46587 -11.488301,-6.10061 -4.228823,-0.59949 -8.563366,0.17632 -12.228346,2.36266 -1.057205,0.63474 -2.043931,1.34002 -2.960176,2.22161 -3.7354595,3.45584 -6.2727531,7.93432 -7.0832775,12.48334 -0.7400439,4.16111 -0.03524,8.39275 2.5725338,11.95438 1.0924459,1.51634 2.3963327,2.75058 3.8411807,3.66743 2.149651,1.41055 4.581224,2.11582 6.942317,2.15108 2.361093,0 4.616465,-0.67001 6.484195,-2.01003 1.021965,-0.74053 1.93821,-1.69266 2.678254,-2.85635 0.704804,-1.05792 1.162926,-2.15109 1.444848,-3.24426 0.458122,-1.97477 0.317161,-3.879 -0.317162,-5.57166 -0.599083,-1.62213 -1.726769,-3.03268 -3.136377,-3.94953 -0.669563,-0.42316 -1.409607,-0.74055 -2.220132,-0.95213 -0.951485,-0.24684 -1.515328,-1.19895 -1.268646,-2.11582 0.246681,-0.95211 1.198166,-1.51633 2.114411,-1.30475 1.198166,0.31738 2.290612,0.7758 3.277338,1.41055 2.04393,1.34002 3.629739,3.31478 4.510744,5.67745 0.881004,2.29213 1.092445,4.97218 0.422882,7.65221 -0.352402,1.44581 -0.986725,2.89163 -1.86773,4.30218 -0.986725,1.55159 -2.220132,2.82109 -3.559259,3.80847 -2.502054,1.79845 -5.49747,2.68004 -8.563366,2.64477 -3.030656,0 -6.131793,-0.91685 -8.8452873,-2.68003 C 8.1926281,167.25304 6.5715794,165.7367 5.197212,163.86773 2.0255951,159.45977 1.1445904,154.27601 2.0255951,149.2333 2.9770802,143.94376 5.9020158,138.76 10.166079,134.73994 v 0 c 1.127686,-1.02265 2.290612,-1.90423 3.559259,-2.64478 4.369783,-2.60951 9.514851,-3.52637 14.518957,-2.82109 4.968867,0.74054 9.832013,3.13846 13.567473,7.22906 1.127686,1.19896 2.149652,2.57424 3.065896,4.09058 4.405024,7.29958 5.250789,14.84601 3.841181,22.11033 -1.691529,8.81591 -6.660396,17.10287 -12.475027,23.83823 l -18.853501,18.54869 c -5.426989,6.27694 -10.0082133,13.96442 -11.5587816,22.0398 -1.2334066,6.48852 -0.5286028,13.22387 3.347818,19.71239 0.7752841,1.26949 1.6210486,2.39793 2.5372936,3.38531 3.242097,3.52637 7.40044,5.57166 11.699743,6.13589 4.299303,0.59947 8.704326,-0.28211 12.475026,-2.57426 1.021966,-0.63474 2.043931,-1.37527 2.924936,-2.22161 3.66498,-3.38531 6.167033,-7.8638 6.942317,-12.48334 0.704804,-4.16111 0,-8.39275 -2.572534,-11.98965 -1.127686,-1.51634 -2.431573,-2.75056 -3.84118,-3.66742 -2.184892,-1.37528 -4.616465,-2.11582 -6.977558,-2.11582 -2.325852,-0.0352 -4.616464,0.63475 -6.484194,2.01003 -1.021966,0.74053 -1.938211,1.6574 -2.678255,2.8211 v 0.0352 c -0.740044,1.09317 -1.233406,2.22161 -1.515328,3.35004 -0.458122,1.90424 -0.317161,3.77322 0.317162,5.39535 0.599083,1.58686 1.656289,2.96215 3.065896,3.91426 0.704804,0.45844 1.515329,0.81107 2.361093,1.02266 z"
   id="path6"
   style="stroke-width:0.0352519" />
  <polygon
   class="fil3"
   points="461,11245 1060,11195 1659,11245 1060,11295 "
   id="polygon6"
   transform="matrix(0.03524019,0,0,0.03526367,-11.577118,-2.894209)" />
  <path
   class="fil4"
   d="M 4.5276485,391.88259 25.636521,390.1194 c 0.105721,0 0.211442,0 0.281922,0 l 21.108873,1.76319 c 0.951485,0.0706 1.691529,0.95212 1.621049,1.90424 -0.07048,0.88159 -0.775285,1.5516 -1.621049,1.62213 l -21.108873,1.76318 c -0.105721,0 -0.176201,0 -0.281922,0 L 4.5276485,395.40896 c -0.9514851,-0.0705 -1.6562889,-0.95212 -1.5858085,-1.90424 0.07048,-0.88159 0.7752841,-1.5516 1.5858085,-1.62213 z"
   id="path7"
   style="stroke-width:0.0352519" />
  <path
   class="fil4"
   d="m 26.588007,279.70885 c 0.951485,-0.24684 1.90297,0.31737 2.114411,1.2695 0.246681,0.95211 -0.317162,1.90423 -1.268647,2.15108 -0.845764,0.21158 -1.656289,0.56421 -2.361093,1.02265 -1.409607,0.95211 -2.466813,2.3274 -3.065896,3.91427 -0.634323,1.62213 -0.775284,3.4911 -0.317162,5.39534 0.281922,1.12843 0.775284,2.25687 1.515328,3.35004 v 0.0352 c 0.740044,1.16371 1.656289,2.08056 2.678255,2.8211 1.86773,1.37529 4.158342,2.04529 6.484194,2.01003 2.361093,0 4.792666,-0.74053 6.977558,-2.11582 1.409607,-0.91686 2.713494,-2.15108 3.84118,-3.66742 2.572534,-3.5969 3.277338,-7.82853 2.572534,-11.98966 -0.775284,-4.61953 -3.277337,-9.09801 -6.942317,-12.48333 -0.881005,-0.84633 -1.90297,-1.58686 -2.924936,-2.22161 -3.7707,-2.29214 -8.175723,-3.17373 -12.475026,-2.57425 -4.299303,0.56422 -8.457646,2.60952 -11.699743,6.13587 -0.916245,0.98739 -1.7620095,2.11583 -2.5372936,3.38532 -3.8764208,6.48852 -4.5812246,13.22387 -3.347818,19.7124 1.5505683,8.07537 6.1317926,15.76285 11.5587816,22.03979 l 18.853501,18.54869 c 5.814631,6.73536 10.783498,15.02233 12.475027,23.83824 1.409608,7.26432 0.563843,14.81074 -3.841181,22.11032 -0.916244,1.51634 -1.93821,2.89163 -3.065896,4.09059 -3.73546,4.09059 -8.598606,6.48852 -13.567473,7.22905 -5.004106,0.70528 -10.149174,-0.21158 -14.518957,-2.82109 -1.268647,-0.74054 -2.431573,-1.62213 -3.559259,-2.64478 v 0 c -4.2640632,-4.02006 -7.1889988,-9.20382 -8.1404839,-14.49336 -0.8810047,-5.04271 0,-10.22647 3.1716169,-14.63443 1.3743674,-1.86897 2.9954161,-3.38531 4.7926657,-4.54902 2.7134943,-1.76318 5.8146313,-2.68003 8.8452873,-2.68003 3.065896,-0.0352 6.061312,0.84632 8.563366,2.64477 1.339127,0.98739 2.572534,2.25687 3.559259,3.80848 0.881005,1.41055 1.515328,2.85636 1.86773,4.30217 0.669563,2.68004 0.458122,5.36007 -0.422882,7.65222 -0.881005,2.36266 -2.466814,4.33743 -4.510744,5.67745 -0.986726,0.63474 -2.079172,1.09317 -3.277338,1.41054 -0.916245,0.21159 -1.86773,-0.35264 -2.114411,-1.30475 -0.246682,-0.91686 0.317161,-1.86898 1.268646,-2.11582 0.810525,-0.21158 1.550569,-0.52896 2.220132,-0.95212 1.409608,-0.91685 2.537294,-2.3274 3.136377,-3.94953 0.634323,-1.69266 0.775284,-3.5969 0.317162,-5.57166 -0.281922,-1.09318 -0.740044,-2.18635 -1.444848,-3.24427 -0.740044,-1.16369 -1.656289,-2.11581 -2.678254,-2.85635 -1.86773,-1.34002 -4.123102,-2.01003 -6.484195,-2.01003 -2.361093,0.0352 -4.792666,0.74054 -6.942317,2.15109 -1.444848,0.91685 -2.7487348,2.15108 -3.8411807,3.66742 -2.6077739,3.56163 -3.3125777,7.79327 -2.5725338,11.95438 0.8105244,4.54902 3.347818,9.0275 7.0832775,12.48334 0.916245,0.88159 1.902971,1.62213 2.960176,2.22161 3.66498,2.18635 7.999523,2.96215 12.228346,2.36267 4.193582,-0.63475 8.316684,-2.64478 11.488301,-6.10062 0.951485,-1.05791 1.83249,-2.22161 2.607774,-3.52637 l 0.03524,-0.0352 c 3.911661,-6.45325 4.651705,-13.15335 3.383058,-19.64186 -1.550568,-8.07539 -6.202273,-15.79813 -11.629262,-22.11032 L 14.782543,320.26208 C 9.0031524,313.56197 4.069526,305.27502 2.377997,296.52962 1.0036296,289.23004 1.8141539,281.64835 6.1839373,274.34877 v -0.0352 c 0.8810047,-1.44581 1.86773,-2.75056 2.9601759,-3.94953 3.8059408,-4.12585 8.7395668,-6.52378 13.8141538,-7.22906 5.074587,-0.70527 10.290135,0.31739 14.730399,3.03268 1.233407,0.7758 2.431573,1.6574 3.524019,2.68004 4.193582,3.91426 7.083278,9.09803 7.999523,14.45811 0.881004,5.0427 -0.03524,10.22647 -3.206858,14.63442 -1.339127,1.90424 -2.995416,3.42058 -4.792665,4.58427 -2.713495,1.76319 -5.814631,2.64479 -8.845288,2.68005 -3.065896,0 -6.061312,-0.8816 -8.563365,-2.68005 -1.339128,-0.98737 -2.537294,-2.22161 -3.524019,-3.77321 -0.951485,-1.41054 -1.621049,-2.92688 -1.973451,-4.40795 -0.669563,-2.64478 -0.458122,-5.25429 0.387642,-7.51117 0.881005,-2.29213 2.431573,-4.2669 4.440264,-5.60692 v 0 c 1.021966,-0.67001 2.184892,-1.19897 3.453539,-1.51634 z"
   id="path8"
   style="stroke-width:0.0352519" />
  <path
   class="fil4"
   d="m 27.433771,504.16212 c 0.951485,0.24684 1.515328,1.19897 1.268647,2.15108 -0.211441,0.95212 -1.162926,1.51634 -2.114411,1.2695 -1.268647,-0.31738 -2.431573,-0.84633 -3.453539,-1.51634 v 0 c -2.008691,-1.34002 -3.559259,-3.31478 -4.440264,-5.60693 -0.845764,-2.25687 -1.057205,-4.86638 -0.387642,-7.51116 0.352402,-1.48108 1.021966,-2.99741 1.973451,-4.44322 0.986725,-1.51634 2.184891,-2.75057 3.524019,-3.73795 2.502053,-1.79845 5.497469,-2.68004 8.563365,-2.68004 3.030657,0.0352 6.131793,0.91686 8.845288,2.68004 1.797249,1.16371 3.453538,2.7153 4.792665,4.58428 3.171617,4.40796 4.087862,9.59171 3.206858,14.63442 -0.916245,5.36008 -3.805941,10.54384 -7.999523,14.45811 -1.092446,1.02264 -2.290612,1.90424 -3.524019,2.68003 -4.440264,2.71531 -9.655812,3.73795 -14.730399,3.03268 -5.074587,-0.70527 -10.008213,-3.1032 -13.8141538,-7.22905 -1.0924459,-1.19897 -2.0791712,-2.50372 -2.9601759,-3.94953 v -0.0352 C 1.8141539,505.64319 1.0036296,498.06151 2.377997,490.76192 4.069526,482.01653 9.0031524,473.72957 14.782543,467.02947 l 18.853501,-18.54869 c 5.426989,-6.31219 10.078694,-14.03494 11.629262,-22.11031 1.268647,-6.48853 0.528603,-13.18862 -3.383058,-19.64187 l -0.03524,-0.0352 c -0.775284,-1.30476 -1.656289,-2.46845 -2.607774,-3.52637 -3.171617,-3.45584 -7.294719,-5.46587 -11.488301,-6.10061 -4.228823,-0.59948 -8.563366,0.17632 -12.228346,2.36266 -1.057205,0.63476 -2.043931,1.34003 -2.960176,2.22161 -3.7354595,3.45584 -6.2727531,7.93434 -7.0832775,12.48335 -0.7400439,4.16111 -0.03524,8.39276 2.5725338,11.95438 1.0924459,1.51634 2.3963327,2.75057 3.8411807,3.66742 2.149651,1.41055 4.581224,2.11583 6.942317,2.15109 2.361093,0 4.616465,-0.67001 6.484195,-2.01003 1.021965,-0.74054 1.93821,-1.69265 2.678254,-2.85636 0.704804,-1.05791 1.162926,-2.15108 1.444848,-3.24426 0.458122,-1.97476 0.317161,-3.879 -0.317162,-5.57166 -0.599083,-1.62213 -1.726769,-3.03267 -3.136377,-3.94953 -0.669563,-0.42316 -1.409607,-0.74053 -2.220132,-0.95211 -0.951485,-0.24685 -1.515328,-1.19897 -1.268646,-2.11582 0.246681,-0.95213 1.198166,-1.51634 2.114411,-1.30476 1.198166,0.31737 2.290612,0.7758 3.277338,1.41055 2.04393,1.34001 3.629739,3.31478 4.510744,5.67745 0.881004,2.29214 1.092445,4.97217 0.422882,7.65221 -0.352402,1.44581 -0.986725,2.89162 -1.86773,4.30217 -0.986725,1.5516 -2.220132,2.8211 -3.559259,3.80848 -2.502054,1.79844 -5.49747,2.68003 -8.563366,2.64477 -3.030656,0 -6.131793,-0.91685 -8.8452873,-2.68004 -1.7972496,-1.1637 -3.4182983,-2.68003 -4.7926657,-4.54901 -3.1716169,-4.40796 -4.0526216,-9.59172 -3.1716169,-14.63442 0.9514851,-5.28956 3.8764207,-10.47332 8.1404839,-14.49337 v 0 c 1.127686,-1.02266 2.290612,-1.90424 3.559259,-2.64478 4.369783,-2.60951 9.514851,-3.52636 14.518957,-2.82109 4.968867,0.74054 9.832013,3.13847 13.567473,7.22905 1.127686,1.19897 2.149652,2.57424 3.065896,4.09058 4.405024,7.29959 5.250789,14.84601 3.841181,22.11033 -1.691529,8.81592 -6.660396,17.10288 -12.475027,23.83824 l -18.853501,18.54869 c -5.426989,6.27693 -10.0082133,13.96441 -11.5587816,22.03979 -1.2334066,6.48852 -0.5286028,13.22389 3.347818,19.7124 0.7752841,1.26949 1.6210486,2.39792 2.5372936,3.38531 3.242097,3.52637 7.40044,5.57166 11.699743,6.13588 4.299303,0.59948 8.704326,-0.28211 12.475026,-2.57425 1.021966,-0.63475 2.043931,-1.37528 2.924936,-2.22161 3.66498,-3.38531 6.167033,-7.8638 6.942317,-12.48334 0.704804,-4.16111 0,-8.39276 -2.572534,-11.98965 -1.127686,-1.51633 -2.431573,-2.75056 -3.84118,-3.66743 -2.184892,-1.37527 -4.616465,-2.11581 -6.977558,-2.11581 -2.325852,-0.0352 -4.616464,0.63475 -6.484194,2.01002 -1.021966,0.74055 -1.938211,1.69266 -2.678255,2.8211 v 0.0352 c -0.740044,1.09317 -1.233406,2.22161 -1.515328,3.35005 -0.458122,1.90424 -0.317161,3.77321 0.317162,5.39534 0.599083,1.58686 1.656289,2.96214 3.065896,3.91427 0.704804,0.45842 1.515329,0.81106 2.361093,1.02264 z"
   id="path9"
   style="stroke-width:0.0352519" />
  <polygon
   class="fil3"
   points="461,7498 1060,7448 1659,7498 1060,7547 "
   id="polygon9"
   transform="matrix(0.03524019,0,0,0.03526367,-11.577118,-2.894209)" />
  <path
   class="fil4"
   d="m 4.5276485,259.74962 21.1088725,-1.76318 c 0.105721,0 0.211442,0 0.281922,0 l 21.108873,1.76318 c 0.951485,0.0706 1.691529,0.91685 1.621049,1.90424 -0.07048,0.84632 -0.775285,1.51633 -1.621049,1.58685 l -21.108873,1.76319 c -0.105721,0 -0.176201,0 -0.281922,0 L 4.5276485,263.24071 c -0.9514851,-0.0705 -1.6562889,-0.91685 -1.5858085,-1.90423 0.07048,-0.84633 0.7752841,-1.51633 1.5858085,-1.58686 z"
   id="path10"
   style="stroke-width:0.0352519" />
 </g>
</svg>
