<?xml version="1.0" encoding="UTF-8" standalone="no"?>
<!-- Creator: CorelDRAW Home & Student X8 -->

<svg
   xml:space="preserve"
   width="7.9375005mm"
   height="5.291667mm"
   version="1.1"
   style="clip-rule:evenodd;fill-rule:evenodd;image-rendering:optimizeQuality;shape-rendering:geometricPrecision;text-rendering:geometricPrecision"
   viewBox="0 0 793.75005 529.1667"
   id="svg12"
   sodipodi:docname="Çuvaşistan.svg"
   inkscape:version="1.4 (86a8ad7, 2024-10-11)"
   xmlns:inkscape="http://www.inkscape.org/namespaces/inkscape"
   xmlns:sodipodi="http://sodipodi.sourceforge.net/DTD/sodipodi-0.dtd"
   xmlns="http://www.w3.org/2000/svg"
   xmlns:svg="http://www.w3.org/2000/svg"><sodipodi:namedview
   id="namedview12"
   pagecolor="#ffffff"
   bordercolor="#000000"
   borderopacity="0.25"
   inkscape:showpageshadow="2"
   inkscape:pageopacity="0.0"
   inkscape:pagecheckerboard="0"
   inkscape:deskcolor="#d1d1d1"
   inkscape:document-units="mm"
   inkscape:zoom="1.4234583"
   inkscape:cx="425.37248"
   inkscape:cy="283.46457"
   inkscape:window-width="1920"
   inkscape:window-height="1009"
   inkscape:window-x="-8"
   inkscape:window-y="-8"
   inkscape:window-maximized="1"
   inkscape:current-layer="Layer_x0020_1" />
 <defs
   id="defs1">
  <style
   type="text/css"
   id="style1">
   <![CDATA[
    .fil1 {fill:#C91F4E}
    .fil0 {fill:#FDEB04}
   ]]>
  </style>
 </defs>
 <g
   id="Layer_x0020_1"
   inkscape:label="Layer 1"
   inkscape:groupmode="layer">
  <metadata
   id="CorelCorpID_0Corel-Layer" />
  <polygon
   class="fil0"
   points="0,15000 0,0 22500,0 22500,15000 "
   id="polygon1"
   transform="scale(0.03527778)" />
  <polygon
   class="fil1"
   points="10570,1400 10570,700 11250,1400 11930,700 11930,1400 12610,1400 11930,2060 12610,2740 11930,2740 11930,3420 11250,2740 10570,3420 10570,2740 9890,2740 10570,2060 9890,1400 "
   id="polygon2"
   transform="scale(0.03527778)" />
  <polygon
   class="fil0"
   points="10910,1720 10910,1400 11250,1720 11590,1400 11590,1720 11930,1720 11590,2060 11930,2400 11590,2400 11590,2740 11250,2400 10910,2740 10910,2400 10570,2400 10910,2060 10570,1720 "
   id="polygon3"
   transform="scale(0.03527778)" />
  <polygon
   class="fil1"
   points="7330,5960 8270,6900 8770,6900 9470,6200 8770,5540 8350,5960 8610,6200 8770,6040 8950,6200 8610,6560 8010,5960 8770,5180 10830,7240 10830,6740 9030,4940 8350,4940 "
   id="polygon4"
   transform="scale(0.03527778)" />
  <polygon
   class="fil1"
   points="10470,7740 9630,6900 9030,7480 9370,7840 9530,7660 9370,7480 9630,7220 10050,7660 9290,8420 8770,7900 8770,7220 9630,6400 10830,7580 10830,11640 0,11640 0,11280 10470,11280 "
   id="polygon5"
   transform="scale(0.03527778)" />
  <polygon
   class="fil1"
   points="0,12000 11070,12000 11070,6640 9210,4760 9210,4100 10210,3080 11170,4000 11170,4520 10470,5180 9790,4520 10210,4100 10470,4340 10310,4520 10470,4700 10810,4340 10210,3760 9470,4520 11250,6320 13050,4520 12290,3760 11690,4340 12030,4700 12190,4520 12030,4340 12290,4100 12710,4520 12030,5180 11330,4520 11330,4000 12290,3080 13290,4100 13290,4760 11430,6640 11430,12000 22500,12000 22500,15000 0,15000 "
   id="polygon6"
   transform="scale(0.03527778)" />
  <polygon
   class="fil1"
   points="15170,5960 14230,6900 13730,6900 13030,6200 13730,5540 14150,5960 13890,6200 13730,6040 13550,6200 13890,6560 14490,5960 13730,5180 11670,7240 11670,6740 13470,4940 14150,4940 "
   id="polygon7"
   transform="scale(0.03527778)" />
  <polygon
   class="fil1"
   points="11670,7580 12870,6400 13730,7220 13730,7900 13210,8420 12450,7660 12870,7220 13130,7480 12970,7660 13130,7840 13470,7480 12870,6900 12030,7740 12030,11280 22500,11280 22500,11640 11670,11640 "
   id="polygon8"
   transform="scale(0.03527778)" />
  <polygon
   class="fil1"
   points="7170,2920 7170,2220 7850,2920 8510,2220 8510,2920 9210,2920 8510,3580 9210,4260 8510,4260 8510,4940 7850,4260 7170,4940 7170,4260 6490,4260 7170,3580 6490,2920 "
   id="polygon9"
   transform="scale(0.03527778)" />
  <polygon
   class="fil0"
   points="7510,3240 7510,2920 7850,3240 8190,2920 8190,3240 8510,3240 8190,3580 8510,3920 8190,3920 8190,4260 7850,3920 7510,4260 7510,3920 7170,3920 7510,3580 7170,3240 "
   id="polygon10"
   transform="scale(0.03527778)" />
  <polygon
   class="fil1"
   points="13970,2920 13970,2220 14650,2920 15330,2220 15330,2920 16010,2920 15330,3580 16010,4260 15330,4260 15330,4940 14650,4260 13970,4940 13970,4260 13290,4260 13970,3580 13290,2920 "
   id="polygon11"
   transform="scale(0.03527778)" />
  <polygon
   class="fil0"
   points="14310,3240 14310,2920 14650,3240 14990,2920 14990,3240 15330,3240 14990,3580 15330,3920 14990,3920 14990,4260 14650,3920 14310,4260 14310,3920 13970,3920 14310,3580 13970,3240 "
   id="polygon12"
   transform="scale(0.03527778)" />
 </g>
</svg>
