<svg width="30" height="20" xmlns="http://www.w3.org/2000/svg"><symbol id="cmn" width="30" height="20"><defs><path id="s" d="m0-1 .58778 1.809-1.5388-1.118h1.9021l-1.5388 1.118z" fill="#ff0"/></defs><rect width="30" height="20" fill="#ee1c25"/><use transform="translate(5,5) scale(3)" href="#s"/><use transform="translate(10 2) rotate(23.036)" href="#s"/><use transform="translate(12 4) rotate(45.87)" href="#s"/><use transform="translate(12 7) rotate(69.945)" href="#s"/><use transform="translate(10 9) rotate(20.66)" href="#s"/></symbol><use href="#cmn"/><path d="M19 0h11v20H19z" fill="#fff"/><symbol id="C"><path d="m9.04 5.81h-1.35q-.019.32-.106.543-.086.23-.236.37-.15.14-.361.212-.21.067-.476.0673-.2 0-.361-.0433-.16-.048-.288-.144-.12-.086-.216-.216-.091-.13-.159-.298-.096-.25-.144-.572-.043-.33-.0432-.75v-.952q0-.31.029-.572.029-.27.0912-.49.082-.28.216-.495.14-.22.336-.332.12-.067.25-.101.14-.034.298-.0337.3 0 .51.082.22.077.361.231.14.16.212.394.077.24.096.548h1.35q-.048-.55-.231-.986t-.5-.74q-.32-.3-.769-.466-.45-.16-1.02-.163-.39 0-.731.101-.34.096-.62.279-.32.22-.567.529t-.404.712q-.13.33-.202.712-.067.38-.0673.803v.942q0 .45.072.856.077.4.216.74.14.34.351.615.21.28.481.476.29.21.659.327.37.11.803.111.55 0 1-.159.45-.16.779-.462.33-.3.519-.721.2-.42.231-.952z"/></symbol><symbol id="J"><path d="m7.48 1v4.85q0 .25-.077.462-.072.21-.207.365-.13.15-.327.245-.19.086-.423.0865-.29 0-.49-.0769t-.327-.236q-.096-.13-.144-.317-.048-.19-.0481-.438h-1.36q0 .54.178.947.17.4.486.668.31.27.74.404.43.13.962.135.5 0 .933-.164.44-.16.76-.462.32-.3.505-.707.19-.41.192-.913l-.0048-4.85z"/></symbol><symbol id="Y"><path d="m6.56 4.23-1.38-3.23h-1.48l2.17 4.52v2.48h1.35v-2.42l2.21-4.58h-1.49z"/></symbol><g transform="rotate(-90 15 -5)"><use x="-13" href="#C"/><use x="-6.5" href="#J"/><use href="#Y"/></g></svg>
