<?xml version="1.0"?>
<svg width="30" height="20" xmlns="http://www.w3.org/2000/svg" xmlns:xlink="http://www.w3.org/1999/xlink"><symbol id="cmn" width="30" height="20"><defs><path id="s" d="m0-1 .58778 1.809-1.5388-1.118h1.9021l-1.5388 1.118z" fill="#ff0"/></defs><rect width="30" height="20" fill="#ee1c25"/><use transform="translate(5,5) scale(3)" xlink:href="#s"/><use transform="translate(10 2) rotate(23.036)" xlink:href="#s"/><use transform="translate(12 4) rotate(45.87)" xlink:href="#s"/><use transform="translate(12 7) rotate(69.945)" xlink:href="#s"/><use transform="translate(10 9) rotate(20.66)" xlink:href="#s"/></symbol><use href="#cmn"/><path d="M19 0h11v20H19z" fill="#fff"/><path transform="matrix(0 -.2.2 0 0 0)" d="m-68.92 128.9h-6.57q-.1 1.5-.52 2.6t-1.15 1.8q-.72.7-1.75 1.1-1.03.3-2.32.3-.96 0-1.75-.2-.78-.3-1.41-.7-.58-.4-1.05-1.1-.45-.6-.77-1.4-.47-1.2-.71-2.8-.21-1.6-.21-3.7v-4.6q0-1.5.14-2.8t.45-2.4q.4-1.3 1.05-2.4.68-1 1.64-1.6.56-.3 1.22-.5.68-.1 1.45-.1 1.45 0 2.48.4 1.05.3 1.75 1.1.68.7 1.03 1.9.38 1.1.47 2.7h6.56q-.24-2.7-1.13-4.8-.89-2.2-2.43-3.6-1.55-1.5-3.75-2.3-2.17-.8-4.98-.8-1.9 0-3.56.5-1.64.5-3.02 1.3-1.54 1.1-2.76 2.6t-1.97 3.5q-.65 1.6-.98 3.4-.33 1.9-.33 4v4.5q0 2.2.35 4.2.38 2 1.06 3.6.7 1.6 1.71 3 1.03 1.4 2.34 2.3 1.42 1.1 3.2 1.6 1.8.6 3.91.6 2.67 0 4.87-.8t3.79-2.3q1.59-1.4 2.53-3.5.96-2 1.12-4.6zm23.68-23.4v23.6q0 1.2-.37 2.2-.35 1.1-1.01 1.8-.65.8-1.59 1.2t-2.06.4q-1.4 0-2.39-.3-.98-.4-1.59-1.2-.47-.6-.7-1.5t-.23-2.2h-6.6q0 2.7.86 4.7.84 1.9 2.37 3.2 1.49 1.3 3.6 2 2.11.6 4.68.6 2.43 0 4.54-.8 2.13-.8 3.7-2.2 1.57-1.5 2.46-3.5.91-2 .93-4.4v-23.6zm26.82 15.7-6.72-15.7h-7.21l10.56 22v12.1h6.56v-11.8l10.719-22.3h-7.189z"/></svg>
