<?xml version="1.0"?>
<svg width="30" height="20" xmlns="http://www.w3.org/2000/svg" xmlns:xlink="http://www.w3.org/1999/xlink"><symbol id="cmn" width="30" height="20"><defs><path id="s" d="m0-1 .58778 1.809-1.5388-1.118h1.9021l-1.5388 1.118z" fill="#ff0"/></defs><rect width="30" height="20" fill="#ee1c25"/><use transform="translate(5,5) scale(3)" xlink:href="#s"/><use transform="translate(10 2) rotate(23.036)" xlink:href="#s"/><use transform="translate(12 4) rotate(45.87)" xlink:href="#s"/><use transform="translate(12 7) rotate(69.945)" xlink:href="#s"/><use transform="translate(10 9) rotate(20.66)" xlink:href="#s"/></symbol><use href="#cmn"/><path d="M19 0h11v20H19z" fill="#fff"/><path transform="matrix(0 -.1.1 0 0 0)" d="m-137.8 257.8h-13.2q-.2 3.1-1 5.3-.9 2.2-2.3 3.6-1.5 1.4-3.5 2-2.1.7-4.7.7-1.9 0-3.5-.4-1.5-.5-2.8-1.4-1.1-.9-2.1-2.1-.9-1.3-1.5-2.9-1-2.4-1.4-5.6-.5-3.2-.5-7.3v-9.3q0-3 .3-5.6t.9-4.7q.8-2.8 2.1-4.9 1.4-2.1 3.3-3.2 1.1-.6 2.4-1 1.4-.3 2.9-.3 2.9 0 5 .8t3.5 2.2q1.4 1.6 2.1 3.9t.9 5.3h13.1q-.5-5.3-2.2-9.6-1.8-4.2-4.9-7.2-3.1-2.9-7.5-4.5-4.3-1.6-10-1.6-3.8 0-7.1 1-3.3.9-6 2.7-3.1 2.1-5.5 5.1-2.5 3.1-4 7-1.3 3.1-1.9 6.9-.7 3.7-.7 7.8v9.2q0 4.4.7 8.3.8 3.9 2.1 7.2 1.4 3.3 3.4 6 2.1 2.7 4.7 4.6 2.9 2.1 6.4 3.2 3.6 1.1 7.8 1.1 5.4 0 9.8-1.5 4.4-1.6 7.6-4.5 3.1-2.9 5-7.1 1.9-4.1 2.3-9.2zm47.33-46.8v47.2q0 2.4-.75 4.5-.71 2.1-2.02 3.6-1.31 1.4-3.18 2.3t-4.08.9q-2.8 0-4.8-.8-2-.7-3.2-2.3-.9-1.2-1.4-3.1-.5-1.8-.5-4.2h-13.2q.1 5.3 1.8 9.2 1.6 3.9 4.7 6.5 3 2.6 7.2 3.9 4.2 1.4 9.4 1.4 4.83 0 9.04-1.6 4.26-1.6 7.4-4.5 3.13-2.9 4.91-6.9 1.83-4 1.88-8.9v-47.2zm53.63 31.4-13.43-31.4h-14.42l21.11 44v24.1h13.1l.1-23.6 21.437-44.5h-14.467z"/></svg>
