<?xml version="1.0" encoding="UTF-8" standalone="no"?>
<!-- Creator: CorelDRAW Home & Student X8 -->

<svg
   xml:space="preserve"
   width="7.9375005mm"
   height="5.291667mm"
   version="1.1"
   style="clip-rule:evenodd;fill-rule:evenodd;image-rendering:optimizeQuality;shape-rendering:geometricPrecision;text-rendering:geometricPrecision"
   viewBox="0 0 793.75005 529.1667"
   id="svg4"
   sodipodi:docname="Kürdistan.svg"
   inkscape:version="1.4 (86a8ad7, 2024-10-11)"
   xmlns:inkscape="http://www.inkscape.org/namespaces/inkscape"
   xmlns:sodipodi="http://sodipodi.sourceforge.net/DTD/sodipodi-0.dtd"
   xmlns="http://www.w3.org/2000/svg"
   xmlns:svg="http://www.w3.org/2000/svg"><sodipodi:namedview
   id="namedview4"
   pagecolor="#ffffff"
   bordercolor="#000000"
   borderopacity="0.25"
   inkscape:showpageshadow="2"
   inkscape:pageopacity="0.0"
   inkscape:pagecheckerboard="0"
   inkscape:deskcolor="#d1d1d1"
   inkscape:document-units="mm"
   inkscape:zoom="1.4234583"
   inkscape:cx="425.37248"
   inkscape:cy="283.46457"
   inkscape:window-width="1920"
   inkscape:window-height="1009"
   inkscape:window-x="-8"
   inkscape:window-y="-8"
   inkscape:window-maximized="1"
   inkscape:current-layer="Layer_x0020_1" />
 <defs
   id="defs1">
  <style
   type="text/css"
   id="style1">
   <![CDATA[
    .fil2 {fill:#119F48}
    .fil1 {fill:#E63C24}
    .fil3 {fill:#FED411}
    .fil0 {fill:#FEFEFE}
   ]]>
  </style>
 </defs>
 <g
   id="Layer_x0020_1"
   inkscape:label="Layer 1"
   inkscape:groupmode="layer">
  <metadata
   id="CorelCorpID_0Corel-Layer" />
  <g
   id="_512763312"
   transform="scale(0.03527778)">
   <polygon
   class="fil0"
   points="0,10000 0,5000 22500,5000 22500,10000 "
   id="polygon1" />
   <polygon
   class="fil1"
   points="0,5000 0,0 22500,0 22500,5000 "
   id="polygon2" />
   <polygon
   class="fil2"
   points="0,15000 0,10000 22500,10000 22500,15000 "
   id="polygon3" />
  </g>
  <polygon
   class="fil3"
   points="12068,5822 13374,4405 12533,6139 14198,5170 12883,6578 14760,6143 13088,7101 15011,7239 13130,7662 14927,8360 13005,8210 14516,9407 12724,8697 13815,10285 12312,9079 12886,10919 11806,9323 11812,11250 11250,9407 10688,11250 10694,9323 9614,10919 10188,9079 8685,10285 9776,8697 7984,9407 9495,8210 7573,8360 9370,7662 7489,7239 9412,7101 7740,6143 9617,6578 8302,5170 9967,6139 9126,4405 10432,5822 10138,3918 10969,5657 11250,3750 11531,5657 12362,3918 "
   id="polygon4"
   transform="scale(0.03527778)" />
 </g>
</svg>
