<?xml version="1.0"?>
<svg width="30" height="20" xmlns="http://www.w3.org/2000/svg" xmlns:xlink="http://www.w3.org/1999/xlink"><symbol id="tgl" width="30" height="20" fill="#fcd116" viewBox="-28 -45 135 90"><path d="m-28-45h180V0L0 44z" fill="#0038a8"/><path d="m0 0h152v45H-28z" fill="#ce1126"/><path d="m49.942 0L-28 45v-90z" fill="#fff"/><circle r="9"/><g id="c"><g id="b"><path id="a" d="m0 0-3.164-15.909.945-.946zl-1.169-17.831L0-19l1.169 1.169zl2.219-16.855.945.946z"/><use transform="scale(-1)" xlink:href="#a"/></g><use transform="rotate(90)" xlink:href="#b"/></g><use transform="rotate(45)" xlink:href="#c"/><path id="d" d="m40.942 0-3.382 1.176-.073 3.579-2.163-2.853-3.427 1.037 2.045-2.939-2.045-2.939 3.427 1.037 2.163-2.853.073 3.579z"/><use transform="rotate(120,-2.019,0)" xlink:href="#d"/><use transform="rotate(240,-2.019,0)" xlink:href="#d"/></symbol><use href="#tgl"/><path d="M19 0h11v20H19z" fill="#fff"/><path transform="matrix(0 -.1.1 0 0 0)" d="m-137.8 257.8h-13.2q-.2 3.1-1 5.3-.9 2.2-2.3 3.6-1.5 1.4-3.5 2-2.1.7-4.7.7-1.9 0-3.5-.4-1.5-.5-2.8-1.4-1.1-.9-2.1-2.1-.9-1.3-1.5-2.9-1-2.4-1.4-5.6-.5-3.2-.5-7.3v-9.3q0-3 .3-5.6t.9-4.7q.8-2.8 2.1-4.9 1.4-2.1 3.3-3.2 1.1-.6 2.4-1 1.4-.3 2.9-.3 2.9 0 5 .8t3.5 2.2q1.4 1.6 2.1 3.9t.9 5.3h13.1q-.5-5.3-2.2-9.6-1.8-4.2-4.9-7.2-3.1-2.9-7.5-4.5-4.3-1.6-10-1.6-3.8 0-7.1 1-3.3.9-6 2.7-3.1 2.1-5.5 5.1-2.5 3.1-4 7-1.3 3.1-1.9 6.9-.7 3.7-.7 7.8v9.2q0 4.4.7 8.3.8 3.9 2.1 7.2 1.4 3.3 3.4 6 2.1 2.7 4.7 4.6 2.9 2.1 6.4 3.2 3.6 1.1 7.8 1.1 5.4 0 9.8-1.5 4.4-1.6 7.6-4.5 3.1-2.9 5-7.1 1.9-4.1 2.3-9.2zm38.43-15.4-13.43-31.4h-14.4l21.1 44v24.1h13.14v-23.6l21.44-44.5h-14.46zm86.82 7.7v-10q0-4.6-.89-8.7-.84-4.1-2.48-7.6-1.5-3-3.6-5.6-2.06-2.5-4.82-4.3-2.76-1.9-6.23-2.8-3.42-1.1-7.35-1.1-3.88 0-7.21 1-3.32 1-5.99 2.8-2.71 1.9-4.82 4.5-2.06 2.6-3.51 5.9-1.5 3.4-2.29 7.4-.75 4-.75 8.5v10q0 4.2.65 8 .71 3.8 2.02 7 1.45 3.5 3.6 6.3t4.87 4.7q2.76 1.9 6.13 2.9 3.37 1.1 7.35 1.1 3.74 0 6.97-1 3.28-.9 6-2.5 2.99-1.9 5.33-4.7t3.93-6.2q1.5-3.3 2.3-7.3.79-3.9.79-8.3zm-13.34-10.1v10.1q0 2.5-.28 4.8-.23 2.4-.75 4.3-.65 2.6-1.78 4.6-1.07 1.9-2.66 3.2-1.27 1.1-2.91 1.7-1.63.5-3.6.5-2.06 0-3.7-.6-1.59-.6-2.85-1.7-1.36-1.3-2.39-3.3-.98-2-1.5-4.5-.47-2-.65-4.3-.19-2.3-.19-4.7v-10.1q0-2.6.19-5 .23-2.4.7-4.4.61-2.6 1.68-4.6 1.13-1.9 2.72-3.2 1.17-.9 2.62-1.4 1.5-.5 3.32-.5 1.92 0 3.47.6 1.59.5 2.85 1.4 1.59 1.3 2.76 3.3 1.17 1.9 1.88 4.5.56 2 .79 4.4.28 2.3.28 4.9z"/></svg>
