<svg width="30" height="20" xmlns="http://www.w3.org/2000/svg"><symbol id="Flag_of_Malaysia" width="40" height="20" viewBox="0 0 672 336"><path d="M0 0h672v336H0z" fill="#fff"/><path d="M24 12h648m0 48H24m0 48h648m0 48H24" stroke="#c00" stroke-width="24"/><path d="M0 0h336v204H0z" fill="#006"/><path d="M0 204h672m0 48H0m0 48h672" stroke="#c00" stroke-width="24"/><path d="m210 36 5.35 36.6 20.7-30.65-11.1 35.3L256.9 58.6l-25.3 27 36.9-2.95L234 96l34.5 13.35-36.9-2.95 25.3 27-31.95-18.65 11.1 35.3-20.7-30.65L210 156l-5.35-36.6-20.7 30.65 11.1-35.3-31.95 18.65 25.3-27-36.9 2.95L186 96l-34.5-13.35 36.9 2.95-25.3-27 31.95 18.65-11.1-35.3 20.7 30.65zm-30 1.5a64 64 0 1 0 0 117 72 72 0 1 1 0-117z" fill="#fc0"/></symbol><use href="#Flag_of_Malaysia"/><path d="M19 0h11v20H19z" fill="#fff"/><symbol id="D"><path d="m4.15 8h1.88q.47 0 .875-.115.41-.12.755-.332.29-.18.538-.452.25-.27.428-.596.19-.36.298-.793.11-.43.106-.918v-.577q0-.5-.115-.952-.11-.45-.317-.817-.18-.3-.418-.558-.24-.26-.538-.438-.35-.22-.769-.332-.42-.12-.909-.12h-1.81zm1.36-5.9h.452q.25 0 .452.058.21.053.385.154.23.13.394.346.17.21.279.481.087.23.13.5.048.27.048.572v.587q0 .32-.048.601-.043.27-.13.5-.11.26-.255.456-.14.19-.327.317-.18.12-.394.183-.22.062-.466.0625h-.519z"/></symbol><symbol id="T"><path d="m9.32 2.1v-1.1h-5.64v1.1h2.13v5.9h1.36v-5.9z"/></symbol><symbol id="P"><path d="m5.61 5.43h1.04q.57 0 1.03-.164.46-.16.788-.457.32-.29.495-.688.18-.4.178-.87 0-.5-.178-.918-.17-.41-.495-.712-.33-.29-.788-.457-.46-.17-1.03-.168h-2.39v7h1.35zm0-1.1v-2.24h1.04q.29 0 .5.091.21.091.356.25.14.16.207.37.072.21.072.457 0 .21-.072.409-.067.19-.207.342-.14.15-.356.236-.21.087-.5.087z"/></symbol><g transform="rotate(-90 15 -5)"><use x="-13" href="#D"/><use x="-6.5" href="#T"/><use href="#P"/></g></svg>
