<svg width="30" height="20" xmlns="http://www.w3.org/2000/svg"><symbol id="Flag_of_Malaysia" width="40" height="20" viewBox="0 0 672 336"><path d="M0 0h672v336H0z" fill="#fff"/><path d="M24 12h648m0 48H24m0 48h648m0 48H24" stroke="#c00" stroke-width="24"/><path d="M0 0h336v204H0z" fill="#006"/><path d="M0 204h672m0 48H0m0 48h672" stroke="#c00" stroke-width="24"/><path d="m210 36 5.35 36.6 20.7-30.65-11.1 35.3L256.9 58.6l-25.3 27 36.9-2.95L234 96l34.5 13.35-36.9-2.95 25.3 27-31.95-18.65 11.1 35.3-20.7-30.65L210 156l-5.35-36.6-20.7 30.65 11.1-35.3-31.95 18.65 25.3-27-36.9 2.95L186 96l-34.5-13.35 36.9 2.95-25.3-27 31.95 18.65-11.1-35.3 20.7 30.65zm-30 1.5a64 64 0 1 0 0 117 72 72 0 1 1 0-117z" fill="#fc0"/></symbol><use href="#Flag_of_Malaysia"/><path d="M19 0h11v20H19z" fill="#fff"/><path transform="matrix(0 -.2.2 0 0 0)" d="m-92.72 139.6h9.15q2.27 0 4.26-.6 2.01-.6 3.67-1.6 1.43-.9 2.63-2.2 1.19-1.3 2.08-2.9.94-1.8 1.45-3.9.52-2.1.52-4.4v-2.9q0-2.4-.57-4.6-.53-2.2-1.54-4-.87-1.4-2.04-2.7-1.14-1.2-2.62-2.1-1.68-1.1-3.74-1.6-2.06-.6-4.43-.6h-8.82zm6.62-28.8h2.2q1.2 0 2.2.3 1.03.3 1.88.8 1.1.6 1.91 1.6.85 1.1 1.36 2.4.42 1.1.63 2.4.24 1.3.24 2.8v2.9q0 1.5-.24 2.9-.21 1.3-.63 2.4-.51 1.3-1.24 2.2-.7 1-1.59 1.6-.87.6-1.92.9t-2.27.3h-2.53zm49.83 0v-5.3h-27.48v5.3h10.37v28.8h6.6v-28.8zm13.22 16.3h5.07q2.79 0 5.04-.8 2.24-.8 3.835-2.3 1.568-1.4 2.41-3.3.866-1.9.866-4.2 0-2.5-.866-4.5-.842-2-2.41-3.5-1.595-1.4-3.835-2.2-2.25-.8-5.04-.8h-11.65v34.1h6.58zm0-5.4v-10.9h5.07q1.41 0 2.44.5 1.03.4 1.73 1.2.68.8 1.01 1.8.35 1 .35 2.2 0 1-.35 2-.33.9-1.01 1.7-.7.7-1.73 1.1t-2.44.4z"/></svg>
