<?xml version="1.0" encoding="UTF-8" standalone="no"?>
<!-- Created with Inkscape (http://www.inkscape.org/) -->

<svg
   width="7.9375024mm"
   height="5.2916665mm"
   viewBox="0 0 7.9375024 5.2916665"
   version="1.1"
   id="svg1"
   inkscape:version="1.4 (86a8ad7, 2024-10-11)"
   sodipodi:docname="eng.svg"
   xmlns:inkscape="http://www.inkscape.org/namespaces/inkscape"
   xmlns:sodipodi="http://sodipodi.sourceforge.net/DTD/sodipodi-0.dtd"
   xmlns="http://www.w3.org/2000/svg"
   xmlns:svg="http://www.w3.org/2000/svg">
  <sodipodi:namedview
     id="namedview1"
     pagecolor="#ffffff"
     bordercolor="#000000"
     borderopacity="0.25"
     inkscape:showpageshadow="2"
     inkscape:pageopacity="0.0"
     inkscape:pagecheckerboard="0"
     inkscape:deskcolor="#d1d1d1"
     inkscape:document-units="mm"
     inkscape:zoom="5.7513468"
     inkscape:cx="28.341188"
     inkscape:cy="70.939906"
     inkscape:window-width="1147"
     inkscape:window-height="1032"
     inkscape:window-x="513"
     inkscape:window-y="371"
     inkscape:window-maximized="0"
     inkscape:current-layer="layer1" />
  <defs
     id="defs1" />
  <g
     inkscape:label="Layer 1"
     inkscape:groupmode="layer"
     id="layer1"
     transform="translate(25.664583,20.108334)">
    <rect
       style="fill:#00247d;fill-opacity:1;stroke-width:0.0542184"
       id="rect31"
       width="7.9375"
       height="5.2916665"
       x="-25.664583"
       y="-20.108334" />
    <path
       id="rect31-3"
       style="fill:#ffffff;stroke-width:0.0255589"
       d="m -25.613857,-20.108333 2.612018,1.763891 h -0.630367 l -2.032377,-1.372459 v 0.212839 l 1.717203,1.15962 h -1.717203 v 1.76389 h 1.717194 l -1.717194,1.159611 v 0.212839 0.212848 0.178584 h 0.05073 l 2.612009,-1.763882 h 0.424074 v 0.139307 l -2.405725,1.624575 h 0.315183 l 2.090542,-1.411736 v 1.411736 h 1.76388 v -1.411736 l 2.090542,1.411736 h 0.315183 0.315175 0.315183 l -2.612009,-1.763882 h 0.630368 l 2.032367,1.37245 v -0.212839 l -1.717193,-1.159611 h 1.717193 v -1.76389 h -1.717202 l 1.717202,-1.15962 v -0.212839 -0.212848 -0.178584 h -0.05073 l -2.612018,1.763891 h -0.424065 v -0.139316 l 2.405725,-1.624575 h -0.315183 l -2.090542,1.411736 v -1.411736 h -1.76388 v 1.411736 l -2.090542,-1.411736 h -0.315183 -0.315175 z" />
    <path
       id="rect31-3-5"
       style="fill:#cf142b;fill-opacity:1;stroke-width:0.0197978"
       d="m -22.225,-20.108333 v 2.116665 h -3.439583 v 1.058333 H -22.225 v 2.116665 h 1.058333 v -2.116665 h 3.439582 v -1.058333 h -3.439582 v -2.116665 z" />
    <path
       id="rect31-3-6-2-6"
       style="fill:#cf142b;fill-opacity:1;stroke-width:0.0113854"
       d="m -25.664583,-20.108333 v 0.178584 0.212848 l 2.032377,1.372459 h 0.315193 0.315174 l -2.612018,-1.763891 z" />
    <path
       id="rect1245-2"
       style="fill:#cf142b;fill-opacity:1;stroke-width:0.0238755"
       d="m -23.001839,-16.580561 -2.612018,1.763891 h 0.315183 0.315175 l 2.405725,-1.624575 v -0.139316 h -0.108872 z" />
    <path
       id="rect1245-3"
       style="fill:#cf142b;fill-opacity:1;stroke-width:0.0238755"
       d="m -18.408169,-20.108333 -2.405725,1.624575 v 0.139316 h 0.108872 0.315193 l 2.612018,-1.763891 h -0.315183 z" />
    <path
       id="rect31-3-6-2-6-6-4"
       style="fill:#cf142b;fill-opacity:1;stroke-width:0.0113854"
       d="m -20.389829,-16.580561 2.612018,1.763891 h 0.05073 v -0.178584 -0.212848 l -2.032377,-1.372459 h -0.315193 z" />
  </g>
</svg>
