<svg width="30" height="20" xmlns="http://www.w3.org/2000/svg"><symbol id="Flag_of_England" width="20" height="20" viewBox="0 0 5 5"><path d="M0 0h5v5H0z" fill="#fff"/><path d="M2 0h1v5H2z M0 2h5v1H0z" fill="#ce1124"/></symbol><use href="#Flag_of_England"/><path d="M20 0h10v20H20z" fill="#fff"/><symbol id="E"><path d="m8.48 4.93v-1.07h-2.88v-1.76h3.35v-1.1h-4.7v7h4.72v-1.09h-3.36v-1.98z"/></symbol><symbol id="N"><path d="m8.79 8v-7h-1.36v4.5l-1.94-4.5h-1.36v7h1.36v-4.51l1.95 4.51z"/></symbol><symbol id="M"><path d="m5.83 1h-1.68v7h1.24v-2.07l-.0577-3.14.822 2.91h.668l.918-3.04-.0577 3.27v2.07h1.24v-7h-1.68l-.755 2.63z"/></symbol><g transform="rotate(-90 15.25 -5.25)"><use x="-13" href="#E"/><use x="-6.5" href="#N"/><use href="#M"/></g></svg>
