<?xml version="1.0" encoding="UTF-8" standalone="no"?>
<!-- Creator: CorelDRAW Home & Student X8 -->

<svg
   xml:space="preserve"
   width="7.9375005mm"
   height="5.291667mm"
   version="1.1"
   style="clip-rule:evenodd;fill-rule:evenodd;image-rendering:optimizeQuality;shape-rendering:geometricPrecision;text-rendering:geometricPrecision"
   viewBox="0 0 793.75005 529.1667"
   id="svg3"
   sodipodi:docname="Bask Bölgesi.svg"
   inkscape:version="1.4 (86a8ad7, 2024-10-11)"
   xmlns:inkscape="http://www.inkscape.org/namespaces/inkscape"
   xmlns:sodipodi="http://sodipodi.sourceforge.net/DTD/sodipodi-0.dtd"
   xmlns="http://www.w3.org/2000/svg"
   xmlns:svg="http://www.w3.org/2000/svg"><sodipodi:namedview
   id="namedview3"
   pagecolor="#ffffff"
   bordercolor="#000000"
   borderopacity="0.25"
   inkscape:showpageshadow="2"
   inkscape:pageopacity="0.0"
   inkscape:pagecheckerboard="0"
   inkscape:deskcolor="#d1d1d1"
   inkscape:document-units="mm"
   inkscape:zoom="1.4234583"
   inkscape:cx="425.37248"
   inkscape:cy="283.46457"
   inkscape:window-width="1920"
   inkscape:window-height="1009"
   inkscape:window-x="-8"
   inkscape:window-y="-8"
   inkscape:window-maximized="1"
   inkscape:current-layer="Layer_x0020_1" />
 <defs
   id="defs1">
  <style
   type="text/css"
   id="style1">
   <![CDATA[
    .fil1 {fill:#109B48}
    .fil0 {fill:#D93124}
    .fil2 {fill:#FEFEFE}
   ]]>
  </style>
 </defs>
 <g
   id="Layer_x0020_1"
   inkscape:label="Layer 1"
   inkscape:groupmode="layer">
  <metadata
   id="CorelCorpID_0Corel-Layer" />
  <polygon
   class="fil0"
   points="0,15000 0,0 22500,0 22500,15000 "
   id="polygon1"
   transform="scale(0.03527778)" />
  <polygon
   class="fil1"
   points="0,1320 9270,7500 0,13680 0,15000 1980,15000 11250,8820 20520,15000 22500,15000 22500,13680 13230,7500 22500,1320 22500,0 20520,0 11250,6180 1980,0 0,0 "
   id="polygon2"
   transform="scale(0.03527778)" />
  <polygon
   class="fil2"
   points="0,6397 10147,6397 10147,0 12353,0 12353,6397 22500,6397 22500,8603 12353,8603 12353,15000 10147,15000 10147,8603 0,8603 "
   id="polygon3"
   transform="scale(0.03527778)" />
 </g>
</svg>
