<svg width="30" height="20" xmlns="http://www.w3.org/2000/svg"><symbol id="Flag_of_Ghana" width="30" height="20" viewBox="0 0 9 6"><path d="m0 0h9v6H0" fill="#006b3f"/><path d="m0 0h9v4H0" fill="#fcd116"/><path d="m0 0h9v2H0" fill="#ce1126"/><path d="m4.5 2 .6498 2-1.7013-1.2361h2.103L3.8502 4"/></symbol><use x="-5.5" href="#Flag_of_Ghana"/><path d="M19 0h11v20H19z" fill="#fff"/><symbol id="E"><path d="m8.48 4.93v-1.07h-2.88v-1.76h3.35v-1.1h-4.7v7h4.72v-1.09h-3.36v-1.98z"/></symbol><symbol id="W"><path d="m4.63 8h1.22l.586-3.78.0529-.356.0529.356.611 3.78h1.22l.971-7h-1.24l-.476 3.92-.0336.293-.0433-.288-.586-3.93h-.966l-.553 3.9-.0433.288-.0336-.274-.466-3.91h-1.24z"/></symbol><g transform="rotate(-90 15 -5)"><use x="-13" href="#E"/><use x="-6.5" href="#W"/><use href="#E"/></g></svg>
