<?xml version="1.0" encoding="UTF-8" standalone="no"?>
<!-- Creator: CorelDRAW Home & Student X8 -->

<svg
   xml:space="preserve"
   width="7.9375005mm"
   height="5.291667mm"
   version="1.1"
   style="clip-rule:evenodd;fill-rule:evenodd;image-rendering:optimizeQuality;shape-rendering:geometricPrecision;text-rendering:geometricPrecision"
   viewBox="0 0 793.75005 529.1667"
   id="svg7"
   sodipodi:docname="Faroe Adaları.svg"
   inkscape:version="1.4 (86a8ad7, 2024-10-11)"
   xmlns:inkscape="http://www.inkscape.org/namespaces/inkscape"
   xmlns:sodipodi="http://sodipodi.sourceforge.net/DTD/sodipodi-0.dtd"
   xmlns="http://www.w3.org/2000/svg"
   xmlns:svg="http://www.w3.org/2000/svg"><sodipodi:namedview
   id="namedview7"
   pagecolor="#ffffff"
   bordercolor="#000000"
   borderopacity="0.25"
   inkscape:showpageshadow="2"
   inkscape:pageopacity="0.0"
   inkscape:pagecheckerboard="0"
   inkscape:deskcolor="#d1d1d1"
   inkscape:document-units="mm"
   inkscape:zoom="1.4234583"
   inkscape:cx="425.37248"
   inkscape:cy="283.46457"
   inkscape:window-width="1920"
   inkscape:window-height="1009"
   inkscape:window-x="-8"
   inkscape:window-y="-8"
   inkscape:window-maximized="1"
   inkscape:current-layer="Layer_x0020_1" />
 <defs
   id="defs1">
  <style
   type="text/css"
   id="style1">
   <![CDATA[
    .fil2 {fill:#2360AA}
    .fil0 {fill:#E42333}
    .fil1 {fill:#FEFEFE}
   ]]>
  </style>
 </defs>
 <g
   id="Layer_x0020_1"
   inkscape:label="Layer 1"
   inkscape:groupmode="layer">
  <metadata
   id="CorelCorpID_0Corel-Layer" />
  <polygon
   class="fil0"
   points="9119,0 9119,6563 22500,6563 22500,8438 9119,8438 9119,15000 7244,15000 7244,8438 0,8438 0,6563 7244,6563 7244,0 "
   id="polygon1"
   transform="scale(0.03527778)" />
  <rect
   class="fil1"
   width="222.49695"
   height="198.4375"
   id="rect1"
   x="0"
   y="0"
   style="stroke-width:0.0352778" />
  <rect
   class="fil1"
   x="354.7886"
   width="438.9614"
   height="198.4375"
   id="rect2"
   y="0"
   style="stroke-width:0.0352778" />
  <rect
   class="fil1"
   x="354.7886"
   y="330.72916"
   width="438.9614"
   height="198.4375"
   id="rect3"
   style="stroke-width:0.0352778" />
  <rect
   class="fil1"
   y="330.72916"
   width="222.49695"
   height="198.4375"
   id="rect4"
   x="0"
   style="stroke-width:0.0352778" />
  <polygon
   class="fil2"
   points="6307,5625 0,5625 0,6563 6307,6563 7244,6563 7244,5625 7244,0 6307,0 "
   id="polygon4"
   transform="scale(0.03527778)" />
  <polygon
   class="fil2"
   points="10057,5625 10057,0 9119,0 9119,5625 9119,6563 10057,6563 22500,6563 22500,5625 "
   id="polygon5"
   transform="scale(0.03527778)" />
  <polygon
   class="fil2"
   points="9119,9375 9119,15000 10057,15000 10057,9375 22500,9375 22500,8438 10057,8438 9119,8438 "
   id="polygon6"
   transform="scale(0.03527778)" />
  <polygon
   class="fil2"
   points="6307,8438 0,8438 0,9375 6307,9375 6307,15000 7244,15000 7244,9375 7244,8438 "
   id="polygon7"
   transform="scale(0.03527778)" />
 </g>
</svg>
