<svg xmlns="http://www.w3.org/2000/svg" width="30" height="20" viewBox="0 0 90 60"><path fill="#fff" d="M0 0h90v60H0z"/><path fill="#ed2024" d="M0 0h90v20H0z"/><path fill="#278e43" d="M0 40h90v20H0z"/><path fill="#febd11" d="m45 15 1.124 7.6264 3.3222-6.9563-1.1738 7.619 5.2249-5.668-3.3674 6.9344 6.6634-3.8761-5.2616 5.6338 7.5098-1.7399-6.6885 3.8327 7.689.551-7.521 1.6909 7.185 2.7929-7.6852-.6011 6.0425 4.7867-7.1666-2.8397 4.3632 6.355-6.0113-4.8259 2.2962 7.3589-4.3217-6.3834.025 7.7087L45 37.6264 42.7518 45l.0251-7.7087-4.3217 6.3834 2.2962-7.3589-6.0113 4.826 4.3632-6.3551-7.1666 2.8397 6.0425-4.7867-7.6852.6011 7.185-2.793-7.521-1.6908 7.689-.551-6.6885-3.8327 7.5098 1.7399-5.2616-5.6338 6.6634 3.876-3.3674-6.9343 5.2249 5.668-1.1738-7.619 3.3221 6.9563z"/></svg>