<svg xmlns="http://www.w3.org/2000/svg" width="40" height="20" viewBox="0 0 672 336"><path fill="#fff" d="M0 0h672v336H0z"/><path stroke="#c00" stroke-width="24" d="M24 12h648m0 48H24m0 48h648m0 48H24"/><path fill="#006" d="M0 0h336v204H0z"/><path stroke="#c00" stroke-width="24" d="M0 204h672m0 48H0m0 48h672"/><path fill="#fc0" d="m210 36 5.35 36.6 20.7-30.65-11.1 35.3L256.9 58.6l-25.3 27 36.9-2.95L234 96l34.5 13.35-36.9-2.95 25.3 27-31.95-18.65 11.1 35.3-20.7-30.65L210 156l-5.35-36.6-20.7 30.65 11.1-35.3-31.95 18.65 25.3-27-36.9 2.95L186 96l-34.5-13.35 36.9 2.95-25.3-27 31.95 18.65-11.1-35.3 20.7 30.65zm-30 1.5a64 64 0 1 0 0 117 72 72 0 1 1 0-117z"/></svg>