<?xml version="1.0" encoding="UTF-8" standalone="no"?>
<!-- Creator: CorelDRAW Home & Student X8 -->

<svg
   xml:space="preserve"
   width="7.9375005mm"
   height="5.291667mm"
   version="1.1"
   style="clip-rule:evenodd;fill-rule:evenodd;image-rendering:optimizeQuality;shape-rendering:geometricPrecision;text-rendering:geometricPrecision"
   viewBox="0 0 793.75005 529.1667"
   id="svg9"
   sodipodi:docname="Frizlanda.svg"
   inkscape:version="1.4 (86a8ad7, 2024-10-11)"
   xmlns:inkscape="http://www.inkscape.org/namespaces/inkscape"
   xmlns:sodipodi="http://sodipodi.sourceforge.net/DTD/sodipodi-0.dtd"
   xmlns="http://www.w3.org/2000/svg"
   xmlns:svg="http://www.w3.org/2000/svg"><sodipodi:namedview
   id="namedview9"
   pagecolor="#ffffff"
   bordercolor="#000000"
   borderopacity="0.25"
   inkscape:showpageshadow="2"
   inkscape:pageopacity="0.0"
   inkscape:pagecheckerboard="0"
   inkscape:deskcolor="#d1d1d1"
   inkscape:document-units="mm"
   inkscape:zoom="1.4234583"
   inkscape:cx="425.37248"
   inkscape:cy="283.46457"
   inkscape:window-width="1920"
   inkscape:window-height="1009"
   inkscape:window-x="-8"
   inkscape:window-y="-8"
   inkscape:window-maximized="1"
   inkscape:current-layer="Layer_x0020_1" />
 <defs
   id="defs1">
  <style
   type="text/css"
   id="style1">
   <![CDATA[
    .fil0 {fill:#0B54A0}
    .fil2 {fill:#E63C31}
    .fil1 {fill:#FEFEFE}
   ]]>
  </style>
 </defs>
 <g
   id="Layer_x0020_1"
   inkscape:label="Layer 1"
   inkscape:groupmode="layer">
  <metadata
   id="CorelCorpID_0Corel-Layer" />
  <rect
   class="fil0"
   width="793.75"
   height="529.16669"
   id="rect1"
   x="0"
   y="0"
   style="stroke-width:0.0352778" />
  <g
   id="_506617344"
   transform="scale(0.03527778)">
   <polygon
   class="fil1"
   points="12857,15000 0,6429 0,10714 6429,15000 "
   id="polygon1" />
   <polygon
   class="fil1"
   points="19286,15000 22500,15000 22500,12857 3214,0 0,0 0,2143 "
   id="polygon2" />
   <polygon
   class="fil1"
   points="22500,8571 9643,0 16071,0 22500,4286 "
   id="polygon3" />
  </g>
  <g
   id="_506616720"
   transform="scale(0.03527778)">
   <path
   class="fil2"
   d="m 10469,8586 c -684,-599 -801,-1594 -275,-2326 288,-400 816,-527 1179,-285 1,1 3,2 4,3 285,189 329,621 104,1007 -35,50 -23,118 29,153 52,34 124,22 160,-28 295,-338 731,-450 1015,-261 1,1 3,2 4,3 364,243 425,763 138,1163 -527,733 -1535,977 -2358,572 z"
   id="path3" />
  </g>
  <g
   id="_506616936"
   transform="scale(0.03527778)">
   <path
   class="fil2"
   d="M 1469,11158 C 785,10559 668,9564 1194,8832 c 288,-400 816,-528 1179,-286 1,1 3,2 4,3 285,190 329,621 104,1007 -35,50 -22,119 29,153 52,35 124,22 160,-28 295,-338 731,-450 1015,-260 1,1 3,2 4,3 364,242 425,763 138,1163 -527,732 -1535,976 -2358,571 z"
   id="path4" />
  </g>
  <g
   id="_506616360"
   transform="scale(0.03527778)">
   <path
   class="fil2"
   d="m 19469,6015 c -684,-599 -801,-1594 -275,-2326 288,-400 816,-528 1179,-286 1,1 3,2 4,3 285,190 329,622 104,1007 -35,50 -23,119 29,153 52,35 124,23 160,-27 295,-339 731,-451 1015,-261 1,1 3,2 4,3 364,242 425,763 138,1163 -527,732 -1535,976 -2358,571 z"
   id="path5" />
  </g>
  <g
   id="_506616240"
   transform="scale(0.03527778)">
   <path
   class="fil2"
   d="m 4469,4586 c -684,-599 -801,-1594 -275,-2326 288,-400 816,-527 1179,-285 1,1 3,2 4,3 285,189 329,621 104,1007 -35,50 -23,118 29,153 52,34 124,22 160,-28 295,-338 731,-450 1015,-261 1,1 3,2 4,3 364,243 425,763 138,1163 -527,733 -1535,977 -2358,572 z"
   id="path6" />
  </g>
  <g
   id="_506615952"
   transform="scale(0.03527778)">
   <path
   class="fil2"
   d="m 16469,12586 c -684,-599 -801,-1594 -275,-2326 288,-400 816,-528 1179,-285 1,1 3,2 4,3 285,189 329,621 104,1007 -35,50 -22,118 29,153 52,34 124,22 160,-28 295,-338 731,-450 1015,-261 1,1 3,2 4,3 364,243 425,763 138,1163 -527,733 -1535,977 -2358,572 z"
   id="path7" />
  </g>
  <g
   id="_506615928"
   transform="scale(0.03527778)">
   <path
   class="fil2"
   d="m 15570,3416 c -684,-599 -801,-1594 -275,-2326 288,-400 816,-528 1179,-286 2,1 3,2 5,3 284,190 328,621 104,1007 -36,50 -23,119 29,153 52,35 123,22 159,-28 295,-338 731,-450 1015,-260 2,1 3,2 4,3 364,242 425,763 138,1163 -526,732 -1535,976 -2358,571 z"
   id="path8" />
  </g>
  <g
   id="_506615160"
   transform="scale(0.03527778)">
   <path
   class="fil2"
   d="m 5368,13757 c -684,-599 -801,-1594 -275,-2326 287,-400 815,-528 1179,-286 1,1 3,2 4,3 284,190 329,622 104,1007 -36,50 -23,119 29,153 52,35 123,23 159,-27 296,-339 731,-451 1016,-261 1,1 3,2 4,3 364,242 425,763 138,1163 -527,732 -1535,976 -2358,571 z"
   id="path9" />
  </g>
 </g>
</svg>
