<svg width="30" height="20" xmlns="http://www.w3.org/2000/svg"><symbol id="Flag_of_Nigeria" preserveAspectRatio="none" viewBox="0 0 6 3"><path d="m0 0h6v3H0z" fill="#008751"/><path d="m2 0h2v3H2z" fill="#fff"/></symbol><use width="19" height="20" href="#Flag_of_Nigeria"/><path d="M19 0h11v20H19z" fill="#fff"/><path transform="matrix(0 -.2.2 0 0 0)" d="m-70.95 125.4v-5.3h-14.61v-9.3h16.43v-5.3h-23.03v34.1h6.6v-14.2zm32.34-19.9h-6.53v22.6q-0 1.6-.35 2.9-.33 1.3-.98 2.1-.61.8-1.55 1.2-.91.4-2.1.4-1.1 0-1.94-.3-.85-.4-1.43-1.2-.63-.8-.96-2.1-.31-1.3-.33-3v-22.6h-6.58v22.6q0 2.8.79 5.1.82 2.2 2.3 3.7 1.47 1.5 3.53 2.3 2.08.8 4.66.8 2.74 0 4.87-.8 2.15-.8 3.65-2.3 1.47-1.5 2.24-3.8.8-2.2.8-5zm16.52 34.1h6.69l10.32-34.1h-7.26l-5.8 22.2-.63 2.3-.59-2.3-5.78-22.2h-7.25z"/></svg>
