<svg width="30" height="20" xmlns="http://www.w3.org/2000/svg"><symbol id="Flag_of_Nigeria" preserveAspectRatio="none" viewBox="0 0 6 3"><path d="m0 0h6v3H0z" fill="#008751"/><path d="m2 0h2v3H2z" fill="#fff"/></symbol><use width="19" height="20" href="#Flag_of_Nigeria"/><path d="M19 0h11v20H19z" fill="#fff"/><symbol id="F"><path d="m8.62 5.1v-1.1h-3v-1.9h3.38v-1.1h-4.73v7h1.36v-2.9z"/></symbol><symbol id="U"><path d="m8.84 1h-1.34v4.64q-0 .34-.072.601-.072.26-.207.433-.12.17-.317.255-.19.082-.433.0817-.23 0-.399-.0769-.17-.082-.293-.24-.13-.17-.197-.438-.062-.26-.0673-.615l-.0048-4.64h-1.35v4.64q0 .59.164 1.05.17.46.471.769.3.31.726.476.43.16.957.164.56 0 1-.164t.745-.481q.3-.31.462-.769.16-.46.164-1.04z"/></symbol><symbol id="V"><path d="m5.81 8h1.38l2.12-7h-1.49l-1.19 4.57-.13.476-.12-.471-1.19-4.57h-1.49z"/></symbol><g transform="rotate(-90 15 -5)"><use x="-13" href="#F"/><use x="-6.5" href="#U"/><use href="#V"/></g></svg>
