<?xml version="1.0" encoding="UTF-8" standalone="no"?>
<!-- Creator: CorelDRAW Home & Student X8 -->

<svg
   xml:space="preserve"
   width="7.9375mm"
   height="5.291667mm"
   version="1.1"
   style="clip-rule:evenodd;fill-rule:evenodd;image-rendering:optimizeQuality;shape-rendering:geometricPrecision;text-rendering:geometricPrecision"
   viewBox="0 0 793.75 529.1667"
   enable-background="new 0 0 432 216"
   sodipodi:docname="Gagavuzya.svg"
   inkscape:version="1.4 (86a8ad7, 2024-10-11)"
   id="svg1"
   xmlns:inkscape="http://www.inkscape.org/namespaces/inkscape"
   xmlns:sodipodi="http://sodipodi.sourceforge.net/DTD/sodipodi-0.dtd"
   xmlns="http://www.w3.org/2000/svg"
   xmlns:svg="http://www.w3.org/2000/svg">
 <defs
   id="defs1">
  <style
   type="text/css"
   id="style1">
   <![CDATA[
    .fil0 {fill:#1C4480}
    .fil2 {fill:#E53624}
    .fil1 {fill:#FCEB24}
    .fil3 {fill:#FEFEFE}
   ]]>
  </style>
 </defs>
 <g
   id="Layer_x0020_1"
   inkscape:label="Layer 1"
   inkscape:groupmode="layer">
  <metadata
   id="CorelCorpID_0Corel-Layer" />
  <sodipodi:namedview
   pagecolor="#ffffff"
   bordercolor="#666666"
   borderopacity="1"
   objecttolerance="10"
   gridtolerance="10"
   guidetolerance="10"
   inkscape:pageopacity="0"
   inkscape:pageshadow="2"
   inkscape:window-width="1920"
   inkscape:window-height="1009"
   id="namedview10"
   showgrid="true"
   fit-margin-top="0"
   fit-margin-left="0"
   fit-margin-right="0"
   fit-margin-bottom="0"
   inkscape:zoom="1"
   inkscape:cx="371.5"
   inkscape:cy="265.5"
   inkscape:window-x="-8"
   inkscape:window-y="-8"
   inkscape:window-maximized="1"
   inkscape:current-layer="Layer_x0020_1"
   inkscape:showpageshadow="2"
   inkscape:pagecheckerboard="0"
   inkscape:deskcolor="#d1d1d1"
   inkscape:document-units="mm" />
  <rect
   id="rect5983"
   class="fil0"
   width="793.75"
   height="317.5"
   x="0"
   y="0"
   style="stroke-width:0.0352778" />
  <polygon
   id="path10354"
   class="fil1"
   points="4049,6723 3394,6239 4217,6225 4475,5453 4743,6231 5558,6238 4900,6733 5145,7510 4471,7037 3808,7511 "
   inkscape:connector-curvature="0"
   transform="scale(0.03527778)" />
  <polygon
   id="path10352"
   class="fil1"
   points="7869,4433 7214,3949 8037,3935 8295,3163 8563,3941 9378,3948 8720,4443 8965,5220 8291,4747 7628,5221 "
   inkscape:connector-curvature="0"
   transform="scale(0.03527778)" />
  <polygon
   id="path8170"
   class="fil1"
   points="4051,2210 3396,1726 4219,1712 4477,940 4745,1718 5560,1725 4902,2220 5147,2997 4473,2524 3810,2998 "
   inkscape:connector-curvature="0"
   transform="scale(0.03527778)" />
  <rect
   id="rect4520"
   class="fil2"
   y="423.33334"
   width="793.75"
   height="105.83334"
   x="0"
   style="stroke-width:0.0352778" />
  <rect
   id="rect6711"
   class="fil3"
   y="317.5"
   width="793.75"
   height="105.83334"
   x="0"
   style="stroke-width:0.0352778" />
 </g>
</svg>
