<?xml version="1.0"?>
<svg width="30" height="20" xmlns="http://www.w3.org/2000/svg" xmlns:xlink="http://www.w3.org/1999/xlink"><symbol id="cmn" width="30" height="20"><defs><path id="s" d="m0-1 .58778 1.809-1.5388-1.118h1.9021l-1.5388 1.118z" fill="#ff0"/></defs><rect width="30" height="20" fill="#ee1c25"/><use transform="translate(5,5) scale(3)" xlink:href="#s"/><use transform="translate(10 2) rotate(23.036)" xlink:href="#s"/><use transform="translate(12 4) rotate(45.87)" xlink:href="#s"/><use transform="translate(12 7) rotate(69.945)" xlink:href="#s"/><use transform="translate(10 9) rotate(20.66)" xlink:href="#s"/></symbol><use href="#cmn"/><path d="M19 0h11v20H19z" fill="#fff"/><path transform="matrix(0 -.1.1 0 0 0)" d="m-138.3 271.2-.1-26.9h-24.3v9.8h11.2v12.4q-.5.6-1.5 1.2-1 .5-2.3.9-1.4.4-2.9.6-1.4.3-3 .3-2.5-.1-4.5-.8-2-.8-3.5-2.3-.9-.9-1.6-2-.7-1.2-1.3-2.5-.9-2.4-1.4-5.4-.5-3.1-.5-6.8v-9.3q0-3 .4-5.5.3-2.5 1-4.6.8-2.7 2.1-4.6 1.3-2 2.9-3.2 1.2-.9 2.6-1.4 1.4-.4 2.9-.4 2.8 0 4.7.7 2.1.7 3.4 2.2 1.1 1.3 1.8 3.2t1 4.4h12.8q-.5-4.9-2.2-8.9-1.6-3.9-4.5-6.6-3-2.8-7.3-4.2-4.3-1.5-10-1.5-3.8 0-7.1 1.1-3.4 1-6.3 3-2.4 1.8-4.4 4.2-2.1 2.5-3.6 5.5-1.6 3.4-2.5 7.6t-.9 9.1v9.2q0 5.1.9 9.5.9 4.3 2.7 7.8 1.5 3.1 3.7 5.6 2.3 2.4 5 4.1 2.8 1.6 6 2.5 3.4.9 7.1.9 4.3 0 8-.8 3.8-.8 6.8-2.1t5.2-2.9 3.5-3.1zm49.18-6.3 3.98 14.2h13.86l-21.91-68.1h-11.91l-22.4 68.1h13.9l4-14.2zm-17.18-11.2 7.12-25.1 6.97 25.1zm91.13 25.4v-68.1h-13.2l-.1 43.7-18.81-43.7h-13.25v68.1h13.25v-43.9l18.96 43.9z"/></svg>
