<svg width="30" height="20" xmlns="http://www.w3.org/2000/svg"><symbol id="cmn" width="30" height="20"><defs><path id="s" d="m0-1 .58778 1.809-1.5388-1.118h1.9021l-1.5388 1.118z" fill="#ff0"/></defs><rect width="30" height="20" fill="#ee1c25"/><use transform="translate(5,5) scale(3)" href="#s"/><use transform="translate(10 2) rotate(23.036)" href="#s"/><use transform="translate(12 4) rotate(45.87)" href="#s"/><use transform="translate(12 7) rotate(69.945)" href="#s"/><use transform="translate(10 9) rotate(20.66)" href="#s"/></symbol><use href="#cmn"/><path d="M19 0h11v20H19z" fill="#fff"/><path transform="matrix(0 -.2.2 0 0 0)" d="m-69.15 135.6v-13.5h-12.19v5h5.64v6.1q-.26.3-.77.6-.5.3-1.15.5-.66.2-1.41.3-.74.1-1.52.1-1.26 0-2.27-.4-.98-.4-1.73-1.1-.44-.4-.82-1-.35-.6-.63-1.3-.44-1.1-.7-2.7-.24-1.5-.24-3.3v-4.7q0-1.5.17-2.8.18-1.2.51-2.2.42-1.4 1.06-2.4.65-.9 1.45-1.6.61-.4 1.31-.6.7-.3 1.45-.3 1.38 0 2.36.4 1.01.4 1.66 1.1.59.6.92 1.6.35 1 .51 2.2h6.41q-.25-2.5-1.1-4.4-.81-2-2.29-3.4-1.47-1.3-3.63-2.1-2.13-.7-5.01-.7-1.87 0-3.55.5-1.69.5-3.12 1.6-1.21.8-2.24 2.1-1.01 1.2-1.78 2.7-.82 1.7-1.26 3.8-.45 2.1-.45 4.5v4.7q0 2.5.45 4.7.46 2.2 1.35 3.9.77 1.6 1.87 2.8 1.13 1.2 2.49 2 1.38.9 3.01 1.3 1.67.4 3.54.4 2.15 0 4.02-.4 1.88-.4 3.4-1 1.5-.7 2.6-1.4 1.1-.8 1.73-1.6zm24.59-3.2 1.99 7.2h6.93l-10.95-34.1h-5.97l-11.17 34.1h6.93l2.01-7.2zm-8.61-5.5 3.58-12.6 3.49 12.6zm45.586 12.7v-34.1h-6.596v21.9l-9.41-21.9h-6.62v34.1h6.62v-22l9.48 22z"/></svg>
