<svg xmlns="http://www.w3.org/2000/svg" width="1200" height="600" viewBox="0 0 317.5 158.75"><path d="M-213.688 96.6h317.5v158.75h-317.5z" style="stroke:none;stroke-width:1.32831;stroke-linecap:round" transform="translate(213.688 -96.6)"/><path d="M-213.688 96.6h317.5v105.834h-317.5z" style="fill:#fff;stroke:none;stroke-width:1.08456;stroke-linecap:round" transform="translate(213.688 -96.6)"/><path d="M-213.688 96.6h317.5v52.917h-317.5z" style="fill:#e01010;fill-opacity:1;stroke:none;stroke-width:.766903;stroke-linecap:round" transform="translate(213.688 -96.6)"/><path d="M-41.313 202.434h-25.474l1.428-2.64c.714-1.427 1.926-3.64 2.568-4.924 1.285-2.426 2.854-10.204 2.212-11.203-.214-.357-1.355.357-2.64 1.499-1.712 1.64-3.14 2.212-6.28 2.64-2.71.285-4.137.785-4.137 1.356 0 1.284-4.71 1.926-8.136 1.141-1.57-.357-3.14-.5-3.425-.285-.286.214-.784-.071-.998-.642-.214-.642-.928-.928-1.785-.714-.856.214-1.355 0-1.355-.57 0-.572-1.142-2.57-2.498-4.496-2.854-3.996-2.997-4.995-1.213-6.28 1.784-1.212 2.997-3.64 2.997-5.709 0-1.712 3.282-4.852 4.995-4.852.428 0 1.499-.642 2.355-1.427.856-.785 1.855-1.356 2.283-1.142.428.143 1.213-.356 1.641-1.07.5-.713 1.357-1.356 1.927-1.356.571 0 1.07-.214 1.07-.57 0-.643 4.424-2.641 5.28-2.427.286.143 1-.214 1.57-.642.571-.428 1-.57 1-.285s.427.213.927-.143c.428-.428 2.07-.927 3.568-1.213 1.499-.285 3.283-1.07 3.997-1.784.784-.785 2.568-1.284 5.066-1.427 1.602-.053 3.043-.146 3.697-.25l.37-.107c.022-.019.065-.029.128-.033.932-.06 6.07 1.358 7.007 1.96 1.356.856 5.138 1.641 8.777 1.856 1 0 2.64.855 3.711 1.854 1.07.999 2.213 1.784 2.57 1.784.356 0 1.07.429 1.57 1 .428.57 1.212.927 1.783.713.5-.214 1.142.214 1.427 1.07.215.857.785 1.499 1.213 1.499 1.499 0 4.067 3.781 3.996 5.922-.071 1.284.428 2.64 1.285 3.282.999.785 1.284 1.856 1.141 3.64-.143 1.356-.5 2.64-.714 2.854-.285.215-1.07 1.285-1.712 2.498-.713 1.355-1.855 2.212-2.997 2.355-1.07.142-1.855.713-1.855 1.355 0 .571-.642 1.213-1.427 1.427-.785.214-1.428.714-1.428 1.07 0 .928-5.208-.141-6.064-1.283-.785-1-7.779-1.5-9.777-.643-.642.214-1.784.143-2.64-.285-3.925-2.141-3.925.642 0 9.204z" style="fill:#000;stroke:none;stroke-width:.713571" transform="translate(213.688 -96.6)"/><path d="M-80.633 189.654c-.272-.11-1.102-.268-1.845-.353-1.133-.128-1.39-.24-1.6-.703-.218-.476-.355-.53-1.025-.405-.68.128-.824.067-1.185-.5-.668-1.048-1.051-1.12-1.936-.36-.508.435-.864.179-.864-.622 0-.929-.368-1.776-1.226-2.827-.41-.502-1.322-1.831-2.026-2.953l-1.279-2.039.623-.527c2.17-1.837 2.776-2.58 3.144-3.848.206-.71.567-1.425.803-1.59.332-.234.396-.469.287-1.05-.181-.967.256-1.806 1.58-3.026 1.14-1.05 2.072-1.532 3.36-1.739.604-.096 1.028-.362 1.473-.923.708-.893 1.87-1.312 2.894-1.044.492.128.791.426 1.096 1.091.515 1.126 1.84 1.453 2.379 1.349.436-.085 1.125.694 1.292 1.07.164.368.39.481.892.444.466-.034.87.139 1.32.567 1.199 1.137 1.922 3.17 1.272 3.571-.133.082-.214.6-.18 1.15.05.824-.03 1.063-.457 1.363-.285.2-.71.81-.944 1.356-.42.98-.442.993-1.532.993-.828 0-1.212.117-1.528.466-.3.332-.58.426-.976.327-.51-.128-.924.146-.934.615-.01.473.973.649 2.216.396 1.959-.4 3.857-1.497 4.59-2.654 1.527-2.407 1.316-6.737.011-8.132-.573-.614-1.047-1.248-1.646-1.128-.798.16-1.324-.153-1.324-.786 0-.538-.512-.796-1.971-.993-.648-.088-1.27-.278-1.38-.423-.11-.145-.361-.844-.557-1.553l-.356-1.29 1.09.129 1.088.129.463-1.047c.46-1.038.85-1.33 2.152-1.61.353-.076.881-.396 1.173-.71l.531-.574.26.484c.141.266.69.669 1.218.895.528.226 1.124.661 1.323.966.686 1.046 1.081 2.858.933 4.276-.235 2.242 1.026 4.439 2.802 4.885.716.18 1.728-.316 1.841-.902.065-.335-.062-.39-.772-.332-.798.065-.862.022-1.058-.716-.114-.431-.444-1.004-.734-1.272-.415-.385-.555-.816-.665-2.048-.231-2.609-.558-3.77-1.408-5.012-.982-1.433-.907-1.904.27-1.713.74.12.909.048 1.565-.668.684-.747.808-.795 1.779-.685.892.1 1.145.031 1.75-.477 1.202-1.012 2.258-.697 2.258.673 0 .398.214 1.414.474 2.259.526 1.702.636 3.32.256 3.776-.136.165-.28.802-.319 1.417l-.07 1.118-1.768.598c-1.95.66-2.325.916-2.122 1.444.194.507 1.997.463 3.048-.074 1.329-.678 2.102-1.795 2.407-3.476.19-1.057.64-1.306 2.357-1.306 1.422 0 1.979-.32 1.721-.99-.09-.236-.406-.37-.87-.37-1.533 0-3.635-2.667-3.907-4.957-.283-2.395.32-2.858 4.005-3.073a87.945 87.945 0 0 0 4.418-.385c1.697-.204 2.294-.185 3.56.114 1.783.423 3.568 1.215 3.739 1.66.174.455-.548 1.154-1.375 1.33-1.09.233-1.279.498-1.279 1.8 0 .985-.076 1.213-.434 1.306-.239.063-.468.35-.51.64-.059.41-.274.569-.964.711-1.446.3-1.963 1.04-1.062 1.521.601.322 2.521-.28 3.264-1.022.563-.563.644-.79.947-2.647.114-.697.233-.85.664-.85.289 0 .907-.303 1.373-.673 1.025-.815 1.923-1.007 4.014-.857 1.88.135 2.657.606 3.08 1.87.244.73.232 1.06-.074 2.115-.454 1.562-.31 2.397.768 4.456.936 1.788 3.178 4.192 3.908 4.192.26 0 .789.357 1.175.793.386.436.885.793 1.108.793.73 0 1.174 1.01 1.02 2.316-.319 2.687-2.029 4.746-4.188 5.043-.595.082-1.198.22-1.34.308-.393.243-.74 1.324-.74 2.304 0 1.028-.221 1.243-.816.792-.744-.563-1.378-.42-1.654.374-.547 1.569-.268 2.033.945 1.572.298-.113 1.08-.366 1.738-.561l1.194-.355.698.788c.49.553.89.788 1.345.788.356 0 .93.21 1.277.466l.63.466 1.182-.466c2.051-.809 3.475-.557 3.769.667.209.873-.351 1.466-1.324 1.4-.695-.046-.858.042-1.162.63-.458.886-1.158 1.04-2.692.595-.923-.269-1.442-.592-2.005-1.25-.418-.489-1.012-.951-1.32-1.028-.307-.077-1.884-.169-3.504-.204-2.123-.047-3.175-.169-3.766-.435-.818-.368-.823-.367-1.418.3-.473.532-.785.672-1.502.672-.883 0-1.811-.585-1.811-1.14 0-.15-.506-.182-1.416-.092-.847.084-1.677.04-2.063-.11-.356-.138-1.68-.406-2.943-.596-2.088-.314-2.908-.59-2.617-.882.06-.06 1.175-.21 2.478-.334 1.303-.124 3.263-.485 4.355-.802 2.628-.763 2.93-.745 3.664.217.811 1.064 1.678 1.473 3.119 1.472 1.289-.001 2.317-.584 2.317-1.173 0-1.179-.751-.813-1.152-.412-.816.816-1.247.857-1.983-.017-.791-.94-.927-1.536-.927-4.07 0-1.963.065-2.291.707-3.587.588-1.186.65-1.448.366-1.557-.86-.33-1.858 1.044-2.071 2.852-.09.762-.208 1.419-.263 1.459-.054.04-.374.245-.712.456-.375.235-.72.742-.89 1.305-.338 1.13-.86 1.433-2.204 1.282-1.472-.166-2.38-1.186-2.237-2.511.056-.515.24-1.266.41-1.67.383-.914.072-1.377-.662-.984-.893.478-1.238 3.174-.6 4.698.39.937.44 1.802.113 2.004-.125.077-.578-.244-1.007-.712-.745-.813-.801-.835-1.208-.467-.561.508-1.922.49-4.343-.057-2.243-.508-2.832-.365-2.58.623.3 1.17.22 1.515-.37 1.598-.959.136-2.204-.39-2.96-1.25-.649-.74-.712-.933-.591-1.81.149-1.085-.008-1.192-.893-.611-.57.373-1.505.36-4.345-.062-.874-.13-.963-.1-.963.334 0 .542.695 1.068 1.7 1.285 1.238.268 1.925.613 1.96.987.062.676-.046 1.717-.291 2.807-.36 1.6-.968 1.98-3.159 1.98-.972 0-2.028.1-2.348.221-.712.271-.754.008-.157-.987.844-1.407.29-2.157-.226-2.716-.518-.563-1.209-1.348-1.534-1.426-.324-.078-.857-.456-1.183-.84-.54-.634-.673-.723-1.19-.424-.63.364-.47.956 1.443 2.27 1.191.818 1.496 1.468 1.546 1.818.05.348-.329 1.049-1.163 2.15-.68.899-1.35 1.855-1.488 2.125-.435.852-4.483 1.53-5.847.98z" style="fill:#036831;fill-opacity:1;stroke-width:.579724" transform="translate(213.688 -96.6)"/><path d="M-23.252 183.518c-2.212-.957-3.367-1.086-4.204-.467-.81.6-.947.603-1.303.033-.193-.31-.528-.453-1.057-.453-.564 0-.965-.192-1.483-.71-1.19-1.19-.731-2.177 1.198-2.574.832-.17 2.59-1.803 3.001-2.785.178-.426.58-.975.892-1.22.66-.52.72-1.005.199-1.581-.312-.345-.326-.513-.092-1.08.344-.83.157-1.752-.528-2.612-.418-.523-.69-.65-1.345-.625-.683.025-.886-.08-1.212-.633-.215-.364-.704-.777-1.085-.917-1.2-.442-1.37-.587-1.448-1.237-.052-.443-.598-1.133-1.812-2.292l-1.738-1.658.906-.782.906-.782-.544-1.007c-.42-.776-.513-1.205-.405-1.869.269-1.655-.02-1.755 5.07 1.762 1.767 1.222 3.665 2.421 4.217 2.665.585.26 1.228.776 1.544 1.243.362.535.82.876 1.382 1.03.69.188.88.37 1.057 1.013.12.432.566 1.117.993 1.523.623.594.874 1.118 1.277 2.666.71 2.73.919 3.19 1.825 4.034.749.696.803.838.782 2.041-.04 2.2-2.472 7.087-3.837 7.709-.864.393-1.417.317-3.156-.435z" style="fill:#036831;fill-opacity:1;stroke-width:.579724" transform="translate(213.688 -96.6)"/><path d="M-65.38 201.465c.51-.662 1.056-1.722 1.438-2.207 1.507-1.916 3.2-7.133 3.915-12.074.247-1.704.526-3.222.62-3.374.21-.34 2.615-.163 3.383.248.427.228.499.417.389 1.022-.075.409-.299 2.486-.5 4.616-.496 5.284-.744 6.698-1.455 8.284-.402.896-.531 1.439-.378 1.592.73.73 1.97-1.279 2.401-3.891.15-.904.48-3.069.736-4.812.79-5.387 1.431-6.525 3.507-6.216 1.495.223 2.487.684 2.931 1.362.21.32.587 1.438.836 2.483.601 2.515 1.658 5.18 3.935 9.918l1.879 4.018h-24.381z" style="fill:#9c9e69;fill-opacity:1;stroke:none;stroke-width:.600517;stroke-opacity:1" transform="translate(213.688 -96.6)"/></svg>