<svg xmlns="http://www.w3.org/2000/svg" width="30" height="20" viewBox="52.92 0 211.7 158.8"><path d="M0 0h318v159H0z"/><path fill="#fff" d="M0 0h318v106H0z"/><path fill="#e01010" d="M0 0h318v53H0z"/><path d="M172 106h-25l1-3 3-5c1-2 3-10 2-11l-3 2-6 2c-3 0-4 1-4 2l-8 1-4-1h-1l-1-1-2-1-2-4c-3-4-3-5-1-6l3-6c0-2 3-5 5-5l2-1 2-1 2-1 2-2h1l5-3h2l1-1h1l3-1 4-2 5-1 4-1h1l7 2 8 2 4 2 3 2 1 1h2l1 2 2 1c1 0 4 4 4 6-1 1 0 3 1 3l1 4-1 3-1 2-3 3-2 1-2 1-1 1-6-1-10-1h-3c-4-2-4 1 0 9z"/><path fill="#036831" d="M133 93h-2l-1-1h-1l-2-1h-2v-1l-2-3-2-3-1-2h1l3-4 1-2v-1c0-1 0-2 2-3l3-1 1-1c1-1 2-2 3-1l1 1 3 1 1 1h1l1 1c1 1 2 3 1 4v2l-1 2h-2l-1 1h-1l-1 1h2l5-2v-8l-2-2h-1l-2-1-2-1v-3h1l1 1v-1l2-2 1-1h1l1 1 2 1 1 4c0 3 1 5 3 5l1-1-1-1-1-1-1-2-1-5v-2h2l1-1 2-1c1-1 2 0 2 1l1 2v7h-2l-2 2h3l2-4 3-1 1-1-1-1c-1 0-3-2-3-5-1-2 0-2 4-3h8l3 2-1 1-1 2-1 1v1l-1 1c-2 0-2 1-1 1l3-1 1-3h1l1-1 4-1c2 0 3 1 3 2v2c-1 2 0 2 1 4l4 5h1l1 1 1 3c0 2-2 4-4 5h-2v2l-1 1h-2l1 2 2-1h1l1 1 1 1h1l1 1 1-1c2-1 4 0 4 1l-1 1-2 1h-2l-2-1-2-1h-3l-4-1-1 1h-2l-2-1h-3l-3-1h-3l3-1 4-1 4 1 3 1 2-1h-3l-1-5 1-3v-2l-2 3v2h-1l-1 1c0 2 0 2-2 2-1 0-2-1-2-3v-2l-1 4v2h-1l-1-1h-4c-3-1-3 0-3 1v1l-3-1-1-2h-1l-4-1-1 1 2 1 2 1-1 3c0 2-1 2-3 2h-2v-1c1-1 0-2-1-3l-1-1-1-1h-1c-1 0-1 1 1 2l2 2-2 2-1 2c-1 1-5 2-6 1z"/><path fill="#036831" d="m190 87-4-1h-2l-2-1c-1-1 0-2 2-2l3-3v-1l1-2v-1l-1-3h-1l-1-1-2-1-1-1-2-2-2-2 1-1h1v-1l-1-2c1-2 0-2 5 1l5 3 1 1 1 1 2 1 1 2 1 3 2 4v2l-3 7h-4z"/><path fill="#9c9e69" d="m148 105 2-2 4-12v-4h4v6l-2 8v2a359 359 0 0 0 3-9c1-5 1-6 3-6l3 1 1 3 4 10 2 4h-24z"/></svg>