<?xml version="1.0" encoding="UTF-8" standalone="no"?>
<!-- Creator: CorelDRAW Home & Student X8 -->

<svg
   xml:space="preserve"
   width="7.9375005mm"
   height="5.291667mm"
   version="1.1"
   style="clip-rule:evenodd;fill-rule:evenodd;image-rendering:optimizeQuality;shape-rendering:geometricPrecision;text-rendering:geometricPrecision"
   viewBox="0 0 793.75005 529.1667"
   id="svg8"
   sodipodi:docname="Guadölup.svg"
   inkscape:version="1.4 (86a8ad7, 2024-10-11)"
   xmlns:inkscape="http://www.inkscape.org/namespaces/inkscape"
   xmlns:sodipodi="http://sodipodi.sourceforge.net/DTD/sodipodi-0.dtd"
   xmlns="http://www.w3.org/2000/svg"
   xmlns:svg="http://www.w3.org/2000/svg"><sodipodi:namedview
   id="namedview8"
   pagecolor="#ffffff"
   bordercolor="#000000"
   borderopacity="0.25"
   inkscape:showpageshadow="2"
   inkscape:pageopacity="0.0"
   inkscape:pagecheckerboard="0"
   inkscape:deskcolor="#d1d1d1"
   inkscape:document-units="mm"
   inkscape:zoom="1.4234583"
   inkscape:cx="425.37248"
   inkscape:cy="283.46457"
   inkscape:window-width="1920"
   inkscape:window-height="1009"
   inkscape:window-x="-8"
   inkscape:window-y="-8"
   inkscape:window-maximized="1"
   inkscape:current-layer="Layer_x0020_1" />
 <defs
   id="defs1">
  <style
   type="text/css"
   id="style1">
   <![CDATA[
    .fil0 {fill:#2B2A29;fill-rule:nonzero}
    .fil1 {fill:#393286;fill-rule:nonzero}
    .fil2 {fill:#398C36;fill-rule:nonzero}
    .fil3 {fill:#FCDF08;fill-rule:nonzero}
   ]]>
  </style>
 </defs>
 <g
   id="Layer_x0020_1"
   inkscape:label="Layer 1"
   inkscape:groupmode="layer"
   transform="translate(9)">
  <metadata
   id="CorelCorpID_0Corel-Layer" />
  <polygon
   class="fil0"
   points="-9,0 -9,15000 22491,15000 22491,0 "
   id="polygon1"
   transform="matrix(0.03527778,0,0,0.03527778,-8.6825,0)" />
  <polygon
   class="fil1"
   points="-9,0 -9,5006 22491,5006 22491,0 "
   id="polygon2"
   transform="matrix(0.03527778,0,0,0.03527778,-8.6825,0)" />
  <path
   class="fil2"
   d="m 211.55667,271.53306 c 0.35278,-0.35278 5.85611,1.48167 12.41778,4.02167 6.52639,2.54 14.95777,4.97416 18.59139,5.18583 6.42055,0.28222 29.10416,11.1125 28.8925,13.68778 -0.0353,2.43416 -34.32528,-8.04334 -46.355,-14.14639 -14.42862,-7.19667 -14.78139,-7.54945 -13.54667,-8.74889 z"
   id="path2"
   style="stroke-width:0.0352778" />
  <path
   class="fil2"
   d="m 253.81945,276.5425 c 2.78694,6.73806 12.55889,11.35945 25.7175,12.48834 8.89,0.635 4.83305,-3.21028 -7.62,-7.76111 -5.82084,-1.83445 -12.62945,-5.36223 -15.52223,-7.47889 -5.08,-3.91584 -5.08,-3.91584 -2.57527,2.75166 z M 130.02972,226.02472 c 7.09084,10.54806 15.20473,18.16806 30.86806,28.71612 11.50056,7.83166 21.55472,13.97 22.04861,13.47611 0.98778,-1.23473 -56.33861,-54.43361 -60.28972,-55.91528 -1.44639,-0.49389 1.72861,5.64444 7.37305,13.72305 z m 147.49639,56.16223 c 5.32695,2.50472 12.10028,4.445 15.52223,4.55083 4.05694,0.14111 2.99861,-0.84667 -4.58611,-3.77472 -5.89139,-2.32833 -12.98223,-6.20889 -16.12195,-8.60778 -5.60917,-4.62139 -5.60917,-4.62139 -5.04472,-0.56444 0.35278,2.32833 4.58611,5.89139 10.23055,8.39611 z m -33.09055,-47.83667 c 3.42194,13.72306 17.63889,38.98195 22.5425,39.96972 4.40972,0.74084 4.40972,0.49389 0.74083,-3.66889 -6.13833,-7.12611 -19.3675,-33.12583 -19.3675,-38.02944 0,-2.71639 -1.23472,-4.65667 -2.68111,-4.65667 -1.72861,0 -2.2225,2.43417 -1.23472,6.38528 z M 97.186112,217.09945 c -0.105833,0.49389 4.515558,4.05694 10.265838,8.04333 5.78555,4.02167 12.48833,9.70139 14.71083,12.55889 3.81,5.18583 25.43528,17.95639 27.48139,16.33361 1.97555,-1.41111 -25.89389,-24.02417 -37.64139,-30.58583 -14.040557,-7.9375 -14.534446,-8.00806 -14.816668,-6.35 z m 7.902218,18.87361 c 0,0.49389 5.11528,3.21028 11.50056,6.13833 6.38528,2.96333 13.97,7.37306 16.65111,9.80722 4.65667,4.40973 28.18695,13.26445 29.88028,11.28889 1.72861,-1.69333 -29.63333,-19.12055 -42.36861,-23.56555 -15.16945,-5.36223 -15.66334,-5.36223 -15.66334,-3.66889 z m 109.25528,8.67833 c 9.31334,17.145 18.87361,28.43389 22.78945,27.23445 1.94028,-0.74084 -2.46945,-7.86695 -12.02972,-19.40278 -8.5725,-10.05417 -15.91028,-18.87361 -16.65112,-19.61445 -0.74083,-0.74083 1.97556,4.65667 5.89139,11.78278 z m 12.02973,-6.70278 c 0,2.68111 9.56027,21.34306 15.20472,29.17473 3.175,4.40972 6.84389,6.87916 11.00666,6.87916 6.13834,0 6.13834,0 -3.175,-10.54805 -5.3975,-5.64445 -12.48833,-14.21695 -16.15722,-18.87361 -3.70416,-4.65667 -6.87916,-7.62 -6.87916,-6.63223 z m -22.50723,7.9375 c 0,3.66889 17.88584,28.18695 20.67278,28.18695 1.27,0 -1.76389,-5.89139 -7.05555,-12.98222 -11.85334,-16.1925 -13.61723,-17.92112 -13.61723,-15.20473 z m -16.93333,67.55695 c -16.15722,6.38528 -19.61444,8.60778 -19.61444,12.02972 0,1.48167 1.72861,1.23472 4.40972,-0.98778 2.2225,-2.18722 10.30111,-5.15055 17.63889,-6.84389 7.37305,-1.72861 16.1925,-4.69194 19.61444,-6.38527 l 6.13833,-3.21028 h -7.37305 c -3.91583,0.24694 -13.47611,2.71639 -20.81389,5.3975 z M 141.03639,271.78 c 12.065,11.00667 52.45806,31.78528 72.95445,37.88834 5.53861,1.62277 14.53444,2.01083 19.61444,0.9525 l 9.48972,-1.905 -9.34861,-4.93889 c -15.09889,-7.79639 -39.89917,-24.34167 -48.78917,-32.34972 -9.70138,-8.71362 -9.38388,-5.71501 0.49389,6.35 3.84528,4.86833 15.24,13.26444 25.22361,18.48555 10.05417,5.46806 17.10973,10.4775 15.94556,10.90083 -2.99861,1.09362 -30.62111,-14.67555 -51.64667,-29.49222 -22.82472,-16.1925 -23.77722,-16.65111 -15.27527,-6.17361 4.16277,5.00945 11.85333,11.88861 17.4625,15.06361 5.43277,3.4925 9.17222,6.56167 8.00805,6.985 -2.29305,0.84667 -16.61583,-6.985 -35.31306,-18.97944 -5.22111,-3.56306 -12.31194,-8.04334 -15.38111,-10.05417 -3.38666,-2.15194 -0.35277,1.19944 6.56167,7.26722 z m 1.76389,-3.42194 -9.80722,3.175 7.37305,1.23472 c 3.91584,0.98778 9.06639,0.49389 11.50056,-0.74083 2.2225,-1.19945 6.63222,-2.18722 9.80722,-2.43417 5.3975,0 5.3975,-0.24694 0.74083,-2.2225 -6.13833,-2.68111 -7.62,-2.68111 -19.61444,0.98778 z m 12.065,6.6675 c -4.16278,3.175 -3.91583,3.42194 5.15056,1.94028 5.3975,-0.74084 13.22916,-2.18723 17.145,-3.175 6.38527,-1.72861 5.89138,-1.97556 -5.15056,-2.2225 -7.33778,-0.24695 -14.18167,1.23472 -17.145,3.45722 z M 94.011112,249.2375 c 40.428338,7.33778 121.531948,34.57223 116.628338,39.22889 -1.23473,1.23472 -24.02417,-4.40972 -27.19917,-6.63222 -1.23472,-1.19944 -13.22917,-0.74083 -26.45833,0.98778 -24.765,2.71639 -28.92778,4.90361 -28.43389,14.95778 0.24694,4.90361 0.24694,4.90361 1.48166,0 2.18723,-9.06639 5.85611,-11.00667 19.82611,-11.00667 15.20473,0 56.86778,6.10305 75.21223,11.00667 24.51805,6.87916 25.25889,6.87916 17.18028,2.46944 -10.54806,-5.89139 -26.45834,-16.68639 -29.42167,-19.86139 -5.3975,-6.13833 -103.11695,-33.12583 -117.333891,-32.63194 -6.632222,0.49388 -6.879167,0.49388 -1.481667,1.48166 z m 18.591388,13.05278 c -2.92805,2.2225 -6.13833,7.37306 -6.84389,11.53583 -1.48166,7.12612 -1.48166,7.12612 2.43417,2.46945 10.30111,-13.0175 11.00667,-13.51139 23.77722,-13.75834 10.26583,-0.24694 11.7475,-0.74083 6.84389,-2.18722 -10.30111,-3.21028 -20.56694,-2.46944 -26.21139,1.94028 z m 124.84806,15.13417 c 1.97555,3.45722 21.09611,13.0175 22.5425,11.53583 0.74083,-0.74083 -1.44639,-2.68111 -4.40972,-4.40972 -3.175,-1.72861 -7.33778,-4.40972 -9.06639,-6.38528 -3.91584,-3.66889 -11.25361,-4.40972 -9.06639,-0.74083 z m 1.48166,23.31861 c 1.97556,3.42194 21.06084,12.98222 22.54251,11.53583 0.74083,-0.74083 -1.48167,-2.71639 -4.40973,-4.40972 -3.175,-1.72861 -7.33778,-4.445 -9.06639,-6.38528 -3.91583,-3.70416 -11.25361,-4.40972 -9.06639,-0.74083 z m 13.19389,-11.28889 c -4.55083,1.76389 -9.17222,4.97417 -10.58333,7.26722 -1.69333,2.68111 -0.28222,2.71639 5.64444,-0.24694 4.62139,-2.29306 11.28889,-4.19806 14.95778,-4.51556 6.84389,-0.35278 6.84389,-0.35278 2.46945,-3.06916 -2.46945,-1.55223 -7.79639,-1.41112 -12.48834,0.56444 z m -28.18694,17.60361 c -13.97,12.55889 -17.07445,21.2725 -12.59417,34.29 l 3.84528,11.1125 -1.05833,-11.25361 c -1.65806,-15.45167 2.50472,-22.47194 19.40277,-34.67806 7.9375,-5.67972 14.25223,-10.83027 14.11112,-11.32416 -0.84667,-2.54 -16.61584,5.15055 -23.70667,11.85333 z M 137.47333,206.79834 c 7.62,14.46388 38.45278,47.83666 55.63306,60.57194 4.65667,3.45722 12.98222,6.87917 18.0975,7.62 l 9.56028,1.44639 -7.09083,-7.83167 c -11.50056,-12.52361 -29.13945,-36.54778 -34.78389,-47.09583 -6.13834,-11.53583 -6.87917,-8.5725 -1.72861,6.13833 1.97555,5.89139 9.80722,17.63889 17.39194,25.99972 7.62,8.5725 12.48833,15.69862 11.28889,15.69862 -3.21028,0 -23.77722,-24.27112 -38.48806,-45.36723 -15.91028,-23.07166 -16.65111,-23.8125 -12.24139,-11.04194 2.2225,6.13833 7.12612,15.20472 11.28889,20.10833 3.91584,5.15056 6.35,9.31334 5.15056,9.31334 -2.46945,0 -13.22917,-12.27667 -26.70528,-29.91556 -3.70417,-5.15056 -8.81944,-11.78278 -11.04194,-14.71083 -2.43417,-3.21028 -0.74084,0.98777 3.66888,9.06639 z m 79.02223,68.68583 c 0,1.69333 3.70416,6.13833 8.11389,9.56028 12.98222,9.80722 47.51916,26.24666 51.92889,24.51805 2.68111,-0.98777 -1.48167,-3.66889 -13.22917,-8.07861 -20.60222,-8.11389 -39.47583,-18.90889 -39.47583,-22.57778 0,-1.94027 8.11388,-2.2225 28.18694,-0.98777 30.12722,1.72861 39.19361,-1.69334 11.7475,-4.16278 -28.8925,-2.92806 -47.27222,-2.2225 -47.27222,1.72861 z m -64.66417,26.24667 c -10.54806,2.43416 -16.15722,6.13833 -16.15722,10.54805 0,1.69334 0.98778,1.44639 2.18722,-0.49389 1.97556,-3.21027 22.04861,-9.10166 24.02417,-7.12611 0.45861,0.49389 -0.24695,4.16278 -1.72861,7.86695 -1.44639,3.66889 -1.94028,7.33777 -1.23473,8.07861 0.74084,0.98778 1.97556,-0.98778 2.71639,-3.66889 2.92806,-10.54806 11.99445,-13.75833 33.79611,-11.78278 11.00667,0.98778 23.28334,2.2225 27.19917,2.46945 4.16278,0.21166 9.80722,1.69333 12.73528,3.42194 6.35,3.42194 31.115,3.66889 28.92778,0.24694 -0.77611,-1.23472 -5.3975,-2.96333 -10.54806,-3.66888 -4.90361,-0.74084 -15.20472,-3.21028 -22.78944,-5.18584 -15.16945,-3.91583 -63.67639,-4.40972 -79.12806,-0.70555 z m 89.46445,28.29277 c -18.45028,-3.28083 -27.23445,-0.35277 -34.71334,11.18306 l -6.38528,9.91306 8.18445,-7.79639 c 11.14778,-10.83028 19.22639,-11.85334 39.26417,-6.0325 9.34861,2.75166 17.28611,4.58611 17.56833,4.16277 1.51694,-2.2225 -14.2875,-9.94833 -23.91833,-11.43 z m -23.91834,-6.84388 c -34.04305,9.34861 -37.95889,12.77055 -33.05528,28.22222 1.94028,5.89139 1.94028,5.64444 2.18723,-1.97556 0.24694,-4.16278 2.46944,-10.05416 4.90361,-12.48833 4.40972,-4.40972 24.27111,-10.05417 48.50694,-14.00528 5.89139,-0.70555 9.80722,-2.43417 9.06639,-3.66889 -1.97555,-3.175 -9.80722,-2.18722 -31.60889,3.91584 z m 28.92778,11.99444 c -17.10972,7.62 -22.75417,14.95778 -22.50722,28.71611 l 0.24694,11.7475 2.43417,-11.04194 c 3.175,-15.20473 9.31333,-20.56695 29.17472,-26.95223 9.27806,-2.96333 16.86278,-5.89138 16.86278,-6.38527 0,-2.68111 -17.39195,-0.24695 -26.21139,3.91583 z m -3.24556,21.06083 c -2.92805,3.91584 -5.15055,9.06639 -5.15055,11.78278 0,3.175 1.23472,2.43417 4.65667,-3.21028 2.71638,-4.40972 7.37305,-9.56027 10.30111,-11.7475 5.64444,-3.95111 5.64444,-3.95111 0.49389,-3.95111 -2.92806,0 -7.33778,2.96334 -10.30112,7.12611 z"
   id="path3"
   style="stroke-width:0.0352778" />
  <path
   class="fil2"
   d="m 637.18306,468.48889 c -1.55222,2.61056 -2.64583,4.48028 -3.38666,5.78556 -7.65528,-2.29306 -39.79334,-16.68639 -67.31001,-29.13945 -27.72833,-12.52361 -67.16888,-28.61027 -74.54194,-33.12583 -5.67972,-3.4925 -5.15056,-6.42055 1.76389,-3.84528 6.94972,2.57528 33.655,15.13417 52.59917,23.42445 21.9075,9.77194 76.94083,31.22083 90.87555,36.90055 z M 496.60112,405.65917 c 7.54944,4.30389 47.51916,18.97945 75.67083,30.55056 27.90472,11.46527 60.53667,24.72972 68.2625,26.74055 0.70556,-1.34055 1.76389,-3.24555 3.21028,-5.89139 -14.11111,-5.22111 -69.88528,-24.69444 -92.14556,-33.69027 -19.19111,-7.65528 -46.355,-19.26167 -53.37528,-21.59 -7.02027,-2.32834 -7.40833,0.635 -1.62277,3.88055 z m -7.97278,8.36083 c -6.77333,-2.92805 -7.44361,-0.0353 -1.97556,3.73945 7.16139,4.93889 45.68473,23.03639 72.7075,37.00639 26.84639,13.89944 58.17306,29.95083 65.7225,32.59667 0.81139,-1.27 2.01084,-3.06917 3.66889,-5.53862 -13.58194,-6.45583 -67.45111,-30.72694 -88.82944,-41.66305 -18.45028,-9.24278 -44.48528,-23.1775 -51.29389,-26.14084 z m 81.28,-14.11111 c -20.07306,-4.86833 -48.5775,-12.55889 -55.84472,-13.89944 -7.26723,-1.34056 -7.26723,1.65805 -1.09361,4.09222 8.07861,3.175 49.67111,12.13556 79.16333,19.685 29.24528,7.47889 63.39417,16.05139 71.33167,16.96861 0.52916,-1.44639 1.30527,-3.45722 2.36361,-6.27944 -14.71084,-3.21028 -72.63695,-14.71084 -95.92028,-20.56695 z m -12.48833,15.52223 c -19.57917,-6.63223 -47.3075,-16.79223 -54.43362,-18.76778 -7.12611,-1.94028 -7.37305,1.02305 -1.44638,3.98639 7.76111,3.88055 48.43638,16.43944 77.1525,26.52889 28.50444,9.98361 61.77139,21.51944 69.60305,23.10694 0.635,-1.34056 1.5875,-3.31611 2.8575,-6.0325 -14.35805,-4.445 -71.04944,-20.99028 -93.73305,-28.82194 z m 7.05555,-7.40834 c -19.86139,-5.57389 -48.08361,-14.2875 -55.31555,-15.875 -7.23195,-1.5875 -7.33778,1.41111 -1.23473,4.05695 7.97278,3.45722 49.24778,13.86416 78.45778,22.43666 28.96306,8.50195 62.75917,18.27389 70.69667,19.43806 0.56444,-1.37583 1.37583,-3.38667 2.54,-6.17361 -14.56972,-3.70417 -72.0725,-17.25084 -95.14417,-23.88306 z"
   id="path4"
   style="stroke-width:0.0352778" />
  <path
   class="fil3"
   d="m 401.21,469.9 7.9375,5.67973 c 11.35945,7.9375 17.60362,18.97944 17.00389,30.33889 l -0.42333,9.41916 3.73944,-9.24277 c 4.05695,-9.70139 3.4925,-24.34167 -1.30527,-35.20723 l -2.82223,-6.31472 8.92528,3.88056 c 12.77056,5.3975 21.20195,14.88722 22.96584,26.14083 l 1.51694,9.27806 1.72861,-9.80723 c 2.01083,-10.30111 -1.5875,-24.51805 -8.5725,-34.14889 l -4.05694,-5.60916 9.56027,1.97555 c 13.58195,2.61056 23.77723,10.12472 27.83417,20.77861 l 3.45722,8.74889 -0.35277,-9.94833 c -0.21167,-10.51278 -6.6675,-23.67139 -15.48695,-31.60889 l -5.15055,-4.65667 9.77194,-0.0705 c 13.82889,-0.28222 25.4,4.97416 31.57361,14.53444 l 5.15056,7.83167 -2.39889,-9.66611 c -2.36361,-10.23056 -11.43,-21.73111 -21.69583,-27.69306 l -5.99723,-3.45722 9.525,-2.11667 c 13.47611,-3.13972 25.85861,-0.42333 33.90195,7.65528 l 6.70278,6.59695 -4.37445,-8.96056 c -4.445,-9.48972 -15.69861,-18.90889 -26.9875,-22.57778 l -6.59694,-2.11666 8.89,-4.05695 c 12.55889,-5.89139 25.22361,-5.82083 34.74861,0.42333 l 7.9375,5.08 -6.13834,-7.86694 c -6.35,-8.39611 -19.29694,-15.24 -31.07972,-16.47472 l -6.87916,-0.70556 7.83166,-5.82083 c 11.04195,-8.36084 23.45972,-10.93611 34.07834,-6.80861 l 8.78416,3.28083 -7.62,-6.38528 c -7.9375,-6.87916 -22.01333,-10.86555 -33.83139,-9.63083 l -6.87916,0.70555 6.49111,-7.3025 c 9.06639,-10.4775 20.67278,-15.5575 31.89111,-13.75833 l 9.31333,1.41111 -8.81944,-4.69194 c -9.17222,-5.08 -23.77722,-6.06778 -35.06611,-2.36361 l -6.59695,2.11666 4.83306,-8.50194 c 6.6675,-12.13556 16.96861,-19.50861 28.32805,-20.10833 l 9.38389,-0.56445 -9.56028,-2.71639 c -10.05416,-3.06916 -24.55333,-0.98778 -34.81916,4.93889 l -5.96195,3.4925 2.92806,-9.31333 c 4.02167,-13.29972 12.55889,-22.64834 23.56555,-25.57639 l 9.06639,-2.50472 -9.94833,-0.70556 c -10.4775,-0.88194 -24.20056,4.16278 -33.02,12.10028 l -5.15056,4.65667 0.9525,-9.73667 c 1.16417,-13.82889 7.58473,-24.765 17.74473,-29.91556 l 8.32555,-4.33916 -9.87778,1.41111 c -10.40694,1.30527 -22.78944,9.10166 -29.77444,18.69722 l -4.05695,5.60917 -1.09361,-9.70139 c -1.72861,-13.75834 2.25778,-25.78806 11.14778,-32.94945 l 7.23195,-5.96194 -9.34862,3.38666 c -9.91305,3.45723 -20.42583,13.6525 -25.22361,24.51806 l -2.82222,6.31472 -3.10444,-9.24278 c -4.55084,-13.12333 -3.10445,-25.7175 4.05694,-34.57222 l 5.85611,-7.33778 -8.43139,5.29167 c -8.99583,5.3975 -17.145,17.60361 -19.61444,29.21 l -1.44639,6.77333 -4.93889,-8.39611 c -7.16139,-11.88861 -8.39611,-24.51805 -3.21028,-34.64277 l 4.19806,-8.43139 -7.16139,6.94972 c -7.65528,7.16139 -13.08806,20.77861 -13.08806,32.66722 v 6.91445 l -6.59694,-7.19667 c -9.45444,-10.12472 -13.29972,-22.225 -10.33639,-33.23167 l 2.36361,-9.10166 -5.57389,8.29027 c -5.99722,8.60778 -8.50194,23.03639 -6.0325,34.67806 l 1.44639,6.77333 -7.9375,-5.67972 c -11.35944,-7.9375 -17.63889,-18.97944 -17.00389,-30.33889 l 0.42334,-9.41917 -3.73945,9.27806 c -4.09222,9.66611 -3.52778,24.30639 1.30528,35.17194 l 2.82222,6.31473 -8.96055,-3.88056 c -12.77056,-5.3975 -21.16667,-14.88722 -22.93056,-26.14083 l -1.55222,-9.27806 -1.72861,9.80722 c -1.97556,10.33639 1.62277,24.51806 8.60777,34.14889 l 4.05695,5.60917 -9.56028,-1.97556 c -13.61722,-2.61055 -23.8125,-10.12472 -27.86944,-20.77861 l -3.42195,-8.74889 0.35278,9.94834 c 0.17639,10.51278 6.6675,23.67139 15.48694,31.60889 l 5.11528,4.65666 -9.73666,0.0706 c -13.86417,0.28222 -25.4,-4.97417 -31.57362,-14.53445 l -5.18583,-7.86694 2.39889,9.70139 c 2.39889,10.23055 11.43,21.73111 21.73111,27.69306 l 5.99722,3.45722 -9.525,2.11666 c -13.51139,3.13973 -25.89389,0.42334 -33.90194,-7.65527 l -6.70278,-6.59695 4.37444,8.96056 c 4.445,9.525 15.69862,18.87361 26.98751,22.57778 l 6.56166,2.11666 -8.89,4.05695 c -12.52361,5.89139 -25.18833,5.78555 -34.71333,-0.42334 l -7.9375,-5.08 6.13833,7.86695 c 6.31472,8.39611 19.26167,15.24 31.07972,16.47472 l 6.87917,0.70556 -7.83167,5.82083 c -11.07722,8.36083 -23.45972,10.93611 -34.07833,6.80861 l -8.81944,-3.31611 7.62,6.42055 c 7.9375,6.87917 22.04861,10.86556 33.83139,9.63084 l 6.87916,-0.70556 -6.45583,7.3025 c -9.06639,10.4775 -20.67278,15.5575 -31.92639,13.75834 l -9.27806,-1.41112 8.78417,4.69195 c 9.2075,5.08 23.8125,6.0325 35.10139,2.39889 l 6.56167,-2.15195 -4.79778,8.50195 c -6.70278,12.13555 -17.00389,19.50861 -28.36334,20.10833 l -9.38388,0.52917 9.59555,2.75167 c 10.01889,3.06916 24.51806,0.98777 34.78389,-4.97417 l 5.99722,-3.45722 -2.92805,9.31333 c -4.02167,13.29972 -12.55889,22.64833 -23.56556,25.57639 l -9.06639,2.50472 9.94834,0.70556 c 10.44222,0.88194 24.20055,-4.16278 33.02,-12.13556 l 5.11527,-4.62139 -0.91722,9.70139 c -1.19944,13.82889 -7.58472,24.765 -17.74472,29.91556 l -8.36083,4.33916 9.87777,-1.37583 c 10.40695,-1.30528 22.82473,-9.10167 29.77445,-18.7325 l 4.09222,-5.60917 1.09361,9.70139 c 1.69334,13.79361 -2.29305,25.82334 -11.14778,32.98472 l -7.26722,5.96195 9.38389,-3.42194 c 9.91306,-3.42195 20.39056,-13.65251 25.22361,-24.48278 l 2.82222,-6.35 3.06917,9.27805 c 4.55083,13.08806 3.13972,25.7175 -4.05694,34.53695 l -5.85611,7.37305 8.46666,-5.29166 c 8.99584,-5.43278 17.10972,-17.60362 19.57917,-29.21 l 1.44639,-6.80862 4.93889,8.43139 c 7.19666,11.88862 8.39611,24.48278 3.21027,34.64278 l -4.19805,8.43139 7.16139,-6.94972 c 7.69055,-7.16139 13.12333,-20.77861 13.12333,-32.66722 v -6.91445 l 6.56167,7.19667 c 9.48972,10.12472 13.335,22.225 10.33639,33.23167 l -2.32834,9.10166 5.53862,-8.29028 c 6.0325,-8.60777 8.50194,-23.03638 6.0325,-34.67805 z"
   id="path5"
   style="stroke-width:0.0352778" />
  <path
   class="fil3"
   d="m 376.7625,19.755556 c -9.66611,16.016111 -10.83027,28.786667 -4.23333,50.870556 3.175,10.265833 6.70278,25.682222 8.14917,34.007778 1.97555,11.78278 1.76389,12.91167 2.04611,15.45167 2.43417,0 8.00805,0 10.58333,0 0.38806,-4.09223 0.67028,-8.78417 1.55222,-15.24 1.02306,-7.549448 4.02167,-23.318615 7.23195,-34.290004 6.45583,-21.9075 6.0325,-35.348333 -3.98639,-50.553056 -3.70417,-5.609167 -8.60778,-10.301111 -10.795,-10.301111 -2.2225,0 -7.19667,4.303889 -10.54806,10.054167 z m 47.58973,45.226111 c -13.68778,5.891389 -21.94278,22.189723 -26.45834,44.661663 -0.84666,4.19806 -1.02305,5.67973 -1.44639,10.44223 2.96334,0 4.1275,0.0353 7.02028,0 0.635,-3.175 1.09361,-4.86834 2.46945,-9.41917 5.53861,-17.533056 21.87222,-24.588611 21.13139,-8.14917 -0.24695,4.55084 -2.15195,7.09084 -4.30389,9.525 2.64583,-0.67027 8.21972,-3.28083 12.77055,-5.85611 25.22361,-15.20472 15.27528,-52.493332 -11.18305,-41.204443 z m -56.05639,60.818893 c 11.07722,0.0705 30.23305,0.14111 39.40528,0.10583 0,-2.36361 0.0353,-1.16417 0.0705,-3.06917 -6.77333,-0.0705 -32.66722,0.0353 -39.40528,0.0353 0,1.23472 -0.0353,1.83445 -0.0706,2.92806 z m 3.28083,12.98222 c -4.02167,4.33917 -10.23056,7.54944 -10.23056,7.54944 0,0 5.50334,0.59973 10.65389,0.24695 5.15056,-0.38806 8.00806,-1.02306 11.04195,-2.50472 -0.81139,6.13833 -0.88195,12.065 -0.88195,12.065 0.74084,7.90222 1.5875,9.91305 3.31612,13.75833 2.32833,3.21028 3.66888,3.21028 5.36222,-0.17639 1.83444,-3.77472 3.06916,-7.69055 3.45722,-13.61722 -0.14111,-4.48028 -0.38806,-6.49111 -1.44639,-11.95917 3.56306,1.55222 5.82083,1.94028 11.1125,2.43417 5.43278,0.49389 10.44222,0.24694 10.44222,0.24694 0,0 -7.33777,-3.70416 -10.58333,-8.21972 -3.175,-4.445 -2.50472,-3.70417 -4.83306,-9.45444 -2.82222,-0.14112 -17.10972,0 -21.62527,0 -2.46945,5.25638 -2.71639,6.35 -5.78556,9.63083 z M 351.39778,64.981667 c 13.72306,5.891389 21.97806,22.189723 26.49361,44.626393 0.81139,4.23333 1.02306,5.715 1.44639,10.4775 -2.99861,0 -4.16278,0.0353 -7.05555,0 -0.635,-3.175 -1.05834,-4.86834 -2.46945,-9.41917 -5.53861,-17.533056 -21.83694,-24.588611 -21.09611,-8.14917 0.24694,4.51556 2.15194,7.05556 4.26861,9.48973 -2.64583,-0.635 -8.21972,-3.24556 -12.73528,-5.82084 -25.25889,-15.239998 -15.31055,-52.493332 11.14778,-41.204443 z"
   id="path6"
   style="stroke-width:0.0352778" />
  <path
   class="fil3"
   d="m 132.04056,19.755556 c -9.70139,16.016111 -10.86556,28.786667 -4.23334,50.870556 3.175,10.265833 6.6675,25.682222 8.14917,34.007778 1.97556,11.78278 1.76389,12.91167 2.01083,15.45167 2.46945,0 8.04334,0 10.61861,0 0.35278,-4.09223 0.67028,-8.78417 1.51695,-15.24 1.02305,-7.549448 4.02167,-23.318615 7.26722,-34.290004 6.45584,-21.9075 6.0325,-35.348333 -4.02166,-50.553056 -3.66889,-5.609167 -8.57251,-10.301111 -10.79501,-10.301111 -2.18722,0 -7.19666,4.303889 -10.51277,10.054167 z m 47.58972,45.226111 c -13.72306,5.891389 -21.97806,22.189723 -26.49361,44.661663 -0.81139,4.19806 -1.02306,5.67973 -1.44639,10.44223 2.99861,0 4.16278,0.0353 7.05556,0 0.635,-3.175 1.05833,-4.86834 2.46944,-9.41917 5.53861,-17.533056 21.83694,-24.588611 21.09611,-8.14917 -0.24694,4.55084 -2.15194,7.09084 -4.26861,9.525 2.64583,-0.67027 8.21972,-3.28083 12.73528,-5.85611 25.25889,-15.20472 15.31055,-52.493332 -11.14778,-41.204443 z m -56.05639,60.818893 c 11.07722,0.0705 30.19778,0.14111 39.40528,0.10583 0,-2.36361 0.0353,-1.16417 0.0705,-3.06917 -6.77333,-0.0705 -32.7025,0.0353 -39.44055,0.0353 0.0353,1.23472 0,1.83445 -0.0353,2.92806 z m 3.24556,12.98222 c -3.98639,4.33917 -10.23056,7.54944 -10.23056,7.54944 0,0 5.53861,0.59973 10.65389,0.24695 5.15055,-0.38806 8.00805,-1.02306 11.04194,-2.50472 -0.81139,6.13833 -0.88194,12.065 -0.88194,12.065 0.77611,7.90222 1.62278,9.91305 3.31611,13.75833 2.32833,3.21028 3.66889,3.21028 5.3975,-0.17639 1.83444,-3.77472 3.03389,-7.69055 3.42194,-13.61722 -0.10583,-4.48028 -0.38805,-6.49111 -1.41111,-11.95917 3.52778,1.55222 5.78556,1.94028 11.1125,2.43417 5.43278,0.49389 10.40695,0.24694 10.40695,0.24694 0,0 -7.33778,-3.70416 -10.54806,-8.21972 -3.21027,-4.445 -2.54,-3.70417 -4.83305,-9.45444 -2.82223,-0.14112 -17.10973,0 -21.62528,0 -2.50472,5.25638 -2.75167,6.35 -5.82083,9.63083 z M 106.67583,64.981667 c 13.68778,5.891389 21.94278,22.189723 26.45834,44.626393 0.84666,4.23333 1.02305,5.715 1.44639,10.4775 -2.96334,0 -4.1275,0.0353 -7.02028,0 -0.635,-3.175 -1.09361,-4.86834 -2.50472,-9.41917 -5.53861,-17.533056 -21.83695,-24.588611 -21.09611,-8.14917 0.24694,4.51556 2.15194,7.05556 4.30388,9.48973 -2.64583,-0.635 -8.21972,-3.24556 -12.770551,-5.82084 C 70.269167,90.946112 80.217501,53.692778 106.67583,64.981667 Z"
   id="path7"
   style="stroke-width:0.0352778" />
  <path
   class="fil3"
   d="m 621.51973,19.755556 c -9.70139,16.016111 -10.86556,28.786667 -4.23333,50.870556 3.175,10.265833 6.6675,25.682222 8.14916,34.007778 1.97556,11.78278 1.76389,12.91167 2.01084,15.45167 2.46944,0 8.04333,0 10.61861,0 0.35277,-4.09223 0.67027,-8.78417 1.51694,-15.24 1.02306,-7.549448 4.02167,-23.318615 7.26722,-34.290004 6.45584,-21.9075 6.0325,-35.348333 -4.02166,-50.553056 -3.66889,-5.609167 -8.5725,-10.301111 -10.795,-10.301111 -2.18723,0 -7.19667,4.303889 -10.51278,10.054167 z m 47.58972,45.226111 c -13.72305,5.891389 -21.97805,22.189723 -26.49361,44.661663 -0.81139,4.19806 -1.02306,5.67973 -1.44639,10.44223 2.99861,0 4.16278,0.0353 7.05556,0 0.635,-3.175 1.05833,-4.86834 2.46944,-9.41917 5.53861,-17.533056 21.83695,-24.588611 21.09611,-8.14917 -0.24694,4.55084 -2.15194,7.09084 -4.26861,9.525 2.64583,-0.67027 8.21972,-3.28083 12.73528,-5.85611 25.25889,-15.20472 15.31056,-52.493332 -11.14778,-41.204443 z m -56.05639,60.818893 c 11.07722,0.0705 30.19778,0.14111 39.40528,0.10583 0,-2.36361 0.0353,-1.16417 0.0706,-3.06917 -6.77334,-0.0705 -32.7025,0.0353 -39.44056,0.0353 0.0353,1.23472 0,1.83445 -0.0353,2.92806 z m 3.24556,12.98222 c -3.98639,4.33917 -10.23056,7.54944 -10.23056,7.54944 0,0 5.53861,0.59973 10.65389,0.24695 5.15056,-0.38806 8.00806,-1.02306 11.04195,-2.50472 -0.81139,6.13833 -0.88195,12.065 -0.88195,12.065 0.77611,7.90222 1.62278,9.91305 3.31611,13.75833 2.32834,3.21028 3.66889,3.21028 5.3975,-0.17639 1.83445,-3.77472 3.03389,-7.69055 3.42195,-13.61722 -0.10584,-4.48028 -0.38806,-6.49111 -1.41111,-11.95917 3.52777,1.55222 5.78555,1.94028 11.1125,2.43417 5.43277,0.49389 10.40694,0.24694 10.40694,0.24694 0,0 -7.33778,-3.70416 -10.54806,-8.21972 -3.21027,-4.445 -2.54,-3.70417 -4.83305,-9.45444 -2.82222,-0.14112 -17.10972,0 -21.62528,0 -2.50472,5.25638 -2.75167,6.35 -5.82083,9.63083 z M 596.15501,64.981667 c 13.68777,5.891389 21.94277,22.189723 26.45833,44.626393 0.84667,4.23333 1.02306,5.715 1.44639,10.4775 -2.96333,0 -4.1275,0.0353 -7.02028,0 -0.635,-3.175 -1.09361,-4.86834 -2.50472,-9.41917 -5.53861,-17.533056 -21.83695,-24.588611 -21.09611,-8.14917 0.24694,4.51556 2.15194,7.05556 4.30389,9.48973 -2.64584,-0.635 -8.21973,-3.24556 -12.77056,-5.82084 -25.22361,-15.239998 -15.27528,-52.493332 11.18306,-41.204443 z"
   id="path8"
   style="stroke-width:0.0352778" />
 </g>
</svg>
