<?xml version="1.0" encoding="UTF-8" standalone="no"?>
<!-- Created with Inkscape (http://www.inkscape.org/) -->

<svg
   width="7.9375mm"
   height="5.2916698mm"
   viewBox="0 0 7.9375 5.29167"
   version="1.1"
   id="svg1"
   inkscape:version="1.4 (86a8ad7, 2024-10-11)"
   sodipodi:docname="gil.svg"
   xmlns:inkscape="http://www.inkscape.org/namespaces/inkscape"
   xmlns:sodipodi="http://sodipodi.sourceforge.net/DTD/sodipodi-0.dtd"
   xmlns:xlink="http://www.w3.org/1999/xlink"
   xmlns="http://www.w3.org/2000/svg"
   xmlns:svg="http://www.w3.org/2000/svg">
  <sodipodi:namedview
     id="namedview1"
     pagecolor="#ffffff"
     bordercolor="#000000"
     borderopacity="0.25"
     inkscape:showpageshadow="2"
     inkscape:pageopacity="0.0"
     inkscape:pagecheckerboard="0"
     inkscape:deskcolor="#d1d1d1"
     inkscape:document-units="mm"
     inkscape:zoom="0.71891835"
     inkscape:cx="411.03416"
     inkscape:cy="379.73714"
     inkscape:window-width="1904"
     inkscape:window-height="992"
     inkscape:window-x="-26"
     inkscape:window-y="145"
     inkscape:window-maximized="0"
     inkscape:current-layer="layer1" />
  <defs
     id="defs1">
    <radialGradient
       id="n"
       cx="489.07001"
       cy="210.33"
       r="0.345"
       gradientTransform="matrix(0.00861722,0,0,0.0090267,-825.15993,-674.59387)"
       gradientUnits="userSpaceOnUse">
      <stop
         style="stop-color:#fff"
         offset="0"
         id="stop19" />
      <stop
         style="stop-color:#fff;stop-opacity:0"
         offset="1"
         id="stop21" />
    </radialGradient>
    <radialGradient
       id="m"
       cx="477.85999"
       cy="215.27"
       r="0.345"
       gradientUnits="userSpaceOnUse"
       gradientTransform="matrix(0.00881945,0,0,0.00881945,-825.15993,-674.59387)">
      <stop
         style="stop-color:#a50a0a"
         offset=".259"
         id="stop14" />
      <stop
         style="stop-color:#4c0505"
         offset="1"
         id="stop16" />
    </radialGradient>
    <linearGradient
       id="l"
       x1="473.31"
       x2="475.92999"
       y1="237.25"
       y2="270.45001"
       gradientUnits="userSpaceOnUse"
       gradientTransform="matrix(0.00881945,0,0,0.00881945,-825.15993,-674.59387)">
      <stop
         style="stop-color:#f9f0aa"
         offset=".216"
         id="stop39" />
      <stop
         style="stop-color:#b07e09"
         offset="1"
         id="stop41" />
    </linearGradient>
    <linearGradient
       id="k"
       x1="451.54001"
       x2="455.37"
       y1="249.52"
       y2="240.58"
       gradientUnits="userSpaceOnUse"
       gradientTransform="matrix(0.00881945,0,0,0.00881945,-825.15993,-674.59387)">
      <stop
         style="stop-color:#f9f0aa"
         offset=".216"
         id="stop34" />
      <stop
         style="stop-color:#b07e09"
         offset="1"
         id="stop36" />
    </linearGradient>
    <radialGradient
       id="j"
       cx="445.98001"
       cy="252.36"
       r="13.018"
       gradientUnits="userSpaceOnUse"
       xlink:href="#a"
       gradientTransform="matrix(0.00881945,0,0,0.00881945,-825.15993,-674.59387)" />
    <radialGradient
       id="a">
      <stop
         style="stop-color:#f9f0aa"
         offset=".216"
         id="stop4" />
      <stop
         style="stop-color:#b07e09"
         offset="1"
         id="stop6" />
    </radialGradient>
    <linearGradient
       id="i"
       x1="483.13"
       x2="485.5"
       y1="296.66"
       y2="326.57999"
       gradientUnits="userSpaceOnUse"
       gradientTransform="matrix(0.00881945,0,0,0.00881945,-825.15993,-674.59387)">
      <stop
         style="stop-color:#b07e09;stop-opacity:0"
         offset=".216"
         id="stop29" />
      <stop
         style="stop-color:#b07e09"
         offset="1"
         id="stop31" />
    </linearGradient>
    <linearGradient
       id="h"
       x1="473.91"
       x2="472.35999"
       y1="259.17001"
       y2="231.96001"
       gradientUnits="userSpaceOnUse"
       gradientTransform="matrix(0.00881945,0,0,0.00881945,-825.15993,-674.59387)">
      <stop
         style="stop-color:#b07e09;stop-opacity:0"
         offset=".216"
         id="stop24" />
      <stop
         style="stop-color:#b07e09"
         offset="1"
         id="stop26" />
    </linearGradient>
    <radialGradient
       id="g"
       cx="458.39001"
       cy="307.06"
       r="17.354"
       gradientUnits="userSpaceOnUse"
       xlink:href="#a"
       gradientTransform="matrix(0.00881945,0,0,0.00881945,-825.15993,-674.59387)" />
    <radialGradient
       id="radialGradient2">
      <stop
         style="stop-color:#f9f0aa"
         offset=".216"
         id="stop1" />
      <stop
         style="stop-color:#b07e09"
         offset="1"
         id="stop2" />
    </radialGradient>
    <radialGradient
       id="f"
       cx="454.10999"
       cy="308.64001"
       r="9.7799997"
       gradientUnits="userSpaceOnUse"
       xlink:href="#a"
       gradientTransform="matrix(0.00881945,0,0,0.00881945,-825.15993,-674.59387)" />
    <radialGradient
       id="radialGradient5">
      <stop
         style="stop-color:#f9f0aa"
         offset=".216"
         id="stop3" />
      <stop
         style="stop-color:#b07e09"
         offset="1"
         id="stop5" />
    </radialGradient>
    <radialGradient
       id="e"
       cx="451.56"
       cy="313"
       r="10.911"
       gradientUnits="userSpaceOnUse"
       xlink:href="#a"
       gradientTransform="matrix(0.00881945,0,0,0.00881945,-825.15993,-674.59387)" />
    <radialGradient
       id="radialGradient8">
      <stop
         style="stop-color:#f9f0aa"
         offset=".216"
         id="stop7" />
      <stop
         style="stop-color:#b07e09"
         offset="1"
         id="stop8" />
    </radialGradient>
    <radialGradient
       id="d"
       cx="447.42001"
       cy="308.26999"
       r="16.534"
       gradientUnits="userSpaceOnUse"
       xlink:href="#a"
       gradientTransform="matrix(0.00881945,0,0,0.00881945,-825.15993,-674.59387)" />
    <radialGradient
       id="radialGradient10">
      <stop
         style="stop-color:#f9f0aa"
         offset=".216"
         id="stop9" />
      <stop
         style="stop-color:#b07e09"
         offset="1"
         id="stop10" />
    </radialGradient>
  </defs>
  <g
     inkscape:label="Layer 1"
     inkscape:groupmode="layer"
     id="layer1"
     transform="translate(754.63188,793.15499)">
    <path
       id="path2634"
       style="fill:#c81010;stroke-width:0.0152757"
       d="m -754.63188,-793.15499 h 7.9375 v 2.8575 h -7.9375 z" />
    <path
       style="color:#000000;fill:#f8d000;stroke-width:0.00811869;stroke-miterlimit:22.9256;-inkscape-stroke:none"
       d="m -750.56154,-792.67223 c -0.33707,-0.13912 -0.54341,-0.16469 -0.77395,-0.16698 -0.33389,0.002 -0.49324,0.14547 -0.81158,0.15869 0.12613,0.1356 0.58333,0.16875 0.77607,-0.009 0.28654,0.0298 0.35156,0.10703 0.4284,0.20312 -0.1196,-0.0189 -0.25739,-0.0532 -0.37169,0.073 -0.0965,0.0194 -0.14115,0 -0.30616,0 -0.077,0 -0.1037,0.0377 -0.10264,0.1058 0.0498,-0.0688 0.39414,-0.0282 0.47858,0 0.0648,0.0217 0.13373,0.11143 0.21588,0.12607 0.21535,0.0383 0.52433,-0.0741 0.80928,-0.15058 l 0.6162,-0.0813 h -0.42275 l 0.52875,-0.10579 c -0.24609,0 -0.40827,0 -0.57486,0 -0.0122,-0.0139 -0.0413,-0.0319 -0.0647,-0.0473 0.14787,-0.095 0.2786,-0.26784 0.31199,-0.35124 0.26658,-0.003 0.43865,-0.0273 0.64552,-0.0756 -1.36348,-0.15058 -1.05308,0.0118 -1.38238,0.32144 z"
       id="path2637" />
    <path
       style="color:#000000;fill:#000000;stroke-width:0.0176389;stroke-miterlimit:22.9256;-inkscape-stroke:none"
       d="m -749.92405,-793.0547 c -0.16808,-10e-4 -0.26791,0.0148 -0.3358,0.0455 -0.0679,0.0306 -0.10328,0.0761 -0.14187,0.13267 -0.0383,0.0561 -0.0804,0.1233 -0.16099,0.19958 -0.33569,-0.1382 -0.54259,-0.16401 -0.77273,-0.1663 h -4e-5 -3e-5 c -0.16752,10e-4 -0.29139,0.0377 -0.41279,0.0755 -0.12141,0.0377 -0.24035,0.0767 -0.39894,0.0833 l -0.009,3.5e-4 0.006,0.006 c 0.0646,0.0695 0.21109,0.11125 0.36594,0.11424 0.154,0.003 0.31618,-0.033 0.414,-0.1221 0.142,0.0149 0.22916,0.0414 0.28994,0.076 0.0573,0.0326 0.0915,0.0727 0.12726,0.1172 -0.0567,-0.009 -0.11718,-0.0209 -0.17783,-0.0163 -0.064,0.005 -0.12784,0.0282 -0.18535,0.0911 -0.0473,0.009 -0.082,0.009 -0.12537,0.007 -0.0437,-0.002 -0.0963,-0.007 -0.179,-0.007 -0.0392,0 -0.0665,0.01 -0.0836,0.0287 -0.0171,0.019 -0.0236,0.0466 -0.0231,0.0812 l 2.1e-4,0.0122 0.007,-0.01 c 0.011,-0.0152 0.041,-0.0259 0.0812,-0.0313 0.0402,-0.005 0.0904,-0.006 0.14166,-0.003 0.10255,0.005 0.20998,0.0224 0.25118,0.0362 0.0312,0.0104 0.0646,0.038 0.10029,0.0651 0.0357,0.027 0.0739,0.0536 0.11617,0.0612 0.21729,0.0386 0.52617,-0.0742 0.8108,-0.15062 l 0.6772,-0.0893 h -0.44348 l 0.52865,-0.1058 h -0.61471 c -0.0127,-0.0137 -0.0375,-0.0292 -0.0591,-0.0433 0.0726,-0.0476 0.14097,-0.1129 0.19534,-0.17725 0.0547,-0.0647 0.0949,-0.12739 0.11238,-0.16988 0.26535,-0.003 0.43763,-0.0275 0.64402,-0.0757 l 0.0231,-0.005 -0.0235,-0.003 c -0.34093,-0.0376 -0.57727,-0.0559 -0.74534,-0.057 z m -4e-5,0.008 c 0.16245,10e-4 0.3937,0.0188 0.71817,0.0542 -0.19516,0.0443 -0.3639,0.0675 -0.61881,0.0701 l -0.003,3e-5 -9.9e-4,0.003 c -0.0164,0.0409 -0.0573,0.10489 -0.11238,0.17015 -0.0551,0.0653 -0.12458,0.13197 -0.19803,0.17918 l -0.005,0.003 0.005,0.003 c 0.0234,0.0154 0.0526,0.0337 0.0638,0.0466 l 10e-4,10e-4 h 0.53575 l -0.52879,0.1058 h 0.40184 l -0.55508,0.0732 -2.8e-4,7e-5 c -0.2852,0.0766 -0.59419,0.18842 -0.80753,0.15052 -0.0399,-0.007 -0.0772,-0.0327 -0.11269,-0.0596 -0.0355,-0.0269 -0.069,-0.0551 -0.10259,-0.0663 -0.0432,-0.0144 -0.15018,-0.0315 -0.25336,-0.0366 -0.0516,-0.003 -0.10213,-0.002 -0.14314,0.003 -0.0359,0.005 -0.0626,0.0142 -0.0785,0.0291 6.5e-4,-0.0292 0.006,-0.0524 0.0202,-0.0678 0.0152,-0.0169 0.0397,-0.026 0.0776,-0.026 0.0823,0 0.13458,0.005 0.17856,0.007 0.044,0.002 0.0798,0.002 0.1284,-0.007 l 10e-4,-2.8e-4 8.9e-4,-10e-4 c 0.0565,-0.0624 0.11826,-0.0848 0.18118,-0.0896 0.0629,-0.005 0.12696,0.008 0.1869,0.0179 l 0.0103,0.002 -0.007,-0.008 c -0.0384,-0.0481 -0.0744,-0.092 -0.13673,-0.12743 -0.0623,-0.0354 -0.15082,-0.0623 -0.29442,-0.0772 l -0.002,-2.1e-4 -10e-4,0.001 c -0.0951,0.0879 -0.25671,0.12417 -0.41017,0.1212 -0.1485,-0.003 -0.28764,-0.0433 -0.35233,-0.10583 0.15418,-0.008 0.27189,-0.0458 0.39036,-0.0826 0.12131,-0.0377 0.24401,-0.0739 0.41035,-0.0751 0.23026,0.002 0.43576,0.0277 0.77246,0.16667 l 0.002,10e-4 0.002,-0.002 c 0.0827,-0.0778 0.12531,-0.14641 0.16374,-0.20271 0.0384,-0.0563 0.0724,-0.10001 0.1385,-0.12985 0.0661,-0.0298 0.16492,-0.0456 0.33241,-0.0445 z"
       id="path2640" />
    <path
       style="color:#000000;fill:#000000;stroke-width:0.00811389;stroke-miterlimit:22.9256;-inkscape-stroke:none"
       d="m -749.92405,-793.0547 c -0.16808,-10e-4 -0.26791,0.0148 -0.3358,0.0455 -0.0679,0.0306 -0.10328,0.0761 -0.14187,0.13267 -0.0383,0.0561 -0.0804,0.1233 -0.16099,0.19958 -0.33569,-0.1382 -0.54259,-0.16401 -0.77273,-0.1663 h -4e-5 -3e-5 c -0.16752,10e-4 -0.29139,0.0377 -0.41279,0.0755 -0.12141,0.0377 -0.24035,0.0767 -0.39894,0.0833 l -0.009,3.5e-4 0.006,0.006 c 0.0646,0.0695 0.21109,0.11125 0.36594,0.11424 0.154,0.003 0.31618,-0.033 0.414,-0.1221 0.142,0.0149 0.22916,0.0414 0.28994,0.076 0.0573,0.0326 0.0915,0.0727 0.12726,0.1172 -0.0567,-0.009 -0.11718,-0.0209 -0.17783,-0.0163 -0.064,0.005 -0.12784,0.0282 -0.18535,0.0911 -0.0473,0.009 -0.082,0.009 -0.12537,0.007 -0.0437,-0.002 -0.0963,-0.007 -0.179,-0.007 -0.0392,0 -0.0665,0.01 -0.0836,0.0287 -0.0171,0.019 -0.0236,0.0466 -0.0231,0.0812 l 2.1e-4,0.0122 0.007,-0.01 c 0.011,-0.0152 0.041,-0.0259 0.0812,-0.0313 0.0402,-0.005 0.0904,-0.006 0.14166,-0.003 0.10255,0.005 0.20998,0.0224 0.25118,0.0362 0.0312,0.0104 0.0646,0.038 0.10029,0.0651 0.0357,0.027 0.0739,0.0536 0.11617,0.0612 0.21729,0.0386 0.52617,-0.0742 0.8108,-0.15062 l 0.6772,-0.0893 h -0.44348 l 0.52865,-0.1058 h -0.61471 c -0.0127,-0.0137 -0.0375,-0.0292 -0.0591,-0.0433 0.0726,-0.0476 0.14097,-0.1129 0.19534,-0.17725 0.0547,-0.0647 0.0949,-0.12739 0.11238,-0.16988 0.26535,-0.003 0.43763,-0.0275 0.64402,-0.0757 l 0.0231,-0.005 -0.0235,-0.003 c -0.34093,-0.0376 -0.57727,-0.0559 -0.74534,-0.057 z m -4e-5,0.008 c 0.16245,10e-4 0.3937,0.0188 0.71817,0.0542 -0.19516,0.0443 -0.3639,0.0675 -0.61881,0.0701 l -0.003,3e-5 -9.9e-4,0.003 c -0.0164,0.0409 -0.0573,0.10489 -0.11238,0.17015 -0.0551,0.0653 -0.12458,0.13197 -0.19803,0.17918 l -0.005,0.003 0.005,0.003 c 0.0234,0.0154 0.0526,0.0337 0.0638,0.0466 l 10e-4,10e-4 h 0.53575 l -0.52879,0.1058 h 0.40184 l -0.55508,0.0732 -2.8e-4,7e-5 c -0.2852,0.0766 -0.59419,0.18842 -0.80753,0.15052 -0.0399,-0.007 -0.0772,-0.0327 -0.11269,-0.0596 -0.0355,-0.0269 -0.069,-0.0551 -0.10259,-0.0663 -0.0432,-0.0144 -0.15018,-0.0315 -0.25336,-0.0366 -0.0516,-0.003 -0.10213,-0.002 -0.14314,0.003 -0.0359,0.005 -0.0626,0.0142 -0.0785,0.0291 6.5e-4,-0.0292 0.006,-0.0524 0.0202,-0.0678 0.0152,-0.0169 0.0397,-0.026 0.0776,-0.026 0.0823,0 0.13458,0.005 0.17856,0.007 0.044,0.002 0.0798,0.002 0.1284,-0.007 l 10e-4,-2.8e-4 8.9e-4,-10e-4 c 0.0565,-0.0624 0.11826,-0.0848 0.18118,-0.0896 0.0629,-0.005 0.12696,0.008 0.1869,0.0179 l 0.0103,0.002 -0.007,-0.008 c -0.0384,-0.0481 -0.0744,-0.092 -0.13673,-0.12743 -0.0623,-0.0354 -0.15082,-0.0623 -0.29442,-0.0772 l -0.002,-2.1e-4 -10e-4,0.001 c -0.0951,0.0879 -0.25671,0.12417 -0.41017,0.1212 -0.1485,-0.003 -0.28764,-0.0433 -0.35233,-0.10583 0.15418,-0.008 0.27189,-0.0458 0.39036,-0.0826 0.12131,-0.0377 0.24401,-0.0739 0.41035,-0.0751 0.23026,0.002 0.43576,0.0277 0.77246,0.16667 l 0.002,10e-4 0.002,-0.002 c 0.0827,-0.0778 0.12531,-0.14641 0.16374,-0.20271 0.0384,-0.0563 0.0724,-0.10001 0.1385,-0.12985 0.0661,-0.0298 0.16492,-0.0456 0.33241,-0.0445 z"
       id="path2643" />
    <path
       style="color:#000000;fill:#000000;stroke-width:0.0176389;stroke-miterlimit:22.9256;-inkscape-stroke:none"
       d="m -749.92402,-793.05877 c -0.16834,-10e-4 -0.26872,0.0148 -0.33748,0.0459 -0.0688,0.031 -0.10489,0.0774 -0.14356,0.13408 -0.038,0.0557 -0.0798,0.12194 -0.15882,0.19709 -0.33432,-0.13728 -0.54179,-0.16332 -0.77153,-0.1656 h -7e-5 -3e-5 -4e-5 c -0.16809,10e-4 -0.29252,0.0379 -0.41396,0.0756 -0.12144,0.0378 -0.23989,0.0765 -0.39791,0.0831 l -0.0176,6.9e-4 0.0121,0.013 c 0.0661,0.0711 0.2133,0.11255 0.36883,0.11555 0.15384,0.003 0.31571,-0.0327 0.41493,-0.12192 0.14076,0.0149 0.22719,0.0412 0.28708,0.0752 0.0529,0.0301 0.0856,0.0671 0.11886,0.10801 -0.0535,-0.009 -0.11025,-0.019 -0.16775,-0.0146 -0.0643,0.005 -0.12892,0.0287 -0.18679,0.0913 -0.0464,0.009 -0.0804,0.009 -0.1234,0.007 -0.0436,-0.002 -0.0964,-0.007 -0.17922,-0.007 -0.0398,0 -0.0685,0.01 -0.0866,0.0301 -0.0181,0.0201 -0.0247,0.0489 -0.0241,0.084 l 4.2e-4,0.0244 0.0143,-0.0198 c 0.01,-0.0131 0.0387,-0.0244 0.0784,-0.0297 0.0398,-0.005 0.0898,-0.006 0.14091,-0.003 0.10223,0.005 0.20995,0.0225 0.25011,0.036 0.03,0.01 0.0633,0.0373 0.0991,0.0644 0.0358,0.0271 0.0744,0.0542 0.11789,0.0619 0.21922,0.0389 0.528,-0.0742 0.81232,-0.15062 l 0.67641,-0.0893 0.0618,-0.008 h -0.46436 l 0.52869,-0.1058 h -0.65447 c -0.0127,-0.0131 -0.0339,-0.0266 -0.0536,-0.0394 0.0713,-0.0476 0.13836,-0.11126 0.19179,-0.17449 0.054,-0.0639 0.0935,-0.12536 0.11168,-0.1685 0.26413,-0.003 0.43664,-0.0276 0.64255,-0.0757 l 0.0461,-0.0108 -0.047,-0.005 c -0.34099,-0.0377 -0.57742,-0.0559 -0.74576,-0.057 z m -7e-5,0.008 c 0.16781,0.001 0.40407,0.0193 0.74493,0.057 -0.009,0.002 -0.0168,0.003 -0.0255,0.005 l 0.0232,-0.005 -0.0241,-0.003 c -0.32452,-0.0354 -0.55585,-0.0531 -0.71857,-0.0542 l -0.004,-3e-5 c 0.002,1e-5 0.002,-2.1e-4 0.004,-2.1e-4 z m -0.0127,6.6e-4 3.5e-4,2.5e-4 c -0.15869,-8e-5 -0.25673,0.0149 -0.3217,0.0442 -0.0168,0.008 -0.0315,0.016 -0.0448,0.0253 0.0133,-0.009 0.028,-0.0178 0.0447,-0.0254 0.0649,-0.0293 0.16288,-0.0445 0.3214,-0.0444 z m 0.0127,0.008 c 0.15644,10e-4 0.38146,0.0184 0.68805,0.0513 -0.18271,0.0399 -0.34701,0.0624 -0.5887,0.0648 l -0.005,7e-5 -0.002,0.005 c -0.0161,0.0401 -0.0568,0.10401 -0.11172,0.16902 -0.0549,0.065 -0.12417,0.13149 -0.19713,0.17838 l -0.0105,0.007 0.0104,0.007 c 0.0235,0.0154 0.0528,0.0342 0.063,0.0459 l 0.002,0.003 h 0.49664 l -0.52882,0.1058 h 0.38093 l -0.49396,0.0652 -5.5e-4,1.4e-4 h -4e-5 c -0.28545,0.0767 -0.59441,0.188 -0.80573,0.15045 -0.0386,-0.007 -0.0756,-0.0321 -0.11097,-0.0589 -0.0354,-0.0268 -0.069,-0.0553 -0.10377,-0.0669 -0.0442,-0.0148 -0.15094,-0.0317 -0.25442,-0.0368 -0.0517,-0.003 -0.10249,-0.002 -0.1439,0.003 -0.0321,0.004 -0.0558,0.013 -0.0729,0.0256 10e-4,-0.0246 0.007,-0.0447 0.0181,-0.0575 0.0142,-0.0158 0.0374,-0.0247 0.0746,-0.0247 0.0822,0 0.13426,0.005 0.17835,0.007 0.0441,0.002 0.0804,0.002 0.1294,-0.007 h 4e-5 l 0.003,-5.5e-4 0.002,-0.002 c 0.0558,-0.0616 0.11629,-0.0836 0.17845,-0.0883 0.0622,-0.005 0.1259,0.008 0.18597,0.0179 l 0.0207,0.003 -0.0131,-0.0163 c -0.0385,-0.0481 -0.0749,-0.0926 -0.13791,-0.1284 -0.063,-0.0358 -0.15207,-0.0628 -0.29597,-0.0777 h -3e-5 l -0.004,-4.2e-4 -0.003,0.003 c -0.0938,0.0867 -0.25456,0.12301 -0.40731,0.12006 -0.14262,-0.003 -0.27503,-0.0413 -0.34107,-0.0988 0.14903,-0.009 0.26479,-0.0458 0.38024,-0.0817 0.12125,-0.0377 0.24338,-0.0737 0.4091,-0.0749 0.22999,0.002 0.43463,0.0276 0.77095,0.16637 l 0.005,0.002 0.004,-0.004 h 4e-5 c 0.083,-0.0781 0.12594,-0.14721 0.1643,-0.2034 0.0384,-0.0562 0.0716,-0.099 0.1368,-0.12843 0.0652,-0.0294 0.1635,-0.0452 0.33073,-0.0441 z m 0.71892,0.0541 c -0.0967,0.0219 -0.18804,0.0389 -0.28543,0.0504 0.0978,-0.0117 0.18844,-0.0284 0.28543,-0.0504 z m -1.09775,0.008 c -0.0133,0.009 -0.0251,0.0195 -0.036,0.0305 -0.0219,0.022 -0.0401,0.0472 -0.0594,0.0754 -0.0377,0.0553 -0.0801,0.1221 -0.15917,0.19754 0.079,-0.0754 0.12141,-0.14231 0.15913,-0.19757 0.0192,-0.0282 0.0376,-0.0534 0.0594,-0.0754 0.0109,-0.011 0.0227,-0.0212 0.036,-0.0305 z m 0.76192,0.047 c -0.0339,0.003 -0.0673,0.007 -0.1038,0.009 0.0365,-0.002 0.0699,-0.006 0.1038,-0.009 z m -0.28487,0.0174 -1.1e-4,2.5e-4 c -9.1e-4,0.002 -0.003,0.006 -0.004,0.008 10e-4,-0.002 0.004,-0.006 0.005,-0.008 z m -0.0418,0.0758 c -0.019,0.029 -0.0427,0.0609 -0.07,0.0933 0.0273,-0.0323 0.0509,-0.0642 0.07,-0.0933 z m -1.48749,0.002 c -0.067,0.002 -0.12719,0.009 -0.18297,0.0195 0.0558,-0.0107 0.11598,-0.0178 0.18297,-0.0195 z m -0.24357,0.0337 c -0.0508,0.0123 -0.10065,0.0255 -0.14835,0.0404 -0.0192,0.006 -0.0396,0.011 -0.0589,0.0169 0.0193,-0.006 0.0397,-0.011 0.0589,-0.0169 0.0477,-0.0148 0.0975,-0.028 0.14835,-0.0403 z m 0.22775,0.11444 c 5.4e-4,7e-5 7.8e-4,1.8e-4 10e-4,2.5e-4 0.0711,0.007 0.12875,0.0178 0.17608,0.0307 0.0474,0.0129 0.0847,0.0283 0.11545,0.0457 0.002,9.5e-4 0.003,0.002 0.004,0.003 -0.002,-9.5e-4 -0.002,-0.002 -0.004,-0.003 -0.0307,-0.0175 -0.068,-0.0329 -0.11545,-0.0457 -0.0474,-0.0129 -0.10491,-0.0233 -0.17608,-0.0307 l -10e-4,-1.8e-4 c 2e-5,-2e-5 7e-5,-2e-5 7e-5,-3e-5 z m -0.77438,0.009 0.006,0.006 c -0.002,-0.002 -0.006,-0.004 -0.008,-0.006 6e-4,-2e-5 0.001,-1.4e-4 0.002,-1.7e-4 z m 0.007,0.006 c 0.0331,0.0318 0.0844,0.0577 0.14601,0.0761 0.0307,0.009 0.064,0.0163 0.0988,0.0215 -0.0349,-0.005 -0.0679,-0.0124 -0.0988,-0.0215 -0.0622,-0.0182 -0.11285,-0.0442 -0.14601,-0.0761 z m 1.57872,2.5e-4 c -6.6e-4,6.2e-4 -9.2e-4,0.001 -0.002,0.002 -7e-5,-3e-5 -10e-5,-4e-5 -2.1e-4,-7e-5 z m -1.10846,0.10111 c -0.0367,0.004 -0.074,0.006 -0.11089,0.005 0.0369,5.3e-4 0.0742,-9.4e-4 0.11089,-0.005 z m 0.66429,0.0162 c 0.0188,0.0184 0.0354,0.0385 0.0521,0.0591 -0.0167,-0.0207 -0.0332,-0.0405 -0.0521,-0.0591 z m 1.50699,0.0372 -0.52866,0.1058 h -1.7e-4 z m -1.63329,0.0149 c 0.0313,-0.002 0.0625,-2.1e-4 0.0934,0.004 -0.0309,-0.004 -0.0622,-0.006 -0.0934,-0.004 -0.0114,8.7e-4 -0.0227,0.003 -0.034,0.005 0.0113,-0.002 0.0226,-0.004 0.034,-0.005 z m 0.18114,0.0102 c 0.002,0.003 0.005,0.005 0.007,0.008 -1.8e-4,-3e-5 -4e-4,-7e-5 -5.9e-4,-1.1e-4 z m -0.0121,0.005 c 0.003,4.2e-4 0.005,7.9e-4 0.008,0.001 l 0.002,3.8e-4 c -0.003,-5.4e-4 -0.007,-10e-4 -0.0102,-0.002 z m -0.35285,0.0758 c -2e-5,3e-5 -7e-5,4e-5 -7e-5,7e-5 l -3e-5,4e-5 c -0.035,0.007 -0.0637,0.008 -0.0933,0.008 0.0293,3.7e-4 0.0578,-7.9e-4 0.0923,-0.008 z m -0.30623,7e-5 c -0.0385,0 -0.0644,0.009 -0.0806,0.0274 -10e-4,0.002 -0.002,0.004 -0.003,0.006 10e-4,-0.002 0.002,-0.004 0.003,-0.006 10e-6,0 4e-5,10e-6 4e-5,0 0.0162,-0.0179 0.0421,-0.0274 0.0806,-0.0274 z m -0.0965,0.058 c -0.003,0.0116 -0.005,0.0247 -0.005,0.0391 3.6e-4,-0.0144 0.002,-0.0278 0.005,-0.0391 z m -0.005,0.04 -1.8e-4,0.007 c -1.4e-4,1.7e-4 -5.2e-4,2.8e-4 -6.6e-4,4.4e-4 -7e-5,-0.003 7.7e-4,-0.005 8.3e-4,-0.008 z"
       id="path2646" />
    <path
       id="path2649"
       class="fil4"
       d="m -751.19204,-792.45094 c 0.0147,0 0.0265,0.0118 0.0265,0.0264 0,0.0146 -0.0118,0.0264 -0.0265,0.0264 -0.0145,0 -0.0265,-0.0118 -0.0265,-0.0264 0,-0.0146 0.012,-0.0264 0.0265,-0.0264 z"
       inkscape:connector-curvature="0"
       style="fill:#000000;stroke-width:0.0176493" />
    <path
       style="color:#000000;fill:#000000;stroke-width:0.0176389;stroke-miterlimit:22.9256;-inkscape-stroke:none"
       d="m -751.19206,-792.45226 c -0.0152,0 -0.0278,0.0124 -0.0278,0.0278 0,0.0154 0.0126,0.0278 0.0278,0.0278 0.0154,0 0.0278,-0.0124 0.0278,-0.0278 0,-0.0154 -0.0125,-0.0278 -0.0278,-0.0278 z m 0,0.003 c 0.014,0 0.0252,0.0112 0.0252,0.0251 0,0.0139 -0.0112,0.0251 -0.0252,0.0251 -0.0138,0 -0.0251,-0.0112 -0.0251,-0.0251 0,-0.0139 0.0114,-0.0251 0.0251,-0.0251 z"
       id="path2652" />
    <path
       style="color:#000000;fill:#000000;stroke-width:0.0176389;stroke-miterlimit:22.9256;-inkscape-stroke:none"
       d="m -750.83955,-792.48265 c 0,0 -0.0275,0.0162 -0.0641,0.0325 -0.0367,0.0163 -0.0825,0.0323 -0.11803,0.0323 v 0.008 c 0.038,0 0.0842,-0.0166 0.12134,-0.0331 0.0371,-0.0165 0.065,-0.0329 0.065,-0.0329 z"
       id="path2655" />
    <path
       style="color:#000000;fill:#000000;stroke-width:0.0176389;stroke-miterlimit:22.9256;-inkscape-stroke:none"
       d="m -750.02589,-792.41781 c -0.0473,0 -0.0961,0.0207 -0.13329,0.0412 -0.0371,0.0205 -0.0627,0.041 -0.0627,0.041 l 0.005,0.006 c 0,0 0.025,-0.0201 0.0616,-0.0402 0.0365,-0.0201 0.0844,-0.0401 0.12936,-0.0401 z"
       id="path2658" />
    <path
       style="color:#000000;fill:#000000;stroke-width:0.0176389;stroke-miterlimit:22.9256;-inkscape-stroke:none"
       d="m -751.71223,-792.77892 c -0.04,0.0118 -0.12192,0.0548 -0.12192,0.0548 l 0.004,0.007 c 0,0 0.0828,-0.0431 0.12048,-0.0542 z"
       id="path2661" />
    <path
       style="color:#000000;fill:#000000;stroke-width:0.0176389;stroke-miterlimit:22.9256;-inkscape-stroke:none"
       d="m -751.2151,-792.83938 c -0.14649,-0.003 -0.27764,0.0537 -0.27764,0.0537 l 0.003,0.007 c 0,0 0.12997,-0.0559 0.27426,-0.0531 z"
       id="path2664" />
    <path
       style="color:#000000;fill:#000000;stroke-width:0.0176389;stroke-miterlimit:22.9256;-inkscape-stroke:none"
       d="m -751.0331,-792.7822 c -0.0628,0.003 -0.10573,0.01 -0.10573,0.01 l 10e-4,0.008 c 0,0 0.17068,-0.0285 0.32773,0.006 l 0.002,-0.008 c -0.0796,-0.0177 -0.16228,-0.0193 -0.2251,-0.0164 z"
       id="path2667" />
    <path
       style="color:#000000;fill:#000000;stroke-width:0.0176389;stroke-miterlimit:22.9256;-inkscape-stroke:none"
       d="m -750.85354,-792.73806 c -0.0528,10e-4 -0.0885,0.007 -0.0885,0.007 l 10e-4,0.008 c 0,0 0.14139,-0.0236 0.27647,0.0145 l 0.002,-0.008 c -0.0687,-0.0194 -0.13867,-0.0231 -0.19151,-0.0219 z"
       id="path2670" />
    <path
       style="color:#000000;fill:#000000;stroke-width:0.0176389;stroke-miterlimit:22.9256;-inkscape-stroke:none"
       d="m -750.79521,-792.68777 -1.1e-4,0.008 c 0,0 0.036,4.9e-4 0.081,0.004 0.045,0.004 0.099,0.0115 0.13415,0.0251 l 0.003,-0.008 c -0.0368,-0.0142 -0.091,-0.0216 -0.13636,-0.0256 -0.0453,-0.004 -0.0816,-0.004 -0.0816,-0.004 z"
       id="path2673" />
    <path
       style="color:#000000;fill:#000000;stroke-width:0.0176389;stroke-miterlimit:22.9256;-inkscape-stroke:none"
       d="m -751.78086,-792.70799 c -0.16316,0.0783 -0.36514,0.0236 -0.36514,0.0236 l -0.002,0.008 c 0,0 0.20396,0.056 0.3708,-0.024 z"
       id="path2676" />
    <path
       style="color:#000000;fill:#000000;stroke-width:0.0176389;stroke-miterlimit:22.9256;-inkscape-stroke:none"
       d="m -751.7401,-792.71495 c -0.0589,0.0589 -0.15382,0.0729 -0.23427,0.0717 -0.0804,-0.001 -0.14593,-0.0173 -0.14593,-0.0173 l -0.002,0.008 c 0,0 0.0663,0.0163 0.14776,0.0175 0.0815,10e-4 0.17861,-0.0126 0.24016,-0.0741 z"
       id="path2679" />
    <path
       style="color:#000000;fill:#000000;stroke-width:0.0176389;stroke-miterlimit:22.9256;-inkscape-stroke:none"
       d="m -751.68116,-792.71471 c -0.15462,0.16306 -0.35053,0.0998 -0.35053,0.0998 l -0.002,0.008 c 0,0 0.2012,0.0644 0.35891,-0.10194 z"
       id="path2682" />
    <path
       style="color:#000000;fill:#000000;stroke-width:0.0176389;stroke-miterlimit:22.9256;-inkscape-stroke:none"
       d="m -751.63075,-792.7134 c -0.0297,0.046 -0.0844,0.0809 -0.13174,0.10401 -0.0474,0.0231 -0.0871,0.0344 -0.0871,0.0344 l 0.002,0.008 c 0,0 0.0404,-0.0115 0.0885,-0.035 0.048,-0.0234 0.10391,-0.0586 0.13502,-0.1069 z"
       id="path2685" />
    <path
       style="color:#000000;fill:#000000;stroke-width:0.0176389;stroke-miterlimit:22.9256;-inkscape-stroke:none"
       d="m -751.58032,-792.71112 c -0.0188,0.0323 -0.0552,0.0674 -0.0867,0.0942 -0.0316,0.0268 -0.0583,0.0453 -0.0583,0.0453 l 0.005,0.007 c 0,0 0.0271,-0.0187 0.0589,-0.0457 0.0319,-0.027 0.0687,-0.0623 0.0885,-0.0963 z"
       id="path2688" />
    <path
       style="color:#000000;fill:#000000;stroke-width:0.0176389;stroke-miterlimit:22.9256;-inkscape-stroke:none"
       d="m -750.33381,-792.65483 -0.006,0.005 c 0,0 0.0113,0.0139 0.042,0.0315 0.0307,0.0175 0.0812,0.039 0.16071,0.0555 l 0.002,-0.008 c -0.0788,-0.0163 -0.12846,-0.0376 -0.15833,-0.0546 -0.0299,-0.017 -0.0396,-0.0294 -0.0396,-0.0294 z"
       id="path2691" />
    <path
       style="color:#000000;fill:#000000;stroke-width:0.0176389;stroke-miterlimit:22.9256;-inkscape-stroke:none"
       d="m -750.30622,-792.68005 -0.006,0.006 c 0,0 0.0175,0.0174 0.0526,0.0367 0.0351,0.0193 0.0881,0.0406 0.15947,0.0489 l 9.3e-4,-0.008 c -0.0703,-0.008 -0.12216,-0.0291 -0.15647,-0.0479 -0.0343,-0.0188 -0.0508,-0.0354 -0.0508,-0.0354 z"
       id="path2694" />
    <path
       style="color:#000000;fill:#000000;stroke-width:0.0176389;stroke-miterlimit:22.9256;-inkscape-stroke:none"
       d="m -750.27218,-792.71216 -0.005,0.006 c 0,0 0.0178,0.0152 0.0542,0.0329 0.0364,0.0177 0.0917,0.0382 0.16726,0.0493 l 10e-4,-0.008 c -0.0747,-0.011 -0.12917,-0.0311 -0.16488,-0.0485 -0.0357,-0.0174 -0.0525,-0.0318 -0.0525,-0.0318 z"
       id="path2697" />
    <path
       style="color:#000000;fill:#000000;stroke-width:0.0176389;stroke-miterlimit:22.9256;-inkscape-stroke:none"
       d="m -750.23849,-792.74651 -0.004,0.007 c 0,0 0.10621,0.0709 0.22793,0.0791 l 5.5e-4,-0.008 c -0.11889,-0.008 -0.224,-0.0778 -0.224,-0.0778 z"
       id="path2700" />
    <path
       style="color:#000000;fill:#000000;stroke-width:0.0176389;stroke-miterlimit:22.9256;-inkscape-stroke:none"
       d="m -750.19625,-792.79053 -0.006,0.006 c 0,0 0.0753,0.0699 0.22314,0.0871 l 9.3e-4,-0.008 c -0.14571,-0.017 -0.21852,-0.085 -0.21852,-0.085 z"
       id="path2703" />
    <path
       style="color:#000000;fill:#000000;stroke-width:0.0176389;stroke-miterlimit:22.9256;-inkscape-stroke:none"
       d="m -750.16528,-792.82609 -0.005,0.006 c 0,0 0.0878,0.0753 0.22548,0.0856 l 5.8e-4,-0.008 c -0.13504,-0.0101 -0.22076,-0.0837 -0.22076,-0.0837 z"
       id="path2706" />
    <path
       style="color:#000000;fill:#000000;stroke-width:0.0176389;stroke-miterlimit:22.9256;-inkscape-stroke:none"
       d="m -750.13431,-792.86267 -0.006,0.005 c 0,0 0.0141,0.0161 0.0498,0.0337 0.0357,0.0176 0.0934,0.037 0.18152,0.0451 l 7.3e-4,-0.008 c -0.0873,-0.008 -0.14393,-0.0272 -0.17867,-0.0443 -0.0347,-0.0171 -0.0472,-0.0317 -0.0472,-0.0317 z"
       id="path2709" />
    <path
       style="color:#000000;fill:#000000;stroke-width:0.0176389;stroke-miterlimit:22.9256;-inkscape-stroke:none"
       d="m -750.10327,-792.90277 -0.006,0.005 c 0,0 0.0155,0.0168 0.0516,0.0351 0.0361,0.0182 0.0931,0.0381 0.17684,0.0452 l 6.9e-4,-0.008 c -0.0828,-0.007 -0.13873,-0.0266 -0.17387,-0.0444 -0.0352,-0.0177 -0.0492,-0.0333 -0.0492,-0.0333 z"
       id="path2712" />
    <path
       style="color:#000000;fill:#000000;stroke-width:0.0176389;stroke-miterlimit:22.9256;-inkscape-stroke:none"
       d="m -750.07963,-792.93626 -0.005,0.006 c 0,0 0.10493,0.0793 0.22738,0.0777 l -1.1e-4,-0.008 c -0.11886,0.002 -0.22238,-0.0761 -0.22238,-0.0761 z"
       id="path2715" />
    <path
       style="color:#000000;fill:#000000;stroke-width:0.0176389;stroke-miterlimit:22.9256;-inkscape-stroke:none"
       d="m -750.05931,-792.96647 -0.004,0.007 c 0,0 0.0346,0.0207 0.0796,0.0411 0.0449,0.0204 0.10009,0.0407 0.14259,0.0393 l -2.8e-4,-0.008 c -0.0396,10e-4 -0.0944,-0.0184 -0.13894,-0.0386 -0.0445,-0.0202 -0.0788,-0.0407 -0.0788,-0.0407 z"
       id="path2718" />
    <path
       style="color:#000000;fill:#000000;stroke-width:0.0176389;stroke-miterlimit:22.9256;-inkscape-stroke:none"
       d="m -750.03419,-793.00454 -0.004,0.007 c 0,0 0.10974,0.0684 0.21319,0.0836 l 0.001,-0.008 c -0.10078,-0.0148 -0.21008,-0.0825 -0.21008,-0.0825 z"
       id="path2721" />
    <path
       style="color:#000000;fill:#000000;stroke-width:0.0176389;stroke-miterlimit:22.9256;-inkscape-stroke:none"
       d="m -750.50452,-792.62186 -0.005,0.006 c 0,0 0.0445,0.0342 0.0881,0.0327 l -2.8e-4,-0.008 c -0.0391,10e-4 -0.0829,-0.0311 -0.0829,-0.0311 z"
       id="path2724" />
    <path
       style="color:#000000;fill:#000000;stroke-width:0.0176389;stroke-miterlimit:22.9256;-inkscape-stroke:none"
       d="m -750.47889,-792.64639 -0.005,0.006 c 0,0 0.0393,0.0336 0.0936,0.0334 l -3e-5,-0.008 c -0.051,1.8e-4 -0.0883,-0.0314 -0.0883,-0.0314 z"
       id="path2727" />
    <path
       style="color:#000000;fill:#000000;stroke-width:0.0176389;stroke-miterlimit:22.9256;-inkscape-stroke:none"
       d="m -750.44781,-792.6766 -0.006,0.006 c 0,0 0.0444,0.0419 0.0989,0.0342 l -10e-4,-0.008 c -0.0498,0.007 -0.0922,-0.0321 -0.0922,-0.0321 z"
       id="path2730" />
    <path
       style="color:#000000;fill:#000000;stroke-width:0.0176389;stroke-miterlimit:22.9256;-inkscape-stroke:none"
       d="m -750.41898,-792.70627 -0.005,0.007 c 0,0 0.0522,0.036 0.10077,0.0349 l -1.8e-4,-0.008 c -0.0443,10e-4 -0.096,-0.0335 -0.096,-0.0335 z"
       id="path2733" />
    <path
       style="color:#000000;fill:#000000;stroke-width:0.0176389;stroke-miterlimit:22.9256;-inkscape-stroke:none"
       d="m -750.38611,-792.7393 -0.005,0.006 c 0,0 0.0396,0.0342 0.10191,0.0375 l 4.1e-4,-0.008 c -0.0596,-0.003 -0.097,-0.0355 -0.097,-0.0355 z"
       id="path2736" />
    <path
       style="color:#000000;fill:#000000;stroke-width:0.0176389;stroke-miterlimit:22.9256;-inkscape-stroke:none"
       d="m -750.3571,-792.77596 -0.005,0.006 c 0,0 0.046,0.041 0.10542,0.0424 l 1.8e-4,-0.008 c -0.0558,-0.001 -0.10022,-0.0404 -0.10022,-0.0404 z"
       id="path2739" />
    <path
       style="color:#000000;fill:#000000;stroke-width:0.0176389;stroke-miterlimit:22.9256;-inkscape-stroke:none"
       d="m -750.32703,-792.8028 -0.004,0.007 c 0,0 0.0446,0.0285 0.10766,0.0339 l 6.9e-4,-0.008 c -0.061,-0.005 -0.10397,-0.0327 -0.10397,-0.0327 z"
       id="path2742" />
    <path
       style="color:#000000;fill:#000000;stroke-width:0.0176389;stroke-miterlimit:22.9256;-inkscape-stroke:none"
       d="m -750.30015,-792.83404 -0.003,0.008 c 0,0 0.0594,0.021 0.11437,0.0262 l 7.6e-4,-0.008 c -0.0535,-0.005 -0.11245,-0.0257 -0.11245,-0.0257 z"
       id="path2745" />
    <path
       style="color:#000000;fill:#000000;stroke-width:0.0176389;stroke-miterlimit:22.9256;-inkscape-stroke:none"
       d="m -750.26719,-792.87129 -0.005,0.007 c 0,0 0.0421,0.0294 0.11566,0.0276 l -2.2e-4,-0.008 c -0.0713,0.002 -0.11079,-0.0261 -0.11079,-0.0261 z"
       id="path2748" />
    <path
       style="color:#000000;fill:#000000;stroke-width:0.0176389;stroke-miterlimit:22.9256;-inkscape-stroke:none"
       d="m -750.23849,-792.90908 -0.004,0.007 c 0,0 0.0492,0.0327 0.1128,0.0335 l 10e-5,-0.008 c -0.0608,-6.8e-4 -0.10842,-0.0321 -0.10842,-0.0321 z"
       id="path2751" />
    <path
       style="color:#000000;fill:#000000;stroke-width:0.0176389;stroke-miterlimit:22.9256;-inkscape-stroke:none"
       d="m -750.21754,-792.94501 -0.004,0.007 c 0,0 0.0654,0.0371 0.12357,0.0287 l -10e-4,-0.008 c -0.0539,0.008 -0.11844,-0.0277 -0.11844,-0.0277 z"
       id="path2754" />
    <path
       style="color:#000000;fill:#000000;stroke-width:0.0176389;stroke-miterlimit:22.9256;-inkscape-stroke:none"
       d="m -750.19284,-792.98708 -0.006,0.005 c 0,0 0.0426,0.0463 0.12088,0.0447 l -1.4e-4,-0.008 c -0.0751,0.002 -0.11475,-0.0421 -0.11475,-0.0421 z"
       id="path2757" />
    <path
       style="color:#000000;fill:#000000;stroke-width:0.0176389;stroke-miterlimit:22.9256;-inkscape-stroke:none"
       d="m -750.17727,-793.00726 -0.004,0.007 c 0,0 0.0187,0.0105 0.0438,0.0196 0.025,0.009 0.0565,0.0172 0.0829,0.0116 l -0.002,-0.008 c -0.0236,0.005 -0.0541,-0.002 -0.0784,-0.0113 -0.0244,-0.009 -0.0426,-0.0191 -0.0426,-0.0191 z"
       id="path2760" />
    <path
       style="color:#000000;fill:#000000;stroke-width:0.0176389;stroke-miterlimit:22.9256;-inkscape-stroke:none"
       d="m -750.14588,-793.03066 -0.004,0.007 c 0,0 0.0563,0.0347 0.10945,0.0332 l -2.1e-4,-0.008 c -0.0494,10e-4 -0.10504,-0.032 -0.10504,-0.032 z"
       id="path2763" />
    <path
       style="color:#000000;fill:#000000;stroke-width:0.0176389;stroke-miterlimit:22.9256;-inkscape-stroke:none"
       d="m -749.85784,-793.05226 c -0.13351,0.0544 -0.23141,0.004 -0.23141,0.004 l -0.004,0.007 c 0,0 0.10173,0.0515 0.23816,-0.004 z"
       id="path2766" />
    <path
       style="color:#000000;fill:#000000;stroke-width:0.0176389;stroke-miterlimit:22.9256;-inkscape-stroke:none"
       d="m -749.71969,-793.04568 c -0.0423,0.0391 -0.11362,0.048 -0.17453,0.0465 -0.0609,-10e-4 -0.111,-0.0129 -0.111,-0.0129 l -0.002,0.008 c 0,0 0.0508,0.0116 0.11262,0.0131 0.0618,0.001 0.13506,-0.007 0.18021,-0.0486 z"
       id="path2769" />
    <path
       style="color:#000000;fill:#000000;stroke-width:0.0176389;stroke-miterlimit:22.9256;-inkscape-stroke:none"
       d="m -749.55526,-793.03458 c -0.15422,0.0487 -0.29214,0.0344 -0.29214,0.0344 l -8.6e-4,0.008 c 0,0 0.13946,0.0146 0.29545,-0.0347 z"
       id="path2772" />
    <path
       style="color:#000000;fill:#000000;stroke-width:0.0176389;stroke-miterlimit:22.9256;-inkscape-stroke:none"
       d="m -749.7548,-792.99924 -0.002,0.008 c 0,0 0.21137,0.0424 0.57771,0.002 l -8.9e-4,-0.008 c -0.36539,0.0407 -0.5752,-0.002 -0.5752,-0.002 z"
       id="path2775" />
    <path
       style="color:#000000;fill:#000000;stroke-width:0.0176389;stroke-miterlimit:22.9256;-inkscape-stroke:none"
       d="m -751.53622,-792.70823 c -0.0382,0.0697 -0.13184,0.13171 -0.13184,0.13171 l 0.004,0.007 c 0,0 0.0946,-0.0618 0.13453,-0.13456 z"
       id="path2778" />
    <path
       style="color:#000000;fill:#000000;stroke-width:0.0176389;stroke-miterlimit:22.9256;-inkscape-stroke:none"
       d="m -751.50115,-792.7052 c -0.0106,0.0219 -0.035,0.0516 -0.0566,0.0755 -0.0216,0.0239 -0.0405,0.0422 -0.0405,0.0422 l 0.006,0.006 c 0,0 0.019,-0.0184 0.0409,-0.0426 0.0218,-0.0241 0.0464,-0.0538 0.0578,-0.0774 z"
       id="path2781" />
    <path
       style="color:#000000;fill:#000000;stroke-width:0.0176389;stroke-miterlimit:22.9256;-inkscape-stroke:none"
       d="m -751.45309,-792.69986 c -0.006,0.0183 -0.0252,0.0421 -0.0424,0.0608 -0.0172,0.0187 -0.0326,0.0326 -0.0326,0.0326 l 0.005,0.006 c 0,0 0.0157,-0.0141 0.0332,-0.0331 0.0175,-0.019 0.0367,-0.0428 0.0441,-0.0636 z"
       id="path2784" />
    <path
       style="color:#000000;fill:#000000;stroke-width:0.0176389;stroke-miterlimit:22.9256;-inkscape-stroke:none"
       d="m -751.72215,-792.7154 c -0.0746,0.002 -0.1087,0.01 -0.1087,0.01 l 0.002,0.008 c 0,0 0.13432,-0.0293 0.45758,0.0121 l 10e-4,-0.008 c -0.16201,-0.0207 -0.27709,-0.0237 -0.35167,-0.0215 z"
       id="path2787" />
    <path
       style="color:#000000;fill:#000000;stroke-width:0.0176389;stroke-miterlimit:22.9256;-inkscape-stroke:none"
       d="m -751.49109,-792.83139 c -0.10198,0.0169 -0.21556,0.0719 -0.21556,0.0719 l 0.004,0.007 c 0,0 0.11327,-0.0546 0.21339,-0.0712 z"
       id="path2790" />
    <path
       style="color:#000000;fill:#000000;stroke-width:0.0176389;stroke-miterlimit:22.9256;-inkscape-stroke:none"
       d="m -751.3877,-792.84094 c -0.1228,0.0195 -0.20619,0.0587 -0.20619,0.0587 l 0.003,0.007 c 0,0 0.0823,-0.0387 0.20402,-0.058 z"
       id="path2793" />
    <path
       style="color:#000000;fill:#000000;stroke-width:0.0176389;stroke-miterlimit:22.9256;-inkscape-stroke:none"
       d="m -751.14882,-792.83429 c -0.14128,-0.005 -0.25662,0.0446 -0.25662,0.0446 l 0.003,0.007 c 0,0 0.11396,-0.0485 0.25322,-0.0439 z"
       id="path2796" />
    <path
       style="color:#000000;fill:#000000;stroke-width:0.0176389;stroke-miterlimit:22.9256;-inkscape-stroke:none"
       d="m -751.06514,-792.81041 c -0.10588,0.002 -0.19458,0.0214 -0.19458,0.0214 l 0.002,0.008 c 0,0 0.15682,-0.0349 0.30066,-0.0153 l 10e-4,-0.008 c -0.0365,-0.005 -0.0737,-0.006 -0.10897,-0.006 z"
       id="path2799" />
    <path
       style="color:#000000;fill:#000000;stroke-width:0.0176389;stroke-miterlimit:22.9256;-inkscape-stroke:none"
       d="m -750.83804,-792.71243 3.8e-4,0.008 c 0,0 0.11942,-0.005 0.25676,0.0286 l 0.002,-0.008 c -0.13861,-0.0344 -0.25911,-0.0289 -0.25911,-0.0289 z"
       id="path2802" />
    <path
       style="color:#000000;fill:#000000;stroke-width:0.0176389;stroke-miterlimit:22.9256;-inkscape-stroke:none"
       d="m -750.94236,-792.76246 c -0.0578,-4.1e-4 -0.1008,0.002 -0.1008,0.002 l 4.5e-4,0.008 c 0,0 0.17183,-0.009 0.28877,0.0125 l 10e-4,-0.008 c -0.0594,-0.0109 -0.13203,-0.014 -0.18986,-0.0145 z"
       id="path2805" />
    <path
       style="color:#000000;fill:#000000;stroke-width:0.0176389;stroke-miterlimit:22.9256;-inkscape-stroke:none"
       d="m -749.97731,-793.00627 -0.005,0.006 c 0,0 0.0154,0.0133 0.0513,0.0303 0.0358,0.0171 0.0923,0.0381 0.17532,0.0545 l 0.002,-0.008 c -0.0824,-0.0163 -0.1382,-0.0371 -0.17339,-0.0539 -0.0352,-0.0168 -0.0494,-0.0291 -0.0494,-0.0291 z"
       id="path2808" />
    <path
       style="color:#000000;fill:#000000;stroke-width:0.0176389;stroke-miterlimit:22.9256;-inkscape-stroke:none"
       d="m -749.88468,-792.99844 -0.004,0.007 c 0,0 0.0937,0.0531 0.24106,0.0716 l 10e-4,-0.008 c -0.14589,-0.0182 -0.23806,-0.0705 -0.23806,-0.0705 z"
       id="path2811" />
    <path
       style="color:#000000;fill:#000000;stroke-width:0.0176389;stroke-miterlimit:22.9256;-inkscape-stroke:none"
       d="m -749.78756,-792.99793 -0.003,0.007 c 0,0 0.13084,0.0569 0.26968,0.0605 l 2.2e-4,-0.008 c -0.13675,-0.003 -0.26665,-0.0598 -0.26665,-0.0598 z"
       id="path2814" />
    <path
       style="color:#000000;fill:#000000;stroke-width:0.0176389;stroke-miterlimit:22.9256;-inkscape-stroke:none"
       d="m -749.6439,-792.9858 -0.002,0.008 c 0,0 0.13337,0.0321 0.29865,0.0234 l -4.1e-4,-0.008 c -0.16401,0.009 -0.29635,-0.0231 -0.29635,-0.0231 z"
       id="path2817" />
    <path
       style="color:#000000;fill:#000000;stroke-width:0.0176389;stroke-miterlimit:22.9256;-inkscape-stroke:none"
       d="m -751.0773,-792.82598 c -0.16036,-0.003 -0.25142,0.0343 -0.25142,0.0343 l 0.003,0.008 c 0,0 0.0891,-0.0367 0.24819,-0.0337 z"
       id="path2820" />
    <path
       style="color:#000000;fill:#000000;stroke-width:0.0176389;stroke-miterlimit:22.9256;-inkscape-stroke:none"
       d="m -750.73355,-792.65721 9.7e-4,0.008 c 0,0 0.0528,-0.006 0.11895,0.025 l 0.003,-0.007 c -0.0681,-0.0324 -0.1234,-0.0257 -0.1234,-0.0257 z"
       id="path2823" />
    <path
       style="color:#000000;fill:#000000;stroke-width:0.0176389;stroke-miterlimit:22.9256;-inkscape-stroke:none"
       d="m -750.56432,-792.67519 c -0.0626,0.059 -0.14856,0.12333 -0.27423,0.19192 -0.0316,0.002 -0.0665,-0.002 -0.10343,-0.007 l -0.001,0.008 c 0.0374,0.006 0.0731,0.0103 0.10607,0.008 l 8.6e-4,-7e-5 7.2e-4,-4.1e-4 c 0.12675,-0.0691 0.21347,-0.13401 0.27682,-0.19369 z"
       id="path2826" />
    <path
       style="color:#000000;fill:#f8d000;stroke-width:0.00811869;stroke-miterlimit:22.9256;-inkscape-stroke:none"
       d="m -751.55505,-790.53044 a 0.88162659,0.88330588 89.999876 0 1 -0.61414,-0.38182 0.88162659,0.88330588 89.999876 0 0 0.72025,0.0688"
       id="path2829" />
    <path
       style="color:#000000;fill:#000000;stroke-width:0.0176389;stroke-miterlimit:22.9256;-inkscape-stroke:none"
       d="m -752.18221,-790.92433 0.01,0.0143 c 0.14134,0.20991 0.36586,0.3495 0.61694,0.38357 l 10e-4,-0.008 c -0.24312,-0.033 -0.46052,-0.16633 -0.60103,-0.36646 0.21705,0.11769 0.47345,0.14057 0.7079,0.0613 l -0.003,-0.008 c -0.23782,0.0804 -0.49875,0.0555 -0.71696,-0.0685 z"
       id="path2832" />
    <path
       style="color:#000000;fill:#f8d000;stroke-width:0.00811869;stroke-miterlimit:22.9256;-inkscape-stroke:none"
       d="m -751.56022,-790.32067 -0.73884,-0.23426 0.76939,-0.0948"
       id="path2835" />
    <path
       style="color:#000000;fill:#000000;stroke-width:0.0176389;stroke-miterlimit:22.9256;-inkscape-stroke:none"
       d="m -751.53016,-790.65371 -0.78786,0.097 0.75658,0.23988 0.002,-0.008 -0.72113,-0.22865 0.75096,-0.0925 z"
       id="path2838" />
    <path
       style="color:#000000;fill:#f8d000;stroke-width:0.00811869;stroke-miterlimit:22.9256;-inkscape-stroke:none"
       d="m -751.4489,-790.84351 a 0.88330588,0.88162659 7.9663642e-5 0 1 -0.43444,-0.5775 0.88330588,0.88162659 7.9663642e-5 0 0 0.64668,0.3239"
       id="path2841" />
    <path
       style="color:#000000;fill:#000000;stroke-width:0.0176389;stroke-miterlimit:22.9256;-inkscape-stroke:none"
       d="m -751.8911,-791.43696 0.004,0.0168 c 0.0558,0.24671 0.21466,0.45784 0.43646,0.58016 l 0.004,-0.007 c -0.21478,-0.11844 -0.36926,-0.32117 -0.42781,-0.55848 0.15979,0.18803 0.39061,0.30185 0.63793,0.3125 l 3.5e-4,-0.008 c -0.25085,-0.0108 -0.48508,-0.12815 -0.64368,-0.32243 z"
       id="path2844" />
    <path
       style="color:#000000;fill:#f8d000;stroke-width:0.00811869;stroke-miterlimit:22.9256;-inkscape-stroke:none"
       d="m -751.52965,-790.64978 -0.60413,-0.48487 0.75172,0.18909"
       id="path2847" />
    <path
       style="color:#000000;fill:#000000;stroke-width:0.0176389;stroke-miterlimit:22.9256;-inkscape-stroke:none"
       d="m -752.15083,-791.14312 0.61864,0.4965 0.005,-0.006 -0.5897,-0.47326 0.73374,0.18459 0.002,-0.008 z"
       id="path2850" />
    <path
       style="color:#000000;fill:#f8d000;stroke-width:0.00811869;stroke-miterlimit:22.9256;-inkscape-stroke:none"
       d="m -751.23671,-791.09706 a 0.88162656,0.88330588 89.999982 0 1 -0.19616,-0.69512 0.88162656,0.88330588 89.999982 0 0 0.48584,0.53514"
       id="path2853" />
    <path
       style="color:#000000;fill:#000000;stroke-width:0.0176389;stroke-miterlimit:22.9256;-inkscape-stroke:none"
       d="m -751.43435,-791.80982 -0.003,0.0171 c -0.0372,0.25017 0.0345,0.50431 0.19706,0.69832 l 0.006,-0.005 c -0.15743,-0.18786 -0.22811,-0.43261 -0.19686,-0.675 0.081,0.23294 0.25502,0.42226 0.4818,0.52135 l 0.003,-0.007 c -0.23002,-0.1005 -0.40599,-0.29432 -0.48359,-0.53265 z"
       id="path2856" />
    <path
       style="color:#000000;fill:#f8d000;stroke-width:0.00811869;stroke-miterlimit:22.9256;-inkscape-stroke:none"
       d="m -751.3821,-790.94551 -0.38793,-0.66991 0.63257,0.44729"
       id="path2859" />
    <path
       style="color:#000000;fill:#000000;stroke-width:0.0176389;stroke-miterlimit:22.9256;-inkscape-stroke:none"
       d="m -751.78286,-791.62947 0.39726,0.68599 0.007,-0.004 -0.37861,-0.65384 0.61743,0.43656 0.005,-0.007 z"
       id="path2862" />
    <path
       style="color:#000000;fill:#f8d000;stroke-width:0.00811869;stroke-miterlimit:22.9256;-inkscape-stroke:none"
       d="m -750.94695,-791.25707 a 0.88330588,0.88162659 4.4582733e-5 0 1 0.0687,-0.7189 0.88330588,0.88162659 4.4582733e-5 0 0 0.25931,0.6742"
       id="path2865" />
    <path
       style="color:#000000;fill:#000000;stroke-width:0.0176389;stroke-miterlimit:22.9256;-inkscape-stroke:none"
       d="m -750.87321,-791.99296 -0.009,0.015 c -0.12526,0.21985 -0.1504,0.48266 -0.069,0.72219 l 0.008,-0.003 c -0.0788,-0.23194 -0.0561,-0.48564 0.0608,-0.70039 -0.009,0.24639 0.085,0.48571 0.26055,0.65988 l 0.006,-0.006 c -0.1781,-0.17665 -0.27202,-0.42085 -0.25811,-0.67107 z"
       id="path2868" />
    <path
       style="color:#000000;fill:#f8d000;stroke-width:0.00811869;stroke-miterlimit:22.9256;-inkscape-stroke:none"
       d="m -751.13738,-791.16818 -0.11923,-0.76455 0.42794,0.64519"
       id="path2871" />
    <path
       style="color:#000000;fill:#000000;stroke-width:0.0176389;stroke-miterlimit:22.9256;-inkscape-stroke:none"
       d="m -751.26347,-791.95041 0.12209,0.78286 0.008,-10e-4 -0.11634,-0.74617 0.41769,0.62966 0.007,-0.004 z"
       id="path2874" />
    <path
       style="color:#000000;fill:#f8d000;stroke-width:0.00811869;stroke-miterlimit:22.9256;-inkscape-stroke:none"
       d="m -750.61884,-791.30177 a 0.88162659,0.88330588 89.999855 0 1 0.3243,-0.64556 0.88162659,0.88330588 89.999855 0 0 -0.002,0.72216"
       id="path2877" />
    <path
       style="color:#000000;fill:#000000;stroke-width:0.0176389;stroke-miterlimit:22.9256;-inkscape-stroke:none"
       d="m -750.28372,-791.96137 -0.0134,0.0109 c -0.19639,0.15983 -0.31496,0.39585 -0.3258,0.64854 l 0.008,3.5e-4 c 0.0105,-0.24469 0.12349,-0.47308 0.31024,-0.63118 -0.0974,0.22658 -0.0966,0.48352 0.004,0.70925 l 0.007,-0.003 c -0.10212,-0.22894 -0.10131,-0.49052 0.002,-0.71882 z"
       id="path2880" />
    <path
       style="color:#000000;fill:#f8d000;stroke-width:0.00811869;stroke-miterlimit:22.9256;-inkscape-stroke:none"
       d="m -750.82859,-791.28756 0.16559,-0.75589 0.16547,0.75591"
       id="path2883" />
    <path
       style="color:#000000;fill:#000000;stroke-width:0.0176389;stroke-miterlimit:22.9256;-inkscape-stroke:none"
       d="m -750.66299,-792.06245 -0.16957,0.77401 0.008,0.002 0.16165,-0.73784 0.1615,0.73784 0.008,-0.002 z"
       id="path2886" />
    <path
       style="color:#000000;fill:#f8d000;stroke-width:0.00811869;stroke-miterlimit:22.9256;-inkscape-stroke:none"
       d="m -750.29686,-791.2252 a 0.88162659,0.88330588 89.999837 0 1 0.53599,-0.4851 0.88162659,0.88330588 89.999837 0 0 -0.2634,0.67261"
       id="path2889" />
    <path
       style="color:#000000;fill:#000000;stroke-width:0.0176389;stroke-miterlimit:22.9256;-inkscape-stroke:none"
       d="m -749.74567,-791.71949 -0.0165,0.005 c -0.24097,0.0783 -0.4369,0.25558 -0.53844,0.48731 l 0.007,0.003 c 0.0983,-0.22437 0.28631,-0.3966 0.51762,-0.47673 -0.17279,0.17617 -0.26501,0.41604 -0.2528,0.6628 l 0.008,-3.7e-4 c -0.0124,-0.2503 0.083,-0.49395 0.26218,-0.66952 z"
       id="path2892" />
    <path
       style="color:#000000;fill:#f8d000;stroke-width:0.00811869;stroke-miterlimit:22.9256;-inkscape-stroke:none"
       d="m -750.49759,-791.28755 0.42791,-0.6452 -0.1192,0.76455"
       id="path2895" />
    <path
       style="color:#000000;fill:#000000;stroke-width:0.0176389;stroke-miterlimit:22.9256;-inkscape-stroke:none"
       d="m -750.06282,-791.95045 -0.43815,0.66067 0.007,0.004 0.41765,-0.62973 -0.11634,0.74621 0.008,10e-4 z"
       id="path2898" />
    <path
       style="color:#000000;fill:#f8d000;stroke-width:0.00811869;stroke-miterlimit:22.9256;-inkscape-stroke:none"
       d="m -750.02421,-791.03763 a 0.88330588,0.88162659 7.4435156e-5 0 1 0.67539,-0.25904 0.88330588,0.88162659 7.4435156e-5 0 0 -0.48908,0.53219"
       id="path2901" />
    <path
       style="color:#000000;fill:#000000;stroke-width:0.0176389;stroke-miterlimit:22.9256;-inkscape-stroke:none"
       d="m -749.44308,-791.30091 c -0.2192,0.0113 -0.42778,0.10339 -0.58402,0.26042 l 0.006,0.006 c 0.17289,-0.17375 0.41054,-0.26656 0.65522,-0.25786 -0.22488,0.10195 -0.3977,0.2924 -0.47563,0.52689 l 0.008,0.003 c 0.079,-0.23786 0.2562,-0.43065 0.48682,-0.52975 l 0.0159,-0.007 -0.0173,-9.7e-4 c -0.0316,-0.002 -0.0632,-0.002 -0.0945,-1.7e-4 z"
       id="path2904" />
    <path
       style="color:#000000;fill:#f8d000;stroke-width:0.00811869;stroke-miterlimit:22.9256;-inkscape-stroke:none"
       d="m -750.18881,-791.16815 0.63256,-0.4473 -0.3879,0.66992"
       id="path2907" />
    <path
       style="color:#000000;fill:#000000;stroke-width:0.0176389;stroke-miterlimit:22.9256;-inkscape-stroke:none"
       d="m -749.54344,-791.6295 -0.64771,0.45802 0.005,0.007 0.6174,-0.43659 -0.37858,0.65384 0.007,0.004 z"
       id="path2910" />
    <path
       style="color:#000000;fill:#f8d000;stroke-width:0.00811869;stroke-miterlimit:22.9256;-inkscape-stroke:none"
       d="m -749.83787,-790.7644 a 0.88162659,0.88330588 89.999955 0 1 0.72354,0.002 0.88162659,0.88330588 89.999955 0 0 -0.64869,0.31987"
       id="path2913" />
    <path
       style="color:#000000;fill:#000000;stroke-width:0.0176389;stroke-miterlimit:22.9256;-inkscape-stroke:none"
       d="m -749.47588,-790.84478 c -0.12392,-3.5e-4 -0.2479,0.0252 -0.36363,0.0767 l 0.003,0.007 c 0.22413,-0.0997 0.4793,-0.10054 0.70432,-0.004 -0.24661,0.014 -0.47672,0.12918 -0.63428,0.31974 l 0.006,0.005 c 0.15982,-0.19329 0.3948,-0.30916 0.64572,-0.3184 l 0.0173,-6.2e-4 -0.0158,-0.007 c -0.11544,-0.0521 -0.23929,-0.0783 -0.36321,-0.0787 z"
       id="path2916" />
    <path
       style="color:#000000;fill:#f8d000;stroke-width:0.00811869;stroke-miterlimit:22.9256;-inkscape-stroke:none"
       d="m -749.9441,-790.94546 0.75175,-0.18899 -0.60421,0.48479"
       id="path2919" />
    <path
       style="color:#000000;fill:#000000;stroke-width:0.0176389;stroke-miterlimit:22.9256;-inkscape-stroke:none"
       d="m -749.1753,-791.14292 -0.7698,0.19351 0.002,0.008 0.73371,-0.18445 -0.5897,0.47315 0.005,0.006 z"
       id="path2922" />
    <path
       style="color:#000000;fill:#f8d000;stroke-width:0.00811869;stroke-miterlimit:22.9256;-inkscape-stroke:none"
       d="m -749.76302,-790.44259 a 0.88330588,0.88162659 1.833914e-4 0 1 0.67397,0.26267 0.88330588,0.88162659 1.833914e-4 0 0 -0.72064,0.0645"
       id="path2925" />
    <path
       style="color:#000000;fill:#000000;stroke-width:0.0176389;stroke-miterlimit:22.9256;-inkscape-stroke:none"
       d="m -749.76324,-790.44663 4.2e-4,0.008 c 0.24507,-0.0122 0.48336,0.079 0.65832,0.24997 -0.23503,-0.0759 -0.49129,-0.0513 -0.70718,0.0696 l 0.004,0.007 c 0.21896,-0.12264 0.48001,-0.14601 0.71733,-0.0642 l 0.0164,0.006 -0.0121,-0.0123 c -0.17759,-0.18041 -0.42401,-0.27642 -0.6771,-0.26386 z"
       id="path2928" />
    <path
       style="color:#000000;fill:#f8d000;stroke-width:0.00811869;stroke-miterlimit:22.9256;-inkscape-stroke:none"
       d="m -749.79658,-790.64973 0.7694,0.0947 -0.73884,0.23429"
       id="path2931" />
    <path
       style="color:#000000;fill:#000000;stroke-width:0.0176389;stroke-miterlimit:22.9256;-inkscape-stroke:none"
       d="m -749.79607,-790.65375 -10e-4,0.008 0.75086,0.0925 -0.72102,0.22865 0.002,0.008 0.75658,-0.23988 z"
       id="path2934" />
    <path
       style="color:#000000;fill:#f8d000;stroke-width:0.00811869;stroke-miterlimit:22.9256;-inkscape-stroke:none"
       d="m -749.76215,-790.40363 a 0.90097201,0.89925913 0 0 1 -0.90097,0.89926 0.90097201,0.89925913 0 0 1 -0.90097,-0.89926 0.90097201,0.89925913 0 0 1 0.90097,-0.89926 0.90097201,0.89925913 0 0 1 0.90097,0.89926 z"
       id="path2937" />
    <path
       style="color:#000000;fill:#000000;stroke-width:0.0176389;stroke-miterlimit:22.9256;-inkscape-stroke:none"
       d="m -750.66313,-791.30694 c -0.49978,0 -0.90503,0.40446 -0.90503,0.90331 0,0.49884 0.40525,0.90333 0.90503,0.90333 0.49978,0 0.90503,-0.40449 0.90503,-0.90333 0,-0.49885 -0.40525,-0.90331 -0.90503,-0.90331 z m 0,0.008 c 0.4954,0 0.89693,0.40076 0.89693,0.89521 0,0.49445 -0.40153,0.8952 -0.89693,0.8952 -0.4954,0 -0.8969,-0.40075 -0.8969,-0.8952 0,-0.49445 0.4015,-0.89521 0.8969,-0.89521 z"
       id="path2940" />
    <path
       id="path2943"
       style="fill:#183070;stroke-width:0.0152757"
       d="m -754.63188,-790.29749 h 7.9375 v 2.43417 h -7.9375 z" />
    <path
       id="path2946"
       style="color:#000000;fill:#ffffff;stroke-width:0.0152757;-inkscape-stroke:none"
       d="m -751.52678,-790.50788 c -0.15895,7e-5 -0.31522,0.0396 -0.4653,0.11968 -0.23069,0.12304 -0.44516,0.12304 -0.67585,0 -0.29847,-0.15918 -0.61318,-0.15918 -0.91165,0 -0.23069,0.12304 -0.44516,0.12304 -0.67585,0 -0.12347,-0.0659 -0.24972,-0.10287 -0.37645,-0.11424 v 0.42054 c 0.085,0.0112 0.17061,0.0399 0.25855,0.0868 0.29847,0.15918 0.61318,0.15918 0.91165,0 0.23069,-0.12304 0.44516,-0.12304 0.67585,0 0.29847,0.15918 0.61318,0.15918 0.91165,0 0.229,-0.12214 0.45968,-0.12395 0.72023,0.002 0.32298,0.1566 0.65866,0.1566 0.98164,0 0.26055,-0.12632 0.49123,-0.12451 0.72023,-0.002 0.29847,0.15918 0.61318,0.15918 0.91165,0 0.23069,-0.12304 0.44516,-0.12304 0.67585,0 0.29847,0.15918 0.61318,0.15918 0.91165,0 0.088,-0.0469 0.17352,-0.0756 0.25855,-0.0868 v -0.42168 c -0.12672,0.0114 -0.25298,0.0495 -0.37645,0.11538 -0.23069,0.12304 -0.44516,0.12304 -0.67585,0 -0.29847,-0.15918 -0.61318,-0.15918 -0.91165,0 -0.23069,0.12304 -0.44516,0.12304 -0.67585,0 -0.30017,-0.16009 -0.62511,-0.15827 -0.94665,-0.002 -0.2591,0.12563 -0.5055,0.12563 -0.7646,0 -0.16077,-0.0779 -0.3224,-0.11738 -0.48135,-0.1173 z" />
    <path
       id="path2949"
       style="color:#000000;fill:#ffffff;stroke-width:0.0152757;-inkscape-stroke:none"
       d="m -751.52678,-789.66122 c -0.15895,8e-5 -0.31522,0.0396 -0.4653,0.11969 -0.23069,0.12304 -0.44516,0.12304 -0.67585,0 -0.29847,-0.15919 -0.61318,-0.15919 -0.91165,0 -0.23069,0.12304 -0.44516,0.12304 -0.67585,0 -0.12347,-0.0659 -0.24972,-0.10287 -0.37645,-0.11424 v 0.42054 c 0.085,0.0112 0.17061,0.0399 0.25855,0.0868 0.29847,0.15919 0.61318,0.15919 0.91165,0 0.23069,-0.12304 0.44516,-0.12304 0.67585,0 0.29847,0.15919 0.61318,0.15919 0.91165,0 0.229,-0.12213 0.45968,-0.12395 0.72023,0.002 0.32298,0.1566 0.65866,0.1566 0.98164,0 0.26055,-0.12633 0.49123,-0.12451 0.72023,-0.002 0.29847,0.15919 0.61318,0.15919 0.91165,0 0.23069,-0.12304 0.44516,-0.12304 0.67585,0 0.29847,0.15919 0.61318,0.15919 0.91165,0 0.088,-0.0469 0.17352,-0.0756 0.25855,-0.0868 v -0.42054 c -0.12672,0.0114 -0.25299,0.0484 -0.37645,0.11424 -0.23069,0.12304 -0.44516,0.12304 -0.67585,0 -0.29847,-0.15919 -0.61318,-0.15919 -0.91165,0 -0.23069,0.12304 -0.44516,0.12304 -0.67585,0 -0.30017,-0.16009 -0.62511,-0.15827 -0.94665,-0.002 -0.2591,0.12562 -0.5055,0.12562 -0.7646,0 -0.16077,-0.0779 -0.3224,-0.11738 -0.48135,-0.11731 z" />
    <path
       id="path2952"
       style="color:#000000;fill:#ffffff;stroke-width:0.0152757;-inkscape-stroke:none"
       d="m -751.52678,-788.81455 c -0.15895,7e-5 -0.31522,0.0396 -0.4653,0.11968 -0.23069,0.12304 -0.44516,0.12304 -0.67585,0 -0.29847,-0.15918 -0.61318,-0.15918 -0.91165,0 -0.23069,0.12304 -0.44516,0.12304 -0.67585,0 -0.12347,-0.0658 -0.24972,-0.10287 -0.37645,-0.11424 v 0.42055 c 0.085,0.0111 0.17061,0.0399 0.25855,0.0868 0.29847,0.15918 0.61318,0.15918 0.91165,0 0.23069,-0.12304 0.44516,-0.12304 0.67585,0 0.29847,0.15918 0.61318,0.15918 0.91165,0 0.229,-0.12214 0.45968,-0.12395 0.72023,0.002 0.32298,0.1566 0.65866,0.1566 0.98164,0 0.26055,-0.12633 0.49123,-0.12452 0.72023,-0.002 0.29847,0.15918 0.61318,0.15918 0.91165,0 0.23069,-0.12304 0.44516,-0.12304 0.67585,0 0.29847,0.15918 0.61318,0.15918 0.91165,0 0.088,-0.0469 0.17352,-0.0756 0.25855,-0.0868 v -0.42055 c -0.12672,0.0114 -0.25299,0.0484 -0.37645,0.11424 -0.23069,0.12304 -0.44516,0.12304 -0.67585,0 -0.29847,-0.15918 -0.61318,-0.15918 -0.91165,0 -0.23069,0.12304 -0.44516,0.12304 -0.67585,0 -0.30017,-0.16008 -0.62511,-0.15827 -0.94665,-0.002 -0.2591,0.12562 -0.5055,0.12562 -0.7646,0 -0.16077,-0.0779 -0.3224,-0.11738 -0.48135,-0.11731 z" />
  </g>
</svg>
