<svg width="30" height="20" xmlns="http://www.w3.org/2000/svg"><symbol id="Flag_of_Scotland" preserveAspectRatio="none" viewBox="0 0 5 3"><path d="M0 0h5v3H0" fill="#005EB8"/><path d="m0 0 5 3M0 3 5 0" stroke="#fff" stroke-width=".6"/></symbol><use width="19" height="20" href="#Flag_of_Scotland"/><path d="M19 0h11v20H19z" fill="#fff"/><symbol id="G"><path d="m8.99 7.18v-2.76h-2.51v1.01h1.16v1.27q-.058.062-.163.12-.1.053-.236.0962-.13.043-.288.0673-.15.024-.312.024-.26-.0048-.466-.0817-.2-.082-.356-.236-.091-.091-.168-.207-.072-.12-.13-.26-.091-.24-.144-.553-.048-.31-.0481-.692v-.962q0-.3.034-.562.038-.26.106-.471.087-.27.216-.476.13-.2.298-.327.12-.091.269-.139.14-.048.298-.048.28 0 .486.077.21.072.341.221.12.13.188.332.072.2.106.452h1.32q-.053-.5-.226-.909-.17-.4-.471-.688-.3-.28-.745-.428-.44-.15-1.03-.149-.38 0-.731.106-.35.11-.639.312-.25.18-.462.433-.21.25-.365.562-.17.35-.26.784-.091.43-.0914.928v.952q0 .52.091.971.096.45.279.803.16.32.385.572.23.25.51.423.28.17.62.255.34.091.726.091.44 0 .827-.082.39-.081.698-.216.31-.13.534-.293.23-.16.356-.322z"/></symbol><symbol id="L"><path d="m5.62 6.91v-5.91h-1.36v7h4.63v-1.09z"/></symbol><symbol id="A"><path d="m7.62 6.54.409 1.46h1.42l-2.25-7h-1.23l-2.29 7h1.42l.413-1.46zm-1.77-1.15.736-2.58.716 2.58z"/></symbol><g transform="rotate(-90 15 -5)"><use x="-13" href="#G"/><use x="-6.5" href="#L"/><use href="#A"/></g></svg>
