<?xml version="1.0" encoding="UTF-8" standalone="no"?>
<!-- Creator: CorelDRAW Home & Student X8 -->

<svg
   xml:space="preserve"
   width="7.9375005mm"
   height="5.291667mm"
   version="1.1"
   style="clip-rule:evenodd;fill-rule:evenodd;image-rendering:optimizeQuality;shape-rendering:geometricPrecision;text-rendering:geometricPrecision"
   viewBox="0 0 793.75005 529.1667"
   id="svg59"
   sodipodi:docname="Man Adası.svg"
   inkscape:version="1.4 (86a8ad7, 2024-10-11)"
   xmlns:inkscape="http://www.inkscape.org/namespaces/inkscape"
   xmlns:sodipodi="http://sodipodi.sourceforge.net/DTD/sodipodi-0.dtd"
   xmlns="http://www.w3.org/2000/svg"
   xmlns:svg="http://www.w3.org/2000/svg"><sodipodi:namedview
   id="namedview59"
   pagecolor="#ffffff"
   bordercolor="#000000"
   borderopacity="0.25"
   inkscape:showpageshadow="2"
   inkscape:pageopacity="0.0"
   inkscape:pagecheckerboard="0"
   inkscape:deskcolor="#d1d1d1"
   inkscape:document-units="mm"
   inkscape:zoom="1.4234583"
   inkscape:cx="425.37248"
   inkscape:cy="283.46457"
   inkscape:window-width="1920"
   inkscape:window-height="1009"
   inkscape:window-x="-8"
   inkscape:window-y="-8"
   inkscape:window-maximized="1"
   inkscape:current-layer="Layer_x0020_1" />
 <defs
   id="defs1">
  <style
   type="text/css"
   id="style1">
   <![CDATA[
    .fil2 {fill:#242521}
    .fil0 {fill:#C7273E}
    .fil1 {fill:#E8D042}
    .fil4 {fill:#EFDA41}
    .fil3 {fill:#FEFEFE}
   ]]>
  </style>
 </defs>
 <g
   id="Layer_x0020_1"
   inkscape:label="Layer 1"
   inkscape:groupmode="layer">
  <metadata
   id="CorelCorpID_0Corel-Layer" />
  <polygon
   class="fil0"
   points="0,0 0,15000 22500,15000 22500,0 "
   id="polygon1"
   transform="scale(0.03527778)" />
  <path
   class="fil1"
   d="m 411.76223,376.30806 c 0.14111,-0.42333 0.45861,-5.22111 0.3175,-5.22111 -0.14111,0 -7.05556,-8.11389 -7.12611,-8.36084 v 0 c 0.14111,0 9.13694,2.01084 9.13694,1.69334 0,-0.3175 3.56306,-8.81945 3.56306,-8.99584 v 0 c 0.14111,0.17639 4.30388,10.40695 4.30388,10.40695 l 8.85473,3.84528 -6.20889,5.11527 c 0,0 1.37583,9.80723 1.41111,10.05417 h -0.0353 c -0.35278,-0.21166 -6.17361,-5.89139 -6.17361,-5.89139 l -6.80861,0.77611 c 0,0 -0.91722,-3.10444 -1.23472,-3.38666 z"
   id="path1"
   style="stroke-width:0.0352778" />
  <path
   class="fil2"
   d="m 419.735,378.28362 c 0.42334,0.14111 3.52778,3.175 5.36223,4.86833 -0.38806,-2.89278 -1.16417,-8.255 -1.16417,-8.255 l 5.64444,-5.04472 -7.86694,-3.45723 c -0.28222,-0.24694 -2.82222,-6.35 -4.02167,-9.2075 -0.21166,0.45861 -0.45861,1.09361 -0.77611,1.86973 -0.9525,2.32833 -2.08139,5.08 -2.15194,5.50333 -1.55222,0.56444 -4.83306,-0.10583 -8.14917,-0.81139 1.86972,2.2225 5.46806,6.45583 5.89139,6.80861 0.49389,0.635 0.0353,4.72722 -0.0706,5.75028 v 0 c 0.10584,0 0.45862,0.77611 1.19945,3.24556 z m 6.24417,7.23194 c -0.3175,0 -0.49389,-0.10583 -6.63222,-6.06778 l -6.27945,0.9525 c -1.09361,-1.76389 -1.65805,-3.38667 -1.79916,-3.63361 0,-1.12889 0.24694,-5.04472 0.17639,-5.50333 -0.24695,0.38805 -7.16139,-8.46667 -7.16139,-8.53723 0.77611,-0.67027 0.81139,-0.67027 2.29305,-0.35277 1.79917,0.38805 5.82084,1.23472 7.09084,1.41111 0.0705,-0.42334 0.59972,-1.79917 2.01083,-5.22111 0.67028,-1.65806 1.27,-3.06917 1.30528,-3.31611 0.45861,-0.14112 0.70555,-0.28223 1.09361,0.17638 h 0.24694 c 0,0.0706 0,0.14112 -0.0353,0.24695 0.635,1.02305 1.72861,3.66889 4.30388,9.91305 l 9.48973,3.91584 -7.02028,5.78555 c 0.3175,0.10584 1.5875,9.41917 1.5875,9.56028 v 0.67028 h -0.635 c -0.0353,0 -0.0353,0.0353 -0.0353,0.0353 z"
   id="path2"
   style="stroke-width:0.0352778" />
  <path
   class="fil3"
   d="m 363.81973,246.27417 c -5.89139,3.03389 -28.46917,28.82194 -31.53834,32.84361 -2.61055,5.85611 -7.69055,13.22917 -12.91166,17.99167 -5.57389,4.23333 -8.67834,9.98361 -7.90223,15.45166 -0.0705,6.80862 3.73945,11.39473 6.77334,16.1925 1.79916,2.18723 4.19805,3.59834 6.77333,3.77473 5.25639,0.70555 5.75028,2.32833 8.36083,3.31611 10.40695,14.11111 25.89389,24.55333 37.04167,32.80833 7.12611,3.77472 12.065,7.51417 13.75833,9.525 3.28084,6.27945 2.68112,12.34722 2.2225,15.38111 -2.75166,10.37167 -5.50333,20.81389 -8.255,31.22084 -1.41111,8.50194 5.99723,6.63222 6.38528,4.90361 3.35139,-4.33917 8.32556,-1.30528 15.45167,-26.38778 3.24555,-4.37444 6.49111,-8.78417 9.77194,-13.15861 0,0 3.77473,-1.51695 3.77473,-1.905 5.715,-6.87917 1.37583,-10.795 -1.86973,-11.99445 -2.39889,-0.91722 -4.79777,-1.79916 -7.16139,-2.64583 0,-0.0353 -8.32555,-8.32556 -8.67833,-8.32556 -3.91583,-11.46527 -23.24806,-35.8775 -27.72833,-39.29944 -3.13973,-3.24556 -4.62139,-4.62139 -7.54945,-6.42056 -4.55083,-2.15194 -5.99722,-2.8575 -8.74889,-3.98638 -2.32833,-0.91723 -0.70555,-3.45723 0.77611,-4.62139 15.31056,-8.32556 27.44612,-17.56834 42.12167,-27.02278 0.74084,-0.49389 1.48167,-0.98778 2.25778,-1.48167 -1.76389,-10.05416 -3.52778,-20.07305 -5.25639,-30.12722 -8.18444,-2.89278 -16.33361,-5.75028 -24.48278,-8.67833 -1.27,0.88194 -2.25778,1.76388 -3.38666,2.64583 z"
   id="path3"
   style="stroke-width:0.0352778" />
  <path
   class="fil2"
   d="m 366.95945,244.26334 c -0.24695,0.49388 -0.9525,1.09361 -1.65806,1.65805 l -1.05833,0.88195 c -5.85611,3.03388 -28.18695,28.46916 -31.46778,32.7025 -2.71639,6.27944 -7.97278,13.58194 -12.94694,18.0975 -5.57389,4.23333 -8.43139,9.77194 -7.69056,14.88722 -0.0706,5.67972 2.68111,9.8425 5.32695,13.82889 l 1.34055,2.08139 c 1.69333,2.01083 3.91583,3.28083 6.27945,3.45722 3.66888,0.49389 5.15055,1.41111 6.49111,2.25778 0.59972,0.38805 1.19944,0.77611 2.04611,1.09361 9.41916,12.62944 22.50722,22.18972 33.05528,29.88028 l 4.16277,3.03388 c 7.16139,3.77473 12.13556,7.58473 13.86417,9.66612 2.50472,4.72722 3.24556,9.91305 2.36361,15.83972 l -8.29028,31.32667 c -0.35277,2.08138 -0.14111,3.73944 0.67028,4.65666 0.59972,0.70556 1.44639,0.88195 2.04611,0.88195 v 0 c 1.30528,0 2.32834,-0.70556 2.36361,-0.98778 1.02306,-1.37583 1.97556,-2.01083 2.99862,-2.71639 3.03388,-2.08139 7.12611,-4.86833 12.45305,-23.67139 l 9.91306,-13.37028 c 1.72861,-0.81139 3.4925,-1.62277 3.77472,-1.86972 2.18722,-2.68111 3.03389,-5.00944 2.50472,-7.05555 -0.70555,-2.54 -3.31611,-3.66889 -4.09222,-3.95112 l -7.16139,-2.68111 c -3.21028,-3.10444 -8.11389,-7.9375 -8.71361,-8.32555 -4.19806,-11.57111 -23.35389,-35.91278 -27.86945,-39.33473 -3.24555,-3.42194 -4.69194,-4.72722 -7.47889,-6.42055 -4.62138,-2.18722 -6.06777,-2.89278 -8.67833,-3.91583 -1.12889,-0.45862 -1.44639,-1.23473 -1.55222,-1.79917 -0.21167,-1.37583 0.98778,-3.03389 2.18722,-3.98639 10.19528,-5.53861 18.80306,-11.35944 27.94,-17.53306 4.58611,-3.13972 9.27806,-6.27944 14.25222,-9.525 l 2.25778,-1.48166 -5.57389,-29.42167 z M 381.49389,431.8 v 0 c -1.27,0 -2.36361,-0.45861 -3.10444,-1.30527 -1.02306,-1.27 -1.34056,-3.21028 -0.91722,-5.82084 l 8.29027,-31.32666 c 0.84667,-5.57389 0.10584,-10.4775 -2.15194,-14.81667 -1.5875,-1.86972 -6.38528,-5.53861 -13.47611,-9.31333 l -4.23334,-3.03389 c -10.61861,-7.76111 -23.8125,-17.42723 -33.05527,-29.95084 -0.59973,-0.14111 -1.30528,-0.52916 -2.01084,-1.02305 -1.23472,-0.74084 -2.54,-1.55222 -5.89139,-2.01084 -2.68111,-0.17638 -5.25638,-1.62277 -7.23194,-4.02166 l -1.37583,-2.11667 c -2.75167,-4.19805 -5.60917,-8.50194 -5.53861,-14.53444 -0.77612,-5.46806 2.25777,-11.46528 8.14916,-15.94556 4.83306,-4.37444 9.94834,-11.50055 12.73528,-17.74472 2.71639,-3.56306 25.57639,-29.91556 31.82056,-33.12584 l 0.9525,-0.81138 c 0.74083,-0.59973 1.48166,-1.19945 2.36361,-1.83445 l 25.0825,8.60778 5.715,30.62111 -2.54,2.18722 c -4.97417,3.21028 -9.66611,6.38528 -14.2875,9.45445 -9.10167,6.20889 -17.74473,12.065 -27.90473,17.60361 -0.81138,0.635 -1.72861,1.905 -1.5875,2.68111 3.35139,1.76389 4.79778,2.46944 8.78417,4.37444 3.88056,2.25778 5.43278,3.73945 8.46667,6.94973 4.65666,3.45722 23.74194,27.6225 27.86944,39.37 v 0 c 0.14111,0 1.65806,1.27 8.53723,8.18444 l 6.91444,2.50472 c 0.9525,0.35278 4.09222,1.76389 4.90361,4.90362 0.67028,2.46944 -0.28222,5.22111 -2.75167,8.14916 0.17639,0.0353 0.17639,0.42334 -4.02166,2.11667 l -9.48972,12.94694 c -5.36223,19.01473 -9.73667,21.97806 -12.91167,24.16528 -0.9525,0.67028 -1.79917,1.23472 -2.54,2.2225 -0.14111,0.91722 -2.01083,1.69333 -3.56306,1.69333 z"
   id="path4"
   style="stroke-width:0.0352778" />
  <path
   class="fil1"
   d="m 384.28084,404.91834 c 0.10583,-0.3175 15.34583,-3.10445 15.34583,-3.10445 0,0 -1.79917,5.64445 -1.86972,5.64445 l -15.16945,4.55083 z"
   id="path5"
   style="stroke-width:0.0352778" />
  <path
   class="fil2"
   d="m 345.19306,347.73306 -1.27,-0.45861 c 2.89278,-7.69056 10.93611,-14.21695 17.03917,-16.12195 l 0.38805,1.30528 c -4.86833,1.48167 -13.12333,7.23195 -16.15722,15.27528 z"
   id="path6"
   style="stroke-width:0.0352778" />
  <path
   class="fil2"
   d="m 384.91584,405.37695 -1.16417,-0.35278 0.81139,-0.91722 c 1.65806,-0.45861 4.69194,-1.34056 5.67972,-1.48167 1.30528,-0.3175 2.64584,-0.67028 3.95111,-1.05833 l 1.79917,-0.42333 c 0.70556,-0.14112 1.37583,-0.3175 2.29306,-0.49389 1.12888,-0.45861 2.36361,-0.77611 3.70416,-1.09361 l 0.3175,1.30527 c -1.30528,0.3175 -2.46944,0.59973 -3.66889,1.05834 -0.98777,0.21166 -1.65805,0.35277 -2.36361,0.52916 l -1.76389,0.38806 c -1.23472,0.38805 -2.61055,0.77611 -3.98639,1.09361 -1.02305,0.14111 -3.95111,0.98778 -5.60916,1.44639 z m -3.38667,9.48972 -1.09361,-0.81139 c 0.21167,-0.24694 1.34056,-1.27 2.11667,-1.69333 l 1.5875,-0.59972 c 1.27,-0.49389 2.89277,-1.12889 3.66889,-1.23473 1.12888,-0.3175 2.32833,-0.67027 3.45722,-1.09361 l 1.62278,-0.38805 c 0.635,-0.17639 1.27,-0.3175 2.08138,-0.49389 0.98778,-0.45861 2.08139,-0.77611 3.28084,-1.09361 l 0.35278,1.30528 c -1.16417,0.28222 -2.18723,0.59972 -3.24556,1.05833 -0.88194,0.17639 -1.48167,0.35278 -2.11667,0.52917 l -1.5875,0.38805 c -1.09361,0.38806 -2.36361,0.74083 -3.59833,1.05833 -0.74083,0.17639 -2.2225,0.74084 -3.42194,1.19945 l -1.55223,0.56444 c -0.52916,0.35278 -1.44639,1.16417 -1.55222,1.30528 z"
   id="path7"
   style="stroke-width:0.0352778" />
  <path
   class="fil2"
   d="m 377.43695,354.54167 -0.98778,-1.5875 c 2.01083,0.24694 3.52778,0.10583 4.51556,0.0706 2.01083,-0.0706 4.51555,-1.905 4.69194,-2.43417 0.52917,-0.70556 0.84667,-1.02306 1.05833,-1.16417 l 0.24695,0.49389 v -0.88194 l 0.635,1.34055 c -0.14111,0.17639 -0.42333,0.38806 -0.77611,0.84667 -0.3175,1.02305 -3.42195,3.10444 -5.78556,3.10444 -0.9525,0.0706 -2.54,0.21167 -3.59833,0.21167 z"
   id="path8"
   style="stroke-width:0.0352778" />
  <path
   class="fil2"
   d="m 404.67139,396.76917 c -0.70555,0 -1.19944,-0.0353 -1.69333,-0.10583 l -1.16417,-0.10584 c -0.74083,0 -1.41111,-0.0706 -2.04611,-0.17638 -0.52916,-0.0706 -1.05833,-0.10584 -1.5875,-0.10584 -0.635,-0.10583 -1.23472,-0.14111 -1.79916,-0.17639 -0.635,0 -1.30528,-0.0353 -1.86973,-0.14111 -0.49389,0.0706 -1.05833,-0.0353 -1.62277,-0.14111 -1.05834,-0.10583 -2.04612,-0.10583 -3.10445,-0.24694 -0.56444,-0.0706 -1.16417,-0.10584 -1.72861,-0.10584 l -1.09361,-1.34055 h 0.21167 c 1.51694,0 2.11666,0.0706 2.71638,0.14111 1.12889,0.10583 2.15195,0.10583 3.175,0.24694 0.52917,0.0706 1.05834,0.14111 1.55223,0.14111 0.635,0.0706 1.19944,0.10584 1.79916,0.14112 0.635,0.0353 1.27,0.0706 1.86973,0.10583 0.52916,0.0353 1.09361,0.10583 1.65805,0.17639 0.56445,0.0353 1.19945,0.14111 1.905,0.14111 v 0 h 0.0353 l 2.8575,0.24694 z"
   id="path9"
   style="stroke-width:0.0352778" />
  <path
   class="fil2"
   d="m 380.08278,421.88695 -1.12889,-0.77611 c 0.17639,-0.28222 1.27,-1.27 1.94028,-1.69334 l 1.44639,-0.59972 c 1.16417,-0.49389 2.64583,-1.09361 3.42194,-1.27 0.98778,-0.28222 2.08139,-0.635 3.13973,-1.02305 l 1.44639,-0.45861 c 0.59972,-0.14112 1.16416,-0.3175 1.94027,-0.45862 0.88195,-0.45861 1.94028,-0.77611 3.03389,-1.09361 l 0.35278,1.27 c -1.02306,0.28223 -2.01083,0.59973 -2.96333,1.09361 -0.88195,0.17639 -1.41111,0.35278 -2.01084,0.49389 l -1.41111,0.38806 c -0.98778,0.42333 -2.11666,0.81139 -3.24555,1.09361 -0.67028,0.10583 -2.11667,0.74083 -3.21028,1.19944 l -1.34056,0.52917 c -0.45861,0.35278 -1.30527,1.12889 -1.41111,1.30528 z"
   id="path10"
   style="stroke-width:0.0352778" />
  <path
   class="fil2"
   d="m 408.79889,391.01889 c -0.59972,-0.21166 -0.84666,-0.35277 -1.34055,-0.38805 -1.19945,-0.42334 -1.86972,-0.635 -2.71639,-0.88195 -2.46945,-0.74083 -4.05695,-1.97555 -4.72722,-2.8575 -0.70556,-1.12889 -1.23473,-1.94027 -0.635,-3.63361 l 1.27,0.42334 c -0.38806,1.05833 -0.14111,1.44638 0.17639,1.94027 0.77611,1.12889 2.11666,2.15195 4.26861,2.82223 0.91722,0.28222 1.62277,0.52916 2.68111,0.91722 0.49389,0.0353 0.91722,0.21166 1.34055,0.35278 z"
   id="path11"
   style="stroke-width:0.0352778" />
  <path
   class="fil2"
   d="m 313.61945,318.17028 -0.0706,-0.42333 0.0706,0.42333 -0.9525,-0.45861 c 0.635,-1.02306 0.9525,-1.19944 1.41111,-1.5875 0.24694,-0.28222 0.56444,-0.56444 0.88194,-0.84667 0.3175,-0.28222 0.635,-0.59972 0.98778,-0.98777 l 1.05833,0.81138 c -0.38805,0.49389 -0.77611,0.84667 -1.16416,1.16417 -0.24695,0.28222 -0.52917,0.49389 -0.84667,0.84667 -0.59972,0.45861 -0.9525,0.70555 -1.16417,0.81139 l -0.21166,-0.14111 z"
   id="path12"
   style="stroke-width:0.0352778" />
  <path
   class="fil2"
   d="m 327.58945,333.79834 -0.24695,-1.30528 c 0.635,-0.24695 12.66473,-6.31472 13.82889,-7.54945 l 1.19945,-0.9525 c 0.52916,-0.42333 1.05833,-0.88194 1.76389,-1.34055 0.45861,-0.24695 0.77611,-0.45861 1.12888,-0.74083 0.9525,-0.77612 1.27,-1.12889 1.55223,-1.48167 0.35277,-0.3175 0.635,-0.635 0.81139,-0.9525 l 0.56444,-0.98778 c 0.0706,-0.38805 0.21167,-0.81139 0.56444,-1.27 0.42334,-1.27 0.77612,-2.18722 0.91723,-2.75167 l 1.30527,0.3175 c -0.17638,0.59973 -0.52916,1.5875 -0.84666,2.39889 l -0.67028,1.62278 c -0.10583,0.45861 -0.21167,0.98778 -0.81139,1.48167 -0.14111,0.3175 -0.49389,0.74083 -0.84667,1.09361 -0.24694,0.28222 -0.52916,0.56444 -0.77611,0.91722 l -0.98777,0.70556 c -0.38806,0.28222 -0.77612,0.56444 -1.23473,0.81139 -0.59972,0.38805 -1.09361,0.81138 -1.5875,1.23472 l -1.16416,0.91722 c -1.16417,1.16417 -13.79361,7.83167 -14.46389,7.83167 z"
   id="path13"
   style="stroke-width:0.0352778" />
  <path
   class="fil2"
   d="m 362.97306,333.65723 -0.70556,-1.12889 c 1.69334,-0.98778 3.175,-4.58611 3.24556,-5.60917 -0.0353,-0.56444 0.0353,-1.23472 0.10583,-1.79917 l 1.37584,-1.19944 c 0.0353,0.3175 0,0.70555 -0.0353,1.37583 -0.0706,0.49389 -0.14111,1.12889 -0.14111,1.62278 -0.0353,1.55222 -1.76389,5.53861 -3.84528,6.73806 z"
   id="path14"
   style="stroke-width:0.0352778" />
  <path
   class="fil2"
   d="m 389.60778,387.24417 c -0.59972,0 -1.05833,-0.0353 -1.41111,-0.0705 l -1.69333,-0.0353 v -1.34056 h 1.09361 c 2.01083,0.14111 4.445,0.3175 8.67833,-0.9525 1.27,-0.52916 2.08139,-0.88194 2.68111,-1.48166 0.56445,-0.3175 1.05834,-0.81139 1.55223,-1.30528 0.35277,-0.38806 0.74083,-0.74084 1.12888,-1.09361 0.38806,-0.42334 0.59973,-0.9525 0.56445,-1.5875 -0.14111,-1.69334 -1.905,-3.42195 -2.54,-3.98639 -0.635,-0.42334 -12.065,-7.58473 -12.98222,-7.97278 -0.42334,-0.3175 -0.74084,-0.49389 -1.05834,-0.70556 -0.52916,-0.3175 -1.12889,-0.67027 -1.72861,-1.19944 -0.49389,-0.24695 -1.12889,-0.74083 -1.69333,-1.23472 l -0.88195,-0.67028 c -0.98777,-1.30528 -1.41111,-1.86972 -1.76388,-2.71639 -0.70556,-1.27 -0.91723,-1.69333 -1.19945,-1.97556 -0.38805,-0.84666 -0.81139,-1.86972 -1.19944,-2.54 -0.35278,-1.12888 -6.73806,-14.35805 -8.99584,-16.1925 -0.635,-1.02305 -1.30528,-1.79916 -2.08139,-2.75166 -0.98777,-1.19945 -1.48166,-1.76389 -2.11666,-2.32834 -0.35278,-0.49388 -0.98778,-0.84666 -1.5875,-1.16416 -0.45861,-0.28222 -0.88195,-0.52917 -1.19945,-0.77611 -0.70555,-0.59973 -8.5725,-5.64445 -12.48833,-7.02028 l -3.31611,-1.05833 c -1.02306,-0.3175 -1.62278,-0.49389 -1.76389,-0.52917 l 0.10583,-1.30528 c 0.17639,0 0.17639,0 2.04611,0.56445 l 3.35139,1.05833 c 4.02167,1.41111 12.065,6.49111 12.91167,7.26722 0.28222,0.21167 0.635,0.42333 1.02305,0.635 0.70556,0.42333 1.48167,0.88195 1.905,1.44639 0.56445,0.45861 1.09362,1.09361 1.65806,1.76389 1.34056,1.5875 2.04611,2.46944 2.54,3.31611 2.50472,1.97556 9.06639,15.91028 9.24278,16.58056 0.35278,0.59972 0.81139,1.62277 1.09361,2.32833 0.24694,0.21167 0.52917,0.74083 0.81139,1.30528 0.77611,1.55222 1.09361,1.97555 1.48167,2.50472 l 1.23472,1.23472 c 0.52916,0.42333 1.09361,0.88195 1.65805,1.16417 0.635,0.52916 1.16417,0.84666 1.62278,1.16416 0.38806,0.17639 0.74083,0.38806 1.05833,0.67028 1.02306,0.38806 12.98223,8.00806 13.08806,8.04334 0.17639,0.14111 2.89278,2.39888 3.06917,4.97416 0.0706,0.98778 -0.24695,1.905 -0.9525,2.68111 -0.42334,0.35278 -0.77611,0.70556 -1.09361,1.02306 -0.59973,0.56444 -1.12889,1.12889 -1.69334,1.44639 -0.635,0.67028 -1.62278,1.09361 -2.50472,1.44639 -3.66889,1.12889 -6.10306,1.37583 -7.65528,1.37583 z"
   id="path15"
   style="stroke-width:0.0352778" />
  <path
   class="fil2"
   d="m 338.84306,307.26945 c -0.42333,0 -0.77611,0 -1.19945,-0.0353 -1.37583,-0.0353 -2.82222,-0.56444 -4.1275,-1.05833 -1.51694,-0.635 -2.39888,-1.02306 -3.66888,-1.86973 -0.84667,-0.52916 -1.51695,-1.12888 -2.25778,-1.83444 -1.34056,-1.27 -3.175,-1.76389 -4.26861,-2.04611 l -1.51695,-1.16417 -0.17639,0.67028 c -0.45861,-0.10583 -0.88194,-0.21167 -1.41111,-0.49389 -1.16416,-0.35278 -1.41111,-0.38805 -2.2225,-0.70555 l 0.49389,-1.23473 c 0.67028,0.24695 0.84667,0.28223 1.02306,0.35278 0.3175,0.0353 0.52916,0.0706 1.23472,0.38806 0.45861,0.21166 0.81139,0.3175 1.19944,0.38805 l 1.09361,0.3175 c 1.86973,0.49389 3.91584,1.05834 5.04473,2.18722 1.09361,0.98778 1.69333,1.55223 2.50472,2.04612 1.16417,0.81138 1.97555,1.16416 3.42194,1.76388 1.16417,0.42334 2.50473,0.9525 3.70417,0.98778 0.81139,0.0353 1.23472,0.0353 1.76389,0.0353 l 4.1275,-0.0353 v 1.34056 h -3.06917 c -0.77611,0 -1.27,0 -1.69333,0 z"
   id="path16"
   style="stroke-width:0.0352778" />
  <path
   class="fil4"
   d="m 317.88806,312.70223 c 3.28083,-0.21167 8.74889,0.77611 8.85472,0.77611 l 7.23195,-0.10584 c 3.81,-0.35277 4.65666,-1.83444 5.25638,-2.8575 1.41112,-2.18722 2.39889,-2.92805 3.52778,-4.58611 1.72861,-1.30528 4.1275,1.76389 4.26861,1.76389 6.10306,5.78556 1.19945,12.91167 0.88195,13.12333 -3.06917,2.82223 -3.73945,2.99862 -5.60917,1.23473 -1.86972,-2.2225 -2.39889,-3.21028 -3.91583,-3.95111 -2.96334,-1.44639 -9.10167,-0.3175 -9.2075,-0.3175 -0.10584,0 -3.175,1.19944 -3.175,1.19944 -1.48167,0.52917 -2.43417,1.83444 -5.04472,2.25778 -2.61056,0.17639 -3.4925,-0.0353 -4.79778,-2.18722 -1.76389,-2.75167 -0.88195,-5.99723 1.72861,-6.31473 z"
   id="path17"
   style="stroke-width:0.0352778" />
  <path
   class="fil2"
   d="m 333.93945,316.65334 c 2.04611,0 3.63361,0.3175 4.72722,0.84666 1.34056,0.635 1.97556,1.48167 3.10444,2.82223 l 1.05834,1.27 c 1.79916,1.79916 2.15194,0.98777 4.62139,-1.27 0.24694,-0.28223 2.04611,-2.96334 1.94027,-6.13834 -0.0706,-2.29305 -0.98777,-4.26861 -2.82222,-5.99722 -0.67028,-0.635 -1.905,-1.905 -2.8575,-1.905 -0.91722,0.77611 -1.41111,1.34056 -1.905,1.94028 -0.59972,0.74083 -1.23472,1.48166 -2.01083,2.64583 -0.67028,1.12889 -1.65806,2.78695 -5.75028,3.175 l -7.26722,0.10583 c -1.48167,-0.24694 -5.08,-0.81138 -7.86695,-0.81138 -1.97555,0.14111 -2.46944,0.81138 -2.71638,1.34055 -0.52917,1.16417 -0.35278,2.68111 0.52916,4.02167 1.02306,1.69333 1.62278,1.94028 3.06917,1.94028 l 1.12889,-0.0706 c 1.44639,-0.21167 2.32833,-0.77611 3.175,-1.37583 0.52916,-0.3175 1.05833,-0.67028 1.65805,-0.84667 3.175,-1.27 3.24556,-1.27 3.42195,-1.27 0.635,-0.10583 2.64583,-0.38806 4.7625,-0.38806 z m 10.33639,7.16139 c -0.84667,0 -1.5875,-0.49389 -2.43417,-1.30528 l -1.12889,-1.34056 c -1.05833,-1.30528 -1.5875,-1.97555 -2.64583,-2.50472 -1.905,-0.88194 -7.58472,-0.42333 -8.64306,-0.24694 -0.42333,0.0705 -3.175,1.16416 -3.175,1.16416 -0.49389,0.17639 -0.91722,0.42334 -1.44639,0.77611 -0.84666,0.56445 -1.94027,1.27 -3.73944,1.55223 l -1.27,0.0705 c -2.01083,0 -2.99861,-0.59972 -4.19806,-2.57528 -1.09361,-1.65805 -1.34055,-3.70416 -0.59972,-5.29166 0.52917,-1.12889 1.5875,-1.905 2.82222,-2.04611 l 1.09361,-0.0353 c 2.8575,0 6.56167,0.59972 7.65528,0.74083 l 7.40834,-0.0706 c 3.38666,-0.3175 4.09222,-1.51695 4.69194,-2.50473 0.81139,-1.27 1.48167,-2.04611 2.11667,-2.82222 0.45861,-0.56444 0.91722,-1.09361 1.41111,-1.79917 l 0.17639,-0.3175 1.34055,-0.3175 c 1.51695,0 2.96334,1.44639 3.56306,2.04612 2.57528,2.46944 3.66889,5.18583 3.42194,8.21972 -0.24694,3.24555 -2.01083,5.89139 -2.43416,6.17361 -1.83445,1.65805 -2.89278,2.46944 -3.98639,2.46944 z"
   id="path18"
   style="stroke-width:0.0352778" />
  <path
   class="fil1"
   d="m 489.26751,179.95195 c -0.49389,0.10583 -4.83306,2.18722 -4.76251,2.32833 0.10584,0.10583 -3.52777,9.94833 -3.77472,10.30111 v 0 c -0.14111,-0.3175 -2.71639,-8.92528 -2.99861,-8.78417 -0.24694,0.14112 -9.41917,1.23473 -9.56028,1.27 v 0 c 0.0706,-0.17638 6.91445,-8.85472 6.91445,-8.85472 l -0.9525,-9.56028 7.47889,2.8575 c 0,0 7.97278,-6.06777 8.11389,-6.10305 v 0 c 0.0353,0.14111 -2.11667,8.255 -2.11667,8.255 l 4.02167,5.57389 c 0,0 -2.25778,2.29305 -2.36361,2.71639 z"
   id="path19"
   style="stroke-width:0.0352778" />
  <path
   class="fil2"
   d="m 477.69639,183.16222 c 0.70556,0 0.91723,0.49389 3.10445,7.47889 1.05833,-2.75166 2.96333,-7.9375 3.06916,-8.46666 0.3175,-0.77611 4.09223,-2.39889 5.04473,-2.78695 -0.0353,-0.0705 0.45861,-0.77611 2.2225,-2.61055 l -4.05695,-4.72723 c -0.0706,-0.42333 0.98778,-4.62138 1.5875,-7.05555 -2.32833,1.76389 -6.63222,5.08 -6.63222,5.08 l -7.12611,-2.46945 0.84667,8.53723 c -0.10584,0.38805 -4.19806,5.60916 -6.10306,8.07861 0.49389,-0.0706 1.09361,-0.17639 1.86972,-0.24695 2.50472,-0.3175 5.57389,-0.70555 5.99722,-0.81139 0.0706,0 0.10584,0 0.17639,0 z m 2.43417,9.73667 c 0,-0.0353 -0.21167,-0.635 -0.45861,-1.55222 -0.52917,-1.62278 -1.83445,-5.67972 -2.29306,-6.87917 -0.42333,0.14111 -1.905,0.35278 -5.715,0.81139 -1.65805,0.21167 -3.10444,0.42333 -3.31611,0.42333 -0.35278,-0.28222 -0.59972,-0.45861 -0.38805,-0.98777 l -0.10584,-0.21167 c 0.0353,-0.0353 0.0706,-0.0706 0.21167,-0.0706 0.56444,-1.09361 2.29306,-3.31611 6.49111,-8.60777 l -1.16417,-10.19528 8.46667,3.31611 c 7.33778,-6.06778 7.47889,-6.13833 7.54945,-6.13833 1.09361,0.52916 1.12889,0.56444 -1.16417,9.03111 l 3.91583,4.97416 c -1.02305,1.83445 -2.11666,3.10445 -2.25777,3.38667 -1.02306,0.52917 -4.55084,2.25778 -4.93889,2.57528 0.14111,-0.28222 -3.56306,10.01889 -3.59834,10.08944 z"
   id="path20"
   style="stroke-width:0.0352778" />
  <path
   class="fil3"
   d="m 399.415,285.50306 c 5.50334,3.63361 39.0525,10.65389 44.06195,11.39472 6.38528,-0.59972 15.31055,0.21167 22.01333,2.43417 6.42056,2.78694 12.94695,2.68111 17.32139,-0.67028 5.96195,-3.28083 8.11389,-8.85472 10.795,-13.86417 1.02306,-2.64583 1.09361,-5.43277 -0.0353,-7.76111 -1.97555,-4.90361 -0.77611,-6.10305 -1.19944,-8.92528 7.23194,-15.98083 8.71361,-34.6075 10.4775,-48.36583 -0.21167,-8.04333 0.59972,-14.14639 1.55222,-16.65111 3.84528,-5.89139 9.45445,-8.36083 12.27667,-9.45445 10.40694,-2.71638 20.88444,-5.36222 31.29139,-8.07861 8.11389,-2.96333 2.82222,-8.46666 1.12889,-8.00805 -5.3975,-0.77611 -5.18584,-6.59695 -30.51528,-0.52917 -5.43278,-0.70555 -10.86556,-1.37583 -16.29833,-2.08139 0,0 -3.175,-2.54 -3.4925,-2.32833 -8.81945,-1.65806 -10.08945,4.09222 -9.59556,7.51417 0.42333,2.50472 0.81139,5.04472 1.23472,7.51416 0,0 -3.175,11.32417 -2.99861,11.64167 -8.04333,9.03111 -20.03778,38.06472 -20.81389,43.67389 -0.35278,5.22111 -2.32833,4.30389 -1.79917,9.41916 0.0353,3.95112 -0.45861,1.44639 0.88195,9.66612 0.3175,2.46944 -2.68111,2.29305 -4.445,1.55222 -14.74611,-9.24278 -28.78667,-15.24 -44.16778,-23.45972 -0.81139,-0.42334 -1.62278,-0.81139 -2.39889,-1.23473 -7.90222,6.45584 -15.80444,12.87639 -23.70666,19.3675 1.48166,8.53723 2.96333,17.03917 4.445,25.57639 1.41111,0.67028 2.64583,1.12889 3.98638,1.65806 z"
   id="path21"
   style="stroke-width:0.0352778" />
  <path
   class="fil2"
   d="m 447.92195,296.05111 c 6.13833,0 12.77055,0.98778 17.78,2.64584 6.31472,2.71639 12.7,2.50472 16.72167,-0.56445 5.00944,-2.75166 7.3025,-7.19666 9.48972,-11.50055 l 1.12889,-2.15195 c 0.9525,-2.46944 0.91722,-5.04472 -0.0706,-7.12611 -1.37583,-3.45722 -1.27,-5.22111 -1.19944,-6.80861 0.0353,-0.74083 0.0706,-1.44639 -0.0706,-2.32833 6.38528,-14.39334 8.32556,-30.51528 9.8425,-43.46223 l 0.635,-5.08 c -0.24694,-8.11388 0.635,-14.2875 1.62278,-16.8275 2.8575,-4.445 7.12611,-7.72583 12.62944,-9.8425 l 31.39723,-8.11388 c 2.71639,-0.98778 4.1275,-2.46945 3.81,-4.09223 -0.24695,-1.48166 -1.72861,-2.57527 -2.29306,-2.57527 -1.72861,-0.17639 -2.78694,-0.74084 -3.91583,-1.27 -1.905,-0.91723 -4.02167,-1.97556 -8.81945,-1.97556 -4.40972,0 -10.26583,0.88194 -17.88583,2.71639 l -16.54528,-2.08139 c -1.55222,-1.12889 -3.06916,-2.25778 -3.45722,-2.36361 -3.91583,-0.67028 -6.20889,-0.10583 -7.62,1.55222 -1.5875,1.86972 -1.34056,4.48028 -1.23472,5.25639 l 1.19944,7.51417 c -1.12889,4.30389 -2.92805,10.93611 -2.96333,11.64166 -8.11389,9.45445 -20.03778,38.17056 -20.81389,43.815 -0.17639,2.46945 -0.70556,3.63361 -1.16417,4.69195 -0.49389,1.09361 -0.91722,1.97555 -0.635,4.55083 l -0.0353,2.15195 c -0.0705,1.30527 -0.0705,1.44638 0.91723,7.54944 0.10583,0.77611 -0.0706,1.44639 -0.49389,1.94028 -0.88195,0.98778 -3.03389,1.09361 -4.86834,0.3175 -9.80722,-6.13834 -19.08527,-10.795 -28.92777,-15.66334 -5.00945,-2.54 -10.05417,-5.04472 -15.31056,-7.83166 l -2.39889,-1.23472 -22.96583,19.26166 4.69194,24.97667 c 0.67028,-0.10583 1.41111,0.28222 2.25778,0.635 l 1.30528,0.52917 c 5.3975,3.52777 38.77028,10.61861 43.92083,11.32416 1.23472,-0.14111 2.75167,-0.17639 4.33917,-0.17639 z m 26.42305,5.92667 c -2.92805,0 -6.06777,-0.74083 -9.10166,-2.04611 -6.06778,-1.97556 -15.06361,-2.96333 -21.69584,-2.36361 -4.30388,-0.59972 -38.77027,-7.72583 -44.52055,-11.50056 l -1.16417,-0.49389 c -0.88194,-0.3175 -1.76389,-0.67027 -2.71639,-1.12888 l -4.79777,-26.07028 23.88305,-20.0025 3.175,1.19944 c 5.22111,2.75167 10.26583,5.29167 15.27528,7.76111 9.8425,4.93889 19.15583,9.59556 28.96305,15.69861 1.02306,0.42334 2.75167,0.49389 3.21028,0 -0.81139,-7.05555 -0.81139,-7.23194 -0.74083,-8.64305 l 0.0353,-2.01084 c -0.3175,-2.89277 0.21166,-4.02166 0.74083,-5.22111 0.45861,-0.98777 0.91722,-1.97555 1.09361,-4.26861 0.77611,-5.75028 12.80583,-34.74861 20.84917,-43.92083 -0.0706,-0.14111 0.3175,-2.04611 2.96333,-11.50056 l -1.27,-7.19666 c -0.3175,-2.43417 0.24695,-4.79778 1.55222,-6.35 1.76389,-2.01084 4.55084,-2.75167 8.81945,-1.97556 0.10583,-0.0353 0.70555,0 3.77472,2.50472 l 15.98083,1.905 c 7.47889,-1.83444 13.44084,-2.75166 17.95639,-2.75166 5.11528,0 7.51417,1.19944 9.41917,2.15194 1.05833,0.52917 1.97556,0.98778 3.175,1.12889 1.19944,0 3.42194,1.69333 3.77472,3.70417 0.24695,1.34055 -0.0705,3.88055 -4.7625,5.60916 L 516.81945,194.31 c -5.22111,1.97556 -9.13694,4.97417 -11.85333,9.13695 -0.84667,2.29305 -1.69334,8.255 -1.48167,16.29833 l -0.59972,5.15056 c -1.55222,13.05277 -3.4925,29.35111 -9.91306,43.4975 0.21167,0.59972 0.17639,1.41111 0.14111,2.2225 -0.10583,1.51694 -0.17639,3.03389 1.05834,6.17361 1.16416,2.39889 1.19944,5.32694 0.0706,8.255 l -1.12889,2.18722 c -2.32833,4.48028 -4.65666,9.10167 -9.94833,12.02972 -2.32833,1.76389 -5.3975,2.71639 -8.81945,2.71639 z"
   id="path22"
   style="stroke-width:0.0352778" />
  <path
   class="fil1"
   d="m 527.61445,189.90028 c -0.28222,0.10583 -10.19528,-11.85333 -10.19528,-11.85333 0,0 5.78556,-1.19945 5.82084,-1.12889 l 11.43,10.97139 z"
   id="path23"
   style="stroke-width:0.0352778" />
  <path
   class="fil2"
   d="m 493.92417,253.57667 c -7.3025,0 -15.09889,-3.38667 -19.15583,-7.16139 l 0.91722,-0.98778 c 3.73944,3.52778 12.80583,7.83167 21.2725,6.56167 l 0.21167,1.34055 c -1.05834,0.14112 -2.15195,0.24695 -3.24556,0.24695 z"
   id="path24"
   style="stroke-width:0.0352778" />
  <path
   class="fil2"
   d="m 537.52751,188.77139 c -0.38806,-0.0353 -1.79917,-0.52917 -2.54,-0.98778 l -1.27,-1.09361 c -1.05834,-0.88194 -2.39889,-1.97555 -2.92806,-2.57528 -0.81139,-0.84666 -1.69333,-1.69333 -2.61056,-2.54 l -1.16416,-1.19944 c -0.45861,-0.45861 -0.88195,-0.91722 -1.41111,-1.51694 -0.91723,-0.67028 -1.72861,-1.48167 -2.61056,-2.36362 l 0.9525,-0.91722 c 0.84667,0.81139 1.62278,1.5875 2.54,2.32834 l 2.61056,2.75166 c 0.91722,0.74084 1.79916,1.65806 2.68111,2.57528 0.52916,0.59972 1.79916,1.62278 2.78694,2.46944 l 1.19945,0.98778 c 0.52916,0.3175 1.69333,0.74084 1.905,0.77611 z m -9.525,1.55222 -0.9525,-0.0353 c -1.19945,-1.16417 -3.66889,-3.59834 -4.33917,-4.48028 -0.88195,-0.9525 -1.83445,-1.97556 -2.8575,-2.8575 L 518.65389,181.61 c -0.49388,-0.56444 -0.98777,-1.05833 -1.5875,-1.79916 -0.9525,-0.77612 -1.83444,-1.72862 -2.78694,-2.71639 l 0.98778,-0.91723 c 0.91722,0.98778 1.76389,1.86973 2.75166,2.71639 0.635,0.77611 1.12889,1.27 1.62278,1.83445 l 1.16417,1.27 c 0.98778,0.91722 1.97555,1.94028 2.92805,2.96333 0.70556,0.84667 3.10445,3.24556 4.23334,4.40972 z"
   id="path25"
   style="stroke-width:0.0352778" />
  <path
   class="fil2"
   d="m 486.23362,222.21472 c -0.81139,-1.86972 -1.65806,-3.13972 -2.2225,-3.95111 -0.98778,-1.76389 -3.81,-2.78694 -4.445,-2.92805 -0.84667,-0.10584 -1.23473,-0.24695 -1.48167,-0.3175 l 0.3175,-0.52917 -0.77611,0.45861 0.88194,-1.19944 c 0.17639,0.0705 0.52917,0.21166 1.09361,0.24694 0.91723,-0.21166 4.37445,1.48167 5.50334,3.56306 0.59972,0.77611 1.48166,2.11666 1.97555,3.03389 z"
   id="path26"
   style="stroke-width:0.0352778" />
  <path
   class="fil2"
   d="m 517.77195,192.96945 -0.84667,-0.14111 0.59973,-0.3175 -0.67028,0.21166 0.0706,-0.0705 -0.0706,0.0705 c -0.77611,-1.34055 -1.02306,-1.905 -1.27,-2.43416 -0.17639,-0.49389 -0.38806,-0.9525 -0.59972,-1.34056 -0.28223,-0.52917 -0.49389,-1.05833 -0.74084,-1.5875 -0.17639,-0.49389 -0.35278,-0.9525 -0.59972,-1.41111 -0.24694,-0.59972 -0.49389,-1.09361 -0.77611,-1.65806 -0.28222,-0.56444 -0.56445,-1.12889 -0.81139,-1.69333 -0.21167,-0.45861 -0.42333,-0.9525 -0.635,-1.41111 -0.24694,-0.59972 -0.45861,-1.19945 -0.84667,-1.83445 l -1.19944,-2.64583 1.19944,-0.59972 c 0.3175,0.59972 0.49389,1.09361 0.70556,1.55222 l 0.49389,1.05833 c 0.35278,0.67028 0.635,1.30528 0.88194,1.94028 0.21167,0.45861 0.38806,0.91722 0.635,1.41111 0.24695,0.56445 0.49389,1.09361 0.77611,1.62278 0.28223,0.56445 0.56445,1.16417 0.77611,1.69333 0.24695,0.38806 0.45862,0.9525 0.67028,1.51695 0.21167,0.45861 0.38806,0.9525 0.59972,1.37583 0.28223,0.45861 0.49389,0.9525 0.70556,1.44639 0.21167,0.49389 0.45861,1.05833 0.74083,1.55222 l 0.3175,0.56445 v 0.24694 l 0.10584,-0.0705 -0.10584,0.10583 z"
   id="path27"
   style="stroke-width:0.0352778" />
  <path
   class="fil2"
   d="m 544.37139,186.61945 c -0.35277,-0.0353 -1.72861,-0.49389 -2.43416,-0.84667 l -1.27,-0.98778 c -1.02306,-0.81139 -2.2225,-1.76389 -2.71639,-2.32833 -0.77611,-0.74083 -1.5875,-1.51695 -2.46945,-2.25778 l -1.05833,-1.05833 c -0.42333,-0.45861 -0.88194,-0.84667 -1.37583,-1.44639 -0.84667,-0.56445 -1.62278,-1.27 -2.43417,-2.08139 l 0.91722,-0.9525 c 0.77611,0.77611 1.51695,1.44639 2.39889,2.04611 0.59972,0.67028 1.02306,1.05833 1.41111,1.48167 l 1.05834,1.05833 c 0.84666,0.70556 1.69333,1.48167 2.54,2.32833 0.45861,0.52917 1.62277,1.44639 2.54,2.11667 l 1.19944,0.98778 c 0.49389,0.21167 1.62278,0.56444 1.83445,0.59972 z"
   id="path28"
   style="stroke-width:0.0352778" />
  <path
   class="fil2"
   d="m 501.33251,187.39556 -0.24695,-1.34056 c 1.16417,-0.21166 1.34056,-0.56444 1.62278,-1.09361 0.635,-1.19944 0.88194,-2.92805 0.38805,-5.11528 -0.21166,-0.9525 -0.35277,-1.65805 -0.52916,-2.75166 -0.21167,-0.49389 -0.28222,-0.9525 -0.35278,-1.41111 l 1.30528,-0.35278 c 0.0706,0.635 0.10583,0.91722 0.35278,1.37583 0.17638,1.23472 0.3175,1.94028 0.52916,2.82222 0.52917,2.50473 0.28222,4.48028 -0.17639,5.53861 -0.67027,1.12889 -1.12889,1.97556 -2.89277,2.32834 z"
   id="path29"
   style="stroke-width:0.0352778" />
  <path
   class="fil2"
   d="m 486.72751,295.09861 c -1.19945,-0.10583 -1.55223,-0.28222 -2.08139,-0.49388 -0.38806,-0.0706 -0.77612,-0.21167 -1.16417,-0.3175 -0.42333,-0.17639 -0.81139,-0.3175 -1.37583,-0.35278 l 0.21166,-1.34056 c 0.635,0.10584 1.09361,0.24695 1.5875,0.42334 0.35278,0.10583 0.70556,0.24694 1.12889,0.35277 0.70556,0.24695 1.12889,0.45861 1.30528,0.56445 v 0.24694 l 0.0706,-0.0706 -0.10584,0.14111 0.38806,-0.28222 0.21166,0.45861 z"
   id="path30"
   style="stroke-width:0.0352778" />
  <path
   class="fil2"
   d="m 492.40723,275.02556 c -0.84667,-0.70556 -11.78278,-7.90222 -13.335,-8.36084 l -1.44639,-0.59972 c -0.635,-0.21166 -1.27,-0.45861 -1.97556,-0.81139 -0.49389,-0.3175 -0.84666,-0.45861 -1.23472,-0.67027 -1.16417,-0.42334 -1.62278,-0.52917 -2.04611,-0.635 -0.45861,-0.14112 -0.9525,-0.14112 -1.23472,-0.21167 h -1.12889 c -0.35278,0.0705 -0.81139,0.24694 -1.41111,0.14111 -1.37584,0.24694 -2.29306,0.38806 -2.82223,0.56444 l -0.35277,-1.30527 c 0.56444,-0.17639 1.51694,-0.3175 2.36361,-0.45861 l 1.86972,-0.24695 c 0.42333,-0.10583 0.98778,-0.28222 1.69333,0 0.3175,-0.0706 0.84667,0.10583 1.34056,0.21167 0.38805,0.10583 0.77611,0.21166 1.19944,0.28222 l 1.05834,0.42333 c 0.49389,0.24695 0.91722,0.45861 1.37583,0.74084 0.59972,0.3175 1.19944,0.52916 1.79917,0.74083 l 1.41111,0.56444 c 1.23472,0.35278 13.58194,8.14917 13.93472,8.85473 l -1.19944,0.56444 0.56444,-0.28222 z"
   id="path31"
   style="stroke-width:0.0352778" />
  <path
   class="fil2"
   d="m 467.28945,245.28639 -1.76389,-0.59972 c 0.21167,-0.21167 0.59972,-0.38806 1.23472,-0.635 0.45861,-0.21167 1.02306,-0.42333 1.48167,-0.70556 1.34055,-0.67027 5.64444,-1.16416 7.76111,0.0706 l -0.67028,1.12889 c -1.69333,-0.9525 -5.53861,-0.49389 -6.45583,-0.0353 -0.49389,0.28222 -1.05833,0.56444 -1.5875,0.77611 z"
   id="path32"
   style="stroke-width:0.0352778" />
  <path
   class="fil2"
   d="m 476.35584,265.35945 c -0.10584,-0.14111 -0.10584,-0.14111 -0.56445,-2.25778 l -0.70555,-3.31611 c -0.67028,-4.1275 -0.21167,-13.68778 0.0353,-14.81667 0.0353,-0.28222 0.0353,-0.74083 0.0353,-1.16417 0,-0.84666 0.0353,-1.72861 0.3175,-2.36361 0.14111,-0.74083 0.45861,-1.55222 0.74084,-2.32833 0.77611,-2.04611 1.16416,-3.03389 1.65805,-3.84528 0.49389,-3.10444 9.41917,-15.69861 9.91306,-16.1925 0.35278,-0.59972 1.05833,-1.48166 1.51694,-2.04611 0.0706,-0.38805 0.38806,-0.84667 0.74084,-1.41111 0.98777,-1.44639 1.19944,-1.905 1.44639,-2.46944 l 0.45861,-1.72862 c 0.10583,-0.67027 0.24694,-1.34055 0.24694,-1.97555 0.14111,-0.84667 0.14111,-1.44639 0.14111,-1.97556 0,-0.49389 0.0353,-0.88194 0.10584,-1.27 -0.14112,-1.12889 0.59972,-15.27527 0.635,-15.38111 0.21166,-1.27 1.02305,-3.91583 2.78694,-5.08 0.84667,-0.56444 1.79917,-0.70555 2.78694,-0.49389 l 1.41112,0.42334 c 0.81138,0.21166 1.5875,0.45861 2.15194,0.81139 0.88194,0.21166 1.72861,0.84666 2.46944,1.44638 3.84528,3.63362 5.00945,6.10306 5.57389,7.3025 l -0.0353,1.30528 0.56444,-0.35278 -0.88194,1.16417 -0.52917,-0.9525 c -0.88195,-1.79917 -1.94028,-4.05694 -5.11528,-7.09083 -1.09361,-0.88195 -1.76389,-1.41111 -2.57528,-1.62278 -0.59972,-0.3175 -1.27,-0.52917 -1.97555,-0.70556 l -1.41111,-0.45861 c -0.59973,-0.17639 -1.16417,-0.0353 -1.72861,0.35278 -1.37584,0.91722 -2.04612,3.35139 -2.18723,4.1275 -0.0706,0.70556 -0.74083,14.21695 -0.635,15.24 -0.0705,0.49389 -0.0705,0.84667 -0.0705,1.23472 0,0.635 -0.0353,1.30528 -0.17639,2.08139 0.0353,0.56445 -0.10583,1.37584 -0.24695,2.11667 l -0.14111,1.05833 c -0.67027,1.55222 -0.9525,2.15195 -1.48166,2.8575 -0.77611,1.23472 -1.05834,1.65806 -1.19945,2.04611 -0.52916,0.77611 -1.19944,1.62278 -1.62278,2.29306 -0.77611,0.84667 -9.24277,12.94694 -9.70139,15.80444 -0.52916,0.98778 -0.88194,1.905 -1.30527,2.96334 -0.59973,1.62277 -0.88195,2.32833 -1.05834,3.13972 -0.24694,0.56444 -0.24694,1.34055 -0.24694,2.01083 0,0.45861 0,0.98778 -0.0706,1.37584 -0.17639,0.91722 -0.70555,10.26583 -0.0353,14.32277 l 0.74083,3.28084 c 0.21167,1.12889 0.35278,1.79916 0.38805,1.94027 z"
   id="path33"
   style="stroke-width:0.0352778" />
  <path
   class="fil2"
   d="m 467.18362,300.0375 -0.3175,-0.59972 -0.3175,0.10583 0.28222,-0.14111 -0.59972,0.21167 v 0 l 0.28222,-0.21167 -0.35278,0.10584 0.56444,-0.3175 -0.88194,-0.67028 c -0.0706,-0.70556 -0.21167,-1.44639 -0.35278,-2.11667 l -0.21166,-1.19944 c -0.42334,-1.62278 -0.635,-2.32834 -0.49389,-2.92806 -0.3175,-0.59972 -0.21167,-1.37583 -0.10584,-2.15194 0.3175,-1.76389 0.45861,-2.61056 0.45861,-3.73945 0.10584,-0.81139 0.10584,-1.44639 0.10584,-2.11666 0,-0.52917 0,-1.09361 0,-1.72861 l -0.3175,-0.98778 c -0.14111,-0.635 -0.28222,-1.23472 -0.635,-1.86972 l -0.52917,-1.19945 c -0.3175,-0.635 -0.56444,-1.23472 -0.9525,-1.94028 l -1.55222,-2.68111 1.19944,-0.67028 1.48167,2.68112 c 0.42333,0.74083 0.70556,1.41111 1.02306,2.08138 l 0.52916,1.12889 c 0.38806,0.77611 0.56445,1.44639 0.74084,2.15195 l 0.3175,3.03389 c 0,0.70555 0,1.34055 -0.0706,2.18722 -0.0353,1.16417 -0.14111,2.08139 -0.42333,3.35139 -0.14111,1.16416 -0.21167,1.72861 0,2.36361 -0.0353,0.635 0.14111,1.23472 0.28222,1.76389 l 0.49389,2.18722 c 0.14111,0.74083 0.24694,1.48167 0.35278,2.11667 v 0.70555 l 0.14111,-0.10583 -0.0353,0.0706 0.0353,-0.0353 -0.14111,0.17639 z"
   id="path34"
   style="stroke-width:0.0352778" />
  <path
   class="fil1"
   d="m 479.81306,292.94667 c -1.79917,-2.71639 -3.63361,-7.97278 -3.66889,-8.07861 l -3.63361,-6.24417 c -2.18722,-3.13972 -3.88056,-3.13972 -5.08,-3.175 -2.57528,-0.17639 -3.73944,-0.67028 -5.715,-0.81139 -2.01083,-0.91722 -0.49389,-4.51555 -0.56444,-4.58611 2.04611,-8.18444 10.68916,-7.37305 11.00666,-7.19667 3.98639,1.30528 4.445,1.76389 3.81,4.26862 -1.02305,2.71639 -1.5875,3.66889 -1.51694,5.3975 0.21166,3.24555 4.16278,8.04333 4.23333,8.11389 0.0353,0.14111 2.61056,2.2225 2.61056,2.2225 1.19944,1.02305 2.78694,1.19944 4.445,3.24555 1.44639,2.18722 1.65805,3.10445 0.45861,5.29167 -1.51695,2.8575 -4.79778,3.70416 -6.38528,1.55222 z"
   id="path35"
   style="stroke-width:0.0352778" />
  <path
   class="fil2"
   d="m 471.52278,263.48972 c -3.28083,0 -8.255,0.88195 -9.73666,6.73806 -0.635,2.29306 -0.56445,3.45722 0.21166,3.77472 0.70556,0.0353 1.44639,0.17639 2.25778,0.35278 0.88194,0.14111 1.83444,0.3175 3.21028,0.42333 1.30528,0.0353 3.21028,0.0706 5.57389,3.45723 l 3.66889,6.27944 c 0.70555,1.83445 2.18722,5.82083 3.66888,8.07861 1.16417,1.5875 3.98639,0.77611 5.25639,-1.55222 1.02306,-1.83444 0.9525,-2.43417 -0.42333,-4.58611 -0.9525,-1.09361 -1.86972,-1.62278 -2.78694,-2.08139 -0.56445,-0.3175 -1.05834,-0.56444 -1.5875,-1.02306 -2.64584,-2.15194 -2.64584,-2.2225 -2.75167,-2.36361 -1.55222,-1.97555 -4.1275,-5.67972 -4.30389,-8.43139 -0.0353,-1.51694 0.3175,-2.46944 0.9525,-4.1275 l 0.59972,-1.55222 c 0.45861,-1.83444 0.56445,-2.08139 -3.35139,-3.38667 -0.14111,0 -0.3175,0 -0.45861,0 z m 10.65389,31.32667 c -1.16417,0 -2.18722,-0.49389 -2.89278,-1.44639 -1.5875,-2.43416 -3.13972,-6.52639 -3.63361,-7.86694 l -3.73944,-6.56167 c -1.94028,-2.78694 -3.35139,-2.82222 -4.48028,-2.82222 -1.48167,-0.10583 -2.50472,-0.28222 -3.45722,-0.49389 -0.74084,-0.14111 -1.44639,-0.24694 -2.29306,-0.35278 -2.43416,-1.02305 -1.51694,-4.1275 -1.23472,-5.15055 1.86972,-7.47889 8.50194,-8.04334 10.4775,-8.04334 0.28222,0 1.23472,0.0353 1.55222,0.17639 3.77472,1.23472 4.93889,1.905 4.1275,5.04472 l -0.59972,1.5875 c -0.635,1.55223 -0.91722,2.39889 -0.88194,3.59834 0.10583,1.76389 1.55222,4.55083 3.98638,7.65528 0.3175,0.35277 2.61056,2.18722 2.61056,2.18722 0.38806,0.3175 0.84667,0.59972 1.34056,0.88194 0.9525,0.49389 2.08139,1.09361 3.21027,2.46945 1.5875,2.36361 1.83445,3.59833 0.52917,5.99722 -1.02305,1.905 -2.82222,3.13972 -4.62139,3.13972 z"
   id="path36"
   style="stroke-width:0.0352778" />
  <path
   class="fil1"
   d="m 276.57778,216.88778 c 0.35278,0.35278 4.445,2.8575 4.51556,2.71639 0.10583,-0.17639 10.75972,-2.61056 10.72444,-2.46945 -0.0706,0.14112 -5.99722,7.16139 -5.715,7.33778 0.24695,0.10584 6.17361,7.19667 6.31472,7.26722 0.14111,0.0706 -11.21833,-0.91722 -11.21833,-0.91722 l -7.47889,6.0325 -1.69333,-7.86694 c 0,0 -9.41917,-3.31611 -9.56028,-3.38667 v 0 c 0.10583,-0.14111 8.07861,-2.78694 8.07861,-2.78694 l 2.43417,-6.38528 v 0 0 c 0.21166,0.0353 3.21028,0.59972 3.59833,0.45861 z"
   id="path37"
   style="stroke-width:0.0352778" />
  <path
   class="fil2"
   d="m 264.37167,225.56611 c 2.75167,0.98778 7.86694,2.82223 7.86694,2.82223 l 1.86973,7.3025 6.6675,-5.3975 c 0.42333,-0.14112 6.985,0.42333 10.08944,0.67027 -0.35278,-0.35277 -0.77611,-0.88194 -1.30528,-1.51694 -1.62277,-1.94028 -3.56305,-4.19806 -3.88055,-4.48028 -0.3175,-0.84667 -0.38806,-0.98778 4.445,-6.84389 -2.82222,0.59972 -8.21972,1.905 -8.74889,2.08139 -0.56445,0 -5.08,-2.64583 -5.29167,-2.8575 -0.56444,0.24695 -3.24555,-0.28222 -3.21028,-0.28222 l -1.72861,5.99722 c -0.28222,0.28222 -4.40972,1.69333 -6.77333,2.50472 z m 8.92528,12.48834 -1.905,-8.85473 c -0.14111,0.0353 -9.06639,-2.92805 -9.2075,-2.99861 -0.3175,-1.19944 -0.3175,-1.19944 8.14916,-4.02166 l 2.04612,-5.99723 c 0.74083,-0.38805 3.175,0.0353 3.98638,0.0353 1.05834,0.56445 4.40973,2.57528 4.86834,2.75167 -0.3175,-0.3175 10.4775,-2.50472 10.54805,-2.50472 h 1.12889 l -0.52916,0.98777 c 0,0.0353 -0.38806,0.52917 -0.9525,1.19945 -1.09362,1.34055 -3.88056,4.65667 -4.58612,5.715 0.35278,0.28222 1.30528,1.34055 3.73945,4.23333 1.12889,1.34056 2.11667,2.46945 2.29305,2.68111 l -0.49388,1.16417 c -0.52917,0 -11.21834,-0.98778 -11.21834,-0.98778 z"
   id="path38"
   style="stroke-width:0.0352778" />
  <path
   class="fil3"
   d="m 414.09056,234.27972 c 0.0353,-6.63222 -12.45306,-38.55861 -14.605,-43.14472 -3.98639,-5.00944 -8.21972,-12.91166 -10.01889,-19.72028 -1.19944,-6.91444 -4.86833,-12.31194 -10.05417,-14.14639 -5.99722,-3.21027 -11.85333,-1.94027 -17.49777,-1.44638 -2.75167,0.59972 -5.15056,2.08138 -6.49112,4.30388 -3.03388,4.33917 -4.69194,3.98639 -6.80861,5.89139 -17.32139,2.68112 -33.72555,11.64167 -46.17861,17.74473 -6.59694,4.55083 -12.20611,7.23194 -14.81666,7.76111 -7.05556,0.0706 -12.17084,-3.28084 -14.605,-5.04472 -7.97278,-7.26723 -15.94556,-14.49917 -23.91834,-21.76639 -6.91444,-5.18584 -8.64305,2.29305 -7.3025,3.42194 2.29306,4.97417 -2.68111,7.97278 16.26306,25.89389 2.39889,4.86833 4.79777,9.80722 7.19666,14.74611 0,0 -0.38805,4.02167 -0.0705,4.16278 3.4925,8.255 8.99583,6.24417 11.57111,3.91583 1.86972,-1.69333 3.77472,-3.42194 5.64444,-5.15055 0,0 11.14778,-3.52778 11.32417,-3.88056 11.99445,1.79917 42.8625,-4.09222 47.9425,-6.49111 4.58611,-2.57528 4.90361,-0.38806 8.85472,-3.63361 3.31611,-2.18722 1.48167,-0.42333 7.65528,-6.06778 1.86972,-1.62278 3.35139,1.02306 3.70417,2.8575 0.35278,17.42722 2.96333,32.45556 4.55083,49.81222 0.10583,0.91723 0.21167,1.79917 0.3175,2.71639 9.73667,3.06917 19.43806,6.13834 29.17472,9.2075 6.31473,-5.89139 12.62945,-11.81805 18.97945,-17.74472 -0.21167,-1.55222 -0.52917,-2.78694 -0.81139,-4.19806 z"
   id="path39"
   style="stroke-width:0.0352778" />
  <path
   class="fil2"
   d="m 359.33945,190.46472 c 1.79916,0 2.92805,2.32834 3.21028,3.91584 0.21166,11.57111 1.44638,21.9075 2.71638,32.80833 0.67028,5.53861 1.30528,11.14778 1.86973,17.03917 l 0.28222,2.71639 28.32806,8.50194 18.69722,-17.4625 c -0.35278,-0.42333 -0.52917,-1.27 -0.70556,-2.15194 l -0.28222,-1.44639 c 0,-6.56167 -12.31194,-38.1 -14.56972,-42.96834 -4.26861,-5.29166 -8.32556,-13.37027 -10.08945,-19.82611 -1.16416,-6.87916 -4.7625,-11.99444 -9.63083,-13.68778 -4.23333,-2.25777 -9.48972,-2.25777 -14.74611,-1.65805 l -2.46945,0.24694 c -2.61055,0.56445 -4.72722,1.97556 -5.96194,3.95111 -2.11667,3.03389 -3.63361,3.95112 -4.97417,4.72723 -0.635,0.38805 -1.27,0.74083 -1.94028,1.30528 -15.5575,2.54 -30.12722,9.80722 -41.83944,15.62805 l -4.51556,2.25778 c -6.63222,4.58611 -12.31194,7.26722 -14.95777,7.83167 -0.0353,0 -0.0353,0 -0.0706,0 -5.3975,0 -10.26583,-1.69334 -15.06361,-5.18584 l -23.98889,-21.80166 c -3.4925,-2.57528 -5.89139,-0.91723 -6.35,0.28222 -0.38806,1.09361 -0.21167,2.01083 -0.0706,2.15194 0.77612,1.48167 0.91723,2.68111 1.05834,3.91584 0.45861,3.63361 1.05833,8.5725 15.24,21.94277 l 7.33778,14.95778 c -0.0706,1.94028 -0.17639,3.84528 -0.0706,4.19806 1.55222,3.66889 3.63361,5.57389 6.10306,5.57389 2.08139,0 3.81,-1.30528 4.445,-1.86973 l 5.60916,-5.11527 c 4.23334,-1.41112 10.795,-3.56306 11.39473,-3.91584 2.01083,0.0706 3.84527,0.17639 5.85611,0.17639 13.89944,0 37.71194,-4.65667 42.19222,-6.80861 2.15194,-1.19944 3.42194,-1.37583 4.55083,-1.55222 1.19945,-0.17639 2.15195,-0.3175 4.16278,-1.94028 l 1.83444,-1.19944 c 1.09362,-0.635 1.23473,-0.70556 5.75028,-4.86834 0.56445,-0.42333 1.09361,-0.67028 1.65806,-0.67028 z m 36.75944,66.49862 -29.56278,-9.31334 -0.74083,-3.24555 c -0.56444,-5.89139 -1.19944,-11.53584 -1.83444,-17.03917 -1.30528,-11.00667 -2.50473,-21.30778 -2.75167,-32.87889 -0.24694,-1.19944 -1.05833,-2.68111 -1.86972,-2.68111 -5.36222,4.58611 -5.50334,4.65667 -6.70278,5.3975 l -1.72861,1.05833 c -2.25778,1.79917 -3.4925,2.04611 -4.7625,2.2225 -1.05833,0.14111 -2.15195,0.3175 -4.16278,1.41111 -5.25639,2.50473 -36.01861,8.36084 -48.18944,6.63223 -0.0706,0.14111 -1.905,0.88194 -11.18306,3.81 l -5.3975,4.97416 c -0.74083,0.67028 -2.78694,2.25778 -5.32694,2.25778 -2.11667,0 -5.11528,-1.09361 -7.3025,-6.35 -0.0706,0.17639 -0.42334,-0.0353 0,-4.55083 l -7.12612,-14.39334 c -14.39333,-13.51138 -15.02833,-18.7325 -15.48694,-22.5425 -0.14111,-1.16416 -0.28222,-2.18722 -0.81139,-3.31611 -0.635,-0.49389 -0.59972,-2.08139 -0.10583,-3.35139 1.16416,-3.21027 4.58611,-3.77472 8.43139,-0.88194 l 23.95361,21.80167 c 4.55083,3.28083 9.17222,4.90361 14.07583,4.90361 2.46945,-0.52917 7.9375,-3.13972 14.53445,-7.69056 l 4.58611,-2.25778 c 11.81805,-5.89138 26.49361,-13.19388 41.91,-15.59277 0.38805,-0.52917 1.09361,-0.88195 1.76389,-1.34056 1.30527,-0.74083 2.64583,-1.51694 4.58611,-4.26861 1.37583,-2.29306 3.81,-3.91583 6.87916,-4.55083 l 2.50473,-0.28223 c 5.53861,-0.59972 11.07722,-0.56444 15.45166,1.79917 5.22112,1.79917 9.13695,7.3025 10.37167,14.56972 1.69333,6.31473 5.67972,14.14639 9.91306,19.47334 1.905,4.02166 14.78139,36.5125 14.74611,43.53277 l 0.28222,1.27 c 0.17639,0.91723 0.35278,1.83445 0.49389,2.8575 z"
   id="path40"
   style="stroke-width:0.0352778" />
  <path
   class="fil1"
   d="m 263.87778,179.35222 c 0.24694,0.21167 -4.30389,15.02834 -4.30389,15.02834 0,0 -4.19805,-4.16278 -4.16278,-4.23334 l 2.96334,-15.5575 z"
   id="path41"
   style="stroke-width:0.0352778" />
  <path
   class="fil2"
   d="m 340.11306,192.61667 -1.34056,-0.24695 c 0.91723,-5.00944 -0.38805,-14.99305 -6.13833,-21.37833 l 0.98778,-0.88194 c 5.50333,6.06777 7.62,16.22777 6.49111,22.50722 z"
   id="path42"
   style="stroke-width:0.0352778" />
  <path
   class="fil2"
   d="m 255.16417,190.57056 -1.30528,-0.3175 c 0.28222,-1.12889 0.49389,-2.18722 0.56445,-3.35139 l 0.91722,-3.73945 c 0.14111,-1.12888 0.38805,-2.39888 0.67028,-3.63361 0.21166,-0.77611 0.38805,-2.36361 0.52916,-3.63361 l 0.21167,-1.5875 c -0.0353,-0.59972 -0.35278,-1.79916 -0.42333,-2.01083 l 1.19944,-0.56445 c 0.14111,0.28223 0.49389,1.76389 0.56444,2.64584 l -0.21166,1.69333 c -0.14111,1.34056 -0.35278,3.06917 -0.59972,3.81 -0.24695,1.12889 -0.49389,2.36361 -0.635,3.56306 l -0.88195,3.70416 c -0.10583,1.09361 -0.3175,2.2225 -0.59972,3.42195 z m 5.29167,6.94972 -1.27,-0.3175 c 0.3175,-1.30528 0.56444,-2.46944 0.74083,-3.73944 0.28222,-0.98778 0.45861,-1.65806 0.59972,-2.32834 l 0.49389,-1.76389 c 0.21167,-1.27 0.52917,-2.68111 0.84667,-4.02166 0.38805,-1.16417 1.16416,-5.04473 1.44639,-6.42056 l 0.70555,-0.10583 0.59972,0.38805 c -0.28222,1.37584 -1.05833,5.36223 -1.44639,6.49111 -0.35277,1.30528 -0.635,2.64584 -0.88194,3.95112 l -0.45861,1.79916 c -0.17639,0.70556 -0.35278,1.41111 -0.635,2.25778 -0.10583,1.23472 -0.38806,2.50472 -0.74083,3.81 z"
   id="path43"
   style="stroke-width:0.0352778" />
  <path
   class="fil2"
   d="m 312.24361,207.43334 -1.51694,-0.0353 c -0.0353,-0.21167 -0.14111,-0.56445 -0.35278,-1.05834 -0.77611,-0.77611 -1.19944,-4.48027 -0.10583,-6.56166 0.35278,-0.91722 0.98778,-2.36361 1.48167,-3.31611 l 1.83444,-0.14111 c -1.09361,1.65805 -1.72861,3.06916 -2.08139,3.98638 -0.91722,1.79917 -0.42333,4.86834 -0.0353,5.29167 0.38806,0.77611 0.49389,1.23472 0.56445,1.44639 h -0.70556 z"
   id="path44"
   style="stroke-width:0.0352778" />
  <path
   class="fil2"
   d="m 262.85472,201.85945 -1.16416,-0.67028 c 0.3175,-0.635 0.59972,-1.02306 0.88194,-1.44639 l 0.67028,-1.02306 c 0.3175,-0.635 0.67028,-1.16416 1.05833,-1.72861 0.28223,-0.42333 0.56445,-0.84666 0.84667,-1.34055 0.35278,-0.49389 0.67028,-1.02306 0.98778,-1.55222 0.28222,-0.56445 0.59972,-1.09362 0.9525,-1.55223 0.21166,-0.42333 0.56444,-0.91722 0.88194,-1.41111 0.3175,-0.42333 0.635,-0.84666 0.84667,-1.27 0.24694,-0.45861 0.56444,-0.91722 0.84667,-1.41111 0.3175,-0.42333 0.59972,-0.91722 0.88194,-1.44639 l 0.52917,-0.67028 -0.14111,-0.10583 0.14111,0.10583 0.77611,-0.42333 0.38805,0.74083 -0.10583,0.17639 c -0.70555,1.37584 -1.02305,1.86973 -1.34055,2.36361 -0.28223,0.42334 -0.56445,0.88195 -0.77612,1.27 -0.28222,0.49389 -0.59972,0.98778 -0.9525,1.48167 -0.28222,0.38806 -0.59972,0.84667 -0.84666,1.27 -0.35278,0.52917 -0.67028,1.02306 -0.9525,1.51695 -0.3175,0.59972 -0.635,1.12888 -0.98778,1.62277 -0.24695,0.45861 -0.56445,0.91723 -0.88195,1.37584 -0.35277,0.52916 -0.67027,1.02305 -0.98777,1.65805 z"
   id="path45"
   style="stroke-width:0.0352778" />
  <path
   class="fil2"
   d="m 250.29584,184.71445 -1.30528,-0.28223 c 0.21166,-1.05833 0.35278,-2.01083 0.42333,-3.10444 l 0.74083,-3.45722 c 0.10584,-1.09361 0.3175,-2.2225 0.52917,-3.42195 0.21167,-0.67027 0.3175,-2.15194 0.42333,-3.28083 l 0.14112,-1.55222 c -0.0706,-0.52917 -0.38806,-1.65806 -0.49389,-1.86972 l 1.19944,-0.59973 c 0.17639,0.3175 0.52917,1.69334 0.635,2.50473 l -0.14111,1.5875 c -0.10583,1.27 -0.24694,2.8575 -0.45861,3.56305 -0.21167,1.02306 -0.42333,2.15195 -0.52917,3.28083 l -0.74083,3.45723 c -0.0353,0.9525 -0.21167,2.04611 -0.42333,3.175 z"
   id="path46"
   style="stroke-width:0.0352778" />
  <path
   class="fil2"
   d="m 265.92389,208.35056 -1.02305,-0.84667 c 0.49388,-0.42333 0.70555,-0.59972 0.9525,-1.02305 0.91722,-0.84667 1.44638,-1.34056 2.04611,-2.01084 1.83444,-1.83444 3.63361,-2.68111 4.72722,-2.89278 1.37583,-0.0353 2.29306,-0.14111 3.52778,1.16417 l -0.9525,0.88195 c -0.81139,-0.81139 -1.23472,-0.77612 -1.79917,-0.70556 -1.37583,0.14111 -2.92805,0.88194 -4.51556,2.50472 -0.635,0.67028 -1.16416,1.19945 -2.01083,1.94028 -0.24694,0.38806 -0.59972,0.67028 -0.9525,0.98778 z"
   id="path47"
   style="stroke-width:0.0352778" />
  <path
   class="fil2"
   d="m 374.57945,161.00778 c -0.24695,-0.56445 -0.35278,-1.02306 -0.49389,-1.51695 -0.0706,-0.35277 -0.17639,-0.70555 -0.35278,-1.16416 -0.14111,-0.77611 -0.17639,-1.19945 -0.17639,-1.44639 l 0.21167,-0.10583 -0.38806,-0.17639 0.91723,-0.67028 c 0.56444,1.09361 0.59972,1.44639 0.70555,2.04611 0.17639,0.3175 0.28222,0.77611 0.38806,1.19944 0.10583,0.38806 0.21166,0.84667 0.42333,1.30528 z"
   id="path48"
   style="stroke-width:0.0352778" />
  <path
   class="fil2"
   d="m 359.23361,191.31139 c -0.45861,-0.38805 -1.09361,-1.09361 -1.65805,-1.72861 l -1.23472,-1.48167 c -0.35278,-0.28222 -0.77611,-0.635 -0.9525,-1.41111 -0.21167,-0.24694 -0.38806,-0.74083 -0.56445,-1.23472 -0.10583,-0.35278 -0.24694,-0.74083 -0.42333,-1.12889 l -0.21167,-1.19944 c -0.0706,-0.49389 -0.14111,-0.9525 -0.14111,-1.48167 -0.10583,-0.67028 -0.21167,-1.30528 -0.35278,-1.905 l -0.28222,-1.51694 c -0.42333,-1.19945 -0.67028,-15.76917 -0.24694,-16.47473 l 1.12889,0.67028 -0.56445,-0.3175 0.67028,0.0706 c -0.14111,1.09361 -0.21167,14.18166 0.28222,15.76916 l 0.3175,1.51695 c 0.14111,0.59972 0.28222,1.30528 0.38806,2.11666 0,0.52917 0.0353,0.9525 0.14111,1.34056 0.24694,1.23472 0.42333,1.65806 0.56444,2.11667 0.14111,0.42333 0.28222,0.81139 0.49389,1.12889 l 0.635,0.9525 c 0.28222,0.24694 0.635,0.56444 0.88195,1.12888 0.98777,1.02306 1.5875,1.69334 2.01083,2.04612 z"
   id="path49"
   style="stroke-width:0.0352778" />
  <path
   class="fil2"
   d="m 343.71139,201.295 c -0.28222,-0.0705 -0.59972,-0.28222 -1.16416,-0.67028 -0.45862,-0.28222 -0.9525,-0.59972 -1.44639,-0.84666 -1.12889,-0.67028 -4.05695,-3.95111 -4.16278,-6.56167 l 1.30528,-0.0705 c 0.10583,1.94027 2.61055,4.93888 3.4925,5.46805 0.49389,0.21167 1.05833,0.59972 1.51694,0.88195 z"
   id="path50"
   style="stroke-width:0.0352778" />
  <path
   class="fil2"
   d="m 279.78806,208.5975 c -0.67028,0 -1.37583,-0.10583 -2.01083,-0.38805 -0.9525,-0.42334 -1.5875,-1.09361 -1.94028,-2.04611 -0.10584,-0.56445 -0.28222,-1.02306 -0.42334,-1.48167 -0.24694,-0.81139 -0.45861,-1.51695 -0.49388,-2.18722 -0.28223,-0.81139 -0.21167,-1.86973 -0.14112,-2.78695 0.9525,-5.29166 2.36362,-7.58472 3.03389,-8.71361 l 1.97556,-0.88194 -0.84667,1.5875 c -0.67028,1.09361 -1.94028,3.21027 -2.78694,7.51416 -0.10584,1.41111 -0.17639,2.32834 0.0706,3.10445 0.0353,0.635 0.24695,1.27 0.45861,1.94028 0.17639,0.52916 0.3175,1.02305 0.45862,1.51694 0.17638,0.52917 0.56444,0.98778 1.16416,1.19944 1.55222,0.67028 3.91584,-0.0353 4.69195,-0.38805 0.635,-0.35278 12.27666,-7.16139 13.05277,-7.83167 0.49389,-0.24694 0.81139,-0.45861 1.12889,-0.635 0.52917,-0.3175 1.09361,-0.70555 1.83445,-0.98778 0.45861,-0.35277 1.19944,-0.67027 1.905,-0.91722 l 1.19944,-0.52916 c 1.37584,-0.24695 2.08139,-0.35278 2.99861,-0.28223 1.41111,-0.0353 1.905,-0.0353 2.32834,-0.14111 0.9525,0.0706 2.01083,0.10584 2.78694,0.10584 1.16417,0.21166 15.875,0.635 18.55611,-0.52917 1.09361,-0.10583 2.01084,-0.28222 3.06917,-0.49389 l 1.27,0.38806 -0.17639,-0.635 c 0.74083,-0.14112 1.48167,-0.3175 2.2225,-0.59973 0.59972,-0.14111 1.19944,-0.52916 1.76389,-0.88194 0.45861,-0.28222 0.88194,-0.56445 1.27,-0.70556 0.84667,-0.38805 8.99583,-5.08 11.99444,-7.86694 l 3.73945,-3.77472 1.12889,0.70555 c -0.0706,0.14111 -0.0706,0.14111 -1.09361,1.16417 l -2.8575,2.89278 c -3.06917,2.78694 -11.28889,7.65527 -12.3825,8.11389 -0.3175,0.14111 -0.70556,0.35277 -1.05834,0.59972 -0.70555,0.42333 -1.41111,0.88194 -2.15194,0.98778 -0.67028,0.3175 -1.48167,0.52916 -2.25778,0.635 l -1.12889,0.28222 c -1.12889,0.21166 -2.15194,0.42333 -3.06917,0.49389 -2.89277,1.27 -18.30916,0.70555 -18.97944,0.56444 -0.67028,0.0353 -1.79917,-0.0353 -2.57528,-0.10583 -0.45861,0.14111 -1.5875,0.10583 -2.29305,0.10583 -1.19945,0 -1.62278,0.10583 -2.15195,0.17639 l -1.62278,0.52917 c -0.635,0.24694 -1.30527,0.56444 -1.83444,0.88194 -0.74083,0.3175 -1.27,0.635 -1.69333,0.91722 -0.38806,0.24695 -0.77611,0.49389 -1.16417,0.635 -0.84667,0.77611 -13.08806,7.86695 -13.19389,7.9375 -0.10583,0.0353 -1.86972,0.81139 -3.77472,0.81139 z"
   id="path51"
   style="stroke-width:0.0352778" />
  <path
   class="fil2"
   d="m 370.48723,188.87722 -1.19945,-0.635 1.41111,-2.71638 c 0.38806,-0.74084 0.81139,-1.44639 1.23472,-2.11667 l 0.59973,-0.91722 c 0.42333,-0.74084 0.88194,-1.30528 1.37583,-1.79917 l 2.36361,-1.94028 c 0.56445,-0.35278 1.12889,-0.74083 1.86972,-1.12889 0.98778,-0.635 1.83445,-0.98777 3.03389,-1.48166 1.05834,-0.52917 1.55223,-0.74084 1.97556,-1.30528 0.56444,-0.3175 0.98778,-0.77611 1.37583,-1.23472 l 1.51695,-1.5875 c 0.52916,-0.45861 1.09361,-1.02306 1.5875,-1.44639 l 0.56444,-0.35278 -0.14111,-0.0706 h 0.14111 l -0.10583,-0.0705 0.21166,0.0705 0.84667,-0.52916 -0.35278,0.56444 0.56445,0.38806 -0.14111,0.24694 -0.56445,-0.3175 -0.0706,1.02306 c -0.56445,0.45861 -1.09361,0.98778 -1.5875,1.44639 l -0.88195,0.84666 c -1.09361,1.23473 -1.5875,1.83445 -2.15194,2.04611 -0.35278,0.59973 -1.09361,0.9525 -1.79917,1.27 -1.62278,0.70556 -2.39889,1.05834 -3.35139,1.62278 -0.74083,0.42334 -1.27,0.74084 -1.83444,1.12889 l -2.08139,1.69333 c -0.45861,0.49389 -0.88195,0.9525 -1.19945,1.5875 l -0.635,0.98778 c -0.38805,0.635 -0.77611,1.27 -1.16416,2.01084 z"
   id="path52"
   style="stroke-width:0.0352778" />
  <path
   class="fil2"
   d="m 378.63639,245.4275 -0.56444,-0.21166 0.24694,-0.84667 c 0.24695,-1.44639 0.3175,-2.29306 0.42334,-3.13972 0.0705,-0.70556 0.17639,-1.44639 0.17639,-2.04611 0.21166,-1.41112 0.42333,-2.82223 0.45861,-4.16278 l -0.0353,-1.19945 c -0.0706,-1.12889 -0.10583,-2.18722 -0.28222,-3.31611 0,-0.88194 -0.0706,-1.65805 -0.10584,-2.43416 l -0.14111,-1.94028 c 0,-1.37584 -0.10583,-2.50472 -0.42333,-3.81 -0.0353,-1.12889 -0.0706,-2.43417 -0.3175,-3.63361 0.10583,-0.98778 -0.10583,-1.69334 -0.28222,-2.39889 l -1.83445,-7.26722 c -0.0706,-0.84667 -0.35278,-1.72862 -0.59972,-2.50473 l -0.38806,-1.27 c -0.38805,-0.81139 -0.74083,-1.86972 -0.88194,-2.71639 -0.49389,-1.02305 -0.88195,-1.905 -1.02306,-2.75166 -0.24694,-0.35278 -0.56444,-1.16417 -0.91722,-2.01084 -0.42333,-1.09361 -0.59972,-1.55222 -0.74083,-2.01083 -0.17639,-0.49389 -0.3175,-1.02305 -0.52917,-1.41111 -0.70555,-1.72861 -1.02305,-2.39889 -1.19944,-3.21028 l 0.56444,-1.5875 0.74083,1.30528 c 0.14112,0.67028 0.42334,1.30528 0.70556,1.97556 0.59972,1.41111 0.77611,1.94027 0.98778,2.50472 l 0.42333,1.23472 c 0.59972,1.48167 0.91722,2.25778 1.19945,2.78694 0.21166,0.91723 0.56444,1.65806 0.84666,2.32834 0.38806,1.37583 0.70556,2.29305 1.05834,3.10444 l 0.38805,1.30528 c 0.28222,0.84667 0.59972,1.83444 0.70556,2.64583 l 1.72861,7.02028 c 0.24694,0.91722 0.49389,1.86972 0.35278,2.8575 0.24694,1.05833 0.3175,2.46945 0.35277,3.52778 0.28223,1.27 0.38806,2.50472 0.42334,3.95111 l 0.10583,1.905 c 0.0706,0.77611 0.10583,1.62278 0.14111,2.39889 0.17639,1.05833 0.21167,2.18722 0.24695,3.35139 l 0.0706,1.23472 c -0.0353,1.44639 -0.24694,2.96333 -0.49389,4.33917 0,0.52916 -0.0705,1.30527 -0.14111,2.08139 -0.10583,0.74083 -0.21166,1.5875 -0.21166,2.29305 l -0.14112,0.98778 h -0.0706 0.0706 l -0.3175,0.56444 z"
   id="path53"
   style="stroke-width:0.0352778" />
  <path
   class="fil1"
   d="m 376.30806,162.91278 c -1.34056,2.99861 -4.72722,7.40833 -4.79778,7.47889 L 368.3,176.8475 c -1.41111,3.56306 -0.52916,4.97417 0.10584,5.99722 1.27,2.29306 1.48166,3.4925 2.46944,5.25639 0.35278,2.11667 -3.4925,2.8575 -3.52778,2.96334 -7.97277,2.75166 -12.02972,-4.86834 -12.065,-5.29167 -1.09361,-3.98639 -0.91722,-4.65667 1.51695,-5.50333 2.78694,-0.635 3.91583,-0.67028 5.29166,-1.69334 2.64584,-1.94027 4.48028,-7.90222 4.55084,-8.00805 0.0353,-0.0706 0.38805,-3.35139 0.38805,-3.35139 0.21167,-1.5875 -0.52916,-3.03389 0.28223,-5.53861 1.02305,-2.39889 1.65805,-3.06917 4.16277,-3.24556 3.21028,-0.28222 5.75028,1.97556 4.83306,4.48028 z"
   id="path54"
   style="stroke-width:0.0352778" />
  <path
   class="fil2"
   d="m 372.03945,159.0675 c -2.64584,0.17639 -3.10445,0.56445 -4.1275,2.89278 -0.42334,1.37583 -0.35278,2.43417 -0.24695,3.45722 0.0706,0.635 0.10584,1.23472 0.0353,1.86972 -0.35278,3.42195 -0.42333,3.4925 -0.49389,3.63362 -0.81139,2.39888 -2.50472,6.52638 -4.69194,8.21972 -1.19945,0.88194 -2.25778,1.09361 -3.98639,1.44639 l -1.5875,0.35277 c -1.79917,0.635 -2.08139,0.70556 -1.02306,4.69195 0.0353,0.0353 2.61056,5.36222 8.04334,5.36222 1.02305,0 2.08139,-0.21167 3.175,-0.56444 2.29305,-0.70556 3.21027,-1.41111 3.06916,-2.25778 -0.35277,-0.59972 -0.67027,-1.27 -0.98777,-2.04611 -0.35278,-0.84667 -0.70556,-1.72861 -1.37584,-2.96334 -0.70555,-1.09361 -1.69333,-2.75166 -0.17639,-6.52638 l 3.28084,-6.49112 c 2.50472,-3.45722 4.02166,-5.85611 4.72722,-7.51416 0.3175,-0.88195 0.0353,-1.62278 -0.28222,-2.01084 -0.635,-0.98777 -1.94028,-1.55222 -3.35139,-1.55222 z m -8.07861,33.23167 c -5.99723,0 -9.24278,-5.67972 -9.31334,-6.45583 -1.05833,-3.81 -1.16416,-5.15056 1.94028,-6.17362 l 1.69333,-0.38805 c 1.62278,-0.35278 2.46945,-0.52917 3.42195,-1.23472 1.41111,-1.02306 2.96333,-3.77473 4.23333,-7.51417 0.14111,-0.45861 0.42334,-3.38667 0.42334,-3.38667 0.0705,-0.52916 0.0353,-1.05833 -0.0353,-1.62277 -0.10584,-1.09362 -0.21167,-2.32834 0.3175,-4.02167 1.19944,-2.68111 1.97555,-3.52778 4.7625,-3.73945 2.43416,0.0353 4.19805,0.77611 5.08,2.04611 0.70555,1.02306 0.84667,2.18723 0.42333,3.35139 -0.77611,1.76389 -2.29305,4.23334 -4.62139,7.33778 l -3.38666,6.6675 c -1.27,3.13972 -0.52917,4.33917 0.0353,5.29167 0.77611,1.34055 1.16417,2.29305 1.55223,3.175 0.28222,0.70555 0.52916,1.37583 0.9525,2.11667 0.49388,2.61055 -2.61056,3.56305 -3.63362,3.84527 -1.48166,0.52917 -2.68111,0.74084 -3.84527,0.74084 z"
   id="path55"
   style="stroke-width:0.0352778" />
  <path
   class="fil1"
   d="m 365.83056,240.70028 c -1.19945,-1.09361 22.64833,8.64306 25.92917,8.78417 4.51555,-1.65806 23.00111,-17.32139 23.00111,-17.32139 0.17639,1.51694 0.81139,5.50333 2.61055,6.35 -7.12611,5.78555 -13.6525,11.39472 -20.77861,17.18028 0.52917,9.2075 -1.16416,18.94416 3.4925,29.24527 l -1.76389,0.0353 h -0.10583 -0.14111 -0.10583 -3.21028 c -0.14111,-0.0353 -0.24695,-0.0353 -0.24695,-0.0353 -4.93889,-4.93888 -6.6675,-28.68083 -6.6675,-28.68083 -7.86694,-3.4925 -15.69861,-6.91444 -23.53028,-10.40694 1.12889,-0.74084 2.01084,-2.99862 1.51695,-5.15056 z"
   id="path56"
   style="stroke-width:0.0352778" />
  <path
   class="fil2"
   d="m 365.47778,245.63917 22.61306,9.98361 c 0.42333,0.81139 2.18722,24.05945 6.87916,28.78667 -0.10583,-0.10584 0.3175,-0.10584 0.98778,-0.10584 l 3.13972,-0.0353 c -3.13972,-7.47889 -3.10444,-14.49917 -3.06916,-21.41362 0.0353,-2.39888 0.0353,-4.7625 -0.10584,-7.12611 3.88056,-3.4925 7.33778,-6.38527 10.795,-9.27805 3.13973,-2.61056 6.27945,-5.25639 9.56028,-7.90222 -1.09361,-1.09362 -1.69333,-3.175 -2.01083,-5.08 -3.81,3.21027 -18.23861,15.13416 -22.26028,16.61583 -2.08139,-0.0353 -8.89,-2.50472 -17.63889,-5.78556 -3.175,-1.16416 -6.42055,-2.36361 -7.86694,-2.82222 0.17639,1.72861 -0.3175,3.24556 -1.02306,4.16278 z m 30.48,39.96972 c -1.65805,0 -2.11666,0 -2.11666,-0.67028 -4.83306,-4.58611 -6.63223,-27.6225 -6.6675,-28.64555 l -24.27112,-10.33639 1.02306,-0.635 c 0.84667,-0.56445 1.72861,-2.50472 1.27,-4.48028 l 0.635,-0.88194 c 0.59972,0 2.78694,0.81139 8.99583,3.10444 6.42056,2.36361 15.20473,5.64445 16.96861,5.715 4.05695,-1.51694 22.33084,-16.93333 22.50723,-17.10972 l 0.9525,-0.81139 0.14111,1.23472 c 0.38805,3.13972 1.27,5.36222 2.25778,5.82084 l 0.9525,0.42333 -0.81139,0.70555 c -3.4925,2.82223 -6.87917,5.67973 -10.23056,8.46667 -3.45722,2.8575 -6.91444,5.75028 -10.54805,8.71361 0.38805,1.79917 0.35277,4.19806 0.35277,6.63222 -0.0353,7.02028 -0.10583,14.25223 3.31611,21.76639 l 0.45862,0.9525 z"
   id="path57"
   style="stroke-width:0.0352778" />
  <path
   class="fil2"
   d="m 343.88778,305.99945 -1.27,-0.70556 c 0.91722,-1.16416 2.29306,-2.92805 2.92806,-3.81 0.24694,-0.42333 0.59972,-0.88194 0.9525,-1.34055 l 0.74083,-1.05834 c 0.88194,-1.27 1.37583,-1.97555 1.69333,-2.54 l 0.59973,0.28223 0.10583,-1.19945 C 360.9975,280.67 373.90917,271.95639 382.69334,267.22917 l 1.37583,-0.67028 c 2.25778,-1.16417 3.42195,-1.76389 4.05695,-2.04611 l 0.38805,0.52917 -0.56444,0.3175 c 0.49389,0.42333 -1.69334,1.55222 -3.28084,2.36361 l -1.34055,0.74083 c -8.71361,4.62139 -21.41361,13.26445 -32.66723,27.97528 l -0.70555,0.88194 c -0.17639,0.45862 -0.70556,1.23473 -1.27,2.04612 l -1.12889,1.5875 c -0.3175,0.42333 -0.635,0.84666 -0.88194,1.23472 -0.67028,0.91722 -1.97556,2.64583 -2.78695,3.4925 l 0.21167,0.14111 -0.21167,-0.10583 c -0.0706,0.0353 -0.10583,0.10583 -0.10583,0.14111 z"
   id="path58"
   style="stroke-width:0.0352778" />
  <path
   class="fil2"
   d="m 460.12806,273.72028 c -1.41111,-0.28222 -3.63361,-0.67028 -4.72722,-0.84667 -0.45861,-0.0353 -0.98778,-0.10583 -1.51695,-0.21166 -0.45861,-0.10584 -0.9525,-0.17639 -1.37583,-0.21167 -1.51694,-0.17639 -2.39889,-0.28222 -3.03389,-0.28222 l -0.0353,-0.70556 -1.09361,0.45861 c -18.48555,-3.28083 -32.17333,-10.72444 -40.35778,-16.43944 l -1.27,-0.91722 c -2.08138,-1.44639 -3.175,-2.18723 -3.66888,-2.68111 l 0.28222,-0.56445 0.52916,0.35278 c 0.21167,-0.59972 2.18723,0.77611 3.59834,1.79917 l 1.27,0.91722 c 8.11389,5.60916 21.59,12.98222 39.82861,16.22778 l 1.16417,0.21166 c 0.42333,0 1.37583,0.10584 2.29305,0.21167 1.09361,0.10583 1.5875,0.21167 2.11667,0.28222 0.45861,0.10584 0.9525,0.21167 1.41111,0.24695 1.09361,0.14111 3.21028,0.56444 4.37444,0.81139 l 0.0353,-0.21167 v 0.24694 c 0.0706,0.0353 0.0706,0.0353 0.14111,0.0353 l 0.10584,-0.17639 z"
   id="path59"
   style="stroke-width:0.0352778" />
 </g>
</svg>
