<svg width="30" height="20" xmlns="http://www.w3.org/2000/svg" xmlns:xlink="http://www.w3.org/1999/xlink"><symbol id="hin" width="30" height="20" fill="#07038D" viewBox="-45 -30 90 60"><path d="m-45-30h90v60h-90z" fill="#FFF"/><path d="m-45-30h90v20h-90z" fill="#FF6820"/><path d="m-45 10h90v20h-90z" fill="#046A38"/><circle r="9.25"/><circle r="8" fill="#FFF"/><circle r="1.6"/><g id="d"><g id="c"><g id="b"><g id="a"><path d="m0-8 .3 4.81409L0-.80235l-.3-2.38356z"/><circle transform="rotate(7.5)" cy="-8" r=".35"/></g><use transform="scale(-1)" xlink:href="#a"/></g><use transform="rotate(15)" xlink:href="#b"/></g><use transform="rotate(30)" xlink:href="#c"/></g><use transform="rotate(60)" xlink:href="#d"/><use transform="rotate(120)" xlink:href="#d"/></symbol><use x="-5.5" href="#hin"/><path d="M19 0h11v20H19z" fill="#fff"/><path transform="matrix(0 -.2.2 0 0 0)" d="m-69.15 135.6v-13.5h-12.19v5h5.64v6.1q-.26.3-.77.6-.5.3-1.15.5-.66.2-1.41.3-.74.1-1.52.1-1.26 0-2.27-.4-.98-.4-1.73-1.1-.44-.4-.82-1-.35-.6-.63-1.3-.44-1.1-.7-2.7-.24-1.5-.24-3.3v-4.7q0-1.5.17-2.8.18-1.2.51-2.2.42-1.4 1.06-2.4.65-.9 1.45-1.6.61-.4 1.31-.6.7-.3 1.45-.3 1.38 0 2.36.4 1.01.4 1.66 1.1.59.6.92 1.6.35 1 .51 2.2h6.41q-.25-2.5-1.1-4.4-.81-2-2.29-3.4-1.47-1.3-3.63-2.1-2.13-.7-5.01-.7-1.87 0-3.55.5-1.69.5-3.12 1.6-1.21.8-2.24 2.1-1.01 1.2-1.78 2.7-.82 1.7-1.26 3.8-.45 2.1-.45 4.5v4.7q0 2.5.45 4.7.46 2.2 1.35 3.9.77 1.6 1.87 2.8 1.13 1.2 2.49 2 1.38.9 3.01 1.3 1.67.4 3.54.4 2.15 0 4.02-.4 1.88-.4 3.4-1 1.5-.7 2.6-1.4 1.1-.8 1.73-1.6zm31.61-10.6v-4.9q0-2.4-.44-4.4-.42-2.1-1.24-3.8-.75-1.5-1.8-2.8-1.03-1.3-2.42-2.1-1.38-1-3.11-1.5-1.71-.5-3.67-.5-1.94 0-3.61.5-1.66.5-2.99 1.4-1.36.9-2.41 2.3-1.03 1.3-1.76 2.9-.75 1.7-1.15 3.7-.37 2-.37 4.3v4.9q0 2.1.33 4 .35 1.9 1 3.5.73 1.8 1.81 3.2 1.07 1.4 2.43 2.4 1.38.9 3.07 1.4 1.68.5 3.67.5 1.87 0 3.49-.4 1.64-.5 2.99-1.3 1.5-.9 2.67-2.3t1.97-3.1q.75-1.7 1.14-3.7.4-2 .4-4.2zm-6.67-5v5q0 1.3-.14 2.5-.11 1.1-.37 2.1-.33 1.3-.89 2.3-.54 1-1.34 1.6-.63.6-1.45.8-.82.3-1.8.3-1.03 0-1.85-.3-.79-.3-1.43-.8-.67-.7-1.19-1.7-.49-1-.75-2.3-.23-.9-.33-2.1-.1-1.1-.1-2.4v-5q0-1.3.1-2.5.12-1.2.36-2.2.3-1.3.84-2.3.56-1 1.36-1.6.58-.5 1.31-.7.74-.2 1.66-.2.96 0 1.73.2.8.3 1.43.8.79.6 1.38 1.6.58 1 .93 2.2.29 1 .4 2.2.14 1.2.14 2.5zm22.23-14.5h-8.17v34.1h6.04v-10.1l-.28-15.3 4 14.1h3.26l4.47-14.8-.28 16v10.1h6.035v-34.1h-8.165l-3.68 12.8z"/></svg>
