<?xml version="1.0"?>
<svg width="30" height="20" xmlns="http://www.w3.org/2000/svg" xmlns:xlink="http://www.w3.org/1999/xlink"><symbol id="hin" width="30" height="20" fill="#07038D" viewBox="-45 -30 90 60"><path d="m-45-30h90v60h-90z" fill="#FFF"/><path d="m-45-30h90v20h-90z" fill="#FF6820"/><path d="m-45 10h90v20h-90z" fill="#046A38"/><circle r="9.25"/><circle r="8" fill="#FFF"/><circle r="1.6"/><g id="d"><g id="c"><g id="b"><g id="a"><path d="m0-8 .3 4.81409L0-.80235l-.3-2.38356z"/><circle transform="rotate(7.5)" cy="-8" r=".35"/></g><use transform="scale(-1)" xlink:href="#a"/></g><use transform="rotate(15)" xlink:href="#b"/></g><use transform="rotate(30)" xlink:href="#c"/></g><use transform="rotate(60)" xlink:href="#d"/><use transform="rotate(120)" xlink:href="#d"/></symbol><use x="-5.5" href="#hin"/><path d="M19 0h11v20H19z" fill="#fff"/><path transform="matrix(0 -.1.1 0 0 0)" d="m-138.3 271.2-.1-26.9h-24.3v9.8h11.2v12.4q-.5.6-1.5 1.2-1 .5-2.3.9-1.4.4-2.9.6-1.4.3-3 .3-2.5-.1-4.5-.8-2-.8-3.5-2.3-.9-.9-1.6-2-.7-1.2-1.3-2.5-.9-2.4-1.4-5.4-.5-3.1-.5-6.8v-9.3q0-3 .4-5.5.3-2.5 1-4.6.8-2.7 2.1-4.6 1.3-2 2.9-3.2 1.2-.9 2.6-1.4 1.4-.4 2.9-.4 2.8 0 4.7.7 2.1.7 3.4 2.2 1.1 1.3 1.8 3.2t1 4.4h12.8q-.5-4.9-2.2-8.9-1.6-3.9-4.5-6.6-3-2.8-7.3-4.2-4.3-1.5-10-1.5-3.8 0-7.1 1.1-3.4 1-6.3 3-2.4 1.8-4.4 4.2-2.1 2.5-3.6 5.5-1.6 3.4-2.5 7.6t-.9 9.1v9.2q0 5.1.9 9.5.9 4.3 2.7 7.8 1.5 3.1 3.7 5.6 2.3 2.4 5 4.1 2.8 1.6 6 2.5 3.4.9 7.1.9 4.3 0 8-.8 3.8-.8 6.8-2.1t5.2-2.9 3.5-3.1zm61.07-60.2h-13.06v45.1q-0 3.4-.71 5.9-.65 2.5-1.96 4.2-1.22 1.6-3.09 2.5-1.83.8-4.21.8-2.2 0-3.9-.8t-2.8-2.3q-1.3-1.7-2-4.3-.6-2.5-.6-6l-.1-45.1h-13.1l-.1 45.1q0 5.8 1.6 10.2 1.7 4.5 4.6 7.5 3 3.1 7.1 4.7t9.3 1.6q5.47 0 9.73-1.6 4.31-1.6 7.3-4.7 2.95-3.1 4.5-7.5 1.59-4.4 1.59-10.2zm49.28 0v47.2q0 2.4-.75 4.5-.7 2.1-2.01 3.6-1.31 1.4-3.18 2.3t-4.12.9q-2.81 0-4.78-.8-1.96-.7-3.18-2.3-.93-1.2-1.4-3.1-.47-1.8-.47-4.2h-13.2q0 5.3 1.73 9.2 1.69 3.9 4.73 6.5 2.99 2.6 7.21 3.9 4.21 1.4 9.36 1.4 4.87 0 9.08-1.6 4.26-1.6 7.4-4.5 3.13-2.9 4.91-6.9 1.83-4 1.87-8.9v-47.2z"/></svg>
