<?xml version="1.0"?>
<svg width="30" height="20" xmlns="http://www.w3.org/2000/svg" xmlns:xlink="http://www.w3.org/1999/xlink"><symbol id="hin" width="30" height="20" fill="#07038D" viewBox="-45 -30 90 60"><path d="m-45-30h90v60h-90z" fill="#FFF"/><path d="m-45-30h90v20h-90z" fill="#FF6820"/><path d="m-45 10h90v20h-90z" fill="#046A38"/><circle r="9.25"/><circle r="8" fill="#FFF"/><circle r="1.6"/><g id="d"><g id="c"><g id="b"><g id="a"><path d="m0-8 .3 4.81409L0-.80235l-.3-2.38356z"/><circle transform="rotate(7.5)" cy="-8" r=".35"/></g><use transform="scale(-1)" xlink:href="#a"/></g><use transform="rotate(15)" xlink:href="#b"/></g><use transform="rotate(30)" xlink:href="#c"/></g><use transform="rotate(60)" xlink:href="#d"/><use transform="rotate(120)" xlink:href="#d"/></symbol><use x="-5.5" href="#hin"/><path d="M19 0h11v20H19z" fill="#fff"/><path transform="matrix(0 -.2.2 0 0 0)" d="m-69.15 135.6v-13.5h-12.19v5h5.64v6.1q-.26.3-.77.6-.5.3-1.15.5-.66.2-1.41.3-.74.1-1.52.1-1.26 0-2.27-.4-.98-.4-1.73-1.1-.44-.4-.82-1-.35-.6-.63-1.3-.44-1.1-.7-2.7-.24-1.5-.24-3.3v-4.7q0-1.5.17-2.8.18-1.2.51-2.2.42-1.4 1.06-2.4.65-.9 1.45-1.6.61-.4 1.31-.6.7-.3 1.45-.3 1.38 0 2.36.4 1.01.4 1.66 1.1.59.6.92 1.6.35 1 .51 2.2h6.41q-.25-2.5-1.1-4.4-.81-2-2.29-3.4-1.47-1.3-3.63-2.1-2.13-.7-5.01-.7-1.87 0-3.55.5-1.69.5-3.12 1.6-1.21.8-2.24 2.1-1.01 1.2-1.78 2.7-.82 1.7-1.26 3.8-.45 2.1-.45 4.5v4.7q0 2.5.45 4.7.46 2.2 1.35 3.9.77 1.6 1.87 2.8 1.13 1.2 2.49 2 1.38.9 3.01 1.3 1.67.4 3.54.4 2.15 0 4.02-.4 1.88-.4 3.4-1 1.5-.7 2.6-1.4 1.1-.8 1.73-1.6zm30.54-30.1h-6.53v22.6q-0 1.6-.35 2.9-.33 1.3-.98 2.1-.61.8-1.55 1.2-.91.4-2.1.4-1.1 0-1.94-.3-.85-.4-1.43-1.2-.63-.8-.96-2.1-.31-1.3-.33-3v-22.6h-6.58v22.6q0 2.8.79 5.1.82 2.2 2.3 3.7 1.47 1.5 3.53 2.3 2.08.8 4.66.8 2.74 0 4.87-.8 2.15-.8 3.65-2.3 1.47-1.5 2.24-3.8.8-2.2.8-5zm24.64 0v23.6q0 1.2-.38 2.2-.35 1.1-1 1.8-.66.8-1.6 1.2-.93.4-2.06.4-1.4 0-2.38-.3-.99-.4-1.59-1.2-.47-.6-.71-1.5-.23-.9-.23-2.2h-6.6q0 2.7.87 4.7.84 1.9 2.36 3.2 1.5 1.3 3.6 2 2.11.6 4.68.6 2.44 0 4.55-.8 2.12-.8 3.69-2.2 1.571-1.5 2.46-3.5.913-2 .937-4.4l-.02-23.6z"/></svg>
