<svg width="30" height="20" xmlns="http://www.w3.org/2000/svg"><path d="M0 0h30v20H0z" fill="#fff"/><path transform="scale(.1)" d="m97.52 141.2-.07-42.37h-38.43v15.47h17.77l-.1 19.5q-.81.9-2.43 1.8-1.55.8-3.62 1.5-2.06.7-4.42 1-2.36.4-4.8.4-3.98-.1-7.15-1.2-3.1-1.3-5.46-3.7-1.4-1.4-2.58-3.1-1.11-1.9-1.99-4-1.4-3.7-2.22-8.5-.73-4.8-.73-10.6v-14.77q0-4.65.51-8.63.59-3.98 1.63-7.23 1.32-4.2 3.31-7.3 2.07-3.1 4.58-5.01 1.92-1.41 4.13-2.14 2.21-.74 4.57-.74 4.35 0 7.45 1.18 3.17 1.11 5.24 3.39 1.84 2.07 2.87 5.09 1.11 3.03 1.63 6.93h20.24q-.81-7.74-3.47-13.94-2.58-6.19-7.23-10.54-4.64-4.28-11.43-6.57-6.71-2.28-15.79-2.28-5.9 0-11.21 1.62t-9.81 4.79q-3.83 2.81-7.08 6.64-3.17 3.84-5.6 8.63-2.58 5.39-3.99 12.02-1.4 6.57-1.4 14.24v14.62q0 8 1.4 14.9 1.48 6.8 4.28 12.3 2.44 4.9 5.9 8.8 3.54 3.8 7.82 6.5 4.35 2.5 9.52 3.9 5.23 1.4 11.13 1.4 6.79 0 12.69-1.3 5.9-1.2 10.7-3.3 4.72-2 8.18-4.5 3.47-2.5 5.46-4.9zm88.38-94.89h-20.6l-.1 71.19q0 5.2-1.1 9.2-1 4-3.1 6.6-1.9 2.6-4.8 4-2.9 1.2-6.7 1.2-3.4 0-6.1-1.2t-4.5-3.7q-2-2.6-3-6.7-1-4-1.1-9.4v-71.19h-20.8v71.19q0 9 2.5 16.1 2.6 7 7.2 11.8 4.7 4.8 11.1 7.3 6.6 2.5 14.7 2.5 8.7 0 15.4-2.5t11.5-7.4q4.6-4.8 7-11.8 2.6-7 2.6-16zm26.1 107.39h18.7l9-57.97.8-5.46.9 5.46 9.3 57.97h18.8l14.9-107.39h-19.1l-7.3 60.19-.5 4.5-.7-4.4-9-60.29h-14.8l-8.5 59.79-.6 4.5-.5-4.2-7.2-60.09h-19z"/></svg>
