<?xml version="1.0"?>
<svg width="30" height="20" xmlns="http://www.w3.org/2000/svg" xmlns:xlink="http://www.w3.org/1999/xlink"><symbol id="cmn" width="30" height="20"><defs><path id="s" d="m0-1 .58778 1.809-1.5388-1.118h1.9021l-1.5388 1.118z" fill="#ff0"/></defs><rect width="30" height="20" fill="#ee1c25"/><use transform="translate(5,5) scale(3)" xlink:href="#s"/><use transform="translate(10 2) rotate(23.036)" xlink:href="#s"/><use transform="translate(12 4) rotate(45.87)" xlink:href="#s"/><use transform="translate(12 7) rotate(69.945)" xlink:href="#s"/><use transform="translate(10 9) rotate(20.66)" xlink:href="#s"/></symbol><use href="#cmn"/><path d="M19 0h11v20H19z" fill="#fff"/><path transform="matrix(0 -.1.1 0 0 0)" d="m-140.2 279.1v-68.1h-13v27.9h-19.3v-27.9h-13v68.1h13v-29.5h19.3v29.5zm51.08-14.2 3.98 14.2h13.86l-21.91-68.1h-11.91l-22.4 68.1h13.9l4-14.2zm-17.18-11.2 7.12-25.1 6.97 25.1zm66.51-2.6 16.85 28h15.636l-23.776-38 22.933-30.1h-16.103l-16.57 22.9-6.18 8.3v-31.2h-13.2v68.1h13.2v-20.1z"/></svg>
