<svg width="30" height="20" xmlns="http://www.w3.org/2000/svg"><symbol id="Flag_of_Nigeria" preserveAspectRatio="none" viewBox="0 0 6 3"><path d="m0 0h6v3H0z" fill="#008751"/><path d="m2 0h2v3H2z" fill="#fff"/></symbol><use width="19" height="20" href="#Flag_of_Nigeria"/><path d="M19 0h11v20H19z" fill="#fff"/><path transform="matrix(0 -.2.2 0 0 0)" d="m-70.09 139.6v-34.1h-6.5v14h-9.65v-14h-6.53v34.1h6.53v-14.8h9.65v14.8zm25.53-7.2 1.99 7.2h6.93l-10.95-34.1h-5.97l-11.17 34.1h6.93l2.01-7.2zm-8.61-5.5 3.58-12.6 3.49 12.6zm45.82-21.4h-6.53v22.6q-0 1.6-.35 2.9-.33 1.3-.99 2.1-.61.8-1.54 1.2-.91.4-2.11.4-1.1 0-1.94-.3-.84-.4-1.43-1.2-.63-.8-.96-2.1-.3-1.3-.33-3v-22.6h-6.58v22.6q0 2.8.8 5.1.82 2.2 2.29 3.7t3.53 2.3q2.09.8 4.66.8 2.74 0 4.87-.8 2.15-.8 3.65-2.3 1.475-1.5 2.248-3.8.795-2.2.795-5z"/></svg>
