<svg width="30" height="20" xmlns="http://www.w3.org/2000/svg"><symbol id="tgl" width="30" height="20" fill="#fcd116" viewBox="-28 -45 135 90"><path d="m-28-45h180V0L0 44z" fill="#0038a8"/><path d="m0 0h152v45H-28z" fill="#ce1126"/><path d="m49.942 0L-28 45v-90z" fill="#fff"/><circle r="9"/><g id="c"><g id="b"><path id="a" d="m0 0-3.164-15.909.945-.946zl-1.169-17.831L0-19l1.169 1.169zl2.219-16.855.945.946z"/><use transform="scale(-1)" href="#a"/></g><use transform="rotate(90)" href="#b"/></g><use transform="rotate(45)" href="#c"/><path id="d" d="m40.942 0-3.382 1.176-.073 3.579-2.163-2.853-3.427 1.037 2.045-2.939-2.045-2.939 3.427 1.037 2.163-2.853.073 3.579z"/><use transform="rotate(120,-2.019,0)" href="#d"/><use transform="rotate(240,-2.019,0)" href="#d"/></symbol><use href="#tgl"/><path d="M19 0h11v20H19z" fill="#fff"/><path transform="matrix(0 -.2.2 0 0 0)" d="m-70.09 139.6v-34.1h-6.5v14h-9.65v-14h-6.53v34.1h6.53v-14.8h9.65v14.8zm10.23-34.1v5.3h6.48v23.5h-6.48v5.3h19.7v-5.3h-6.65v-23.5h6.65v-5.3zm36.85 28.7v-28.7h-6.6v34.1h22.564v-5.4z"/></svg>
