<?xml version="1.0" encoding="UTF-8" standalone="no"?>
<!-- Created with Inkscape (http://www.inkscape.org/) -->

<svg
   width="7.9375mm"
   height="5.2916698mm"
   viewBox="0 0 7.9375 5.29167"
   version="1.1"
   id="svg1"
   inkscape:version="1.4 (86a8ad7, 2024-10-11)"
   sodipodi:docname="hin.svg"
   xmlns:inkscape="http://www.inkscape.org/namespaces/inkscape"
   xmlns:sodipodi="http://sodipodi.sourceforge.net/DTD/sodipodi-0.dtd"
   xmlns:xlink="http://www.w3.org/1999/xlink"
   xmlns="http://www.w3.org/2000/svg"
   xmlns:svg="http://www.w3.org/2000/svg">
  <sodipodi:namedview
     id="namedview1"
     pagecolor="#ffffff"
     bordercolor="#000000"
     borderopacity="0.25"
     inkscape:showpageshadow="2"
     inkscape:pageopacity="0.0"
     inkscape:pagecheckerboard="0"
     inkscape:deskcolor="#d1d1d1"
     inkscape:document-units="mm"
     inkscape:zoom="0.71891835"
     inkscape:cx="626.63583"
     inkscape:cy="344.96268"
     inkscape:window-width="1904"
     inkscape:window-height="992"
     inkscape:window-x="-26"
     inkscape:window-y="145"
     inkscape:window-maximized="0"
     inkscape:current-layer="layer1" />
  <defs
     id="defs1">
    <radialGradient
       id="n"
       cx="489.07001"
       cy="210.33"
       r="0.345"
       gradientTransform="matrix(0.00861722,0,0,0.0090267,-825.15993,-674.59387)"
       gradientUnits="userSpaceOnUse">
      <stop
         style="stop-color:#fff"
         offset="0"
         id="stop19" />
      <stop
         style="stop-color:#fff;stop-opacity:0"
         offset="1"
         id="stop21" />
    </radialGradient>
    <radialGradient
       id="m"
       cx="477.85999"
       cy="215.27"
       r="0.345"
       gradientUnits="userSpaceOnUse"
       gradientTransform="matrix(0.00881945,0,0,0.00881945,-825.15993,-674.59387)">
      <stop
         style="stop-color:#a50a0a"
         offset=".259"
         id="stop14" />
      <stop
         style="stop-color:#4c0505"
         offset="1"
         id="stop16" />
    </radialGradient>
    <linearGradient
       id="l"
       x1="473.31"
       x2="475.92999"
       y1="237.25"
       y2="270.45001"
       gradientUnits="userSpaceOnUse"
       gradientTransform="matrix(0.00881945,0,0,0.00881945,-825.15993,-674.59387)">
      <stop
         style="stop-color:#f9f0aa"
         offset=".216"
         id="stop39" />
      <stop
         style="stop-color:#b07e09"
         offset="1"
         id="stop41" />
    </linearGradient>
    <linearGradient
       id="k"
       x1="451.54001"
       x2="455.37"
       y1="249.52"
       y2="240.58"
       gradientUnits="userSpaceOnUse"
       gradientTransform="matrix(0.00881945,0,0,0.00881945,-825.15993,-674.59387)">
      <stop
         style="stop-color:#f9f0aa"
         offset=".216"
         id="stop34" />
      <stop
         style="stop-color:#b07e09"
         offset="1"
         id="stop36" />
    </linearGradient>
    <radialGradient
       id="j"
       cx="445.98001"
       cy="252.36"
       r="13.018"
       gradientUnits="userSpaceOnUse"
       xlink:href="#a"
       gradientTransform="matrix(0.00881945,0,0,0.00881945,-825.15993,-674.59387)" />
    <radialGradient
       id="a">
      <stop
         style="stop-color:#f9f0aa"
         offset=".216"
         id="stop4" />
      <stop
         style="stop-color:#b07e09"
         offset="1"
         id="stop6" />
    </radialGradient>
    <linearGradient
       id="i"
       x1="483.13"
       x2="485.5"
       y1="296.66"
       y2="326.57999"
       gradientUnits="userSpaceOnUse"
       gradientTransform="matrix(0.00881945,0,0,0.00881945,-825.15993,-674.59387)">
      <stop
         style="stop-color:#b07e09;stop-opacity:0"
         offset=".216"
         id="stop29" />
      <stop
         style="stop-color:#b07e09"
         offset="1"
         id="stop31" />
    </linearGradient>
    <linearGradient
       id="h"
       x1="473.91"
       x2="472.35999"
       y1="259.17001"
       y2="231.96001"
       gradientUnits="userSpaceOnUse"
       gradientTransform="matrix(0.00881945,0,0,0.00881945,-825.15993,-674.59387)">
      <stop
         style="stop-color:#b07e09;stop-opacity:0"
         offset=".216"
         id="stop24" />
      <stop
         style="stop-color:#b07e09"
         offset="1"
         id="stop26" />
    </linearGradient>
    <radialGradient
       id="g"
       cx="458.39001"
       cy="307.06"
       r="17.354"
       gradientUnits="userSpaceOnUse"
       xlink:href="#a"
       gradientTransform="matrix(0.00881945,0,0,0.00881945,-825.15993,-674.59387)" />
    <radialGradient
       id="radialGradient2">
      <stop
         style="stop-color:#f9f0aa"
         offset=".216"
         id="stop1" />
      <stop
         style="stop-color:#b07e09"
         offset="1"
         id="stop2" />
    </radialGradient>
    <radialGradient
       id="f"
       cx="454.10999"
       cy="308.64001"
       r="9.7799997"
       gradientUnits="userSpaceOnUse"
       xlink:href="#a"
       gradientTransform="matrix(0.00881945,0,0,0.00881945,-825.15993,-674.59387)" />
    <radialGradient
       id="radialGradient5">
      <stop
         style="stop-color:#f9f0aa"
         offset=".216"
         id="stop3" />
      <stop
         style="stop-color:#b07e09"
         offset="1"
         id="stop5" />
    </radialGradient>
    <radialGradient
       id="e"
       cx="451.56"
       cy="313"
       r="10.911"
       gradientUnits="userSpaceOnUse"
       xlink:href="#a"
       gradientTransform="matrix(0.00881945,0,0,0.00881945,-825.15993,-674.59387)" />
    <radialGradient
       id="radialGradient8">
      <stop
         style="stop-color:#f9f0aa"
         offset=".216"
         id="stop7" />
      <stop
         style="stop-color:#b07e09"
         offset="1"
         id="stop8" />
    </radialGradient>
    <radialGradient
       id="d"
       cx="447.42001"
       cy="308.26999"
       r="16.534"
       gradientUnits="userSpaceOnUse"
       xlink:href="#a"
       gradientTransform="matrix(0.00881945,0,0,0.00881945,-825.15993,-674.59387)" />
    <radialGradient
       id="radialGradient10">
      <stop
         style="stop-color:#f9f0aa"
         offset=".216"
         id="stop9" />
      <stop
         style="stop-color:#b07e09"
         offset="1"
         id="stop10" />
    </radialGradient>
  </defs>
  <g
     inkscape:label="Layer 1"
     inkscape:groupmode="layer"
     id="layer1"
     transform="translate(807.98797,680.99754)">
    <path
       fill="#ffffff"
       d="m -807.98797,-680.99754 h 7.9375 v 5.29167 h -7.9375 z"
       id="path902"
       style="stroke-width:0.0881944" />
    <path
       fill="#ff6820"
       d="m -807.98797,-680.99754 h 7.9375 v 1.76389 h -7.9375 z"
       id="path905"
       style="stroke-width:0.0881944" />
    <path
       fill="#046a38"
       d="m -807.98797,-677.46976 h 7.9375 v 1.76389 h -7.9375 z"
       id="path908"
       style="stroke-width:0.0881944" />
    <path
       id="path911"
       d="m -803.20342,-678.35171 a 0.81579861,0.81579861 0 0 1 -0.8158,0.8158 0.81579861,0.81579861 0 0 1 -0.8158,-0.8158 0.81579861,0.81579861 0 0 1 0.8158,-0.8158 0.81579861,0.81579861 0 0 1 0.8158,0.8158 z"
       style="fill:#07038d;fill-opacity:1;stroke-width:0.0881944" />
    <path
       id="path914"
       style="fill:#ffffff;stroke-width:0.0881944"
       d="m -803.31366,-678.35171 a 0.70555556,0.70555556 0 0 1 -0.70556,0.70556 0.70555556,0.70555556 0 0 1 -0.70556,-0.70556 0.70555556,0.70555556 0 0 1 0.70556,-0.70555 0.70555556,0.70555556 0 0 1 0.70556,0.70555 z" />
    <path
       id="path917"
       d="m -803.87811,-678.35171 a 0.14111111,0.14111111 0 0 1 -0.14111,0.14111 0.14111111,0.14111111 0 0 1 -0.14111,-0.14111 0.14111111,0.14111111 0 0 1 0.14111,-0.14111 0.14111111,0.14111111 0 0 1 0.14111,0.14111 z"
       style="fill:#07038d;fill-opacity:1;stroke-width:0.0881944" />
    <path
       d="m -804.01922,-679.05726 0.0265,0.42457 -0.0265,0.21022 -0.0265,-0.21022 z"
       id="path920"
       style="fill:#07038d;fill-opacity:1;stroke-width:0.0881944" />
    <path
       id="path923"
       d="m -803.89652,-679.0472 a 0.03086805,0.03086805 0 0 1 -0.0346,0.0266 0.03086805,0.03086805 0 0 1 -0.0266,-0.0346 0.03086805,0.03086805 0 0 1 0.0346,-0.0266 0.03086805,0.03086805 0 0 1 0.0266,0.0346 z"
       style="fill:#07038d;fill-opacity:1;stroke-width:0.0881944" />
    <path
       d="m -804.01922,-677.64615 -0.0265,-0.42458 0.0265,-0.21021 0.0265,0.21021 z"
       id="path926"
       style="fill:#07038d;fill-opacity:1;stroke-width:0.0881944" />
    <path
       id="path929"
       d="m -804.14192,-677.65622 a 0.03086805,0.03086805 0 0 1 0.0346,-0.0266 0.03086805,0.03086805 0 0 1 0.0266,0.0346 0.03086805,0.03086805 0 0 1 -0.0346,0.0266 0.03086805,0.03086805 0 0 1 -0.0266,-0.0346 z"
       style="fill:#07038d;fill-opacity:1;stroke-width:0.0881944" />
    <path
       d="m -803.83661,-679.03322 -0.0843,0.41696 -0.08,0.1962 0.0289,-0.2099 z"
       id="path932"
       style="fill:#07038d;fill-opacity:1;stroke-width:0.0881944" />
    <path
       id="path935"
       d="m -803.7207,-678.99174 a 0.03086805,0.03086805 0 0 1 -0.0403,0.0167 0.03086805,0.03086805 0 0 1 -0.0167,-0.0403 0.03086805,0.03086805 0 0 1 0.0403,-0.0167 0.03086805,0.03086805 0 0 1 0.0167,0.0403 z"
       style="fill:#07038d;fill-opacity:1;stroke-width:0.0881944" />
    <path
       d="m -804.20183,-677.67019 0.0843,-0.41696 0.08,-0.1962 -0.0289,0.2099 z"
       id="path938"
       style="fill:#07038d;fill-opacity:1;stroke-width:0.0881944" />
    <path
       id="path941"
       d="m -804.31774,-677.71167 a 0.03086805,0.03086805 0 0 1 0.0403,-0.0167 0.03086805,0.03086805 0 0 1 0.0167,0.0403 0.03086805,0.03086805 0 0 1 -0.0403,0.0167 0.03086805,0.03086805 0 0 1 -0.0167,-0.0403 z"
       style="fill:#07038d;fill-opacity:1;stroke-width:0.0881944" />
    <path
       d="m -803.66644,-678.96274 -0.18938,0.38093 -0.12802,0.16882 0.0822,-0.19528 z"
       id="path944"
       style="fill:#07038d;fill-opacity:1;stroke-width:0.0881944" />
    <path
       id="path947"
       d="m -803.56522,-678.89267 a 0.03086805,0.03086805 0 0 1 -0.0433,0.006 0.03086805,0.03086805 0 0 1 -0.006,-0.0433 0.03086805,0.03086805 0 0 1 0.0433,-0.006 0.03086805,0.03086805 0 0 1 0.006,0.0433 z"
       style="fill:#07038d;fill-opacity:1;stroke-width:0.0881944" />
    <path
       d="m -804.372,-677.74068 0.18938,-0.38092 0.12802,-0.16882 -0.0822,0.19528 z"
       id="path950"
       style="fill:#07038d;fill-opacity:1;stroke-width:0.0881944" />
    <path
       id="path953"
       d="m -804.47322,-677.81074 a 0.03086805,0.03086805 0 0 1 0.0433,-0.006 0.03086805,0.03086805 0 0 1 0.006,0.0433 0.03086805,0.03086805 0 0 1 -0.0433,0.006 0.03086805,0.03086805 0 0 1 -0.006,-0.0433 z"
       style="fill:#07038d;fill-opacity:1;stroke-width:0.0881944" />
    <path
       d="m -803.52032,-678.85061 -0.28151,0.31893 -0.16735,0.12994 0.12993,-0.16736 z"
       id="path956"
       style="fill:#07038d;fill-opacity:1;stroke-width:0.0881944" />
    <path
       id="path959"
       d="m -803.44067,-678.75673 a 0.03086805,0.03086805 0 0 1 -0.0433,-0.006 0.03086805,0.03086805 0 0 1 0.006,-0.0433 0.03086805,0.03086805 0 0 1 0.0433,0.006 0.03086805,0.03086805 0 0 1 -0.006,0.0433 z"
       style="fill:#07038d;fill-opacity:1;stroke-width:0.0881944" />
    <path
       d="m -804.51812,-677.8528 0.28151,-0.31893 0.16735,-0.12994 -0.12993,0.16735 z"
       id="path962"
       style="fill:#07038d;fill-opacity:1;stroke-width:0.0881944" />
    <path
       id="path965"
       d="m -804.59777,-677.94668 a 0.03086805,0.03086805 0 0 1 0.0433,0.006 0.03086805,0.03086805 0 0 1 -0.006,0.0433 0.03086805,0.03086805 0 0 1 -0.0433,-0.006 0.03086805,0.03086805 0 0 1 0.006,-0.0433 z"
       style="fill:#07038d;fill-opacity:1;stroke-width:0.0881944" />
    <path
       d="m -803.40819,-678.70448 -0.35447,0.2352 -0.19528,0.0822 0.16883,-0.12802 z"
       id="path968"
       style="fill:#07038d;fill-opacity:1;stroke-width:0.0881944" />
    <path
       id="path971"
       d="m -803.35556,-678.59319 a 0.03086805,0.03086805 0 0 1 -0.0403,-0.0167 0.03086805,0.03086805 0 0 1 0.0167,-0.0403 0.03086805,0.03086805 0 0 1 0.0403,0.0167 0.03086805,0.03086805 0 0 1 -0.0167,0.0403 z"
       style="fill:#07038d;fill-opacity:1;stroke-width:0.0881944" />
    <path
       d="m -804.63025,-677.99893 0.35447,-0.2352 0.19528,-0.0822 -0.16883,0.12803 z"
       id="path974"
       style="fill:#07038d;fill-opacity:1;stroke-width:0.0881944" />
    <path
       id="path977"
       d="m -804.68288,-678.11022 a 0.03086805,0.03086805 0 0 1 0.0403,0.0167 0.03086805,0.03086805 0 0 1 -0.0167,0.0403 0.03086805,0.03086805 0 0 1 -0.0403,-0.0167 0.03086805,0.03086805 0 0 1 0.0167,-0.0403 z"
       style="fill:#07038d;fill-opacity:1;stroke-width:0.0881944" />
    <path
       d="m -803.33771,-678.53432 -0.40326,0.13545 -0.2099,0.0289 0.19621,-0.08 z"
       id="path980"
       style="fill:#07038d;fill-opacity:1;stroke-width:0.0881944" />
    <path
       id="path983"
       d="m -803.31567,-678.4132 a 0.03086805,0.03086805 0 0 1 -0.0346,-0.0266 0.03086805,0.03086805 0 0 1 0.0266,-0.0346 0.03086805,0.03086805 0 0 1 0.0346,0.0266 0.03086805,0.03086805 0 0 1 -0.0266,0.0346 z"
       style="fill:#07038d;fill-opacity:1;stroke-width:0.0881944" />
    <path
       d="m -804.70073,-678.1691 0.40326,-0.13544 0.2099,-0.0289 -0.19621,0.08 z"
       id="path986"
       style="fill:#07038d;fill-opacity:1;stroke-width:0.0881944" />
    <path
       id="path989"
       d="m -804.72277,-678.29022 a 0.03086805,0.03086805 0 0 1 0.0346,0.0266 0.03086805,0.03086805 0 0 1 -0.0266,0.0346 0.03086805,0.03086805 0 0 1 -0.0346,-0.0266 0.03086805,0.03086805 0 0 1 0.0266,-0.0346 z"
       style="fill:#07038d;fill-opacity:1;stroke-width:0.0881944" />
    <path
       d="m -803.31366,-678.35171 -0.42458,0.0265 -0.21022,-0.0265 0.21022,-0.0264 z"
       id="path992"
       style="fill:#07038d;fill-opacity:1;stroke-width:0.0881944" />
    <path
       id="path995"
       d="m -803.32373,-678.22901 a 0.03086805,0.03086805 0 0 1 -0.0266,-0.0346 0.03086805,0.03086805 0 0 1 0.0346,-0.0266 0.03086805,0.03086805 0 0 1 0.0266,0.0346 0.03086805,0.03086805 0 0 1 -0.0346,0.0266 z"
       style="fill:#07038d;fill-opacity:1;stroke-width:0.0881944" />
    <path
       d="m -804.72478,-678.35171 0.42458,-0.0264 0.21022,0.0264 -0.21022,0.0265 z"
       id="path998"
       style="fill:#07038d;fill-opacity:1;stroke-width:0.0881944" />
    <path
       id="path1001"
       d="m -804.71471,-678.4744 a 0.03086805,0.03086805 0 0 1 0.0266,0.0346 0.03086805,0.03086805 0 0 1 -0.0346,0.0266 0.03086805,0.03086805 0 0 1 -0.0266,-0.0346 0.03086805,0.03086805 0 0 1 0.0346,-0.0266 z"
       style="fill:#07038d;fill-opacity:1;stroke-width:0.0881944" />
    <path
       d="m -803.33771,-678.1691 -0.41695,-0.0843 -0.19621,-0.08 0.2099,0.0289 z"
       id="path1004"
       style="fill:#07038d;fill-opacity:1;stroke-width:0.0881944" />
    <path
       id="path1007"
       d="m -803.37918,-678.05318 a 0.03086805,0.03086805 0 0 1 -0.0167,-0.0403 0.03086805,0.03086805 0 0 1 0.0403,-0.0167 0.03086805,0.03086805 0 0 1 0.0167,0.0403 0.03086805,0.03086805 0 0 1 -0.0403,0.0167 z"
       style="fill:#07038d;fill-opacity:1;stroke-width:0.0881944" />
    <path
       d="m -804.70073,-678.53432 0.41695,0.0843 0.19621,0.08 -0.2099,-0.0289 z"
       id="path1010"
       style="fill:#07038d;fill-opacity:1;stroke-width:0.0881944" />
    <path
       id="path1013"
       d="m -804.65926,-678.65023 a 0.03086805,0.03086805 0 0 1 0.0167,0.0403 0.03086805,0.03086805 0 0 1 -0.0403,0.0167 0.03086805,0.03086805 0 0 1 -0.0167,-0.0403 0.03086805,0.03086805 0 0 1 0.0403,-0.0167 z"
       style="fill:#07038d;fill-opacity:1;stroke-width:0.0881944" />
    <path
       d="m -803.40819,-677.99893 -0.38092,-0.18937 -0.16883,-0.12803 0.19528,0.0822 z"
       id="path1016"
       style="fill:#07038d;fill-opacity:1;stroke-width:0.0881944" />
    <path
       id="path1019"
       d="m -803.47826,-677.8977 a 0.03086805,0.03086805 0 0 1 -0.006,-0.0433 0.03086805,0.03086805 0 0 1 0.0433,-0.006 0.03086805,0.03086805 0 0 1 0.006,0.0433 0.03086805,0.03086805 0 0 1 -0.0433,0.006 z"
       style="fill:#07038d;fill-opacity:1;stroke-width:0.0881944" />
    <path
       d="m -804.63025,-678.70448 0.38092,0.18937 0.16883,0.12802 -0.19528,-0.0822 z"
       id="path1022"
       style="fill:#07038d;fill-opacity:1;stroke-width:0.0881944" />
    <path
       id="path1025"
       d="m -804.56018,-678.80571 a 0.03086805,0.03086805 0 0 1 0.006,0.0433 0.03086805,0.03086805 0 0 1 -0.0433,0.006 0.03086805,0.03086805 0 0 1 -0.006,-0.0433 0.03086805,0.03086805 0 0 1 0.0433,-0.006 z"
       style="fill:#07038d;fill-opacity:1;stroke-width:0.0881944" />
    <path
       d="m -803.52032,-677.8528 -0.31893,-0.28152 -0.12993,-0.16735 0.16735,0.12994 z"
       id="path1028"
       style="fill:#07038d;fill-opacity:1;stroke-width:0.0881944" />
    <path
       id="path1031"
       d="m -803.61419,-677.77316 a 0.03086805,0.03086805 0 0 1 0.006,-0.0433 0.03086805,0.03086805 0 0 1 0.0433,0.006 0.03086805,0.03086805 0 0 1 -0.006,0.0433 0.03086805,0.03086805 0 0 1 -0.0433,-0.006 z"
       style="fill:#07038d;fill-opacity:1;stroke-width:0.0881944" />
    <path
       d="m -804.51812,-678.85061 0.31893,0.28151 0.12993,0.16736 -0.16735,-0.12994 z"
       id="path1034"
       style="fill:#07038d;fill-opacity:1;stroke-width:0.0881944" />
    <path
       id="path1037"
       d="m -804.42425,-678.93025 a 0.03086805,0.03086805 0 0 1 -0.006,0.0433 0.03086805,0.03086805 0 0 1 -0.0433,-0.006 0.03086805,0.03086805 0 0 1 0.006,-0.0433 0.03086805,0.03086805 0 0 1 0.0433,0.006 z"
       style="fill:#07038d;fill-opacity:1;stroke-width:0.0881944" />
    <path
       d="m -803.66644,-677.74068 -0.2352,-0.35446 -0.0822,-0.19528 0.12802,0.16882 z"
       id="path1040"
       style="fill:#07038d;fill-opacity:1;stroke-width:0.0881944" />
    <path
       id="path1043"
       d="m -803.77773,-677.68805 a 0.03086805,0.03086805 0 0 1 0.0167,-0.0403 0.03086805,0.03086805 0 0 1 0.0403,0.0167 0.03086805,0.03086805 0 0 1 -0.0167,0.0403 0.03086805,0.03086805 0 0 1 -0.0403,-0.0167 z"
       style="fill:#07038d;fill-opacity:1;stroke-width:0.0881944" />
    <path
       d="m -804.372,-678.96274 0.2352,0.35447 0.0822,0.19528 -0.12802,-0.16882 z"
       id="path1046"
       style="fill:#07038d;fill-opacity:1;stroke-width:0.0881944" />
    <path
       id="path1049"
       d="m -804.26071,-679.01537 a 0.03086805,0.03086805 0 0 1 -0.0167,0.0403 0.03086805,0.03086805 0 0 1 -0.0403,-0.0167 0.03086805,0.03086805 0 0 1 0.0167,-0.0403 0.03086805,0.03086805 0 0 1 0.0403,0.0167 z"
       style="fill:#07038d;fill-opacity:1;stroke-width:0.0881944" />
    <path
       d="m -803.83661,-677.67019 -0.13544,-0.40326 -0.0289,-0.2099 0.08,0.1962 z"
       id="path1052"
       style="fill:#07038d;fill-opacity:1;stroke-width:0.0881944" />
    <path
       id="path1055"
       d="m -803.95773,-677.64816 a 0.03086805,0.03086805 0 0 1 0.0266,-0.0346 0.03086805,0.03086805 0 0 1 0.0346,0.0266 0.03086805,0.03086805 0 0 1 -0.0266,0.0346 0.03086805,0.03086805 0 0 1 -0.0346,-0.0266 z"
       style="fill:#07038d;fill-opacity:1;stroke-width:0.0881944" />
    <path
       d="m -804.20183,-679.03322 0.13544,0.40326 0.0289,0.2099 -0.08,-0.1962 z"
       id="path1058"
       style="fill:#07038d;fill-opacity:1;stroke-width:0.0881944" />
    <path
       id="path1061"
       d="m -804.08071,-679.05526 a 0.03086805,0.03086805 0 0 1 -0.0266,0.0346 0.03086805,0.03086805 0 0 1 -0.0346,-0.0266 0.03086805,0.03086805 0 0 1 0.0266,-0.0346 0.03086805,0.03086805 0 0 1 0.0346,0.0266 z"
       style="fill:#07038d;fill-opacity:1;stroke-width:0.0881944" />
  </g>
</svg>
