<?xml version="1.0"?>
<svg width="30" height="20" xmlns="http://www.w3.org/2000/svg" xmlns:xlink="http://www.w3.org/1999/xlink"><symbol id="hin" width="30" height="20" fill="#07038D" viewBox="-45 -30 90 60"><path d="m-45-30h90v60h-90z" fill="#FFF"/><path d="m-45-30h90v20h-90z" fill="#FF6820"/><path d="m-45 10h90v20h-90z" fill="#046A38"/><circle r="9.25"/><circle r="8" fill="#FFF"/><circle r="1.6"/><g id="d"><g id="c"><g id="b"><g id="a"><path d="m0-8 .3 4.81409L0-.80235l-.3-2.38356z"/><circle transform="rotate(7.5)" cy="-8" r=".35"/></g><use transform="scale(-1)" xlink:href="#a"/></g><use transform="rotate(15)" xlink:href="#b"/></g><use transform="rotate(30)" xlink:href="#c"/></g><use transform="rotate(60)" xlink:href="#d"/><use transform="rotate(120)" xlink:href="#d"/></symbol><use x="-5.5" href="#hin"/><path d="M19 0h11v20H19z" fill="#fff"/><path transform="matrix(0 -.1.1 0 0 0)" d="m-140.2 279.1v-68.1h-13v27.9h-19.3v-27.9h-13v68.1h13v-29.5h19.3v29.5zm65.13-29v-10q0-4.6-.89-8.7-.85-4.1-2.48-7.6-1.5-3-3.61-5.6-2.06-2.5-4.82-4.3-2.76-1.9-6.23-2.8-3.41-1.1-7.3-1.1-3.9 0-7.3 1-3.3 1-5.9 2.8-2.8 1.9-4.9 4.5-2 2.6-3.5 5.9-1.5 3.4-2.3 7.4-.7 4-.7 8.5v10q0 4.2.6 8 .7 3.8 2 7 1.5 3.5 3.7 6.3 2.1 2.8 4.8 4.7 2.8 1.9 6.2 2.9 3.3 1.1 7.3 1.1 3.75 0 6.98-1 3.27-.9 5.99-2.5 2.99-1.9 5.33-4.7t3.94-6.2q1.49-3.3 2.29-7.3.8-3.9.8-8.3zm-13.34-10.1v10.1q0 2.5-.29 4.8-.23 2.4-.74 4.3-.66 2.6-1.78 4.6-1.08 1.9-2.67 3.2-1.27 1.1-2.9 1.7-1.64.5-3.61.5-2.1 0-3.7-.6t-2.9-1.7q-1.3-1.3-2.3-3.3t-1.5-4.5q-.5-2-.7-4.3t-.2-4.7v-10.1q0-2.6.2-5t.7-4.4q.6-2.6 1.7-4.6 1.1-1.9 2.7-3.2 1.2-.9 2.6-1.4 1.5-.5 3.4-.5 1.87 0 3.42.6 1.59.5 2.85 1.4 1.6 1.3 2.77 3.3 1.17 1.9 1.87 4.5.56 2 .79 4.4.29 2.3.29 4.9zm75.63 17.8h-13.15q-.19 3.1-1.03 5.3-.85 2.2-2.3 3.6t-3.51 2q-2.06.7-4.63.7-1.92 0-3.51-.4-1.55-.5-2.81-1.4-1.17-.9-2.11-2.1-.89-1.3-1.54-2.9-.94-2.4-1.41-5.6-.42-3.2-.42-7.3v-9.3q0-3 .28-5.6t.89-4.7q.8-2.8 2.11-4.9 1.36-2.1 3.28-3.2 1.12-.6 2.43-1 1.36-.3 2.9-.3 2.9 0 4.96.8 2.11.8 3.51 2.2 1.36 1.6 2.06 3.9.75 2.3.94 5.3h13.11q-.47-5.3-2.25-9.6-1.78-4.2-4.87-7.2-3.09-2.9-7.49-4.5-4.35-1.6-9.97-1.6-3.79 0-7.11 1-3.28.9-6.04 2.7-3.09 2.1-5.53 5.1-2.43 3.1-3.93 7-1.31 3.1-1.96 6.9-.66 3.7-.66 7.8v9.2q0 4.4.7 8.3.75 3.9 2.11 7.2 1.4 3.3 3.42 6 2.06 2.7 4.68 4.6 2.85 2.1 6.41 3.2 3.6 1.1 7.82 1.1 5.33 0 9.73-1.5 4.4-1.6 7.59-4.5 3.18-2.9 5.05-7.1 1.92-4.1 2.25-9.2z"/></svg>
