<svg width="30" height="20" xmlns="http://www.w3.org/2000/svg"><symbol id="hin" width="30" height="20" fill="#07038D" viewBox="-45 -30 90 60"><path d="m-45-30h90v60h-90z" fill="#FFF"/><path d="m-45-30h90v20h-90z" fill="#FF6820"/><path d="m-45 10h90v20h-90z" fill="#046A38"/><circle r="9.25"/><circle r="8" fill="#FFF"/><circle r="1.6"/><g id="d"><g id="c"><g id="b"><g id="a"><path d="m0-8 .3 4.81409L0-.80235l-.3-2.38356z"/><circle transform="rotate(7.5)" cy="-8" r=".35"/></g><use transform="scale(-1)" href="#a"/></g><use transform="rotate(15)" href="#b"/></g><use transform="rotate(30)" href="#c"/></g><use transform="rotate(60)" href="#d"/><use transform="rotate(120)" href="#d"/></symbol><use x="-5.5" href="#hin"/><path d="M19 0h11v20H19z" fill="#fff"/><symbol id="H"><path d="m8.8 8v-7h-1.34v2.87h-1.98v-2.87h-1.34v7h1.34v-3.03h1.98v3.03z"/></symbol><symbol id="O"><path d="m9.06 5.01v-1.02q0-.48-.091-.899-.087-.42-.255-.779-.15-.31-.37-.572-.21-.26-.495-.442-.28-.19-.64-.293-.35-.11-.755-.106-.4 0-.74.101-.34.1-.615.288-.28.19-.495.462-.21.27-.361.601-.15.35-.236.764-.077.41-.0769.875v1.02q0 .43.067.822.072.39.207.721.15.36.37.649.22.28.5.486.28.19.63.298.35.11.755.106.38 0 .716-.0962.34-.091.615-.26.31-.19.548-.481.24-.29.404-.635.15-.35.236-.75.082-.41.0817-.861zm-1.37-1.03v1.03q0 .26-.029.5-.024.24-.0768.442-.067.26-.183.466-.11.2-.274.336-.13.11-.298.168-.17.058-.37.0577-.21 0-.38-.0625-.16-.062-.293-.178-.14-.13-.245-.336-.1-.21-.154-.466-.048-.2-.0673-.438t-.0192-.49v-1.03q0-.27.019-.514.024-.25.0723-.452.062-.27.173-.471.12-.2.279-.337.12-.091.269-.139.15-.048.341-.0481.2 0 .356.053.16.053.293.149.16.13.284.336.12.2.192.462.058.21.082.452.029.24.029.51z"/></symbol><symbol id="C"><path d="m9.04 5.81h-1.35q-.019.32-.106.543-.086.23-.236.37-.15.14-.361.212-.21.067-.476.0673-.2 0-.361-.0433-.16-.048-.288-.144-.12-.086-.216-.216-.091-.13-.159-.298-.096-.25-.144-.572-.043-.33-.0432-.75v-.952q0-.31.029-.572.029-.27.0912-.49.082-.28.216-.495.14-.22.336-.332.12-.067.25-.101.14-.034.298-.0337.3 0 .51.082.22.077.361.231.14.16.212.394.077.24.096.548h1.35q-.048-.55-.231-.986t-.5-.74q-.32-.3-.769-.466-.45-.16-1.02-.163-.39 0-.731.101-.34.096-.62.279-.32.22-.567.529t-.404.712q-.13.33-.202.712-.067.38-.0673.803v.942q0 .45.072.856.077.4.216.74.14.34.351.615.21.28.481.476.29.21.659.327.37.11.803.111.55 0 1-.159.45-.16.779-.462.33-.3.519-.721.2-.42.231-.952z"/></symbol><g transform="rotate(-90 15 -5)"><use x="-13" href="#H"/><use x="-6.5" href="#O"/><use href="#C"/></g></svg>
