<svg width="30" height="20" xmlns="http://www.w3.org/2000/svg" xmlns:xlink="http://www.w3.org/1999/xlink"><symbol id="hin" width="30" height="20" fill="#07038D" viewBox="-45 -30 90 60"><path d="m-45-30h90v60h-90z" fill="#FFF"/><path d="m-45-30h90v20h-90z" fill="#FF6820"/><path d="m-45 10h90v20h-90z" fill="#046A38"/><circle r="9.25"/><circle r="8" fill="#FFF"/><circle r="1.6"/><g id="d"><g id="c"><g id="b"><g id="a"><path d="m0-8 .3 4.81409L0-.80235l-.3-2.38356z"/><circle transform="rotate(7.5)" cy="-8" r=".35"/></g><use transform="scale(-1)" xlink:href="#a"/></g><use transform="rotate(15)" xlink:href="#b"/></g><use transform="rotate(30)" xlink:href="#c"/></g><use transform="rotate(60)" xlink:href="#d"/><use transform="rotate(120)" xlink:href="#d"/></symbol><use x="-5.5" href="#hin"/><path d="M19 0h11v20H19z" fill="#fff"/><path transform="matrix(0 -.2.2 0 0 0)" d="m-70.09 139.6v-34.1h-6.5v14h-9.65v-14h-6.53v34.1h6.53v-14.8h9.65v14.8zm32.55-14.6v-4.9q0-2.4-.44-4.4-.42-2.1-1.24-3.8-.75-1.5-1.8-2.8-1.03-1.3-2.42-2.1-1.38-1-3.11-1.5-1.71-.5-3.67-.5-1.94 0-3.61.5-1.66.5-2.99 1.4-1.36.9-2.41 2.3-1.03 1.3-1.76 2.9-.75 1.7-1.15 3.7-.37 2-.37 4.3v4.9q0 2.1.33 4 .35 1.9 1 3.5.73 1.8 1.81 3.2 1.07 1.4 2.43 2.4 1.38.9 3.07 1.4 1.68.5 3.67.5 1.87 0 3.49-.4 1.64-.5 2.99-1.3 1.5-.9 2.67-2.3t1.97-3.1q.75-1.7 1.14-3.7.4-2 .4-4.2zm-6.67-5v5q0 1.3-.14 2.5-.11 1.1-.37 2.1-.33 1.3-.89 2.3-.54 1-1.34 1.6-.63.6-1.45.8-.82.3-1.8.3-1.03 0-1.85-.3-.79-.3-1.43-.8-.67-.7-1.19-1.7-.49-1-.75-2.3-.23-.9-.33-2.1-.1-1.1-.1-2.4v-5q0-1.3.1-2.5.12-1.2.36-2.2.3-1.3.84-2.3.56-1 1.36-1.6.58-.5 1.31-.7.74-.2 1.66-.2.96 0 1.73.2.8.3 1.43.8.79.6 1.38 1.6.58 1 .93 2.2.29 1 .4 2.2.14 1.2.14 2.5zm37.819 8.9h-6.579q-.1 1.5-.51 2.6-.42 1.1-1.15 1.8-.72.7-1.75 1.1-1.03.3-2.32.3-.96 0-1.76-.2-.77-.3-1.4-.7-.59-.4-1.05-1.1-.45-.6-.78-1.4-.46-1.2-.7-2.8-.21-1.6-.21-3.7v-4.6q0-1.5.14-2.8t.45-2.4q.39-1.3 1.05-2.4.68-1 1.64-1.6.56-.3 1.21-.5.68-.1 1.46-.1 1.45 0 2.48.4 1.05.3 1.75 1.1.68.7 1.03 1.9.38 1.1.47 2.7h6.553q-.234-2.7-1.124-4.8-.889-2.2-2.434-3.6-1.545-1.5-3.745-2.3-2.18-.8-4.98-.8-1.9 0-3.56.5-1.64.5-3.02 1.3-1.55 1.1-2.76 2.6-1.22 1.5-1.97 3.5-.65 1.6-.98 3.4-.33 1.9-.33 4v4.5q0 2.2.35 4.2.38 2 1.06 3.6.7 1.6 1.7 3 1.03 1.4 2.34 2.3 1.43 1.1 3.21 1.6 1.8.6 3.91.6 2.67 0 4.87-.8t3.79-2.3q1.59-1.4 2.526-3.5.96-2 1.123-4.6z"/></svg>
