<svg width="30" height="20" xmlns="http://www.w3.org/2000/svg"><symbol id="cmn" width="30" height="20"><defs><path id="s" d="m0-1 .58778 1.809-1.5388-1.118h1.9021l-1.5388 1.118z" fill="#ff0"/></defs><rect width="30" height="20" fill="#ee1c25"/><use transform="translate(5,5) scale(3)" href="#s"/><use transform="translate(10 2) rotate(23.036)" href="#s"/><use transform="translate(12 4) rotate(45.87)" href="#s"/><use transform="translate(12 7) rotate(69.945)" href="#s"/><use transform="translate(10 9) rotate(20.66)" href="#s"/></symbol><use href="#cmn"/><path d="M19 0h11v20H19z" fill="#fff"/><path transform="matrix(0 -.2.2 0 0 0)" d="m-70.09 139.6v-34.1h-6.5v14h-9.65v-14h-6.53v34.1h6.53v-14.8h9.65v14.8zm26.47-8.9q0 .9-.38 1.7-.37.7-1.07 1.2-.71.6-1.74.9-1 .3-2.31.3-1.48 0-2.72-.3-1.21-.4-2.08-1.1-.89-.7-1.38-1.8t-.54-2.6h-6.46q0 2.6 1.01 4.6 1.03 2 2.78 3.4 1.85 1.5 4.33 2.3 2.51.7 5.06.7 2.6 0 4.8-.6t3.79-1.9q1.59-1.1 2.48-2.9.91-1.7.91-4 0-2.6-1.19-4.6-1.2-2-3.21-3.5-1.33-.9-2.92-1.6-1.6-.7-3.35-1.2-1.64-.4-2.95-.9-1.29-.5-2.2-1.2-.91-.6-1.4-1.3-.47-.8-.47-1.8 0-.9.35-1.7.37-.8 1.07-1.3.71-.6 1.71-.9 1.03-.3 2.34-.3 1.43 0 2.48.4 1.08.3 1.81 1 .7.7 1.05 1.7.37.9.42 2.1h6.41q0-2.3-.89-4.2-.88-2-2.48-3.4-1.59-1.3-3.81-2.1-2.2-.8-4.87-.8-2.57 0-4.77.7t-3.82 1.9q-1.61 1.2-2.53 3-.91 1.7-.91 3.9 0 1.9.68 3.5.7 1.6 2.06 2.9t3.49 2.4q2.15 1.1 4.98 1.8 1.83.5 3.04 1.1 1.24.6 2.02 1.3.75.7 1.05 1.5.33.8.33 1.7zm36.036 8.9v-34.1h-6.596v21.9l-9.41-21.9h-6.62v34.1h6.62v-22l9.48 22z"/></svg>
