<?xml version="1.0"?>
<svg width="30" height="20" xmlns="http://www.w3.org/2000/svg" xmlns:xlink="http://www.w3.org/1999/xlink"><symbol id="cmn" width="30" height="20"><defs><path id="s" d="m0-1 .58778 1.809-1.5388-1.118h1.9021l-1.5388 1.118z" fill="#ff0"/></defs><rect width="30" height="20" fill="#ee1c25"/><use transform="translate(5,5) scale(3)" xlink:href="#s"/><use transform="translate(10 2) rotate(23.036)" xlink:href="#s"/><use transform="translate(12 4) rotate(45.87)" xlink:href="#s"/><use transform="translate(12 7) rotate(69.945)" xlink:href="#s"/><use transform="translate(10 9) rotate(20.66)" xlink:href="#s"/></symbol><use href="#cmn"/><path d="M19 0h11v20H19z" fill="#fff"/><path transform="matrix(0 -.1.1 0 0 0)" d="m-140.2 279.1v-68.1h-13v27.9h-19.3v-27.9h-13v68.1h13v-29.5h19.3v29.5zm52.96-17.8q0 1.9-.75 3.4t-2.16 2.6q-1.4 1.1-3.46 1.7-2.01.6-4.63.6-2.96 0-5.46-.7-2.4-.6-4.1-2-1.8-1.4-2.8-3.6t-1.1-5.3h-12.9q0 5.3 2 9.2 2.1 3.9 5.6 6.8 3.7 3 8.6 4.5 5.1 1.5 10.16 1.5 5.19 0 9.59-1.2 4.4-1.3 7.58-3.7 3.19-2.4 4.97-5.9 1.82-3.5 1.82-8 0-5.2-2.39-9.1-2.38-4-6.41-7-2.67-1.8-5.85-3.2t-6.69-2.4q-3.28-.9-5.88-1.9-2.6-1.1-4.4-2.3-1.8-1.3-2.8-2.8t-1-3.5q0-1.8.7-3.3.8-1.6 2.2-2.8 1.4-1.1 3.4-1.7 2.1-.7 4.69-.7 2.85 0 4.96.8 2.15.8 3.6 2.1 1.41 1.4 2.11 3.3.75 2 .84 4.3h12.83q0-4.6-1.78-8.5-1.78-3.8-4.96-6.6-3.19-2.8-7.63-4.3-4.4-1.6-9.74-1.6-5.12 0-9.52 1.4-4.4 1.3-7.7 3.8-3.2 2.5-5 6t-1.8 7.8q0 3.7 1.3 6.9 1.4 3.2 4.1 5.8 2.8 2.6 7 4.8 4.3 2.2 10 3.8 3.63 1 6.07 2.1 2.48 1.2 4.02 2.5 1.5 1.4 2.11 3 .66 1.6.66 3.4zm72.07 17.8v-68.1h-13.2l-.1 43.7-18.81-43.7h-13.25v68.1h13.25v-43.9l18.96 43.9z"/></svg>
