<svg width="30" height="20" xmlns="http://www.w3.org/2000/svg"><symbol id="Flag_of_Armenia" width="30" height="20" viewBox="0 0 9 6"><path d="M0 0h9v6H0z" fill="#F2A800"/><path d="M0 0h9v4H0z" fill="#0033A0"/><path d="M0 0h9v2H0z" fill="#D90012"/></symbol><use href="#Flag_of_Armenia"/><path d="M19 0h11v20H19z" fill="#fff"/><path transform="matrix(0 -.2.2 0 0 0)" d="m-70.09 139.6v-34.1h-6.5v14h-9.65v-14h-6.53v34.1h6.53v-14.8h9.65v14.8zm20.41-18.4-6.72-15.7h-7.21l10.56 22v12.1h6.55v-11.8l10.71-22.3h-7.23zm40.598 3.4v-5.2h-13.998v-8.6h16.292v-5.3h-22.892v34.1h22.962v-5.4h-16.362v-9.6z"/></svg>
