<svg width="30" height="20" xmlns="http://www.w3.org/2000/svg"><symbol id="Flag_of_Armenia" width="30" height="20" viewBox="0 0 9 6"><path d="M0 0h9v6H0z" fill="#F2A800"/><path d="M0 0h9v4H0z" fill="#0033A0"/><path d="M0 0h9v2H0z" fill="#D90012"/></symbol><use href="#Flag_of_Armenia"/><path d="M19 0h11v20H19z" fill="#fff"/><symbol id="H"><path d="m8.8 8v-7h-1.34v2.87h-1.98v-2.87h-1.34v7h1.34v-3.03h1.98v3.03z"/></symbol><symbol id="Y"><path d="m6.56 4.23-1.38-3.23h-1.48l2.17 4.52v2.48h1.35v-2.42l2.21-4.58h-1.49z"/></symbol><symbol id="E"><path d="m8.48 4.93v-1.07h-2.88v-1.76h3.35v-1.1h-4.7v7h4.72v-1.09h-3.36v-1.98z"/></symbol><g transform="rotate(-90 15 -5)"><use x="-13" href="#H"/><use x="-6.5" href="#Y"/><use href="#E"/></g></svg>
