<svg width="30" height="20" xmlns="http://www.w3.org/2000/svg"><symbol id="Flag_of_Armenia" width="30" height="20" viewBox="0 0 9 6"><path d="M0 0h9v6H0z" fill="#F2A800"/><path d="M0 0h9v4H0z" fill="#0033A0"/><path d="M0 0h9v2H0z" fill="#D90012"/></symbol><use href="#Flag_of_Armenia"/><path d="M19 0h11v20H19z" fill="#fff"/><symbol id="H"><path d="m8.8 8v-7h-1.34v2.87h-1.98v-2.87h-1.34v7h1.34v-3.03h1.98v3.03z"/></symbol><symbol id="Y"><path d="m6.56 4.23-1.38-3.23h-1.48l2.17 4.52v2.48h1.35v-2.42l2.21-4.58h-1.49z"/></symbol><symbol id="W"><path d="m4.63 8h1.22l.586-3.78.0529-.356.0529.356.611 3.78h1.22l.971-7h-1.24l-.476 3.92-.0336.293-.0433-.288-.586-3.93h-.966l-.553 3.9-.0433.288-.0336-.274-.466-3.91h-1.24z"/></symbol><g transform="rotate(-90 15 -5)"><use x="-13" href="#H"/><use x="-6.5" href="#Y"/><use href="#W"/></g></svg>
