<?xml version="1.0"?>
<svg width="30" height="20" xmlns="http://www.w3.org/2000/svg"><path d="M0 0h30v20H0z" fill="#fff"/><path transform="scale(.1)" d="m28.26 46.31v16.74h20.43v73.95h-20.43v16.7h62.11v-16.7h-20.95v-73.95h20.95v-16.74zm159.94 94.89-.1-42.37h-38.4v15.47h17.7v19.5q-.8.9-2.5 1.8-1.5.8-3.6 1.5-2 .7-4.4 1-2.4.4-4.8.4-4-.1-7.2-1.2-3.1-1.3-5.4-3.7-1.4-1.4-2.6-3.1-1.1-1.9-2-4-1.4-3.7-2.2-8.5-.7-4.8-.7-10.6v-14.77q0-4.65.5-8.63.6-3.98 1.6-7.23 1.3-4.2 3.3-7.3 2.1-3.1 4.6-5.01 1.9-1.41 4.1-2.14 2.2-.74 4.6-.74 4.4 0 7.5 1.18 3.1 1.11 5.2 3.39 1.8 2.07 2.9 5.09 1.1 3.03 1.6 6.93h20.2q-.8-7.74-3.5-13.94-2.6-6.19-7.2-10.54-4.6-4.28-11.4-6.57-6.7-2.28-15.8-2.28-5.9 0-11.2 1.62t-9.8 4.79q-3.9 2.81-7.1 6.64-3.2 3.84-5.6 8.63-2.6 5.39-4 12.02-1.4 6.57-1.4 14.24v14.62q0 8 1.4 14.9 1.5 6.8 4.3 12.3 2.4 4.9 5.9 8.8 3.5 3.8 7.8 6.5 4.3 2.5 9.5 3.9t11.1 1.4q6.8 0 12.7-1.3 5.9-1.2 10.7-3.3 4.7-2 8.2-4.5t5.5-4.9zm72.5-15.5q0 2.9-1.1 5.3-1.2 2.3-3.4 4t-5.5 2.7q-3.2 1-7.3 1-4.6 0-8.5-1.1-3.9-1-6.6-3.2-2.8-2.2-4.4-5.7-1.5-3.5-1.7-8.3h-20.3q0 8.3 3.2 14.5t8.7 10.8q5.9 4.6 13.7 7 7.9 2.4 15.9 2.4 8.2 0 15.1-1.9 7-2 12-5.8t7.8-9.3q2.9-5.5 2.9-12.6 0-8.2-3.8-14.4-3.7-6.3-10.1-11-4.2-2.9-9.2-5.11t-10.6-3.76q-5.1-1.4-9.2-3.02-4.1-1.63-7-3.62-2.9-1.92-4.4-4.35t-1.5-5.46q0-2.87 1.1-5.31 1.2-2.51 3.4-4.35 2.2-1.77 5.4-2.73 3.2-1.03 7.4-1.03 4.5 0 7.8 1.25 3.4 1.18 5.7 3.32 2.2 2.21 3.3 5.24 1.2 3.02 1.3 6.64h20.2q0-7.23-2.8-13.28t-7.8-10.47q-5-4.36-12-6.79-6.9-2.43-15.4-2.43-8.1 0-15 2.13-6.9 2.07-12 5.98t-8 9.44-2.9 12.32q0 5.9 2.2 10.91 2.2 5.02 6.5 9.15 4.2 4.13 11 7.63 6.7 3.4 15.7 5.9 5.7 1.5 9.6 3.4 3.9 1.7 6.3 3.9t3.3 4.7q1 2.5 1 5.4z"/></svg>
