<svg width="30" height="20" xmlns="http://www.w3.org/2000/svg"><path d="M0 0h30v20H0z" fill="#fff"/><symbol id="I"><path d="m4.47 1v1.09h1.33v4.82h-1.33v1.09h4.05v-1.09h-1.37v-4.82h1.37v-1.09z"/></symbol><symbol id="G"><path d="m8.99 7.18v-2.76h-2.51v1.01h1.16v1.27q-.058.062-.163.12-.1.053-.236.0962-.13.043-.288.0673-.15.024-.312.024-.26-.0048-.466-.0817-.2-.082-.356-.236-.091-.091-.168-.207-.072-.12-.13-.26-.091-.24-.144-.553-.048-.31-.0481-.692v-.962q0-.3.034-.562.038-.26.106-.471.087-.27.216-.476.13-.2.298-.327.12-.091.269-.139.14-.048.298-.048.28 0 .486.077.21.072.341.221.12.13.188.332.072.2.106.452h1.32q-.053-.5-.226-.909-.17-.4-.471-.688-.3-.28-.745-.428-.44-.15-1.03-.149-.38 0-.731.106-.35.11-.639.312-.25.18-.462.433-.21.25-.365.562-.17.35-.26.784-.091.43-.0914.928v.952q0 .52.091.971.096.45.279.803.16.32.385.572.23.25.51.423.28.17.62.255.34.091.726.091.44 0 .827-.082.39-.081.698-.216.31-.13.534-.293.23-.16.356-.322z"/></symbol><symbol id="S"><path d="m7.81 6.17q0 .19-.077.346-.077.15-.221.264-.14.11-.356.173-.21.062-.476.062-.3 0-.558-.067-.25-.067-.428-.211-.18-.14-.284-.37-.1-.23-.111-.543h-1.33q0 .54.207.947.21.4.572.702.38.3.889.462.51.15 1.04.154.53 0 .986-.125.45-.13.779-.38.33-.25.51-.601.19-.36.188-.822 0-.53-.245-.942-.25-.41-.659-.716-.27-.19-.601-.332-.33-.14-.688-.245-.34-.091-.606-.197-.26-.11-.452-.236-.19-.12-.288-.284-.096-.16-.0962-.356 0-.19.0721-.346.077-.16.221-.284.14-.12.351-.178.21-.067.481-.0673.29 0 .51.082.22.077.37.216.14.14.216.341.077.2.087.433h1.32q0-.47-.183-.866t-.51-.683q-.33-.28-.784-.442-.45-.16-1-.159-.53 0-.981.139-.45.13-.784.389-.33.25-.519.615t-.188.803q0 .38.139.712.14.33.423.596.28.27.716.495.44.23 1.02.385.38.1.625.221.25.12.413.255.15.14.216.308.067.16.067.351z"/></symbol><g transform="matrix(1.5 0 0 1.5 15 3.25)"><use x="-13" href="#I"/><use x="-6.5" href="#G"/><use href="#S"/></g></svg>
