<svg width="30" height="20" xmlns="http://www.w3.org/2000/svg" xmlns:xlink="http://www.w3.org/1999/xlink"><symbol id="tgl" width="30" height="20" fill="#fcd116" viewBox="-28 -45 135 90"><path d="m-28-45h180V0L0 44z" fill="#0038a8"/><path d="m0 0h152v45H-28z" fill="#ce1126"/><path d="m49.942 0L-28 45v-90z" fill="#fff"/><circle r="9"/><g id="c"><g id="b"><path id="a" d="m0 0-3.164-15.909.945-.946zl-1.169-17.831L0-19l1.169 1.169zl2.219-16.855.945.946z"/><use transform="scale(-1)" xlink:href="#a"/></g><use transform="rotate(90)" xlink:href="#b"/></g><use transform="rotate(45)" xlink:href="#c"/><path id="d" d="m40.942 0-3.382 1.176-.073 3.579-2.163-2.853-3.427 1.037 2.045-2.939-2.045-2.939 3.427 1.037 2.163-2.853.073 3.579z"/><use transform="rotate(120,-2.019,0)" xlink:href="#d"/><use transform="rotate(240,-2.019,0)" xlink:href="#d"/></symbol><use href="#tgl"/><path d="M19 0h11v20H19z" fill="#fff"/><path transform="matrix(0 -.2.2 0 0 0)" d="m-91.13 105.5v5.3h6.48v23.5h-6.48v5.3h19.71v-5.3h-6.65v-23.5h6.65v-5.3zm36.86 28.7v-28.7h-6.6v34.1h22.56v-5.4zm47.996-9.2v-4.9q0-2.4-.444-4.4-.421-2.1-1.241-3.8-.749-1.5-1.802-2.8-1.029-1.3-2.409-2.1-1.38-1-3.11-1.5-1.71-.5-3.68-.5-1.94 0-3.6.5t-3 1.4q-1.36.9-2.41 2.3-1.03 1.3-1.75 2.9-.75 1.7-1.15 3.7-.38 2-.38 4.3v4.9q0 2.1.33 4 .35 1.9 1.01 3.5.72 1.8 1.8 3.2t2.43 2.4q1.39.9 3.07 1.4 1.69.5 3.67.5 1.88 0 3.49-.4 1.64-.5 3-1.3 1.5-.9 2.666-2.3 1.17-1.4 1.966-3.1.749-1.7 1.147-3.7.397-2 .397-4.2zm-6.666-5v5q0 1.3-.14 2.5-.12 1.1-.38 2.1-.33 1.3-.89 2.3-.54 1-1.33 1.6-.63.6-1.45.8-.82.3-1.81.3-1.02 0-1.84-.3-.8-.3-1.43-.8-.68-.7-1.2-1.7-.49-1-.74-2.3-.24-.9-.33-2.1-.1-1.1-.1-2.4v-5q0-1.3.1-2.5.12-1.2.35-2.2.3-1.3.84-2.3.56-1 1.36-1.6.58-.5 1.31-.7.75-.2 1.66-.2.96 0 1.73.2.8.3 1.43.8.8.6 1.38 1.6.59 1 .94 2.2.28 1 .4 2.2.14 1.2.14 2.5z"/></svg>
