<?xml version="1.0" encoding="UTF-8" standalone="no"?>
<!-- Creator: CorelDRAW Home & Student X8 -->

<svg
   xml:space="preserve"
   width="7.9375mm"
   height="5.2916665mm"
   version="1.1"
   style="clip-rule:evenodd;fill-rule:evenodd;image-rendering:optimizeQuality;shape-rendering:geometricPrecision;text-rendering:geometricPrecision"
   viewBox="0 0 793.75 529.16665"
   enable-background="new 300 200 600 400"
   id="svg4"
   sodipodi:docname="İnguşetya.svg"
   inkscape:version="1.4 (86a8ad7, 2024-10-11)"
   xmlns:inkscape="http://www.inkscape.org/namespaces/inkscape"
   xmlns:sodipodi="http://sodipodi.sourceforge.net/DTD/sodipodi-0.dtd"
   xmlns="http://www.w3.org/2000/svg"
   xmlns:svg="http://www.w3.org/2000/svg"><sodipodi:namedview
   id="namedview4"
   pagecolor="#ffffff"
   bordercolor="#000000"
   borderopacity="0.25"
   inkscape:showpageshadow="2"
   inkscape:pageopacity="0.0"
   inkscape:pagecheckerboard="0"
   inkscape:deskcolor="#d1d1d1"
   inkscape:document-units="mm"
   inkscape:zoom="1.4234583"
   inkscape:cx="425.37248"
   inkscape:cy="282.76205"
   inkscape:window-width="1920"
   inkscape:window-height="1009"
   inkscape:window-x="-8"
   inkscape:window-y="-8"
   inkscape:window-maximized="1"
   inkscape:current-layer="Layer_x0020_1" />
 <defs
   id="defs1">
  <style
   type="text/css"
   id="style1">
   <![CDATA[
    .fil0 {fill:#0D923F}
    .fil1 {fill:#FEFEFE}
    .fil2 {fill:#E33A24;fill-rule:nonzero}
   ]]>
  </style>
 </defs>
 <g
   id="Layer_x0020_1"
   inkscape:label="Layer 1"
   inkscape:groupmode="layer"
   transform="translate(0,-13)">
  <metadata
   id="CorelCorpID_0Corel-Layer" />
  <rect
   id="rect8"
   class="fil0"
   y="13"
   width="793.75"
   height="88.406113"
   x="0"
   style="stroke-width:0.0352778" />
  <rect
   id="rect10"
   class="fil1"
   y="101.40611"
   width="793.75"
   height="352.35446"
   x="0"
   style="stroke-width:0.0352778" />
  <path
   class="fil2"
   d="m 444.5,303.37139 c 0,-14.605 -5.92666,-27.83417 -15.48694,-37.39444 -9.59556,-9.59556 -22.82472,-15.52223 -37.42972,-15.52223 -14.605,0 -27.83417,5.92667 -37.42973,15.52223 -9.56027,9.56027 -15.48694,22.78944 -15.48694,37.39444 0,14.64028 5.92667,27.86945 15.48694,37.42972 9.59556,9.59556 22.82473,15.48695 37.42973,15.48695 14.605,0 27.83416,-5.89139 37.42972,-15.48695 C 438.57334,331.24084 444.5,318.01167 444.5,303.37139 Z m 12.55889,-65.47555 c 16.75695,16.75694 27.12861,39.93444 27.12861,65.47555 0,25.57639 -10.37166,48.75389 -27.12861,65.51084 -16.75694,16.75694 -39.89916,27.12861 -65.47555,27.12861 -25.57639,0 -48.71861,-10.37167 -65.47556,-27.12861 -16.75694,-16.75695 -27.12861,-39.93445 -27.12861,-65.51084 0,-25.54111 10.37167,-48.71861 27.12861,-65.47555 16.75695,-16.75695 39.89917,-27.12862 65.47556,-27.12862 25.57639,0 48.71861,10.37167 65.47555,27.12862 z"
   id="path1"
   style="stroke-width:0.0352778" />
  <path
   class="fil2"
   d="m 374.65,184.59111 c -4.51555,5.715 -12.84111,6.6675 -18.52083,2.11667 -5.715,-4.51556 -6.6675,-12.84111 -2.11667,-18.52083 4.55084,-5.75028 10.26584,-10.33639 16.65111,-13.44084 6.38528,-3.13972 13.47612,-4.83305 20.77862,-4.83305 13.12333,0 25.04722,5.36222 33.69027,13.97 8.60778,8.60777 13.93473,20.49639 13.93473,33.69028 0,13.08805 -5.32695,24.94138 -13.93473,33.54916 -8.5725,8.5725 -20.49638,13.89945 -33.61972,14.00528 -7.3025,0.0353 -13.19389,-5.85611 -13.22916,-13.12333 -0.0353,-7.26723 5.85611,-13.19389 13.12333,-13.22917 5.78555,-0.0353 11.1125,-2.46944 15.02833,-6.35 3.81,-3.84528 6.17361,-9.10167 6.17361,-14.85194 0,-5.85612 -2.36361,-11.14778 -6.17361,-14.95778 -3.84528,-3.84528 -9.17222,-6.20889 -14.99305,-6.20889 -3.24556,0 -6.38528,0.74083 -9.2075,2.11667 -2.92806,1.41111 -5.50334,3.4925 -7.58473,6.06777 z"
   id="path2"
   style="stroke-width:0.0352778" />
  <path
   class="fil2"
   d="m 504.93084,344.57584 c -2.75167,-6.73806 0.52917,-14.46389 7.3025,-17.18028 6.73805,-2.75167 14.46389,0.49389 17.18028,7.26722 2.75166,6.73806 3.81,13.93472 3.31611,20.99028 -0.49389,7.16139 -2.57528,14.18167 -6.13834,20.53167 l -0.10583,0.10583 c -6.56167,11.39472 -17.145,19.08528 -28.8925,22.225 -11.71222,3.13972 -24.65917,1.79917 -36.05389,-4.7625 h -0.0706 c -11.32417,-6.56167 -18.90889,-17.10972 -22.08389,-28.82195 -3.13973,-11.71222 -1.86973,-24.65916 4.58611,-35.98333 3.59833,-6.35 11.64166,-8.5725 17.99166,-4.97417 6.31473,3.59834 8.53723,11.64167 4.93889,17.99167 -2.8575,5.04472 -3.42194,10.83028 -1.97555,16.15722 1.41111,5.18584 4.7625,9.87778 9.77194,12.77056 v 0.0353 c 5.04472,2.89277 10.83028,3.45722 16.08667,2.04611 5.22111,-1.37584 9.91306,-4.72722 12.80583,-9.70139 h -0.0353 c 1.65805,-2.96333 2.61055,-6.17361 2.82222,-9.38389 0.24694,-3.13972 -0.24695,-6.31472 -1.44639,-9.31333 z"
   id="path3"
   style="stroke-width:0.0352778" />
  <path
   class="fil2"
   d="m 295.62778,377.56056 c 7.19667,0.98778 12.24139,7.65528 11.25361,14.88722 -0.98778,7.19667 -7.65528,12.24139 -14.88722,11.25361 -7.23194,-0.98777 -14.07583,-3.70416 -20.03778,-7.72583 -5.96194,-4.09222 -11.00667,-9.45445 -14.56972,-15.83972 v 0 C 250.89556,368.81167 249.59028,355.9 252.73,344.18778 c 3.175,-11.78278 10.795,-22.36611 22.15445,-28.8925 11.35944,-6.56167 24.30639,-7.9375 36.05389,-4.79778 11.78277,3.13973 22.33083,10.72445 28.8925,22.08389 3.66889,6.27945 1.51694,14.35806 -4.79778,18.02695 -6.31472,3.63361 -14.39333,1.48166 -18.02695,-4.79778 -2.92805,-5.04472 -7.58472,-8.39611 -12.80583,-9.77195 -5.25639,-1.41111 -11.04194,-0.81138 -16.08667,2.08139 -5.04472,2.92806 -8.43138,7.62 -9.8425,12.87639 -1.41111,5.29167 -0.84666,11.07722 2.04612,16.08667 l 0.10583,0.14111 c 1.5875,2.8575 3.77472,5.22111 6.31472,6.94972 2.61056,1.76389 5.64445,2.92806 8.89,3.38667 z"
   id="path4"
   style="stroke-width:0.0352778" />
  <rect
   id="rect8_0"
   class="fil0"
   y="453.76056"
   width="793.75"
   height="88.406113"
   x="0"
   style="stroke-width:0.0352778" />
 </g>
</svg>
