<svg xmlns="http://www.w3.org/2000/svg" xml:space="preserve" width="30" height="20" viewBox="0 0 339.1 227"><g style="stroke-linejoin:round;stroke-linecap:round;fill:none;stroke:#d20000"><g transform="translate(66.9 -32.4)"><path d="M-66.9 32.5h339.1v226.9H-66.9z" style="fill:navy;stroke-width:.264244"/><path d="M16.8 32.4h171v226.9h-171z" style="fill:#fc0;stroke-width:.187648"/><path d="m27 173.2.2 4.2 6.3 6.6 4-2.6.5-9.8h6.6l4.2 4.7-.3 23.5L39 208l9.5 11 106.7.8 10.6-10-10-9.2.2-25 4.2-2.7 5.3.5 2.4 2.7-.6 6.3 2.4 2.9 7.4-5.8.3-4.7-17.7-16.9-24 22.7V198l-17.6-.3-.3-11-9.5-9.8.3-10 8.2-7.7 3.1 2.4-3.4 5.8-.3 7.6 3.7-.2.5-6.1 3.5-3.7.2-9.7-8.7-8.2-5 4-6-6.1.2-5.3 7.7-7.6v-4.8l-8-7.9h-3.6l-8.2 7.4v4.5l7.4 7.9v6l-5.8 5.6-5-4-8.4 8.5v9.2l3.6 5v5l3.7.3.6-8.2-4.5-4.7 2.9-3 9.2 8v10l-10 9.5v10.8l-18-.3v-18l-23.4-22.3Z" style="stroke-width:3.29999"/><ellipse cx="102.8" cy="78.1" rx="32.4" ry="30.3" style="stroke-width:2.5"/><g id="a" style="stroke-width:2.3"><path d="M58.5 218.5H62l.5-3.4h2.9l.5-4 3.7-.2.3-4.5 3.4-.3v-3.7h4V198h3.4m-30.5 20.7h3.4l.5-3.4h3l.5-4 3.7-.2.2-4.5 3.4-.2v-3.7h4v-4.5h3.4m-26.6 16.1H49l.5-3.4h3l.4-4 3.7-.3.3-4.4 3.4-.3v-3.7h4v-4.5h3.4m-26.3 15.5H45l.5-3.4h2.9l.5-4 3.7-.2.3-4.5 3.4-.3v-3.6h4v-4.5h3.4" style="fill:#fc0"/><path d="M67 218.7h3.5l.5-3.4h2.9l.5-4 3.7-.2.3-4.5 3.4-.3v-3.7h4v-4.5h3.4m-14 20.9h3.5l.5-3.4H82l.5-4 3.7-.2.3-4.5 3.4-.3V203h4v-4.4h3.4m-33.8-10.4v-3.7l4.2.3m-19.4 7.1 3.4.3.5-3.5h3.4l.3-4.7h3.4l.8-3.7 3.4-.3.6-4.7m-13.2 8.2.5-4h4l.8-4.2H59l.5-4M36.1 178l-2.3-.6.2-3.2-6.3-.8m10.8-2.6-5.8-2.4m5.8-6.3.3 3.7h4l.2 3.7h3.7l.8-4 4.7-.2m-3.9 10.5 2.8-2 .6-3.5 3.1-.3 1.4-2m45.5 26.5h-4l-.2 3.2M87 219v-3.7l3.4-.2.5-4 3.5-.2.5-4.3h3.7l.2-4h3.5M95.2 219v-3.7h3.4l.8-4h2.9m-12.9-13.1.2-4.5 3.2-.2.5-3.7 3.4-.3.6-4.5h3.1l.3-4 1.3-.7.8-16.6-5-.3.3-4.4-4.3-.3v-3.4h-3.7l.3-4.5h-4.2m-5.2 3.7 4.4.5.8 3.7m11.3-11.6 1 7.4 3.5.5.5 4.5m-6.8 12.1 6 .5"/></g><use href="#a" transform="matrix(-1 0 0 1 204.5 .1)"/><path d="M92.3 129.7H112m-9.7 9.8.5-20" style="fill:#d40000;stroke-width:2"/><path d="M98.1 125h9.2v9.2h-9.2z" style="stroke-width:1.4"/><path d="M99.9 127.1h5.5v5.3h-5.5z" style="stroke-width:1.4"/><path d="M86.5 131h3.2v3.2h-3.2zm29.5.3h3.2v3.2H116zm-30.9 44.5H88v3.2h-2.9zm31.4.8h3.2v3.2h-3.2z" style="fill:#d20000;stroke-width:1.4;stroke-linejoin:miter"/><ellipse cx="103.1" cy="77.8" rx="17.5" ry="15.9" style="fill:#d20000;stroke-width:2.24039;stroke-linejoin:miter"/><g id="b" style="stroke:#d20200;stroke-width:3.6"><path d="m38 163.2-15.8-17.4m-.8 17.2 8.4-7.7M22.4 135l20.8 22m2.7.4 21.3-21.9m-16.3 26.6 18.7-18.7m-39.8-9.2 14.8 15.5 15.8-15.3"/><path d="m38 134.4 7 7.4 7.7-7.6"/></g><use href="#b" transform="matrix(-1 0 0 1 204.5 .8)"/><g id="c" style="stroke:#d20200;stroke-width:3.6"><path d="m55.8 238.8-12.5-13 6-6.3"/><path d="m61.9 238.8-12.5-13 6-6.2"/><path d="m67.7 239-12.5-13 6-6.3"/><path d="M73.5 239 61 226l6-6.2"/></g><use href="#c" transform="matrix(-1 0 0 1 204.4 .6)"/></g><g id="d"><path d="m157 17.7-.5 6.4 3.4 3.1-.2 4.3M144.4 27l2.4 6 5.2 1.3 1.6 3.5M138 41.7l5 3.7 4.8-1.3 3.7 1.6m-11.8 10.5 7 1.6 4-3.7 3.7.3m-4.7 14.7 6.6-2 2-5.3 3.7-1.6m3.2 15 4.8-5-1.4-5 1.9-3.4" style="stroke-width:2.5;stroke-linejoin:miter"/><path d="m161.3 33.3 5.8 5.8.2-8.2zm-4.3 3.9-2 5.6 8.1.2zM154.4 48l2.6 5.8 5.6-5.5zm12.4 3.7-5.8 5.6 6 2.3z" style="fill:#fc0;stroke:#ffcd00;stroke-width:.9"/></g><ellipse cx="169.7" cy="45.5" rx="3.7" ry="3.6" style="fill:#fc0;stroke:#ffcd00;stroke-width:.9"/><use href="#d" transform="rotate(180 169.7 45.4)"/></g></svg>
