<?xml version="1.0"?>
<svg width="30" height="20" xmlns="http://www.w3.org/2000/svg"><rect width="30" height="20" fill="#fff"/><rect width="30" height="10" fill="red"/><rect x="19" width="11" height="20" fill="#fff"/><path transform="rotate(-90)" d="m-15.42 25.82v-4.72h1.4v4.72q0 0.68-0.3 1.17t-0.82 0.75q-0.52 0.27-1.16 0.27-0.67 0-1.19-0.23-0.51-0.22-0.81-0.69-0.29-0.47-0.29-1.18h1.41q0 0.37 0.1 0.59 0.11 0.22 0.3 0.32 0.2 0.1 0.48 0.1 0.26 0 0.46-0.13 0.2-0.12 0.3-0.37 0.12-0.24 0.12-0.59zm5.26-3.56-1.85 5.65h-1.49l2.53-6.81h0.95zm1.54 5.65-1.86-5.65-0.15-1.16h0.962l2.546 6.81zm-0.08-2.53v1.09h-3.6v-1.09zm4.296 1.11 1.605-5.39h1.562l-2.372 6.81h-1.029zm-1.479-5.39 1.6 5.39 0.244 1.42h-1.043l-2.359-6.81z"/></svg>
