<svg width="30" height="20" xmlns="http://www.w3.org/2000/svg"><symbol id="ind" width="30" height="20"><rect width="30" height="20" fill="#fff"/><rect width="30" height="10" fill="red"/></symbol><use href="#ind"/><path d="M19 0h11v20H19z" fill="#fff"/><symbol id="J"><path d="m7.48 1v4.85q0 .25-.077.462-.072.21-.207.365-.13.15-.327.245-.19.086-.423.0865-.29 0-.49-.0769t-.327-.236q-.096-.13-.144-.317-.048-.19-.0481-.438h-1.36q0 .54.178.947.17.4.486.668.31.27.74.404.43.13.962.135.5 0 .933-.164.44-.16.76-.462.32-.3.505-.707.19-.41.192-.913l-.0048-4.85z"/></symbol><symbol id="A"><path d="m7.62 6.54.409 1.46h1.42l-2.25-7h-1.23l-2.29 7h1.42l.413-1.46zm-1.77-1.15.736-2.58.716 2.58z"/></symbol><symbol id="V"><path d="m5.81 8h1.38l2.12-7h-1.49l-1.19 4.57-.13.476-.12-.471-1.19-4.57h-1.49z"/></symbol><g transform="rotate(-90 15 -5)"><use x="-13" href="#J"/><use x="-6.5" href="#A"/><use href="#V"/></g></svg>
