<?xml version="1.0"?>
<svg width="30" height="20" xmlns="http://www.w3.org/2000/svg"><rect width="30" height="20" fill="#fff"/><rect width="30" height="10" fill="red"/><path d="M19 0h11v20H19z" fill="#fff"/><path transform="matrix(0 -.1.1 0 0 0)" d="m-153 211v47.2q0 2.4-.8 4.5-.7 2.1-2 3.6-1.3 1.4-3.1 2.3-1.9.9-4.2.9-2.8 0-4.7-.8-2-.7-3.2-2.3-1-1.2-1.4-3.1-.5-1.8-.5-4.2h-13.2q.1 5.3 1.7 9.2 1.7 3.9 4.8 6.5 3 2.6 7.2 3.9 4.2 1.4 9.3 1.4 4.9 0 9.1-1.6 4.3-1.6 7.4-4.5t4.9-6.9q1.9-4 1.9-8.9v-47.2zm63.88 53.9 3.98 14.2h13.86l-21.91-68.1h-11.91l-22.4 68.1h13.9l4-14.2zm-17.18-11.2 7.12-25.1 6.97 25.1zm62.11 25.4h13.39l20.64-68.1h-14.51l-11.61 44.4-1.26 4.7-1.17-4.6-11.56-44.5h-14.52z"/></svg>
