<svg width="30" height="20" xmlns="http://www.w3.org/2000/svg"><symbol id="ind" width="30" height="20"><rect width="30" height="20" fill="#fff"/><rect width="30" height="10" fill="red"/></symbol><use href="#ind"/><path d="M19 0h11v20H19z" fill="#fff"/><path transform="matrix(0 -.2.2 0 0 0)" d="m-76.5 105.5v23.6q0 1.2-.38 2.2-.35 1.1-1 1.8-.66.8-1.59 1.2-.94.4-2.06.4-1.41 0-2.39-.3-.98-.4-1.59-1.2-.47-.6-.7-1.5-.24-.9-.24-2.2h-6.6q0 2.7.87 4.7.84 1.9 2.36 3.2 1.5 1.3 3.61 2 2.1.6 4.68.6 2.43 0 4.54-.8 2.13-.8 3.7-2.2 1.56-1.5 2.45-3.5.92-2 .94-4.4v-23.6zm31.94 26.9 1.99 7.2h6.93l-10.95-34.1h-5.97l-11.17 34.1h6.93l2.01-7.2zm-8.61-5.5 3.58-12.6 3.49 12.6zm31.08 12.7h6.69l10.32-34.1h-7.26l-5.8 22.2-.63 2.3-.59-2.3-5.78-22.2h-7.25z"/></svg>
