<?xml version="1.0" encoding="UTF-8" standalone="no"?>
<!-- Creator: CorelDRAW Home & Student X8 -->

<svg
   xml:space="preserve"
   width="7.9375mm"
   height="5.291667mm"
   version="1.1"
   style="clip-rule:evenodd;fill-rule:evenodd;image-rendering:optimizeQuality;shape-rendering:geometricPrecision;text-rendering:geometricPrecision"
   viewBox="0 0 793.75 529.1667"
   id="svg9"
   sodipodi:docname="Karakalpakistan.svg"
   inkscape:version="1.4 (86a8ad7, 2024-10-11)"
   xmlns:inkscape="http://www.inkscape.org/namespaces/inkscape"
   xmlns:sodipodi="http://sodipodi.sourceforge.net/DTD/sodipodi-0.dtd"
   xmlns="http://www.w3.org/2000/svg"
   xmlns:svg="http://www.w3.org/2000/svg"><sodipodi:namedview
   id="namedview9"
   pagecolor="#ffffff"
   bordercolor="#000000"
   borderopacity="0.25"
   inkscape:showpageshadow="2"
   inkscape:pageopacity="0.0"
   inkscape:pagecheckerboard="0"
   inkscape:deskcolor="#d1d1d1"
   inkscape:document-units="mm"
   inkscape:zoom="1.4234583"
   inkscape:cx="425.37248"
   inkscape:cy="283.46457"
   inkscape:window-width="1920"
   inkscape:window-height="1009"
   inkscape:window-x="-8"
   inkscape:window-y="-8"
   inkscape:window-maximized="1"
   inkscape:current-layer="Layer_x0020_1" />
 <defs
   id="defs1">
  <style
   type="text/css"
   id="style1">
   <![CDATA[
    .fil1 {fill:#048EB8}
    .fil2 {fill:#219E3D}
    .fil3 {fill:#DE2D24}
    .fil4 {fill:#F9BF25}
    .fil0 {fill:#FEFEFE}
   ]]>
  </style>
 </defs>
 <g
   id="Layer_x0020_1"
   inkscape:label="Layer 1"
   inkscape:groupmode="layer">
  <metadata
   id="CorelCorpID_0Corel-Layer" />
  <rect
   class="fil0"
   width="793.75"
   height="529.16669"
   id="rect1"
   x="0"
   y="0"
   style="stroke-width:0.0352778" />
  <rect
   class="fil1"
   width="793.75"
   height="177.8"
   id="rect2"
   x="0"
   y="0"
   style="stroke-width:0.0352778" />
  <rect
   class="fil2"
   y="351.36667"
   width="793.75"
   height="177.8"
   id="rect3"
   x="0"
   style="stroke-width:0.0352778" />
  <rect
   class="fil3"
   y="182.03334"
   width="793.75"
   height="165.10001"
   id="rect4"
   x="0"
   style="stroke-width:0.0352778" />
  <rect
   class="fil4"
   y="192.61667"
   width="793.75"
   height="143.93333"
   id="rect5"
   x="0"
   style="stroke-width:0.0352778" />
  <path
   class="fil0"
   d="m 155.96306,49.459445 c -7.16139,-4.515556 -15.62806,-7.126111 -24.72973,-7.126111 -25.7175,0 -46.566662,20.849167 -46.566662,46.566667 0,25.717499 20.849162,46.566669 46.566662,46.566669 9.10167,0 17.56834,-2.61056 24.72973,-7.12611 -2.50473,0.52916 -5.11528,0.77611 -7.79639,0.77611 -22.225,0 -40.21667,-17.99167 -40.21667,-40.216669 0,-22.225 17.99167,-40.216667 40.21667,-40.216667 2.68111,0 5.29166,0.246944 7.79639,0.776111 z"
   id="path5"
   style="stroke-width:0.0352778" />
  <polygon
   class="fil0"
   points="5857,3190 5993,3605 5640,3348 5287,3605 5423,3190 5069,2935 5506,2935 5640,2520 5774,2935 6211,2935 "
   id="polygon5"
   transform="scale(0.03527778)" />
  <polygon
   class="fil0"
   points="6457,2470 6593,2885 6240,2628 5887,2885 6023,2470 5669,2215 6106,2215 6240,1800 6374,2215 6811,2215 "
   id="polygon6"
   transform="scale(0.03527778)" />
  <polygon
   class="fil0"
   points="7057,3190 7193,3605 6840,3348 6487,3605 6623,3190 6269,2935 6706,2935 6840,2520 6974,2935 7411,2935 "
   id="polygon7"
   transform="scale(0.03527778)" />
  <polygon
   class="fil0"
   points="7657,2470 7793,2885 7440,2628 7087,2885 7223,2470 6869,2215 7306,2215 7440,1800 7574,2215 8011,2215 "
   id="polygon8"
   transform="scale(0.03527778)" />
  <polygon
   class="fil0"
   points="8257,3190 8393,3605 8040,3348 7687,3605 7823,3190 7469,2935 7906,2935 8040,2520 8174,2935 8611,2935 "
   id="polygon9"
   transform="scale(0.03527778)" />
 </g>
</svg>
