<?xml version="1.0"?>
<svg width="30" height="20" xmlns="http://www.w3.org/2000/svg"><symbol id="Berber_flag" width="30" height="20" viewBox="0 0 900 600"><path d="M0 0h900v200H0z" fill="#0090DA"/><path d="M0 200h900v200H0z" fill="#78BE20"/><path d="M0 400h900v200H0z" fill="#FEDD00"/><path d="m429.68 477.64 28.455 30.081 8.13-409.75-16.26-17.073z" fill="#C03"/><path d="m657.32 515.85 54.471-23.577c-104.88-104.06-165.04-142.28-264.22-144.71-126.02 8.9431-208.13 59.349-243.09 159.35l24.39-4.8778c99.999-123.58 156.91-109.76 220.32-117.07 67.479 2.4391 136.58 46.341 208.13 130.89v-3e-4zm-367.48-422.76-52.032 13.821c50.406 89.43 122.76 143.9 215.44 147.97 122.76.81292 193.49-82.113 242.27-156.91l-41.463 12.195c-78.861 111.38-164.23 115.45-202.44 109.76-64.227-4.8778-117.07-57.723-161.79-126.83z" fill="#C03"/></symbol><use x="-6" href="#Berber_flag"/><path d="M19 0h11v20H19z" fill="#fff"/><path transform="matrix(0 -.2.2 0 0 0)" d="m-82.42 125.6 8.42 14h7.82l-11.89-19 11.47-15.1h-8.05l-8.29 11.4-3.09 4.2v-15.6h-6.6v34.1h6.6v-10.1zm37.86 6.8 1.99 7.2h6.93l-10.95-34.1h-5.97l-11.17 34.1h6.93l2.01-7.2zm-8.61-5.5 3.58-12.6 3.49 12.6zm23.07 12.7h12.43q2.81 0 5.05-.7 2.25-.6 3.819-1.9 1.568-1.2 2.41-3.1.843-1.9.843-4.3 0-1.3-.351-2.5-.328-1.2-1.03-2.3-.679-.9-1.685-1.6-.983-.8-2.666-1.2v-.1q.86-.3 1.566-.8.726-.4 1.287-1 1.03-1 1.545-2.4.538-1.4.562-2.9 0-2.4-.89-4.1-.866-1.8-2.481-2.9-1.619-1.2-3.909-1.8-2.27-.5-5.05-.5h-11.45zm6.6-15.1h6.13q1.38.1 2.39.4 1.01.4 1.64 1t.91 1.6q.31.9.31 2t-.4 2q-.38.9-1.13 1.5-.67.6-1.7.9-1.01.3-2.3.3h-5.85zm0-4.7v-9h4.87q1.59.1 2.76.4 1.19.3 1.9 1 .53.6.79 1.3.28.8.28 1.8t-.32 1.8q-.31.8-.89 1.3-.71.7-1.85 1-1.15.4-2.65.4z"/></svg>
