<?xml version="1.0"?>
<svg width="30" height="20" xmlns="http://www.w3.org/2000/svg"><symbol id="Berber_flag" width="30" height="20" viewBox="0 0 900 600"><path d="M0 0h900v200H0z" fill="#0090DA"/><path d="M0 200h900v200H0z" fill="#78BE20"/><path d="M0 400h900v200H0z" fill="#FEDD00"/><path d="m429.68 477.64 28.455 30.081 8.13-409.75-16.26-17.073z" fill="#C03"/><path d="m657.32 515.85 54.471-23.577c-104.88-104.06-165.04-142.28-264.22-144.71-126.02 8.9431-208.13 59.349-243.09 159.35l24.39-4.8778c99.999-123.58 156.91-109.76 220.32-117.07 67.479 2.4391 136.58 46.341 208.13 130.89v-3e-4zm-367.48-422.76-52.032 13.821c50.406 89.43 122.76 143.9 215.44 147.97 122.76.81292 193.49-82.113 242.27-156.91l-41.463 12.195c-78.861 111.38-164.23 115.45-202.44 109.76-64.227-4.8778-117.07-57.723-161.79-126.83z" fill="#C03"/></symbol><use x="-6" href="#Berber_flag"/><path d="M19 0h11v20H19z" fill="#fff"/><path transform="matrix(0 -.1.1 0 0 0)" d="m-164.8 251.1 16.8 28h15.6l-23.7-38 22.9-30.1h-16.1l-16.6 22.9-6.2 8.3v-31.2h-13.2v68.1h13.2v-20.1zm75.68 13.8 3.98 14.2h13.86l-21.91-68.1h-11.91l-22.4 68.1h13.9l4-14.2zm-17.18-11.2 7.12-25.1 6.97 25.1zm46.1 25.4h24.86q5.61 0 10.11-1.2 4.49-1.3 7.63-3.8 3.13-2.6 4.82-6.3 1.68-3.7 1.68-8.7 0-2.5-.7-4.9-.65-2.5-2.06-4.5-1.36-1.9-3.37-3.4-1.96-1.4-5.33-2.4 1.73-.7 3.13-1.6 1.45-1 2.58-2.1 2.06-2 3.09-4.7 1.07-2.8 1.12-5.9 0-4.8-1.78-8.3-1.73-3.5-4.96-5.8t-7.82-3.4q-4.54-1.1-10.11-1.1h-22.89zm13.2-30h12.27q2.76 0 4.77.7t3.28 2q1.26 1.3 1.82 3.1.61 1.8.61 4.1 0 2.2-.79 4-.75 1.8-2.25 3.1-1.36 1.1-3.42 1.7-2.01.7-4.59.7h-11.7zm0-9.5v-17.9h9.74q3.18 0 5.52.7 2.39.6 3.79 2.1 1.08 1 1.59 2.6.57 1.5.57 3.6 0 1.9-.66 3.5-.61 1.5-1.78 2.6-1.4 1.4-3.7 2.1-2.29.6-5.29.7z"/></svg>
