<svg width="30" height="20" xmlns="http://www.w3.org/2000/svg"><symbol id="Berber_flag" width="30" height="20" viewBox="0 0 900 600"><path d="M0 0h900v200H0z" fill="#0090DA"/><path d="M0 200h900v200H0z" fill="#78BE20"/><path d="M0 400h900v200H0z" fill="#FEDD00"/><path d="m429.68 477.64 28.455 30.081 8.13-409.75-16.26-17.073z" fill="#C03"/><path d="m657.32 515.85 54.471-23.577c-104.88-104.06-165.04-142.28-264.22-144.71-126.02 8.9431-208.13 59.349-243.09 159.35l24.39-4.8778c99.999-123.58 156.91-109.76 220.32-117.07 67.479 2.4391 136.58 46.341 208.13 130.89v-3e-4zm-367.48-422.76-52.032 13.821c50.406 89.43 122.76 143.9 215.44 147.97 122.76.81292 193.49-82.113 242.27-156.91l-41.463 12.195c-78.861 111.38-164.23 115.45-202.44 109.76-64.227-4.8778-117.07-57.723-161.79-126.83z" fill="#C03"/></symbol><use x="-6" href="#Berber_flag"/><path d="M19 0h11v20H19z" fill="#fff"/><symbol id="K"><path d="m6.26 5.12 1.73 2.88h1.61l-2.44-3.9 2.36-3.1h-1.65l-1.7 2.35-.635.856v-3.21h-1.36v7h1.36v-2.06z"/></symbol><symbol id="A"><path d="m7.62 6.54.409 1.46h1.42l-2.25-7h-1.23l-2.29 7h1.42l.413-1.46zm-1.77-1.15.736-2.58.716 2.58z"/></symbol><symbol id="B"><path d="m4.17 8h2.55q.58 0 1.04-.13.46-.13.784-.389t.495-.644q.17-.38.173-.889 0-.26-.0721-.51-.067-.25-.212-.462-.14-.2-.346-.346-.2-.15-.548-.245.18-.072.322-.168.15-.096.264-.212.21-.21.317-.49.11-.28.115-.601 0-.49-.183-.851-.18-.36-.51-.596-.33-.24-.803-.351-.47-.12-1.04-.115h-2.35zm1.36-3.09h1.26q.28 0 .49.077.21.072.337.207.13.13.188.317.062.19.062.423 0 .23-.082.409-.076.18-.23.312-.14.12-.351.183-.21.067-.471.0674h-1.2zm0-.976v-1.84h1q.33 0 .567.072.25.067.39.216.11.11.163.264.058.16.058.37 0 .2-.067.361-.063.16-.183.269-.14.14-.38.212-.24.067-.543.0721z"/></symbol><g transform="rotate(-90 15 -5)"><use x="-13" href="#K"/><use x="-6.5" href="#A"/><use href="#B"/></g></svg>
