<?xml version="1.0" encoding="UTF-8" standalone="no"?>
<!-- Creator: CorelDRAW Home & Student X8 -->

<svg
   xml:space="preserve"
   width="7.9375mm"
   height="5.2916665mm"
   version="1.1"
   style="clip-rule:evenodd;fill-rule:evenodd;image-rendering:optimizeQuality;shape-rendering:geometricPrecision;text-rendering:geometricPrecision"
   viewBox="0 0 793.75 529.16665"
   id="svg4"
   sodipodi:docname="Grönland.svg"
   inkscape:version="1.4 (86a8ad7, 2024-10-11)"
   xmlns:inkscape="http://www.inkscape.org/namespaces/inkscape"
   xmlns:sodipodi="http://sodipodi.sourceforge.net/DTD/sodipodi-0.dtd"
   xmlns="http://www.w3.org/2000/svg"
   xmlns:svg="http://www.w3.org/2000/svg"><sodipodi:namedview
   id="namedview4"
   pagecolor="#ffffff"
   bordercolor="#000000"
   borderopacity="0.25"
   inkscape:showpageshadow="2"
   inkscape:pageopacity="0.0"
   inkscape:pagecheckerboard="0"
   inkscape:deskcolor="#d1d1d1"
   inkscape:document-units="mm"
   inkscape:zoom="1.4234583"
   inkscape:cx="425.37248"
   inkscape:cy="283.46457"
   inkscape:window-width="1920"
   inkscape:window-height="1009"
   inkscape:window-x="-8"
   inkscape:window-y="-8"
   inkscape:window-maximized="1"
   inkscape:current-layer="Layer_x0020_1" />
 <defs
   id="defs1">
  <style
   type="text/css"
   id="style1">
   <![CDATA[
    .fil0 {fill:#E6333A}
    .fil1 {fill:#FEFEFE}
   ]]>
  </style>
 </defs>
 <g
   id="Layer_x0020_1"
   inkscape:label="Layer 1"
   inkscape:groupmode="layer">
  <metadata
   id="CorelCorpID_0Corel-Layer" />
  <path
   class="fil0"
   d="m 0,264.58334 h 132.29167 c 0,97.40194 78.98694,176.38889 176.38889,176.38889 97.40194,0 176.38889,-78.98695 176.38889,-176.38889 H 793.75001 V 529.16667 H 0 Z"
   id="path1"
   style="stroke-width:0.0352778" />
  <path
   class="fil0"
   d="m 485.06945,264.58334 c 0,-97.40195 -78.98695,-176.388895 -176.38889,-176.388895 -97.40195,0 -176.38889,78.986945 -176.38889,176.388895 z"
   id="path2"
   style="stroke-width:0.0352778" />
  <path
   class="fil1"
   d="m 0,264.58334 h 132.29167 c 0,-97.40195 78.98694,-176.388895 176.38889,-176.388895 97.40194,0 176.38889,78.986945 176.38889,176.388895 H 793.75001 V 0 H 0 Z"
   id="path3"
   style="stroke-width:0.0352778" />
  <path
   class="fil1"
   d="m 485.06945,264.58334 c 0,97.40194 -78.98695,176.38889 -176.38889,176.38889 -97.40195,0 -176.38889,-78.98695 -176.38889,-176.38889 z"
   id="path4"
   style="stroke-width:0.0352778" />
 </g>
</svg>
