<svg width="30" height="20" xmlns="http://www.w3.org/2000/svg"><path d="M0 0h30v20H0z" fill="#fff"/><path transform="scale(.1)" d="m55.7 109.6 26.55 44.1h24.65l-37.48-59.89 36.18-47.5h-25.41l-26.11 36.07-9.74 13.13v-49.2h-20.8v107.39h20.8v-31.6zm111.4 21.7 6.3 22.4h21.9l-34.6-107.39h-18.8l-35.2 107.39h21.9l6.3-22.4zm-27.1-17.6 11.3-39.58 11 39.58zm120.7 12q0 2.9-1.1 5.3-1.2 2.3-3.4 4t-5.5 2.7q-3.2 1-7.3 1-4.6 0-8.5-1.1-3.9-1-6.6-3.2-2.8-2.2-4.4-5.7-1.5-3.5-1.7-8.3h-20.3q0 8.3 3.2 14.5t8.7 10.8q5.9 4.6 13.7 7 7.9 2.4 15.9 2.4 8.2 0 15.1-1.9 7-2 12-5.8t7.8-9.3q2.9-5.5 2.9-12.6 0-8.2-3.8-14.4-3.7-6.3-10.1-11-4.2-2.9-9.2-5.11t-10.6-3.76q-5.1-1.4-9.2-3.02-4.1-1.63-7-3.62-2.9-1.92-4.4-4.35t-1.5-5.46q0-2.87 1.1-5.31 1.2-2.51 3.4-4.35 2.2-1.77 5.4-2.73 3.2-1.03 7.4-1.03 4.5 0 7.8 1.25 3.4 1.18 5.7 3.32 2.2 2.21 3.3 5.24 1.2 3.02 1.3 6.64h20.2q0-7.23-2.8-13.28t-7.8-10.47q-5-4.36-12-6.79-6.9-2.43-15.4-2.43-8.1 0-15 2.13-6.9 2.07-12 5.98t-8 9.44-2.9 12.32q0 5.9 2.2 10.91 2.2 5.02 6.5 9.15 4.2 4.13 11 7.63 6.7 3.4 15.7 5.9 5.7 1.5 9.6 3.4 3.9 1.7 6.3 3.9t3.3 4.7q1 2.5 1 5.4z"/></svg>
