<?xml version="1.0" encoding="UTF-8" standalone="no"?>
<!-- Created with Inkscape (http://www.inkscape.org/) -->

<svg
   width="7.9375mm"
   height="5.2916698mm"
   viewBox="0 0 7.9375 5.29167"
   version="1.1"
   id="svg1"
   inkscape:version="1.4 (86a8ad7, 2024-10-11)"
   sodipodi:docname="kat.svg"
   xmlns:inkscape="http://www.inkscape.org/namespaces/inkscape"
   xmlns:sodipodi="http://sodipodi.sourceforge.net/DTD/sodipodi-0.dtd"
   xmlns:xlink="http://www.w3.org/1999/xlink"
   xmlns="http://www.w3.org/2000/svg"
   xmlns:svg="http://www.w3.org/2000/svg">
  <sodipodi:namedview
     id="namedview1"
     pagecolor="#ffffff"
     bordercolor="#000000"
     borderopacity="0.25"
     inkscape:showpageshadow="2"
     inkscape:pageopacity="0.0"
     inkscape:pagecheckerboard="0"
     inkscape:deskcolor="#d1d1d1"
     inkscape:document-units="mm"
     inkscape:zoom="0.71891835"
     inkscape:cx="381.82361"
     inkscape:cy="55.639142"
     inkscape:window-width="1904"
     inkscape:window-height="992"
     inkscape:window-x="-26"
     inkscape:window-y="145"
     inkscape:window-maximized="0"
     inkscape:current-layer="layer1" />
  <defs
     id="defs1">
    <radialGradient
       id="n"
       cx="489.07001"
       cy="210.33"
       r="0.345"
       gradientTransform="matrix(0.00861722,0,0,0.0090267,-825.15993,-674.59387)"
       gradientUnits="userSpaceOnUse">
      <stop
         style="stop-color:#fff"
         offset="0"
         id="stop19" />
      <stop
         style="stop-color:#fff;stop-opacity:0"
         offset="1"
         id="stop21" />
    </radialGradient>
    <radialGradient
       id="m"
       cx="477.85999"
       cy="215.27"
       r="0.345"
       gradientUnits="userSpaceOnUse"
       gradientTransform="matrix(0.00881945,0,0,0.00881945,-825.15993,-674.59387)">
      <stop
         style="stop-color:#a50a0a"
         offset=".259"
         id="stop14" />
      <stop
         style="stop-color:#4c0505"
         offset="1"
         id="stop16" />
    </radialGradient>
    <linearGradient
       id="l"
       x1="473.31"
       x2="475.92999"
       y1="237.25"
       y2="270.45001"
       gradientUnits="userSpaceOnUse"
       gradientTransform="matrix(0.00881945,0,0,0.00881945,-825.15993,-674.59387)">
      <stop
         style="stop-color:#f9f0aa"
         offset=".216"
         id="stop39" />
      <stop
         style="stop-color:#b07e09"
         offset="1"
         id="stop41" />
    </linearGradient>
    <linearGradient
       id="k"
       x1="451.54001"
       x2="455.37"
       y1="249.52"
       y2="240.58"
       gradientUnits="userSpaceOnUse"
       gradientTransform="matrix(0.00881945,0,0,0.00881945,-825.15993,-674.59387)">
      <stop
         style="stop-color:#f9f0aa"
         offset=".216"
         id="stop34" />
      <stop
         style="stop-color:#b07e09"
         offset="1"
         id="stop36" />
    </linearGradient>
    <radialGradient
       id="j"
       cx="445.98001"
       cy="252.36"
       r="13.018"
       gradientUnits="userSpaceOnUse"
       xlink:href="#a"
       gradientTransform="matrix(0.00881945,0,0,0.00881945,-825.15993,-674.59387)" />
    <radialGradient
       id="a">
      <stop
         style="stop-color:#f9f0aa"
         offset=".216"
         id="stop4" />
      <stop
         style="stop-color:#b07e09"
         offset="1"
         id="stop6" />
    </radialGradient>
    <linearGradient
       id="i"
       x1="483.13"
       x2="485.5"
       y1="296.66"
       y2="326.57999"
       gradientUnits="userSpaceOnUse"
       gradientTransform="matrix(0.00881945,0,0,0.00881945,-825.15993,-674.59387)">
      <stop
         style="stop-color:#b07e09;stop-opacity:0"
         offset=".216"
         id="stop29" />
      <stop
         style="stop-color:#b07e09"
         offset="1"
         id="stop31" />
    </linearGradient>
    <linearGradient
       id="h"
       x1="473.91"
       x2="472.35999"
       y1="259.17001"
       y2="231.96001"
       gradientUnits="userSpaceOnUse"
       gradientTransform="matrix(0.00881945,0,0,0.00881945,-825.15993,-674.59387)">
      <stop
         style="stop-color:#b07e09;stop-opacity:0"
         offset=".216"
         id="stop24" />
      <stop
         style="stop-color:#b07e09"
         offset="1"
         id="stop26" />
    </linearGradient>
    <radialGradient
       id="g"
       cx="458.39001"
       cy="307.06"
       r="17.354"
       gradientUnits="userSpaceOnUse"
       xlink:href="#a"
       gradientTransform="matrix(0.00881945,0,0,0.00881945,-825.15993,-674.59387)" />
    <radialGradient
       id="radialGradient2">
      <stop
         style="stop-color:#f9f0aa"
         offset=".216"
         id="stop1" />
      <stop
         style="stop-color:#b07e09"
         offset="1"
         id="stop2" />
    </radialGradient>
    <radialGradient
       id="f"
       cx="454.10999"
       cy="308.64001"
       r="9.7799997"
       gradientUnits="userSpaceOnUse"
       xlink:href="#a"
       gradientTransform="matrix(0.00881945,0,0,0.00881945,-825.15993,-674.59387)" />
    <radialGradient
       id="radialGradient5">
      <stop
         style="stop-color:#f9f0aa"
         offset=".216"
         id="stop3" />
      <stop
         style="stop-color:#b07e09"
         offset="1"
         id="stop5" />
    </radialGradient>
    <radialGradient
       id="e"
       cx="451.56"
       cy="313"
       r="10.911"
       gradientUnits="userSpaceOnUse"
       xlink:href="#a"
       gradientTransform="matrix(0.00881945,0,0,0.00881945,-825.15993,-674.59387)" />
    <radialGradient
       id="radialGradient8">
      <stop
         style="stop-color:#f9f0aa"
         offset=".216"
         id="stop7" />
      <stop
         style="stop-color:#b07e09"
         offset="1"
         id="stop8" />
    </radialGradient>
    <radialGradient
       id="d"
       cx="447.42001"
       cy="308.26999"
       r="16.534"
       gradientUnits="userSpaceOnUse"
       xlink:href="#a"
       gradientTransform="matrix(0.00881945,0,0,0.00881945,-825.15993,-674.59387)" />
    <radialGradient
       id="radialGradient10">
      <stop
         style="stop-color:#f9f0aa"
         offset=".216"
         id="stop9" />
      <stop
         style="stop-color:#b07e09"
         offset="1"
         id="stop10" />
    </radialGradient>
  </defs>
  <g
     inkscape:label="Layer 1"
     inkscape:groupmode="layer"
     id="layer1"
     transform="translate(743.40367,604.47928)">
    <path
       fill="#ffffff"
       d="m -743.40367,-604.47928 h 7.9375 v 5.29167 h -7.9375 z"
       id="path437"
       style="stroke-width:0.264583" />
    <path
       d="m -739.96409,-604.47928 h 1.05834 v 5.29167 h -1.05834 z m -3.43958,2.11667 h 7.9375 v 1.05833 h -7.9375 z"
       id="path440"
       style="fill:#ff0000;stroke-width:0.264583" />
    <path
       id="path443"
       style="fill:#ff0000;stroke-width:0.264583"
       d="m -741.86993,-603.96229 a 2.7516664,2.7516664 0 0 1 0.0504,0.40569 2.7516664,2.7516664 0 0 1 -0.40571,-0.0504 1.4287499,1.4287499 0 0 1 0,0.37211 2.7516664,2.7516664 0 0 1 0.40571,-0.0504 2.7516664,2.7516664 0 0 1 -0.0504,0.4057 1.4287499,1.4287499 0 0 1 0.3721,0 2.7516664,2.7516664 0 0 1 -0.0504,-0.4057 2.7516664,2.7516664 0 0 1 0.4057,0.0504 1.4287499,1.4287499 0 0 1 0,-0.37211 2.7516664,2.7516664 0 0 1 -0.4057,0.0504 2.7516664,2.7516664 0 0 1 0.0504,-0.40569 1.4287499,1.4287499 0 0 1 -0.3721,0 z" />
    <path
       id="path446"
       style="fill:#ff0000;stroke-width:0.264583"
       d="m -737.37201,-603.96229 a 2.7516664,2.7516664 0 0 1 3.9e-4,0.002 2.7516661,2.7516661 0 0 1 0.006,0.0287 2.7516661,2.7516661 0 0 1 3e-5,2.9e-4 2.7516661,2.7516661 0 0 1 0.005,0.0285 2.7516661,2.7516661 0 0 1 1.8e-4,10e-4 2.7516664,2.7516664 0 0 1 1.4e-4,8.5e-4 2.7516661,2.7516661 0 0 1 1.1e-4,5.5e-4 2.7516664,2.7516664 0 0 1 5.6e-4,0.003 2.7516661,2.7516661 0 0 1 0.004,0.025 2.7516664,2.7516664 0 0 1 3.5e-4,0.002 2.7516661,2.7516661 0 0 1 1.4e-4,8.4e-4 2.7516664,2.7516664 0 0 1 1.8e-4,10e-4 2.7516661,2.7516661 0 0 1 0.005,0.0288 2.7516661,2.7516661 0 0 1 1.8e-4,10e-4 2.7516661,2.7516661 0 0 1 0.009,0.0623 2.7516664,2.7516664 0 0 1 4e-5,2.5e-4 2.7516661,2.7516661 0 0 1 0.004,0.0309 2.7516661,2.7516661 0 0 1 0,3e-5 2.7516661,2.7516661 0 0 1 0.003,0.031 2.7516661,2.7516661 0 0 1 3e-5,3.2e-4 2.7516664,2.7516664 0 0 1 1.8e-4,0.002 2.7516661,2.7516661 0 0 1 0.0121,0.15527 2.7516661,2.7516661 0 0 1 -0.40569,-0.0504 1.4287497,1.4287497 0 0 1 0,0.3721 2.7516661,2.7516661 0 0 1 0.40569,-0.0504 2.7516661,2.7516661 0 0 1 -0.0121,0.15525 2.7516661,2.7516661 0 0 1 -1.8e-4,0.002 2.7516664,2.7516664 0 0 1 -3e-5,3.2e-4 2.7516661,2.7516661 0 0 1 -0.003,0.031 2.7516664,2.7516664 0 0 1 0,4e-5 2.7516661,2.7516661 0 0 1 -0.004,0.0309 2.7516661,2.7516661 0 0 1 -4e-5,2.5e-4 2.7516661,2.7516661 0 0 1 -0.009,0.0623 2.7516664,2.7516664 0 0 1 -1.8e-4,10e-4 2.7516661,2.7516661 0 0 1 -0.005,0.0286 2.7516664,2.7516664 0 0 1 -4e-5,2.4e-4 2.7516661,2.7516661 0 0 1 -1.8e-4,10e-4 2.7516664,2.7516664 0 0 1 -4.7e-4,0.003 2.7516661,2.7516661 0 0 1 -0.004,0.025 2.7516664,2.7516664 0 0 1 -3.6e-4,0.002 2.7516661,2.7516661 0 0 1 -2.4e-4,10e-4 2.7516664,2.7516664 0 0 1 -4.5e-4,0.002 2.7516661,2.7516661 0 0 1 -0.005,0.0285 2.7516664,2.7516664 0 0 1 -4e-5,2.9e-4 2.7516661,2.7516661 0 0 1 -0.006,0.0287 2.7516664,2.7516664 0 0 1 -3.9e-4,0.002 1.4287497,1.4287497 0 0 1 0.0231,-0.003 1.4287497,1.4287497 0 0 1 0.0209,-0.002 1.4287499,1.4287499 0 0 1 0.007,-6.7e-4 1.4287497,1.4287497 0 0 1 0.0166,-10e-4 1.4287499,1.4287499 0 0 1 0.005,-3.8e-4 1.4287497,1.4287497 0 0 1 0.0165,-10e-4 1.4287499,1.4287499 0 0 1 0.008,-5.2e-4 1.4287497,1.4287497 0 0 1 0.0137,-7.9e-4 1.4287499,1.4287499 0 0 1 0.008,-4.3e-4 1.4287497,1.4287497 0 0 1 0.0159,-6.4e-4 1.4287499,1.4287499 0 0 1 0.006,-2.1e-4 1.4287497,1.4287497 0 0 1 0.0204,-5e-4 1.4287497,1.4287497 0 0 1 0.002,-4e-5 1.4287499,1.4287499 0 0 1 3.2e-4,0 1.4287497,1.4287497 0 0 1 0.046,0 1.4287497,1.4287497 0 0 1 3.1e-4,0 1.4287499,1.4287499 0 0 1 0.002,4e-5 1.4287497,1.4287497 0 0 1 0.0204,5e-4 1.4287499,1.4287499 0 0 1 0.006,2.1e-4 1.4287497,1.4287497 0 0 1 0.0159,6.4e-4 1.4287499,1.4287499 0 0 1 0.008,4.3e-4 1.4287497,1.4287497 0 0 1 0.0137,7.9e-4 1.4287499,1.4287499 0 0 1 0.008,5.2e-4 1.4287497,1.4287497 0 0 1 0.0165,10e-4 1.4287499,1.4287499 0 0 1 0.005,3.8e-4 1.4287497,1.4287497 0 0 1 0.0166,10e-4 1.4287499,1.4287499 0 0 1 0.007,6.7e-4 1.4287497,1.4287497 0 0 1 0.0209,0.002 1.4287497,1.4287497 0 0 1 0.0232,0.003 2.7516661,2.7516661 0 0 1 -0.006,-0.0301 2.7516661,2.7516661 0 0 1 -1.8e-4,-8.5e-4 2.7516664,2.7516664 0 0 1 -10e-4,-0.007 2.7516661,2.7516661 0 0 1 -0.004,-0.0214 2.7516664,2.7516664 0 0 1 -0.002,-0.0126 2.7516661,2.7516661 0 0 1 -0.003,-0.0176 2.7516664,2.7516664 0 0 1 -0.002,-0.0109 2.7516661,2.7516661 0 0 1 -0.003,-0.0204 2.7516664,2.7516664 0 0 1 -10e-4,-0.01 2.7516661,2.7516661 0 0 1 -0.003,-0.0193 2.7516664,2.7516664 0 0 1 -0.002,-0.0112 2.7516661,2.7516661 0 0 1 -0.003,-0.0199 2.7516664,2.7516664 0 0 1 -10e-4,-0.01 2.7516661,2.7516661 0 0 1 -0.003,-0.022 2.7516664,2.7516664 0 0 1 -9.3e-4,-0.008 2.7516661,2.7516661 0 0 1 -0.003,-0.0228 2.7516664,2.7516664 0 0 1 -8.7e-4,-0.008 2.7516661,2.7516661 0 0 1 -0.003,-0.0285 2.7516661,2.7516661 0 0 1 -1.1e-4,-0.001 2.7516661,2.7516661 0 0 1 -0.007,-0.0927 2.7516664,2.7516664 0 0 1 -2.8e-4,-0.005 2.7516661,2.7516661 0 0 1 -0.002,-0.0275 2.7516661,2.7516661 0 0 1 -1e-5,-1.8e-4 2.7516661,2.7516661 0 0 1 0.40569,0.0504 1.4287497,1.4287497 0 0 1 0,-0.37211 2.7516661,2.7516661 0 0 1 -0.40569,0.0504 2.7516664,2.7516664 0 0 1 0,-7e-5 2.7516661,2.7516661 0 0 1 0.002,-0.0279 2.7516664,2.7516664 0 0 1 2.5e-4,-0.005 2.7516661,2.7516661 0 0 1 0.007,-0.093 2.7516661,2.7516661 0 0 1 0.003,-0.0296 2.7516664,2.7516664 0 0 1 7.8e-4,-0.007 2.7516661,2.7516661 0 0 1 0.003,-0.0234 2.7516664,2.7516664 0 0 1 9e-4,-0.007 2.7516661,2.7516661 0 0 1 0.003,-0.0223 2.7516664,2.7516664 0 0 1 10e-4,-0.009 2.7516661,2.7516661 0 0 1 0.003,-0.0204 2.7516664,2.7516664 0 0 1 0.002,-0.0111 2.7516661,2.7516661 0 0 1 0.003,-0.0193 2.7516664,2.7516664 0 0 1 10e-4,-0.01 2.7516661,2.7516661 0 0 1 0.003,-0.0209 2.7516664,2.7516664 0 0 1 0.002,-0.01 2.7516661,2.7516661 0 0 1 0.003,-0.0182 2.7516664,2.7516664 0 0 1 0.002,-0.0123 2.7516661,2.7516661 0 0 1 0.004,-0.0214 2.7516661,2.7516661 0 0 1 10e-4,-0.007 2.7516664,2.7516664 0 0 1 1.7e-4,-8.4e-4 2.7516661,2.7516661 0 0 1 0.006,-0.0301 1.4287497,1.4287497 0 0 1 -0.0231,0.003 1.4287497,1.4287497 0 0 1 -0.0209,0.002 1.4287499,1.4287499 0 0 1 -0.007,6.7e-4 1.4287497,1.4287497 0 0 1 -0.0166,0.001 1.4287499,1.4287499 0 0 1 -0.005,3.8e-4 1.4287497,1.4287497 0 0 1 -0.0165,10e-4 1.4287499,1.4287499 0 0 1 -0.008,5.2e-4 1.4287497,1.4287497 0 0 1 -0.0137,8e-4 1.4287499,1.4287499 0 0 1 -0.008,4.3e-4 1.4287497,1.4287497 0 0 1 -0.0159,6.3e-4 1.4287499,1.4287499 0 0 1 -0.006,2.2e-4 1.4287497,1.4287497 0 0 1 -0.0204,4.9e-4 1.4287499,1.4287499 0 0 1 -0.002,4e-5 1.4287497,1.4287497 0 0 1 -3.2e-4,0 1.4287497,1.4287497 0 0 1 -0.046,0 1.4287499,1.4287499 0 0 1 -3.2e-4,0 1.4287497,1.4287497 0 0 1 -0.002,-4e-5 1.4287497,1.4287497 0 0 1 -0.0204,-4.9e-4 1.4287499,1.4287499 0 0 1 -0.006,-2.2e-4 1.4287497,1.4287497 0 0 1 -0.0159,-6.3e-4 1.4287499,1.4287499 0 0 1 -0.008,-4.3e-4 1.4287497,1.4287497 0 0 1 -0.0137,-8e-4 1.4287499,1.4287499 0 0 1 -0.008,-5.2e-4 1.4287497,1.4287497 0 0 1 -0.0165,-10e-4 1.4287499,1.4287499 0 0 1 -0.005,-3.8e-4 1.4287497,1.4287497 0 0 1 -0.0166,-0.001 1.4287499,1.4287499 0 0 1 -0.007,-6.7e-4 1.4287497,1.4287497 0 0 1 -0.0209,-0.002 1.4287497,1.4287497 0 0 1 -0.0232,-0.003 z" />
    <path
       id="path449"
       style="fill:#ff0000;stroke-width:0.264583"
       d="m -741.86993,-600.78729 a 2.7516661,2.7516661 0 0 1 3.8e-4,0.002 2.7516659,2.7516659 0 0 1 0.006,0.0287 2.7516659,2.7516659 0 0 1 3e-5,2.8e-4 2.7516659,2.7516659 0 0 1 0.005,0.0285 2.7516659,2.7516659 0 0 1 1.8e-4,10e-4 2.7516661,2.7516661 0 0 1 1.4e-4,8.4e-4 2.7516659,2.7516659 0 0 1 1.1e-4,5.6e-4 2.7516661,2.7516661 0 0 1 5.6e-4,0.003 2.7516659,2.7516659 0 0 1 0.004,0.025 2.7516661,2.7516661 0 0 1 3.1e-4,0.002 2.7516659,2.7516659 0 0 1 1.4e-4,8.4e-4 2.7516661,2.7516661 0 0 1 1.8e-4,10e-4 2.7516659,2.7516659 0 0 1 0.005,0.0288 2.7516659,2.7516659 0 0 1 1.8e-4,10e-4 2.7516659,2.7516659 0 0 1 0.009,0.0623 2.7516661,2.7516661 0 0 1 4e-5,2.5e-4 2.7516659,2.7516659 0 0 1 0.004,0.0309 2.7516659,2.7516659 0 0 1 0,4e-5 2.7516659,2.7516659 0 0 1 0.003,0.031 2.7516659,2.7516659 0 0 1 4e-5,3.5e-4 2.7516661,2.7516661 0 0 1 1.8e-4,0.002 2.7516659,2.7516659 0 0 1 0.0121,0.15528 2.7516659,2.7516659 0 0 1 -0.40569,-0.0504 1.4287495,1.4287495 0 0 1 0,0.3721 2.7516659,2.7516659 0 0 1 0.40569,-0.0504 2.7516659,2.7516659 0 0 1 -0.0121,0.15525 2.7516659,2.7516659 0 0 1 -1.8e-4,0.002 2.7516661,2.7516661 0 0 1 -4e-5,3.1e-4 2.7516659,2.7516659 0 0 1 -0.003,0.031 2.7516661,2.7516661 0 0 1 0,3e-5 2.7516659,2.7516659 0 0 1 -0.004,0.031 2.7516659,2.7516659 0 0 1 -4e-5,2.4e-4 2.7516659,2.7516659 0 0 1 -0.009,0.0623 2.7516661,2.7516661 0 0 1 -1.8e-4,10e-4 2.7516659,2.7516659 0 0 1 -0.005,0.0286 2.7516661,2.7516661 0 0 1 -4e-5,2.4e-4 2.7516659,2.7516659 0 0 1 -1.8e-4,10e-4 2.7516661,2.7516661 0 0 1 -4.6e-4,0.003 2.7516659,2.7516659 0 0 1 -0.004,0.025 2.7516661,2.7516661 0 0 1 -3.2e-4,0.002 2.7516659,2.7516659 0 0 1 -2.5e-4,10e-4 2.7516661,2.7516661 0 0 1 -4.5e-4,0.002 2.7516659,2.7516659 0 0 1 -0.005,0.0285 2.7516661,2.7516661 0 0 1 -4e-5,2.8e-4 2.7516659,2.7516659 0 0 1 -0.006,0.0287 2.7516661,2.7516661 0 0 1 -3.8e-4,0.002 1.4287495,1.4287495 0 0 1 0.0231,-0.003 1.4287495,1.4287495 0 0 1 0.0209,-0.002 1.4287497,1.4287497 0 0 1 0.007,-6.8e-4 1.4287495,1.4287495 0 0 1 0.0166,-0.002 1.4287497,1.4287497 0 0 1 0.005,-3.9e-4 1.4287495,1.4287495 0 0 1 0.0165,-10e-4 1.4287497,1.4287497 0 0 1 0.008,-5.1e-4 1.4287495,1.4287495 0 0 1 0.0137,-7.8e-4 1.4287497,1.4287497 0 0 1 0.008,-4.2e-4 1.4287495,1.4287495 0 0 1 0.0159,-6.4e-4 1.4287497,1.4287497 0 0 1 0.006,-2.1e-4 1.4287495,1.4287495 0 0 1 0.0204,-5.1e-4 1.4287495,1.4287495 0 0 1 0.001,-3e-5 1.4287497,1.4287497 0 0 1 3.2e-4,0 1.4287495,1.4287495 0 0 1 0.046,0 1.4287495,1.4287495 0 0 1 3.1e-4,0 1.4287497,1.4287497 0 0 1 10e-4,3e-5 1.4287495,1.4287495 0 0 1 0.0204,5.1e-4 1.4287497,1.4287497 0 0 1 0.006,2.1e-4 1.4287495,1.4287495 0 0 1 0.0159,6.4e-4 1.4287497,1.4287497 0 0 1 0.008,4.2e-4 1.4287495,1.4287495 0 0 1 0.0137,7.8e-4 1.4287497,1.4287497 0 0 1 0.008,5.1e-4 1.4287495,1.4287495 0 0 1 0.0165,10e-4 1.4287497,1.4287497 0 0 1 0.005,3.9e-4 1.4287495,1.4287495 0 0 1 0.0166,0.002 1.4287497,1.4287497 0 0 1 0.007,6.8e-4 1.4287495,1.4287495 0 0 1 0.0209,0.002 1.4287495,1.4287495 0 0 1 0.0231,0.003 2.7516659,2.7516659 0 0 1 -0.006,-0.0301 2.7516659,2.7516659 0 0 1 -1.7e-4,-8.4e-4 2.7516661,2.7516661 0 0 1 -10e-4,-0.007 2.7516659,2.7516659 0 0 1 -0.004,-0.0214 2.7516661,2.7516661 0 0 1 -0.002,-0.0126 2.7516659,2.7516659 0 0 1 -0.003,-0.0176 2.7516661,2.7516661 0 0 1 -0.002,-0.0109 2.7516659,2.7516659 0 0 1 -0.003,-0.0204 2.7516661,2.7516661 0 0 1 -10e-4,-0.01 2.7516659,2.7516659 0 0 1 -0.003,-0.0193 2.7516661,2.7516661 0 0 1 -0.002,-0.0112 2.7516659,2.7516659 0 0 1 -0.003,-0.0199 2.7516661,2.7516661 0 0 1 -10e-4,-0.01 2.7516659,2.7516659 0 0 1 -0.003,-0.0219 2.7516661,2.7516661 0 0 1 -9.1e-4,-0.008 2.7516659,2.7516659 0 0 1 -0.003,-0.0228 2.7516661,2.7516661 0 0 1 -8.6e-4,-0.008 2.7516659,2.7516659 0 0 1 -0.003,-0.0285 2.7516659,2.7516659 0 0 1 -1.1e-4,-0.001 2.7516659,2.7516659 0 0 1 -0.007,-0.0927 2.7516661,2.7516661 0 0 1 -2.8e-4,-0.005 2.7516659,2.7516659 0 0 1 -10e-4,-0.0275 2.7516659,2.7516659 0 0 1 -2e-5,-1.8e-4 2.7516659,2.7516659 0 0 1 0.4057,0.0504 1.4287495,1.4287495 0 0 1 0,-0.3721 2.7516659,2.7516659 0 0 1 -0.4057,0.0504 2.7516661,2.7516661 0 0 1 0,-7e-5 2.7516659,2.7516659 0 0 1 0.002,-0.0279 2.7516661,2.7516661 0 0 1 2.5e-4,-0.005 2.7516659,2.7516659 0 0 1 0.007,-0.093 2.7516659,2.7516659 0 0 1 0.003,-0.0296 2.7516661,2.7516661 0 0 1 7.9e-4,-0.007 2.7516659,2.7516659 0 0 1 0.003,-0.0234 2.7516661,2.7516661 0 0 1 8.9e-4,-0.007 2.7516659,2.7516659 0 0 1 0.003,-0.0223 2.7516661,2.7516661 0 0 1 0.001,-0.009 2.7516659,2.7516659 0 0 1 0.003,-0.0204 2.7516661,2.7516661 0 0 1 0.002,-0.0111 2.7516659,2.7516659 0 0 1 0.003,-0.0193 2.7516661,2.7516661 0 0 1 0.001,-0.01 2.7516659,2.7516659 0 0 1 0.003,-0.0209 2.7516661,2.7516661 0 0 1 0.002,-0.01 2.7516659,2.7516659 0 0 1 0.003,-0.0182 2.7516661,2.7516661 0 0 1 0.002,-0.0123 2.7516659,2.7516659 0 0 1 0.004,-0.0214 2.7516659,2.7516659 0 0 1 0.001,-0.007 2.7516661,2.7516661 0 0 1 1.7e-4,-8.3e-4 2.7516659,2.7516659 0 0 1 0.006,-0.0301 1.4287495,1.4287495 0 0 1 -0.0231,0.003 1.4287495,1.4287495 0 0 1 -0.0209,0.002 1.4287497,1.4287497 0 0 1 -0.007,6.7e-4 1.4287495,1.4287495 0 0 1 -0.0166,0.002 1.4287497,1.4287497 0 0 1 -0.005,4e-4 1.4287495,1.4287495 0 0 1 -0.0165,10e-4 1.4287497,1.4287497 0 0 1 -0.008,5e-4 1.4287495,1.4287495 0 0 1 -0.0137,7.8e-4 1.4287497,1.4287497 0 0 1 -0.008,4.2e-4 1.4287495,1.4287495 0 0 1 -0.0159,6.5e-4 1.4287497,1.4287497 0 0 1 -0.006,2.1e-4 1.4287495,1.4287495 0 0 1 -0.0204,5.1e-4 1.4287497,1.4287497 0 0 1 -10e-4,3e-5 1.4287495,1.4287495 0 0 1 -3.2e-4,0 1.4287495,1.4287495 0 0 1 -0.046,0 1.4287497,1.4287497 0 0 1 -3.2e-4,0 1.4287495,1.4287495 0 0 1 -0.002,-3e-5 1.4287495,1.4287495 0 0 1 -0.0204,-5.1e-4 1.4287497,1.4287497 0 0 1 -0.006,-2.1e-4 1.4287495,1.4287495 0 0 1 -0.0159,-6.5e-4 1.4287497,1.4287497 0 0 1 -0.008,-4.2e-4 1.4287495,1.4287495 0 0 1 -0.0137,-7.8e-4 1.4287497,1.4287497 0 0 1 -0.008,-5e-4 1.4287495,1.4287495 0 0 1 -0.0165,-10e-4 1.4287497,1.4287497 0 0 1 -0.005,-4e-4 1.4287495,1.4287495 0 0 1 -0.0166,-0.002 1.4287497,1.4287497 0 0 1 -0.007,-6.7e-4 1.4287495,1.4287495 0 0 1 -0.0209,-0.002 1.4287495,1.4287495 0 0 1 -0.0231,-0.003 z" />
    <path
       id="path452"
       style="fill:#ff0000;stroke-width:0.264583"
       d="m -737.37201,-600.78729 a 2.7516664,2.7516664 0 0 1 3.9e-4,0.002 2.7516661,2.7516661 0 0 1 0.006,0.0287 2.7516661,2.7516661 0 0 1 3e-5,2.8e-4 2.7516661,2.7516661 0 0 1 0.005,0.0285 2.7516661,2.7516661 0 0 1 1.8e-4,10e-4 2.7516664,2.7516664 0 0 1 1.4e-4,8.4e-4 2.7516661,2.7516661 0 0 1 1.1e-4,5.6e-4 2.7516664,2.7516664 0 0 1 5.6e-4,0.003 2.7516661,2.7516661 0 0 1 0.004,0.025 2.7516664,2.7516664 0 0 1 3.5e-4,0.002 2.7516661,2.7516661 0 0 1 1.4e-4,8.4e-4 2.7516664,2.7516664 0 0 1 1.8e-4,10e-4 2.7516661,2.7516661 0 0 1 0.005,0.0288 2.7516661,2.7516661 0 0 1 1.8e-4,10e-4 2.7516661,2.7516661 0 0 1 0.009,0.0623 2.7516664,2.7516664 0 0 1 4e-5,2.5e-4 2.7516661,2.7516661 0 0 1 0.004,0.0309 2.7516661,2.7516661 0 0 1 0,4e-5 2.7516661,2.7516661 0 0 1 0.003,0.031 2.7516661,2.7516661 0 0 1 3e-5,3.5e-4 2.7516664,2.7516664 0 0 1 1.8e-4,0.002 2.7516661,2.7516661 0 0 1 0.0121,0.15528 2.7516661,2.7516661 0 0 1 -0.40569,-0.0504 1.4287497,1.4287497 0 0 1 0,0.3721 2.7516661,2.7516661 0 0 1 0.40569,-0.0504 2.7516661,2.7516661 0 0 1 -0.0121,0.15525 2.7516661,2.7516661 0 0 1 -1.8e-4,0.002 2.7516664,2.7516664 0 0 1 -3e-5,3.1e-4 2.7516661,2.7516661 0 0 1 -0.003,0.031 2.7516664,2.7516664 0 0 1 0,3e-5 2.7516661,2.7516661 0 0 1 -0.004,0.031 2.7516661,2.7516661 0 0 1 -4e-5,2.4e-4 2.7516661,2.7516661 0 0 1 -0.009,0.0623 2.7516664,2.7516664 0 0 1 -1.8e-4,10e-4 2.7516661,2.7516661 0 0 1 -0.005,0.0286 2.7516664,2.7516664 0 0 1 -4e-5,2.4e-4 2.7516661,2.7516661 0 0 1 -1.8e-4,10e-4 2.7516664,2.7516664 0 0 1 -4.7e-4,0.003 2.7516661,2.7516661 0 0 1 -0.004,0.025 2.7516664,2.7516664 0 0 1 -3.6e-4,0.002 2.7516661,2.7516661 0 0 1 -2.4e-4,10e-4 2.7516664,2.7516664 0 0 1 -4.5e-4,0.002 2.7516661,2.7516661 0 0 1 -0.005,0.0285 2.7516664,2.7516664 0 0 1 -4e-5,2.8e-4 2.7516661,2.7516661 0 0 1 -0.006,0.0287 2.7516664,2.7516664 0 0 1 -3.9e-4,0.002 1.4287497,1.4287497 0 0 1 0.0231,-0.003 1.4287497,1.4287497 0 0 1 0.0209,-0.002 1.4287499,1.4287499 0 0 1 0.007,-6.8e-4 1.4287497,1.4287497 0 0 1 0.0166,-0.002 1.4287499,1.4287499 0 0 1 0.005,-3.9e-4 1.4287497,1.4287497 0 0 1 0.0165,-10e-4 1.4287499,1.4287499 0 0 1 0.008,-5.1e-4 1.4287497,1.4287497 0 0 1 0.0137,-7.8e-4 1.4287499,1.4287499 0 0 1 0.008,-4.2e-4 1.4287497,1.4287497 0 0 1 0.0159,-6.4e-4 1.4287499,1.4287499 0 0 1 0.006,-2.1e-4 1.4287497,1.4287497 0 0 1 0.0204,-5.1e-4 1.4287497,1.4287497 0 0 1 0.002,-3e-5 1.4287499,1.4287499 0 0 1 3.2e-4,0 1.4287497,1.4287497 0 0 1 0.046,0 1.4287497,1.4287497 0 0 1 3.1e-4,0 1.4287499,1.4287499 0 0 1 0.002,3e-5 1.4287497,1.4287497 0 0 1 0.0204,5.1e-4 1.4287499,1.4287499 0 0 1 0.006,2.1e-4 1.4287497,1.4287497 0 0 1 0.0159,6.4e-4 1.4287499,1.4287499 0 0 1 0.008,4.2e-4 1.4287497,1.4287497 0 0 1 0.0137,7.8e-4 1.4287499,1.4287499 0 0 1 0.008,5.1e-4 1.4287497,1.4287497 0 0 1 0.0165,10e-4 1.4287499,1.4287499 0 0 1 0.005,3.9e-4 1.4287497,1.4287497 0 0 1 0.0166,0.002 1.4287499,1.4287499 0 0 1 0.007,6.8e-4 1.4287497,1.4287497 0 0 1 0.0209,0.002 1.4287497,1.4287497 0 0 1 0.0232,0.003 2.7516661,2.7516661 0 0 1 -0.006,-0.0301 2.7516661,2.7516661 0 0 1 -1.8e-4,-8.4e-4 2.7516664,2.7516664 0 0 1 -10e-4,-0.007 2.7516661,2.7516661 0 0 1 -0.004,-0.0214 2.7516664,2.7516664 0 0 1 -0.002,-0.0126 2.7516661,2.7516661 0 0 1 -0.003,-0.0176 2.7516664,2.7516664 0 0 1 -0.002,-0.0109 2.7516661,2.7516661 0 0 1 -0.003,-0.0204 2.7516664,2.7516664 0 0 1 -10e-4,-0.01 2.7516661,2.7516661 0 0 1 -0.003,-0.0193 2.7516664,2.7516664 0 0 1 -0.002,-0.0112 2.7516661,2.7516661 0 0 1 -0.003,-0.0199 2.7516664,2.7516664 0 0 1 -10e-4,-0.01 2.7516661,2.7516661 0 0 1 -0.003,-0.0219 2.7516664,2.7516664 0 0 1 -9.3e-4,-0.008 2.7516661,2.7516661 0 0 1 -0.003,-0.0228 2.7516664,2.7516664 0 0 1 -8.7e-4,-0.008 2.7516661,2.7516661 0 0 1 -0.003,-0.0285 2.7516661,2.7516661 0 0 1 -1.1e-4,-0.001 2.7516661,2.7516661 0 0 1 -0.007,-0.0927 2.7516664,2.7516664 0 0 1 -2.8e-4,-0.005 2.7516661,2.7516661 0 0 1 -0.002,-0.0275 2.7516661,2.7516661 0 0 1 -1e-5,-1.8e-4 2.7516661,2.7516661 0 0 1 0.40569,0.0504 1.4287497,1.4287497 0 0 1 0,-0.3721 2.7516661,2.7516661 0 0 1 -0.40569,0.0504 2.7516664,2.7516664 0 0 1 0,-7e-5 2.7516661,2.7516661 0 0 1 0.002,-0.0279 2.7516664,2.7516664 0 0 1 2.5e-4,-0.005 2.7516661,2.7516661 0 0 1 0.007,-0.093 2.7516661,2.7516661 0 0 1 0.003,-0.0296 2.7516664,2.7516664 0 0 1 7.8e-4,-0.007 2.7516661,2.7516661 0 0 1 0.003,-0.0234 2.7516664,2.7516664 0 0 1 9e-4,-0.007 2.7516661,2.7516661 0 0 1 0.003,-0.0223 2.7516664,2.7516664 0 0 1 10e-4,-0.009 2.7516661,2.7516661 0 0 1 0.003,-0.0204 2.7516664,2.7516664 0 0 1 0.002,-0.0111 2.7516661,2.7516661 0 0 1 0.003,-0.0193 2.7516664,2.7516664 0 0 1 10e-4,-0.01 2.7516661,2.7516661 0 0 1 0.003,-0.0209 2.7516664,2.7516664 0 0 1 0.002,-0.01 2.7516661,2.7516661 0 0 1 0.003,-0.0182 2.7516664,2.7516664 0 0 1 0.002,-0.0123 2.7516661,2.7516661 0 0 1 0.004,-0.0214 2.7516661,2.7516661 0 0 1 10e-4,-0.007 2.7516664,2.7516664 0 0 1 1.7e-4,-8.3e-4 2.7516661,2.7516661 0 0 1 0.006,-0.0301 1.4287497,1.4287497 0 0 1 -0.0231,0.003 1.4287497,1.4287497 0 0 1 -0.0209,0.002 1.4287499,1.4287499 0 0 1 -0.007,6.7e-4 1.4287497,1.4287497 0 0 1 -0.0166,0.002 1.4287499,1.4287499 0 0 1 -0.005,4e-4 1.4287497,1.4287497 0 0 1 -0.0165,10e-4 1.4287499,1.4287499 0 0 1 -0.008,5e-4 1.4287497,1.4287497 0 0 1 -0.0137,7.8e-4 1.4287499,1.4287499 0 0 1 -0.008,4.2e-4 1.4287497,1.4287497 0 0 1 -0.0159,6.5e-4 1.4287499,1.4287499 0 0 1 -0.006,2.1e-4 1.4287497,1.4287497 0 0 1 -0.0204,5.1e-4 1.4287499,1.4287499 0 0 1 -0.002,3e-5 1.4287497,1.4287497 0 0 1 -3.2e-4,0 1.4287497,1.4287497 0 0 1 -0.046,0 1.4287499,1.4287499 0 0 1 -3.2e-4,0 1.4287497,1.4287497 0 0 1 -0.002,-3e-5 1.4287497,1.4287497 0 0 1 -0.0204,-5.1e-4 1.4287499,1.4287499 0 0 1 -0.006,-2.1e-4 1.4287497,1.4287497 0 0 1 -0.0159,-6.5e-4 1.4287499,1.4287499 0 0 1 -0.008,-4.2e-4 1.4287497,1.4287497 0 0 1 -0.0137,-7.8e-4 1.4287499,1.4287499 0 0 1 -0.008,-5e-4 1.4287497,1.4287497 0 0 1 -0.0165,-10e-4 1.4287499,1.4287499 0 0 1 -0.005,-4e-4 1.4287497,1.4287497 0 0 1 -0.0166,-0.002 1.4287499,1.4287499 0 0 1 -0.007,-6.7e-4 1.4287497,1.4287497 0 0 1 -0.0209,-0.002 1.4287497,1.4287497 0 0 1 -0.0232,-0.003 z" />
  </g>
</svg>
