<?xml version="1.0" encoding="UTF-8" standalone="no"?>
<!-- Created with Inkscape (http://www.inkscape.org/) -->

<svg
   width="7.9375mm"
   height="5.2916698mm"
   viewBox="0 0 7.9375 5.29167"
   version="1.1"
   id="svg1"
   inkscape:version="1.4 (86a8ad7, 2024-10-11)"
   sodipodi:docname="kaz.svg"
   xmlns:inkscape="http://www.inkscape.org/namespaces/inkscape"
   xmlns:sodipodi="http://sodipodi.sourceforge.net/DTD/sodipodi-0.dtd"
   xmlns:xlink="http://www.w3.org/1999/xlink"
   xmlns="http://www.w3.org/2000/svg"
   xmlns:svg="http://www.w3.org/2000/svg">
  <sodipodi:namedview
     id="namedview1"
     pagecolor="#ffffff"
     bordercolor="#000000"
     borderopacity="0.25"
     inkscape:showpageshadow="2"
     inkscape:pageopacity="0.0"
     inkscape:pagecheckerboard="0"
     inkscape:deskcolor="#d1d1d1"
     inkscape:document-units="mm"
     inkscape:zoom="0.71891835"
     inkscape:cx="561.25984"
     inkscape:cy="353.30855"
     inkscape:window-width="1904"
     inkscape:window-height="992"
     inkscape:window-x="-26"
     inkscape:window-y="145"
     inkscape:window-maximized="0"
     inkscape:current-layer="layer1" />
  <defs
     id="defs1">
    <radialGradient
       id="n"
       cx="489.07001"
       cy="210.33"
       r="0.345"
       gradientTransform="matrix(0.00861722,0,0,0.0090267,-825.15993,-674.59387)"
       gradientUnits="userSpaceOnUse">
      <stop
         style="stop-color:#fff"
         offset="0"
         id="stop19" />
      <stop
         style="stop-color:#fff;stop-opacity:0"
         offset="1"
         id="stop21" />
    </radialGradient>
    <radialGradient
       id="m"
       cx="477.85999"
       cy="215.27"
       r="0.345"
       gradientUnits="userSpaceOnUse"
       gradientTransform="matrix(0.00881945,0,0,0.00881945,-825.15993,-674.59387)">
      <stop
         style="stop-color:#a50a0a"
         offset=".259"
         id="stop14" />
      <stop
         style="stop-color:#4c0505"
         offset="1"
         id="stop16" />
    </radialGradient>
    <linearGradient
       id="l"
       x1="473.31"
       x2="475.92999"
       y1="237.25"
       y2="270.45001"
       gradientUnits="userSpaceOnUse"
       gradientTransform="matrix(0.00881945,0,0,0.00881945,-825.15993,-674.59387)">
      <stop
         style="stop-color:#f9f0aa"
         offset=".216"
         id="stop39" />
      <stop
         style="stop-color:#b07e09"
         offset="1"
         id="stop41" />
    </linearGradient>
    <linearGradient
       id="k"
       x1="451.54001"
       x2="455.37"
       y1="249.52"
       y2="240.58"
       gradientUnits="userSpaceOnUse"
       gradientTransform="matrix(0.00881945,0,0,0.00881945,-825.15993,-674.59387)">
      <stop
         style="stop-color:#f9f0aa"
         offset=".216"
         id="stop34" />
      <stop
         style="stop-color:#b07e09"
         offset="1"
         id="stop36" />
    </linearGradient>
    <radialGradient
       id="j"
       cx="445.98001"
       cy="252.36"
       r="13.018"
       gradientUnits="userSpaceOnUse"
       xlink:href="#a"
       gradientTransform="matrix(0.00881945,0,0,0.00881945,-825.15993,-674.59387)" />
    <radialGradient
       id="a">
      <stop
         style="stop-color:#f9f0aa"
         offset=".216"
         id="stop4" />
      <stop
         style="stop-color:#b07e09"
         offset="1"
         id="stop6" />
    </radialGradient>
    <linearGradient
       id="i"
       x1="483.13"
       x2="485.5"
       y1="296.66"
       y2="326.57999"
       gradientUnits="userSpaceOnUse"
       gradientTransform="matrix(0.00881945,0,0,0.00881945,-825.15993,-674.59387)">
      <stop
         style="stop-color:#b07e09;stop-opacity:0"
         offset=".216"
         id="stop29" />
      <stop
         style="stop-color:#b07e09"
         offset="1"
         id="stop31" />
    </linearGradient>
    <linearGradient
       id="h"
       x1="473.91"
       x2="472.35999"
       y1="259.17001"
       y2="231.96001"
       gradientUnits="userSpaceOnUse"
       gradientTransform="matrix(0.00881945,0,0,0.00881945,-825.15993,-674.59387)">
      <stop
         style="stop-color:#b07e09;stop-opacity:0"
         offset=".216"
         id="stop24" />
      <stop
         style="stop-color:#b07e09"
         offset="1"
         id="stop26" />
    </linearGradient>
    <radialGradient
       id="g"
       cx="458.39001"
       cy="307.06"
       r="17.354"
       gradientUnits="userSpaceOnUse"
       xlink:href="#a"
       gradientTransform="matrix(0.00881945,0,0,0.00881945,-825.15993,-674.59387)" />
    <radialGradient
       id="radialGradient2">
      <stop
         style="stop-color:#f9f0aa"
         offset=".216"
         id="stop1" />
      <stop
         style="stop-color:#b07e09"
         offset="1"
         id="stop2" />
    </radialGradient>
    <radialGradient
       id="f"
       cx="454.10999"
       cy="308.64001"
       r="9.7799997"
       gradientUnits="userSpaceOnUse"
       xlink:href="#a"
       gradientTransform="matrix(0.00881945,0,0,0.00881945,-825.15993,-674.59387)" />
    <radialGradient
       id="radialGradient5">
      <stop
         style="stop-color:#f9f0aa"
         offset=".216"
         id="stop3" />
      <stop
         style="stop-color:#b07e09"
         offset="1"
         id="stop5" />
    </radialGradient>
    <radialGradient
       id="e"
       cx="451.56"
       cy="313"
       r="10.911"
       gradientUnits="userSpaceOnUse"
       xlink:href="#a"
       gradientTransform="matrix(0.00881945,0,0,0.00881945,-825.15993,-674.59387)" />
    <radialGradient
       id="radialGradient8">
      <stop
         style="stop-color:#f9f0aa"
         offset=".216"
         id="stop7" />
      <stop
         style="stop-color:#b07e09"
         offset="1"
         id="stop8" />
    </radialGradient>
    <radialGradient
       id="d"
       cx="447.42001"
       cy="308.26999"
       r="16.534"
       gradientUnits="userSpaceOnUse"
       xlink:href="#a"
       gradientTransform="matrix(0.00881945,0,0,0.00881945,-825.15993,-674.59387)" />
    <radialGradient
       id="radialGradient10">
      <stop
         style="stop-color:#f9f0aa"
         offset=".216"
         id="stop9" />
      <stop
         style="stop-color:#b07e09"
         offset="1"
         id="stop10" />
    </radialGradient>
  </defs>
  <g
     inkscape:label="Layer 1"
     inkscape:groupmode="layer"
     id="layer1"
     transform="translate(794.28346,785.99137)">
    <path
       d="m -794.28346,-785.99137 h 7.9375 v 5.29167 h -7.9375 z"
       style="fill:#00afca;stroke-width:0.00916548"
       id="path856" />
    <path
       id="path859"
       style="fill:#fec50c;stroke-width:0.00529167"
       d="m -789.17684,-783.76887 a 0.71199375,0.71199375 0 0 1 -0.712,0.71199 0.71199375,0.71199375 0 0 1 -0.71199,-0.71199 0.71199375,0.71199375 0 0 1 0.71199,-0.71199 0.71199375,0.71199375 0 0 1 0.712,0.71199 z" />
    <path
       id="path862"
       d="m -789.88884,-784.57797 c 0.0423,-5.2e-4 0.0582,-0.027 0.0582,-0.0587 0,-0.0423 -0.0582,-0.24395 -0.0582,-0.24395 0,0 -0.0582,0.20161 -0.0582,0.24395 0,0.0317 0.0159,0.0587 0.0582,0.0587 z"
       style="fill:#fec50c;stroke-width:0.00529167" />
    <path
       id="path865"
       d="m -789.07974,-783.76887 c 5.3e-4,0.0423 0.027,0.0582 0.0587,0.0582 0.0423,0 0.24394,-0.0582 0.24394,-0.0582 0,0 -0.20161,-0.0582 -0.24394,-0.0582 -0.0317,0 -0.0587,0.0159 -0.0587,0.0582 z"
       style="fill:#fec50c;stroke-width:0.00529167" />
    <path
       id="path868"
       d="m -789.88884,-782.95977 c -0.0423,5.3e-4 -0.0582,0.027 -0.0582,0.0587 0,0.0423 0.0582,0.24395 0.0582,0.24395 0,0 0.0582,-0.20161 0.0582,-0.24395 0,-0.0317 -0.0159,-0.0587 -0.0582,-0.0587 z"
       style="fill:#fec50c;stroke-width:0.00529167" />
    <path
       id="path871"
       d="m -790.69793,-783.76887 c -5.3e-4,-0.0423 -0.027,-0.0582 -0.0587,-0.0582 -0.0423,0 -0.24395,0.0582 -0.24395,0.0582 0,0 0.20162,0.0582 0.24395,0.0582 0.0317,0 0.0587,-0.0159 0.0587,-0.0582 z"
       style="fill:#fec50c;stroke-width:0.00529167" />
    <path
       id="path874"
       d="m -789.57921,-784.51638 c 0.0393,0.0157 0.0641,-0.003 0.0763,-0.032 0.0162,-0.0391 0.0396,-0.24765 0.0396,-0.24765 0,0 -0.13093,0.16399 -0.14713,0.2031 -0.0122,0.0293 -0.008,0.0603 0.0313,0.0765 z"
       style="fill:#fec50c;stroke-width:0.00529167" />
    <path
       id="path877"
       d="m -789.14133,-783.45924 c -0.0157,0.0393 0.003,0.0641 0.032,0.0763 0.0391,0.0162 0.24765,0.0396 0.24765,0.0396 0,0 -0.16399,-0.13093 -0.2031,-0.14713 -0.0293,-0.0122 -0.0603,-0.008 -0.0765,0.0313 z"
       style="fill:#fec50c;stroke-width:0.00529167" />
    <path
       id="path880"
       d="m -790.19846,-783.02136 c -0.0393,-0.0157 -0.0641,0.003 -0.0763,0.032 -0.0162,0.0391 -0.0396,0.24765 -0.0396,0.24765 0,0 0.13094,-0.16399 0.14714,-0.2031 0.0122,-0.0293 0.008,-0.0603 -0.0313,-0.0765 z"
       style="fill:#fec50c;stroke-width:0.00529167" />
    <path
       id="path883"
       d="m -790.63634,-784.0785 c 0.0157,-0.0393 -0.003,-0.0641 -0.032,-0.0763 -0.0391,-0.0162 -0.24766,-0.0396 -0.24766,-0.0396 0,0 0.16399,0.13093 0.2031,0.14713 0.0293,0.0122 0.0603,0.008 0.0765,-0.0313 z"
       style="fill:#fec50c;stroke-width:0.00529167" />
    <path
       id="path886"
       d="m -789.31672,-784.34099 c 0.0303,0.0296 0.0602,0.0221 0.0827,-3.7e-4 0.0299,-0.0299 0.13134,-0.21366 0.13134,-0.21366 0,0 -0.18372,0.10141 -0.21366,0.13134 -0.0224,0.0224 -0.0303,0.0528 -3.7e-4,0.0827 z"
       style="fill:#fec50c;stroke-width:0.00529167" />
    <path
       id="path889"
       d="m -789.31672,-783.19675 c -0.0296,0.0303 -0.0221,0.0602 3.7e-4,0.0827 0.0299,0.0299 0.21366,0.13134 0.21366,0.13134 0,0 -0.1014,-0.18372 -0.13134,-0.21366 -0.0225,-0.0225 -0.0528,-0.0303 -0.0827,-3.7e-4 z"
       style="fill:#fec50c;stroke-width:0.00529167" />
    <path
       id="path892"
       d="m -790.46095,-783.19675 c -0.0303,-0.0296 -0.0602,-0.0221 -0.0827,3.7e-4 -0.0299,0.0299 -0.13133,0.21366 -0.13133,0.21366 0,0 0.18372,-0.10141 0.21365,-0.13134 0.0224,-0.0225 0.0303,-0.0528 3.8e-4,-0.0827 z"
       style="fill:#fec50c;stroke-width:0.00529167" />
    <path
       id="path895"
       d="m -790.46095,-784.34099 c 0.0296,-0.0303 0.0221,-0.0602 -3.8e-4,-0.0827 -0.0299,-0.0299 -0.21365,-0.13134 -0.21365,-0.13134 0,0 0.1014,0.18372 0.13133,0.21366 0.0224,0.0225 0.0528,0.0303 0.0827,3.7e-4 z"
       style="fill:#fec50c;stroke-width:0.00529167" />
    <path
       id="path898"
       d="m -789.14133,-784.0785 c 0.0167,0.0389 0.0472,0.0435 0.0765,0.0313 0.0391,-0.0162 0.2031,-0.14713 0.2031,-0.14713 0,0 -0.20854,0.0234 -0.24765,0.0396 -0.0293,0.0122 -0.0482,0.0371 -0.032,0.0763 z"
       style="fill:#fec50c;stroke-width:0.00529167" />
    <path
       id="path901"
       d="m -789.57921,-783.02136 c -0.0389,0.0167 -0.0435,0.0472 -0.0313,0.0765 0.0162,0.0391 0.14713,0.2031 0.14713,0.2031 0,0 -0.0234,-0.20854 -0.0396,-0.24765 -0.0121,-0.0293 -0.0371,-0.0482 -0.0763,-0.032 z"
       style="fill:#fec50c;stroke-width:0.00529167" />
    <path
       id="path904"
       d="m -790.63634,-783.45924 c -0.0167,-0.0389 -0.0472,-0.0435 -0.0765,-0.0313 -0.0391,0.0162 -0.2031,0.14713 -0.2031,0.14713 0,0 0.20854,-0.0234 0.24766,-0.0396 0.0293,-0.0122 0.0482,-0.0371 0.032,-0.0763 z"
       style="fill:#fec50c;stroke-width:0.00529167" />
    <path
       id="path907"
       d="m -790.19846,-784.51638 c 0.0389,-0.0167 0.0435,-0.0472 0.0313,-0.0765 -0.0162,-0.0391 -0.14714,-0.2031 -0.14714,-0.2031 0,0 0.0234,0.20854 0.0396,0.24765 0.0122,0.0293 0.0371,0.0482 0.0763,0.032 z"
       style="fill:#fec50c;stroke-width:0.00529167" />
    <path
       id="path910"
       d="m -789.73099,-784.56242 c 0.0416,0.008 0.0624,-0.0151 0.0686,-0.0462 0.008,-0.0415 -0.01,-0.25062 -0.01,-0.25062 0,0 -0.0964,0.18639 -0.10468,0.22791 -0.006,0.0311 0.004,0.0607 0.0456,0.069 z"
       style="fill:#fec50c;stroke-width:0.00529167" />
    <path
       id="path913"
       d="m -789.09529,-783.61102 c -0.008,0.0416 0.0151,0.0624 0.0463,0.0686 0.0415,0.008 0.25061,-0.01 0.25061,-0.01 0,0 -0.18638,-0.0964 -0.2279,-0.10468 -0.0311,-0.006 -0.0607,0.004 -0.069,0.0456 z"
       style="fill:#fec50c;stroke-width:0.00529167" />
    <path
       id="path916"
       d="m -790.04668,-782.97532 c -0.0416,-0.008 -0.0624,0.0151 -0.0685,0.0462 -0.008,0.0415 0.01,0.25062 0.01,0.25062 0,0 0.0964,-0.18639 0.10468,-0.22791 0.006,-0.0311 -0.004,-0.0607 -0.0456,-0.069 z"
       style="fill:#fec50c;stroke-width:0.00529167" />
    <path
       id="path919"
       d="m -790.68239,-783.92672 c 0.008,-0.0416 -0.0151,-0.0623 -0.0462,-0.0685 -0.0415,-0.008 -0.25061,0.01 -0.25061,0.01 0,0 0.18638,0.0964 0.2279,0.10468 0.0311,0.006 0.0607,-0.004 0.069,-0.0456 z"
       style="fill:#fec50c;stroke-width:0.00529167" />
    <path
       id="path922"
       d="m -789.43933,-784.44161 c 0.0355,0.0231 0.0634,0.01 0.081,-0.0165 0.0235,-0.0352 0.0871,-0.23517 0.0871,-0.23517 0,0 -0.1604,0.1353 -0.18392,0.17049 -0.0176,0.0264 -0.0194,0.0577 0.0158,0.0812 z"
       style="fill:#fec50c;stroke-width:0.00529167" />
    <path
       id="path925"
       d="m -789.2161,-783.31936 c -0.0231,0.0355 -0.01,0.0634 0.0165,0.081 0.0352,0.0235 0.23517,0.0871 0.23517,0.0871 0,0 -0.13529,-0.16041 -0.17049,-0.18393 -0.0264,-0.0176 -0.0577,-0.0194 -0.0812,0.0158 z"
       style="fill:#fec50c;stroke-width:0.00529167" />
    <path
       id="path928"
       d="m -790.33835,-783.09613 c -0.0355,-0.0231 -0.0634,-0.01 -0.081,0.0165 -0.0235,0.0352 -0.0871,0.23517 -0.0871,0.23517 0,0 0.16041,-0.1353 0.18393,-0.17049 0.0176,-0.0264 0.0194,-0.0577 -0.0158,-0.0812 z"
       style="fill:#fec50c;stroke-width:0.00529167" />
    <path
       id="path931"
       d="m -790.56158,-784.21838 c 0.0231,-0.0355 0.01,-0.0634 -0.0165,-0.081 -0.0352,-0.0235 -0.23518,-0.0871 -0.23518,-0.0871 0,0 0.1353,0.16041 0.1705,0.18393 0.0264,0.0176 0.0577,0.0194 0.0812,-0.0158 z"
       style="fill:#fec50c;stroke-width:0.00529167" />
    <path
       id="path934"
       d="m -789.2161,-784.21838 c 0.024,0.0349 0.0548,0.0334 0.0812,0.0158 0.0352,-0.0235 0.17049,-0.18393 0.17049,-0.18393 0,0 -0.19997,0.0636 -0.23517,0.0871 -0.0264,0.0176 -0.04,0.0458 -0.0165,0.081 z"
       style="fill:#fec50c;stroke-width:0.00529167" />
    <path
       id="path937"
       d="m -789.43933,-783.09613 c -0.0349,0.024 -0.0334,0.0548 -0.0158,0.0812 0.0235,0.0352 0.18392,0.17049 0.18392,0.17049 0,0 -0.0636,-0.19997 -0.0871,-0.23517 -0.0176,-0.0264 -0.0458,-0.04 -0.081,-0.0165 z"
       style="fill:#fec50c;stroke-width:0.00529167" />
    <path
       id="path940"
       d="m -790.56158,-783.31936 c -0.0239,-0.0349 -0.0548,-0.0334 -0.0812,-0.0158 -0.0352,0.0235 -0.1705,0.18393 -0.1705,0.18393 0,0 0.19998,-0.0636 0.23518,-0.0871 0.0264,-0.0176 0.04,-0.0458 0.0165,-0.081 z"
       style="fill:#fec50c;stroke-width:0.00529167" />
    <path
       id="path943"
       d="m -790.33835,-784.44161 c 0.0349,-0.024 0.0334,-0.0548 0.0158,-0.0812 -0.0235,-0.0352 -0.18393,-0.17049 -0.18393,-0.17049 0,0 0.0636,0.19997 0.0871,0.23517 0.0176,0.0264 0.0458,0.04 0.081,0.0165 z"
       style="fill:#fec50c;stroke-width:0.00529167" />
    <path
       id="path946"
       d="m -789.09529,-783.92672 c 0.009,0.0414 0.0378,0.0518 0.069,0.0456 0.0415,-0.008 0.2279,-0.10468 0.2279,-0.10468 0,0 -0.20909,-0.0177 -0.25061,-0.01 -0.0311,0.006 -0.0545,0.027 -0.0463,0.0685 z"
       style="fill:#fec50c;stroke-width:0.00529167" />
    <path
       id="path949"
       d="m -789.73099,-782.97532 c -0.0414,0.009 -0.0518,0.0378 -0.0456,0.069 0.008,0.0415 0.10468,0.22791 0.10468,0.22791 0,0 0.0178,-0.2091 0.01,-0.25062 -0.006,-0.0311 -0.027,-0.0545 -0.0686,-0.0462 z"
       style="fill:#fec50c;stroke-width:0.00529167" />
    <path
       id="path952"
       d="m -790.68239,-783.61102 c -0.009,-0.0414 -0.0378,-0.0518 -0.069,-0.0456 -0.0415,0.008 -0.2279,0.10468 -0.2279,0.10468 0,0 0.20909,0.0177 0.25061,0.01 0.0311,-0.006 0.0545,-0.027 0.0462,-0.0686 z"
       style="fill:#fec50c;stroke-width:0.00529167" />
    <path
       id="path955"
       d="m -790.04668,-784.56242 c 0.0414,-0.009 0.0518,-0.0378 0.0456,-0.069 -0.008,-0.0415 -0.10468,-0.22791 -0.10468,-0.22791 0,0 -0.0178,0.2091 -0.01,0.25062 0.006,0.0311 0.027,0.0545 0.0685,0.0462 z"
       style="fill:#fec50c;stroke-width:0.00529167" />
    <path
       d="m -790.01573,-782.22651 c -0.019,10e-4 -0.0376,0.004 -0.0557,0.009 -0.0249,0.003 -0.0487,0.012 -0.0734,0.0161 l -0.01,0.002 -0.0166,0.002 c 10e-4,0.005 0.002,0.009 0.002,0.0138 0,0.005 -5.2e-4,0.009 -0.002,0.0132 -10e-4,0.004 -0.004,0.008 -0.007,0.0111 -0.004,0.004 -0.007,0.007 -0.0117,0.009 -0.004,0.002 -0.009,0.003 -0.0137,0.003 -0.005,1.7e-4 -0.01,0 -0.0143,-0.002 -0.005,-0.002 -0.009,-0.005 -0.0132,-0.008 -0.005,0.001 -0.0101,0.002 -0.0148,0.003 -0.005,5.3e-4 -0.01,5.3e-4 -0.0139,0 -0.005,-10e-4 -0.0101,-0.003 -0.0148,-0.005 a 0.0854075,0.0854075 0 0 1 -0.0138,-0.007 c -0.018,0.0106 -0.0381,0.0206 -0.049,0.0392 -0.006,0.008 -0.007,0.0182 -0.009,0.0282 -8.9e-4,0.0123 0.002,0.0254 0.008,0.0369 0.002,0.003 0.004,-0.0122 0.01,-0.0143 0.01,-0.008 0.0226,-0.0143 0.0353,-0.0176 0.0108,-0.005 0.009,3.6e-4 0.005,0.009 -10e-4,0.004 -0.007,0.0212 10e-4,0.0127 0.0358,-0.0159 0.0755,-0.019 0.11413,-0.022 0.0561,-0.006 0.11236,-0.007 0.16862,-0.008 0.0529,7e-4 0.10584,10e-4 0.15875,0.003 0.0252,7.1e-4 0.0506,0.006 0.0755,0.002 0.006,-0.002 0.0153,-0.002 0.0189,-0.005 -0.0113,-0.007 -0.0245,-0.007 -0.037,-0.008 h -0.10089 c -0.0281,-0.003 -0.0573,-0.003 -0.0838,-0.0138 -0.007,-0.003 -0.0136,-0.01 -0.0203,-0.002 -0.0101,0.004 -0.0208,0.006 -0.0314,0.007 -0.0185,10e-4 -0.037,-0.002 -0.0541,-0.009 0.0123,-0.0171 0.0272,-0.0321 0.0408,-0.048 -0.0109,-0.002 -0.0215,-0.004 -0.0325,-0.007 0.0192,-0.0132 0.037,-0.0282 0.0557,-0.0423 z"
       id="path958"
       style="fill:#fec50c;stroke-width:0.00529167" />
    <path
       d="m -789.19182,-782.04373 c -0.0383,0.023 -0.0676,-0.0178 -0.0996,-0.03 -0.0229,0.0124 -0.025,0.054 -0.0464,0.0737 -0.0256,0.0291 -0.0569,-0.008 -0.0546,-0.0369 -0.0306,0.0258 -0.0461,0.0843 -0.0956,0.0765 -0.0234,-0.0191 -0.0409,-0.0593 -0.0588,-0.0136 -0.0146,0.0223 -0.0535,0.0541 -0.0736,0.0204 -0.006,-0.0298 -0.0212,-0.0648 -0.0374,-0.0175 -0.0111,0.0335 -0.0468,0.0581 -0.0814,0.0434 -0.0189,-0.0155 0.0152,-0.0726 -0.009,-0.0686 -0.036,0.0238 -0.0569,0.0829 -0.10712,0.0781 -0.0195,-0.0219 0.0118,-0.059 -0.01,-0.0833 -0.0252,0.0324 -0.0533,0.0798 -0.0969,0.0833 -0.0211,-0.0171 8.3e-4,-0.0661 -0.0127,-0.0734 -0.0448,0.0269 -0.0921,0.0748 -0.14843,0.0598 0.022,-0.084 0.11372,-0.11347 0.19089,-0.12002 0.13276,-0.0163 0.27243,0.0137 0.40017,-0.0342 0.0206,-0.0126 0.0707,-0.0304 0.0528,-0.0595 -0.0158,-0.023 0.041,-0.014 0.0465,-0.0409 -0.003,-0.034 0.0261,-0.0294 0.0548,-0.0323 0.12899,-0.006 0.25641,0.0216 0.38501,0.0262 0.01,0.0627 -0.0598,0.10666 -0.11576,0.0873 -0.0267,0.004 -0.0668,-0.0615 -0.059,-0.0136 -0.005,0.0251 -0.002,0.0583 -0.0246,0.0751 m -1.09749,-0.12832 c 0.0299,0.0273 0.0508,-0.005 0.0787,-0.017 0.0936,-0.0322 0.17531,-0.0885 0.25583,-0.1447 0.0488,-0.0404 0.0911,-0.0927 0.15662,-0.10583 0.12782,-0.0387 0.2637,-0.034 0.39201,-0.0696 0.0977,-0.13378 0.26366,-0.1815 0.40268,-0.2584 0.0312,-0.01 0.0433,-0.0354 0.0532,-0.0638 0.0531,-0.0838 0.12536,-0.15799 0.21085,-0.2087 0.0404,-0.0221 0.0887,-0.0348 0.1345,-0.0247 -0.003,0.0545 -0.0346,0.10288 -0.0723,0.1406 0.0309,-6.8e-4 0.0575,-0.0202 0.0887,-0.0191 0.0107,0.056 -0.0497,0.0853 -0.0819,0.12012 0.0179,0.004 0.0865,0.009 0.0491,0.0273 -0.0477,0.0331 -0.10208,0.0558 -0.14607,0.0942 0.0406,0.007 0.0452,0.0159 0.004,0.0306 -0.0223,0.0151 -0.0653,0.0204 -0.0695,0.0499 0.0307,0.0188 -0.0141,0.0376 -0.0314,0.0437 -0.033,0.008 -0.0677,0.022 -0.0238,0.0471 -0.0166,0.0251 -0.0522,0.0304 -0.0813,0.0279 0.009,0.0284 0.0216,0.0602 -0.0153,0.0728 -0.0827,0.0625 -0.1797,0.10796 -0.28363,0.11835 0.12983,0.01 0.26355,-0.0141 0.3745,-0.0847 0.0147,-0.0173 0.0915,-0.0359 0.0485,-0.0505 -0.0202,-0.008 -0.0636,-0.0178 -0.0665,-0.0332 0.0601,-0.0371 0.1358,-0.0239 0.20044,-0.0459 0.002,-0.0209 -0.0492,-0.0151 -0.0681,-0.0199 -0.0452,-0.004 -0.0426,-0.0152 10e-4,-0.0195 0.0552,-0.0146 0.11761,-0.0175 0.164,-0.0534 -0.0378,-0.0175 -0.0853,-0.002 -0.12558,-0.0164 0.0683,-0.0299 0.14892,-0.0329 0.21022,-0.0778 0.0279,-0.0311 -0.0358,-0.0214 -0.0543,-0.0206 -0.0378,0.007 -0.0553,-0.0115 -0.0123,-0.0272 0.0734,-0.0541 0.16633,-0.0893 0.21789,-0.16773 0.0122,-0.0176 0.0288,-0.0705 -0.0102,-0.0514 -0.0512,0.017 -0.0963,0.0746 -0.15467,0.0568 0.11501,-0.0891 0.22444,-0.1906 0.30304,-0.31395 0.004,-0.0356 -0.0518,-0.0394 -0.0663,-0.0115 -0.0739,0.0712 -0.14075,0.15524 -0.23535,0.19987 0.0906,-0.0874 0.1655,-0.19099 0.23085,-0.2983 0.014,-0.0319 0.0517,-0.0703 0.0312,-0.10574 -0.0329,-0.0273 -0.0742,-0.002 -0.0913,0.0303 -0.0574,0.075 -0.10105,0.1625 -0.17491,0.22357 0.0647,-0.12341 0.13161,-0.25478 0.13325,-0.39712 -2.2e-4,-0.0293 -0.006,-0.0725 -0.0459,-0.067 -0.0316,0.006 -0.0241,0.0529 -0.0371,0.0767 -0.0286,0.0973 -0.0421,0.20256 -0.1008,0.28771 0.0132,-0.079 0.0363,-0.16139 0.0186,-0.24119 -0.008,-0.0357 -0.0659,-0.0203 -0.0585,0.015 -0.0688,0.34851 -0.30265,0.65331 -0.60849,0.82963 -0.14004,0.0792 -0.29645,0.13031 -0.45559,0.15347 -0.0428,0.009 -0.0891,0.004 -0.13003,0.0185 -0.0991,0.076 -0.15917,0.20324 -0.2847,0.24307 -0.0563,0.028 -0.12962,0.0336 -0.16985,0.0859 -0.003,0.007 -0.004,0.0144 -0.004,0.0218"
       id="path961"
       style="fill:#fec50c;stroke-width:0.00529167" />
    <path
       d="m -789.9136,-782.52559 c -0.0185,0.0336 -0.0294,0.0723 -0.0532,0.10237 -0.0716,-0.0652 -0.17553,-0.063 -0.26642,-0.0674 -0.075,-0.004 -0.1566,-0.0109 -0.21464,-0.0644 -0.0611,-0.05 -0.1109,-0.11496 -0.17913,-0.15554 -0.0623,-0.0169 -0.12506,-0.0381 -0.17513,-0.0808 -0.107,-0.0872 -0.16828,-0.21662 -0.27283,-0.30656 -0.0199,-0.0196 -0.0434,-0.0348 -0.0658,-0.0515 -0.0212,0.005 -0.0116,0.051 -0.0376,0.0276 -0.0141,-0.01 -0.0495,-0.011 -0.0526,0.003 0.032,0.0421 0.064,0.0902 0.0684,0.1441 -0.0218,0.002 -0.0606,-0.005 -0.0714,0.004 0.029,0.0434 0.0661,0.0819 0.10823,0.11252 -0.0202,0.003 -0.0601,10e-4 -0.0678,0.01 0.0419,0.0341 0.0867,0.069 0.14154,0.0777 0.0112,0.0148 -0.0164,0.0433 0.007,0.056 0.0135,0.005 0.0579,0.0147 0.0273,0.03 -0.021,0.0141 -0.0132,0.0471 0.0136,0.0464 0.017,0.009 0.0551,0.0108 0.0581,0.0258 -0.015,0.0153 -0.0619,0.0335 -0.022,0.0478 0.0372,0.0207 0.0797,0.0341 0.12227,0.0356 -0.0213,0.018 -0.0476,0.0281 -0.0696,0.045 0.0982,0.0575 0.20697,0.0954 0.3145,0.13186 0.0428,0.0143 0.0861,0.0276 0.13049,0.036 -0.12895,-0.007 -0.25358,-0.0456 -0.37102,-0.0979 -0.0609,-0.0267 -0.12216,-0.0525 -0.18454,-0.0755 0.0274,-0.0142 0.059,-0.0177 0.0874,-0.03 -0.0589,-0.0118 -0.12322,-0.0157 -0.17498,-0.048 0.008,-0.0142 0.038,-0.0148 0.0546,-0.022 0.0313,-0.007 0.0507,-0.0166 0.007,-0.0193 -0.0445,-0.0121 -0.0955,-0.007 -0.13468,-0.0335 0.003,-0.0161 0.0435,-0.0105 0.0602,-0.0174 0.021,-0.004 0.0444,-0.007 0.0612,-0.0208 -0.0688,-0.0285 -0.1587,-0.008 -0.21256,-0.069 -0.0124,-0.0231 0.0386,-0.005 0.0531,-0.008 0.0369,0 0.0766,0.0117 0.11169,-0.003 -0.10019,-0.044 -0.20751,-0.0852 -0.28392,-0.16653 -0.008,-0.0131 -0.0339,-0.0488 -0.0134,-0.0532 0.0595,0.008 0.10252,0.0728 0.16613,0.0627 0.008,-0.0114 -0.037,-0.0301 -0.0483,-0.0463 -0.0927,-0.0796 -0.18277,-0.16597 -0.24778,-0.27022 -0.004,-0.0348 0.0503,-0.04 0.0647,-0.0131 0.0709,0.0683 0.13502,0.14805 0.22337,0.19469 0.0313,0.0152 -0.018,-0.018 -0.0246,-0.03 -0.0816,-0.0948 -0.15935,-0.19491 -0.2164,-0.30656 -0.0102,-0.0201 -0.0271,-0.0565 0.003,-0.0673 0.0305,-0.0153 0.0609,0.006 0.0763,0.0318 0.06,0.0757 0.10419,0.16567 0.17895,0.22873 -0.0637,-0.1236 -0.1317,-0.25372 -0.13335,-0.39596 10e-4,-0.0276 0.003,-0.0693 0.0407,-0.0682 0.0314,-0.005 0.0264,0.0354 0.0367,0.0546 0.0309,0.1045 0.0444,0.2176 0.10648,0.30986 -0.0137,-0.0775 -0.0339,-0.15735 -0.0205,-0.23615 0.003,-0.0259 0.0322,-0.0337 0.0512,-0.0181 0.0154,0.0376 0.0186,0.0841 0.0326,0.12431 0.0797,0.27263 0.25863,0.5124 0.49182,0.67331 0.19204,0.13172 0.41995,0.21035 0.65256,0.22406 0.021,0.002 0.0421,0.002 0.0631,0.004"
       id="path964"
       style="fill:#fec50c;stroke-width:0.00529167" />
    <path
       id="path967"
       style="fill:#fec50c;stroke-width:0.00529167"
       d="m -790.19635,-782.17666 a 0.01252538,0.01252538 0 0 1 -0.0125,0.0125 0.01252538,0.01252538 0 0 1 -0.0125,-0.0125 0.01252538,0.01252538 0 0 1 0.0125,-0.0125 0.01252538,0.01252538 0 0 1 0.0125,0.0125 z" />
    <path
       style="color:#000000;fill:#fec50c;stroke-width:0.00201613;-inkscape-stroke:none"
       d="m -790.20483,-782.17867 a 0.00510646,0.00510646 0 0 1 -0.005,0.005 0.00510646,0.00510646 0 0 1 -0.005,-0.005 0.00510646,0.00510646 0 0 1 0.005,-0.005 0.00510646,0.00510646 0 0 1 0.005,0.005 z"
       id="path970" />
    <path
       style="color:#000000;fill:#00afca;stroke-width:0.0105833;-inkscape-stroke:none"
       d="m -790.20993,-782.18478 c -0.003,0 -0.006,0.003 -0.006,0.006 0,0.003 0.003,0.006 0.006,0.006 0.003,0 0.006,-0.003 0.006,-0.006 0,-0.003 -0.003,-0.006 -0.006,-0.006 z m 0,0.002 c 0.002,0 0.004,0.002 0.004,0.004 0,0.002 -0.002,0.004 -0.004,0.004 -0.002,0 -0.004,-0.002 -0.004,-0.004 0,-0.002 0.002,-0.004 0.004,-0.004 z"
       id="path973" />
    <path
       d="m -793.64846,-785.60549 c 0,0 -0.0508,-0.0427 -0.0681,-0.0213 -0.0278,0.0345 0.0854,0.20621 0.0854,0.26668 0,0.0993 -0.0662,0.12626 -0.14802,0.14043 -0.0549,0.01 -0.14425,-0.004 -0.14425,-0.004 0.0168,-0.0226 0.0278,-0.0293 0.0561,-0.0311 -0.0316,-0.0164 -0.0637,-0.052 -0.0637,-0.10734 0,-0.0854 0.0351,-0.1206 0.0351,-0.21687 0,-0.0534 -0.0438,-0.12139 -0.0438,-0.12139 0.0774,0.008 0.11578,0.0794 0.0939,0.1367 0.0123,0.002 0.0235,-10e-4 0.0331,-0.0101 0.006,0.0159 -0.003,0.0343 -0.0153,0.0502 0.01,0.005 0.0167,0.002 0.0321,-10e-4 -10e-4,0.0164 -0.0113,0.0337 -0.0353,0.0501 0.0696,-0.0181 0.11241,0.0304 0.11241,0.0812 0,0.0384 -0.0269,0.0659 -0.0531,0.0659 -0.008,0 -0.021,-0.004 -0.028,-0.009 -0.005,0.0106 -0.002,0.0247 0.003,0.0353 -0.0192,-0.005 -0.0315,-0.0165 -0.0228,-0.0403 -0.0148,-0.001 -0.0266,-0.006 -0.0346,-0.0159 0.008,-0.0104 0.0204,-0.0164 0.0346,-0.0159 -0.0108,-0.0222 10e-4,-0.0347 0.0187,-0.0447 0,0 -0.0111,0.0447 0.0173,0.0447 0.0128,0 0.0244,-0.004 0.0244,-0.023 0,-0.0164 -0.0143,-0.0391 -0.0475,-0.0376 -0.0331,10e-4 -0.06,0.0228 -0.06,0.0757 0,0.0488 0.0393,0.073 0.0912,0.0746 0.0468,0.001 0.082,-0.0239 0.082,-0.0721 0,-0.0642 -0.0926,-0.21046 -0.0926,-0.26765 0,-0.0429 0.0386,-0.0669 0.0763,-0.0669 0.049,0 0.0903,0.0485 0.0903,0.0485 l -0.0288,0.0361 z"
       id="path976"
       style="fill:#fec50c;stroke-width:0.00529167" />
    <path
       id="path979"
       d="m -793.63777,-784.44546 c 0,0.10726 -0.0963,0.16239 -0.17197,0.16239 -0.10195,0 -0.15623,-0.061 -0.15623,-0.14075 0,-0.0452 0.008,-0.0736 0.0291,-0.1169 0,0 0.16817,-0.34973 0.23364,-0.485 0.008,-0.0169 0.0108,-0.0361 0.0108,-0.0642 0,-0.0435 -0.0422,-0.079 -0.0864,-0.0801 -0.0403,-10e-4 -0.0842,0.0376 -0.0842,0.0815 0,0.0534 0.0277,0.0772 0.0562,0.0772 0.035,0 0.049,-0.0144 0.049,-0.039 0,-0.0171 -0.008,-0.0245 -0.0202,-0.0245 -0.03,0 -0.0216,0.0404 -0.0216,0.0404 -0.0149,-0.003 -0.0272,-0.0185 -0.0202,-0.0375 a 0.05413375,0.05413375 0 0 1 -0.0292,-0.0173 c 0.008,-0.008 0.0173,-0.0138 0.0292,-0.0159 -0.007,-0.0232 0.002,-0.0346 0.0227,-0.0393 -0.004,0.009 -0.004,0.0172 -0.003,0.0249 0.032,-0.009 0.081,0.005 0.081,0.0606 0,0.0548 -0.0381,0.10103 -0.10944,0.0895 0.017,0.008 0.0256,0.0247 0.0274,0.0433 -0.013,-0.005 -0.0274,-0.006 -0.0274,-0.006 0.008,0.0147 0.0199,0.0274 0.0194,0.0563 -0.0132,-0.006 -0.0255,-0.0171 -0.0425,-0.0101 0.0266,0.0524 -0.006,0.12441 -0.0893,0.14146 0.0304,-0.0357 0.0454,-0.0742 0.0454,-0.11259 0,-0.12433 -0.0346,-0.14523 -0.0346,-0.23167 0,-0.0362 0.0186,-0.0752 0.0554,-0.10177 v 10e-4 c -0.0244,-0.007 -0.0399,-0.0185 -0.0489,-0.0348 0.0556,-0.0158 0.13652,-0.0155 0.17995,0.002 0.0499,0.006 0.0848,0.0441 0.095,0.0635 0.0103,0.0194 0.0302,0.0897 0,0.15299 -0.0331,0.0693 -0.18897,0.39984 -0.23758,0.50376 -0.0103,0.022 -0.0166,0.0454 -0.0166,0.0707 0,0.0637 0.0583,0.0859 0.0914,0.0859 0.0396,0 0.0799,-0.0302 0.0799,-0.0678 0,-0.0239 -0.013,-0.0382 -0.0317,-0.0382 -0.0448,0 -0.042,0.0381 -0.0331,0.0621 -0.0279,-0.0125 -0.044,-0.0349 -0.0396,-0.0585 -0.0158,-0.002 -0.0308,-0.01 -0.0446,-0.0253 0.0109,-0.0138 0.0242,-0.0242 0.0446,-0.0245 -0.009,-0.0366 0.0155,-0.052 0.0396,-0.0606 -0.008,0.0268 -0.0126,0.0577 0.0331,0.0577 0.0333,0 0.0596,0.006 0.0749,0.0274 9e-4,-0.0289 0.004,-0.1429 0.004,-0.1429 0.002,-0.0428 -0.0574,-0.0416 -0.095,-0.0289 0.0142,-0.0494 0.0434,-0.076 0.11087,-0.0693 -0.0164,-0.007 -0.0338,-0.0223 -0.0338,-0.052 10e-6,-0.0402 0.0326,-0.0847 0.054,-0.0978 l 0.0107,0.41831 z"
       style="fill:#fec50c;stroke-width:0.00529167" />
    <path
       id="path982"
       d="m -793.63777,-784.12373 c 0,-0.10726 -0.0963,-0.16239 -0.17197,-0.16239 -0.10195,0 -0.15623,0.0609 -0.15623,0.14075 0,0.0452 0.008,0.0736 0.0291,0.1169 0,0 0.16817,0.34973 0.23364,0.485 0.008,0.0169 0.0108,0.0361 0.0108,0.0642 0,0.0435 -0.0422,0.079 -0.0864,0.0801 -0.0403,10e-4 -0.0842,-0.0376 -0.0842,-0.0816 0,-0.0534 0.0277,-0.0772 0.0562,-0.0772 0.035,0 0.049,0.0144 0.049,0.039 0,0.0171 -0.008,0.0245 -0.0202,0.0245 -0.03,0 -0.0216,-0.0404 -0.0216,-0.0404 -0.0149,0.003 -0.0272,0.0185 -0.0202,0.0375 a 0.05413375,0.05413375 0 0 0 -0.0292,0.0173 c 0.008,0.008 0.0173,0.0138 0.0292,0.0159 -0.007,0.0232 0.002,0.0346 0.0227,0.0393 -0.004,-0.009 -0.004,-0.0172 -0.003,-0.0249 0.032,0.009 0.081,-0.005 0.081,-0.0606 0,-0.0548 -0.0381,-0.10104 -0.10944,-0.0895 0.017,-0.008 0.0256,-0.0247 0.0274,-0.0433 -0.013,0.005 -0.0274,0.006 -0.0274,0.006 0.008,-0.0147 0.0199,-0.0274 0.0194,-0.0563 -0.0132,0.006 -0.0255,0.0172 -0.0425,0.0101 0.0266,-0.0524 -0.006,-0.12442 -0.0893,-0.14146 0.0304,0.0357 0.0454,0.0742 0.0454,0.11259 0,0.12433 -0.0346,0.14523 -0.0346,0.23167 0,0.0362 0.0186,0.0752 0.0554,0.10176 v -10e-4 c -0.0244,0.007 -0.0399,0.0185 -0.0489,0.0348 0.0556,0.0158 0.13652,0.0155 0.17995,-0.002 0.0499,-0.006 0.0848,-0.0441 0.095,-0.0635 0.0103,-0.0194 0.0302,-0.0897 0,-0.153 -0.0331,-0.0693 -0.18897,-0.39983 -0.23758,-0.50375 -0.0103,-0.022 -0.0166,-0.0454 -0.0166,-0.0707 0,-0.0637 0.0583,-0.0859 0.0914,-0.0859 0.0396,0 0.0799,0.0302 0.0799,0.0678 0,0.0239 -0.013,0.0383 -0.0317,0.0383 -0.0448,0 -0.042,-0.0381 -0.0331,-0.0621 -0.0279,0.0125 -0.044,0.0349 -0.0396,0.0584 -0.0158,0.002 -0.0308,0.01 -0.0446,0.0253 0.0109,0.0137 0.0242,0.0242 0.0446,0.0245 -0.009,0.0366 0.0155,0.0521 0.0396,0.0606 -0.008,-0.0268 -0.0126,-0.0577 0.0331,-0.0577 0.0333,0 0.0596,-0.006 0.0749,-0.0274 9e-4,0.0289 0.004,0.1429 0.004,0.1429 0.002,0.0429 -0.0574,0.0416 -0.095,0.0289 0.0142,0.0494 0.0434,0.0761 0.11087,0.0693 -0.0164,0.007 -0.0338,0.0223 -0.0338,0.052 10e-6,0.0402 0.0326,0.0847 0.054,0.0979 l 0.0107,-0.41832 z"
       style="fill:#fec50c;stroke-width:0.00529167" />
    <path
       d="m -793.64846,-785.60549 c 0,0 0.0508,-0.0427 0.0681,-0.0213 0.0278,0.0345 -0.0854,0.20621 -0.0854,0.26668 0,0.0993 0.0662,0.12626 0.14802,0.14043 0.0549,0.01 0.14425,-0.004 0.14425,-0.004 -0.0168,-0.0226 -0.0278,-0.0293 -0.0561,-0.0311 0.0316,-0.0164 0.0637,-0.052 0.0637,-0.10734 0,-0.0854 -0.0351,-0.1206 -0.0351,-0.21687 0,-0.0534 0.0438,-0.12139 0.0438,-0.12139 -0.0774,0.008 -0.11578,0.0794 -0.0939,0.1367 -0.0123,0.002 -0.0235,-10e-4 -0.0331,-0.0101 -0.006,0.0159 0.003,0.0343 0.0153,0.0502 -0.01,0.005 -0.0167,0.002 -0.0321,-10e-4 10e-4,0.0164 0.0113,0.0337 0.0353,0.0501 -0.0696,-0.0181 -0.11241,0.0304 -0.11241,0.0812 0,0.0384 0.0269,0.0659 0.0531,0.0659 0.008,0 0.021,-0.004 0.028,-0.009 0.005,0.0106 0.002,0.0247 -0.003,0.0353 0.0192,-0.005 0.0315,-0.0165 0.0228,-0.0403 0.0148,-0.001 0.0266,-0.006 0.0346,-0.0159 -0.008,-0.0104 -0.0204,-0.0164 -0.0346,-0.0159 0.0108,-0.0222 -10e-4,-0.0347 -0.0187,-0.0447 0,0 0.0111,0.0447 -0.0173,0.0447 -0.0128,0 -0.0244,-0.004 -0.0244,-0.023 0,-0.0164 0.0143,-0.0391 0.0475,-0.0376 0.0331,10e-4 0.06,0.0228 0.06,0.0757 0,0.0488 -0.0393,0.073 -0.0912,0.0746 -0.0468,0.001 -0.082,-0.0239 -0.082,-0.0721 0,-0.0642 0.0926,-0.21046 0.0926,-0.26765 0,-0.0429 -0.0386,-0.0669 -0.0763,-0.0669 -0.049,0 -0.0903,0.0485 -0.0903,0.0485 l 0.0288,0.0361 z"
       id="path985"
       style="fill:#fec50c;stroke-width:0.00529167" />
    <path
       id="path988"
       d="m -793.65915,-784.44546 c 0,0.10726 0.0963,0.16239 0.17197,0.16239 0.10195,0 0.15623,-0.061 0.15623,-0.14075 0,-0.0452 -0.008,-0.0736 -0.0291,-0.1169 0,0 -0.16817,-0.34973 -0.23364,-0.485 -0.008,-0.0169 -0.0108,-0.0361 -0.0108,-0.0642 0,-0.0435 0.0422,-0.079 0.0864,-0.0801 0.0403,-10e-4 0.0842,0.0376 0.0842,0.0815 0,0.0534 -0.0277,0.0772 -0.0562,0.0772 -0.035,0 -0.049,-0.0144 -0.049,-0.039 0,-0.0171 0.008,-0.0245 0.0202,-0.0245 0.03,0 0.0216,0.0404 0.0216,0.0404 0.0149,-0.003 0.0272,-0.0185 0.0202,-0.0375 a 0.05413375,0.05413375 0 0 0 0.0292,-0.0173 c -0.008,-0.008 -0.0173,-0.0138 -0.0292,-0.0159 0.007,-0.0232 -0.002,-0.0346 -0.0227,-0.0393 0.004,0.009 0.004,0.0172 0.003,0.0249 -0.032,-0.009 -0.081,0.005 -0.081,0.0606 0,0.0548 0.0381,0.10103 0.10944,0.0895 -0.017,0.008 -0.0256,0.0247 -0.0274,0.0433 0.013,-0.005 0.0274,-0.006 0.0274,-0.006 -0.008,0.0147 -0.0199,0.0274 -0.0194,0.0563 0.0132,-0.006 0.0255,-0.0171 0.0425,-0.0101 -0.0266,0.0524 0.006,0.12441 0.0893,0.14146 -0.0304,-0.0357 -0.0454,-0.0742 -0.0454,-0.11259 0,-0.12433 0.0346,-0.14523 0.0346,-0.23167 0,-0.0362 -0.0186,-0.0752 -0.0554,-0.10177 v 10e-4 c 0.0244,-0.007 0.0399,-0.0185 0.0489,-0.0348 -0.0556,-0.0158 -0.13652,-0.0155 -0.17995,0.002 -0.0499,0.006 -0.0848,0.0441 -0.095,0.0635 -0.0103,0.0194 -0.0302,0.0897 0,0.15299 0.0331,0.0693 0.18897,0.39984 0.23758,0.50376 0.0103,0.022 0.0166,0.0454 0.0166,0.0707 0,0.0637 -0.0583,0.0859 -0.0914,0.0859 -0.0396,0 -0.0799,-0.0302 -0.0799,-0.0678 0,-0.0239 0.013,-0.0382 0.0317,-0.0382 0.0448,0 0.042,0.0381 0.0331,0.0621 0.0279,-0.0125 0.044,-0.0349 0.0396,-0.0585 0.0158,-0.002 0.0308,-0.01 0.0446,-0.0253 -0.0109,-0.0138 -0.0242,-0.0242 -0.0446,-0.0245 0.009,-0.0366 -0.0155,-0.052 -0.0396,-0.0606 0.008,0.0268 0.0126,0.0577 -0.0331,0.0577 -0.0333,0 -0.0596,0.006 -0.0749,0.0274 -9e-4,-0.0289 -0.004,-0.1429 -0.004,-0.1429 -0.002,-0.0428 0.0574,-0.0416 0.095,-0.0289 -0.0142,-0.0494 -0.0434,-0.076 -0.11087,-0.0693 0.0164,-0.007 0.0338,-0.0223 0.0338,-0.052 -10e-6,-0.0402 -0.0326,-0.0847 -0.054,-0.0978 l -0.0107,0.41831 z"
       style="fill:#fec50c;stroke-width:0.00529167" />
    <path
       id="path991"
       d="m -793.65915,-784.12373 c 0,-0.10726 0.0963,-0.16239 0.17197,-0.16239 0.10195,0 0.15623,0.0609 0.15623,0.14075 0,0.0452 -0.008,0.0736 -0.0291,0.1169 0,0 -0.16817,0.34973 -0.23364,0.485 -0.008,0.0169 -0.0108,0.0361 -0.0108,0.0642 0,0.0435 0.0422,0.079 0.0864,0.0801 0.0403,10e-4 0.0842,-0.0376 0.0842,-0.0816 0,-0.0534 -0.0277,-0.0772 -0.0562,-0.0772 -0.035,0 -0.049,0.0144 -0.049,0.039 0,0.0171 0.008,0.0245 0.0202,0.0245 0.03,0 0.0216,-0.0404 0.0216,-0.0404 0.0149,0.003 0.0272,0.0185 0.0202,0.0375 a 0.05413375,0.05413375 0 0 1 0.0292,0.0173 c -0.008,0.008 -0.0173,0.0138 -0.0292,0.0159 0.007,0.0232 -0.002,0.0346 -0.0227,0.0393 0.004,-0.009 0.004,-0.0172 0.003,-0.0249 -0.032,0.009 -0.081,-0.005 -0.081,-0.0606 0,-0.0548 0.0381,-0.10104 0.10944,-0.0895 -0.017,-0.008 -0.0256,-0.0247 -0.0274,-0.0433 0.013,0.005 0.0274,0.006 0.0274,0.006 -0.008,-0.0147 -0.0199,-0.0274 -0.0194,-0.0563 0.0132,0.006 0.0255,0.0172 0.0425,0.0101 -0.0266,-0.0524 0.006,-0.12442 0.0893,-0.14146 -0.0304,0.0357 -0.0454,0.0742 -0.0454,0.11259 0,0.12433 0.0346,0.14523 0.0346,0.23167 0,0.0362 -0.0186,0.0752 -0.0554,0.10176 v -10e-4 c 0.0244,0.007 0.0399,0.0185 0.0489,0.0348 -0.0556,0.0158 -0.13652,0.0155 -0.17995,-0.002 -0.0499,-0.006 -0.0848,-0.0441 -0.095,-0.0635 -0.0103,-0.0194 -0.0302,-0.0897 0,-0.153 0.0331,-0.0693 0.18897,-0.39983 0.23758,-0.50375 0.0103,-0.022 0.0166,-0.0454 0.0166,-0.0707 0,-0.0637 -0.0583,-0.0859 -0.0914,-0.0859 -0.0396,0 -0.0799,0.0302 -0.0799,0.0678 0,0.0239 0.013,0.0383 0.0317,0.0383 0.0448,0 0.042,-0.0381 0.0331,-0.0621 0.0279,0.0125 0.044,0.0349 0.0396,0.0584 0.0158,0.002 0.0308,0.01 0.0446,0.0253 -0.0109,0.0137 -0.0242,0.0242 -0.0446,0.0245 0.009,0.0366 -0.0155,0.0521 -0.0396,0.0606 0.008,-0.0268 0.0126,-0.0577 -0.0331,-0.0577 -0.0333,0 -0.0596,-0.006 -0.0749,-0.0274 -9e-4,0.0289 -0.004,0.1429 -0.004,0.1429 -0.002,0.0429 0.0574,0.0416 0.095,0.0289 -0.0142,0.0494 -0.0434,0.0761 -0.11087,0.0693 0.0164,0.007 0.0338,0.0223 0.0338,0.052 -10e-6,0.0402 -0.0326,0.0847 -0.054,0.0979 l -0.0107,-0.41832 z"
       style="fill:#fec50c;stroke-width:0.00529167" />
    <path
       d="m -793.64846,-781.08558 c 0,0 -0.0508,0.0427 -0.0681,0.0213 -0.0278,-0.0345 0.0854,-0.20621 0.0854,-0.26668 0,-0.0993 -0.0662,-0.12626 -0.14802,-0.14044 -0.0549,-0.01 -0.14425,0.004 -0.14425,0.004 0.0168,0.0226 0.0278,0.0293 0.0561,0.0311 -0.0316,0.0164 -0.0637,0.052 -0.0637,0.10734 0,0.0854 0.0351,0.12059 0.0351,0.21686 0,0.0534 -0.0438,0.1214 -0.0438,0.1214 0.0774,-0.008 0.11578,-0.0794 0.0939,-0.1367 0.0123,-0.002 0.0235,10e-4 0.0331,0.0101 0.006,-0.0159 -0.003,-0.0343 -0.0153,-0.0502 0.01,-0.005 0.0167,-0.002 0.0321,10e-4 -10e-4,-0.0164 -0.0113,-0.0337 -0.0353,-0.0501 0.0696,0.0181 0.11241,-0.0304 0.11241,-0.0812 0,-0.0384 -0.0269,-0.0658 -0.0531,-0.0658 -0.008,0 -0.021,0.004 -0.028,0.009 -0.005,-0.0105 -0.002,-0.0247 0.003,-0.0352 -0.0192,0.005 -0.0315,0.0165 -0.0228,0.0403 -0.0148,0.001 -0.0266,0.006 -0.0346,0.0159 0.008,0.0104 0.0204,0.0164 0.0346,0.0159 -0.0108,0.0222 10e-4,0.0347 0.0187,0.0448 0,0 -0.0111,-0.0448 0.0173,-0.0448 0.0128,0 0.0244,0.004 0.0244,0.023 0,0.0164 -0.0143,0.0391 -0.0475,0.0376 -0.0331,-10e-4 -0.06,-0.0228 -0.06,-0.0757 0,-0.0488 0.0393,-0.073 0.0912,-0.0746 0.0468,-10e-4 0.082,0.0239 0.082,0.0721 0,0.0642 -0.0926,0.21046 -0.0926,0.26765 0,0.0429 0.0386,0.0669 0.0763,0.0669 0.049,0 0.0903,-0.0485 0.0903,-0.0485 l -0.0288,-0.0361 z"
       id="path994"
       style="fill:#fec50c;stroke-width:0.00529167" />
    <path
       id="path997"
       d="m -793.63777,-782.24561 c 0,-0.10726 -0.0963,-0.16239 -0.17197,-0.16239 -0.10195,0 -0.15623,0.061 -0.15623,0.14075 0,0.0452 0.008,0.0736 0.0291,0.1169 0,0 0.16817,0.34973 0.23364,0.485 0.008,0.0169 0.0108,0.0361 0.0108,0.0642 0,0.0435 -0.0422,0.079 -0.0864,0.0801 -0.0403,10e-4 -0.0842,-0.0376 -0.0842,-0.0816 0,-0.0534 0.0277,-0.0772 0.0562,-0.0772 0.035,0 0.049,0.0144 0.049,0.039 0,0.0171 -0.008,0.0245 -0.0202,0.0245 -0.03,0 -0.0216,-0.0404 -0.0216,-0.0404 -0.0149,0.003 -0.0272,0.0185 -0.0202,0.0375 a 0.05413375,0.05413375 0 0 0 -0.0292,0.0173 c 0.008,0.008 0.0173,0.0138 0.0292,0.0159 -0.007,0.0232 0.002,0.0346 0.0227,0.0393 -0.004,-0.009 -0.004,-0.0171 -0.003,-0.0249 0.032,0.009 0.081,-0.005 0.081,-0.0606 0,-0.0548 -0.0381,-0.10104 -0.10944,-0.0895 0.017,-0.008 0.0256,-0.0247 0.0274,-0.0433 -0.013,0.005 -0.0274,0.006 -0.0274,0.006 0.008,-0.0147 0.0199,-0.0274 0.0194,-0.0563 -0.0132,0.006 -0.0255,0.0172 -0.0425,0.0101 0.0266,-0.0524 -0.006,-0.12442 -0.0893,-0.14146 0.0304,0.0357 0.0454,0.0742 0.0454,0.11259 0,0.12433 -0.0346,0.14523 -0.0346,0.23167 0,0.0362 0.0186,0.0752 0.0554,0.10176 v -0.001 c -0.0244,0.007 -0.0399,0.0185 -0.0489,0.0348 0.0556,0.0158 0.13652,0.0155 0.17995,-0.002 0.0499,-0.006 0.0848,-0.0441 0.095,-0.0635 0.0103,-0.0194 0.0302,-0.0897 0,-0.15299 -0.0331,-0.0693 -0.18897,-0.39984 -0.23758,-0.50376 -0.0103,-0.022 -0.0166,-0.0454 -0.0166,-0.0707 0,-0.0637 0.0583,-0.0859 0.0914,-0.0859 0.0396,0 0.0799,0.0302 0.0799,0.0678 0,0.0239 -0.013,0.0382 -0.0317,0.0382 -0.0448,0 -0.042,-0.0381 -0.0331,-0.0621 -0.0279,0.0125 -0.044,0.0349 -0.0396,0.0585 -0.0158,0.002 -0.0308,0.01 -0.0446,0.0253 0.0109,0.0138 0.0242,0.0242 0.0446,0.0245 -0.009,0.0366 0.0155,0.052 0.0396,0.0606 -0.008,-0.0268 -0.0126,-0.0577 0.0331,-0.0577 0.0333,0 0.0596,-0.006 0.0749,-0.0274 9e-4,0.0289 0.004,0.1429 0.004,0.1429 0.002,0.0429 -0.0574,0.0416 -0.095,0.0289 0.0142,0.0494 0.0434,0.076 0.11087,0.0693 -0.0164,0.007 -0.0338,0.0223 -0.0338,0.052 10e-6,0.0402 0.0326,0.0847 0.054,0.0979 l 0.0107,-0.41831 z"
       style="fill:#fec50c;stroke-width:0.00529167" />
    <path
       id="path1000"
       d="m -793.63777,-782.56734 c 0,0.10726 -0.0963,0.16239 -0.17197,0.16239 -0.10195,0 -0.15623,-0.061 -0.15623,-0.14075 0,-0.0452 0.008,-0.0736 0.0291,-0.1169 0,0 0.16817,-0.34974 0.23364,-0.485 0.008,-0.0169 0.0108,-0.0361 0.0108,-0.0642 0,-0.0435 -0.0422,-0.079 -0.0864,-0.0801 -0.0403,-10e-4 -0.0842,0.0376 -0.0842,0.0815 0,0.0534 0.0277,0.0772 0.0562,0.0772 0.035,0 0.049,-0.0144 0.049,-0.039 0,-0.0171 -0.008,-0.0245 -0.0202,-0.0245 -0.03,0 -0.0216,0.0404 -0.0216,0.0404 -0.0149,-0.003 -0.0272,-0.0185 -0.0202,-0.0375 a 0.05413375,0.05413375 0 0 1 -0.0292,-0.0173 c 0.008,-0.008 0.0173,-0.0138 0.0292,-0.0159 -0.007,-0.0232 0.002,-0.0346 0.0227,-0.0393 -0.004,0.009 -0.004,0.0171 -0.003,0.0249 0.032,-0.009 0.081,0.005 0.081,0.0606 0,0.0548 -0.0381,0.10103 -0.10944,0.0895 0.017,0.008 0.0256,0.0247 0.0274,0.0433 -0.013,-0.005 -0.0274,-0.006 -0.0274,-0.006 0.008,0.0147 0.0199,0.0274 0.0194,0.0563 -0.0132,-0.006 -0.0255,-0.0172 -0.0425,-0.0101 0.0266,0.0524 -0.006,0.12441 -0.0893,0.14146 0.0304,-0.0357 0.0454,-0.0742 0.0454,-0.11259 0,-0.12434 -0.0346,-0.14523 -0.0346,-0.23167 0,-0.0362 0.0186,-0.0752 0.0554,-0.10177 v 10e-4 c -0.0244,-0.007 -0.0399,-0.0185 -0.0489,-0.0348 0.0556,-0.0158 0.13652,-0.0155 0.17995,0.002 0.0499,0.006 0.0848,0.0441 0.095,0.0635 0.0103,0.0194 0.0302,0.0897 0,0.15299 -0.0331,0.0693 -0.18897,0.39984 -0.23758,0.50376 -0.0103,0.022 -0.0166,0.0454 -0.0166,0.0707 0,0.0637 0.0583,0.0859 0.0914,0.0859 0.0396,0 0.0799,-0.0302 0.0799,-0.0678 0,-0.0239 -0.013,-0.0382 -0.0317,-0.0382 -0.0448,0 -0.042,0.0381 -0.0331,0.0621 -0.0279,-0.0125 -0.044,-0.0349 -0.0396,-0.0585 -0.0158,-0.002 -0.0308,-0.01 -0.0446,-0.0253 0.0109,-0.0138 0.0242,-0.0242 0.0446,-0.0245 -0.009,-0.0366 0.0155,-0.052 0.0396,-0.0606 -0.008,0.0268 -0.0126,0.0577 0.0331,0.0577 0.0333,0 0.0596,0.006 0.0749,0.0274 9e-4,-0.0289 0.004,-0.14291 0.004,-0.14291 0.002,-0.0429 -0.0574,-0.0416 -0.095,-0.0289 0.0142,-0.0494 0.0434,-0.076 0.11087,-0.0693 -0.0164,-0.007 -0.0338,-0.0223 -0.0338,-0.052 10e-6,-0.0402 0.0326,-0.0847 0.054,-0.0978 l 0.0107,0.41831 z"
       style="fill:#fec50c;stroke-width:0.00529167" />
    <path
       d="m -793.64846,-781.08558 c 0,0 0.0508,0.0427 0.0681,0.0213 0.0278,-0.0345 -0.0854,-0.20621 -0.0854,-0.26668 0,-0.0993 0.0662,-0.12626 0.14802,-0.14044 0.0549,-0.01 0.14425,0.004 0.14425,0.004 -0.0168,0.0226 -0.0278,0.0293 -0.0561,0.0311 0.0316,0.0164 0.0637,0.052 0.0637,0.10734 0,0.0854 -0.0351,0.12059 -0.0351,0.21686 0,0.0534 0.0438,0.1214 0.0438,0.1214 -0.0774,-0.008 -0.11578,-0.0794 -0.0939,-0.1367 -0.0123,-0.002 -0.0235,10e-4 -0.0331,0.0101 -0.006,-0.0159 0.003,-0.0343 0.0153,-0.0502 -0.01,-0.005 -0.0167,-0.002 -0.0321,10e-4 10e-4,-0.0164 0.0113,-0.0337 0.0353,-0.0501 -0.0696,0.0181 -0.11241,-0.0304 -0.11241,-0.0812 0,-0.0384 0.0269,-0.0658 0.0531,-0.0658 0.008,0 0.021,0.004 0.028,0.009 0.005,-0.0105 0.002,-0.0247 -0.003,-0.0352 0.0192,0.005 0.0315,0.0165 0.0228,0.0403 0.0148,0.001 0.0266,0.006 0.0346,0.0159 -0.008,0.0104 -0.0204,0.0164 -0.0346,0.0159 0.0108,0.0222 -10e-4,0.0347 -0.0187,0.0448 0,0 0.0111,-0.0448 -0.0173,-0.0448 -0.0128,0 -0.0244,0.004 -0.0244,0.023 0,0.0164 0.0143,0.0391 0.0475,0.0376 0.0331,-10e-4 0.06,-0.0228 0.06,-0.0757 0,-0.0488 -0.0393,-0.073 -0.0912,-0.0746 -0.0468,-10e-4 -0.082,0.0239 -0.082,0.0721 0,0.0642 0.0926,0.21046 0.0926,0.26765 0,0.0429 -0.0386,0.0669 -0.0763,0.0669 -0.049,0 -0.0903,-0.0485 -0.0903,-0.0485 l 0.0288,-0.0361 z"
       id="path1003"
       style="fill:#fec50c;stroke-width:0.00529167" />
    <path
       id="path1006"
       d="m -793.65915,-782.24561 c 0,-0.10726 0.0963,-0.16239 0.17197,-0.16239 0.10195,0 0.15623,0.061 0.15623,0.14075 0,0.0452 -0.008,0.0736 -0.0291,0.1169 0,0 -0.16817,0.34973 -0.23364,0.485 -0.008,0.0169 -0.0108,0.0361 -0.0108,0.0642 0,0.0435 0.0422,0.079 0.0864,0.0801 0.0403,10e-4 0.0842,-0.0376 0.0842,-0.0816 0,-0.0534 -0.0277,-0.0772 -0.0562,-0.0772 -0.035,0 -0.049,0.0144 -0.049,0.039 0,0.0171 0.008,0.0245 0.0202,0.0245 0.03,0 0.0216,-0.0404 0.0216,-0.0404 0.0149,0.003 0.0272,0.0185 0.0202,0.0375 a 0.05413375,0.05413375 0 0 1 0.0292,0.0173 c -0.008,0.008 -0.0173,0.0138 -0.0292,0.0159 0.007,0.0232 -0.002,0.0346 -0.0227,0.0393 0.004,-0.009 0.004,-0.0171 0.003,-0.0249 -0.032,0.009 -0.081,-0.005 -0.081,-0.0606 0,-0.0548 0.0381,-0.10104 0.10944,-0.0895 -0.017,-0.008 -0.0256,-0.0247 -0.0274,-0.0433 0.013,0.005 0.0274,0.006 0.0274,0.006 -0.008,-0.0147 -0.0199,-0.0274 -0.0194,-0.0563 0.0132,0.006 0.0255,0.0172 0.0425,0.0101 -0.0266,-0.0524 0.006,-0.12442 0.0893,-0.14146 -0.0304,0.0357 -0.0454,0.0742 -0.0454,0.11259 0,0.12433 0.0346,0.14523 0.0346,0.23167 0,0.0362 -0.0186,0.0752 -0.0554,0.10176 v -0.001 c 0.0244,0.007 0.0399,0.0185 0.0489,0.0348 -0.0556,0.0158 -0.13652,0.0155 -0.17995,-0.002 -0.0499,-0.006 -0.0848,-0.0441 -0.095,-0.0635 -0.0103,-0.0194 -0.0302,-0.0897 0,-0.15299 0.0331,-0.0693 0.18897,-0.39984 0.23758,-0.50376 0.0103,-0.022 0.0166,-0.0454 0.0166,-0.0707 0,-0.0637 -0.0583,-0.0859 -0.0914,-0.0859 -0.0396,0 -0.0799,0.0302 -0.0799,0.0678 0,0.0239 0.013,0.0382 0.0317,0.0382 0.0448,0 0.042,-0.0381 0.0331,-0.0621 0.0279,0.0125 0.044,0.0349 0.0396,0.0585 0.0158,0.002 0.0308,0.01 0.0446,0.0253 -0.0109,0.0138 -0.0242,0.0242 -0.0446,0.0245 0.009,0.0366 -0.0155,0.052 -0.0396,0.0606 0.008,-0.0268 0.0126,-0.0577 -0.0331,-0.0577 -0.0333,0 -0.0596,-0.006 -0.0749,-0.0274 -9e-4,0.0289 -0.004,0.1429 -0.004,0.1429 -0.002,0.0429 0.0574,0.0416 0.095,0.0289 -0.0142,0.0494 -0.0434,0.076 -0.11087,0.0693 0.0164,0.007 0.0338,0.0223 0.0338,0.052 -10e-6,0.0402 -0.0326,0.0847 -0.054,0.0979 l -0.0107,-0.41831 z"
       style="fill:#fec50c;stroke-width:0.00529167" />
    <path
       id="path1009"
       d="m -793.65915,-782.56734 c 0,0.10726 0.0963,0.16239 0.17197,0.16239 0.10195,0 0.15623,-0.061 0.15623,-0.14075 0,-0.0452 -0.008,-0.0736 -0.0291,-0.1169 0,0 -0.16817,-0.34974 -0.23364,-0.485 -0.008,-0.0169 -0.0108,-0.0361 -0.0108,-0.0642 0,-0.0435 0.0422,-0.079 0.0864,-0.0801 0.0403,-10e-4 0.0842,0.0376 0.0842,0.0815 0,0.0534 -0.0277,0.0772 -0.0562,0.0772 -0.035,0 -0.049,-0.0144 -0.049,-0.039 0,-0.0171 0.008,-0.0245 0.0202,-0.0245 0.03,0 0.0216,0.0404 0.0216,0.0404 0.0149,-0.003 0.0272,-0.0185 0.0202,-0.0375 a 0.05413375,0.05413375 0 0 0 0.0292,-0.0173 c -0.008,-0.008 -0.0173,-0.0138 -0.0292,-0.0159 0.007,-0.0232 -0.002,-0.0346 -0.0227,-0.0393 0.004,0.009 0.004,0.0171 0.003,0.0249 -0.032,-0.009 -0.081,0.005 -0.081,0.0606 0,0.0548 0.0381,0.10103 0.10944,0.0895 -0.017,0.008 -0.0256,0.0247 -0.0274,0.0433 0.013,-0.005 0.0274,-0.006 0.0274,-0.006 -0.008,0.0147 -0.0199,0.0274 -0.0194,0.0563 0.0132,-0.006 0.0255,-0.0172 0.0425,-0.0101 -0.0266,0.0524 0.006,0.12441 0.0893,0.14146 -0.0304,-0.0357 -0.0454,-0.0742 -0.0454,-0.11259 0,-0.12434 0.0346,-0.14523 0.0346,-0.23167 0,-0.0362 -0.0186,-0.0752 -0.0554,-0.10177 v 10e-4 c 0.0244,-0.007 0.0399,-0.0185 0.0489,-0.0348 -0.0556,-0.0158 -0.13652,-0.0155 -0.17995,0.002 -0.0499,0.006 -0.0848,0.0441 -0.095,0.0635 -0.0103,0.0194 -0.0302,0.0897 0,0.15299 0.0331,0.0693 0.18897,0.39984 0.23758,0.50376 0.0103,0.022 0.0166,0.0454 0.0166,0.0707 0,0.0637 -0.0583,0.0859 -0.0914,0.0859 -0.0396,0 -0.0799,-0.0302 -0.0799,-0.0678 0,-0.0239 0.013,-0.0382 0.0317,-0.0382 0.0448,0 0.042,0.0381 0.0331,0.0621 0.0279,-0.0125 0.044,-0.0349 0.0396,-0.0585 0.0158,-0.002 0.0308,-0.01 0.0446,-0.0253 -0.0109,-0.0138 -0.0242,-0.0242 -0.0446,-0.0245 0.009,-0.0366 -0.0155,-0.052 -0.0396,-0.0606 0.008,0.0268 0.0126,0.0577 -0.0331,0.0577 -0.0333,0 -0.0596,0.006 -0.0749,0.0274 -9e-4,-0.0289 -0.004,-0.14291 -0.004,-0.14291 -0.002,-0.0429 0.0574,-0.0416 0.095,-0.0289 -0.0142,-0.0494 -0.0434,-0.076 -0.11087,-0.0693 0.0164,-0.007 0.0338,-0.0223 0.0338,-0.052 -10e-6,-0.0402 -0.0326,-0.0847 -0.054,-0.0978 l -0.0107,0.41831 z"
       style="fill:#fec50c;stroke-width:0.00529167" />
  </g>
</svg>
