<?xml version="1.0" encoding="UTF-8" standalone="no"?>
<!-- Created with Inkscape (http://www.inkscape.org/) -->

<svg
   width="7.9375mm"
   height="5.2916698mm"
   viewBox="0 0 7.9375 5.29167"
   version="1.1"
   id="svg1"
   inkscape:version="1.4 (86a8ad7, 2024-10-11)"
   sodipodi:docname="kir.svg"
   xmlns:inkscape="http://www.inkscape.org/namespaces/inkscape"
   xmlns:sodipodi="http://sodipodi.sourceforge.net/DTD/sodipodi-0.dtd"
   xmlns:xlink="http://www.w3.org/1999/xlink"
   xmlns="http://www.w3.org/2000/svg"
   xmlns:svg="http://www.w3.org/2000/svg">
  <sodipodi:namedview
     id="namedview1"
     pagecolor="#ffffff"
     bordercolor="#000000"
     borderopacity="0.25"
     inkscape:showpageshadow="2"
     inkscape:pageopacity="0.0"
     inkscape:pagecheckerboard="0"
     inkscape:deskcolor="#d1d1d1"
     inkscape:document-units="mm"
     inkscape:zoom="0.71891835"
     inkscape:cx="775.47054"
     inkscape:cy="442.33118"
     inkscape:window-width="1904"
     inkscape:window-height="992"
     inkscape:window-x="-26"
     inkscape:window-y="145"
     inkscape:window-maximized="0"
     inkscape:current-layer="layer1" />
  <defs
     id="defs1">
    <radialGradient
       id="n"
       cx="489.07001"
       cy="210.33"
       r="0.345"
       gradientTransform="matrix(0.00861722,0,0,0.0090267,-825.15993,-674.59387)"
       gradientUnits="userSpaceOnUse">
      <stop
         style="stop-color:#fff"
         offset="0"
         id="stop19" />
      <stop
         style="stop-color:#fff;stop-opacity:0"
         offset="1"
         id="stop21" />
    </radialGradient>
    <radialGradient
       id="m"
       cx="477.85999"
       cy="215.27"
       r="0.345"
       gradientUnits="userSpaceOnUse"
       gradientTransform="matrix(0.00881945,0,0,0.00881945,-825.15993,-674.59387)">
      <stop
         style="stop-color:#a50a0a"
         offset=".259"
         id="stop14" />
      <stop
         style="stop-color:#4c0505"
         offset="1"
         id="stop16" />
    </radialGradient>
    <linearGradient
       id="l"
       x1="473.31"
       x2="475.92999"
       y1="237.25"
       y2="270.45001"
       gradientUnits="userSpaceOnUse"
       gradientTransform="matrix(0.00881945,0,0,0.00881945,-825.15993,-674.59387)">
      <stop
         style="stop-color:#f9f0aa"
         offset=".216"
         id="stop39" />
      <stop
         style="stop-color:#b07e09"
         offset="1"
         id="stop41" />
    </linearGradient>
    <linearGradient
       id="k"
       x1="451.54001"
       x2="455.37"
       y1="249.52"
       y2="240.58"
       gradientUnits="userSpaceOnUse"
       gradientTransform="matrix(0.00881945,0,0,0.00881945,-825.15993,-674.59387)">
      <stop
         style="stop-color:#f9f0aa"
         offset=".216"
         id="stop34" />
      <stop
         style="stop-color:#b07e09"
         offset="1"
         id="stop36" />
    </linearGradient>
    <radialGradient
       id="j"
       cx="445.98001"
       cy="252.36"
       r="13.018"
       gradientUnits="userSpaceOnUse"
       xlink:href="#a"
       gradientTransform="matrix(0.00881945,0,0,0.00881945,-825.15993,-674.59387)" />
    <radialGradient
       id="a">
      <stop
         style="stop-color:#f9f0aa"
         offset=".216"
         id="stop4" />
      <stop
         style="stop-color:#b07e09"
         offset="1"
         id="stop6" />
    </radialGradient>
    <linearGradient
       id="i"
       x1="483.13"
       x2="485.5"
       y1="296.66"
       y2="326.57999"
       gradientUnits="userSpaceOnUse"
       gradientTransform="matrix(0.00881945,0,0,0.00881945,-825.15993,-674.59387)">
      <stop
         style="stop-color:#b07e09;stop-opacity:0"
         offset=".216"
         id="stop29" />
      <stop
         style="stop-color:#b07e09"
         offset="1"
         id="stop31" />
    </linearGradient>
    <linearGradient
       id="h"
       x1="473.91"
       x2="472.35999"
       y1="259.17001"
       y2="231.96001"
       gradientUnits="userSpaceOnUse"
       gradientTransform="matrix(0.00881945,0,0,0.00881945,-825.15993,-674.59387)">
      <stop
         style="stop-color:#b07e09;stop-opacity:0"
         offset=".216"
         id="stop24" />
      <stop
         style="stop-color:#b07e09"
         offset="1"
         id="stop26" />
    </linearGradient>
    <radialGradient
       id="g"
       cx="458.39001"
       cy="307.06"
       r="17.354"
       gradientUnits="userSpaceOnUse"
       xlink:href="#a"
       gradientTransform="matrix(0.00881945,0,0,0.00881945,-825.15993,-674.59387)" />
    <radialGradient
       id="radialGradient2">
      <stop
         style="stop-color:#f9f0aa"
         offset=".216"
         id="stop1" />
      <stop
         style="stop-color:#b07e09"
         offset="1"
         id="stop2" />
    </radialGradient>
    <radialGradient
       id="f"
       cx="454.10999"
       cy="308.64001"
       r="9.7799997"
       gradientUnits="userSpaceOnUse"
       xlink:href="#a"
       gradientTransform="matrix(0.00881945,0,0,0.00881945,-825.15993,-674.59387)" />
    <radialGradient
       id="radialGradient5">
      <stop
         style="stop-color:#f9f0aa"
         offset=".216"
         id="stop3" />
      <stop
         style="stop-color:#b07e09"
         offset="1"
         id="stop5" />
    </radialGradient>
    <radialGradient
       id="e"
       cx="451.56"
       cy="313"
       r="10.911"
       gradientUnits="userSpaceOnUse"
       xlink:href="#a"
       gradientTransform="matrix(0.00881945,0,0,0.00881945,-825.15993,-674.59387)" />
    <radialGradient
       id="radialGradient8">
      <stop
         style="stop-color:#f9f0aa"
         offset=".216"
         id="stop7" />
      <stop
         style="stop-color:#b07e09"
         offset="1"
         id="stop8" />
    </radialGradient>
    <radialGradient
       id="d"
       cx="447.42001"
       cy="308.26999"
       r="16.534"
       gradientUnits="userSpaceOnUse"
       xlink:href="#a"
       gradientTransform="matrix(0.00881945,0,0,0.00881945,-825.15993,-674.59387)" />
    <radialGradient
       id="radialGradient10">
      <stop
         style="stop-color:#f9f0aa"
         offset=".216"
         id="stop9" />
      <stop
         style="stop-color:#b07e09"
         offset="1"
         id="stop10" />
    </radialGradient>
  </defs>
  <g
     inkscape:label="Layer 1"
     inkscape:groupmode="layer"
     id="layer1"
     transform="translate(850.90429,809.53929)">
    <path
       d="m -850.90429,-809.53929 h 7.9375 v 5.29167 h -7.9375 z"
       fill="#ff0000"
       stroke-width="0.00885493"
       id="path2" />
    <path
       d="m -846.70213,-807.9451 0.0304,-0.58581 c 1.8e-4,-0.003 -0.002,-0.005 -0.004,-0.005 -0.003,-4.3e-4 -0.005,10e-4 -0.006,0.004 l -0.15022,0.56462 c -4.6e-4,0.002 -8.2e-4,0.004 -10e-4,0.006 -0.006,0.0361 0.019,0.07 0.0551,0.0757 0.0361,0.006 0.07,-0.019 0.0756,-0.0551 2.1e-4,-10e-4 3.5e-4,-0.002 4.6e-4,-0.003 z m 0.16171,0.0494 0.12224,-0.57372 c 5.7e-4,-0.003 -9.1e-4,-0.005 -0.003,-0.006 -0.003,-8.5e-4 -0.005,4.9e-4 -0.006,0.003 l -0.23723,0.53393 c -7.6e-4,0.002 -10e-4,0.004 -0.002,0.005 -0.0113,0.0348 0.008,0.0721 0.0425,0.0834 0.0348,0.0113 0.0721,-0.008 0.0834,-0.0425 3.7e-4,-10e-4 7e-4,-0.002 0.001,-0.003 z m 0.15191,0.0743 0.21102,-0.54732 c 9.8e-4,-0.002 -7e-5,-0.005 -0.002,-0.007 -0.002,-10e-4 -0.005,-3.6e-4 -0.007,0.002 l -0.31832,0.48992 c -10e-4,0.002 -0.002,0.003 -0.003,0.005 -0.0166,0.0326 -0.004,0.0724 0.0289,0.089 0.0326,0.0166 0.0724,0.004 0.089,-0.0288 5.4e-4,-0.001 10e-4,-0.002 0.002,-0.003 z m 0.13834,0.0971 0.29406,-0.50756 c 10e-4,-0.002 7.5e-4,-0.005 -10e-4,-0.007 -0.002,-0.002 -0.005,-10e-4 -0.007,8.8e-4 l -0.39105,0.43408 c -0.001,10e-4 -0.002,0.003 -0.004,0.004 -0.0215,0.0295 -0.015,0.0709 0.0146,0.0925 0.0295,0.0215 0.0709,0.015 0.0925,-0.0146 7e-4,-9.8e-4 10e-4,-0.002 0.002,-0.003 z m 0.12149,0.11744 0.36947,-0.45561 c 0.002,-0.002 0.002,-0.005 -3.6e-4,-0.007 -0.002,-0.002 -0.005,-0.002 -0.007,-2.5e-4 l -0.45385,0.36794 c -10e-4,10e-4 -0.003,0.003 -0.004,0.004 -0.0258,0.0258 -0.0258,0.0678 0,0.0936 0.0258,0.0259 0.0678,0.0259 0.0936,0 8.5e-4,-8.5e-4 0.002,-0.002 0.002,-0.003 z m 0.10174,0.13488 0.43588,-0.39255 c 0.002,-0.002 0.002,-0.005 7.4e-4,-0.007 -0.002,-0.002 -0.005,-0.003 -0.007,-10e-4 l -0.50559,0.29282 c -0.002,10e-4 -0.003,0.002 -0.005,0.003 -0.0295,0.0215 -0.0361,0.0629 -0.0146,0.0925 0.0215,0.0295 0.0629,0.0361 0.0925,0.0146 9.6e-4,-7.1e-4 0.002,-10e-4 0.003,-0.002 z m 0.0794,0.14921 0.49191,-0.31953 c 0.002,-10e-4 0.003,-0.004 0.002,-0.007 -10e-4,-0.002 -0.004,-0.003 -0.007,-0.002 l -0.54515,0.21012 c -0.002,7.3e-4 -0.004,10e-4 -0.005,0.002 -0.0326,0.0166 -0.0455,0.0565 -0.0289,0.0891 0.0166,0.0326 0.0565,0.0455 0.089,0.0288 0.001,-5.4e-4 0.002,-10e-4 0.003,-0.002 z m 0.055,0.15989 0.53609,-0.2381 c 0.002,-10e-4 0.004,-0.004 0.003,-0.006 -8.5e-4,-0.003 -0.004,-0.004 -0.006,-0.003 l -0.57145,0.12167 c -0.002,4.6e-4 -0.004,9.5e-4 -0.005,0.002 -0.0348,0.0113 -0.0538,0.0486 -0.0425,0.0834 0.0113,0.0348 0.0486,0.0538 0.0834,0.0425 10e-4,-3.7e-4 0.002,-7.6e-4 0.003,-0.001 z m 0.0291,0.16657 0.56689,-0.15073 c 0.003,-6.6e-4 0.004,-0.003 0.004,-0.006 -4.3e-4,-0.003 -0.003,-0.005 -0.006,-0.004 l -0.58347,0.0302 c -0.002,1.4e-4 -0.004,3.7e-4 -0.006,6.4e-4 -0.0361,0.006 -0.0608,0.0396 -0.0551,0.0757 0.006,0.0361 0.0395,0.0608 0.0757,0.0551 0.001,-1.7e-4 0.002,-4e-4 0.003,-6.4e-4 z m 0.003,0.16892 0.58341,-0.0609 c 0.003,-2.4e-4 0.005,-0.002 0.005,-0.005 0,-0.003 -0.002,-0.005 -0.005,-0.005 l -0.58108,-0.0607 c -0.002,-1.8e-4 -0.004,-2.5e-4 -0.006,-2.5e-4 -0.0366,0 -0.0662,0.0296 -0.0662,0.0662 0,0.0365 0.0296,0.0662 0.0662,0.0662 10e-4,0 0.002,-3e-5 0.004,-1e-4 z m -0.0233,0.16733 0.5858,0.0304 c 0.003,1.7e-4 0.005,-0.002 0.005,-0.004 4.3e-4,-0.003 -10e-4,-0.005 -0.004,-0.006 l -0.56461,-0.15021 c -0.002,-4.5e-4 -0.004,-8.2e-4 -0.006,-0.001 -0.0361,-0.006 -0.07,0.019 -0.0757,0.0551 -0.006,0.0361 0.019,0.07 0.0551,0.0756 10e-4,1.8e-4 0.002,3.5e-4 0.003,4.6e-4 z m -0.0494,0.1617 0.57371,0.12224 c 0.003,5.7e-4 0.005,-9.1e-4 0.006,-0.003 8.6e-4,-0.003 -5e-4,-0.005 -0.003,-0.006 l -0.53392,-0.23724 c -0.002,-7.4e-4 -0.004,-0.001 -0.005,-0.002 -0.0348,-0.0113 -0.0721,0.008 -0.0834,0.0425 -0.0113,0.0348 0.008,0.0721 0.0425,0.0834 10e-4,3.6e-4 0.002,7e-4 0.003,9.9e-4 z m -0.0743,0.15191 0.54732,0.21102 c 0.002,9.8e-4 0.005,-7e-5 0.007,-0.002 10e-4,-0.002 3.7e-4,-0.005 -0.002,-0.007 l -0.48993,-0.31832 c -0.002,-10e-4 -0.003,-0.002 -0.005,-0.003 -0.0326,-0.0166 -0.0724,-0.004 -0.089,0.0288 -0.0166,0.0326 -0.004,0.0724 0.0289,0.089 10e-4,5.5e-4 0.002,10e-4 0.003,0.002 z m -0.0971,0.13834 0.50756,0.29406 c 0.002,10e-4 0.005,7.6e-4 0.007,-10e-4 0.002,-0.002 10e-4,-0.005 -8.8e-4,-0.007 l -0.43409,-0.39105 c -10e-4,-0.001 -0.003,-0.002 -0.004,-0.004 -0.0296,-0.0215 -0.071,-0.015 -0.0925,0.0146 -0.0215,0.0296 -0.015,0.071 0.0146,0.0925 9.6e-4,6.9e-4 0.002,0.001 0.003,0.002 z m -0.11743,0.12149 0.45561,0.36947 c 0.002,0.002 0.005,0.002 0.007,-3.6e-4 0.002,-0.002 0.002,-0.005 2.5e-4,-0.007 l -0.36793,-0.45385 c -0.001,-10e-4 -0.003,-0.003 -0.004,-0.004 -0.0258,-0.0258 -0.0678,-0.0258 -0.0936,0 -0.0258,0.0258 -0.0258,0.0677 0,0.0936 8.4e-4,8.5e-4 0.002,0.002 0.003,0.002 z m -0.1349,0.10175 0.39256,0.43587 c 0.002,0.002 0.005,0.002 0.007,7.4e-4 0.002,-0.002 0.003,-0.005 10e-4,-0.007 l -0.29282,-0.5056 c -10e-4,-0.002 -0.002,-0.003 -0.003,-0.005 -0.0215,-0.0296 -0.0629,-0.0361 -0.0925,-0.0146 -0.0296,0.0215 -0.0361,0.0629 -0.0146,0.0925 7e-4,9.7e-4 10e-4,0.002 0.002,0.003 z m -0.14919,0.0794 0.31952,0.49193 c 0.001,0.002 0.004,0.003 0.007,0.002 0.002,-0.001 0.003,-0.004 0.002,-0.007 l -0.21012,-0.54516 c -7.4e-4,-0.002 -0.002,-0.003 -0.002,-0.005 -0.0166,-0.0326 -0.0565,-0.0455 -0.089,-0.0289 -0.0326,0.0166 -0.0455,0.0565 -0.0289,0.0891 5.4e-4,10e-4 10e-4,0.002 0.002,0.003 z m -0.1599,0.055 0.2381,0.5361 c 10e-4,0.002 0.004,0.004 0.006,0.003 0.003,-8.6e-4 0.004,-0.004 0.003,-0.006 l -0.12168,-0.57145 c -4.5e-4,-0.002 -9.4e-4,-0.004 -0.002,-0.005 -0.0113,-0.0348 -0.0486,-0.0538 -0.0834,-0.0425 -0.0348,0.0113 -0.0538,0.0486 -0.0425,0.0834 3.8e-4,0.001 7.7e-4,0.002 10e-4,0.003 z m -0.16657,0.0291 0.15074,0.56689 c 6.5e-4,0.003 0.003,0.004 0.006,0.004 0.003,-4.2e-4 0.005,-0.003 0.004,-0.006 l -0.0302,-0.58346 c -1.5e-4,-0.002 -3.6e-4,-0.004 -6.4e-4,-0.006 -0.006,-0.0361 -0.0395,-0.0608 -0.0757,-0.0551 -0.0361,0.006 -0.0608,0.0395 -0.0551,0.0757 1.8e-4,10e-4 4e-4,0.002 6.3e-4,0.003 z m -0.16892,0.003 0.0609,0.5834 c 2.5e-4,0.003 0.002,0.005 0.005,0.005 0.003,0 0.005,-0.002 0.005,-0.005 l 0.0607,-0.5811 c 1.8e-4,-0.002 2.5e-4,-0.004 2.5e-4,-0.006 0,-0.0365 -0.0296,-0.0662 -0.0662,-0.0662 -0.0366,0 -0.0662,0.0296 -0.0662,0.0662 0,0.001 4e-5,0.002 1.1e-4,0.004 z m -0.16732,-0.0233 -0.0304,0.5858 c -1.8e-4,0.003 0.002,0.005 0.004,0.005 0.003,4.4e-4 0.005,-0.001 0.006,-0.004 l 0.15021,-0.56461 c 4.7e-4,-0.002 8.3e-4,-0.004 10e-4,-0.006 0.006,-0.0361 -0.019,-0.07 -0.0551,-0.0757 -0.0361,-0.006 -0.07,0.019 -0.0756,0.0551 -1.7e-4,10e-4 -3.5e-4,0.002 -4.6e-4,0.003 z m -0.16171,-0.0494 -0.12224,0.57373 c -5.7e-4,0.003 9e-4,0.005 0.003,0.006 0.003,8.4e-4 0.005,-5.1e-4 0.006,-0.003 l 0.23722,-0.53393 c 7.6e-4,-0.002 10e-4,-0.004 0.002,-0.005 0.0113,-0.0348 -0.008,-0.0721 -0.0425,-0.0834 -0.0348,-0.0113 -0.0721,0.008 -0.0834,0.0425 -3.8e-4,10e-4 -7e-4,0.002 -10e-4,0.003 z m -0.1519,-0.0743 -0.21103,0.54733 c -9.7e-4,0.002 7e-5,0.005 0.002,0.007 0.002,10e-4 0.005,3.7e-4 0.007,-0.002 l 0.31832,-0.48992 c 10e-4,-0.002 0.002,-0.003 0.003,-0.005 0.0166,-0.0326 0.004,-0.0724 -0.0289,-0.0891 -0.0326,-0.0166 -0.0724,-0.004 -0.089,0.0289 -5.4e-4,10e-4 -10e-4,0.002 -0.002,0.003 z m -0.13835,-0.0971 -0.29405,0.50756 c -0.001,0.002 -7.6e-4,0.005 10e-4,0.007 0.002,0.002 0.005,10e-4 0.007,-8.7e-4 l 0.39105,-0.4341 c 10e-4,-10e-4 0.002,-0.003 0.004,-0.004 0.0215,-0.0296 0.015,-0.0709 -0.0146,-0.0925 -0.0295,-0.0215 -0.0709,-0.015 -0.0925,0.0146 -7e-4,9.7e-4 -10e-4,0.002 -0.002,0.003 z m -0.12149,-0.11743 -0.36947,0.45561 c -0.002,0.002 -0.002,0.005 3.6e-4,0.007 0.002,0.002 0.005,0.002 0.007,2.5e-4 l 0.45385,-0.36795 c 10e-4,-0.001 0.003,-0.003 0.004,-0.004 0.0258,-0.0258 0.0258,-0.0678 0,-0.0936 -0.0258,-0.0258 -0.0678,-0.0258 -0.0936,0 -8.5e-4,8.4e-4 -0.002,0.002 -0.002,0.003 z m -0.10174,-0.1349 -0.43588,0.39255 c -0.002,0.002 -0.002,0.005 -7.4e-4,0.007 0.002,0.002 0.005,0.003 0.007,10e-4 l 0.50559,-0.29282 c 0.002,-10e-4 0.003,-0.002 0.005,-0.003 0.0295,-0.0215 0.0361,-0.0629 0.0146,-0.0925 -0.0215,-0.0295 -0.0629,-0.0361 -0.0925,-0.0146 -9.6e-4,7.1e-4 -0.002,10e-4 -0.003,0.002 z m -0.0794,-0.14919 -0.49192,0.31953 c -0.002,10e-4 -0.003,0.004 -0.002,0.007 10e-4,0.002 0.004,0.003 0.007,0.002 l 0.54516,-0.21011 c 0.002,-7.5e-4 0.003,-0.002 0.005,-0.002 0.0326,-0.0166 0.0455,-0.0565 0.0289,-0.089 -0.0166,-0.0326 -0.0565,-0.0455 -0.089,-0.0288 -10e-4,5.3e-4 -0.002,10e-4 -0.003,0.002 z m -0.055,-0.1599 -0.53609,0.2381 c -0.002,0.001 -0.004,0.004 -0.003,0.006 8.6e-4,0.003 0.004,0.004 0.006,0.003 l 0.57145,-0.12168 c 0.002,-4.6e-4 0.004,-9.5e-4 0.005,-0.002 0.0348,-0.0113 0.0538,-0.0486 0.0425,-0.0834 -0.0113,-0.0348 -0.0486,-0.0538 -0.0834,-0.0425 -10e-4,3.8e-4 -0.002,7.7e-4 -0.003,10e-4 z m -0.0291,-0.16656 -0.56689,0.15073 c -0.003,6.5e-4 -0.004,0.003 -0.004,0.006 4.3e-4,0.003 0.003,0.005 0.006,0.004 l 0.58347,-0.0302 c 0.002,-1.4e-4 0.004,-3.6e-4 0.006,-6.4e-4 0.0361,-0.006 0.0608,-0.0396 0.0551,-0.0756 -0.006,-0.0361 -0.0395,-0.0608 -0.0756,-0.0551 -10e-4,2.2e-4 -0.002,4.2e-4 -0.003,6.6e-4 z m -0.003,-0.16893 -0.58341,0.0609 c -0.003,2.5e-4 -0.005,0.002 -0.005,0.005 0,0.003 0.002,0.005 0.005,0.005 l 0.58109,0.0607 c 0.002,1.4e-4 0.004,2.5e-4 0.006,2.5e-4 0.0365,0 0.0662,-0.0296 0.0662,-0.0662 0,-0.0365 -0.0296,-0.0662 -0.0662,-0.0662 -10e-4,0 -0.002,4e-5 -0.004,1.1e-4 z m 0.0233,-0.16733 -0.5858,-0.0304 c -0.003,-1.8e-4 -0.005,0.002 -0.005,0.004 -4.3e-4,0.003 10e-4,0.005 0.004,0.006 l 0.56462,0.15022 c 0.002,4.6e-4 0.004,8.3e-4 0.006,10e-4 0.0361,0.006 0.07,-0.019 0.0756,-0.0551 0.006,-0.0361 -0.019,-0.07 -0.0551,-0.0757 -10e-4,-1.7e-4 -0.002,-3.1e-4 -0.003,-4.6e-4 z m 0.0494,-0.1617 -0.57372,-0.12224 c -0.003,-5.9e-4 -0.005,9e-4 -0.006,0.003 -8.6e-4,0.003 5e-4,0.005 0.003,0.006 l 0.53392,0.23723 c 0.002,7.5e-4 0.004,10e-4 0.005,0.002 0.0348,0.0113 0.0721,-0.008 0.0834,-0.0425 0.0113,-0.0348 -0.008,-0.0721 -0.0425,-0.0834 -10e-4,-3.7e-4 -0.002,-7e-4 -0.003,-10e-4 z m 0.0743,-0.15191 -0.54732,-0.21103 c -0.002,-9.7e-4 -0.005,7e-5 -0.007,0.002 -10e-4,0.002 -3.6e-4,0.005 0.002,0.007 l 0.48992,0.31832 c 0.002,10e-4 0.003,0.002 0.005,0.003 0.0326,0.0166 0.0724,0.004 0.089,-0.0288 0.0166,-0.0326 0.004,-0.0724 -0.0289,-0.0891 -10e-4,-5.5e-4 -0.002,-10e-4 -0.003,-0.002 z m 0.0971,-0.13833 -0.50756,-0.29407 c -0.002,-0.001 -0.005,-7.5e-4 -0.007,10e-4 -0.002,0.002 -10e-4,0.005 8.9e-4,0.007 l 0.43409,0.39105 c 0.001,10e-4 0.003,0.002 0.004,0.004 0.0296,0.0215 0.0709,0.015 0.0924,-0.0146 0.0215,-0.0296 0.015,-0.071 -0.0146,-0.0925 -9.7e-4,-7.1e-4 -0.002,-10e-4 -0.003,-0.002 z m 0.11743,-0.1215 -0.4556,-0.36947 c -0.002,-0.002 -0.005,-0.002 -0.007,3.6e-4 -0.002,0.002 -0.002,0.005 -2.4e-4,0.007 l 0.36793,0.45384 c 10e-4,10e-4 0.003,0.003 0.004,0.004 0.0258,0.0259 0.0678,0.0259 0.0936,0 0.0258,-0.0258 0.0258,-0.0677 0,-0.0936 -8.4e-4,-8.5e-4 -0.002,-0.002 -0.003,-0.002 z m 0.1349,-0.10175 -0.39256,-0.43588 c -0.002,-0.002 -0.005,-0.002 -0.007,-7.3e-4 -0.002,0.002 -0.003,0.005 -10e-4,0.007 l 0.29283,0.50558 c 10e-4,0.002 0.002,0.003 0.003,0.005 0.0215,0.0295 0.0629,0.0361 0.0925,0.0146 0.0296,-0.0215 0.0361,-0.0629 0.0146,-0.0925 -7e-4,-9.8e-4 -10e-4,-0.002 -0.002,-0.003 z m 0.1492,-0.0794 -0.31953,-0.49193 c -10e-4,-0.002 -0.004,-0.003 -0.007,-0.002 -0.002,10e-4 -0.003,0.004 -0.002,0.007 l 0.21011,0.54516 c 7.4e-4,0.002 0.002,0.004 0.002,0.005 0.0166,0.0326 0.0565,0.0455 0.089,0.0288 0.0326,-0.0166 0.0455,-0.0565 0.0289,-0.089 -5.4e-4,-10e-4 -10e-4,-0.002 -0.002,-0.003 z m 0.1599,-0.055 -0.2381,-0.53609 c -10e-4,-0.002 -0.004,-0.004 -0.006,-0.003 -0.003,8.6e-4 -0.004,0.004 -0.003,0.006 l 0.12167,0.57145 c 4.6e-4,0.002 9.5e-4,0.004 0.002,0.005 0.0113,0.0348 0.0486,0.0538 0.0834,0.0425 0.0348,-0.0113 0.0538,-0.0486 0.0425,-0.0834 -3.9e-4,-10e-4 -7.8e-4,-0.002 -10e-4,-0.003 z m 0.16657,-0.0291 -0.15074,-0.56689 c -6.5e-4,-0.003 -0.003,-0.004 -0.006,-0.004 -0.003,4.2e-4 -0.005,0.003 -0.004,0.006 l 0.0302,0.58346 c 1.4e-4,0.002 3.6e-4,0.004 6.5e-4,0.006 0.006,0.0361 0.0396,0.0608 0.0756,0.0551 0.0361,-0.006 0.0608,-0.0395 0.0551,-0.0757 -1.7e-4,-0.001 -4e-4,-0.002 -6.3e-4,-0.003 z m 0.16891,-0.003 -0.0609,-0.58342 c -2.5e-4,-0.003 -0.002,-0.005 -0.005,-0.005 -0.003,0 -0.005,0.002 -0.005,0.005 l -0.0607,0.58109 c -1.8e-4,0.002 -2.5e-4,0.004 -2.5e-4,0.006 0,0.0366 0.0296,0.0662 0.0662,0.0662 0.0365,0 0.0662,-0.0296 0.0662,-0.0662 0,-10e-4 -4e-5,-0.002 -1.1e-4,-0.004 z m -0.0661,0.0702 c 0.55494,0 1.00482,0.44987 1.00482,1.00482 0,0.55493 -0.44988,1.00481 -1.00482,1.00481 -0.55494,0 -1.00481,-0.44988 -1.00481,-1.00481 0,-0.55495 0.44987,-1.00482 1.00481,-1.00482 z m 0,0.12045 c 0.48842,0 0.88436,0.39595 0.88436,0.88437 0,0.48841 -0.39594,0.88436 -0.88436,0.88436 -0.48842,0 -0.88436,-0.39595 -0.88436,-0.88436 0,-0.48842 0.39594,-0.88437 0.88436,-0.88437 z m -0.73843,1.14979 c 0.0904,-0.18911 0.21539,-0.35622 0.35988,-0.49679 0.0226,0.0148 0.0449,0.0302 0.0671,0.0462 -0.15173,0.14504 -0.28398,0.32454 -0.38374,0.54445 -0.0164,-0.0301 -0.0308,-0.0615 -0.0432,-0.0938 z m 0.80081,-0.45646 c 0.0205,0.0172 0.0407,0.0349 0.0606,0.0533 0.0212,-0.0174 0.0427,-0.0342 0.0645,-0.0505 -0.0199,-0.018 -0.04,-0.0354 -0.0605,-0.0524 -0.0218,0.016 -0.0434,0.0326 -0.0646,0.0496 z m -0.12849,-0.0981 c 0.0223,0.0155 0.0443,0.0315 0.0661,0.0481 0.0218,-0.0166 0.0438,-0.0327 0.0661,-0.0481 -0.0218,-0.0166 -0.0438,-0.0327 -0.0661,-0.0482 -0.0223,0.0155 -0.0443,0.0316 -0.0661,0.0482 z m 0.006,0.20542 c 0.0204,0.0184 0.0405,0.0374 0.0602,0.057 0.0197,-0.0196 0.0398,-0.0386 0.0602,-0.057 -0.0197,-0.0188 -0.0398,-0.0372 -0.0602,-0.0551 -0.0204,0.0178 -0.0405,0.0362 -0.0602,0.0551 z m -0.12733,-0.10453 c 0.0218,0.0162 0.0433,0.0331 0.0645,0.0505 0.0199,-0.0183 0.0401,-0.0361 0.0606,-0.0533 -0.0213,-0.0171 -0.0428,-0.0336 -0.0646,-0.0496 -0.0205,0.017 -0.0407,0.0345 -0.0605,0.0524 z m 0.3956,-0.19018 c -0.0219,-0.0167 -0.0441,-0.0329 -0.0665,-0.0485 -0.0255,0.0145 -0.0508,0.0298 -0.0759,0.0458 0.0229,0.0152 0.0456,0.0309 0.0679,0.0473 0.0246,-0.0155 0.0494,-0.0303 0.0744,-0.0445 z m 0.11706,0.097 c -0.0197,-0.0177 -0.0396,-0.0349 -0.0599,-0.0516 -0.0239,0.0145 -0.0476,0.0296 -0.0711,0.0453 0.0207,0.0165 0.0411,0.0336 0.0613,0.0512 0.023,-0.0156 0.0463,-0.0305 0.0697,-0.0449 z m -0.40483,-0.18691 c 0.0263,-0.0168 0.0529,-0.0329 0.0797,-0.0482 0.0268,0.0153 0.0534,0.0314 0.0797,0.0482 -0.0268,0.0145 -0.0534,0.0296 -0.0797,0.0455 -0.0263,-0.0159 -0.0529,-0.0311 -0.0797,-0.0455 z m -0.1284,0.0899 c 0.0219,-0.0167 0.0441,-0.0329 0.0665,-0.0485 0.0255,0.0145 0.0508,0.0298 0.0759,0.0458 -0.0229,0.0152 -0.0456,0.0309 -0.0679,0.0473 -0.0246,-0.0155 -0.0494,-0.0303 -0.0744,-0.0445 z m -0.11707,0.097 c 0.0197,-0.0177 0.0396,-0.0349 0.0599,-0.0516 0.0239,0.0145 0.0476,0.0296 0.0711,0.0453 -0.0207,0.0165 -0.0411,0.0336 -0.0613,0.0512 -0.023,-0.0156 -0.0463,-0.0305 -0.0697,-0.0449 z m -0.36894,-0.11556 c 0.0818,0.0328 0.16336,0.073 0.243,0.12023 -0.12259,0.11684 -0.23252,0.25611 -0.32299,0.42095 -0.0109,-0.0523 -0.0167,-0.10654 -0.0167,-0.1621 0,-0.13737 0.035,-0.26654 0.0966,-0.37908 z m 0.0672,-0.10286 c 0.0964,0.0312 0.19345,0.073 0.28839,0.12471 -0.0204,0.0164 -0.0406,0.0333 -0.0605,0.0507 -0.0867,-0.0479 -0.17576,-0.0884 -0.2656,-0.12212 0.0118,-0.0183 0.0244,-0.0361 0.0377,-0.0533 z m 0.0843,-0.0933 c 0.109,0.0286 0.2198,0.0713 0.32837,0.12687 -0.0229,0.0153 -0.0456,0.0312 -0.0679,0.0477 -0.10046,-0.0514 -0.20362,-0.0933 -0.30704,-0.12672 0.0149,-0.0166 0.0304,-0.0326 0.0466,-0.0479 z m 0.12297,-0.0951 c 0.002,8.5e-4 0.005,0.002 0.007,0.003 0.003,7.3e-4 0.006,10e-4 0.009,0.002 0.111,0.0289 0.2239,0.0725 0.33445,0.12934 -0.0281,0.0153 -0.0559,0.0314 -0.0835,0.0483 -0.10697,-0.0521 -0.21664,-0.0937 -0.32613,-0.12594 -9.4e-4,-2.5e-4 -0.007,-0.002 -0.0139,-0.005 0.0233,-0.0186 0.0477,-0.0359 0.073,-0.0518 z m 0.7718,-0.0378 c -0.004,0.001 -0.007,0.002 -0.008,0.003 -0.1155,0.0337 -0.23126,0.0776 -0.34391,0.1333 -0.11051,-0.0547 -0.22402,-0.098 -0.33734,-0.13139 -0.002,-6.4e-4 -0.004,-0.001 -0.007,-0.002 -0.003,-8e-4 -0.006,-0.002 -0.009,-0.003 0.10613,-0.0529 0.2258,-0.0828 0.35245,-0.0828 0.12655,0 0.24614,0.0298 0.35219,0.0826 z m 0.14117,0.0902 c -0.003,8.8e-4 -0.006,0.002 -0.008,0.002 -0.11172,0.0325 -0.22368,0.0747 -0.33285,0.12789 -0.0275,-0.0169 -0.0554,-0.033 -0.0834,-0.0483 0.11343,-0.0584 0.22935,-0.10272 0.34313,-0.13156 0.003,-4.5e-4 0.006,-10e-4 0.008,-0.002 0.0253,0.0159 0.0495,0.0332 0.0727,0.0517 z m 0.0958,0.0906 c -0.10342,0.0334 -0.20658,0.0753 -0.30704,0.12672 -0.0224,-0.0165 -0.0451,-0.0324 -0.0679,-0.0477 0.10857,-0.0556 0.21936,-0.0983 0.32837,-0.12687 0.0162,0.0153 0.0317,0.0313 0.0466,0.0479 z m 0.0754,0.0987 c -0.0898,0.0338 -0.17891,0.0742 -0.26559,0.12212 -0.0199,-0.0175 -0.0401,-0.0344 -0.0605,-0.0507 0.0949,-0.0517 0.19198,-0.0936 0.28839,-0.12471 0.0133,0.0172 0.0259,0.035 0.0377,0.0533 z m 0.10948,0.5907 c -0.0904,-0.16483 -0.20038,-0.30411 -0.32298,-0.42095 0.0796,-0.0472 0.1612,-0.0874 0.243,-0.12023 0.0616,0.11256 0.0966,0.24171 0.0966,0.37908 0,0.0556 -0.006,0.10978 -0.0167,0.1621 z m -0.0789,0.21496 c -0.0998,-0.21991 -0.232,-0.39941 -0.38374,-0.54445 0.0221,-0.0159 0.0445,-0.0313 0.0671,-0.0462 0.14451,0.14057 0.26948,0.30767 0.3599,0.49679 -0.0124,0.0323 -0.0268,0.0637 -0.0432,0.0938 z m -0.12317,0.16886 c -0.0963,-0.24829 -0.23205,-0.44923 -0.39127,-0.61015 0.0209,-0.018 0.0421,-0.0356 0.0636,-0.0525 0.16478,0.16205 0.30357,0.35886 0.39383,0.5836 -0.0204,0.0278 -0.0424,0.0542 -0.0662,0.0791 z m -0.14926,0.12238 -0.0105,-0.0282 c -0.0873,-0.23587 -0.2098,-0.42994 -0.35422,-0.58831 0.0197,-0.0204 0.0398,-0.0402 0.0603,-0.0596 0.16538,0.17262 0.30127,0.38157 0.38301,0.61934 -0.0249,0.0205 -0.0512,0.0394 -0.0785,0.0568 z m -0.76508,0.0447 0.0101,-0.0316 c 0.0729,-0.21398 0.18955,-0.4047 0.33219,-0.56675 0.14264,0.16205 0.25934,0.35277 0.33219,0.56675 l 0.0104,0.0315 c -0.10364,0.0499 -0.21982,0.0779 -0.34254,0.0779 -0.12262,0 -0.23874,-0.0279 -0.34231,-0.0777 z m -0.15901,-0.1015 c 0.0818,-0.23777 0.21763,-0.44672 0.383,-0.61934 0.0205,0.0194 0.0406,0.0392 0.0603,0.0596 -0.14443,0.15837 -0.2669,0.35244 -0.35423,0.58831 l -0.0105,0.0283 c -0.0274,-0.0173 -0.0536,-0.0363 -0.0786,-0.0568 z m -0.1369,-0.14467 c 0.0903,-0.22474 0.22906,-0.42155 0.39385,-0.5836 0.0215,0.017 0.0427,0.0345 0.0636,0.0525 -0.15922,0.16092 -0.29495,0.36186 -0.39128,0.61015 -0.0237,-0.0249 -0.0458,-0.0513 -0.0662,-0.0791"
       fill="#ffed00"
       fill-rule="evenodd"
       id="path4"
       style="stroke-width:0.00881944" />
  </g>
</svg>
