<?xml version="1.0" encoding="UTF-8" standalone="no"?>
<!-- Creator: CorelDRAW Home & Student X8 -->

<svg
   xml:space="preserve"
   width="7.9375mm"
   height="5.291667mm"
   version="1.1"
   style="clip-rule:evenodd;fill-rule:evenodd;image-rendering:optimizeQuality;shape-rendering:geometricPrecision;text-rendering:geometricPrecision"
   viewBox="0 0 793.75 529.1667"
   id="svg9"
   sodipodi:docname="Hakasya.svg"
   inkscape:version="1.4 (86a8ad7, 2024-10-11)"
   xmlns:inkscape="http://www.inkscape.org/namespaces/inkscape"
   xmlns:sodipodi="http://sodipodi.sourceforge.net/DTD/sodipodi-0.dtd"
   xmlns="http://www.w3.org/2000/svg"
   xmlns:svg="http://www.w3.org/2000/svg"><sodipodi:namedview
   id="namedview9"
   pagecolor="#ffffff"
   bordercolor="#000000"
   borderopacity="0.25"
   inkscape:showpageshadow="2"
   inkscape:pageopacity="0.0"
   inkscape:pagecheckerboard="0"
   inkscape:deskcolor="#d1d1d1"
   inkscape:document-units="mm"
   inkscape:zoom="1.4234583"
   inkscape:cx="425.37248"
   inkscape:cy="283.46457"
   inkscape:window-width="1920"
   inkscape:window-height="1009"
   inkscape:window-x="-8"
   inkscape:window-y="-8"
   inkscape:window-maximized="1"
   inkscape:current-layer="Layer_x0020_1" />
 <defs
   id="defs1">
  <style
   type="text/css"
   id="style1">
   <![CDATA[
    .fil3 {fill:#109846}
    .fil2 {fill:#2B4C99}
    .fil0 {fill:#E33A24}
    .fil1 {fill:#FEFEFE}
    .fil4 {fill:#FFD90C}
   ]]>
  </style>
 </defs>
 <g
   id="Layer_x0020_1"
   inkscape:label="Layer 1"
   inkscape:groupmode="layer">
  <metadata
   id="CorelCorpID_0Corel-Layer" />
  <rect
   class="fil0"
   width="793.75"
   height="529.16669"
   id="rect1"
   x="0"
   y="0"
   style="stroke-width:0.0352778" />
  <rect
   class="fil1"
   width="793.75"
   height="352.77777"
   id="rect2"
   x="0"
   y="0"
   style="stroke-width:0.0352778" />
  <rect
   class="fil2"
   width="793.75"
   height="176.38889"
   id="rect3"
   x="0"
   y="0"
   style="stroke-width:0.0352778" />
  <rect
   class="fil3"
   width="176.38889"
   height="529.16669"
   id="rect4"
   x="0"
   y="0"
   style="stroke-width:0.0352778" />
  <g
   id="_510852648"
   transform="scale(0.03527778)">
   <polygon
   class="fil4"
   points="1263,6263 732,9268 3737,8737 4268,5732 "
   id="polygon4" />
   <polygon
   class="fil4"
   points="3737,6263 4268,9268 1263,8737 732,5732 "
   id="polygon5" />
   <circle
   class="fil4"
   transform="matrix(0.668132,0.668132,-0.668132,0.668132,2499.99,7500)"
   r="2117"
   id="circle5"
   cx="0"
   cy="0" />
   <circle
   class="fil3"
   transform="matrix(0.668132,0.668132,-0.668132,0.668132,2499.99,7500)"
   r="1852"
   id="circle6"
   cx="0"
   cy="0" />
   <circle
   class="fil4"
   transform="matrix(0.668132,0.668132,-0.668132,0.668132,2499.99,7500)"
   r="1588"
   id="circle7"
   cx="0"
   cy="0" />
   <circle
   class="fil3"
   transform="matrix(0.668132,0.668132,-0.668132,0.668132,2499.99,7500)"
   r="1058"
   id="circle8"
   cx="0"
   cy="0" />
   <circle
   class="fil4"
   transform="matrix(0.668132,0.668132,-0.668132,0.668132,2499.99,7500)"
   r="882"
   id="circle9"
   cx="0"
   cy="0" />
  </g>
 </g>
</svg>
