<svg width="30" height="20" xmlns="http://www.w3.org/2000/svg"><symbol id="Flag_of_Kurdistan" width="30" height="20" viewBox="0 0 90 60"><path d="M0 0h90v60H0z" fill="#fff"/><path d="M0 0h90v20H0z" fill="#ed2024"/><path d="M0 40h90v20H0z" fill="#278e43"/><path d="m45 15 1.124 7.6264 3.3222-6.9563-1.1738 7.619 5.2249-5.668-3.3674 6.9344 6.6634-3.8761-5.2616 5.6338 7.5098-1.7399-6.6885 3.8327 7.689.551-7.521 1.6909 7.185 2.7929-7.6852-.6011 6.0425 4.7867-7.1666-2.8397 4.3632 6.355-6.0113-4.8259 2.2962 7.3589-4.3217-6.3834.025 7.7087L45 37.6264 42.7518 45l.0251-7.7087-4.3217 6.3834 2.2962-7.3589-6.0113 4.826 4.3632-6.3551-7.1666 2.8397 6.0425-4.7867-7.6852.6011 7.185-2.793-7.521-1.6908 7.689-.551-6.6885-3.8327 7.5098 1.7399-5.2616-5.6338 6.6634 3.876-3.3674-6.9343 5.2249 5.668-1.1738-7.619 3.3221 6.9563z" fill="#febd11"/></symbol><use x="-5.5" href="#Flag_of_Kurdistan"/><path d="M19 0h11v20H19z" fill="#fff"/><path transform="matrix(0 -.2.2 0 0 0)" d="m-82.42 125.6 8.42 14h7.82l-11.89-19 11.47-15.1h-8.05l-8.29 11.4-3.09 4.2v-15.6h-6.6v34.1h6.6v-10.1zm29.18-20.1h-8.17v34.1h6.04v-10.1l-.28-15.3 4 14.1h3.25l4.47-14.8-.28 16v10.1h6.04v-34.1h-8.17l-3.67 12.8zm34.75 21.3 6.41 12.8h7.047v-.3l-7.327-14.1q1.41-.6 2.529-1.5 1.147-.9 1.966-2 .796-1.2 1.217-2.6.445-1.5.445-3.3 0-2.6-.89-4.5-.866-1.9-2.48-3.2-1.637-1.3-3.937-1.9-2.29-.7-5.12-.7h-11.42v34.1h6.57v-12.8zm-4.99-5.3v-10.7h4.85q1.36 0 2.41.3 1.05.4 1.78 1 .82.7 1.22 1.7.42 1 .42 2.4 0 1.1-.33 2-.31 1-.91 1.6-.73.8-1.9 1.3-1.15.4-2.67.4z"/></svg>
