<svg width="30" height="20" xmlns="http://www.w3.org/2000/svg"><symbol id="Flag_of_Kurdistan" width="30" height="20" viewBox="0 0 90 60"><path d="M0 0h90v60H0z" fill="#fff"/><path d="M0 0h90v20H0z" fill="#ed2024"/><path d="M0 40h90v20H0z" fill="#278e43"/><path d="m45 15 1.124 7.6264 3.3222-6.9563-1.1738 7.619 5.2249-5.668-3.3674 6.9344 6.6634-3.8761-5.2616 5.6338 7.5098-1.7399-6.6885 3.8327 7.689.551-7.521 1.6909 7.185 2.7929-7.6852-.6011 6.0425 4.7867-7.1666-2.8397 4.3632 6.355-6.0113-4.8259 2.2962 7.3589-4.3217-6.3834.025 7.7087L45 37.6264 42.7518 45l.0251-7.7087-4.3217 6.3834 2.2962-7.3589-6.0113 4.826 4.3632-6.3551-7.1666 2.8397 6.0425-4.7867-7.6852.6011 7.185-2.793-7.521-1.6908 7.689-.551-6.6885-3.8327 7.5098 1.7399-5.2616-5.6338 6.6634 3.876-3.3674-6.9343 5.2249 5.668-1.1738-7.619 3.3221 6.9563z" fill="#febd11"/></symbol><use x="-5.5" href="#Flag_of_Kurdistan"/><path d="M19 0h11v20H19z" fill="#fff"/><symbol id="K"><path d="m6.26 5.12 1.73 2.88h1.61l-2.44-3.9 2.36-3.1h-1.65l-1.7 2.35-.635.856v-3.21h-1.36v7h1.36v-2.06z"/></symbol><symbol id="M"><path d="m5.83 1h-1.68v7h1.24v-2.07l-.0577-3.14.822 2.91h.668l.918-3.04-.0577 3.27v2.07h1.24v-7h-1.68l-.755 2.63z"/></symbol><symbol id="R"><path d="m6.55 5.38 1.32 2.62h1.45v-.0625l-1.5-2.89q.29-.13.519-.308.24-.18.404-.418.16-.24.25-.534.091-.3.0913-.678 0-.52-.183-.914-.18-.39-.51-.659-.34-.26-.808-.399-.47-.14-1.05-.139h-2.35v7h1.35v-2.62zm-1.02-1.1v-2.19h.995q.28 0 .495.067.22.067.365.192.17.14.25.356.087.21.087.49 0 .23-.067.418-.062.19-.188.322-.15.17-.389.26-.24.087-.548.087z"/></symbol><g transform="rotate(-90 15 -5)"><use x="-13" href="#K"/><use x="-6.5" href="#M"/><use href="#R"/></g></svg>
