<svg width="30" height="20" xmlns="http://www.w3.org/2000/svg"><path d="M0 0h30v20H0z" fill="#fff"/><path transform="scale(.1)" d="m55.7 109.6 26.55 44.1h24.65l-37.48-59.89 36.18-47.5h-25.41l-26.11 36.07-9.74 13.13v-49.2h-20.8v107.39h20.8v-31.6zm129.4 44.1v-107.39h-20.8v68.99l-29.7-68.99h-20.9v107.39h20.9v-69.26l29.9 69.26zm94.5-33.6h-20.8q-.3 4.8-1.6 8.3t-3.6 5.7-5.5 3.2q-3.3 1.1-7.3 1.1-3.1 0-5.6-.7-2.4-.7-4.4-2.2-1.8-1.3-3.3-3.3-1.4-2-2.5-4.6-1.4-3.8-2.2-8.8-.6-5.1-.6-11.5v-14.6q0-4.72.4-8.77.5-4.13 1.4-7.53 1.3-4.35 3.3-7.59 2.2-3.32 5.2-5.09 1.8-1.03 3.8-1.55 2.2-.52 4.6-.52 4.6 0 7.8 1.26 3.3 1.18 5.6 3.54 2.1 2.43 3.2 6.05 1.2 3.61 1.5 8.4h20.6q-.7-8.4-3.5-15.12-2.8-6.71-7.7-11.36-4.8-4.64-11.8-7.15-6.8-2.51-15.7-2.51-6 0-11.2 1.55-5.2 1.48-9.5 4.28-4.9 3.32-8.7 8.11-3.9 4.8-6.2 10.92-2.1 5.01-3.1 10.91-1 5.83-1 12.32v14.45q0 6.9 1.1 13.1t3.3 11.4 5.4 9.4q3.2 4.3 7.3 7.3 4.5 3.3 10.1 5.1 5.7 1.7 12.4 1.7 8.4 0 15.3-2.5t12-7.1q5-4.5 7.9-11 3-6.5 3.6-14.6z"/></svg>
