<svg width="30" height="20" xmlns="http://www.w3.org/2000/svg"><path d="M0 0h30v20H0z" fill="#fff"/><symbol id="K"><path d="m6.26 5.12 1.73 2.88h1.61l-2.44-3.9 2.36-3.1h-1.65l-1.7 2.35-.635.856v-3.21h-1.36v7h1.36v-2.06z"/></symbol><symbol id="N"><path d="m8.79 8v-7h-1.36v4.5l-1.94-4.5h-1.36v7h1.36v-4.51l1.95 4.51z"/></symbol><symbol id="C"><path d="m9.04 5.81h-1.35q-.019.32-.106.543-.086.23-.236.37-.15.14-.361.212-.21.067-.476.0673-.2 0-.361-.0433-.16-.048-.288-.144-.12-.086-.216-.216-.091-.13-.159-.298-.096-.25-.144-.572-.043-.33-.0432-.75v-.952q0-.31.029-.572.029-.27.0912-.49.082-.28.216-.495.14-.22.336-.332.12-.067.25-.101.14-.034.298-.0337.3 0 .51.082.22.077.361.231.14.16.212.394.077.24.096.548h1.35q-.048-.55-.231-.986t-.5-.74q-.32-.3-.769-.466-.45-.16-1.02-.163-.39 0-.731.101-.34.096-.62.279-.32.22-.567.529t-.404.712q-.13.33-.202.712-.067.38-.0673.803v.942q0 .45.072.856.077.4.216.74.14.34.351.615.21.28.481.476.29.21.659.327.37.11.803.111.55 0 1-.159.45-.16.779-.462.33-.3.519-.721.2-.42.231-.952z"/></symbol><g transform="matrix(1.5 0 0 1.5 15 3.25)"><use x="-13" href="#K"/><use x="-6.5" href="#N"/><use href="#C"/></g></svg>
