<?xml version="1.0" encoding="UTF-8" standalone="no"?>
<!-- Created with Inkscape (http://www.inkscape.org/) -->

<svg
   width="7.9375mm"
   height="5.2916698mm"
   viewBox="0 0 7.9375 5.29167"
   version="1.1"
   id="svg1"
   inkscape:version="1.4 (86a8ad7, 2024-10-11)"
   sodipodi:docname="kor.svg"
   xmlns:inkscape="http://www.inkscape.org/namespaces/inkscape"
   xmlns:sodipodi="http://sodipodi.sourceforge.net/DTD/sodipodi-0.dtd"
   xmlns:xlink="http://www.w3.org/1999/xlink"
   xmlns="http://www.w3.org/2000/svg"
   xmlns:svg="http://www.w3.org/2000/svg">
  <sodipodi:namedview
     id="namedview1"
     pagecolor="#ffffff"
     bordercolor="#000000"
     borderopacity="0.25"
     inkscape:showpageshadow="2"
     inkscape:pageopacity="0.0"
     inkscape:pagecheckerboard="0"
     inkscape:deskcolor="#d1d1d1"
     inkscape:document-units="mm"
     inkscape:zoom="0.71891835"
     inkscape:cx="573.77865"
     inkscape:cy="207.2558"
     inkscape:window-width="1904"
     inkscape:window-height="992"
     inkscape:window-x="-26"
     inkscape:window-y="145"
     inkscape:window-maximized="0"
     inkscape:current-layer="layer1" />
  <defs
     id="defs1">
    <radialGradient
       id="n"
       cx="489.07001"
       cy="210.33"
       r="0.345"
       gradientTransform="matrix(0.00861722,0,0,0.0090267,-825.15993,-674.59387)"
       gradientUnits="userSpaceOnUse">
      <stop
         style="stop-color:#fff"
         offset="0"
         id="stop19" />
      <stop
         style="stop-color:#fff;stop-opacity:0"
         offset="1"
         id="stop21" />
    </radialGradient>
    <radialGradient
       id="m"
       cx="477.85999"
       cy="215.27"
       r="0.345"
       gradientUnits="userSpaceOnUse"
       gradientTransform="matrix(0.00881945,0,0,0.00881945,-825.15993,-674.59387)">
      <stop
         style="stop-color:#a50a0a"
         offset=".259"
         id="stop14" />
      <stop
         style="stop-color:#4c0505"
         offset="1"
         id="stop16" />
    </radialGradient>
    <linearGradient
       id="l"
       x1="473.31"
       x2="475.92999"
       y1="237.25"
       y2="270.45001"
       gradientUnits="userSpaceOnUse"
       gradientTransform="matrix(0.00881945,0,0,0.00881945,-825.15993,-674.59387)">
      <stop
         style="stop-color:#f9f0aa"
         offset=".216"
         id="stop39" />
      <stop
         style="stop-color:#b07e09"
         offset="1"
         id="stop41" />
    </linearGradient>
    <linearGradient
       id="k"
       x1="451.54001"
       x2="455.37"
       y1="249.52"
       y2="240.58"
       gradientUnits="userSpaceOnUse"
       gradientTransform="matrix(0.00881945,0,0,0.00881945,-825.15993,-674.59387)">
      <stop
         style="stop-color:#f9f0aa"
         offset=".216"
         id="stop34" />
      <stop
         style="stop-color:#b07e09"
         offset="1"
         id="stop36" />
    </linearGradient>
    <radialGradient
       id="j"
       cx="445.98001"
       cy="252.36"
       r="13.018"
       gradientUnits="userSpaceOnUse"
       xlink:href="#a"
       gradientTransform="matrix(0.00881945,0,0,0.00881945,-825.15993,-674.59387)" />
    <radialGradient
       id="a">
      <stop
         style="stop-color:#f9f0aa"
         offset=".216"
         id="stop4" />
      <stop
         style="stop-color:#b07e09"
         offset="1"
         id="stop6" />
    </radialGradient>
    <linearGradient
       id="i"
       x1="483.13"
       x2="485.5"
       y1="296.66"
       y2="326.57999"
       gradientUnits="userSpaceOnUse"
       gradientTransform="matrix(0.00881945,0,0,0.00881945,-825.15993,-674.59387)">
      <stop
         style="stop-color:#b07e09;stop-opacity:0"
         offset=".216"
         id="stop29" />
      <stop
         style="stop-color:#b07e09"
         offset="1"
         id="stop31" />
    </linearGradient>
    <linearGradient
       id="h"
       x1="473.91"
       x2="472.35999"
       y1="259.17001"
       y2="231.96001"
       gradientUnits="userSpaceOnUse"
       gradientTransform="matrix(0.00881945,0,0,0.00881945,-825.15993,-674.59387)">
      <stop
         style="stop-color:#b07e09;stop-opacity:0"
         offset=".216"
         id="stop24" />
      <stop
         style="stop-color:#b07e09"
         offset="1"
         id="stop26" />
    </linearGradient>
    <radialGradient
       id="g"
       cx="458.39001"
       cy="307.06"
       r="17.354"
       gradientUnits="userSpaceOnUse"
       xlink:href="#a"
       gradientTransform="matrix(0.00881945,0,0,0.00881945,-825.15993,-674.59387)" />
    <radialGradient
       id="radialGradient2">
      <stop
         style="stop-color:#f9f0aa"
         offset=".216"
         id="stop1" />
      <stop
         style="stop-color:#b07e09"
         offset="1"
         id="stop2" />
    </radialGradient>
    <radialGradient
       id="f"
       cx="454.10999"
       cy="308.64001"
       r="9.7799997"
       gradientUnits="userSpaceOnUse"
       xlink:href="#a"
       gradientTransform="matrix(0.00881945,0,0,0.00881945,-825.15993,-674.59387)" />
    <radialGradient
       id="radialGradient5">
      <stop
         style="stop-color:#f9f0aa"
         offset=".216"
         id="stop3" />
      <stop
         style="stop-color:#b07e09"
         offset="1"
         id="stop5" />
    </radialGradient>
    <radialGradient
       id="e"
       cx="451.56"
       cy="313"
       r="10.911"
       gradientUnits="userSpaceOnUse"
       xlink:href="#a"
       gradientTransform="matrix(0.00881945,0,0,0.00881945,-825.15993,-674.59387)" />
    <radialGradient
       id="radialGradient8">
      <stop
         style="stop-color:#f9f0aa"
         offset=".216"
         id="stop7" />
      <stop
         style="stop-color:#b07e09"
         offset="1"
         id="stop8" />
    </radialGradient>
    <radialGradient
       id="d"
       cx="447.42001"
       cy="308.26999"
       r="16.534"
       gradientUnits="userSpaceOnUse"
       xlink:href="#a"
       gradientTransform="matrix(0.00881945,0,0,0.00881945,-825.15993,-674.59387)" />
    <radialGradient
       id="radialGradient10">
      <stop
         style="stop-color:#f9f0aa"
         offset=".216"
         id="stop9" />
      <stop
         style="stop-color:#b07e09"
         offset="1"
         id="stop10" />
    </radialGradient>
  </defs>
  <g
     inkscape:label="Layer 1"
     inkscape:groupmode="layer"
     id="layer1"
     transform="translate(794.20367,644.69595)">
    <path
       d="m -794.20367,-644.69595 h 7.9375 v 5.29167 h -7.9375 z"
       fill="#ffffff"
       id="path347"
       style="stroke-width:0.110243" />
    <path
       id="path335"
       d="m -792.98675,-643.0897 0.73382,-1.10073 0.18345,0.1223 -0.73382,1.10074 z m 0.27518,0.18346 0.73382,-1.10074 0.18346,0.12231 -0.73382,1.10073 z m 0.27518,0.18345 0.73383,-1.10073 0.18345,0.1223 -0.73382,1.10074 z"
       style="stroke-width:0.110243" />
    <path
       id="path338"
       d="m -788.95073,-640.39902 0.73382,-1.10073 0.18346,0.1223 -0.73383,1.10074 z m 0.27518,0.18346 0.73382,-1.10073 0.18346,0.1223 -0.73382,1.10073 z m 0.27519,0.18345 0.73382,-1.10073 0.18345,0.1223 -0.73382,1.10074 z"
       style="stroke-width:0.110243" />
    <path
       style="color:#000000;fill:#000000;stroke-width:0.110243;-inkscape-stroke:none"
       d="m -788.67555,-641.01054 0.91728,0.61152"
       id="path317" />
    <path
       style="color:#000000;fill:#ffffff;stroke-width:0.110243;-inkscape-stroke:none"
       d="m -788.64501,-641.05642 -0.0611,0.0917 0.91726,0.61151 0.0611,-0.0917 z"
       id="path320" />
    <path
       fill="#cd2e3a"
       d="m -791.33565,-642.78394 a 1.3229168,1.3229168 0 0 1 2.20146,1.46765 z"
       id="path341"
       style="stroke-width:0.110243" />
    <path
       fill="#0047a0"
       d="m -791.33565,-642.78394 a 1.3229168,1.3229168 0 0 0 2.20146,1.46765 0.66145918,0.66145918 0 0 0 -1.10073,-0.73383 z"
       id="path344"
       style="stroke-width:0.110243" />
    <path
       id="path350"
       style="fill:#cd2e3a;stroke-width:0.110243"
       d="m -790.41838,-642.96739 a 0.66145833,0.66145833 0 0 1 0.18346,0.91727 0.66145833,0.66145833 0 0 1 -0.91728,0.18346 0.66145833,0.66145833 0 0 1 -0.18345,-0.91728 0.66145833,0.66145833 0 0 1 0.91727,-0.18345 z" />
    <path
       id="path329"
       d="m -792.25293,-639.9098 -0.73382,-1.10074 0.18345,-0.1223 0.73382,1.10073 z m 0.27518,-0.18346 -0.73382,-1.10073 0.18346,-0.1223 0.73382,1.10073 z m 0.27519,-0.18345 -0.73383,-1.10074 0.18346,-0.1223 0.73382,1.10073 z"
       style="stroke-width:0.110243" />
    <path
       id="path332"
       d="m -788.21691,-642.60048 -0.73382,-1.10074 0.18345,-0.1223 0.73383,1.10073 z m 0.27518,-0.18346 -0.73382,-1.10073 0.18346,-0.12231 0.73382,1.10074 z m 0.27519,-0.18345 -0.73382,-1.10074 0.18345,-0.1223 0.73382,1.10073 z"
       style="stroke-width:0.110243" />
    <path
       style="color:#000000;fill:#000000;stroke-width:0.110243;-inkscape-stroke:none"
       d="m -792.39052,-640.61305 0.27518,-0.18345 m 3.43979,-2.2932 0.32105,-0.21403 m 0.27518,-0.18346 0.27519,-0.18345"
       id="path323" />
    <path
       style="color:#000000;fill:#ffffff;stroke-width:0.110243;-inkscape-stroke:none"
       d="m -787.83476,-643.71647 -0.27518,0.18346 0.0611,0.0917 0.27518,-0.18345 z m -0.55036,0.36691 -0.32104,0.21402 0.0611,0.0917 0.32104,-0.21403 z m -3.76075,2.50716 -0.27518,0.18346 0.0611,0.0917 0.27518,-0.18345 z"
       id="path326" />
  </g>
</svg>
