<?xml version="1.0" encoding="UTF-8" standalone="no"?>
<!-- Creator: CorelDRAW Home & Student X8 -->

<svg
   xml:space="preserve"
   width="7.9375mm"
   height="5.291667mm"
   version="1.1"
   style="clip-rule:evenodd;fill-rule:evenodd;image-rendering:optimizeQuality;shape-rendering:geometricPrecision;text-rendering:geometricPrecision"
   viewBox="0 0 793.75 529.1667"
   id="svg21"
   sodipodi:docname="Karaçay-Çerkesya.svg"
   inkscape:version="1.4 (86a8ad7, 2024-10-11)"
   xmlns:inkscape="http://www.inkscape.org/namespaces/inkscape"
   xmlns:sodipodi="http://sodipodi.sourceforge.net/DTD/sodipodi-0.dtd"
   xmlns="http://www.w3.org/2000/svg"
   xmlns:svg="http://www.w3.org/2000/svg"><sodipodi:namedview
   id="namedview21"
   pagecolor="#ffffff"
   bordercolor="#000000"
   borderopacity="0.25"
   inkscape:showpageshadow="2"
   inkscape:pageopacity="0.0"
   inkscape:pagecheckerboard="0"
   inkscape:deskcolor="#d1d1d1"
   inkscape:document-units="mm"
   inkscape:zoom="1.4234583"
   inkscape:cx="425.37248"
   inkscape:cy="283.46457"
   inkscape:window-width="1920"
   inkscape:window-height="1009"
   inkscape:window-x="-8"
   inkscape:window-y="-8"
   inkscape:window-maximized="1"
   inkscape:current-layer="Layer_x0020_1" />
 <defs
   id="defs1">
  <style
   type="text/css"
   id="style1">
   <![CDATA[
    .fil1 {fill:#0B7233}
    .fil2 {fill:#0E90CF}
    .fil0 {fill:#E43624}
    .fil3 {fill:#F8AD05}
    .fil4 {fill:#FEFEFE}
    .fil5 {fill:#F8AD05;fill-rule:nonzero}
   ]]>
  </style>
 </defs>
 <g
   id="Layer_x0020_1"
   inkscape:label="Layer 1"
   inkscape:groupmode="layer">
  <metadata
   id="CorelCorpID_0Corel-Layer" />
  <rect
   class="fil0"
   width="793.75"
   height="529.16669"
   id="rect1"
   x="0"
   y="0"
   style="stroke-width:0.0352778" />
  <rect
   class="fil1"
   width="793.75"
   height="352.77777"
   id="rect2"
   x="0"
   y="0"
   style="stroke-width:0.0352778" />
  <rect
   class="fil2"
   width="793.75"
   height="176.38889"
   id="rect3"
   x="0"
   y="0"
   style="stroke-width:0.0352778" />
  <circle
   class="fil3"
   cx="396.875"
   cy="264.58334"
   r="35.277779"
   id="circle3"
   style="stroke-width:0.0352778" />
  <path
   class="fil4"
   d="m 396.875,255.76389 c -14.00527,-14.00528 -51.64666,6.56167 -84.06694,28.99834 4.09222,16.96861 13.15861,31.99694 25.57639,43.42694 l 113.91194,2.68111 c 16.15723,-13.51139 27.305,-32.80833 30.23306,-54.71583 -32.13806,-20.21417 -66.32222,-34.74861 -83.89056,-20.39056 z"
   id="path3"
   style="stroke-width:0.0352778" />
  <path
   class="fil1"
   d="m 398.63889,285.75 c -27.76361,-24.97666 -53.34,6.84389 -81.915,11.21834 12.80584,31.67944 43.88556,54.04555 80.15111,54.04555 39.79334,0 73.30723,-26.88166 83.36139,-63.5 -26.24666,-7.90222 -52.07,-35.70111 -81.5975,-1.76389 z"
   id="path4"
   style="stroke-width:0.0352778" />
  <path
   class="fil5"
   d="m 478.01389,264.58334 c 0,-22.40139 -9.06639,-42.68612 -23.77722,-57.36167 -14.67555,-14.71083 -34.96028,-23.77722 -57.36167,-23.77722 -22.40139,0 -42.68611,9.06639 -57.36166,23.77722 -14.71084,14.67555 -23.77723,34.96028 -23.77723,57.36167 0,22.40139 9.06639,42.68611 23.77723,57.36166 14.67555,14.71084 34.96027,23.77723 57.36166,23.77723 22.40139,0 42.68612,-9.06639 57.36167,-23.77723 14.71083,-14.67555 23.77722,-34.96027 23.77722,-57.36166 z m -18.76777,-62.37112 c 15.94555,15.98084 25.82333,38.02945 25.82333,62.37112 0,24.34166 -9.87778,46.39027 -25.82333,62.37111 -15.98084,15.94555 -38.02945,25.82333 -62.37112,25.82333 -24.34166,0 -46.39027,-9.87778 -62.37111,-25.82333 -15.94555,-15.98084 -25.82333,-38.02945 -25.82333,-62.37111 0,-24.34167 9.87778,-46.39028 25.82333,-62.37112 15.98084,-15.94555 38.02945,-25.82333 62.37111,-25.82333 24.34167,0 46.39028,9.87778 62.37112,25.82333 z"
   id="path5"
   style="stroke-width:0.0352778" />
  <path
   class="fil3"
   d="m 357.68139,254.07056 c -16.58055,-6.24417 -23.1775,-8.92528 -23.84778,-6.38528 -0.67027,2.57528 6.35,3.52778 23.84778,6.38528 z"
   id="path6"
   style="stroke-width:0.0352778" />
  <path
   class="fil3"
   d="m 360.39778,246.80334 c -20.6375,-14.00528 -30.97389,-20.99028 -33.26694,-16.22778 -2.32834,4.72722 9.525,8.5725 33.26694,16.22778 z"
   id="path7"
   style="stroke-width:0.0352778" />
  <path
   class="fil3"
   d="m 363.25528,241.89972 c -18.52083,-16.72166 -27.76361,-25.11777 -30.72694,-20.70805 -2.96334,4.37444 8.255,9.80722 30.72694,20.70805 z"
   id="path8"
   style="stroke-width:0.0352778" />
  <path
   class="fil3"
   d="m 368.19417,235.9025 c -11.21833,-13.72305 -15.59278,-19.33222 -17.4625,-17.4625 -1.86972,1.86972 3.73944,6.24417 17.4625,17.4625 z"
   id="path9"
   style="stroke-width:0.0352778" />
  <path
   class="fil3"
   d="m 374.19139,230.96361 c -10.90083,-22.47194 -16.33361,-33.69027 -20.70805,-30.72694 -4.40973,2.96333 3.98639,12.20611 20.70805,30.72694 z"
   id="path10"
   style="stroke-width:0.0352778" />
  <path
   class="fil3"
   d="m 379.095,228.10611 c -7.65527,-23.74194 -11.50055,-35.59527 -16.22777,-33.26694 -4.7625,2.29305 2.2225,12.62944 16.22777,33.26694 z"
   id="path11"
   style="stroke-width:0.0352778" />
  <path
   class="fil3"
   d="m 386.36223,225.38972 c -2.8575,-17.49777 -3.81,-24.51805 -6.38528,-23.84777 -2.54,0.67027 0.14111,7.26722 6.38528,23.84777 z"
   id="path12"
   style="stroke-width:0.0352778" />
  <path
   class="fil3"
   d="m 394.05278,224.11972 c 1.79917,-24.87083 2.68111,-37.32388 -2.57528,-36.97111 -5.29166,0.38806 -2.68111,12.55889 2.57528,36.97111 z"
   id="path13"
   style="stroke-width:0.0352778" />
  <path
   class="fil3"
   d="m 399.69723,224.11972 c 5.25639,-24.41222 7.86694,-36.58305 2.57527,-36.97111 -5.25638,-0.35277 -4.37444,12.10028 -2.57527,36.97111 z"
   id="path14"
   style="stroke-width:0.0352778" />
  <path
   class="fil3"
   d="m 407.38778,225.38972 c 6.24417,-16.58055 8.92528,-23.1775 6.38528,-23.84777 -2.57528,-0.67028 -3.52778,6.35 -6.38528,23.84777 z"
   id="path15"
   style="stroke-width:0.0352778" />
  <path
   class="fil3"
   d="m 414.655,228.10611 c 14.00528,-20.6375 20.99028,-30.97389 16.22778,-33.26694 -4.72722,-2.32833 -8.5725,9.525 -16.22778,33.26694 z"
   id="path16"
   style="stroke-width:0.0352778" />
  <path
   class="fil3"
   d="m 419.55862,230.96361 c 16.72166,-18.52083 25.11777,-27.76361 20.70805,-30.72694 -4.37444,-2.96333 -9.80722,8.255 -20.70805,30.72694 z"
   id="path17"
   style="stroke-width:0.0352778" />
  <path
   class="fil3"
   d="m 425.55584,235.9025 c 13.72305,-11.21833 19.33222,-15.59278 17.4625,-17.4625 -1.86972,-1.86972 -6.24417,3.73945 -17.4625,17.4625 z"
   id="path18"
   style="stroke-width:0.0352778" />
  <path
   class="fil3"
   d="m 430.49473,241.89972 c 22.47194,-10.90083 33.69027,-16.33361 30.72694,-20.70805 -2.96333,-4.40972 -12.20611,3.98639 -30.72694,20.70805 z"
   id="path19"
   style="stroke-width:0.0352778" />
  <path
   class="fil3"
   d="m 433.35223,246.80334 c 23.74194,-7.65528 35.59527,-11.50056 33.26694,-16.22778 -2.29305,-4.7625 -12.62944,2.2225 -33.26694,16.22778 z"
   id="path20"
   style="stroke-width:0.0352778" />
  <path
   class="fil3"
   d="m 436.06862,254.07056 c 17.49777,-2.8575 24.51805,-3.81 23.84777,-6.38528 -0.67027,-2.54 -7.26722,0.14111 -23.84777,6.38528 z"
   id="path21"
   style="stroke-width:0.0352778" />
 </g>
</svg>
