<svg width="30" height="20" xmlns="http://www.w3.org/2000/svg"><symbol id="Flag_of_Malaysia" width="40" height="20" viewBox="0 0 672 336"><path d="M0 0h672v336H0z" fill="#fff"/><path d="M24 12h648m0 48H24m0 48h648m0 48H24" stroke="#c00" stroke-width="24"/><path d="M0 0h336v204H0z" fill="#006"/><path d="M0 204h672m0 48H0m0 48h672" stroke="#c00" stroke-width="24"/><path d="m210 36 5.35 36.6 20.7-30.65-11.1 35.3L256.9 58.6l-25.3 27 36.9-2.95L234 96l34.5 13.35-36.9-2.95 25.3 27-31.95-18.65 11.1 35.3-20.7-30.65L210 156l-5.35-36.6-20.7 30.65 11.1-35.3-31.95 18.65 25.3-27-36.9 2.95L186 96l-34.5-13.35 36.9 2.95-25.3-27 31.95 18.65-11.1-35.3 20.7 30.65zm-30 1.5a64 64 0 1 0 0 117 72 72 0 1 1 0-117z" fill="#fc0"/></symbol><use href="#Flag_of_Malaysia"/><path d="M19 0h11v20H19z" fill="#fff"/><symbol id="K"><path d="m6.26 5.12 1.73 2.88h1.61l-2.44-3.9 2.36-3.1h-1.65l-1.7 2.35-.635.856v-3.21h-1.36v7h1.36v-2.06z"/></symbol><symbol id="Z"><path d="m5.62 6.91 3.39-5.11-.0048-.803h-5.02v1.1h3.38l-3.39 5.07v.827h5.12v-1.09z"/></symbol><symbol id="J"><path d="m7.48 1v4.85q0 .25-.077.462-.072.21-.207.365-.13.15-.327.245-.19.086-.423.0865-.29 0-.49-.0769t-.327-.236q-.096-.13-.144-.317-.048-.19-.0481-.438h-1.36q0 .54.178.947.17.4.486.668.31.27.74.404.43.13.962.135.5 0 .933-.164.44-.16.76-.462.32-.3.505-.707.19-.41.192-.913l-.0048-4.85z"/></symbol><g transform="rotate(-90 15 -5)"><use x="-13" href="#K"/><use x="-6.5" href="#Z"/><use href="#J"/></g></svg>
