<svg width="30" height="20" xmlns="http://www.w3.org/2000/svg"><symbol id="Flag_of_Malaysia" width="40" height="20" viewBox="0 0 672 336"><path d="M0 0h672v336H0z" fill="#fff"/><path d="M24 12h648m0 48H24m0 48h648m0 48H24" stroke="#c00" stroke-width="24"/><path d="M0 0h336v204H0z" fill="#006"/><path d="M0 204h672m0 48H0m0 48h672" stroke="#c00" stroke-width="24"/><path d="m210 36 5.35 36.6 20.7-30.65-11.1 35.3L256.9 58.6l-25.3 27 36.9-2.95L234 96l34.5 13.35-36.9-2.95 25.3 27-31.95-18.65 11.1 35.3-20.7-30.65L210 156l-5.35-36.6-20.7 30.65 11.1-35.3-31.95 18.65 25.3-27-36.9 2.95L186 96l-34.5-13.35 36.9 2.95-25.3-27 31.95 18.65-11.1-35.3 20.7 30.65zm-30 1.5a64 64 0 1 0 0 117 72 72 0 1 1 0-117z" fill="#fc0"/></symbol><use href="#Flag_of_Malaysia"/><path d="M19 0h11v20H19z" fill="#fff"/><path transform="matrix(0 -.2.2 0 0 0)" d="m-82.42 125.6 8.42 14h7.82l-11.89-19 11.47-15.1h-8.05l-8.29 11.4-3.09 4.2v-15.6h-6.6v34.1h6.6v-10.1zm28.13 8.6 16.5-24.8v-3.9h-24.43v5.3h16.47l-16.52 24.7v4.1h24.9v-5.4zm40.32-28.7v23.6q0 1.2-.38 2.2-.35 1.1-1 1.8-.66.8-1.6 1.2-.93.4-2.06.4-1.4 0-2.38-.3-.99-.4-1.59-1.2-.47-.6-.71-1.5-.23-.9-.23-2.2h-6.6q0 2.7.87 4.7.84 1.9 2.36 3.2 1.5 1.3 3.6 2 2.11.6 4.68.6 2.44 0 4.55-.8 2.12-.8 3.69-2.2 1.571-1.5 2.46-3.5.913-2 .937-4.4l-.02-23.6z"/></svg>
