<?xml version="1.0"?>
<svg width="30" height="20" xmlns="http://www.w3.org/2000/svg" xmlns:xlink="http://www.w3.org/1999/xlink"><symbol id="tgl" width="30" height="20" fill="#fcd116" viewBox="-28 -45 135 90"><path d="m-28-45h180V0L0 44z" fill="#0038a8"/><path d="m0 0h152v45H-28z" fill="#ce1126"/><path d="m49.942 0L-28 45v-90z" fill="#fff"/><circle r="9"/><g id="c"><g id="b"><path id="a" d="m0 0-3.164-15.909.945-.946zl-1.169-17.831L0-19l1.169 1.169zl2.219-16.855.945.946z"/><use transform="scale(-1)" xlink:href="#a"/></g><use transform="rotate(90)" xlink:href="#b"/></g><use transform="rotate(45)" xlink:href="#c"/><path id="d" d="m40.942 0-3.382 1.176-.073 3.579-2.163-2.853-3.427 1.037 2.045-2.939-2.045-2.939 3.427 1.037 2.163-2.853.073 3.579z"/><use transform="rotate(120,-2.019,0)" xlink:href="#d"/><use transform="rotate(240,-2.019,0)" xlink:href="#d"/></symbol><use href="#tgl"/><path d="M19 0h11v20H19z" fill="#fff"/><path transform="matrix(0 -.1.1 0 0 0)" d="m-171.1 268.5v-57.5h-13.2v68.1h45.2v-10.6zm81.98-3.6 3.98 14.2h13.86l-21.91-68.1h-11.91l-22.4 68.1h13.9l4-14.2zm-17.18-11.2 7.12-25.1 6.97 25.1zm79.71 11.2 3.98 14.2h13.854l-21.904-68.1h-11.94l-22.33 68.1h13.86l4.03-14.2zm-17.23-11.2 7.17-25.1 6.97 25.1z"/></svg>
