<svg width="30" height="20" xmlns="http://www.w3.org/2000/svg"><symbol id="tgl" width="30" height="20" fill="#fcd116" viewBox="-28 -45 135 90"><path d="m-28-45h180V0L0 44z" fill="#0038a8"/><path d="m0 0h152v45H-28z" fill="#ce1126"/><path d="m49.942 0L-28 45v-90z" fill="#fff"/><circle r="9"/><g id="c"><g id="b"><path id="a" d="m0 0-3.164-15.909.945-.946zl-1.169-17.831L0-19l1.169 1.169zl2.219-16.855.945.946z"/><use transform="scale(-1)" href="#a"/></g><use transform="rotate(90)" href="#b"/></g><use transform="rotate(45)" href="#c"/><path id="d" d="m40.942 0-3.382 1.176-.073 3.579-2.163-2.853-3.427 1.037 2.045-2.939-2.045-2.939 3.427 1.037 2.163-2.853.073 3.579z"/><use transform="rotate(120,-2.019,0)" href="#d"/><use transform="rotate(240,-2.019,0)" href="#d"/></symbol><use href="#tgl"/><path d="M19 0h11v20H19z" fill="#fff"/><symbol id="L"><path d="m5.62 6.91v-5.91h-1.36v7h4.63v-1.09z"/></symbol><symbol id="A"><path d="m7.62 6.54.409 1.46h1.42l-2.25-7h-1.23l-2.29 7h1.42l.413-1.46zm-1.77-1.15.736-2.58.716 2.58z"/></symbol><g transform="rotate(-90 15 -5)"><use x="-13" href="#L"/><use x="-6.5" href="#A"/><use href="#A"/></g></svg>
