<svg width="30" height="20" xmlns="http://www.w3.org/2000/svg"><symbol id="Flag_of_England" width="20" height="20" viewBox="0 0 5 5"><path d="M0 0h5v5H0z" fill="#fff"/><path d="M2 0h1v5H2z M0 2h5v1H0z" fill="#ce1124"/></symbol><use href="#Flag_of_England"/><path d="M20 0h10v20H20z" fill="#fff"/><symbol id="L"><path d="m5.62 6.91v-5.91h-1.36v7h4.63v-1.09z"/></symbol><symbol id="I"><path d="m4.47 1v1.09h1.33v4.82h-1.33v1.09h4.05v-1.09h-1.37v-4.82h1.37v-1.09z"/></symbol><symbol id="J"><path d="m7.48 1v4.85q0 .25-.077.462-.072.21-.207.365-.13.15-.327.245-.19.086-.423.0865-.29 0-.49-.0769t-.327-.236q-.096-.13-.144-.317-.048-.19-.0481-.438h-1.36q0 .54.178.947.17.4.486.668.31.27.74.404.43.13.962.135.5 0 .933-.164.44-.16.76-.462.32-.3.505-.707.19-.41.192-.913l-.0048-4.85z"/></symbol><g transform="rotate(-90 15.25 -5.25)"><use x="-13" href="#L"/><use x="-6.5" href="#I"/><use href="#J"/></g></svg>
