<?xml version="1.0" encoding="UTF-8" standalone="no"?>
<!-- Creator: CorelDRAW Home & Student X8 -->

<svg
   xml:space="preserve"
   width="7.9375mm"
   height="5.291667mm"
   version="1.1"
   style="clip-rule:evenodd;fill-rule:evenodd;image-rendering:optimizeQuality;shape-rendering:geometricPrecision;text-rendering:geometricPrecision"
   viewBox="0 0 793.75 529.1667"
   id="svg1"
   sodipodi:docname="Lombardiya.svg"
   inkscape:version="1.4 (86a8ad7, 2024-10-11)"
   xmlns:inkscape="http://www.inkscape.org/namespaces/inkscape"
   xmlns:sodipodi="http://sodipodi.sourceforge.net/DTD/sodipodi-0.dtd"
   xmlns="http://www.w3.org/2000/svg"
   xmlns:svg="http://www.w3.org/2000/svg"><sodipodi:namedview
   id="namedview1"
   pagecolor="#ffffff"
   bordercolor="#000000"
   borderopacity="0.25"
   inkscape:showpageshadow="2"
   inkscape:pageopacity="0.0"
   inkscape:pagecheckerboard="0"
   inkscape:deskcolor="#d1d1d1"
   inkscape:document-units="mm"
   inkscape:zoom="1.4234583"
   inkscape:cx="425.37248"
   inkscape:cy="283.46457"
   inkscape:window-width="1920"
   inkscape:window-height="1009"
   inkscape:window-x="-8"
   inkscape:window-y="-8"
   inkscape:window-maximized="1"
   inkscape:current-layer="Layer_x0020_1" />
 <defs
   id="defs1">
  <style
   type="text/css"
   id="style1">
   <![CDATA[
    .fil0 {fill:#15A140}
    .fil1 {fill:#FEFEFE}
   ]]>
  </style>
 </defs>
 <g
   id="Layer_x0020_1"
   inkscape:label="Layer 1"
   inkscape:groupmode="layer">
  <metadata
   id="CorelCorpID_0Corel-Layer" />
  <rect
   class="fil0"
   width="793.75"
   height="529.16669"
   id="rect1"
   x="0"
   y="0"
   style="stroke-width:0.0352778" />
  <path
   class="fil1"
   d="m 394.6525,166.72278 c -9.56027,-17.39195 -10.61861,-38.20583 -2.89277,-56.47972 13.93472,-32.984726 51.96416,-48.401115 84.94889,-34.466393 32.98472,13.934723 48.40111,51.999443 34.46639,84.948893 -7.72584,18.27389 -23.42445,32.03222 -42.54501,37.25333 -9.38388,3.21028 -16.96861,10.26583 -20.81388,19.40278 -7.47889,17.67417 0.77611,38.1 18.48555,45.57889 9.13695,3.88055 19.47334,3.63361 28.43389,-0.59972 17.39195,-9.56028 38.20583,-10.61862 56.47972,-2.89278 32.98473,13.93472 48.40112,51.96417 34.46639,84.94889 -13.93472,32.98472 -51.99944,48.40111 -84.94889,34.46639 -18.27389,-7.72584 -32.03222,-23.42445 -37.25333,-42.545 -3.21028,-9.38389 -10.26583,-16.96861 -19.40278,-20.81389 -17.67417,-7.47889 -38.1,0.77611 -45.57889,18.48555 -3.88055,9.13695 -3.63361,19.47334 0.59972,28.43389 9.56028,17.39195 10.61862,38.20584 2.89278,56.47973 -13.93472,32.98472 -51.96417,48.40111 -84.94889,34.46638 -32.94944,-13.93472 -48.40111,-51.99944 -34.46639,-84.94889 7.72584,-18.27388 23.42445,-32.03222 42.545,-37.25333 9.38389,-3.21028 16.96861,-10.26583 20.81389,-19.40278 7.47889,-17.67416 -0.77611,-38.1 -18.48555,-45.57889 -9.13695,-3.88055 -19.47334,-3.63361 -28.43389,0.59973 -17.39195,9.56027 -38.20584,10.61861 -56.47973,2.89277 -32.98472,-13.93472 -48.40111,-51.96416 -34.46638,-84.94889 13.93472,-32.98472 51.99944,-48.40111 84.94889,-34.46639 18.27388,7.72584 32.03222,23.42445 37.25333,42.54501 3.21028,9.38388 10.26583,16.96861 19.40278,20.81388 17.67416,7.47889 38.1,-0.77611 45.57889,-18.48555 3.88055,-9.13695 3.63361,-19.47333 -0.59973,-28.43389 z"
   id="path1"
   style="stroke-width:0.0352778" />
 </g>
</svg>
