<?xml version="1.0" encoding="UTF-8" standalone="no"?>
<!-- Created with Inkscape (http://www.inkscape.org/) -->

<svg
   width="7.9375mm"
   height="5.2916999mm"
   viewBox="0 0 7.9375002 5.2917001"
   version="1.1"
   id="svg1"
   inkscape:version="1.4 (86a8ad7, 2024-10-11)"
   sodipodi:docname="lug.svg"
   xmlns:inkscape="http://www.inkscape.org/namespaces/inkscape"
   xmlns:sodipodi="http://sodipodi.sourceforge.net/DTD/sodipodi-0.dtd"
   xmlns:xlink="http://www.w3.org/1999/xlink"
   xmlns="http://www.w3.org/2000/svg"
   xmlns:svg="http://www.w3.org/2000/svg">
  <sodipodi:namedview
     id="namedview1"
     pagecolor="#ffffff"
     bordercolor="#000000"
     borderopacity="0.25"
     inkscape:showpageshadow="2"
     inkscape:pageopacity="0.0"
     inkscape:pagecheckerboard="0"
     inkscape:deskcolor="#d1d1d1"
     inkscape:document-units="mm"
     inkscape:zoom="0.71891835"
     inkscape:cx="597.42528"
     inkscape:cy="353.30855"
     inkscape:window-width="1904"
     inkscape:window-height="992"
     inkscape:window-x="-26"
     inkscape:window-y="145"
     inkscape:window-maximized="0"
     inkscape:current-layer="layer1" />
  <defs
     id="defs1">
    <radialGradient
       id="n"
       cx="489.07001"
       cy="210.33"
       r="0.345"
       gradientTransform="matrix(0.00861722,0,0,0.0090267,-825.15993,-674.59387)"
       gradientUnits="userSpaceOnUse">
      <stop
         style="stop-color:#fff"
         offset="0"
         id="stop19" />
      <stop
         style="stop-color:#fff;stop-opacity:0"
         offset="1"
         id="stop21" />
    </radialGradient>
    <radialGradient
       id="m"
       cx="477.85999"
       cy="215.27"
       r="0.345"
       gradientUnits="userSpaceOnUse"
       gradientTransform="matrix(0.00881945,0,0,0.00881945,-825.15993,-674.59387)">
      <stop
         style="stop-color:#a50a0a"
         offset=".259"
         id="stop14" />
      <stop
         style="stop-color:#4c0505"
         offset="1"
         id="stop16" />
    </radialGradient>
    <linearGradient
       id="l"
       x1="473.31"
       x2="475.92999"
       y1="237.25"
       y2="270.45001"
       gradientUnits="userSpaceOnUse"
       gradientTransform="matrix(0.00881945,0,0,0.00881945,-825.15993,-674.59387)">
      <stop
         style="stop-color:#f9f0aa"
         offset=".216"
         id="stop39" />
      <stop
         style="stop-color:#b07e09"
         offset="1"
         id="stop41" />
    </linearGradient>
    <linearGradient
       id="k"
       x1="451.54001"
       x2="455.37"
       y1="249.52"
       y2="240.58"
       gradientUnits="userSpaceOnUse"
       gradientTransform="matrix(0.00881945,0,0,0.00881945,-825.15993,-674.59387)">
      <stop
         style="stop-color:#f9f0aa"
         offset=".216"
         id="stop34" />
      <stop
         style="stop-color:#b07e09"
         offset="1"
         id="stop36" />
    </linearGradient>
    <radialGradient
       id="j"
       cx="445.98001"
       cy="252.36"
       r="13.018"
       gradientUnits="userSpaceOnUse"
       xlink:href="#a"
       gradientTransform="matrix(0.00881945,0,0,0.00881945,-825.15993,-674.59387)" />
    <radialGradient
       id="a">
      <stop
         style="stop-color:#f9f0aa"
         offset=".216"
         id="stop4" />
      <stop
         style="stop-color:#b07e09"
         offset="1"
         id="stop6" />
    </radialGradient>
    <linearGradient
       id="i"
       x1="483.13"
       x2="485.5"
       y1="296.66"
       y2="326.57999"
       gradientUnits="userSpaceOnUse"
       gradientTransform="matrix(0.00881945,0,0,0.00881945,-825.15993,-674.59387)">
      <stop
         style="stop-color:#b07e09;stop-opacity:0"
         offset=".216"
         id="stop29" />
      <stop
         style="stop-color:#b07e09"
         offset="1"
         id="stop31" />
    </linearGradient>
    <linearGradient
       id="h"
       x1="473.91"
       x2="472.35999"
       y1="259.17001"
       y2="231.96001"
       gradientUnits="userSpaceOnUse"
       gradientTransform="matrix(0.00881945,0,0,0.00881945,-825.15993,-674.59387)">
      <stop
         style="stop-color:#b07e09;stop-opacity:0"
         offset=".216"
         id="stop24" />
      <stop
         style="stop-color:#b07e09"
         offset="1"
         id="stop26" />
    </linearGradient>
    <radialGradient
       id="g"
       cx="458.39001"
       cy="307.06"
       r="17.354"
       gradientUnits="userSpaceOnUse"
       xlink:href="#a"
       gradientTransform="matrix(0.00881945,0,0,0.00881945,-825.15993,-674.59387)" />
    <radialGradient
       id="radialGradient2">
      <stop
         style="stop-color:#f9f0aa"
         offset=".216"
         id="stop1" />
      <stop
         style="stop-color:#b07e09"
         offset="1"
         id="stop2" />
    </radialGradient>
    <radialGradient
       id="f"
       cx="454.10999"
       cy="308.64001"
       r="9.7799997"
       gradientUnits="userSpaceOnUse"
       xlink:href="#a"
       gradientTransform="matrix(0.00881945,0,0,0.00881945,-825.15993,-674.59387)" />
    <radialGradient
       id="radialGradient5">
      <stop
         style="stop-color:#f9f0aa"
         offset=".216"
         id="stop3" />
      <stop
         style="stop-color:#b07e09"
         offset="1"
         id="stop5" />
    </radialGradient>
    <radialGradient
       id="e"
       cx="451.56"
       cy="313"
       r="10.911"
       gradientUnits="userSpaceOnUse"
       xlink:href="#a"
       gradientTransform="matrix(0.00881945,0,0,0.00881945,-825.15993,-674.59387)" />
    <radialGradient
       id="radialGradient8">
      <stop
         style="stop-color:#f9f0aa"
         offset=".216"
         id="stop7" />
      <stop
         style="stop-color:#b07e09"
         offset="1"
         id="stop8" />
    </radialGradient>
    <radialGradient
       id="d"
       cx="447.42001"
       cy="308.26999"
       r="16.534"
       gradientUnits="userSpaceOnUse"
       xlink:href="#a"
       gradientTransform="matrix(0.00881945,0,0,0.00881945,-825.15993,-674.59387)" />
    <radialGradient
       id="radialGradient10">
      <stop
         style="stop-color:#f9f0aa"
         offset=".216"
         id="stop9" />
      <stop
         style="stop-color:#b07e09"
         offset="1"
         id="stop10" />
    </radialGradient>
    <radialGradient
       id="e-9"
       cx="380.84"
       cy="740.37"
       r="25.858999"
       gradientTransform="matrix(7.0234215e-4,8.3694522e-4,-0.00162376,0.00140249,-873.47471,-923.33034)"
       gradientUnits="userSpaceOnUse"
       xlink:href="#a-6" />
    <linearGradient
       id="a-6">
      <stop
         stop-color="#fff"
         offset="0"
         id="stop2-5" />
      <stop
         stop-color="#f15770"
         offset="1"
         id="stop4-1" />
    </linearGradient>
    <radialGradient
       id="f-0"
       cx="651.52002"
       cy="550.46002"
       r="25.858999"
       gradientTransform="matrix(-1.9245334e-4,-0.00208924,0.00193863,-1.8385685e-4,-876.73368,-920.80848)"
       gradientUnits="userSpaceOnUse"
       xlink:href="#a-6" />
    <radialGradient
       id="g-6"
       cx="842.31"
       cy="103.66"
       r="25.858999"
       gradientTransform="matrix(0.00194862,8.2390338e-4,-8.0461878e-4,0.00195837,-876.97359,-922.9887)"
       gradientUnits="userSpaceOnUse"
       xlink:href="#a-6" />
  </defs>
  <g
     inkscape:label="Layer 1"
     inkscape:groupmode="layer"
     id="layer1"
     transform="translate(825.9373,1412.1937)">
    <path
       id="path409"
       d="m -825.9373,-1412.1937 h 7.9375 v 5.2917 h -7.9375 z"
       style="stroke-width:0.00881944" />
    <path
       id="path412"
       style="fill:#fcdc04;stroke-width:0.00881944"
       d="m -825.9373,-1411.3118 h 7.9375 v 1.7639 h -7.9375 z" />
    <path
       id="path415"
       style="fill:#d90000;stroke-width:0.00881944"
       d="m -825.9373,-1410.4298 h 7.9375 v 0.8819 h -7.9375 z" />
    <path
       id="path418"
       style="fill:#fcdc04;stroke-width:0.00881944"
       d="m -825.9373,-1408.6659 h 7.9375 v 1.7639 h -7.9375 z" />
    <path
       id="path421"
       style="fill:#d90000;stroke-width:0.00881944"
       d="m -825.9373,-1407.784 h 7.9375 v 0.882 h -7.9375 z" />
    <path
       id="path424"
       style="fill:#ffffff;stroke-width:0.00881944"
       d="m -821.14393,-1409.5479 a 0.82461806,0.82461806 0 0 1 -0.82462,0.8247 0.82461806,0.82461806 0 0 1 -0.82462,-0.8247 0.82461806,0.82461806 0 0 1 0.82462,-0.8246 0.82461806,0.82461806 0 0 1 0.82462,0.8246 z" />
    <path
       style="color:#000000;fill:#d90000;stroke-width:0.00881944;-inkscape-stroke:none"
       d="m -822.11389,-1410.1794 -0.0535,-0.099 c 0.0206,-0.021 0.0554,-0.037 0.11072,-0.037 0,0 -0.006,0.1079 -0.006,0.1079 z"
       id="path382" />
    <path
       style="color:#000000;fill:#000000;stroke-width:0.00881944;-inkscape-stroke:none"
       d="m -822.05666,-1410.3189 c -0.0562,0 -0.0923,0.016 -0.11384,0.038 h -0.002 l 0.0571,0.1052 h 0.004 l 0.0538,-0.028 h 1.4e-4 c 0,0 10e-4,-0.026 0.003,-0.053 7e-4,-0.013 10e-4,-0.027 0.002,-0.037 2.5e-4,-0.01 5e-4,-0.01 6.6e-4,-0.013 1.4e-4,0 2.4e-4,0 2.4e-4,-0.01 v 0 z m -0.005,0.01 c -2e-5,4e-4 -2e-5,4e-4 -4e-5,8e-4 -1.4e-4,0 -3.7e-4,0.01 -6.4e-4,0.013 -5.2e-4,0.01 -0.001,0.024 -0.002,0.037 -10e-4,0.025 -0.003,0.048 -0.003,0.05 l -0.0455,0.024 -0.0497,-0.091 c 0.0193,-0.018 0.0508,-0.032 0.10047,-0.033 z"
       id="path385" />
    <path
       style="color:#000000;fill:#fcdc04;stroke-width:0.00881944;-inkscape-stroke:none"
       d="m -822.06229,-1410.2057 0.008,-0.1088 c 0,0 0.11071,-0.01 0.17076,0.066 9.4e-4,-9e-4 -0.0591,0.085 -0.0591,0.085 z"
       id="path388" />
    <path
       style="color:#000000;fill:#000000;stroke-width:0.00881944;-inkscape-stroke:none"
       d="m -822.05504,-1410.3189 -0.004,3e-4 -0.008,0.1161 h 0.003 l 0.1223,0.042 h 0.002 c 0,0 0.015,-0.021 0.0299,-0.043 0.007,-0.011 0.0149,-0.021 0.0204,-0.029 0.003,0 0.005,-0.01 0.007,-0.01 7.8e-4,0 10e-4,0 0.002,0 2.1e-4,-3e-4 3.5e-4,-5e-4 4.6e-4,-7e-4 7e-5,0 1.1e-4,0 2.5e-4,-4e-4 3e-5,0 7e-5,0 1.4e-4,-4e-4 7e-5,-3e-4 4e-4,0 4e-4,0 0,0 -0.003,0 -0.005,0 l 0.004,4e-4 c -0.0618,-0.074 -0.17441,-0.067 -0.17441,-0.067 z m 0.004,0.01 c 0.0105,-4e-4 0.10538,0 0.16094,0.062 -7e-5,0 -1.1e-4,0 -1.8e-4,4e-4 -0.002,0 -0.004,0.01 -0.007,0.01 -0.005,0.01 -0.0129,0.018 -0.0204,0.029 -0.0139,0.02 -0.0263,0.037 -0.028,0.04 l -0.11283,-0.039 z"
       id="path391" />
    <path
       style="color:#000000;fill:#d90000;stroke-width:0.00881944;-inkscape-stroke:none"
       d="m -821.94125,-1410.1654 0.0544,-0.084 c 0.0366,0.039 0.0516,0.066 0.0572,0.107 9.4e-4,9e-4 -0.0863,0.022 -0.0863,0.021 0,-9e-4 -0.0244,-0.042 -0.0253,-0.043 z"
       id="path400" />
    <path
       style="color:#000000;fill:#000000;stroke-width:0.00881944;-inkscape-stroke:none"
       d="m -821.8875,-1410.2569 -0.0594,0.092 h 0.002 c 4e-5,0 7e-5,0 1.1e-4,0 2.1e-4,4e-4 4.9e-4,8e-4 8.6e-4,0 7.4e-4,0 0.002,0 0.003,0 0.002,0 0.006,0.01 0.009,0.014 0.003,0.01 0.006,0.01 0.008,0.014 0.001,0 0.002,0 0.003,0 3.2e-4,6e-4 5.7e-4,10e-4 7.1e-4,0 10e-6,0 10e-6,0 2e-5,0 -3e-5,0 -7e-5,-3e-4 -1.1e-4,-3e-4 -3e-5,-4e-4 -10e-5,0 -10e-5,0 0,0 10e-4,0 10e-4,0 0,0 0.002,0 0.002,0 10e-6,0 6.6e-4,4e-4 8.8e-4,4e-4 2.1e-4,0 3.8e-4,0 5.2e-4,0 5.4e-4,0 7.4e-4,0 9.4e-4,0 4.2e-4,-10e-5 7.3e-4,0 10e-4,0 7.7e-4,0 0.002,-4e-4 0.003,-6e-4 0.002,-5e-4 0.006,0 0.01,0 0.008,0 0.0191,0 0.0299,-0.01 0.0109,0 0.0217,-0.01 0.0298,-0.01 0.004,-10e-4 0.007,0 0.01,0 10e-4,-3e-4 0.002,-6e-4 0.003,-8e-4 3.7e-4,0 6.7e-4,-4e-4 10e-4,-5e-4 2.5e-4,0 4.7e-4,0 10e-4,-7e-4 1.7e-4,0 5.8e-4,-6e-4 5.8e-4,-6e-4 10e-6,-10e-5 7.3e-4,0 7.3e-4,0 0,0 7e-5,0 10e-5,0 h 7e-5 c -2e-5,0 -7e-5,-3e-4 -7e-5,-3e-4 0,0 0,0 0,0 0,0 -3e-5,0 -3e-5,0 -0.006,-0.042 -0.0216,-0.07 -0.0583,-0.109 z m 0.001,0.014 c 0.0321,0.035 0.0459,0.06 0.0516,0.097 -0.002,7e-4 -0.005,0 -0.009,0 -0.008,0 -0.0188,0 -0.0296,0.01 -0.0108,0 -0.0217,0.01 -0.0298,0.01 -0.004,9e-4 -0.007,0 -0.01,0 -1.8e-4,0 -2.5e-4,0 -4.1e-4,0 -6.7e-4,0 -10e-4,0 -0.002,0 -0.002,0 -0.005,-0.01 -0.009,-0.015 -0.003,-0.01 -0.006,-0.011 -0.009,-0.015 -10e-4,0 -0.002,0 -0.003,0 z"
       id="path403" />
    <path
       style="color:#000000;fill:#000000;stroke-width:0.00881944;-inkscape-stroke:none"
       d="m -822.08668,-1408.7711 c 0,0 0.10227,-0.1173 0.30117,-0.092 -0.03,-0.049 -0.12666,-0.043 -0.12666,-0.043 0,0 -0.03,-0.228 -0.007,-0.2393 0.0235,-0.011 0.12291,0 0.12291,0 0.0131,0 0.0357,-0.036 0.0178,-0.058 -0.0178,-0.023 -0.0704,-0.1088 -0.0488,-0.1257 0.0216,-0.017 0.13886,0.01 0.13886,0.01 l -0.3312,-0.4241 c 0,0 -0.0338,-0.1595 0.0338,-0.2365 0.0816,-0.068 0.0732,-0.1407 0.0704,-0.1398 -0.0113,-0.074 -0.12385,-0.1276 -0.19985,-0.059 -0.045,0.054 -0.015,0.096 -0.015,0.096 0,0 -0.11821,0.032 -0.1229,0.053 -0.005,0.021 0.13323,0 0.13323,0 l -0.0131,0.095 c 0,0 -0.26834,0.2439 -0.0629,0.455 0.002,-9e-4 0.007,-0.01 0.007,-0.01 0,0 0.0722,0.089 0.14824,0.1089 0.0713,0.073 0.0647,0.062 0.0647,0.062 0,0 0.0141,0.1154 9.4e-4,0.1379 -0.0178,-0.01 -0.19985,-0.012 -0.22706,0 -0.0244,0.01 -0.11822,0 -0.0948,0.1557 0.0178,-0.041 0.0338,-0.078 0.0338,-0.078 0,0 -0.003,0.055 0.0197,0.075 -0.004,-0.058 0.0216,-0.098 0.0216,-0.098 0,0 0.005,0.064 0.0188,0.073 0.0141,0.01 0.0141,-0.1032 0.0919,-0.094 0.0779,0.01 0.13417,0.01 0.13417,0.01 0,0 0.0263,0.2205 0.0178,0.2412 -0.0563,-0.013 -0.19047,0.01 -0.19891,0.039 0.0788,0 0.11541,0 0.11541,0 0,0 -0.0638,0.056 -0.0441,0.089 z"
       id="path394" />
    <path
       style="color:#000000;fill:#000000;stroke-width:0.00881944;-inkscape-stroke:none"
       d="m -822.02088,-1410.2139 c -0.0327,0 -0.0675,0.01 -0.0969,0.032 l -2.5e-4,4e-4 -2.1e-4,3e-4 c -0.0232,0.028 -0.0274,0.053 -0.0254,0.072 10e-4,0.012 0.005,0.02 0.007,0.024 -0.005,0 -0.0271,0.01 -0.0547,0.017 -0.0152,0.01 -0.0305,0.011 -0.0426,0.017 -0.006,0 -0.0112,0.01 -0.0153,0.01 -0.004,0 -0.007,0.01 -0.008,0.011 -5.4e-4,0 1.1e-4,0.01 0.002,0.01 10e-4,0 0.003,0 0.005,0 0.004,0 0.01,0 0.0159,0 0.0127,7e-4 0.0296,-5e-4 0.0467,0 0.0312,0 0.0575,-0.01 0.0627,-0.01 l -0.0121,0.088 c -0.002,0 -0.0671,0.062 -0.10828,0.1484 -0.0209,0.044 -0.0355,0.095 -0.0317,0.1487 0.004,0.054 0.0261,0.1095 0.0781,0.163 h 0.002 0.003 c 0.002,0 0.003,0 0.003,0 7.2e-4,-10e-4 10e-4,0 0.002,0 0.003,0 0.0166,0.021 0.0418,0.043 0.0275,0.025 0.0644,0.052 0.10314,0.062 0.0348,0.036 0.0512,0.052 0.0586,0.058 0.002,0 0.003,0 0.004,0 3e-5,0 10e-5,0 1.4e-4,0 3.2e-4,0 0.003,0.027 0.005,0.057 9.3e-4,0.016 10e-4,0.032 9.2e-4,0.046 -4.7e-4,0.012 -0.002,0.021 -0.004,0.026 -0.003,-6e-4 -0.005,0 -0.01,0 -0.007,-7e-4 -0.0155,0 -0.0256,0 -0.0201,0 -0.0454,0 -0.071,0 -0.0256,-6e-4 -0.0515,-6e-4 -0.0728,3e-4 -0.0213,8e-4 -0.0374,0 -0.0459,0.01 h 2.8e-4 c -0.005,0 -0.016,0 -0.0282,0.01 -0.0122,0 -0.0261,0.01 -0.0386,0.018 -0.0249,0.02 -0.0429,0.059 -0.031,0.1365 l 0.002,0.015 0.006,-0.014 c 0.0138,-0.032 0.0213,-0.049 0.0262,-0.061 1.7e-4,0 -2.9e-4,0.01 5.3e-4,0.012 0.002,0.017 0.007,0.036 0.0198,0.048 l 0.008,0.01 -6.9e-4,-0.011 c -0.003,-0.042 0.008,-0.068 0.0147,-0.081 6.6e-4,0.01 6.2e-4,0.01 0.002,0.018 10e-4,0.01 0.003,0.018 0.006,0.025 0.003,0.01 0.005,0.014 0.0106,0.018 0.002,0 0.004,0 0.007,8e-4 0.002,-8e-4 0.003,0 0.004,0 0.002,0 0.003,-0.01 0.005,-0.011 0.003,-0.01 0.007,-0.022 0.0126,-0.034 0.006,-0.013 0.0131,-0.025 0.0234,-0.033 0.0104,-0.01 0.0235,-0.013 0.0419,-0.011 0.0739,0.01 0.12496,0.01 0.13074,0.01 4.3e-4,0 0.006,0.053 0.0116,0.1088 0.003,0.029 0.005,0.058 0.007,0.082 6.4e-4,0.012 9.7e-4,0.022 8.8e-4,0.03 -7e-5,0.01 -6.3e-4,0.01 -10e-4,0.012 -0.0296,-0.01 -0.0741,0 -0.11436,0 -0.021,0 -0.0406,0.01 -0.0558,0.015 -0.0151,0.01 -0.0265,0.014 -0.0293,0.025 l -0.001,0.01 0.006,-3e-4 c 0.0674,0 0.0977,0 0.10635,0 -0.005,0 -0.0131,0.012 -0.0242,0.026 -0.007,0.01 -0.0133,0.02 -0.0167,0.03 -0.003,0.011 -0.004,0.022 0.002,0.031 l 0.003,0.01 h 0.004 c 0,0 0.10026,-0.1155 0.29729,-0.09 h 0.009 l -0.005,-0.01 c -0.0162,-0.026 -0.0491,-0.037 -0.0776,-0.042 -0.0247,0 -0.0435,0 -0.0489,0 -4.8e-4,0 -0.007,-0.055 -0.0116,-0.1113 -0.002,-0.029 -0.004,-0.059 -0.003,-0.081 2.5e-4,-0.011 0.001,-0.021 0.002,-0.028 6.7e-4,0 10e-4,-0.01 0.002,-0.01 8.3e-4,0 0.002,0 0.002,0 0.004,0 0.0149,0 0.0273,0 0.0124,-5e-4 0.0269,0 0.0407,8e-4 0.0276,0 0.0524,0 0.0524,0 h 2.5e-4 2.8e-4 c 0.005,0 0.01,0 0.014,-0.01 0.004,0 0.008,-0.01 0.0106,-0.016 0.005,-0.013 0.007,-0.029 -0.003,-0.042 -0.009,-0.011 -0.0262,-0.038 -0.0387,-0.064 -0.006,-0.013 -0.0112,-0.026 -0.0133,-0.036 -10e-4,-0.01 -10e-4,-0.01 -8.1e-4,-0.013 4.9e-4,0 0.002,-0.01 0.003,-0.01 0.003,0 0.0144,0 0.0281,0 0.0137,0 0.0303,0 0.0462,0 0.0318,0 0.061,0.011 0.061,0.011 h 0.012 l -0.3381,-0.433 c -2.9e-4,0 -0.008,-0.039 -0.008,-0.088 0,-0.049 0.009,-0.1071 0.0411,-0.1441 0,0 0,-10e-5 0,-10e-5 0.0411,-0.034 0.0598,-0.07 0.0678,-0.097 0.004,-0.014 0.005,-0.025 0.005,-0.034 4e-5,0 -2.1e-4,-0.01 -6e-4,-0.01 -2.1e-4,0 -4.2e-4,0 -8.1e-4,0 -1.8e-4,-5e-4 -4.2e-4,-10e-4 -9.1e-4,0 -0.008,-0.048 -0.056,-0.087 -0.10966,-0.092 z m -5.7e-4,0.01 c 0.0506,0.01 0.0955,0.043 0.10211,0.086 l 7.8e-4,0.01 h 4.8e-4 c 1.8e-4,0 3.9e-4,0 3.6e-4,0.01 -7e-5,0.01 -10e-4,0.018 -0.005,0.031 -0.008,0.026 -0.0253,0.06 -0.0654,0.093 l -2.5e-4,3e-4 -2.4e-4,4e-4 c -0.035,0.04 -0.0433,0.1 -0.0433,0.15 0,0.05 0.009,0.09 0.009,0.09 l 2.1e-4,9e-4 0.32473,0.4158 c -0.008,0 -0.0239,-0.01 -0.0501,-0.01 -0.0161,0 -0.033,0 -0.0473,0 -0.0144,0 -0.0262,8e-4 -0.0335,0.01 -0.004,0 -0.006,0.01 -0.006,0.012 -7.1e-4,0 -2.8e-4,0.01 8.8e-4,0.016 0.002,0.011 0.008,0.025 0.014,0.038 0.0128,0.027 0.0304,0.054 0.0397,0.066 0.008,0.01 0.007,0.022 0.002,0.033 -0.002,0.01 -0.006,0.01 -0.009,0.013 -0.003,0 -0.006,0 -0.008,0 -4.8e-4,0 -0.0247,0 -0.0524,0 -0.014,-8e-4 -0.0287,0 -0.0416,-8e-4 -0.0129,4e-4 -0.0236,0 -0.0308,0 -0.003,0 -0.005,0 -0.006,0.01 -10e-4,0 -0.002,0.01 -0.003,0.01 -0.002,0.01 -0.002,0.018 -0.002,0.029 -4.9e-4,0.023 0.001,0.053 0.003,0.082 0.005,0.059 0.0121,0.1156 0.0121,0.1156 h 5.4e-4 l 0.004,-4e-4 c 0,0 0.0237,0 0.0511,0 0.024,0 0.0497,0.013 0.0651,0.031 -0.17949,-0.018 -0.2755,0.075 -0.28885,0.089 -10e-4,-0.01 -0.002,-0.012 6.2e-4,-0.018 0.003,-0.01 0.009,-0.019 0.0154,-0.028 0.0131,-0.018 0.0288,-0.032 0.0288,-0.032 l 0.006,-0.01 h -0.008 c 0,0 -0.0367,-0.01 -0.10808,0 0.004,0 0.01,-0.01 0.02,-0.014 0.0141,-0.01 0.0332,-0.011 0.0538,-0.015 0.0412,-0.01 0.0887,-0.01 0.11564,0 l 0.004,8e-4 h 10e-4 c 0.002,0 0.002,-0.01 0.002,-0.018 10e-5,-0.01 -2.5e-4,-0.019 -9e-4,-0.03 -0.001,-0.024 -0.004,-0.053 -0.007,-0.082 -0.006,-0.058 -0.0121,-0.1129 -0.0121,-0.1129 h -4.8e-4 l -0.004,4e-4 c 0,0 -0.0559,0 -0.13343,-0.01 -0.0205,0 -0.0366,0 -0.0485,0.013 -0.012,0.01 -0.02,0.023 -0.0259,0.036 -0.006,0.013 -0.01,0.026 -0.0128,0.035 -10e-4,0 -0.003,0.01 -0.004,0.01 -0.002,0 -0.004,-0.01 -0.006,-0.012 -0.002,-0.01 -0.004,-0.016 -0.006,-0.024 -0.003,-0.017 -0.004,-0.033 -0.004,-0.033 l -9.6e-4,-0.013 -0.007,0.011 c 0,0 -0.0207,0.035 -0.0216,0.086 -0.005,-0.01 -0.009,-0.02 -0.0102,-0.031 -0.002,-0.016 -10e-4,-0.029 -10e-4,-0.029 h -0.008 c 0,0 -0.0137,0.032 -0.0267,0.062 -0.006,-0.063 0.009,-0.095 0.0291,-0.1109 0.0111,-0.01 0.0237,-0.014 0.0353,-0.017 0.0115,0 0.0216,0 0.0286,-0.01 h 1.4e-4 1.4e-4 c 0.005,0 0.022,0 0.043,0 0.021,-7e-4 0.0468,-7e-4 0.0723,-4e-4 0.0255,6e-4 0.0507,0 0.0707,0 0.01,7e-4 0.0186,0 0.0252,0 0.007,7e-4 0.0116,0 0.0129,0 h 0.003 0.002 c 0.004,-0.01 0.005,-0.019 0.006,-0.033 5.4e-4,-0.014 0,-0.031 -9.5e-4,-0.047 -0.002,-0.032 -0.005,-0.061 -0.005,-0.061 -2e-5,0 4e-5,-3e-4 4e-5,-3e-4 -2.8e-4,0 -6.1e-4,0 -6.1e-4,0 h -0.008 c -10e-5,-6e-4 -3.8e-4,-9e-4 3.2e-4,0 5.2e-4,-9e-4 0.002,0 0.002,0 8.8e-4,-3e-4 0.002,-3e-4 0.002,0 0.002,4e-4 8.9e-4,4e-4 2.1e-4,0 -6.8e-4,-5e-4 -0.002,0 -0.004,0 -0.007,-0.01 -0.0232,-0.022 -0.0588,-0.058 l -8.6e-4,-9e-4 -10e-4,-3e-4 c -0.0368,-0.01 -0.0735,-0.036 -0.10078,-0.061 -0.0273,-0.025 -0.0451,-0.047 -0.0451,-0.047 h -0.004 l -0.003,0.01 c 0,0 -10e-4,0 -0.002,0 -1.1e-4,0 -2.2e-4,4e-4 -3.2e-4,5e-4 -0.0481,-0.051 -0.0688,-0.1033 -0.0724,-0.1536 -0.004,-0.052 0.0103,-0.1011 0.0308,-0.1443 0.041,-0.086 0.10747,-0.147 0.10747,-0.147 h 10e-4 l 0.0142,-0.1023 -0.006,10e-4 c 0,0 -0.0344,0.01 -0.0681,0.01 -0.0168,0 -0.0335,0 -0.0454,0 -0.006,-3e-4 -0.0106,0 -0.0131,0 -10e-4,-4e-4 -10e-4,-8e-4 -0.002,-9e-4 2.5e-4,-8e-4 0.002,0 0.005,-0.01 0.003,0 0.008,-0.01 0.0138,-0.01 0.0114,-0.01 0.0265,-0.012 0.0415,-0.017 0.0299,-0.011 0.0594,-0.018 0.0594,-0.018 h 0.006 l -0.004,-0.01 c 0,0 -0.007,-0.01 -0.009,-0.025 -0.002,-0.016 0.002,-0.038 0.0232,-0.065 0.0275,-0.025 0.0599,-0.033 0.0902,-0.03 z"
       id="path397" />
    <path
       style="color:#000000;fill:#9ca69c;stroke-width:0.00881944;-inkscape-stroke:none"
       d="m -822.05506,-1409.9742 c 0,0 -0.19525,0.2152 -0.11101,0.3799 0.004,-0.023 0.003,-0.037 0.005,-0.036 -0.005,0 0.0242,0.02 0.022,0.015 6.1e-4,-0.012 -0.009,-0.038 -0.009,-0.038 0.009,0 0.0176,0 0.0264,0.01 -0.005,-0.01 -0.0103,-0.019 -0.0154,-0.029 0.0125,0 0.0249,0 0.0374,0 0,0 -0.0132,-0.035 -0.009,-0.035 0.004,0 0.0308,0 0.0308,0 -0.0555,-0.1 -0.003,-0.1824 0.022,-0.2708 z"
       id="path334" />
    <path
       style="color:#000000;fill:#9ca69c;stroke-width:0.00881944;-inkscape-stroke:none"
       d="m -822.05833,-1409.9772 c 0,0 -0.0492,0.054 -0.0878,0.1292 -0.0386,0.075 -0.067,0.1714 -0.0239,0.2557 l 0.006,0.011 0.002,-0.013 c 0.002,-0.012 0.003,-0.021 0.003,-0.028 7e-5,-7e-4 1.1e-4,-9e-4 1.4e-4,0 0.002,0 0.003,0 0.005,0 0.003,0 0.007,0 0.009,0.01 10e-4,8e-4 0.002,0 0.004,0 3.6e-4,0 7.8e-4,4e-4 10e-4,4e-4 7.1e-4,0 0.002,0 0.003,0 10e-4,0 10e-4,0 10e-4,0 v -10e-5 c 0,0 1.1e-4,-3e-4 1.1e-4,-3e-4 -7e-5,-7e-4 -2.1e-4,-9e-4 -3.6e-4,0 3e-5,-0.01 -0.002,-0.015 -0.004,-0.023 -10e-4,0 -10e-4,0 -0.002,-0.01 0.006,0 0.0125,0 0.0187,0 h 0.01 l -0.005,-0.01 c -0.004,-0.01 -0.008,-0.014 -0.0114,-0.021 0.01,0 0.0193,0 0.029,0 l 0.007,8e-4 -0.003,-0.01 c 0,0 -0.003,-0.01 -0.006,-0.017 -10e-4,0 -0.003,-0.01 -0.003,-0.012 0,0 0,0 0,0 0.003,0 0.007,4e-4 0.0129,8e-4 0.007,6e-4 0.0137,0 0.0137,0 l 0.008,7e-4 -0.004,-0.01 c -0.0272,-0.049 -0.028,-0.093 -0.0188,-0.1366 0.009,-0.043 0.0285,-0.086 0.0412,-0.1309 z m -0.009,0.025 c -0.0119,0.036 -0.0259,0.071 -0.0337,0.1085 -0.009,0.043 -0.008,0.088 0.0166,0.1355 -0.002,-3e-4 -0.003,-3e-4 -0.006,-5e-4 -0.007,-6e-4 -0.0145,0 -0.0174,0 -0.002,0 -0.004,0 -0.004,0 -6.9e-4,0 -7.5e-4,0 -8e-4,0 -1.1e-4,0 10e-5,0 4.6e-4,0.01 6.9e-4,0 0.002,0.01 0.003,0.013 0.002,0.01 0.003,0.01 0.004,0.011 -0.0101,0 -0.0203,0 -0.0305,0 l -0.008,-10e-4 0.004,0.01 c 0.004,0.01 0.007,0.013 0.0107,0.02 -0.006,0 -0.0112,0 -0.0167,0 h -0.008 l 0.003,0.01 c 0,0 0.002,0.01 0.005,0.014 10e-4,0 0.002,0.01 0.003,0.014 -0.001,-8e-4 -0.002,0 -0.003,0 -0.003,0 -0.006,0 -0.008,-0.01 -9.7e-4,-8e-4 -0.002,0 -0.002,0 0,0 3e-5,0 3.2e-4,4e-4 7e-5,0 1.4e-4,4e-4 2.8e-4,5e-4 7e-5,0 1.4e-4,3e-4 2.1e-4,4e-4 7e-5,4e-4 2.1e-4,8e-4 2.1e-4,7e-4 0,0 7e-5,0 7e-5,0 0,0 -5.5e-4,0 -5.5e-4,0 10e-6,0 -10e-4,0 -10e-4,0 0,0 -0.001,6e-4 -0.001,6e-4 0,0 -3.2e-4,0 -6.2e-4,0 -1.8e-4,0 -3.6e-4,0 -5.2e-4,10e-5 -1.4e-4,0 -3.2e-4,-10e-5 -4.5e-4,0 -10e-5,-10e-5 -10e-5,0 -1.7e-4,0 l 0.004,-0.01 c -2.1e-4,0 -4e-4,-3e-4 -7e-4,-4e-4 -1.4e-4,0 -3.2e-4,0 -6.6e-4,-3e-4 -1.7e-4,0 -3.7e-4,0 -7e-4,0 -1.8e-4,0 -6.3e-4,0 -6.4e-4,0 0,0 -10e-4,0 -10e-4,0 0,0 -10e-4,6e-4 -10e-4,6e-4 -10e-6,0 -10e-4,0 -10e-4,0 0,0 -7e-5,4e-4 -7e-5,4e-4 -3e-5,0 -1.1e-4,0 -1.4e-4,0 -8.7e-4,0 -9.7e-4,0 -10e-4,0 -3.8e-4,0 -5.2e-4,0 -7.3e-4,0.01 -1.4e-4,0 -9.2e-4,0.01 -0.001,0.01 -0.0307,-0.077 -0.005,-0.163 0.0301,-0.2322 0.028,-0.054 0.0555,-0.089 0.0713,-0.1084 z"
       id="path337" />
    <path
       style="color:#000000;fill:#9ca69c;stroke-width:0.00881944;-inkscape-stroke:none"
       d="m -821.98723,-1410.1588 c 0,0 0.0103,0.074 -0.03,0.096 -0.007,0 -0.0319,0.013 -0.0281,0.028 0.005,0.021 0.0159,0.017 0.0319,0.013 0.0422,-0.01 0.091,-0.098 0.0263,-0.137 z"
       id="path340" />
    <path
       style="color:#000000;fill:#9ca69c;stroke-width:0.00881944;-inkscape-stroke:none"
       d="m -821.99287,-1410.1674 0.001,0.01 c 0,0 0.002,0.018 1.1e-4,0.039 -0.002,0.021 -0.01,0.043 -0.0278,0.053 h -2.5e-4 -2.1e-4 c -0.002,0 -0.0107,0.01 -0.0179,0.01 -0.004,0 -0.007,0.01 -0.01,0.01 -0.002,0 -0.004,0.01 -0.002,0.014 0.001,0.01 0.003,0.01 0.006,0.013 0.003,0 0.006,0.01 0.01,0.01 0.007,0 0.0141,-7e-4 0.022,0 0.0238,0 0.0468,-0.03 0.0566,-0.059 0.005,-0.015 0.006,-0.031 0.002,-0.046 -0.004,-0.015 -0.0141,-0.029 -0.0311,-0.04 z m 0.01,0.018 c 0.0104,0.01 0.0176,0.018 0.0205,0.029 0.004,0.013 0.002,0.027 -0.002,0.041 -0.009,0.027 -0.0314,0.05 -0.0498,0.054 h -10e-5 -1.1e-4 c -0.008,0 -0.0145,0 -0.0182,0 -0.002,-4e-4 -0.003,0 -0.004,0 -0.001,0 -0.003,0 -0.004,-0.01 v 0 h -10e-6 c -6.4e-4,0 -1.5e-4,0 10e-4,-0.01 10e-4,0 0.004,0 0.007,-0.01 0.006,0 0.0132,-0.01 0.0177,-0.01 0.022,-0.012 0.0298,-0.037 0.0323,-0.059 0.002,-0.016 5.3e-4,-0.024 -1.1e-4,-0.031 z"
       id="path343" />
    <path
       id="path406"
       style="fill:#ffffff;stroke-width:0.00881944"
       d="m -822.05851,-1410.0947 a 0.015875,0.015875 0 0 1 -0.0159,0.016 0.015875,0.015875 0 0 1 -0.0159,-0.016 0.015875,0.015875 0 0 1 0.0159,-0.016 0.015875,0.015875 0 0 1 0.0159,0.016 z" />
    <path
       style="color:#000000;fill:#d90000;stroke-width:0.00881944;-inkscape-stroke:none"
       d="m -822.12234,-1410.0331 c -0.0103,0.01 -0.0647,0.065 -0.0113,0.085 0.0554,-0.015 0.0403,-0.025 0.0525,-0.038 3.1e-4,-0.025 -0.0275,-0.032 -0.0413,-0.048 z"
       id="path346" />
    <path
       style="color:#000000;fill:#000000;stroke-width:0.00881944;-inkscape-stroke:none"
       d="m -822.12181,-1410.0392 h -0.003 c -0.006,0 -0.0221,0.021 -0.0308,0.04 -0.004,0.01 -0.007,0.02 -0.004,0.029 0.003,0.01 0.0107,0.018 0.0249,0.024 l 0.001,6e-4 10e-4,-4e-4 c 0.028,-0.01 0.0391,-0.014 0.0448,-0.021 0.003,0 0.004,-0.01 0.005,-0.01 10e-4,0 0.002,0 0.005,-0.01 h 10e-4 4e-5 c 1.8e-4,-0.014 -0.008,-0.024 -0.0171,-0.031 -0.009,-0.01 -0.0192,-0.013 -0.0253,-0.02 z m -10e-5,0.012 c 0.007,0.01 0.0157,0.013 0.0228,0.018 0.008,0.01 0.0133,0.013 0.0135,0.023 -0.002,0 -0.004,0.01 -0.005,0.01 -10e-4,0 -0.002,0.01 -0.004,0.01 -0.004,0 -0.0129,0.011 -0.0386,0.018 -0.0114,0 -0.0166,-0.011 -0.0184,-0.017 -0.002,-0.01 -1.4e-4,-0.015 0.004,-0.023 0.007,-0.015 0.0202,-0.029 0.026,-0.034 z"
       id="path349" />
    <path
       style="color:#000000;fill:#9ca69c;stroke-width:0.00881944;-inkscape-stroke:none"
       d="m -822.00412,-1409.5011 c -0.003,0.012 -0.015,0.057 0.002,0.092 0.0469,-0.02 0.0685,-0.014 0.0844,0 -0.0385,-0.031 -0.0535,-0.044 -0.0863,-0.088 z"
       id="path352" />
    <path
       style="color:#000000;fill:#9ca69c;stroke-width:0.00881944;-inkscape-stroke:none"
       d="m -822.00627,-1409.5113 -0.002,0.01 c -0.003,0.012 -0.0157,0.058 0.002,0.095 h 0.002 0.004 c 0.0231,-0.01 0.0397,-0.013 0.0521,-0.013 0.0124,4e-4 0.0208,0 0.0283,0.01 l 0.005,-0.01 c -0.0384,-0.031 -0.0529,-0.043 -0.0856,-0.087 z m 0.005,0.02 c 0.0222,0.029 0.0403,0.047 0.0628,0.066 -0.003,-6e-4 -0.006,0 -0.01,0 -0.0131,-3e-4 -0.0297,0 -0.051,0.012 -0.0118,-0.028 -0.006,-0.06 -0.002,-0.076 z"
       id="path355" />
    <path
       style="color:#000000;fill:#ffffff;stroke-width:0.00881944;-inkscape-stroke:none"
       d="m -821.92343,-1409.2881 0.003,0.1051 c 0,0 0.0366,0.01 0.0535,0 0.0169,-0.01 -9.4e-4,-0.073 -0.0563,-0.1051 z"
       id="path364" />
    <path
       style="color:#000000;fill:#ffffff;stroke-width:0.00881944;-inkscape-stroke:none"
       d="m -821.92805,-1409.2958 2.1e-4,0.01 0.003,0.1087 0.004,6e-4 c 0,0 0.009,0 0.0209,0 0.0115,9e-4 0.0251,0 0.035,0 0.003,0 0.006,0 0.007,-0.01 10e-4,0 0.002,-0.01 0.002,-0.011 -1.7e-4,-0.01 -0.003,-0.019 -0.008,-0.03 -0.01,-0.022 -0.0284,-0.048 -0.0571,-0.064 z m 0.009,0.017 c 0.0223,0.015 0.0385,0.036 0.0465,0.054 0.004,0.01 0.007,0.02 0.007,0.027 7e-5,0 -3.9e-4,0.01 -10e-4,0.01 -7e-4,0 -0.001,0 -0.002,0 -0.007,0 -0.0201,0 -0.0312,0 -0.009,-7e-4 -0.014,0 -0.0164,0 z"
       id="path367" />
    <path
       style="color:#000000;fill:#9ca69c;stroke-width:0.00881944;-inkscape-stroke:none"
       d="m -821.65791,-1409.275 c 0,0 -0.0675,-0.1632 -0.24019,-0.2045 -0.17264,-0.041 -0.15012,-0.2252 -0.13605,-0.2364 0.008,-0.016 0.0131,-0.04 0.0629,-0.017 0.0497,0.023 0.27866,0.1388 0.3115,0.1445 0.0328,0.01 0.005,0.3171 0.002,0.3133 z"
       id="path376" />
    <path
       style="color:#000000;fill:#000000;stroke-width:0.00881944;-inkscape-stroke:none"
       d="m -822.0008,-1409.7467 c -0.008,-8e-4 -0.0149,7e-4 -0.02,0 -0.0103,0.01 -0.0137,0.017 -0.0173,0.025 h 10e-4 c -0.002,0 -0.003,0 -0.004,0.01 -10e-4,0 -0.002,0.01 -0.003,0.01 -0.002,0.01 -0.003,0.015 -0.004,0.025 -10e-4,0.02 -1.5e-4,0.046 0.007,0.073 0.0145,0.054 0.0535,0.1116 0.14127,0.1326 0.17033,0.041 0.23714,0.2019 0.23714,0.2019 l 2.1e-4,6e-4 3.2e-4,4e-4 c 3.2e-4,4e-4 0.002,0 0.002,0 10e-6,0 0.003,0 0.003,0 10e-6,0 10e-4,-8e-4 0.002,0 3.2e-4,-3e-4 5.1e-4,-6e-4 6.4e-4,-8e-4 5.3e-4,-9e-4 5.4e-4,0 6.5e-4,0 2.2e-4,-8e-4 3.9e-4,0 5.7e-4,0 3.8e-4,0 8.2e-4,-0.01 10e-4,-0.01 9.9e-4,-0.01 0.002,-0.02 0.003,-0.035 0.003,-0.029 0.005,-0.068 0.007,-0.1068 0.002,-0.039 0.002,-0.078 2.5e-4,-0.1088 -9.8e-4,-0.015 -0.003,-0.028 -0.005,-0.037 -10e-4,0 -0.003,-0.01 -0.005,-0.012 -0.002,0 -0.005,-0.01 -0.008,-0.01 -0.003,-6e-4 -0.0105,0 -0.0199,-0.01 -0.009,0 -0.0212,-0.01 -0.0346,-0.015 -0.0268,-0.012 -0.06,-0.028 -0.0938,-0.044 -0.0675,-0.033 -0.13708,-0.067 -0.16211,-0.079 -0.0127,-0.01 -0.023,-0.01 -0.0314,-0.01 z m -4.6e-4,0.01 c 0.007,7e-4 0.016,0 0.0281,0.01 0.0247,0.012 0.0945,0.046 0.16206,0.079 0.0338,0.016 0.0671,0.032 0.094,0.044 0.0135,0.01 0.0253,0.011 0.0349,0.015 0.01,0 0.0167,0.01 0.0217,0.01 3.6e-4,0 10e-4,5e-4 0.002,0 10e-4,0 0.003,0.01 0.004,0.01 0.002,0.01 0.004,0.021 0.005,0.036 0.002,0.03 10e-4,0.069 -2.5e-4,0.1079 -0.002,0.039 -0.004,0.078 -0.007,0.1064 -10e-4,0.014 -0.002,0.025 -0.003,0.033 -0.0145,-0.031 -0.0824,-0.1578 -0.23701,-0.1948 -0.0848,-0.02 -0.12092,-0.075 -0.13481,-0.1263 -0.007,-0.026 -0.008,-0.051 -0.007,-0.07 6.8e-4,-0.01 0.002,-0.018 0.004,-0.023 7.7e-4,0 0.002,-0.01 0.002,-0.01 7.5e-4,0 0.002,0 10e-4,0 l 8e-4,-6e-4 4.4e-4,-9e-4 c 0.004,-0.01 0.007,-0.017 0.0139,-0.021 0.003,0 0.008,0 0.015,0 z"
       id="path379" />
    <path
       style="color:#000000;fill:#d90000;stroke-width:0.00881944;-inkscape-stroke:none"
       d="m -821.8221,-1409.4804 c -0.003,0 0.23081,0.1379 0.16044,0.2552 0.0666,-0.044 0.045,-0.1211 0.045,-0.1211 0,0 0.0544,0.1417 -0.0779,0.2112 0.0141,0.012 0.0235,0.01 0.0235,0.01 l -0.0225,0.023 c 0,0 -0.0103,0.017 0.0788,-0.026 -0.0244,0.02 -0.0263,0.034 -0.0263,0.034 0,0 0.007,0.019 0.0647,-0.032 -0.0469,0.051 -0.0572,0.077 -0.0572,0.076 0.12666,-0.011 0.40251,-0.4232 -0.0873,-0.5452 0.0263,0.027 0.0225,0.024 0.0225,0.024 z"
       id="path370" />
    <path
       style="color:#000000;fill:#000000;stroke-width:0.00881944;-inkscape-stroke:none"
       d="m -821.73461,-1409.6048 0.0107,0.011 c 0.0119,0.012 0.0164,0.017 0.0191,0.02 l -0.1199,0.09 h 2.1e-4 c -1e-5,0 -0.002,0 -0.002,0 0,0 -2.4e-4,0 -1.4e-4,0 2.5e-4,0 6e-4,0 8.3e-4,0 4.5e-4,6e-4 7.1e-4,8e-4 0.001,0 5.7e-4,4e-4 10e-4,9e-4 0.002,0 0.002,0 0.004,0 0.007,0 0.006,0 0.0146,0.01 0.0247,0.017 0.0203,0.015 0.0469,0.036 0.0713,0.06 0.0244,0.024 0.0465,0.052 0.0581,0.08 0.0116,0.028 0.0129,0.057 -0.004,0.085 l 0.006,0.01 c 0.0327,-0.022 0.0446,-0.051 0.0484,-0.076 8.5e-4,0.01 10e-4,0.02 4.4e-4,0.03 -0.003,0.043 -0.0214,0.094 -0.0862,0.1279 h -0.006 0.005 c 0.007,0.01 0.0123,0.01 0.017,0.01 l -0.0167,0.017 -2.8e-4,5e-4 c 0,0 -0.002,0 -4.5e-4,0.01 8.5e-4,0 0.003,0 0.005,0 0.002,4e-4 0.004,4e-4 0.006,0 0.008,0 0.0261,-0.01 0.0547,-0.021 -0.002,0 -0.007,0.01 -0.009,0.01 -0.004,0.01 -0.005,0.011 -0.005,0.011 h -1.4e-4 l 3.5e-4,10e-4 c 0,0 10e-4,0 0.004,0 0.003,0 0.007,0 0.0118,0 0.006,0 0.0155,-0.01 0.0272,-0.014 -0.008,0.01 -0.0194,0.023 -0.0237,0.029 -0.004,0.01 -0.007,0.011 -0.009,0.015 -5.6e-4,10e-4 -8.5e-4,0 -10e-4,0 h -0.002 v 0 c 0,0 4e-5,5e-4 4e-5,5e-4 0,0 1.7e-4,8e-4 1.7e-4,8e-4 0,10e-5 7.9e-4,0 8e-4,0 0,0 0.002,0 0.002,0 0,0 9.4e-4,0 0.002,0 h -1.1e-4 c 1.8e-4,-1e-4 3.5e-4,0 5.2e-4,0 10e-5,0 3.6e-4,0 3.6e-4,0 0,0 2.1e-4,0 4.1e-4,-4e-4 0.0336,0 0.0743,-0.032 0.11034,-0.074 0.0365,-0.043 0.0679,-0.1 0.0798,-0.1603 0.012,-0.061 0.004,-0.1255 -0.0375,-0.1825 -0.0418,-0.057 -0.11745,-0.1061 -0.24055,-0.1367 z m 0.029,0.017 c 0.11135,0.03 0.18111,0.076 0.21939,0.1283 0.0402,0.055 0.0476,0.1167 0.036,0.1756 -0.0116,0.059 -0.0423,0.1146 -0.0779,0.1562 -0.0321,0.038 -0.0679,0.062 -0.0963,0.069 0.002,0 0.003,-0.01 0.006,-0.01 0.008,-0.013 0.0225,-0.032 0.0458,-0.057 l -0.006,-0.01 c -0.0288,0.025 -0.0447,0.033 -0.0521,0.034 -0.003,5e-4 -0.004,0 -0.004,-4e-4 2.1e-4,-9e-4 1.4e-4,0 0.002,-0.01 0.003,-0.01 0.009,-0.014 0.0213,-0.023 l -0.005,-0.01 c -0.0412,0.02 -0.0599,0.026 -0.0684,0.028 l 0.0171,-0.017 -0.004,-0.01 c 0,0 -10e-4,4e-4 -0.004,-4e-4 -0.002,-4e-4 -0.006,0 -0.01,-0.01 0.0618,-0.035 0.0819,-0.087 0.0848,-0.1309 0.003,-0.045 -0.0105,-0.08 -0.0108,-0.081 0,0 -2e-5,0 -2e-5,0 h -2e-5 c 0,0 -10e-5,-4e-4 -10e-5,-4e-4 h -0.008 c 0,0 0.0168,0.061 -0.0292,0.1043 0.009,-0.025 0.007,-0.051 -0.003,-0.075 -0.0123,-0.03 -0.0352,-0.059 -0.0601,-0.083 -0.0249,-0.025 -0.0518,-0.046 -0.0723,-0.061 -0.0103,-0.01 -0.0189,-0.013 -0.0249,-0.018 -0.002,0 -0.003,0 -0.004,0 l 0.11813,-0.089 c -10e-5,0 -9.4e-4,3e-4 -9.4e-4,3e-4 0,0 4.9e-4,-7e-4 7e-4,0 1.1e-4,4e-4 2.8e-4,8e-4 2.8e-4,9e-4 l 10e-4,-8e-4 h -10e-4 -0.003 c 5.1e-4,0 10e-4,0 10e-4,0 0,0 7.1e-4,0 10e-4,0 9.4e-4,0 0.003,0 0.003,0 0,0 -3.9e-4,-8e-4 -3.9e-4,-8e-4 -10e-6,0 -2.2e-4,-3e-4 -2.9e-4,-4e-4 -3.1e-4,-3e-4 -3.5e-4,-3e-4 -4.6e-4,-5e-4 -2e-5,0 -7e-5,0 -7e-5,0 -3e-5,0 -4e-5,0 -7e-5,0 -2.5e-4,-3e-4 -6.3e-4,-7e-4 -10e-4,0 -10e-4,0 -0.007,-0.01 -0.009,-0.01 z"
       id="path373" />
    <path
       style="color:#000000;fill:#ffffff;stroke-width:0.00881944;-inkscape-stroke:none"
       d="m -821.81178,-1409.5208 c 0.0319,0.023 0.0432,0.03 0.0469,0.041 -0.0291,-0.01 -0.0553,0 -0.0553,0 0,0 -0.0629,-0.06 -0.0741,-0.065 -0.008,0 -0.0572,-0.031 -0.0572,-0.031 -0.0244,-0.012 -0.0469,-0.097 0.0432,-0.072 0.0929,0.044 0.10601,0.048 0.10601,0.048 0.0369,0.012 0.0738,0.023 0.11072,0.035 0.0213,0.024 0.0425,0.048 0.0638,0.071 0,0 -0.11353,-0.056 -0.1276,-0.057 0.031,0.025 0.0488,0.06 0.0488,0.06 -0.036,-0.01 -0.0672,-0.02 -0.10509,-0.025 z"
       id="path328" />
    <path
       style="color:#000000;fill:#000000;stroke-width:0.00881944;-inkscape-stroke:none"
       d="m -821.93717,-1409.661 c -0.008,0 -0.0155,0 -0.0213,0 -0.0116,0.01 -0.0174,0.016 -0.0189,0.027 -0.001,0.011 10e-4,0.023 0.005,0.032 0.004,0.01 0.0106,0.018 0.0183,0.022 l -3.9e-4,-4e-4 c 0,0 0.0123,0.01 0.0256,0.016 0.007,0 0.0136,0.01 0.0195,0.011 0.003,0 0.006,0 0.008,0 0.002,9e-4 0.004,0 0.007,0 l -0.002,-3e-4 c 5.4e-4,3e-4 0.003,0 0.005,0 0.003,0 0.006,0 0.01,0.01 0.007,0.01 0.0163,0.014 0.0248,0.022 0.0171,0.015 0.0328,0.031 0.0328,0.031 h 10e-4 0.002 c 0,0 0.0257,0 0.0541,0 h 0.008 l -0.002,-0.01 c -0.002,-0.01 -0.007,-0.012 -0.0142,-0.018 -0.004,0 -0.0119,-0.01 -0.0179,-0.013 0.0289,0.01 0.0556,0.013 0.085,0.021 h 0.01 l -0.005,-0.01 c 0,0 -0.0131,-0.024 -0.0355,-0.047 0.002,0 0.004,0 0.007,0 0.0125,0.01 0.028,0.012 0.0431,0.02 0.0301,0.014 0.0584,0.028 0.0584,0.028 l 0.005,-0.01 c -0.0213,-0.024 -0.0425,-0.048 -0.0638,-0.071 l -8.1e-4,-9e-4 -10e-4,-4e-4 c -0.0369,-0.012 -0.0738,-0.023 -0.11073,-0.035 h -7e-5 -7e-5 c 0,0 -0.003,-8e-4 -0.0176,-0.01 -0.0148,-0.01 -0.0413,-0.018 -0.0877,-0.04 h -3.6e-4 -3.8e-4 c -0.0116,0 -0.0214,0 -0.0299,0 z m 8e-5,0.01 c 0.007,0 0.0164,0 0.0272,0 0.046,0.022 0.0726,0.034 0.0875,0.04 0.015,0.01 0.0187,0.01 0.0187,0.01 l -1.1e-4,-10e-5 c 0.0365,0.012 0.073,0.023 0.10955,0.034 0.016,0.018 0.0321,0.036 0.0481,0.054 -0.0108,-0.01 -0.0187,-0.01 -0.0385,-0.019 -0.0151,-0.01 -0.0306,-0.014 -0.0434,-0.02 -0.006,0 -0.012,-0.01 -0.0166,-0.01 -0.005,0 -0.008,0 -0.0107,0 l -0.0137,-9e-4 0.0107,0.01 c 0.0231,0.019 0.0358,0.039 0.0419,0.049 -0.0314,-0.01 -0.0605,-0.017 -0.0947,-0.022 l -0.003,0.01 c 0.016,0.011 0.0267,0.019 0.0337,0.025 0.004,0 0.004,0.01 0.006,0.01 -0.023,0 -0.0413,0 -0.0438,0 -10e-4,0 -0.0151,-0.014 -0.0316,-0.029 -0.009,-0.01 -0.0175,-0.016 -0.0251,-0.022 -0.004,0 -0.007,-0.01 -0.0101,-0.01 -0.003,0 -0.005,0 -0.007,0 l -8.1e-4,-3e-4 h -8.8e-4 c 2.8e-4,0 -10e-4,-4e-4 -0.003,0 -0.002,-7e-4 -0.004,0 -0.007,0 -0.006,0 -0.0125,-0.01 -0.019,-0.01 -0.0132,-0.01 -0.0253,-0.015 -0.0253,-0.015 h -1.8e-4 -2.1e-4 c -0.005,0 -0.0103,-0.01 -0.0142,-0.018 -0.004,-0.01 -0.006,-0.019 -0.005,-0.028 10e-4,-0.01 0.005,-0.016 0.0138,-0.02 0.004,0 0.0102,0 0.0177,0 z"
       id="path331" />
    <path
       style="color:#000000;fill:#000000;stroke-width:0.00881944;-inkscape-stroke:none"
       d="m -822.25369,-1410.0246 c 0,0 0.10884,-0.026 0.12197,-0.023"
       id="path358" />
    <path
       style="color:#000000;fill:#ffffff;stroke-width:0.00881944;-inkscape-stroke:none"
       d="m -822.1411,-1410.0516 c -0.004,4e-4 -0.01,0 -0.0159,0 -0.0122,0 -0.0271,0 -0.0415,0.01 -0.0289,0.01 -0.0562,0.013 -0.0562,0.013 l 0.002,0.01 c 0,0 0.0272,-0.01 0.0559,-0.013 0.0144,0 0.0292,-0.01 0.0411,-0.01 0.006,-10e-4 0.0112,0 0.0153,0 0.004,-3e-4 0.007,0 0.007,0 l 0.002,-0.01 c -0.003,-9e-4 -0.006,-7e-4 -0.0106,-4e-4 z"
       id="path361" />
  </g>
</svg>
