<?xml version="1.0" encoding="UTF-8" standalone="no"?>
<!-- Creator: CorelDRAW Home & Student X8 -->

<svg
   xml:space="preserve"
   width="7.9375005mm"
   height="5.291667mm"
   version="1.1"
   style="clip-rule:evenodd;fill-rule:evenodd;image-rendering:optimizeQuality;shape-rendering:geometricPrecision;text-rendering:geometricPrecision"
   viewBox="0 0 793.75005 529.1667"
   inkscape:version="1.4 (86a8ad7, 2024-10-11)"
   sodipodi:docname="Lazistan.svg"
   id="svg1"
   xmlns:inkscape="http://www.inkscape.org/namespaces/inkscape"
   xmlns:sodipodi="http://sodipodi.sourceforge.net/DTD/sodipodi-0.dtd"
   xmlns="http://www.w3.org/2000/svg"
   xmlns:svg="http://www.w3.org/2000/svg">
 <defs
   id="defs1">
  <style
   type="text/css"
   id="style1">
   <![CDATA[
    .fil1 {fill:#FEFEFE}
    .fil2 {fill:#06804E}
    .fil0 {fill:#252440}
   ]]>
  </style>
 </defs>
 <g
   id="Layer_x0020_1"
   inkscape:label="Layer 1"
   inkscape:groupmode="layer">
  <metadata
   id="CorelCorpID_0Corel-Layer" />
  <sodipodi:namedview
   pagecolor="#ffffff"
   bordercolor="#666666"
   borderopacity="1"
   objecttolerance="10"
   gridtolerance="10"
   guidetolerance="10"
   inkscape:pageopacity="0"
   inkscape:pageshadow="2"
   inkscape:window-width="1920"
   inkscape:window-height="1009"
   id="namedview14"
   showgrid="false"
   inkscape:zoom="0.82072888"
   inkscape:cx="660.99782"
   inkscape:cy="280.84792"
   inkscape:window-x="-8"
   inkscape:window-y="-8"
   inkscape:window-maximized="1"
   inkscape:current-layer="Layer_x0020_1"
   inkscape:showpageshadow="2"
   inkscape:pagecheckerboard="0"
   inkscape:deskcolor="#d1d1d1"
   inkscape:document-units="mm" />
  <polygon
   id="rect2993"
   class="fil0"
   points="0,0 0,15000 22500,15000 22500,0 "
   transform="scale(0.03527778)" />
  <path
   id="path8"
   class="fil1"
   d="m 366.28917,44.203056 c -6.91444,1.199444 -13.97,3.421944 -19.96722,6.138333 l -6.49111,3.033889 10.01889,0.846667 c 23.495,2.116667 41.48666,12.206111 53.0225,29.739167 11.64166,17.638888 12.7,41.380838 2.82222,60.677778 -2.92806,5.75028 -9.87778,15.76917 -10.58333,15.06361 -0.24695,-0.14111 0.35277,-3.31611 1.30527,-6.84389 3.73945,-14.67555 1.27,-31.50305 -6.49111,-42.79194 -8.11389,-11.641669 -25.61167,-22.57778 -41.83944,-25.999725 -37.18278,-7.761111 -69.39139,8.713612 -78.66945,40.463615 -1.05833,3.52777 -1.905,6.94972 -1.905,7.51416 0,0.59973 3.66889,-2.32833 8.255,-6.56166 8.81945,-8.255 20.91972,-14.81667 31.75,-17.42723 3.52778,-0.91722 11.50056,-1.51694 17.63889,-1.51694 19.61445,0.10583 37.74722,8.36083 51.01167,22.93056 6.24417,6.94972 12.94694,18.59138 14.35805,25.15305 0.70556,3.42195 0.70556,3.42195 -2.71638,-1.16417 -16.79223,-22.57777 -42.89778,-30.33888 -70.41445,-21.16666 -31.39722,10.58333 -52.10528,39.15833 -47.51917,65.61667 1.51695,8.71361 6.59695,19.75555 12.10028,26.10555 l 4.02167,4.58611 -1.19945,-8.36083 c -0.81139,-6.45583 -0.70555,-10.23056 0.84667,-17.39195 2.46944,-12.59416 6.70278,-20.56694 15.62806,-29.98611 8.71361,-9.27805 21.2725,-16.47472 33.9725,-19.50861 11.78277,-2.71639 29.77444,-1.76389 42.47444,2.32833 5.29167,1.76389 9.87778,3.52778 10.23056,4.02167 0.21166,0.45861 -4.58611,0.81139 -10.83028,0.91722 -19.15584,0.14111 -32.10278,5.29167 -43.4975,17.53306 -22.93056,24.58861 -22.01334,64.31139 1.97555,86.78333 10.23056,9.63084 27.05806,15.98084 41.87473,16.12195 h 5.89139 l -7.65528,-4.58611 C 339.725,254.81139 333.375,210.71417 362.19695,181.68056 c 6.80861,-6.94972 18.0975,-14.71084 24.09472,-16.47472 2.46945,-0.81139 2.2225,-0.21167 -2.11667,4.72722 -14.71083,16.68639 -17.53305,37.04166 -8.00805,56.44444 8.00805,15.98084 22.57778,28.43389 40.92222,34.78389 25.54111,8.81945 48.93028,3.88056 67.16889,-14.32278 4.445,-4.48027 7.86695,-8.46666 7.62,-8.81944 -0.35278,-0.24695 -3.175,0.56444 -6.35,1.97555 -19.26167,8.255 -43.03889,7.3025 -61.94778,-2.68111 -9.77194,-5.08 -21.87222,-17.28611 -26.59944,-26.59944 -5.75028,-11.39472 -7.51417,-20.10833 -6.91445,-33.51389 0.70556,-14.11111 2.2225,-16.43945 4.33917,-6.35 3.175,15.66333 13.75833,30.48 26.91694,37.64139 25.54112,13.86417 63.28834,8.46667 85.37223,-12.24139 15.06361,-14.11111 20.46111,-33.37278 14.71083,-53.26945 -1.51694,-5.29166 -2.36361,-4.69194 -4.93889,4.1275 -5.75028,19.15584 -25.75278,37.04167 -47.16639,42.08639 -8.11389,2.01084 -26.31722,1.76389 -34.67805,-0.45861 -14.00528,-3.52777 -26.56417,-10.83027 -35.98334,-20.46111 -5.29166,-5.53861 -4.83305,-5.99722 2.11667,-2.01083 9.525,5.53861 19.40278,8.11389 31.39722,8.255 21.62528,0.10583 39.26417,-9.525 52.21111,-28.46917 8.00806,-11.64167 11.64167,-22.93055 11.53584,-36.08917 C 495.75862,93.027501 490.60806,81.491668 478.01389,70.202779 472.47528,65.26389 458.25834,57.044167 457.2,58.102501 c -0.35277,0.211666 1.41112,3.175 3.77473,6.35 10.44222,14.569722 13.97,34.219444 9.03111,50.447219 -4.93889,16.08667 -17.63889,30.7975 -33.51389,38.55861 -10.23056,4.93889 -18.55611,7.16139 -30.90333,8.11389 l -9.31334,0.81139 9.66611,-4.79778 c 31.60889,-15.52222 41.83945,-46.56666 25.61167,-77.505274 -7.97278,-15.169444 -22.33083,-27.763611 -37.60611,-32.808333 -7.05556,-2.469445 -22.01334,-3.986389 -27.65778,-3.069167 z"
   inkscape:connector-curvature="0"
   style="stroke-width:0.0352778" />
  <polygon
   id="path10"
   class="fil1"
   points="22500,9767 22500,9483 22500,9200 11250,9200 0,9200 0,9483 0,9767 11250,9767 "
   inkscape:connector-curvature="0"
   transform="scale(0.03527778)" />
  <polygon
   id="path12"
   class="fil1"
   points="22500,12533 22500,12250 22500,11967 11250,11967 0,11967 0,12250 0,12533 11250,12533 "
   inkscape:connector-curvature="0"
   transform="scale(0.03527778)" />
  <polygon
   id="rect3766"
   class="fil2"
   points="0,9767 0,11967 22500,11967 22500,9767 "
   transform="scale(0.03527778)" />
 </g>
</svg>
