<svg width="30" height="20" xmlns="http://www.w3.org/2000/svg"><symbol id="ind" width="30" height="20"><rect width="30" height="20" fill="#fff"/><rect width="30" height="10" fill="red"/></symbol><use href="#ind"/><path d="M19 0h11v20H19z" fill="#fff"/><path transform="matrix(0 -.2.2 0 0 0)" d="m-84.51 105.5h-8.16v34.1h6.03v-10.1l-.28-15.3 4.01 14.1h3.25l4.47-14.8-.28 16v10.1h6.04v-34.1h-8.17l-3.68 12.8zm39.95 26.9 1.99 7.2h6.93l-10.95-34.1h-5.97l-11.17 34.1h6.93l2.01-7.2zm-8.61-5.5 3.58-12.6 3.49 12.6zm22.98 12.7h9.15q2.27 0 4.26-.6 2.01-.6 3.67-1.6 1.43-.9 2.62-2.2 1.197-1.3 2.087-2.9.936-1.8 1.451-3.9t.515-4.4v-2.9q0-2.4-.562-4.6-.538-2.2-1.545-4-.866-1.4-2.036-2.7-1.15-1.2-2.62-2.1-1.69-1.1-3.75-1.6-2.06-.6-4.42-.6h-8.82zm6.62-28.8h2.2q1.19 0 2.2.3 1.03.3 1.87.8 1.1.6 1.92 1.6.84 1.1 1.36 2.4.42 1.1.63 2.4.24 1.3.24 2.8v2.9q0 1.5-.24 2.9-.21 1.3-.63 2.4-.52 1.3-1.24 2.2-.7 1-1.59 1.6-.87.6-1.92.9t-2.27.3h-2.53z"/></svg>
