<svg width="30" height="20" xmlns="http://www.w3.org/2000/svg"><symbol id="ind" width="30" height="20"><rect width="30" height="20" fill="#fff"/><rect width="30" height="10" fill="red"/></symbol><use href="#ind"/><path d="M19 0h11v20H19z" fill="#fff"/><symbol id="M"><path d="m5.83 1h-1.68v7h1.24v-2.07l-.0577-3.14.822 2.91h.668l.918-3.04-.0577 3.27v2.07h1.24v-7h-1.68l-.755 2.63z"/></symbol><symbol id="A"><path d="m7.62 6.54.409 1.46h1.42l-2.25-7h-1.23l-2.29 7h1.42l.413-1.46zm-1.77-1.15.736-2.58.716 2.58z"/></symbol><symbol id="D"><path d="m4.15 8h1.88q.47 0 .875-.115.41-.12.755-.332.29-.18.538-.452.25-.27.428-.596.19-.36.298-.793.11-.43.106-.918v-.577q0-.5-.115-.952-.11-.45-.317-.817-.18-.3-.418-.558-.24-.26-.538-.438-.35-.22-.769-.332-.42-.12-.909-.12h-1.81zm1.36-5.9h.452q.25 0 .452.058.21.053.385.154.23.13.394.346.17.21.279.481.087.23.13.5.048.27.048.572v.587q0 .32-.048.601-.043.27-.13.5-.11.26-.255.456-.14.19-.327.317-.18.12-.394.183-.22.062-.466.0625h-.519z"/></symbol><g transform="rotate(-90 15 -5)"><use x="-13" href="#M"/><use x="-6.5" href="#A"/><use href="#D"/></g></svg>
