<svg width="30" height="20" xmlns="http://www.w3.org/2000/svg"><symbol id="hin" width="30" height="20" fill="#07038D" viewBox="-45 -30 90 60"><path d="m-45-30h90v60h-90z" fill="#FFF"/><path d="m-45-30h90v20h-90z" fill="#FF6820"/><path d="m-45 10h90v20h-90z" fill="#046A38"/><circle r="9.25"/><circle r="8" fill="#FFF"/><circle r="1.6"/><g id="d"><g id="c"><g id="b"><g id="a"><path d="m0-8 .3 4.81409L0-.80235l-.3-2.38356z"/><circle transform="rotate(7.5)" cy="-8" r=".35"/></g><use transform="scale(-1)" href="#a"/></g><use transform="rotate(15)" href="#b"/></g><use transform="rotate(30)" href="#c"/></g><use transform="rotate(60)" href="#d"/><use transform="rotate(120)" href="#d"/></symbol><use x="-5.5" href="#hin"/><path d="M19 0h11v20H19z" fill="#fff"/><symbol id="M"><path d="m5.83 1h-1.68v7h1.24v-2.07l-.0577-3.14.822 2.91h.668l.918-3.04-.0577 3.27v2.07h1.24v-7h-1.68l-.755 2.63z"/></symbol><symbol id="A"><path d="m7.62 6.54.409 1.46h1.42l-2.25-7h-1.23l-2.29 7h1.42l.413-1.46zm-1.77-1.15.736-2.58.716 2.58z"/></symbol><symbol id="I"><path d="m4.47 1v1.09h1.33v4.82h-1.33v1.09h4.05v-1.09h-1.37v-4.82h1.37v-1.09z"/></symbol><g transform="rotate(-90 15 -5)"><use x="-13" href="#M"/><use x="-6.5" href="#A"/><use href="#I"/></g></svg>
