<svg xmlns="http://www.w3.org/2000/svg" fill-rule="evenodd" viewBox="-24131.1 -1699.7 48279.2 32186.1" width="30" height="20"><defs><path id="l" d="M-9200 14402a9200 9200 0 0 0 18400 0"/><path id="k" d="M-9200 14402a9200 9200 0 0 1 18400 0"/><radialGradient id="a" cx="0" cy="14401.8" r="12975.2" fy="14401.8" gradientUnits="userSpaceOnUse"><stop offset="0" stop-color="#f90"/><stop offset="58%" stop-color="#f9e641"/><stop offset="83.9%" stop-color="#fcd323"/><stop offset="7.1%" stop-color="#fcc021"/><stop offset="1" stop-color="#f9e641"/></radialGradient></defs><g fill="#F9E641" stroke="#ee8033" stroke-linejoin="round" stroke-miterlimit="22.9"><circle cy="14401.8" r="13029.9" fill="url(#a)"/><circle cy="14401.8" r="11282.7" fill="none" stroke-miterlimit="2.3" stroke-width="254"/><g stroke-width="169.3"><ellipse cy="20288.6" rx="4428.1" ry="1355.6"/><path fill="#ee8033" d="M0 19706c4380 0 4380-1584 0-1584s-4380 1584 0 1584z"/><path stroke="none" d="M2688 19845h-5376L0 17544z"/><path d="M0 20207c2633 0 4767-653 4767-1459S2633 17288 0 17288s-4767 654-4767 1460 2134 1459 4767 1459zm0-501c1850 0 3349-354 3349-792 0-437-1499-792-3349-792s-3349 355-3349 792c0 438 1499 792 3349 792z"/><path d="M0 18835c-1069 0-1529-338-1529-914 0-577 277-1730 1529-1730s1529 1153 1529 1730c0 576-460 914-1529 914z"/><ellipse cy="17564.8" rx="431.8" ry="622.3"/><path id="b" fill="#ee8033" d="M0 16682c-584 0-796-67-916-200L0 13922l4772-97c-700 595-733 1046-1309 1190-1736 434-2002 859-2547 1467-120 133-332 200-916 200Z"/><use href="#b" transform="scale(-1 1)"/><ellipse cy="13824.8" rx="4430.9" ry="1045.7"/><path id="c" d="m0 15268 728-593c286-13 560-35 818-63l-1 1 1029 267 121-465c450-114 770-257 907-416v5l1170-174-1170-174v4c-341-395-1824-693-3602-693"/><g id="e"><circle cx="9279.1" cy="14401.8" r="359.8" fill="#EE8033" stroke-width="0"/><circle r="1244.6" transform="matrix(-.19888 .07239 .16723 .45947 1254 17342)"/><path d="M2311 14388c216-351 283-662 199-1088-83-425-457-719-673-1333-626 1004-46 1552 474 2421zm940-1337c-245-229-449-424-459-814s231-609 180-1058c686 500 533 1397 279 1872zm1363 728c204-305 345-562 288-1050-56-488-576-1329-550-1914-821 949-178 2337 262 2964z"/></g><use href="#c" transform="scale(-1 1)"/><path d="M0 14113c-804 0-1171-140-1279-643-109-504 778-1136 820-1424 42-287-234-167-159-630 75-462 618-744 618-2075 0 1331 543 1613 618 2075 75 463-201 343-159 630 42 288 929 920 820 1424-108 503-475 643-1279 643z"/><path id="d" d="M0 6701c298 0 357 156 364 330s-403 793-135 1168c84 119 203-203 533-203 237 0 302 262 220 432-118 246-491 25-584 366 72 34 139 77 199 127 580-392 892-10 787 235-106 245-309-9-550 65v-1A931 931 0 0 1 0 10567"/><use href="#d" transform="scale(-1 1)"/><circle cy="9636.2" r="594.9"/><path d="M0 14750c-246-150-458-396-475-1056s340-1151 475-1819c135 668 492 1159 475 1819s-229 906-475 1056z"/><use href="#e" transform="scale(-1 1)"/></g><g id="j"><g id="i"><g id="h"><g id="g" stroke-width="254"><g id="f"><path d="M0 3119c986-8 1596 119 1926-245s127-838 491-1270C698 1503 159 2434 0 3119z"/><path d="M0 3119c751-8 1113 77 1460-312 348-390 177-1268 549-1649C697 1201 131 2045 0 3119z"/><path d="M0 3119c444-75 919-194 1156-648 238-454 53-1231 67-1781C470 978-80 1435 0 3119z"/></g><use href="#f" transform="scale(-1 1)"/><path d="M0 3119c-482-367-737-638-749-1303C-762 1151-279 770 0 152c279 618 762 999 749 1664-12 665-267 936-749 1303z"/></g><use href="#g" transform="rotate(22.5 8 14393)"/></g><use href="#h" transform="rotate(45 8 14393)"/></g><use href="#i" transform="rotate(90 8 14393)"/></g><use href="#j" transform="rotate(180 8 14393)"/><g fill="#EE8033" dominant-baseline="central" font-size="2000"><text textLength="26500"><textPath href="#k" startOffset="1200">प्रतिपच्चंद्रलेखेव वर्धिष्णुर्विश्व वंदिता</textPath></text><text textLength="26500"><textPath href="#l" startOffset="1200">महाराष्ट्रस्य राज्यस्य मुद्रा भद्राय राज ते</textPath></text></g></g></svg>