<?xml version="1.0"?>
<svg width="30" height="20" xmlns="http://www.w3.org/2000/svg"><rect width="30" height="20" fill="#fff"/><rect width="30" height="10" fill="red"/><rect x="19" width="11" height="20" fill="#fff"/><path transform="matrix(0 -.1 .1 0 0 0)" d="m-169 211h-16.3v68.1h12v-20.2l-0.5-30.6 8 28.4h6.5l8.9-29.6-0.5 31.8v20.2h12v-68.1h-16.3l-7.4 25.6zm46.1 68.1h18.3q4.5 0 8.51-1.1 4.02-1.1 7.35-3.2 2.85-1.8 5.24-4.4 2.39-2.7 4.17-5.8 1.87-3.5 2.9-7.8 1.03-4.2 1.03-8.9v-5.6q0-4.9-1.13-9.3-1.07-4.3-3.08-7.9-1.74-3-4.08-5.5-2.29-2.5-5.24-4.2-3.37-2.1-7.49-3.3-4.08-1.1-8.88-1.1h-17.6zm13.2-57.5h4.4q2.4 0 4.4 0.6 2.09 0.5 3.78 1.5 2.2 1.3 3.84 3.4 1.68 2 2.71 4.7 0.84 2.2 1.27 4.8 0.46 2.6 0.46 5.6v5.7q0 3.1-0.46 5.9-0.43 2.6-1.27 4.8-1.03 2.5-2.48 4.5-1.4 1.8-3.18 3.1-1.73 1.1-3.87 1.7-2.1 0.6-4.5 0.6h-5.1zm72.72 32.1 12.82 25.4h14.09v-0.6l-14.65-28.1q2.81-1.3 5.06-3 2.29-1.7 3.93-4.1 1.59-2.3 2.43-5.2 0.89-2.9 0.89-6.6 0-5-1.78-8.9-1.73-3.8-4.96-6.4-3.27-2.6-7.86-3.9t-10.25-1.3h-22.84v68.1h13.15v-25.4zm-9.97-10.7v-21.4h9.69q2.71 0 4.82 0.7t3.56 1.9q1.64 1.3 2.43 3.4 0.84 2.1 0.84 4.8 0 2.3-0.65 4.1-0.61 1.8-1.83 3.1-1.45 1.7-3.79 2.5-2.29 0.9-5.34 0.9z"/></svg>
