<?xml version="1.0"?>
<svg width="30" height="20" xmlns="http://www.w3.org/2000/svg"><symbol id="ind" width="30" height="20"><rect width="30" height="20" fill="#fff"/><rect width="30" height="10" fill="red"/></symbol><use href="#ind"/><path d="M19 0h11v20H19z" fill="#fff"/><path transform="matrix(0 -.2.2 0 0 0)" d="m-84.51 105.5h-8.16v34.1h6.03v-10.1l-.28-15.3 4.01 14.1h3.25l4.47-14.8-.28 16v10.1h6.04v-34.1h-8.17l-3.68 12.8zm23.05 34.1h9.15q2.27 0 4.26-.6 2.02-.6 3.68-1.6 1.43-.9 2.62-2.2t2.08-2.9q.94-1.8 1.45-3.9.52-2.1.52-4.4v-2.9q0-2.4-.56-4.6-.54-2.2-1.55-4-.86-1.4-2.03-2.7-1.15-1.2-2.62-2.1-1.69-1.1-3.75-1.6-2.06-.6-4.42-.6h-8.83zm6.63-28.8h2.2q1.19 0 2.2.3 1.03.3 1.87.8 1.1.6 1.92 1.6.84 1.1 1.36 2.4.42 1.1.63 2.4.23 1.3.23 2.8v2.9q0 1.5-.23 2.9-.21 1.3-.63 2.4-.52 1.3-1.24 2.2-.71 1-1.6 1.6-.86.6-1.92.9-1.05.3-2.27.3h-2.52zm36.34 16 6.41 12.8h7.047v-.3l-7.327-14.1q1.41-.6 2.529-1.5 1.147-.9 1.966-2 .796-1.2 1.217-2.6.445-1.5.445-3.3 0-2.6-.89-4.5-.866-1.9-2.48-3.2-1.637-1.3-3.937-1.9-2.29-.7-5.12-.7h-11.42v34.1h6.57v-12.8zm-4.99-5.3v-10.7h4.85q1.36 0 2.41.3 1.05.4 1.78 1 .82.7 1.22 1.7.42 1 .42 2.4 0 1.1-.33 2-.31 1-.91 1.6-.73.8-1.9 1.3-1.15.4-2.67.4z"/></svg>
