<?xml version="1.0"?>
<svg width="30" height="20" xmlns="http://www.w3.org/2000/svg"><rect width="30" height="20" fill="#fff"/><rect width="30" height="10" fill="red"/><rect x="19" width="11" height="20" fill="#fff"/><path transform="rotate(-90)" d="m-18.88 21.45h1.09l1.61 4.59 1.6-4.59h1.09l-2.26 6.25h-0.87zm-0.59 0h1.09l0.19 4.48v1.77h-1.28zm5.49 0h1.09v6.25h-1.29v-1.77zm4.633 6.25h-1.363v-1h1.353q0.507 0 0.855-0.23t0.524-0.67q0.181-0.45 0.181-1.07v-0.31q0-0.48-0.103-0.84-0.1-0.37-0.297-0.62t-0.485-0.37q-0.288-0.13-0.662-0.13h-1.396v-1.01h1.396q0.627 0 1.147 0.21 0.525 0.21 0.907 0.61 0.382 0.39 0.589 0.94 0.21 0.55 0.21 1.22v0.3q0 0.66-0.21 1.21-0.207 0.55-0.589 0.95-0.378 0.39-0.907 0.6-0.524 0.21-1.16 0.21zm-0.632-6.25v6.25h-1.291v-6.25zm4.931 0h2.333q0.717 0 1.233 0.21 0.5199 0.22 0.7992 0.64t0.2793 1.03q0 0.51-0.1719 0.87-0.1676 0.35-0.4766 0.6-0.305 0.23-0.718 0.37l-0.408 0.22h-2.028v-1.01h1.508q0.34 0 0.563-0.12 0.224-0.12 0.335-0.33 0.116-0.22 0.116-0.5 0-0.3-0.111-0.52-0.112-0.22-0.34-0.34-0.227-0.11-0.571-0.11h-1.044v5.24h-1.289zm3.497 6.25-1.426-2.78h1.362l1.4435 2.73v0.1z"/></svg>
