<svg width="30" height="20" xmlns="http://www.w3.org/2000/svg"><symbol id="ind" width="30" height="20"><rect width="30" height="20" fill="#fff"/><rect width="30" height="10" fill="red"/></symbol><use href="#ind"/><path d="M19 0h11v20H19z" fill="#fff"/><symbol id="M"><path d="m5.83 1h-1.68v7h1.24v-2.07l-.0577-3.14.822 2.91h.668l.918-3.04-.0577 3.27v2.07h1.24v-7h-1.68l-.755 2.63z"/></symbol><symbol id="D"><path d="m4.15 8h1.88q.47 0 .875-.115.41-.12.755-.332.29-.18.538-.452.25-.27.428-.596.19-.36.298-.793.11-.43.106-.918v-.577q0-.5-.115-.952-.11-.45-.317-.817-.18-.3-.418-.558-.24-.26-.538-.438-.35-.22-.769-.332-.42-.12-.909-.12h-1.81zm1.36-5.9h.452q.25 0 .452.058.21.053.385.154.23.13.394.346.17.21.279.481.087.23.13.5.048.27.048.572v.587q0 .32-.048.601-.043.27-.13.5-.11.26-.255.456-.14.19-.327.317-.18.12-.394.183-.22.062-.466.0625h-.519z"/></symbol><symbol id="R"><path d="m6.55 5.38 1.32 2.62h1.45v-.0625l-1.5-2.89q.29-.13.519-.308.24-.18.404-.418.16-.24.25-.534.091-.3.0913-.678 0-.52-.183-.914-.18-.39-.51-.659-.34-.26-.808-.399-.47-.14-1.05-.139h-2.35v7h1.35v-2.62zm-1.02-1.1v-2.19h.995q.28 0 .495.067.22.067.365.192.17.14.25.356.087.21.087.49 0 .23-.067.418-.062.19-.188.322-.15.17-.389.26-.24.087-.548.087z"/></symbol><g transform="rotate(-90 15 -5)"><use x="-13" href="#M"/><use x="-6.5" href="#D"/><use href="#R"/></g></svg>
