<?xml version="1.0" encoding="UTF-8" standalone="no"?>
<!-- Created with Inkscape (http://www.inkscape.org/) -->

<svg
   width="7.9375mm"
   height="5.2916698mm"
   viewBox="0 0 7.9375 5.29167"
   version="1.1"
   id="svg1"
   inkscape:version="1.4 (86a8ad7, 2024-10-11)"
   sodipodi:docname="mon.svg"
   xmlns:inkscape="http://www.inkscape.org/namespaces/inkscape"
   xmlns:sodipodi="http://sodipodi.sourceforge.net/DTD/sodipodi-0.dtd"
   xmlns:xlink="http://www.w3.org/1999/xlink"
   xmlns="http://www.w3.org/2000/svg"
   xmlns:svg="http://www.w3.org/2000/svg">
  <sodipodi:namedview
     id="namedview1"
     pagecolor="#ffffff"
     bordercolor="#000000"
     borderopacity="0.25"
     inkscape:showpageshadow="2"
     inkscape:pageopacity="0.0"
     inkscape:pagecheckerboard="0"
     inkscape:deskcolor="#d1d1d1"
     inkscape:document-units="mm"
     inkscape:zoom="0.71891835"
     inkscape:cx="269.15435"
     inkscape:cy="296.27843"
     inkscape:window-width="1904"
     inkscape:window-height="992"
     inkscape:window-x="-26"
     inkscape:window-y="145"
     inkscape:window-maximized="0"
     inkscape:current-layer="layer1" />
  <defs
     id="defs1">
    <radialGradient
       id="n"
       cx="489.07001"
       cy="210.33"
       r="0.345"
       gradientTransform="matrix(0.00861722,0,0,0.0090267,-825.15993,-674.59387)"
       gradientUnits="userSpaceOnUse">
      <stop
         style="stop-color:#fff"
         offset="0"
         id="stop19" />
      <stop
         style="stop-color:#fff;stop-opacity:0"
         offset="1"
         id="stop21" />
    </radialGradient>
    <radialGradient
       id="m"
       cx="477.85999"
       cy="215.27"
       r="0.345"
       gradientUnits="userSpaceOnUse"
       gradientTransform="matrix(0.00881945,0,0,0.00881945,-825.15993,-674.59387)">
      <stop
         style="stop-color:#a50a0a"
         offset=".259"
         id="stop14" />
      <stop
         style="stop-color:#4c0505"
         offset="1"
         id="stop16" />
    </radialGradient>
    <linearGradient
       id="l"
       x1="473.31"
       x2="475.92999"
       y1="237.25"
       y2="270.45001"
       gradientUnits="userSpaceOnUse"
       gradientTransform="matrix(0.00881945,0,0,0.00881945,-825.15993,-674.59387)">
      <stop
         style="stop-color:#f9f0aa"
         offset=".216"
         id="stop39" />
      <stop
         style="stop-color:#b07e09"
         offset="1"
         id="stop41" />
    </linearGradient>
    <linearGradient
       id="k"
       x1="451.54001"
       x2="455.37"
       y1="249.52"
       y2="240.58"
       gradientUnits="userSpaceOnUse"
       gradientTransform="matrix(0.00881945,0,0,0.00881945,-825.15993,-674.59387)">
      <stop
         style="stop-color:#f9f0aa"
         offset=".216"
         id="stop34" />
      <stop
         style="stop-color:#b07e09"
         offset="1"
         id="stop36" />
    </linearGradient>
    <radialGradient
       id="j"
       cx="445.98001"
       cy="252.36"
       r="13.018"
       gradientUnits="userSpaceOnUse"
       xlink:href="#a"
       gradientTransform="matrix(0.00881945,0,0,0.00881945,-825.15993,-674.59387)" />
    <radialGradient
       id="a">
      <stop
         style="stop-color:#f9f0aa"
         offset=".216"
         id="stop4" />
      <stop
         style="stop-color:#b07e09"
         offset="1"
         id="stop6" />
    </radialGradient>
    <linearGradient
       id="i"
       x1="483.13"
       x2="485.5"
       y1="296.66"
       y2="326.57999"
       gradientUnits="userSpaceOnUse"
       gradientTransform="matrix(0.00881945,0,0,0.00881945,-825.15993,-674.59387)">
      <stop
         style="stop-color:#b07e09;stop-opacity:0"
         offset=".216"
         id="stop29" />
      <stop
         style="stop-color:#b07e09"
         offset="1"
         id="stop31" />
    </linearGradient>
    <linearGradient
       id="h"
       x1="473.91"
       x2="472.35999"
       y1="259.17001"
       y2="231.96001"
       gradientUnits="userSpaceOnUse"
       gradientTransform="matrix(0.00881945,0,0,0.00881945,-825.15993,-674.59387)">
      <stop
         style="stop-color:#b07e09;stop-opacity:0"
         offset=".216"
         id="stop24" />
      <stop
         style="stop-color:#b07e09"
         offset="1"
         id="stop26" />
    </linearGradient>
    <radialGradient
       id="g"
       cx="458.39001"
       cy="307.06"
       r="17.354"
       gradientUnits="userSpaceOnUse"
       xlink:href="#a"
       gradientTransform="matrix(0.00881945,0,0,0.00881945,-825.15993,-674.59387)" />
    <radialGradient
       id="radialGradient2">
      <stop
         style="stop-color:#f9f0aa"
         offset=".216"
         id="stop1" />
      <stop
         style="stop-color:#b07e09"
         offset="1"
         id="stop2" />
    </radialGradient>
    <radialGradient
       id="f"
       cx="454.10999"
       cy="308.64001"
       r="9.7799997"
       gradientUnits="userSpaceOnUse"
       xlink:href="#a"
       gradientTransform="matrix(0.00881945,0,0,0.00881945,-825.15993,-674.59387)" />
    <radialGradient
       id="radialGradient5">
      <stop
         style="stop-color:#f9f0aa"
         offset=".216"
         id="stop3" />
      <stop
         style="stop-color:#b07e09"
         offset="1"
         id="stop5" />
    </radialGradient>
    <radialGradient
       id="e"
       cx="451.56"
       cy="313"
       r="10.911"
       gradientUnits="userSpaceOnUse"
       xlink:href="#a"
       gradientTransform="matrix(0.00881945,0,0,0.00881945,-825.15993,-674.59387)" />
    <radialGradient
       id="radialGradient8">
      <stop
         style="stop-color:#f9f0aa"
         offset=".216"
         id="stop7" />
      <stop
         style="stop-color:#b07e09"
         offset="1"
         id="stop8" />
    </radialGradient>
    <radialGradient
       id="d"
       cx="447.42001"
       cy="308.26999"
       r="16.534"
       gradientUnits="userSpaceOnUse"
       xlink:href="#a"
       gradientTransform="matrix(0.00881945,0,0,0.00881945,-825.15993,-674.59387)" />
    <radialGradient
       id="radialGradient10">
      <stop
         style="stop-color:#f9f0aa"
         offset=".216"
         id="stop9" />
      <stop
         style="stop-color:#b07e09"
         offset="1"
         id="stop10" />
    </radialGradient>
    <radialGradient
       id="e-9"
       cx="380.84"
       cy="740.37"
       r="25.858999"
       gradientTransform="matrix(7.0234215e-4,8.3694522e-4,-0.00162376,0.00140249,-873.47471,-923.33034)"
       gradientUnits="userSpaceOnUse"
       xlink:href="#a-6" />
    <linearGradient
       id="a-6">
      <stop
         stop-color="#fff"
         offset="0"
         id="stop2-5" />
      <stop
         stop-color="#f15770"
         offset="1"
         id="stop4-1" />
    </linearGradient>
    <radialGradient
       id="f-0"
       cx="651.52002"
       cy="550.46002"
       r="25.858999"
       gradientTransform="matrix(-1.9245334e-4,-0.00208924,0.00193863,-1.8385685e-4,-876.73368,-920.80848)"
       gradientUnits="userSpaceOnUse"
       xlink:href="#a-6" />
    <radialGradient
       id="g-6"
       cx="842.31"
       cy="103.66"
       r="25.858999"
       gradientTransform="matrix(0.00194862,8.2390338e-4,-8.0461878e-4,0.00195837,-876.97359,-922.9887)"
       gradientUnits="userSpaceOnUse"
       xlink:href="#a-6" />
  </defs>
  <g
     inkscape:label="Layer 1"
     inkscape:groupmode="layer"
     id="layer1"
     transform="translate(853.604,949.82008)">
    <path
       d="m -853.604,-949.82008 h 7.9375 v 5.29167 h -7.9375 z"
       fill="#da2032"
       id="path272"
       style="stroke-width:0.00661458" />
    <path
       d="m -850.95817,-949.82008 h 2.64584 v 5.29167 h -2.64584 z"
       fill="#0066b3"
       id="path275"
       style="stroke-width:0.00661458" />
    <path
       d="m -853.25124,-947.43887 h 0.44097 v 2.11671 h -0.44097 z"
       stroke-width="0.00246505"
       id="path242"
       style="fill:#ffd900" />
    <path
       d="m -851.75195,-947.43887 h 0.44097 v 2.11671 h -0.44097 z"
       stroke-width="0.00246505"
       id="path245"
       style="fill:#ffd900" />
    <path
       d="m -852.72208,-945.58675 0.44097,0.26459 0.44097,-0.26459 z"
       stroke-width="0.00123257"
       id="path248"
       style="fill:#ffd900" />
    <path
       d="m -852.72208,-945.85134 h 0.88194 v 0.17639 h -0.88194 z"
       stroke-width="0.00100639"
       id="path251"
       style="fill:#ffd900" />
    <path
       d="m -852.72208,-947.43887 0.44097,0.26459 0.44097,-0.26459 z"
       stroke-width="0.00123257"
       id="path254"
       style="fill:#ffd900" />
    <path
       d="m -852.72208,-947.08609 h 0.88194 v 0.17639 h -0.88194 z"
       stroke-width="0.00100639"
       id="path257"
       style="fill:#ffd900" />
    <path
       d="m -852.07165,-946.76814 c 0.0328,0.0446 0.0505,0.0985 0.0506,0.15383 7e-5,0.14371 -0.11641,0.26025 -0.2601,0.26027 a 0.20725487,0.20726109 0 0 0 -0.20723,0.20723 0.20725487,0.20726109 0 0 0 0.20723,0.20723 c 0.24352,0 0.44096,-0.19744 0.44096,-0.44098 0,-0.16189 -0.0891,-0.3107 -0.2315,-0.38758 z m -0.20946,0.53315 a 0.08819356,0.08819621 0 0 1 0.0882,0.0882 0.08819356,0.08819621 0 0 1 -0.0882,0.0882 0.08819356,0.08819621 0 0 1 -0.0882,-0.0882 0.08819356,0.08819621 0 0 1 0.0882,-0.0882 z"
       style="fill:#ffd900;stroke-width:0.00220488;paint-order:normal"
       id="path260" />
    <path
       d="m -852.49057,-945.9929 c -0.0328,-0.0446 -0.0505,-0.0985 -0.0506,-0.15383 -7e-5,-0.1437 0.11641,-0.26024 0.2601,-0.26026 a 0.20725487,0.20726109 0 0 0 0.20723,-0.20724 0.20725487,0.20726109 0 0 0 -0.20723,-0.20722 c -0.24352,0 -0.44096,0.19743 -0.44096,0.44098 0,0.16189 0.0891,0.31069 0.2315,0.38757 z m 0.20946,-0.53314 a 0.08819356,0.08819621 0 0 1 -0.0882,-0.0882 0.08819356,0.08819621 0 0 1 0.0882,-0.0882 0.08819356,0.08819621 0 0 1 0.0882,0.0882 0.08819356,0.08819621 0 0 1 -0.0882,0.0882 z"
       style="fill:#ffd900;stroke-width:0.00220488;paint-order:normal"
       id="path263" />
    <path
       d="m -852.76529,-948.02181 a 0.48506458,0.48507915 0 0 0 -8.8e-4,0.01 0.48506458,0.48507915 0 0 0 0.48506,0.48508 0.48506458,0.48507915 0 0 0 0.48506,-0.48508 0.48506458,0.48507915 0 0 0 0,-0.009 0.52916138,0.52917725 0 0 1 -0.48471,0.31746 0.52916138,0.52917725 0 0 1 -0.48453,-0.31834 z"
       style="fill:#ffd900;stroke-width:0.00220488;paint-order:normal"
       id="path266" />
    <path
       id="path278"
       style="fill:#ffd900;stroke-width:0.00220488"
       d="m -851.92796,-948.14444 a 0.35277426,0.35278483 0 0 1 -0.35278,0.35278 0.35277426,0.35278483 0 0 1 -0.35277,-0.35278 0.35277426,0.35278483 0 0 1 0.35277,-0.35279 0.35277426,0.35278483 0 0 1 0.35278,0.35279 z" />
    <path
       d="m -852.24405,-949.29088 c -0.0438,0.0199 -0.0602,0.0557 -0.0637,0.0915 -0.002,0.0301 0.0111,0.0639 0.0124,0.0934 0,0.0506 -0.0524,0.0673 -0.0524,0.13953 0,0.0248 0.0229,0.0522 0.0229,0.11662 -0.004,0.0338 -0.0228,0.0415 -0.0441,0.0441 a 0.04409678,0.0440981 0 0 1 -0.0441,-0.0441 0.04409678,0.0440981 0 0 1 0.0122,-0.0303 0.04409678,0.0440981 0 0 1 0.005,-0.004 c 0.01,-0.0101 0.0238,-0.0141 0.0238,-0.0408 0,-0.0138 -0.009,-0.0263 -0.0174,-0.0506 -0.008,-0.0236 -0.002,-0.0631 0.0169,-0.0865 -0.0309,0.0119 -0.0499,0.0415 -0.0596,0.068 -0.0102,0.0326 -10e-4,0.0514 -0.0153,0.0785 -0.009,0.0176 -0.0187,0.0248 -0.0284,0.0395 -0.0114,0.016 -0.0248,0.0533 -0.0248,0.0706 a 0.2204839,0.22049052 0 0 0 0.22049,0.22049 0.2204839,0.22049052 0 0 0 0.22048,-0.22049 c 0,-0.0173 -0.0132,-0.0547 -0.0247,-0.0706 -0.01,-0.0146 -0.02,-0.0219 -0.0286,-0.0395 -0.0139,-0.0271 -0.005,-0.0459 -0.0152,-0.0785 -0.01,-0.0266 -0.0288,-0.0561 -0.0596,-0.068 0.0191,0.0233 0.0249,0.0628 0.0169,0.0865 -0.009,0.0243 -0.0176,0.0369 -0.0176,0.0506 0,0.0268 0.0137,0.0307 0.0238,0.0408 a 0.04409678,0.0440981 0 0 1 0.005,0.004 0.04409678,0.0440981 0 0 1 0.0122,0.0303 0.04409678,0.0440981 0 0 1 -0.0441,0.0441 c -0.0244,-0.003 -0.0419,-0.0145 -0.0441,-0.0441 0,-0.0849 0.0363,-0.0903 0.0363,-0.15314 0,-0.0897 -0.0804,-0.13217 -0.0804,-0.19775 0,-0.0222 0.005,-0.0601 0.0367,-0.0901 z"
       style="fill:#ffd900;stroke-width:0.00220488;paint-order:normal"
       id="path269" />
  </g>
</svg>
