<?xml version="1.0" encoding="UTF-8" standalone="no"?>
<!-- Creator: CorelDRAW Home & Student X8 -->

<svg
   xml:space="preserve"
   width="7.9375005mm"
   height="5.291667mm"
   version="1.1"
   style="clip-rule:evenodd;fill-rule:evenodd;image-rendering:optimizeQuality;shape-rendering:geometricPrecision;text-rendering:geometricPrecision"
   viewBox="0 0 793.75005 529.1667"
   sodipodi:docname="Maori.svg"
   inkscape:version="1.4 (86a8ad7, 2024-10-11)"
   id="svg3"
   xmlns:inkscape="http://www.inkscape.org/namespaces/inkscape"
   xmlns:sodipodi="http://sodipodi.sourceforge.net/DTD/sodipodi-0.dtd"
   xmlns="http://www.w3.org/2000/svg"
   xmlns:svg="http://www.w3.org/2000/svg">
 <defs
   id="defs1">
  <style
   type="text/css"
   id="style1">
   <![CDATA[
    .fil1 {fill:#1F1B20}
    .fil2 {fill:#DF3324}
    .fil0 {fill:#FEFEFE}
   ]]>
  </style>
 </defs>
 <g
   id="Layer_x0020_1"
   inkscape:label="Layer 1"
   inkscape:groupmode="layer">
  <metadata
   id="CorelCorpID_0Corel-Layer" />
  <sodipodi:namedview
   pagecolor="#ffffff"
   bordercolor="#666666"
   borderopacity="1"
   objecttolerance="10"
   gridtolerance="10"
   guidetolerance="10"
   inkscape:pageopacity="0"
   inkscape:pageshadow="2"
   inkscape:window-width="1920"
   inkscape:window-height="1009"
   id="namedview10"
   showgrid="false"
   inkscape:zoom="0.48240741"
   inkscape:cx="540"
   inkscape:cy="347.21689"
   inkscape:window-x="-8"
   inkscape:window-y="-8"
   inkscape:window-maximized="1"
   inkscape:current-layer="Layer_x0020_1"
   fit-margin-top="0"
   fit-margin-left="0"
   fit-margin-right="0"
   fit-margin-bottom="0"
   inkscape:showpageshadow="2"
   inkscape:pagecheckerboard="0"
   inkscape:deskcolor="#d1d1d1"
   inkscape:document-units="mm" />
  <g
   id="_512745120"
   transform="scale(0.03527778)">
   <g
   id="g1">
    <path
   id="path2"
   class="fil0"
   d="M 0,0 H 22500 V 15000 H 0 Z m 0,0 z" />
   </g>
   <g
   id="g2">
    <path
   id="path4"
   class="fil1"
   d="m 0,2917 h 6250 c 1553,0 2812,1259 2812,2812 0,1553 -1259,2812 -2812,2813 H 22500 V 0 H 0 Z m 0,0 z"
   sodipodi:nodetypes="ccscccc" />
   </g>
   <g
   id="g3">
    <path
   id="path6"
   class="fil2"
   d="m 0,5208 h 6250 c 920,1 1666,747 1666,1667 0,920 -746,1666 -1666,1667 633,0 1146,-513 1146,-1146 0,-633 -513,-1146 -1146,-1146 -1266,0 -2292,1026 -2292,2292 0,1265 1026,2291 2292,2291 h 16250 v 4167 H 0 Z m 0,0 z"
   sodipodi:nodetypes="ccscssssccc" />
   </g>
  </g>
 </g>
</svg>
