<svg width="30" height="20" xmlns="http://www.w3.org/2000/svg"><symbol id="Flag_of_Malaysia" width="40" height="20" viewBox="0 0 672 336"><path d="M0 0h672v336H0z" fill="#fff"/><path d="M24 12h648m0 48H24m0 48h648m0 48H24" stroke="#c00" stroke-width="24"/><path d="M0 0h336v204H0z" fill="#006"/><path d="M0 204h672m0 48H0m0 48h672" stroke="#c00" stroke-width="24"/><path d="m210 36 5.35 36.6 20.7-30.65-11.1 35.3L256.9 58.6l-25.3 27 36.9-2.95L234 96l34.5 13.35-36.9-2.95 25.3 27-31.95-18.65 11.1 35.3-20.7-30.65L210 156l-5.35-36.6-20.7 30.65 11.1-35.3-31.95 18.65 25.3-27-36.9 2.95L186 96l-34.5-13.35 36.9 2.95-25.3-27 31.95 18.65-11.1-35.3 20.7 30.65zm-30 1.5a64 64 0 1 0 0 117 72 72 0 1 1 0-117z" fill="#fc0"/></symbol><use href="#Flag_of_Malaysia"/><path d="M19 0h11v20H19z" fill="#fff"/><path transform="matrix(0 -.2.2 0 0 0)" d="m-84.51 105.5h-8.16v34.1h6.03v-10.1l-.28-15.3 4.01 14.1h3.25l4.47-14.8-.28 16v10.1h6.04v-34.1h-8.17l-3.68 12.8zm31.15 34.1h6.7l10.32-34.1h-7.26l-5.8 22.2-.64 2.3-.58-2.3-5.78-22.2h-7.26zm31.27 0h6.69l10.32-34.1h-7.26l-5.8 22.2-.63 2.3-.59-2.3-5.78-22.2h-7.25z"/></svg>
