<svg width="30" height="20" xmlns="http://www.w3.org/2000/svg"><symbol id="cmn" width="30" height="20"><defs><path id="s" d="m0-1 .58778 1.809-1.5388-1.118h1.9021l-1.5388 1.118z" fill="#ff0"/></defs><rect width="30" height="20" fill="#ee1c25"/><use transform="translate(5,5) scale(3)" href="#s"/><use transform="translate(10 2) rotate(23.036)" href="#s"/><use transform="translate(12 4) rotate(45.87)" href="#s"/><use transform="translate(12 7) rotate(69.945)" href="#s"/><use transform="translate(10 9) rotate(20.66)" href="#s"/></symbol><use href="#cmn"/><path d="M19 0h11v20H19z" fill="#fff"/><path transform="matrix(0 -.2.2 0 0 0)" d="m-84.51 105.5h-8.16v34.1h6.03v-10.1l-.28-15.3 4.01 14.1h3.25l4.47-14.8-.28 16v10.1h6.04v-34.1h-8.17l-3.68 12.8zm25.42 34.1h5.94l2.86-18.4.25-1.8.26 1.8 2.97 18.4h5.95l4.73-34.1h-6.04l-2.32 19.1-.16 1.4-.21-1.4-2.86-19.1h-4.7l-2.69 19-.21 1.4-.17-1.4-2.27-19h-6.01zm31.26 0h5.95l2.85-18.4.26-1.8.26 1.8 2.97 18.4h5.943l4.728-34.1h-6.041l-2.31 19.1-.17 1.4-.21-1.4-2.85-19.1h-4.71l-2.69 19-.21 1.4-.16-1.4-2.27-19h-6.02z"/></svg>
