<?xml version="1.0"?>
<svg width="30" height="20" xmlns="http://www.w3.org/2000/svg" xmlns:xlink="http://www.w3.org/1999/xlink"><symbol id="cmn" width="30" height="20"><defs><path id="s" d="m0-1 .58778 1.809-1.5388-1.118h1.9021l-1.5388 1.118z" fill="#ff0"/></defs><rect width="30" height="20" fill="#ee1c25"/><use transform="translate(5,5) scale(3)" xlink:href="#s"/><use transform="translate(10 2) rotate(23.036)" xlink:href="#s"/><use transform="translate(12 4) rotate(45.87)" xlink:href="#s"/><use transform="translate(12 7) rotate(69.945)" xlink:href="#s"/><use transform="translate(10 9) rotate(20.66)" xlink:href="#s"/></symbol><use href="#cmn"/><path d="M19 0h11v20H19z" fill="#fff"/><path transform="matrix(0 -.1.1 0 0 0)" d="m-169 211h-16.3v68.1h12v-20.2l-.5-30.6 8 28.4h6.5l8.9-29.6-.5 31.8v20.2h12v-68.1h-16.3l-7.4 25.6zm50.8 68.1h11.9l5.7-36.8.5-3.4.54 3.4 5.95 36.8h11.89l9.45-68.1h-12.07l-4.64 38.2-.32 2.8-.43-2.8-5.71-38.2h-9.36l-5.4 37.9-.4 2.8-.4-2.6-4.5-38.1h-12zm62.54 0h11.89l5.71-36.8.52-3.4.51 3.4 5.95 36.8h11.89l9.451-68.1h-12.081l-4.63 38.2-.33 2.8-.42-2.8-5.71-38.2h-9.41l-5.38 37.9-.42 2.8-.33-2.6-4.54-38.1h-12.03z"/></svg>
