<?xml version="1.0"?>
<svg width="30" height="20" xmlns="http://www.w3.org/2000/svg" xmlns:xlink="http://www.w3.org/1999/xlink"><symbol id="cmn" width="30" height="20"><defs><path id="s" d="m0-1 .58778 1.809-1.5388-1.118h1.9021l-1.5388 1.118z" fill="#ff0"/></defs><rect width="30" height="20" fill="#ee1c25"/><use transform="translate(5,5) scale(3)" xlink:href="#s"/><use transform="translate(10 2) rotate(23.036)" xlink:href="#s"/><use transform="translate(12 4) rotate(45.87)" xlink:href="#s"/><use transform="translate(12 7) rotate(69.945)" xlink:href="#s"/><use transform="translate(10 9) rotate(20.66)" xlink:href="#s"/></symbol><use href="#cmn"/><path d="M19 0h11v20H19z" fill="#fff"/><path transform="matrix(0 -.1.1 0 0 0)" d="m-140.2 279.1v-68.1h-13.2l-.1 43.7-18.8-43.7h-13.2v68.1h13.2v-43.9l19 43.9zm51.08-14.2 3.98 14.2h13.86l-21.91-68.1h-11.91l-22.4 68.1h13.9l4-14.2zm-17.18-11.2 7.12-25.1 6.97 25.1zm91.13 25.4v-68.1h-13.2l-.1 43.7-18.81-43.7h-13.25v68.1h13.25v-43.9l18.96 43.9z"/></svg>
