<svg width="30" height="20" xmlns="http://www.w3.org/2000/svg"><symbol id="cmn" width="30" height="20"><defs><path id="s" d="m0-1 .58778 1.809-1.5388-1.118h1.9021l-1.5388 1.118z" fill="#ff0"/></defs><rect width="30" height="20" fill="#ee1c25"/><use transform="translate(5,5) scale(3)" href="#s"/><use transform="translate(10 2) rotate(23.036)" href="#s"/><use transform="translate(12 4) rotate(45.87)" href="#s"/><use transform="translate(12 7) rotate(69.945)" href="#s"/><use transform="translate(10 9) rotate(20.66)" href="#s"/></symbol><use href="#cmn"/><path d="M19 0h11v20H19z" fill="#fff"/><symbol id="N"><path d="m8.79 8v-7h-1.36v4.5l-1.94-4.5h-1.36v7h1.36v-4.51l1.95 4.51z"/></symbol><symbol id="A"><path d="m7.62 6.54.409 1.46h1.42l-2.25-7h-1.23l-2.29 7h1.42l.413-1.46zm-1.77-1.15.736-2.58.716 2.58z"/></symbol><g transform="rotate(-90 15 -5)"><use x="-13" href="#N"/><use x="-6.5" href="#A"/><use href="#N"/></g></svg>
