<svg width="30" height="20" xmlns="http://www.w3.org/2000/svg" xmlns:xlink="http://www.w3.org/1999/xlink"><symbol id="cmn" width="30" height="20"><defs><path id="s" d="m0-1 .58778 1.809-1.5388-1.118h1.9021l-1.5388 1.118z" fill="#ff0"/></defs><rect width="30" height="20" fill="#ee1c25"/><use transform="translate(5,5) scale(3)" xlink:href="#s"/><use transform="translate(10 2) rotate(23.036)" xlink:href="#s"/><use transform="translate(12 4) rotate(45.87)" xlink:href="#s"/><use transform="translate(12 7) rotate(69.945)" xlink:href="#s"/><use transform="translate(10 9) rotate(20.66)" xlink:href="#s"/></symbol><use href="#cmn"/><path d="M19 0h11v20H19z" fill="#fff"/><path transform="matrix(0 -.2.2 0 0 0)" d="m-70.11 139.6v-34.1h-6.6v21.9l-9.4-21.9h-6.63v34.1h6.63v-22l9.48 22zm25.55-7.2 1.99 7.2h6.93l-10.95-34.1h-5.97l-11.17 34.1h6.93l2.01-7.2zm-8.61-5.5 3.58-12.6 3.49 12.6zm45.586 12.7v-34.1h-6.596v21.9l-9.41-21.9h-6.62v34.1h6.62v-22l9.48 22z"/></svg>
