<svg width="30" height="20" xmlns="http://www.w3.org/2000/svg"><symbol id="lao" width="30" height="20"><path d="M0 0h30v20H0Z" fill="#ce1126"/><path d="M0 5h30v10H0Z" fill="#002868"/><circle cx="15" cy="10" r="4" fill="#fff"/></symbol><use x="-5.5" href="#lao"/><path d="M19 0h11v20H19z" fill="#fff"/><symbol id="N"><path d="m8.79 8v-7h-1.36v4.5l-1.94-4.5h-1.36v7h1.36v-4.51l1.95 4.51z"/></symbol><symbol id="G"><path d="m8.99 7.18v-2.76h-2.51v1.01h1.16v1.27q-.058.062-.163.12-.1.053-.236.0962-.13.043-.288.0673-.15.024-.312.024-.26-.0048-.466-.0817-.2-.082-.356-.236-.091-.091-.168-.207-.072-.12-.13-.26-.091-.24-.144-.553-.048-.31-.0481-.692v-.962q0-.3.034-.562.038-.26.106-.471.087-.27.216-.476.13-.2.298-.327.12-.091.269-.139.14-.048.298-.048.28 0 .486.077.21.072.341.221.12.13.188.332.072.2.106.452h1.32q-.053-.5-.226-.909-.17-.4-.471-.688-.3-.28-.745-.428-.44-.15-1.03-.149-.38 0-.731.106-.35.11-.639.312-.25.18-.462.433-.21.25-.365.562-.17.35-.26.784-.091.43-.0914.928v.952q0 .52.091.971.096.45.279.803.16.32.385.572.23.25.51.423.28.17.62.255.34.091.726.091.44 0 .827-.082.39-.081.698-.216.31-.13.534-.293.23-.16.356-.322z"/></symbol><symbol id="T"><path d="m9.32 2.1v-1.1h-5.64v1.1h2.13v5.9h1.36v-5.9z"/></symbol><g transform="rotate(-90 15 -5)"><use x="-13" href="#N"/><use x="-6.5" href="#G"/><use href="#T"/></g></svg>
