<?xml version="1.0" encoding="UTF-8" standalone="no"?>
<!-- Creator: CorelDRAW Home & Student X8 -->

<svg
   xml:space="preserve"
   width="7.9375005mm"
   height="5.291667mm"
   version="1.1"
   style="clip-rule:evenodd;fill-rule:evenodd;image-rendering:optimizeQuality;shape-rendering:geometricPrecision;text-rendering:geometricPrecision"
   viewBox="0 0 793.75005 529.1667"
   id="svg13"
   sodipodi:docname="Niue.svg"
   inkscape:version="1.4 (86a8ad7, 2024-10-11)"
   xmlns:inkscape="http://www.inkscape.org/namespaces/inkscape"
   xmlns:sodipodi="http://sodipodi.sourceforge.net/DTD/sodipodi-0.dtd"
   xmlns="http://www.w3.org/2000/svg"
   xmlns:svg="http://www.w3.org/2000/svg"><sodipodi:namedview
   id="namedview13"
   pagecolor="#ffffff"
   bordercolor="#000000"
   borderopacity="0.25"
   inkscape:showpageshadow="2"
   inkscape:pageopacity="0.0"
   inkscape:pagecheckerboard="0"
   inkscape:deskcolor="#d1d1d1"
   inkscape:document-units="mm"
   inkscape:zoom="1.4234583"
   inkscape:cx="425.37248"
   inkscape:cy="283.46457"
   inkscape:window-width="1920"
   inkscape:window-height="1009"
   inkscape:window-x="-8"
   inkscape:window-y="-8"
   inkscape:window-maximized="1"
   inkscape:current-layer="Layer_x0020_1" />
 <defs
   id="defs1">
  <style
   type="text/css"
   id="style1">
   <![CDATA[
    .fil2 {fill:none}
    .fil0 {fill:#2B3369}
    .fil3 {fill:#D2202E}
    .fil1 {fill:#FED411}
    .fil4 {fill:#FEFEFE}
   ]]>
  </style>
 </defs>
 <g
   id="Layer_x0020_1"
   inkscape:label="Layer 1"
   inkscape:groupmode="layer">
  <metadata
   id="CorelCorpID_0Corel-Layer" />
  <rect
   class="fil0"
   width="396.875"
   height="264.58334"
   id="rect1"
   x="0"
   y="0"
   style="stroke-width:0.0352778" />
  <polygon
   class="fil1"
   points="0,15000 0,7500 11250,7500 11250,0 22500,0 22500,15000 "
   id="polygon1"
   transform="scale(0.03527778)" />
  <polygon
   class="fil2"
   points="0,7500 0,0 11250,0 11250,7500 "
   id="polygon2"
   transform="scale(0.03527778)" />
  <polygon
   class="fil3"
   points="0,250 0,500 3000,2500 3375,2500 3750,2500 0,0 "
   id="polygon3"
   transform="scale(0.03527778)" />
  <polygon
   class="fil3"
   points="11250,7500 11250,7250 11250,7000 8250,5000 7875,5000 7500,5000 "
   id="polygon4"
   transform="scale(0.03527778)" />
  <polygon
   class="fil3"
   points="10875,0 10500,0 6750,2500 7125,2500 7500,2500 11250,0 "
   id="polygon5"
   transform="scale(0.03527778)" />
  <polygon
   class="fil3"
   points="4125,5000 3750,5000 0,7500 375,7500 750,7500 4500,5000 "
   id="polygon6"
   transform="scale(0.03527778)" />
  <polygon
   class="fil4"
   points="3750,5000 4375,5000 4375,5083 750,7500 1125,7500 4375,5333 4375,7500 6875,7500 6875,5333 10125,7500 11250,7500 7500,5000 8250,5000 11250,7000 11250,6750 8625,5000 11250,5000 11250,2500 8625,2500 11250,750 11250,0 7500,2500 6875,2500 6875,2417 10500,0 10125,0 6875,2167 6875,0 4375,0 4375,2167 1125,0 0,0 3750,2500 3000,2500 0,500 0,750 2625,2500 0,2500 0,5000 2625,5000 0,6750 0,7500 "
   id="polygon7"
   transform="scale(0.03527778)" />
  <polygon
   class="fil3"
   points="0,3000 4875,3000 4875,0 6375,0 6375,3000 11250,3000 11250,4500 6375,4500 6375,7500 4875,7500 4875,4500 0,4500 "
   id="polygon8"
   transform="scale(0.03527778)" />
  <circle
   class="fil0"
   cx="198.4375"
   cy="132.25639"
   r="45.014446"
   id="circle8"
   style="stroke-width:0.0352778" />
  <polygon
   class="fil1"
   points="5896,1410 6066,1928 5625,1607 5184,1928 5354,1410 4912,1090 5457,1091 5625,572 5793,1091 6338,1090 "
   id="polygon9"
   transform="scale(0.03527778)" />
  <polygon
   class="fil1"
   points="9177,3910 9347,4428 8906,4107 8465,4428 8635,3910 8193,3590 8739,3591 8906,3072 9074,3591 9620,3590 "
   id="polygon10"
   transform="scale(0.03527778)" />
  <polygon
   class="fil1"
   points="2615,3910 2785,4428 2344,4107 1903,4428 2073,3910 1630,3590 2176,3591 2344,3072 2511,3591 3057,3590 "
   id="polygon11"
   transform="scale(0.03527778)" />
  <polygon
   class="fil1"
   points="5896,6410 6066,6928 5625,6607 5184,6928 5354,6410 4912,6090 5457,6091 5625,5572 5793,6091 6338,6090 "
   id="polygon12"
   transform="scale(0.03527778)" />
  <polygon
   class="fil1"
   points="6086,3899 6375,4781 5625,4234 4875,4781 5164,3899 4412,3355 5340,3357 5625,2473 5910,3357 6839,3355 "
   id="polygon13"
   transform="scale(0.03527778)" />
 </g>
</svg>
