<svg width="30" height="20" xmlns="http://www.w3.org/2000/svg"><path d="M0 0h30v20H0z" fill="#fff"/><path transform="scale(.1)" d="m94.5 153.7v-107.39h-20.8l-.08 68.99-29.65-68.99h-20.87v107.39h20.87v-69.26l29.87 69.26zm70.5-107.39v74.39q0 3.8-1.2 7.1-1.1 3.3-3.1 5.6-2.1 2.4-5.1 3.8-2.9 1.3-6.4 1.3-4.5 0-7.6-1.2t-5-3.6q-1.5-2-2.2-4.9-.7-2.8-.7-6.7h-20.8q0 8.4 2.7 14.6 2.6 6.2 7.4 10.2 4.8 4.1 11.4 6.2t14.8 2.1q7.6 0 14.3-2.5t11.6-7.1q5-4.6 7.8-10.9t2.9-14l-.1-74.39zm114.9 61.59v-15.64q0-7.3-1.4-13.79-1.3-6.49-3.9-11.95-2.3-4.79-5.7-8.78-3.2-3.98-7.6-6.78-4.3-2.95-9.8-4.5-5.4-1.62-11.6-1.62-6.1 0-11.3 1.54-5.2 1.55-9.5 4.43-4.2 2.95-7.5 7.08t-5.6 9.22q-2.3 5.39-3.6 11.73-1.2 6.34-1.2 13.42v15.64q0 6.6 1.1 12.6t3.1 11.1q2.3 5.5 5.7 9.9t7.7 7.5q4.3 2.9 9.6 4.6 5.4 1.6 11.6 1.6 5.9 0 11-1.5 5.2-1.4 9.5-4 4.7-2.9 8.4-7.4 3.7-4.4 6.2-9.7 2.3-5.3 3.6-11.5 1.2-6.3 1.2-13.2zm-21-15.79v15.79q0 4-.4 7.7t-1.2 6.8q-1.1 3.9-2.8 7.1-1.7 3.1-4.2 5.2-2 1.7-4.6 2.6-2.6.8-5.7.8-3.2 0-5.8-.9-2.5-1-4.5-2.7-2.1-2-3.8-5.2-1.5-3.3-2.3-7.2-.8-3.1-1.1-6.7t-.3-7.5v-15.79q0-4.13.3-7.89.4-3.76 1.1-6.93 1-4.13 2.7-7.23 1.8-3.1 4.3-5.16 1.8-1.4 4.1-2.14 2.4-.74 5.2-.74 3.1 0 5.5.81 2.5.81 4.5 2.29 2.5 1.99 4.4 5.16 1.8 3.1 2.9 7.08.9 3.17 1.3 6.94.4 3.68.4 7.81z"/></svg>
