<?xml version="1.0"?>
<svg width="30" height="20" xmlns="http://www.w3.org/2000/svg"><path d="M0 0h30v20H0z" fill="#fff"/><path transform="scale(.1)" d="m94.5 153.7v-107.39h-20.8l-.08 68.99-29.65-68.99h-20.87v107.39h20.87v-69.26l29.87 69.26zm90.6 0v-107.39h-20.8v68.99l-29.7-68.99h-20.9v107.39h20.9v-69.26l29.9 69.26zm19.7 0h39.2q8.9 0 15.9-2 7.1-2 12.1-6 4.9-3.9 7.6-9.8 2.6-5.9 2.6-13.7 0-4-1.1-7.8-1-3.8-3.2-7.1-2.2-3-5.3-5.3-3.1-2.29-8.5-3.76v-.1q2.8-1.03 5-2.5 2.3-1.48 4-3.25 3.3-3.25 4.9-7.52 1.7-4.36 1.8-9.22 0-7.53-2.8-13.06t-7.8-9.14q-5.1-3.62-12.4-5.39-7.1-1.77-15.9-1.77h-36.1zm20.8-47.3h19.4q4.3 0 7.5 1.1t5.2 3.2q1.9 2 2.8 4.9 1 2.8 1 6.5 0 3.4-1.3 6.2-1.1 2.8-3.5 4.8-2.1 1.8-5.4 2.8-3.2 1.1-7.2 1.1h-18.5zm0-15.02v-28.18h15.4q5 .1 8.7 1.11 3.7 1.03 6 3.32 1.7 1.62 2.5 4.05.9 2.44.9 5.68 0 3.1-1.1 5.54-.9 2.43-2.8 4.13-2.2 2.13-5.8 3.24-3.6 1.03-8.3 1.11z"/></svg>
