<?xml version="1.0" encoding="UTF-8" standalone="no"?>
<!-- Creator: CorelDRAW Home & Student X8 -->

<svg
   xml:space="preserve"
   width="7.9375005mm"
   height="5.291667mm"
   version="1.1"
   style="clip-rule:evenodd;fill-rule:evenodd;image-rendering:optimizeQuality;shape-rendering:geometricPrecision;text-rendering:geometricPrecision"
   viewBox="0 0 793.75005 529.1667"
   id="svg16"
   sodipodi:docname="Nogay.svg"
   inkscape:version="1.4 (86a8ad7, 2024-10-11)"
   xmlns:inkscape="http://www.inkscape.org/namespaces/inkscape"
   xmlns:sodipodi="http://sodipodi.sourceforge.net/DTD/sodipodi-0.dtd"
   xmlns="http://www.w3.org/2000/svg"
   xmlns:svg="http://www.w3.org/2000/svg"><sodipodi:namedview
   id="namedview16"
   pagecolor="#ffffff"
   bordercolor="#000000"
   borderopacity="0.25"
   inkscape:showpageshadow="2"
   inkscape:pageopacity="0.0"
   inkscape:pagecheckerboard="0"
   inkscape:deskcolor="#d1d1d1"
   inkscape:document-units="mm"
   inkscape:zoom="1.4234583"
   inkscape:cx="425.37248"
   inkscape:cy="283.46457"
   inkscape:window-width="1920"
   inkscape:window-height="1009"
   inkscape:window-x="-8"
   inkscape:window-y="-8"
   inkscape:window-maximized="1"
   inkscape:current-layer="Layer_x0020_1" />
 <defs
   id="defs1">
  <style
   type="text/css"
   id="style1">
   <![CDATA[
    .fil1 {fill:#41A63B}
    .fil0 {fill:#4AC2F0}
    .fil2 {fill:#F5A433}
   ]]>
  </style>
 </defs>
 <g
   id="Layer_x0020_1"
   inkscape:label="Layer 1"
   inkscape:groupmode="layer">
  <metadata
   id="CorelCorpID_0Corel-Layer" />
  <g
   id="_506218000"
   transform="scale(0.03527778)">
   <polygon
   class="fil0"
   points="0,15000 0,0 22500,0 22500,15000 "
   id="polygon1" />
   <path
   class="fil1"
   d="m 10040,2139 c -165,84 -305,296 -219,482 25,87 104,146 139,224 -107,58 -239,62 -347,122 -212,76 -392,295 -343,529 45,227 238,436 472,467 207,6 347,-202 384,-385 17,-134 -85,-296 -227,-301 -97,18 -107,136 -111,213 -66,21 -37,-73 -32,-108 13,-90 90,-176 189,-149 211,50 286,336 174,506 -68,136 -192,286 -362,259 -244,1 -435,-204 -513,-420 -36,-153 -32,-326 74,-450 111,-149 296,-211 458,-282 25,-53 -70,-48 -101,-58 -593,-76 -1193,-18 -1785,37 -606,-1 -1210,-73 -1813,-133 -197,-17 -396,-54 -593,-59 -46,49 20,123 40,172 176,272 522,348 821,390 531,76 1064,-16 1596,-7 146,11 341,1 430,145 28,82 -92,97 -147,110 -460,59 -932,21 -1396,11 -318,-9 -637,-35 -953,-50 -60,29 24,87 44,115 217,230 534,330 836,393 586,114 1185,42 1775,55 49,-2 148,16 96,88 -95,129 -280,119 -424,133 -644,24 -1284,-118 -1929,-97 -51,-9 -73,49 -32,78 206,208 477,348 758,421 620,16 1245,-2 1863,48 57,16 171,4 182,82 -41,95 -175,83 -257,97 -633,32 -1269,-45 -1903,-19 -44,15 -133,-10 -146,48 68,159 237,245 378,331 120,72 258,105 397,83 573,-25 1154,-59 1724,22 59,4 162,49 108,120 -98,88 -249,61 -370,71 -536,-6 -1073,-75 -1610,-39 -72,17 -87,121 -19,156 265,213 612,283 944,283 377,16 759,-15 1132,22 42,6 130,35 116,89 -157,92 -349,72 -525,76 -324,2 -653,-108 -974,-27 -58,19 -166,43 -132,128 38,166 230,223 372,271 407,92 829,57 1244,69 145,10 298,-15 438,21 43,66 -63,108 -114,122 -379,39 -764,36 -1145,48 -74,11 -167,-18 -231,26 15,81 105,132 159,188 204,150 473,178 719,183 299,-2 605,-106 900,-22 54,25 45,116 -22,118 -269,75 -559,44 -838,55 -129,5 -262,-5 -390,13 -11,58 72,89 104,129 75,69 175,125 278,87 292,-56 600,-113 892,-30 24,8 114,46 46,60 -210,37 -443,-17 -636,91 -98,79 0,202 56,275 99,131 265,198 428,173 208,-24 363,-182 537,-280 40,42 -59,82 -80,110 -209,165 -503,298 -758,162 -125,-77 -249,-199 -270,-350 -4,-123 140,-162 220,-213 -40,-42 -127,3 -186,1 -139,30 -307,26 -402,152 -227,205 -543,265 -825,364 -423,139 -870,247 -1239,504 -421,323 -597,870 -626,1383 -21,308 39,613 109,912 13,28 -5,54 -28,25 -152,-180 -249,-404 -312,-628 -155,-669 100,-1378 530,-1896 206,-248 466,-454 767,-574 156,-68 319,-116 487,-145 32,-140 -72,-301 -217,-335 -306,-76 -618,26 -910,116 -171,48 -392,38 -490,-135 -71,-121 -104,-299 -13,-417 123,-123 352,-113 471,11 58,85 38,221 -36,286 -59,-43 40,-104 31,-160 -12,-170 -233,-217 -365,-156 -151,79 -125,295 -44,417 56,90 158,143 264,126 149,8 317,-23 401,-160 169,-217 280,-541 119,-792 -191,-322 -612,-442 -965,-374 -438,72 -761,477 -808,907 -18,144 -23,292 -10,435 158,-47 313,-192 490,-155 112,47 93,195 78,292 -114,510 -393,963 -667,1400 -156,257 -256,554 -236,857 3,152 -24,310 50,451 111,362 316,744 688,890 248,102 523,44 766,-45 63,19 102,98 156,139 181,182 429,265 662,358 54,26 -40,36 -59,42 -129,33 -302,119 -290,276 34,152 192,256 346,236 329,20 652,-60 961,-167 114,-68 228,13 346,28 467,92 942,144 1416,175 68,-17 8,-138 91,-128 207,-12 426,-13 605,-134 96,-34 -32,-104 -65,-147 -291,-241 -653,-453 -1045,-427 -486,59 -974,194 -1465,124 -42,-15 29,-42 41,-49 395,-123 720,-431 890,-804 29,-143 57,-294 34,-438 -95,-276 -241,-563 -501,-716 -239,-138 -522,-23 -750,81 -218,103 -445,301 -424,566 18,261 291,514 558,424 137,-53 246,-200 239,-349 -11,-100 -120,-153 -209,-116 -43,0 -115,75 -139,18 101,-92 318,-114 377,42 61,136 -42,288 -139,380 -169,155 -439,97 -579,-69 -124,-104 -159,-271 -145,-425 1,-192 164,-336 308,-439 217,-129 475,-243 736,-216 307,44 499,321 621,581 42,77 65,165 107,240 652,-349 1294,-724 1948,-1072 148,-84 320,-118 479,-173 15,-49 -72,-54 -95,-88 -94,-65 -186,-169 -149,-292 37,-180 223,-262 368,-344 120,-27 -16,-86 -61,-119 -244,-159 -350,-474 -286,-753 47,-251 244,-470 201,-737 -21,-183 -191,-294 -355,-337 -45,-9 -24,-60 17,-37 189,37 393,193 379,403 2,92 -1,186 -18,275 250,12 539,-45 759,111 153,122 111,349 50,508 -38,104 -147,233 -270,176 -76,-39 -170,-92 -197,-174 36,-48 79,48 111,61 58,67 171,123 241,40 89,-116 128,-270 127,-414 -26,-175 -219,-248 -375,-254 -152,-4 -311,-29 -459,12 -89,87 -121,220 -158,337 -73,239 -7,515 181,683 283,258 746,289 1066,84 188,-128 304,-350 299,-578 25,-556 -77,-1161 -466,-1584 -325,-363 -865,-556 -1339,-402 -287,91 -482,362 -533,651 -25,172 -78,358 8,522 63,167 179,310 330,404 12,62 -56,12 -82,-3 -227,-140 -305,-418 -385,-657 -136,-457 -99,-942 -71,-1411 57,-492 117,-1007 -30,-1490 -64,-219 -217,-395 -392,-534 -181,-200 -198,-490 -147,-743 3,-18 -4,-45 -28,-42 z"
   id="path1" />
   <path
   class="fil2"
   d="m 10039,2082 c -2,0 -4,0 -6,0 -7,1 -13,3 -19,6 -94,48 -178,129 -228,227 -51,97 -68,215 -19,326 24,78 67,129 102,174 -11,4 -22,8 -34,12 -1,-18 -5,-35 -16,-48 -19,-23 -40,-29 -57,-34 -35,-9 -72,-13 -70,-12 -3,-1 -7,-2 -10,-2 -600,-77 -1204,-19 -1794,36 -601,-1 -1202,-73 -1805,-133 -1,0 -1,0 -1,0 -194,-16 -393,-54 -596,-59 -17,0 -32,7 -43,19 -22,22 -32,53 -32,80 0,26 7,49 16,68 16,39 39,72 44,85 1,3 3,6 5,9 192,297 558,373 861,417 0,0 0,0 0,0 542,76 1077,-16 1601,-7 76,5 158,6 228,21 65,14 114,40 148,88 -2,2 -2,3 -10,7 -21,10 -59,17 -90,24 -451,57 -919,21 -1384,10 v 0 c -317,-9 -636,-34 -953,-49 -9,-1 -19,1 -27,5 -27,13 -53,45 -54,77 -1,32 13,51 25,67 22,31 52,57 51,56 2,3 3,5 5,6 231,244 560,346 866,411 0,0 1,0 1,0 597,115 1200,42 1785,55 1,1 2,1 4,0 10,0 23,4 36,7 -37,41 -85,64 -148,77 -68,14 -147,15 -222,23 -634,23 -1274,-119 -1928,-97 l 12,1 c -48,-9 -98,18 -114,59 -16,42 0,94 39,122 l -8,-7 c 214,217 495,361 784,437 4,1 9,2 13,2 623,15 1246,-2 1860,47 l -11,-2 c 42,12 82,12 111,19 8,2 11,4 16,6 -12,11 -28,19 -54,25 -39,8 -88,9 -136,16 -626,32 -1261,-45 -1901,-18 -6,0 -11,1 -17,3 -1,0 -34,1 -71,5 -18,1 -39,4 -61,17 -23,12 -45,38 -51,67 -3,12 -2,24 3,35 78,184 263,274 401,358 0,1 0,1 0,1 130,77 282,114 436,90 h -7 c 574,-25 1152,-58 1714,22 1,0 2,0 4,1 17,1 52,13 65,23 2,1 1,0 1,0 -35,29 -79,42 -135,47 -58,4 -123,1 -188,6 -532,-7 -1071,-76 -1614,-40 -4,0 -7,1 -10,2 -121,28 -144,205 -32,263 l -10,-6 c 279,224 639,296 980,295 380,17 759,-13 1124,22 7,1 17,6 27,9 -125,45 -276,38 -429,41 0,0 0,0 0,0 -310,3 -645,-112 -988,-25 -1,0 -2,0 -4,1 -25,8 -71,19 -113,46 -20,13 -42,32 -55,61 -12,28 -11,63 0,94 25,99 96,167 173,212 78,45 165,72 235,95 2,1 4,2 6,2 418,95 845,59 1255,70 h -3 c 129,9 253,-4 362,9 -16,8 -31,16 -44,20 -374,38 -755,36 -1136,48 -3,0 -5,0 -7,0 -26,4 -65,1 -110,0 -44,-1 -97,2 -144,35 -19,13 -28,35 -25,58 11,58 47,101 81,135 35,33 71,60 93,83 3,3 5,5 8,7 221,162 502,189 751,194 1,0 2,0 2,0 310,-2 605,-99 876,-26 1,2 2,3 2,5 -1,4 6,2 -2,2 -4,0 -9,1 -13,2 -256,71 -540,41 -825,53 -125,4 -260,-7 -396,14 -24,3 -44,21 -49,45 -5,29 2,58 14,79 12,21 27,35 42,47 28,25 55,44 60,50 2,2 4,4 6,6 41,38 90,74 147,95 12,5 25,5 38,8 -24,18 -48,33 -67,58 l 8,-8 c -212,191 -518,252 -806,353 -419,137 -872,245 -1253,511 -1,0 -2,1 -2,1 -440,338 -619,902 -648,1425 0,0 0,0 0,0 -18,258 24,510 76,756 -86,-140 -149,-298 -194,-457 -149,-646 97,-1338 518,-1845 0,0 0,0 0,0 201,-242 453,-441 744,-557 1,0 2,-1 2,-1 151,-66 311,-113 473,-142 23,-4 41,-21 47,-43 41,-176 -82,-363 -260,-404 -232,-57 -461,-18 -679,40 7,-9 17,-14 23,-25 88,-113 161,-254 192,-402 31,-150 18,-311 -72,-451 -207,-348 -651,-472 -1025,-401 -466,78 -805,503 -854,957 -19,147 -23,300 -10,447 3,36 39,60 74,50 89,-27 169,-76 245,-112 74,-34 141,-54 210,-42 30,15 42,37 47,79 6,43 -1,99 -8,147 -111,497 -385,943 -658,1380 0,0 -1,0 -1,0 -161,264 -266,573 -245,891 v -2 c 4,144 -28,314 56,475 l -4,-9 c 114,370 326,770 722,926 260,107 538,50 780,-35 13,6 28,16 46,37 22,24 46,56 81,83 163,162 368,244 566,321 -55,19 -110,43 -160,81 -67,53 -121,134 -114,234 0,3 1,5 1,8 41,184 226,305 410,281 h -11 c 341,22 671,-62 983,-169 4,-1 8,-3 11,-5 41,-25 78,-23 129,-11 51,12 111,37 180,46 469,92 946,145 1420,176 6,0 12,-1 18,-2 34,-9 61,-39 71,-64 10,-25 10,-45 12,-59 0,-3 0,-1 0,-4 201,-11 426,-12 620,-137 16,-6 31,-14 45,-26 14,-13 25,-34 27,-55 3,-41 -18,-64 -34,-81 -16,-19 -34,-33 -49,-46 -15,-13 -27,-25 -29,-28 -3,-3 -6,-6 -9,-9 -297,-245 -671,-468 -1086,-440 -1,0 -2,0 -3,0 -432,53 -856,161 -1275,140 354,-149 642,-441 801,-788 1,-4 3,-9 4,-13 24,-122 48,-255 39,-389 9,-1 18,-3 26,-7 652,-350 1294,-725 1947,-1072 1,0 1,0 2,-1 137,-78 304,-112 469,-168 17,-6 30,-20 36,-38 8,-27 0,-63 -16,-83 -16,-20 -32,-28 -46,-35 -28,-14 -47,-29 -40,-19 -4,-6 -10,-12 -16,-16 -42,-29 -83,-67 -107,-106 -24,-40 -32,-77 -19,-122 0,-1 1,-3 1,-4 15,-73 60,-127 123,-175 62,-48 142,-88 216,-130 12,-3 24,-6 35,-12 15,-9 32,-23 40,-46 1,-3 -2,-6 -1,-10 283,119 624,97 883,-69 1,0 2,-1 2,-1 203,-140 329,-378 323,-626 26,-564 -77,-1184 -480,-1623 -340,-379 -900,-580 -1399,-418 -311,99 -518,388 -573,696 0,1 0,1 0,2 -9,61 -20,130 -29,199 -112,-427 -83,-883 -56,-1332 57,-491 119,-1013 -32,-1511 -68,-231 -227,-414 -406,-557 -162,-180 -181,-450 -133,-691 0,0 0,0 0,-1 5,-21 4,-42 -8,-66 -8,-14 -25,-27 -44,-35 -10,-6 -21,-9 -33,-9 z m -36,155 c -37,248 -13,524 169,725 2,3 5,5 7,7 170,134 313,302 373,505 0,0 0,0 0,0 142,468 85,976 28,1468 0,1 0,2 0,3 -28,468 -67,960 73,1431 0,0 0,1 0,2 79,237 159,532 410,688 1,0 2,0 2,1 7,3 32,22 64,34 16,6 44,16 76,-8 17,-12 26,-31 28,-46 3,-15 1,-27 -1,-39 -3,-16 -13,-29 -26,-38 -140,-87 -249,-220 -307,-375 -1,-3 -2,-5 -3,-7 -73,-139 -28,-308 -2,-485 48,-271 231,-523 494,-606 0,0 0,-1 0,-1 448,-145 968,39 1279,386 0,1 0,1 0,1 374,407 475,996 450,1542 0,2 0,3 0,4 5,208 -102,412 -272,529 -297,189 -735,160 -996,-79 0,0 0,0 0,0 -170,-152 -231,-405 -164,-623 36,-114 68,-229 134,-302 128,-30 275,-11 425,-6 70,2 149,21 210,55 59,35 98,80 109,146 0,131 -37,271 -113,372 -21,24 -37,25 -66,18 -29,-8 -65,-33 -87,-59 -6,-7 -14,-13 -23,-16 11,4 4,1 -4,-7 -7,-8 -17,-20 -30,-33 -12,-13 -26,-28 -55,-36 -30,-7 -71,10 -89,34 -11,15 -14,35 -8,52 36,114 147,169 225,208 0,0 1,1 2,1 82,38 168,12 227,-35 58,-47 99,-111 121,-172 32,-85 60,-187 59,-290 -1,-103 -35,-211 -127,-284 -1,0 -2,-1 -3,-2 -225,-159 -498,-120 -727,-122 9,-73 12,-147 11,-219 v 6 c 8,-125 -49,-234 -131,-312 -82,-79 -189,-131 -294,-152 l 16,6 c -40,-22 -102,-10 -121,35 -10,22 -8,50 6,71 14,22 36,34 59,38 h -4 c 75,19 152,55 209,104 57,49 95,108 104,183 0,1 0,2 0,3 19,118 -15,227 -63,343 -48,117 -112,237 -137,373 -69,302 44,639 310,813 17,12 30,20 47,31 -67,37 -143,76 -213,129 -75,58 -141,135 -164,240 -23,77 -5,153 31,212 36,60 89,106 140,142 l -15,-15 c 10,15 22,22 33,30 -130,39 -268,76 -397,149 -637,339 -1261,701 -1893,1042 -25,-58 -47,-120 -82,-186 -126,-267 -328,-564 -665,-612 0,-1 -1,-1 -2,-1 -281,-29 -550,92 -771,225 -1,1 -3,2 -4,2 -147,105 -329,261 -332,484 -15,165 22,351 165,471 161,183 461,245 656,68 0,-1 0,-1 1,-1 52,-50 106,-116 140,-192 35,-76 49,-166 11,-252 -38,-100 -134,-147 -223,-150 -91,-3 -181,29 -246,87 -18,17 -24,43 -14,66 12,27 45,53 74,56 29,2 48,-6 65,-14 17,-7 31,-15 41,-20 11,-5 18,-5 12,-5 8,0 16,-2 23,-5 55,-23 121,8 128,68 5,117 -88,246 -200,290 -112,37 -225,4 -317,-71 -91,-75 -156,-191 -164,-304 0,0 0,0 0,0 -9,-115 34,-214 108,-301 75,-88 180,-159 283,-208 0,0 0,0 0,0 113,-51 237,-104 357,-127 121,-23 234,-17 339,44 239,140 380,410 473,678 20,128 -4,268 -32,406 -164,357 -476,651 -852,769 -3,1 -7,3 -10,5 3,-2 -6,2 -15,7 -9,4 -20,9 -31,17 -11,7 -30,13 -38,51 -3,19 6,45 18,58 12,12 23,17 33,20 4,1 7,2 11,3 506,72 999,-65 1478,-123 368,-25 718,177 1004,414 l -9,-9 c 14,18 30,31 45,44 10,9 17,16 25,23 -160,104 -362,109 -568,120 l 11,1 c -34,-4 -76,11 -94,37 -19,27 -20,50 -22,67 -1,11 -2,15 -3,21 -465,-31 -929,-82 -1385,-172 -1,0 -3,0 -4,-1 -48,-5 -104,-28 -168,-43 -64,-15 -142,-20 -215,24 l 11,-5 c -305,105 -621,183 -938,163 -4,0 -8,0 -11,1 -123,15 -251,-69 -281,-188 -2,-54 23,-93 70,-130 48,-38 118,-66 177,-81 1,0 3,-1 4,-1 -5,2 7,-2 18,-4 11,-2 24,-5 39,-10 7,-3 15,-5 24,-11 9,-5 23,-14 31,-38 7,-23 -4,-52 -15,-64 -11,-12 -21,-17 -32,-22 -1,-1 -2,-1 -3,-2 -235,-94 -474,-175 -643,-344 -2,-2 -4,-4 -6,-5 -18,-15 -40,-42 -66,-71 -27,-30 -59,-63 -109,-78 -11,-4 -24,-3 -36,1 -237,87 -496,139 -724,46 0,0 -1,0 -1,-1 -347,-136 -545,-499 -654,-853 -1,-4 -3,-7 -4,-10 -63,-120 -40,-265 -43,-425 0,-1 0,-2 -1,-3 -19,-288 77,-573 229,-822 v -1 c 0,0 0,0 0,0 274,-438 557,-895 674,-1417 0,-1 0,-3 1,-4 7,-50 17,-115 8,-182 -9,-66 -44,-140 -121,-173 -4,-1 -8,-2 -11,-3 -107,-22 -203,11 -288,50 -59,28 -108,51 -159,73 -4,-112 -2,-227 12,-339 0,0 0,-1 1,-1 43,-405 352,-789 759,-856 1,0 1,0 2,0 333,-64 729,51 905,346 0,1 1,1 1,2 71,111 83,238 56,366 -26,129 -92,257 -172,359 -1,2 -2,4 -3,6 -68,111 -211,140 -349,132 -5,0 -9,0 -13,1 -82,13 -161,-27 -206,-99 0,-1 -1,-1 -1,-2 -33,-50 -57,-126 -55,-191 2,-65 23,-113 77,-142 50,-22 126,-26 183,-6 58,20 95,53 99,114 0,2 1,3 1,5 -1,-8 -9,14 -28,46 -9,17 -21,36 -23,66 -2,29 16,66 42,85 22,16 52,15 72,-3 100,-88 124,-248 45,-362 -1,-3 -3,-5 -5,-7 -143,-150 -404,-162 -553,-11 -2,1 -3,3 -5,5 -56,73 -73,162 -66,247 6,84 35,166 74,234 58,102 156,157 257,178 101,20 207,9 299,-17 1,0 1,0 2,0 292,-91 593,-186 878,-115 1,0 1,0 2,1 100,23 175,134 172,232 -155,30 -307,75 -452,138 -311,124 -578,336 -789,590 -440,530 -702,1255 -541,1946 0,1 0,2 0,2 64,229 163,461 322,649 0,0 0,0 0,0 11,13 24,26 47,32 22,6 53,-4 69,-20 30,-34 24,-68 10,-97 l 4,11 c -70,-298 -129,-597 -108,-895 0,0 0,-1 0,-1 28,-501 201,-1030 602,-1339 358,-249 798,-357 1223,-496 0,0 1,0 1,-1 276,-97 603,-156 845,-376 3,-2 6,-5 8,-8 37,-49 87,-74 152,-91 55,-14 120,-22 184,-33 -40,37 -75,85 -73,152 0,2 1,4 1,6 25,177 163,308 297,391 1,0 2,1 3,2 142,76 297,76 439,36 142,-39 273,-118 381,-204 4,-3 8,-6 11,-10 -4,4 4,-4 15,-11 11,-8 25,-18 39,-30 15,-12 31,-26 41,-52 11,-27 2,-69 -19,-92 -18,-19 -47,-24 -70,-11 -185,104 -333,252 -516,274 0,0 -1,0 -1,0 -142,21 -287,-37 -374,-151 0,0 0,-1 0,-1 -29,-36 -63,-83 -78,-120 -7,-19 -9,-34 -7,-44 1,-9 6,-17 17,-27 168,-90 389,-43 612,-83 0,0 1,0 1,0 12,-2 23,-5 36,-13 14,-7 32,-25 35,-50 3,-24 -7,-42 -15,-52 -8,-9 -15,-15 -22,-20 -28,-20 -55,-30 -74,-36 0,0 -1,0 -1,0 -309,-89 -626,-27 -918,28 -3,1 -6,2 -9,3 -38,13 -73,11 -110,-3 -38,-15 -76,-42 -109,-73 l 5,7 c -16,-21 -31,-30 -47,-41 93,-5 190,-3 291,-7 273,-11 567,21 851,-57 l -14,2 c 60,-2 105,-51 112,-100 7,-48 -15,-104 -68,-128 -2,-1 -5,-3 -8,-3 -317,-90 -629,18 -916,20 -242,-5 -496,-34 -684,-172 -30,-30 -64,-56 -89,-80 -10,-10 -10,-17 -17,-25 9,-1 13,-5 23,-5 37,1 81,6 129,-1 l -7,1 c 380,-12 766,-10 1150,-49 3,0 6,0 9,-1 30,-8 73,-22 111,-51 19,-15 39,-34 49,-63 10,-30 5,-68 -14,-95 -8,-12 -19,-21 -33,-25 -156,-40 -313,-14 -449,-23 -1,0 -2,0 -3,0 -418,-11 -835,22 -1230,-67 -71,-24 -149,-49 -211,-85 -63,-36 -105,-79 -120,-143 -1,-3 -1,-5 -2,-8 -5,-11 -3,-9 -3,-9 0,0 3,-4 12,-10 17,-11 53,-22 85,-33 299,-75 622,32 959,29 0,0 0,0 0,0 171,-3 376,21 554,-83 13,-8 23,-21 27,-36 7,-28 -1,-61 -15,-82 -14,-21 -32,-34 -50,-44 -35,-20 -71,-30 -99,-34 -1,0 -2,0 -3,0 -380,-38 -763,-7 -1135,-23 -1,0 -2,0 -3,0 -324,1 -657,-68 -907,-270 -3,-2 -7,-4 -10,-6 -23,-12 -16,-41 5,-48 526,-34 1059,33 1597,40 2,0 4,0 5,0 55,-5 123,-1 194,-7 71,-6 148,-23 210,-79 2,-2 5,-5 7,-8 21,-27 31,-63 25,-95 -7,-32 -27,-55 -47,-70 -40,-32 -86,-44 -127,-47 -576,-82 -1160,-48 -1732,-23 -2,0 -4,1 -6,1 -124,20 -249,-10 -358,-75 -129,-78 -261,-155 -330,-266 22,0 49,4 87,-9 l -16,3 c 628,-27 1263,51 1903,19 3,-1 5,-1 8,-1 32,-6 88,-7 145,-19 58,-12 124,-43 154,-112 4,-10 6,-21 4,-31 -4,-33 -24,-63 -47,-81 -23,-18 -47,-26 -70,-31 -46,-11 -91,-13 -106,-17 -4,-2 -8,-2 -11,-3 -620,-50 -1243,-32 -1859,-47 -260,-69 -509,-198 -701,-384 624,-15 1254,120 1898,97 1,0 2,-1 3,-1 68,-7 152,-7 236,-24 83,-17 170,-52 229,-131 0,-1 0,-1 0,-1 19,-26 31,-59 23,-91 -7,-33 -31,-54 -52,-65 -42,-23 -83,-25 -117,-24 -594,-13 -1188,57 -1760,-53 -298,-63 -602,-161 -806,-377 l 5,6 c -7,-10 -11,-12 -18,-19 291,15 584,37 879,45 0,0 0,0 0,0 462,11 936,49 1404,-11 2,0 4,-1 6,-1 23,-6 71,-12 116,-33 23,-10 47,-25 64,-53 17,-27 20,-66 9,-99 -2,-4 -3,-8 -6,-12 -54,-88 -144,-129 -230,-148 -86,-18 -175,-18 -245,-23 -1,0 -2,0 -3,0 -539,-9 -1070,81 -1589,7 -296,-42 -620,-117 -780,-364 -14,-31 -32,-57 -40,-78 -1,-1 0,-1 -1,-1 175,8 355,38 539,54 603,60 1209,132 1819,133 2,0 4,0 6,0 582,-54 1169,-109 1745,-39 -132,56 -271,119 -368,249 -121,144 -124,336 -84,499 0,2 1,4 1,6 84,232 288,456 561,458 102,15 194,-23 262,-81 69,-57 119,-133 155,-205 66,-102 76,-232 40,-345 -36,-114 -121,-216 -249,-247 -67,-18 -134,4 -178,43 -45,40 -73,95 -82,153 0,0 0,1 -1,1 -1,9 -11,45 -10,84 0,19 2,46 27,70 24,24 64,25 91,16 23,-7 39,-28 40,-52 2,-37 6,-81 17,-111 10,-27 20,-39 41,-45 46,5 90,32 121,76 33,47 50,108 44,157 -17,81 -57,170 -114,234 -57,64 -125,103 -208,102 -204,-29 -380,-218 -420,-420 0,0 0,-1 0,-1 -22,-99 6,-196 64,-279 58,-82 147,-150 241,-183 4,-1 6,-3 9,-4 92,-52 223,-56 346,-123 27,-14 38,-46 25,-74 -44,-97 -118,-153 -135,-216 -1,-3 -2,-5 -4,-8 -34,-75 -24,-154 15,-229 27,-51 69,-95 115,-131 z m -409,676 c -1,0 -1,0 -1,1 -3,1 -5,2 -8,3 z m -1278,438 c 3,9 2,2 3,2 0,0 -2,0 -2,0 z m 985,2014 c 0,0 2,2 2,1 -1,-4 2,-7 -4,1 z m 2532,1157 1,3 c 0,0 -1,-1 -1,-1 0,-1 0,-1 0,-2 z m -1042,113 c 1,2 2,4 3,6 0,0 0,1 0,1 z m -3807,288 1,4 c 0,-1 -1,-2 -1,-3 z m -515,300 c 0,0 0,0 1,0 0,1 0,1 0,1 z m 3514,236 c -36,2 -73,7 -109,13 0,-4 0,-9 -1,-13 37,-1 74,-1 110,0 z m 191,636 c 1,0 1,0 1,0 l -1,1 z M 8225,9941 c -4,0 -5,1 -8,2 -5,1 -10,0 -15,2 z m -792,1566 c -1,1 -2,1 -2,1 -1,1 -1,0 -2,1 z"
   id="path2" />
   <path
   class="fil1"
   d="m 9861,9903 c -162,82 -326,168 -476,270 -31,115 -41,240 -44,358 107,106 208,220 322,319 53,-14 47,-101 75,-143 72,-197 146,-395 210,-594 -30,-64 -14,-168 -80,-210 h -4 z"
   id="path3" />
   <path
   class="fil2"
   d="m 9864,9846 c -1,0 -2,0 -4,0 h -3 c -8,1 -15,3 -22,6 -162,82 -329,169 -482,273 -11,8 -20,19 -23,32 -34,124 -43,253 -47,373 -1,16 6,31 17,42 106,104 207,219 326,322 14,12 34,17 53,12 27,-8 49,-27 62,-46 13,-19 19,-38 24,-55 10,-33 18,-61 21,-65 3,-4 5,-9 7,-13 71,-197 145,-395 210,-596 5,-14 4,-29 -2,-42 -9,-18 -14,-57 -23,-101 -9,-44 -26,-100 -79,-133 -8,-5 -18,-8 -27,-9 h -4 c -1,0 -3,0 -4,0 z m -16,129 c 6,10 13,15 17,36 6,27 13,63 24,97 -63,194 -135,386 -205,580 l 7,-13 c -23,34 -28,65 -34,88 -87,-80 -170,-167 -257,-254 4,-102 14,-205 37,-301 129,-85 270,-161 411,-233 z"
   id="path4" />
   <path
   class="fil1"
   d="m 10570,9513 c -211,107 -424,218 -624,345 2,131 43,270 133,370 88,115 165,242 266,346 56,-21 50,-114 79,-161 79,-238 159,-476 230,-715 -28,-51 -19,-164 -84,-185 z"
   id="path5" />
   <path
   class="fil2"
   d="m 10571,9455 c -9,0 -19,2 -27,7 -212,107 -426,219 -629,347 -17,11 -27,30 -27,50 2,143 46,294 148,407 l -3,-3 c 85,111 163,241 270,351 16,16 41,22 62,13 54,-20 74,-72 85,-108 10,-36 18,-68 23,-76 2,-4 4,-8 6,-12 78,-238 159,-476 230,-717 5,-15 3,-31 -5,-45 -3,-7 -12,-47 -22,-89 -6,-21 -13,-44 -26,-66 -14,-23 -37,-46 -68,-56 -6,-2 -11,-3 -17,-3 z m -10,128 c 3,7 6,14 9,26 6,24 11,56 24,89 -70,232 -148,464 -225,697 l 6,-12 c -22,36 -26,70 -33,96 -75,-88 -142,-187 -217,-286 -1,-1 -2,-3 -3,-4 -72,-79 -106,-191 -113,-301 177,-110 363,-209 552,-305 z"
   id="path6" />
   <path
   class="fil1"
   d="m 11349,9070 c -234,136 -481,258 -708,403 5,127 94,238 148,350 74,118 138,246 235,345 54,-13 50,-104 80,-145 95,-270 207,-537 270,-817 -4,-40 21,-127 -25,-136 z"
   id="path7" />
   <path
   class="fil2"
   d="m 11349,9013 c -10,0 -20,2 -29,7 -232,135 -479,257 -710,404 -17,11 -28,31 -27,51 7,153 105,270 154,373 1,2 2,4 3,6 72,114 138,246 243,355 14,14 35,20 55,15 28,-7 51,-26 65,-45 13,-20 20,-38 25,-55 11,-35 20,-64 23,-67 3,-5 6,-10 8,-15 93,-268 206,-537 271,-823 1,-6 1,-13 1,-19 0,-4 4,-38 4,-73 0,-18 -1,-37 -10,-59 -9,-23 -36,-49 -65,-54 -4,-1 -7,-1 -11,-1 z m -31,140 c -1,13 -1,26 -1,42 -62,273 -172,537 -267,809 l 8,-15 c -23,31 -29,59 -35,83 -66,-83 -123,-179 -184,-278 -52,-107 -117,-201 -134,-292 196,-122 407,-232 613,-349 z"
   id="path8" />
   <path
   class="fil1"
   d="m 11886,8915 c -158,14 -322,54 -460,121 -3,280 89,550 138,823 78,342 143,689 233,1027 53,38 68,-63 82,-96 169,-536 113,-1105 142,-1658 -16,-72 56,-221 -65,-214 -23,-4 -47,-4 -70,-3 z"
   id="path9" />
   <path
   class="fil2"
   d="m 11883,8857 c -1,0 -2,0 -3,0 -163,16 -333,56 -479,127 -20,10 -32,30 -33,52 -3,292 91,566 139,834 0,0 0,1 1,2 78,341 143,688 234,1029 3,12 11,24 21,31 24,18 65,26 93,11 29,-14 40,-35 48,-53 18,-35 26,-73 28,-78 1,-2 1,-3 2,-5 174,-550 115,-1125 144,-1672 1,-5 0,-10 -1,-15 -2,-10 8,-67 9,-123 0,-29 -1,-62 -25,-93 -23,-31 -65,-45 -106,-43 -26,-4 -50,-5 -72,-4 z m 7,115 c 21,-1 40,0 55,3 5,0 9,1 14,0 19,-1 12,1 10,-2 -2,-3 2,4 2,21 -1,35 -20,88 -7,150 l -1,-15 c -29,555 24,1114 -136,1632 -75,-300 -136,-606 -206,-912 l -1,-2 c -47,-265 -128,-519 -134,-772 123,-54 265,-90 404,-103 z"
   id="path10" />
   <path
   class="fil1"
   d="m 12061,8139 c -165,50 -326,146 -433,284 -62,73 -51,182 23,241 99,97 225,184 363,209 74,-35 78,-140 94,-211 21,-72 -26,-151 -105,-149 -62,-5 -135,48 -190,22 -7,-52 83,-42 118,-55 82,-17 198,-13 220,88 37,136 -62,255 -84,382 -20,521 7,1050 -73,1566 -32,203 -116,397 -167,594 9,197 9,395 23,591 73,108 191,211 332,174 115,-13 224,-82 332,-93 277,154 616,208 923,117 39,-19 144,-43 94,-103 -56,-57 -106,-118 -137,-192 -131,-198 -371,-255 -578,-332 -280,-109 -379,-430 -397,-705 -38,-434 136,-846 213,-1267 38,-318 32,-644 -21,-960 -22,-64 -4,-191 -108,-160 -149,3 -297,-8 -442,-41 z"
   id="path11" />
   <path
   class="fil2"
   d="m 12060,8081 c -5,0 -10,1 -15,3 -174,52 -345,153 -461,303 -82,96 -68,242 30,321 104,100 236,194 390,221 3,1 6,1 9,1 -1,4 -2,7 -3,10 0,3 0,5 -1,8 -19,525 7,1051 -72,1559 -30,194 -113,385 -166,589 -1,6 -2,11 -2,17 9,195 9,394 24,592 1,10 4,20 9,28 40,59 92,118 158,159 66,40 148,60 234,38 125,-15 230,-75 315,-88 286,152 629,206 944,112 3,-1 6,-2 9,-3 10,-5 50,-16 86,-39 18,-12 40,-28 50,-60 10,-31 -2,-68 -22,-92 -1,-2 -2,-3 -4,-4 -53,-55 -98,-110 -124,-174 -2,-4 -4,-7 -6,-10 -146,-220 -403,-279 -605,-354 -125,-48 -209,-143 -266,-261 -58,-119 -86,-262 -95,-394 0,0 0,-1 0,-1 -36,-416 134,-822 213,-1252 0,-1 0,-2 1,-3 38,-324 32,-655 -22,-976 0,-3 -1,-6 -2,-9 -6,-17 -8,-66 -23,-115 -8,-24 -21,-53 -51,-72 -30,-20 -69,-21 -105,-11 l 14,-2 c -145,3 -288,-8 -427,-39 -5,-1 -9,-2 -14,-2 z m 7,117 c 144,31 291,42 437,39 5,0 10,-1 15,-2 16,-5 13,-2 10,-4 -3,-2 0,-1 4,11 7,23 7,70 24,117 l -2,-9 c 52,309 57,629 21,941 -77,412 -254,829 -214,1280 9,143 39,298 105,436 67,137 172,258 328,318 0,1 1,1 1,1 212,79 434,135 550,310 l -5,-11 c 32,78 82,139 134,194 -14,7 -34,15 -56,25 -289,85 -612,35 -877,-112 -10,-6 -22,-9 -34,-7 -128,13 -236,82 -333,92 -3,1 -6,1 -8,2 -54,14 -100,3 -146,-26 -43,-26 -82,-68 -114,-113 -13,-184 -14,-373 -22,-562 49,-190 133,-383 166,-593 0,0 0,0 0,0 81,-522 54,-1051 74,-1567 9,-52 36,-110 60,-175 24,-67 44,-144 22,-229 -16,-70 -73,-114 -128,-130 -56,-15 -112,-10 -159,-1 -4,1 -7,2 -10,3 2,-1 -32,3 -66,10 -17,4 -37,9 -57,26 -20,16 -35,51 -31,80 2,19 14,36 32,45 50,24 98,10 134,0 35,-10 64,-18 76,-17 2,0 5,0 7,0 20,0 31,7 40,21 9,14 13,35 8,55 -1,1 -1,3 -1,4 -9,40 -14,82 -24,114 -8,25 -19,35 -30,44 -111,-27 -220,-100 -307,-186 -1,-1 -3,-2 -4,-3 -49,-39 -57,-110 -15,-158 0,-1 1,-1 2,-2 95,-124 242,-213 393,-261 z m -65,257 h 6 c -2,0 -3,1 -4,1 -1,0 -2,-1 -2,-1 z m 1485,3377 c 1,1 2,3 3,4 z"
   id="path12" />
   <path
   class="fil1"
   d="m 13127,7835 c -90,89 -173,193 -292,250 -59,49 -163,39 -203,107 34,204 72,409 63,617 9,289 -7,576 -99,852 -88,275 -145,562 -129,852 -16,286 109,616 392,729 206,74 458,133 573,340 11,104 99,90 176,76 75,-18 181,-7 231,-75 -1,-112 -112,-188 -178,-266 -193,-191 -425,-335 -640,-497 -69,-316 -69,-644 -28,-964 61,-370 187,-732 183,-1111 -1,-298 -9,-596 -25,-893 -2,-11 -11,-21 -24,-17 z"
   id="path13" />
   <path
   class="fil2"
   d="m 13148,7779 c -13,-3 -27,-3 -39,1 -8,3 -16,7 -22,14 -94,92 -173,189 -277,238 -4,3 -9,5 -12,9 -15,12 -48,22 -89,35 -41,13 -95,33 -127,87 -7,12 -9,25 -7,39 35,204 71,405 63,605 0,1 0,2 0,4 9,285 -8,565 -97,832 0,0 0,0 0,0 -89,278 -147,569 -131,867 0,0 0,0 0,0 -17,305 115,660 428,785 0,0 1,1 2,1 210,76 442,135 541,314 l -6,-21 c 3,34 14,64 34,88 20,24 48,37 73,43 51,12 97,2 136,-6 1,0 2,0 3,0 29,-7 74,-9 122,-18 48,-9 105,-28 142,-79 8,-10 11,-22 11,-34 0,-75 -38,-135 -78,-183 -40,-47 -84,-86 -114,-120 -1,-1 -2,-2 -3,-3 -193,-192 -420,-335 -627,-490 -62,-301 -63,-615 -24,-923 60,-362 188,-727 183,-1120 0,-298 -9,-598 -25,-895 0,-2 0,-4 -1,-6 -3,-19 -10,-35 -27,-49 -8,-7 -19,-12 -32,-15 z m -52,170 c 13,265 22,531 22,796 0,0 0,0 0,0 4,367 -120,725 -182,1101 0,1 -1,2 -1,3 -41,324 -41,660 29,983 3,14 11,26 22,34 218,164 448,307 634,492 l -3,-3 c 37,44 81,82 113,120 25,29 38,55 45,83 -13,10 -26,20 -53,25 -36,6 -82,8 -128,18 h 3 c -38,7 -74,11 -89,7 -8,-2 -9,-3 -11,-5 -2,-3 -6,-9 -8,-27 -1,-7 -3,-15 -7,-22 -129,-233 -401,-294 -602,-366 -252,-101 -370,-405 -355,-672 0,-2 0,-4 0,-6 -16,-280 39,-560 125,-831 v -1 c 95,-283 112,-576 103,-867 8,-205 -27,-403 -59,-597 10,-10 21,-19 50,-28 35,-11 84,-21 128,-58 l -12,9 c 99,-48 169,-119 236,-188 z"
   id="path14" />
   <path
   class="fil1"
   d="m 13982,2031 c -116,108 -199,254 -300,377 -158,207 -303,428 -477,620 -86,-18 -159,-104 -248,-93 -48,110 -52,235 -94,348 -133,-34 -251,-117 -380,-157 -65,142 -87,306 -167,442 -114,-9 -234,-58 -347,-56 -49,108 -26,242 -83,345 -85,3 -162,-68 -248,-64 -42,113 -23,247 -51,366 -96,1 -189,-26 -284,-29 -32,52 12,128 9,187 21,96 35,190 -31,272 -88,160 -153,381 -17,535 184,216 492,207 747,257 560,121 988,615 1119,1161 118,401 95,821 91,1235 -6,38 1,140 55,83 197,-208 281,-491 318,-770 74,-383 121,-774 185,-1158 92,-326 297,-607 504,-869 334,-408 763,-761 1278,-903 202,-64 417,-81 627,-89 56,-45 27,-139 46,-201 -11,-70 66,-213 -43,-213 -243,-32 -481,57 -718,95 -213,38 -423,111 -637,132 2,-111 1,-229 35,-335 54,-55 124,-117 193,-137 47,47 44,149 111,170 64,-43 66,-156 136,-185 59,31 78,131 147,137 66,-74 81,-189 150,-257 59,60 66,156 127,213 66,-25 91,-115 138,-167 26,-24 66,-128 100,-63 59,72 86,200 201,195 47,11 108,9 111,-53 61,-197 127,-396 155,-601 -46,-36 -122,8 -178,4 -373,52 -745,122 -1118,168 -20,-61 13,-138 -22,-190 h -632 c -4,-227 10,-457 -12,-683 -49,-25 -86,66 -128,87 -113,102 -214,231 -339,312 -25,-151 25,-312 -10,-461 -5,-5 -12,-8 -19,-7 z m 628,1121 c 69,-10 -2,51 -20,69 -182,159 -372,307 -567,450 -128,-116 -253,-244 -349,-387 70,-32 177,-24 259,-44 225,-30 450,-65 677,-88 z"
   id="path15" />
   <path
   class="fil2"
   d="m 13994,1974 c -6,-1 -13,-1 -20,0 -12,1 -23,7 -32,15 -124,116 -208,264 -305,383 0,0 0,1 -1,1 -151,198 -289,404 -449,584 -23,-9 -46,-19 -77,-37 -42,-23 -95,-50 -160,-43 -20,3 -37,16 -45,34 -45,103 -58,204 -81,295 -102,-38 -204,-98 -324,-135 -28,-9 -58,4 -70,31 -63,139 -89,284 -147,402 -93,-15 -199,-52 -315,-49 -22,0 -42,14 -51,34 -30,65 -36,131 -44,190 -5,42 -13,78 -23,111 -20,-5 -39,-8 -65,-19 -41,-16 -89,-38 -149,-36 -23,1 -43,15 -52,37 -42,115 -36,228 -48,324 -72,-6 -145,-21 -232,-23 -20,-1 -40,10 -50,27 -29,47 -21,96 -14,133 8,36 15,67 14,81 0,5 0,11 2,16 20,93 30,161 -20,223 -2,2 -4,5 -6,8 -46,85 -87,186 -99,292 -11,105 10,218 90,309 205,240 533,227 778,275 534,116 949,592 1075,1118 0,1 0,2 1,3 107,365 95,752 90,1142 -32,4 -56,32 -56,65 0,32 23,60 54,65 1,13 3,27 8,42 7,20 19,50 58,60 19,5 40,1 54,-6 14,-7 25,-16 35,-27 209,-221 296,-517 333,-801 74,-384 121,-772 184,-1152 89,-312 287,-586 493,-847 328,-401 749,-746 1248,-883 1,0 2,0 2,-1 195,-61 403,-79 612,-87 12,0 24,-5 33,-12 48,-37 57,-94 60,-136 2,-42 2,-78 6,-94 3,-8 3,-17 2,-26 -1,-8 10,-63 16,-117 2,-27 4,-58 -15,-91 -18,-32 -60,-52 -99,-53 -259,-32 -501,60 -729,96 0,0 -1,0 -1,0 -196,35 -383,92 -567,119 2,-83 7,-164 28,-235 37,-36 78,-68 117,-90 6,14 10,20 18,39 15,38 40,90 98,109 17,6 36,3 50,-7 51,-35 70,-86 86,-122 8,-16 13,-17 19,-27 8,10 12,13 22,27 22,32 57,78 119,84 18,1 36,-6 48,-20 41,-46 63,-99 83,-145 8,-17 16,-25 23,-39 4,8 7,11 11,19 17,39 36,86 78,125 16,15 39,20 60,12 52,-20 81,-61 104,-97 22,-35 40,-68 55,-85 14,-13 21,-25 28,-36 1,-1 1,-2 2,-3 18,27 34,59 61,97 32,45 87,91 161,92 28,7 61,10 97,-2 35,-11 70,-49 77,-95 60,-195 128,-396 156,-606 3,-21 -5,-41 -21,-53 -44,-35 -95,-28 -132,-21 -36,6 -67,14 -78,13 -4,0 -8,0 -12,0 -355,49 -706,113 -1057,159 0,-11 -2,-16 -1,-30 1,-35 3,-82 -26,-126 -11,-16 -29,-26 -48,-26 h -574 c -2,-206 8,-417 -13,-631 -1,-19 -13,-37 -31,-46 -28,-13 -63,-11 -86,0 -23,11 -37,26 -49,39 -24,27 -47,50 -45,49 -4,2 -8,5 -12,8 -89,80 -168,164 -249,236 4,-109 24,-230 -6,-355 -2,-9 -7,-17 -13,-24 -13,-16 -30,-25 -50,-27 z m -39,178 c 0,106 -22,228 -1,357 7,41 53,61 88,39 136,-88 237,-218 343,-314 17,-11 29,-22 39,-33 11,191 5,385 8,583 1,31 27,57 58,57 h 587 c 1,9 4,14 4,32 -1,31 -7,72 8,118 8,26 34,43 62,39 375,-46 746,-116 1117,-167 40,0 72,-10 98,-15 4,-1 2,0 5,0 -30,179 -86,357 -141,537 -1,4 -2,9 -3,14 0,1 1,1 1,2 -5,1 -24,2 -41,-2 -5,-1 -10,-2 -15,-1 -36,1 -49,-11 -72,-45 -22,-31 -44,-78 -77,-121 -7,-12 -14,-24 -28,-35 -14,-10 -35,-17 -54,-15 -37,4 -52,25 -65,39 -12,15 -21,30 -29,42 -8,11 -16,21 -13,18 -1,1 -2,2 -4,4 -31,34 -49,72 -68,100 -5,10 -9,10 -15,17 -7,-14 -16,-22 -23,-40 -17,-39 -35,-85 -74,-125 -22,-23 -59,-24 -82,-1 -45,43 -68,97 -89,144 -13,29 -27,49 -40,73 -4,-5 -5,-3 -11,-11 -19,-27 -40,-70 -89,-96 -16,-8 -34,-9 -50,-3 -59,25 -83,79 -100,117 -8,16 -13,20 -20,31 -1,-3 -2,-1 -3,-5 -12,-31 -22,-76 -60,-115 -15,-15 -37,-21 -58,-15 -90,27 -162,96 -217,152 -7,7 -11,14 -14,23 -39,118 -37,242 -39,352 0,34 29,61 63,58 223,-22 434,-95 641,-132 h 1 c 245,-40 477,-124 700,-95 3,0 5,0 8,0 1,0 0,0 1,0 0,1 1,4 0,18 -3,32 -20,79 -14,135 -9,40 -8,78 -10,106 -2,26 -7,34 -13,42 -201,9 -409,27 -610,90 -530,146 -968,508 -1306,921 0,1 0,1 -1,1 -208,264 -419,551 -514,890 -1,2 -1,4 -2,6 -64,385 -111,775 -184,1157 0,1 -1,2 -1,3 -32,246 -107,488 -258,677 4,-406 26,-825 -93,-1233 -136,-566 -577,-1076 -1163,-1203 0,0 -1,0 -1,0 -265,-52 -551,-46 -713,-237 -1,0 -1,-1 -1,-1 -57,-63 -71,-137 -62,-221 9,-82 44,-171 84,-246 76,-98 60,-214 39,-309 0,-40 -10,-74 -16,-100 -2,-10 0,-10 0,-16 71,8 148,24 234,23 27,-1 49,-19 56,-44 27,-115 23,-222 42,-311 18,5 33,6 55,16 41,17 89,38 148,37 20,-1 39,-12 49,-30 35,-64 43,-131 51,-191 6,-45 15,-82 25,-118 88,9 188,41 299,50 22,1 43,-10 54,-29 77,-131 105,-272 151,-394 101,42 206,104 332,136 29,8 58,-8 69,-36 40,-110 51,-216 81,-306 16,4 34,12 55,24 38,21 81,51 139,63 20,4 41,-2 54,-17 179,-197 325,-419 481,-624 l -1,2 c 81,-100 152,-203 228,-293 z m 664,942 c -6,0 -11,1 -17,1 -228,23 -453,58 -677,88 -2,1 -4,1 -6,1 -67,16 -176,5 -269,48 -32,14 -44,54 -24,84 100,149 228,280 358,398 21,18 51,20 73,3 196,-143 388,-293 571,-453 0,0 1,-1 1,-1 7,-7 32,-26 51,-54 5,-7 10,-14 14,-27 4,-12 6,-35 -7,-56 -13,-22 -35,-29 -49,-31 -7,-1 -13,-2 -19,-1 z m -125,131 c -150,129 -306,252 -466,370 -92,-85 -176,-176 -250,-273 49,-6 105,-11 163,-25 186,-25 369,-50 553,-72 z"
   id="path16" />
  </g>
 </g>
</svg>
