<?xml version="1.0"?>
<svg width="30" height="20" xmlns="http://www.w3.org/2000/svg"><path d="M0 0h30v20H0z" fill="#fff"/><path transform="scale(.1)" d="m94.5 153.7v-107.39h-20.8l-.08 68.99-29.65-68.99h-20.87v107.39h20.87v-69.26l29.87 69.26zm75.6-28q0 2.9-1.2 5.3-1.2 2.3-3.4 4t-5.4 2.7-7.3 1q-4.7 0-8.6-1.1-3.8-1-6.6-3.2t-4.3-5.7q-1.6-3.5-1.7-8.3h-20.4q0 8.3 3.2 14.5 3.3 6.2 8.8 10.8 5.8 4.6 13.6 7 7.9 2.4 16 2.4 8.2 0 15.1-1.9 6.9-2 11.9-5.8 5.1-3.8 7.9-9.3t2.8-12.6q0-8.2-3.7-14.4-3.8-6.3-10.1-11-4.2-2.9-9.3-5.11-5-2.21-10.5-3.76-5.2-1.4-9.3-3.02-4.1-1.63-6.9-3.62-2.9-1.92-4.5-4.35-1.4-2.43-1.4-5.46 0-2.87 1.1-5.31 1.2-2.51 3.4-4.35 2.2-1.77 5.4-2.73 3.2-1.03 7.3-1.03 4.5 0 7.8 1.25 3.4 1.18 5.7 3.32 2.2 2.21 3.3 5.24 1.2 3.02 1.4 6.64h20.2q0-7.23-2.8-13.28t-7.8-10.47q-5.1-4.36-12.1-6.79-6.9-2.43-15.3-2.43-8.1 0-15 2.13-7 2.07-12.1 5.98t-7.9 9.44q-2.9 5.53-2.9 12.32 0 5.9 2.1 10.91 2.2 5.02 6.5 9.15t11 7.63q6.8 3.4 15.7 5.9 5.8 1.5 9.6 3.4 3.9 1.7 6.3 3.9t3.4 4.7 1 5.4zm113.8-62.5v-16.89h-86.6v16.89h32.7v90.5h20.8v-90.5z"/></svg>
