<?xml version="1.0" encoding="UTF-8" standalone="no"?>
<!-- Created with Inkscape (http://www.inkscape.org/) -->

<svg
   width="7.9375mm"
   height="5.2916698mm"
   viewBox="0 0 7.9375 5.29167"
   version="1.1"
   id="svg1"
   inkscape:version="1.4 (86a8ad7, 2024-10-11)"
   sodipodi:docname="nya.svg"
   xmlns:inkscape="http://www.inkscape.org/namespaces/inkscape"
   xmlns:sodipodi="http://sodipodi.sourceforge.net/DTD/sodipodi-0.dtd"
   xmlns:xlink="http://www.w3.org/1999/xlink"
   xmlns="http://www.w3.org/2000/svg"
   xmlns:svg="http://www.w3.org/2000/svg">
  <sodipodi:namedview
     id="namedview1"
     pagecolor="#ffffff"
     bordercolor="#000000"
     borderopacity="0.25"
     inkscape:showpageshadow="2"
     inkscape:pageopacity="0.0"
     inkscape:pagecheckerboard="0"
     inkscape:deskcolor="#d1d1d1"
     inkscape:document-units="mm"
     inkscape:zoom="0.71891835"
     inkscape:cx="232.98891"
     inkscape:cy="306.01528"
     inkscape:window-width="1904"
     inkscape:window-height="992"
     inkscape:window-x="-26"
     inkscape:window-y="145"
     inkscape:window-maximized="0"
     inkscape:current-layer="layer1" />
  <defs
     id="defs1">
    <radialGradient
       id="n"
       cx="489.07001"
       cy="210.33"
       r="0.345"
       gradientTransform="matrix(0.00861722,0,0,0.0090267,-825.15993,-674.59387)"
       gradientUnits="userSpaceOnUse">
      <stop
         style="stop-color:#fff"
         offset="0"
         id="stop19" />
      <stop
         style="stop-color:#fff;stop-opacity:0"
         offset="1"
         id="stop21" />
    </radialGradient>
    <radialGradient
       id="m"
       cx="477.85999"
       cy="215.27"
       r="0.345"
       gradientUnits="userSpaceOnUse"
       gradientTransform="matrix(0.00881945,0,0,0.00881945,-825.15993,-674.59387)">
      <stop
         style="stop-color:#a50a0a"
         offset=".259"
         id="stop14" />
      <stop
         style="stop-color:#4c0505"
         offset="1"
         id="stop16" />
    </radialGradient>
    <linearGradient
       id="l"
       x1="473.31"
       x2="475.92999"
       y1="237.25"
       y2="270.45001"
       gradientUnits="userSpaceOnUse"
       gradientTransform="matrix(0.00881945,0,0,0.00881945,-825.15993,-674.59387)">
      <stop
         style="stop-color:#f9f0aa"
         offset=".216"
         id="stop39" />
      <stop
         style="stop-color:#b07e09"
         offset="1"
         id="stop41" />
    </linearGradient>
    <linearGradient
       id="k"
       x1="451.54001"
       x2="455.37"
       y1="249.52"
       y2="240.58"
       gradientUnits="userSpaceOnUse"
       gradientTransform="matrix(0.00881945,0,0,0.00881945,-825.15993,-674.59387)">
      <stop
         style="stop-color:#f9f0aa"
         offset=".216"
         id="stop34" />
      <stop
         style="stop-color:#b07e09"
         offset="1"
         id="stop36" />
    </linearGradient>
    <radialGradient
       id="j"
       cx="445.98001"
       cy="252.36"
       r="13.018"
       gradientUnits="userSpaceOnUse"
       xlink:href="#a"
       gradientTransform="matrix(0.00881945,0,0,0.00881945,-825.15993,-674.59387)" />
    <radialGradient
       id="a">
      <stop
         style="stop-color:#f9f0aa"
         offset=".216"
         id="stop4" />
      <stop
         style="stop-color:#b07e09"
         offset="1"
         id="stop6" />
    </radialGradient>
    <linearGradient
       id="i"
       x1="483.13"
       x2="485.5"
       y1="296.66"
       y2="326.57999"
       gradientUnits="userSpaceOnUse"
       gradientTransform="matrix(0.00881945,0,0,0.00881945,-825.15993,-674.59387)">
      <stop
         style="stop-color:#b07e09;stop-opacity:0"
         offset=".216"
         id="stop29" />
      <stop
         style="stop-color:#b07e09"
         offset="1"
         id="stop31" />
    </linearGradient>
    <linearGradient
       id="h"
       x1="473.91"
       x2="472.35999"
       y1="259.17001"
       y2="231.96001"
       gradientUnits="userSpaceOnUse"
       gradientTransform="matrix(0.00881945,0,0,0.00881945,-825.15993,-674.59387)">
      <stop
         style="stop-color:#b07e09;stop-opacity:0"
         offset=".216"
         id="stop24" />
      <stop
         style="stop-color:#b07e09"
         offset="1"
         id="stop26" />
    </linearGradient>
    <radialGradient
       id="g"
       cx="458.39001"
       cy="307.06"
       r="17.354"
       gradientUnits="userSpaceOnUse"
       xlink:href="#a"
       gradientTransform="matrix(0.00881945,0,0,0.00881945,-825.15993,-674.59387)" />
    <radialGradient
       id="radialGradient2">
      <stop
         style="stop-color:#f9f0aa"
         offset=".216"
         id="stop1" />
      <stop
         style="stop-color:#b07e09"
         offset="1"
         id="stop2" />
    </radialGradient>
    <radialGradient
       id="f"
       cx="454.10999"
       cy="308.64001"
       r="9.7799997"
       gradientUnits="userSpaceOnUse"
       xlink:href="#a"
       gradientTransform="matrix(0.00881945,0,0,0.00881945,-825.15993,-674.59387)" />
    <radialGradient
       id="radialGradient5">
      <stop
         style="stop-color:#f9f0aa"
         offset=".216"
         id="stop3" />
      <stop
         style="stop-color:#b07e09"
         offset="1"
         id="stop5" />
    </radialGradient>
    <radialGradient
       id="e"
       cx="451.56"
       cy="313"
       r="10.911"
       gradientUnits="userSpaceOnUse"
       xlink:href="#a"
       gradientTransform="matrix(0.00881945,0,0,0.00881945,-825.15993,-674.59387)" />
    <radialGradient
       id="radialGradient8">
      <stop
         style="stop-color:#f9f0aa"
         offset=".216"
         id="stop7" />
      <stop
         style="stop-color:#b07e09"
         offset="1"
         id="stop8" />
    </radialGradient>
    <radialGradient
       id="d"
       cx="447.42001"
       cy="308.26999"
       r="16.534"
       gradientUnits="userSpaceOnUse"
       xlink:href="#a"
       gradientTransform="matrix(0.00881945,0,0,0.00881945,-825.15993,-674.59387)" />
    <radialGradient
       id="radialGradient10">
      <stop
         style="stop-color:#f9f0aa"
         offset=".216"
         id="stop9" />
      <stop
         style="stop-color:#b07e09"
         offset="1"
         id="stop10" />
    </radialGradient>
  </defs>
  <g
     inkscape:label="Layer 1"
     inkscape:groupmode="layer"
     id="layer1"
     transform="translate(724.72809,838.60756)">
    <path
       d="m -724.72809,-838.60756 h 7.9375 v 5.29167 h -7.9375 z"
       id="path579"
       style="stroke-width:0.0176389" />
    <path
       id="path591"
       style="fill:#ce1126;stroke-width:0.0176389"
       d="m -719.62163,-836.59673 a 1.1377083,1.1377083 0 0 1 -1.13771,1.13771 1.1377083,1.1377083 0 0 1 -1.13771,-1.13771 1.1377083,1.1377083 0 0 1 1.13771,-1.13771 1.1377083,1.1377083 0 0 1 1.13771,1.13771 z" />
    <path
       id="path573"
       d="m -720.75934,-838.39589 c -0.0382,0 -0.0529,0.0573 -0.0529,0.11465 0,0.13817 0.0169,0.2104 0.0529,0.41451 0.036,-0.20411 0.0529,-0.27634 0.0529,-0.41451 0,-0.0573 -0.0147,-0.11465 -0.0529,-0.11465 z"
       fill="#ce1126"
       style="stroke-width:0.0176389" />
    <path
       id="path576"
       d="m -720.60253,-838.38905 c -0.0381,-0.003 -0.0577,0.0525 -0.0627,0.10961 -0.012,0.13764 -0.001,0.21108 0.0166,0.41755 0.0536,-0.2002 0.0768,-0.27068 0.0888,-0.40833 0.005,-0.0571 -0.005,-0.1155 -0.0427,-0.11883 z"
       fill="#ce1126"
       style="stroke-width:0.0176389" />
    <path
       id="path519"
       d="m -720.44692,-838.36856 c -0.0376,-0.007 -0.0621,0.0473 -0.072,0.10372 -0.024,0.13607 -0.0199,0.21015 -0.0199,0.41741 0.0709,-0.19476 0.1001,-0.26296 0.1241,-0.39903 0.01,-0.0565 0.005,-0.11546 -0.0322,-0.1221 z"
       fill="#ce1126"
       style="stroke-width:0.0176389" />
    <path
       id="path522"
       d="m -720.29368,-838.33459 c -0.0369,-0.01 -0.066,0.0417 -0.0808,0.0971 -0.0358,0.13347 -0.0381,0.20762 -0.0562,0.41409 0.0876,-0.18784 0.12264,-0.25323 0.1584,-0.3867 0.0148,-0.0554 0.0155,-0.11455 -0.0214,-0.12444 z"
       fill="#ce1126"
       style="stroke-width:0.0176389" />
    <path
       id="path525"
       d="m -720.14399,-838.28739 c -0.0359,-0.0131 -0.0693,0.0358 -0.0889,0.0896 -0.0473,0.12984 -0.0561,0.20351 -0.092,0.40761 0.10362,-0.17949 0.14424,-0.24157 0.19149,-0.37141 0.0196,-0.0539 0.0254,-0.11277 -0.0105,-0.12584 z"
       fill="#ce1126"
       style="stroke-width:0.0176389" />
    <path
       id="path528"
       d="m -719.99898,-838.22733 c -0.0346,-0.0161 -0.0722,0.0296 -0.0964,0.0816 -0.0584,0.12523 -0.0736,0.19785 -0.12722,0.39804 0.11887,-0.16977 0.16474,-0.22809 0.22313,-0.35331 0.0242,-0.052 0.0351,-0.11012 5e-4,-0.12628 z"
       fill="#ce1126"
       style="stroke-width:0.0176389" />
    <path
       id="path555"
       d="m -719.85976,-838.15485 c -0.0331,-0.0191 -0.0745,0.0232 -0.10315,0.0728 -0.0691,0.11966 -0.0905,0.19068 -0.16143,0.38544 0.13322,-0.15877 0.184,-0.21286 0.25308,-0.33252 0.0287,-0.0497 0.0446,-0.10664 0.0115,-0.12575 z"
       fill="#ce1126"
       style="stroke-width:0.0176389" />
    <path
       id="path558"
       d="m -719.72738,-838.07052 c -0.0313,-0.0219 -0.0762,0.0166 -0.10911,0.0636 -0.0793,0.11318 -0.10682,0.18206 -0.19441,0.3699 0.14655,-0.14655 0.20185,-0.19601 0.2811,-0.3092 0.0329,-0.047 0.0537,-0.10235 0.0224,-0.12427 z"
       fill="#ce1126"
       style="stroke-width:0.0176389" />
    <path
       id="path543"
       d="m -719.60286,-837.97497 c -0.0293,-0.0246 -0.0774,0.01 -0.11423,0.0538 -0.0888,0.10584 -0.12228,0.17206 -0.22591,0.35155 0.15877,-0.13323 0.21817,-0.17768 0.30698,-0.28352 0.0369,-0.0439 0.0624,-0.0973 0.0332,-0.12185 z"
       fill="#ce1126"
       style="stroke-width:0.0176389" />
    <path
       id="path546"
       d="m -719.48714,-837.86893 c -0.027,-0.027 -0.078,0.003 -0.11849,0.0436 -0.0977,0.0977 -0.13681,0.16075 -0.25568,0.33053 0.16977,-0.11888 0.23282,-0.15799 0.33052,-0.25569 0.0405,-0.0405 0.0707,-0.0915 0.0437,-0.11849 z"
       fill="#ce1126"
       style="stroke-width:0.0176389" />
    <path
       id="path531"
       d="m -719.3811,-837.75321 c -0.0246,-0.0293 -0.0779,-0.004 -0.12184,0.0332 -0.10585,0.0888 -0.1503,0.14821 -0.28352,0.30698 0.17949,-0.10363 0.2457,-0.13709 0.35155,-0.2259 0.0439,-0.0369 0.0784,-0.085 0.0538,-0.11424 z"
       fill="#ce1126"
       style="stroke-width:0.0176389" />
    <path
       id="path534"
       d="m -719.28555,-837.62869 c -0.0219,-0.0313 -0.0773,-0.0105 -0.12427,0.0224 -0.11318,0.0793 -0.16264,0.13455 -0.3092,0.2811 0.18784,-0.0876 0.25672,-0.11516 0.3699,-0.19441 0.047,-0.0329 0.0855,-0.0778 0.0636,-0.10911 z"
       fill="#ce1126"
       style="stroke-width:0.0176389" />
    <path
       id="path513"
       d="m -719.20122,-837.49631 c -0.0191,-0.0331 -0.0761,-0.0172 -0.12575,0.0115 -0.11966,0.0691 -0.17375,0.11986 -0.33252,0.25308 0.19476,-0.0709 0.26578,-0.0923 0.38544,-0.16143 0.0497,-0.0287 0.0919,-0.0701 0.0728,-0.10315 z"
       fill="#ce1126"
       style="stroke-width:0.0176389" />
    <path
       id="path516"
       d="m -719.12874,-837.35709 c -0.0162,-0.0346 -0.0743,-0.0237 -0.12628,5e-4 -0.12522,0.0584 -0.18353,0.10426 -0.35331,0.22314 0.2002,-0.0536 0.27282,-0.0688 0.39804,-0.12723 0.052,-0.0242 0.0977,-0.0618 0.0815,-0.0964 z"
       fill="#ce1126"
       style="stroke-width:0.0176389" />
    <path
       id="path561"
       d="m -719.06868,-837.21208 c -0.0131,-0.0359 -0.072,-0.0301 -0.12583,-0.0105 -0.12984,0.0473 -0.19193,0.0879 -0.37142,0.1915 0.20411,-0.036 0.27778,-0.0448 0.40761,-0.0921 0.0539,-0.0196 0.10271,-0.053 0.0896,-0.0889 z"
       fill="#ce1126"
       style="stroke-width:0.0176389" />
    <path
       id="path564"
       d="m -719.02148,-837.06239 c -0.01,-0.0369 -0.0691,-0.0363 -0.12444,-0.0214 -0.13346,0.0358 -0.19886,0.0708 -0.38669,0.15839 0.20646,-0.0181 0.28062,-0.0204 0.41408,-0.0562 0.0554,-0.0148 0.10694,-0.0439 0.097,-0.0808 z"
       fill="#ce1126"
       style="stroke-width:0.0176389" />
    <path
       id="path537"
       d="m -722.53117,-836.90915 c -0.007,0.0376 0.0473,0.0621 0.10372,0.072 0.13607,0.024 0.21015,0.0199 0.4174,0.0199 -0.19475,-0.0709 -0.26295,-0.1001 -0.39902,-0.12409 -0.0565,-0.01 -0.11547,-0.005 -0.1221,0.0322 z"
       fill="#ce1126"
       style="stroke-width:0.0176389" />
    <path
       id="path540"
       d="m -722.4972,-837.06239 c -0.01,0.0369 0.0417,0.066 0.097,0.0808 0.13346,0.0358 0.20762,0.0381 0.41408,0.0562 -0.18783,-0.0876 -0.25323,-0.12263 -0.38669,-0.15839 -0.0554,-0.0148 -0.11455,-0.0155 -0.12444,0.0214 z"
       fill="#ce1126"
       style="stroke-width:0.0176389" />
    <path
       id="path495"
       d="m -722.45,-837.21208 c -0.0131,0.0359 0.0358,0.0693 0.0896,0.0889 0.12983,0.0473 0.2035,0.0561 0.40761,0.0921 -0.17949,-0.10363 -0.24158,-0.14424 -0.37142,-0.1915 -0.0539,-0.0196 -0.11276,-0.0254 -0.12583,0.0105 z"
       fill="#ce1126"
       style="stroke-width:0.0176389" />
    <path
       id="path498"
       d="m -722.38994,-837.35709 c -0.0161,0.0346 0.0296,0.0722 0.0815,0.0964 0.12522,0.0584 0.19784,0.0736 0.39804,0.12722 -0.16978,-0.11888 -0.22809,-0.16475 -0.35331,-0.22314 -0.052,-0.0242 -0.11013,-0.0351 -0.12628,-5e-4 z"
       fill="#ce1126"
       style="stroke-width:0.0176389" />
    <path
       id="path567"
       d="m -722.31746,-837.49631 c -0.0191,0.0331 0.0232,0.0745 0.0728,0.10315 0.11966,0.0691 0.19068,0.0906 0.38544,0.16143 -0.15877,-0.13322 -0.21286,-0.184 -0.33252,-0.25308 -0.0497,-0.0287 -0.10665,-0.0446 -0.12575,-0.0115 z"
       fill="#ce1126"
       style="stroke-width:0.0176389" />
    <path
       id="path570"
       d="m -722.23313,-837.62869 c -0.0219,0.0313 0.0166,0.0762 0.0636,0.10911 0.11318,0.0793 0.18206,0.10682 0.3699,0.19441 -0.14656,-0.14655 -0.19602,-0.20185 -0.3092,-0.2811 -0.047,-0.0329 -0.10235,-0.0537 -0.12427,-0.0224 z"
       fill="#ce1126"
       style="stroke-width:0.0176389" />
    <path
       id="path501"
       d="m -722.13758,-837.75321 c -0.0246,0.0293 0.01,0.0774 0.0538,0.11424 0.10585,0.0888 0.17206,0.12227 0.35155,0.2259 -0.13322,-0.15876 -0.17767,-0.21816 -0.28352,-0.30698 -0.0439,-0.0368 -0.0973,-0.0624 -0.12184,-0.0332 z"
       fill="#ce1126"
       style="stroke-width:0.0176389" />
    <path
       id="path504"
       d="m -722.03154,-837.86893 c -0.027,0.027 0.003,0.0779 0.0436,0.11849 0.0977,0.0977 0.16075,0.13681 0.33052,0.25569 -0.11887,-0.16978 -0.15798,-0.23282 -0.25568,-0.33053 -0.0405,-0.0405 -0.0915,-0.0707 -0.11849,-0.0436 z"
       fill="#ce1126"
       style="stroke-width:0.0176389" />
    <path
       id="path549"
       d="m -721.91582,-837.97497 c -0.0293,0.0246 -0.004,0.0779 0.0332,0.12185 0.0888,0.10584 0.14821,0.15029 0.30698,0.28352 -0.10363,-0.17949 -0.13709,-0.24571 -0.22591,-0.35155 -0.0368,-0.0439 -0.085,-0.0784 -0.11423,-0.0538 z"
       fill="#ce1126"
       style="stroke-width:0.0176389" />
    <path
       id="path552"
       d="m -721.7913,-838.07052 c -0.0313,0.0219 -0.0105,0.0773 0.0224,0.12427 0.0793,0.11319 0.13454,0.16265 0.2811,0.3092 -0.0876,-0.18784 -0.11516,-0.25672 -0.19441,-0.3699 -0.0329,-0.047 -0.0778,-0.0855 -0.10911,-0.0636 z"
       fill="#ce1126"
       style="stroke-width:0.0176389" />
    <path
       id="path489"
       d="m -721.65892,-838.15485 c -0.0331,0.0191 -0.0172,0.0761 0.0115,0.12575 0.0691,0.11966 0.11986,0.17375 0.25308,0.33252 -0.0709,-0.19476 -0.0923,-0.26578 -0.16143,-0.38544 -0.0287,-0.0496 -0.0701,-0.0919 -0.10315,-0.0728 z"
       fill="#ce1126"
       style="stroke-width:0.0176389" />
    <path
       id="path492"
       d="m -721.5197,-838.22733 c -0.0346,0.0162 -0.0237,0.0743 4.9e-4,0.12628 0.0584,0.12522 0.10427,0.18354 0.22314,0.35331 -0.0536,-0.20019 -0.0688,-0.27281 -0.12722,-0.39804 -0.0242,-0.052 -0.0618,-0.0977 -0.0964,-0.0816 z"
       fill="#ce1126"
       style="stroke-width:0.0176389" />
    <path
       id="path507"
       d="m -721.37469,-838.28739 c -0.0359,0.0131 -0.0301,0.072 -0.0105,0.12584 0.0473,0.12984 0.0879,0.19192 0.19149,0.37141 -0.036,-0.2041 -0.0448,-0.27777 -0.092,-0.40761 -0.0196,-0.0539 -0.053,-0.10271 -0.0889,-0.0896 z"
       fill="#ce1126"
       style="stroke-width:0.0176389" />
    <path
       id="path510"
       d="m -721.225,-838.33459 c -0.0369,0.01 -0.0363,0.0691 -0.0214,0.12444 0.0358,0.13347 0.0708,0.19886 0.1584,0.3867 -0.0181,-0.20647 -0.0204,-0.28062 -0.0562,-0.41409 -0.0148,-0.0554 -0.0439,-0.10694 -0.0808,-0.0971 z"
       fill="#ce1126"
       style="stroke-width:0.0176389" />
    <path
       id="path483"
       d="m -721.07176,-838.36856 c -0.0376,0.007 -0.0422,0.0656 -0.0322,0.1221 0.024,0.13607 0.0532,0.20427 0.1241,0.39903 0,-0.20726 0.004,-0.28134 -0.0199,-0.41741 -0.01,-0.0564 -0.0344,-0.11036 -0.072,-0.10372 z"
       fill="#ce1126"
       style="stroke-width:0.0176389" />
    <path
       id="path486"
       d="m -720.91615,-838.38905 c -0.0381,0.003 -0.0477,0.0617 -0.0427,0.11883 0.012,0.13765 0.0352,0.20813 0.0888,0.40833 0.0181,-0.20647 0.0286,-0.27991 0.0166,-0.41755 -0.005,-0.0571 -0.0246,-0.11294 -0.0627,-0.10961 z"
       fill="#ce1126"
       style="stroke-width:0.0176389" />
    <path
       d="m -724.72809,-836.97596 h 7.9375 v 3.66007 h -7.9375 z"
       stroke-width="0.0927788"
       id="path582" />
    <path
       d="m -724.72809,-836.84367 h 7.9375 v 3.52778 h -7.9375 z"
       fill="#ce1126"
       stroke-width="0.0249453"
       id="path585" />
    <path
       d="m -724.72809,-835.07978 h 7.9375 v 1.76389 h -7.9375 z"
       fill="#339e35"
       id="path588"
       style="stroke-width:0.0176389" />
  </g>
</svg>
