<svg xmlns="http://www.w3.org/2000/svg"><path d="m9.06 5.01v-1.02q0-.48-.091-.899-.087-.42-.255-.779-.15-.31-.37-.572-.21-.26-.495-.442-.28-.19-.64-.293-.35-.11-.755-.106-.4 0-.74.101-.34.1-.615.288-.28.19-.495.462-.21.27-.361.601-.15.35-.236.764-.077.41-.0769.875v1.02q0 .43.067.822.072.39.207.721.15.36.37.649.22.28.5.486.28.19.63.298.35.11.755.106.38 0 .716-.0962.34-.091.615-.26.31-.19.548-.481.24-.29.404-.635.15-.35.236-.75.082-.41.0817-.861zm-1.37-1.03v1.03q0 .26-.029.5-.024.24-.0768.442-.067.26-.183.466-.11.2-.274.336-.13.11-.298.168-.17.058-.37.0577-.21 0-.38-.0625-.16-.062-.293-.178-.14-.13-.245-.336-.1-.21-.154-.466-.048-.2-.0673-.438t-.0192-.49v-1.03q0-.27.019-.514.024-.25.0723-.452.062-.27.173-.471.12-.2.279-.337.12-.091.269-.139.15-.048.341-.0481.2 0 .356.053.16.053.293.149.16.13.284.336.12.2.192.462.058.21.082.452.029.24.029.51z"/></svg>
