<?xml version="1.0" encoding="UTF-8" standalone="no"?>
<!-- Creator: CorelDRAW Home & Student X8 -->

<svg
   xml:space="preserve"
   width="7.9375mm"
   height="5.291667mm"
   version="1.1"
   style="clip-rule:evenodd;fill-rule:evenodd;image-rendering:optimizeQuality;shape-rendering:geometricPrecision;text-rendering:geometricPrecision"
   viewBox="0 0 793.75 529.1667"
   id="svg12"
   sodipodi:docname="Oksitanya.svg"
   inkscape:version="1.4 (86a8ad7, 2024-10-11)"
   xmlns:inkscape="http://www.inkscape.org/namespaces/inkscape"
   xmlns:sodipodi="http://sodipodi.sourceforge.net/DTD/sodipodi-0.dtd"
   xmlns="http://www.w3.org/2000/svg"
   xmlns:svg="http://www.w3.org/2000/svg"><sodipodi:namedview
   id="namedview12"
   pagecolor="#ffffff"
   bordercolor="#000000"
   borderopacity="0.25"
   inkscape:showpageshadow="2"
   inkscape:pageopacity="0.0"
   inkscape:pagecheckerboard="0"
   inkscape:deskcolor="#d1d1d1"
   inkscape:document-units="mm"
   inkscape:zoom="1.4234583"
   inkscape:cx="425.37248"
   inkscape:cy="283.46457"
   inkscape:window-width="1920"
   inkscape:window-height="1009"
   inkscape:window-x="-8"
   inkscape:window-y="-8"
   inkscape:window-maximized="1"
   inkscape:current-layer="Layer_x0020_1" />
 <defs
   id="defs1">
  <style
   type="text/css"
   id="style1">
   <![CDATA[
    .fil0 {fill:#DA1F24}
    .fil1 {fill:#FCDF06}
   ]]>
  </style>
 </defs>
 <g
   id="Layer_x0020_1"
   inkscape:label="Layer 1"
   inkscape:groupmode="layer">
  <metadata
   id="CorelCorpID_0Corel-Layer" />
  <rect
   class="fil0"
   width="793.75"
   height="529.16669"
   id="rect1"
   x="0"
   y="0"
   style="stroke-width:0.0352778" />
  <g
   id="_244798064"
   transform="scale(0.03527778)">
   <path
   class="fil1"
   d="m 5194,7543 257,201 c 413,323 1086,1012 1269,2180 l 49,308 236,-207 c 395,-346 1572,-1252 3292,-1500 -248,1720 -1155,2896 -1501,3292 l -206,236 308,48 c 1167,184 1857,857 2180,1269 l 201,258 201,-258 c 323,-412 1013,-1085 2180,-1269 l 308,-48 -207,-236 c -346,-396 -1252,-1572 -1500,-3292 1720,248 2896,1154 3292,1500 l 236,207 48,-308 c 184,-1168 857,-1857 1269,-2180 l 258,-201 -258,-202 C 16694,7019 16021,6329 15837,5162 l -48,-308 -236,206 c -396,346 -1572,1253 -3292,1501 248,-1720 1154,-2897 1500,-3292 l 207,-236 -308,-49 C 12493,2801 11803,2128 11480,1715 l -201,-257 -201,257 c -323,413 -1013,1086 -2180,1269 l -308,49 206,236 c 346,395 1253,1572 1501,3292 C 8577,6313 7400,5406 7005,5060 l -236,-206 -49,308 C 6537,6329 5864,7019 5451,7341 Z m 990,0 c 785,-728 966,-1535 966,-1535 1146,966 2932,1183 3825,1231 -48,-893 -265,-2679 -1231,-3825 0,0 807,-181 1535,-966 727,785 1534,966 1534,966 -965,1146 -1183,2932 -1231,3825 893,-48 2680,-265 3825,-1231 0,0 182,807 966,1535 -784,727 -966,1534 -966,1534 -1145,-965 -2932,-1183 -3825,-1231 48,893 266,2680 1231,3825 0,0 -807,182 -1534,966 -728,-784 -1535,-966 -1535,-966 966,-1145 1183,-2932 1231,-3825 -893,48 -2679,266 -3825,1231 0,0 -181,-807 -966,-1534 z"
   id="path1" />
   <circle
   class="fil1"
   cx="4985"
   cy="7543"
   r="508"
   id="circle1" />
   <circle
   class="fil1"
   cx="6699"
   cy="4655"
   r="508"
   id="circle2" />
   <circle
   class="fil1"
   cx="6699"
   cy="10431"
   r="508"
   id="circle3" />
   <circle
   class="fil1"
   cx="8391"
   cy="2963"
   r="508"
   id="circle4" />
   <circle
   class="fil1"
   cx="8391"
   cy="12123"
   r="508"
   id="circle5" />
   <circle
   class="fil1"
   cx="11279"
   cy="1248"
   r="508"
   id="circle6" />
   <circle
   class="fil1"
   cx="11279"
   cy="13837"
   r="508"
   id="circle7" />
   <circle
   class="fil1"
   cx="14167"
   cy="2963"
   r="508"
   id="circle8" />
   <circle
   class="fil1"
   cx="14167"
   cy="12123"
   r="508"
   id="circle9" />
   <circle
   class="fil1"
   cx="15859"
   cy="4655"
   r="508"
   id="circle10" />
   <circle
   class="fil1"
   cx="15859"
   cy="10431"
   r="508"
   id="circle11" />
   <circle
   class="fil1"
   cx="17573"
   cy="7543"
   r="508"
   id="circle12" />
  </g>
 </g>
</svg>
