<svg xmlns="http://www.w3.org/2000/svg" width="30" height="20" fill="#FDDD00" viewBox="-400 -267 797.96 530.973"><path fill="#D4001C" d="M-400-267h797.96v530.973H-400z"/><g id="c"><g id="b"><circle cy="-223.2256" r="18"/><g id="a"><path d="M34.825-34.825c8.792-61.003 40.948-102.719 53.224-116.756l7.313-8.362-10.924-1.72c-41.392-6.5157-65.857-30.3839-77.3-45.0157L-5-215.8047l5 35.125C25.799-152.85 54.425-146.425 54.425-146.425 20.183-105.798 12.466-42.438 10.759-10.759l20-15Z"/><circle cx="102.424" cy="-162.425" r="18"/></g><use href="#a" transform="matrix(0 -1 -1 0 0 0)"/></g><use href="#b" transform="rotate(90)"/></g><path d="m295.39-142.868-25.48 26.624 4.738-37.077-36.098-2.614 31.524-19.109-19.602-30.544 34.139 12.903 10.779-35.28 10.779 35.28 34.139-12.903-19.601 30.544 31.523 19.109-36.098 2.614 4.739 37.077z"/><use href="#c" transform="rotate(180)"/></svg>