<svg width="30" height="20" xmlns="http://www.w3.org/2000/svg"><symbol id="hin" width="30" height="20" fill="#07038D" viewBox="-45 -30 90 60"><path d="m-45-30h90v60h-90z" fill="#FFF"/><path d="m-45-30h90v20h-90z" fill="#FF6820"/><path d="m-45 10h90v20h-90z" fill="#046A38"/><circle r="9.25"/><circle r="8" fill="#FFF"/><circle r="1.6"/><g id="d"><g id="c"><g id="b"><g id="a"><path d="m0-8 .3 4.81409L0-.80235l-.3-2.38356z"/><circle transform="rotate(7.5)" cy="-8" r=".35"/></g><use transform="scale(-1)" href="#a"/></g><use transform="rotate(15)" href="#b"/></g><use transform="rotate(30)" href="#c"/></g><use transform="rotate(60)" href="#d"/><use transform="rotate(120)" href="#d"/></symbol><use x="-5.5" href="#hin"/><path d="M19 0h11v20H19z" fill="#fff"/><path transform="matrix(0 -.2.2 0 0 0)" d="m-68.8 125v-4.9q0-2.4-.45-4.4-.42-2.1-1.24-3.8-.75-1.5-1.8-2.8-1.03-1.3-2.41-2.1-1.38-1-3.11-1.5-1.71-.5-3.68-.5-1.94 0-3.6.5t-3 1.4q-1.35.9-2.41 2.3-1.03 1.3-1.75 2.9-.75 1.7-1.15 3.7-.37 2-.37 4.3v4.9q0 2.1.32 4 .36 1.9 1.01 3.5.73 1.8 1.8 3.2 1.08 1.4 2.44 2.4 1.38.9 3.06 1.4 1.69.5 3.68.5 1.87 0 3.48-.4 1.64-.5 3-1.3 1.5-.9 2.67-2.3t1.96-3.1q.75-1.7 1.15-3.7t.4-4.2zm-6.67-5v5q0 1.3-.14 2.5-.12 1.1-.38 2.1-.32 1.3-.89 2.3-.53 1-1.33 1.6-.63.6-1.45.8-.82.3-1.8.3-1.03 0-1.85-.3-.8-.3-1.43-.8-.68-.7-1.19-1.7-.49-1-.75-2.3-.24-.9-.33-2.1-.1-1.1-.1-2.4v-5q0-1.3.1-2.5.12-1.2.35-2.2.31-1.3.84-2.3.57-1 1.36-1.6.59-.5 1.31-.7.75-.2 1.66-.2.96 0 1.74.2.79.3 1.42.8.8.6 1.38 1.6.59 1 .94 2.2.28 1 .4 2.2.14 1.2.14 2.5zm25.72 6.8 6.41 12.8h7.04v-.3l-7.32-14.1q1.4-.6 2.53-1.5 1.14-.9 1.96-2 .8-1.2 1.22-2.6.44-1.5.44-3.3 0-2.6-.89-4.5-.86-1.9-2.48-3.2-1.64-1.3-3.93-1.9-2.29-.7-5.12-.7h-11.43v34.1h6.58v-12.8zm-4.99-5.3v-10.7h4.85q1.35 0 2.41.3 1.05.4 1.77 1 .82.7 1.22 1.7.42 1 .42 2.4 0 1.1-.32 2-.31 1-.92 1.6-.72.8-1.89 1.3-1.15.4-2.67.4zm26.14-16v5.3h6.48v23.5h-6.48v5.3h19.705v-5.3h-6.645v-23.5h6.645v-5.3z"/></svg>
