<?xml version="1.0"?>
<svg width="30" height="20" xmlns="http://www.w3.org/2000/svg" xmlns:xlink="http://www.w3.org/1999/xlink"><symbol id="hin" width="30" height="20" fill="#07038D" viewBox="-45 -30 90 60"><path d="m-45-30h90v60h-90z" fill="#FFF"/><path d="m-45-30h90v20h-90z" fill="#FF6820"/><path d="m-45 10h90v20h-90z" fill="#046A38"/><circle r="9.25"/><circle r="8" fill="#FFF"/><circle r="1.6"/><g id="d"><g id="c"><g id="b"><g id="a"><path d="m0-8 .3 4.81409L0-.80235l-.3-2.38356z"/><circle transform="rotate(7.5)" cy="-8" r=".35"/></g><use transform="scale(-1)" xlink:href="#a"/></g><use transform="rotate(15)" xlink:href="#b"/></g><use transform="rotate(30)" xlink:href="#c"/></g><use transform="rotate(60)" xlink:href="#d"/><use transform="rotate(120)" xlink:href="#d"/></symbol><use x="-5.5" href="#hin"/><path d="M19 0h11v20H19z" fill="#fff"/><path transform="matrix(0 -.1.1 0 0 0)" d="m-137.6 250.1v-10q0-4.6-.9-8.7-.8-4.1-2.5-7.6-1.5-3-3.6-5.6-2-2.5-4.8-4.3-2.8-1.9-6.2-2.8-3.4-1.1-7.4-1.1-3.9 0-7.2 1t-6 2.8q-2.7 1.9-4.8 4.5t-3.5 5.9q-1.5 3.4-2.3 7.4-.7 4-.7 8.5v10q0 4.2.6 8 .7 3.8 2 7 1.5 3.5 3.6 6.3 2.2 2.8 4.9 4.7 2.8 1.9 6.1 2.9 3.4 1.1 7.4 1.1 3.7 0 6.9-1 3.3-.9 6-2.5 3-1.9 5.4-4.7 2.3-2.8 3.9-6.2 1.5-3.3 2.3-7.3.8-3.9.8-8.3zm-13.3-10.1v10.1q0 2.5-.3 4.8-.3 2.4-.8 4.3-.6 2.6-1.8 4.6-1 1.9-2.6 3.2-1.3 1.1-2.9 1.7-1.7.5-3.6.5-2.1 0-3.7-.6t-2.9-1.7q-1.3-1.3-2.4-3.3-.9-2-1.5-4.5-.4-2-.6-4.3t-.2-4.7v-10.1q0-2.6.2-5t.7-4.4q.6-2.6 1.7-4.6 1.1-1.9 2.7-3.2 1.2-.9 2.6-1.4 1.5-.5 3.3-.5 1.9 0 3.5.6 1.6.5 2.8 1.4 1.6 1.3 2.8 3.3 1.2 1.9 1.9 4.5.5 2 .8 4.4.3 2.3.3 4.9zm51.39 13.7 12.83 25.4h14.09v-.6l-14.65-28.1q2.8-1.3 5.05-3 2.29-1.7 3.93-4.1 1.59-2.3 2.44-5.2.89-2.9.89-6.6 0-5-1.78-8.9-1.73-3.8-4.96-6.4-3.28-2.6-7.87-3.9t-10.25-1.3h-22.81v68.1h13.1v-25.4zm-9.99-10.7v-21.4h9.71q2.72 0 4.82.7 2.11.7 3.56 1.9 1.64 1.3 2.43 3.4.85 2.1.85 4.8 0 2.3-.66 4.1-.61 1.8-1.82 3.1-1.46 1.7-3.8 2.5-2.29.9-5.33.9zm52.3-32v10.6h12.96v46.9h-12.96v10.6h39.41v-10.6h-13.29v-46.9h13.29v-10.6z"/></svg>
