<svg width="30" height="20" xmlns="http://www.w3.org/2000/svg"><symbol id="hin" width="30" height="20" fill="#07038D" viewBox="-45 -30 90 60"><path d="m-45-30h90v60h-90z" fill="#FFF"/><path d="m-45-30h90v20h-90z" fill="#FF6820"/><path d="m-45 10h90v20h-90z" fill="#046A38"/><circle r="9.25"/><circle r="8" fill="#FFF"/><circle r="1.6"/><g id="d"><g id="c"><g id="b"><g id="a"><path d="m0-8 .3 4.81409L0-.80235l-.3-2.38356z"/><circle transform="rotate(7.5)" cy="-8" r=".35"/></g><use transform="scale(-1)" href="#a"/></g><use transform="rotate(15)" href="#b"/></g><use transform="rotate(30)" href="#c"/></g><use transform="rotate(60)" href="#d"/><use transform="rotate(120)" href="#d"/></symbol><use x="-5.5" href="#hin"/><path d="M19 0h11v20H19z" fill="#fff"/><symbol id="O"><path d="m9.06 5.01v-1.02q0-.48-.091-.899-.087-.42-.255-.779-.15-.31-.37-.572-.21-.26-.495-.442-.28-.19-.64-.293-.35-.11-.755-.106-.4 0-.74.101-.34.1-.615.288-.28.19-.495.462-.21.27-.361.601-.15.35-.236.764-.077.41-.0769.875v1.02q0 .43.067.822.072.39.207.721.15.36.37.649.22.28.5.486.28.19.63.298.35.11.755.106.38 0 .716-.0962.34-.091.615-.26.31-.19.548-.481.24-.29.404-.635.15-.35.236-.75.082-.41.0817-.861zm-1.37-1.03v1.03q0 .26-.029.5-.024.24-.0768.442-.067.26-.183.466-.11.2-.274.336-.13.11-.298.168-.17.058-.37.0577-.21 0-.38-.0625-.16-.062-.293-.178-.14-.13-.245-.336-.1-.21-.154-.466-.048-.2-.0673-.438t-.0192-.49v-1.03q0-.27.019-.514.024-.25.0723-.452.062-.27.173-.471.12-.2.279-.337.12-.091.269-.139.15-.048.341-.0481.2 0 .356.053.16.053.293.149.16.13.284.336.12.2.192.462.058.21.082.452.029.24.029.51z"/></symbol><symbol id="R"><path d="m6.55 5.38 1.32 2.62h1.45v-.0625l-1.5-2.89q.29-.13.519-.308.24-.18.404-.418.16-.24.25-.534.091-.3.0913-.678 0-.52-.183-.914-.18-.39-.51-.659-.34-.26-.808-.399-.47-.14-1.05-.139h-2.35v7h1.35v-2.62zm-1.02-1.1v-2.19h.995q.28 0 .495.067.22.067.365.192.17.14.25.356.087.21.087.49 0 .23-.067.418-.062.19-.188.322-.15.17-.389.26-.24.087-.548.087z"/></symbol><symbol id="I"><path d="m4.47 1v1.09h1.33v4.82h-1.33v1.09h4.05v-1.09h-1.37v-4.82h1.37v-1.09z"/></symbol><g transform="rotate(-90 15 -5)"><use x="-13" href="#O"/><use x="-6.5" href="#R"/><use href="#I"/></g></svg>
