<?xml version="1.0" encoding="UTF-8" standalone="no"?>
<!-- Creator: CorelDRAW Home & Student X8 -->

<svg
   xml:space="preserve"
   width="7.9375mm"
   height="5.2916665mm"
   version="1.1"
   style="clip-rule:evenodd;fill-rule:evenodd;image-rendering:optimizeQuality;shape-rendering:geometricPrecision;text-rendering:geometricPrecision"
   viewBox="0 0 793.75 529.16665"
   inkscape:version="1.4 (86a8ad7, 2024-10-11)"
   sodipodi:docname="Osmanlı Üç Hilal.svg"
   id="svg1"
   xmlns:inkscape="http://www.inkscape.org/namespaces/inkscape"
   xmlns:sodipodi="http://sodipodi.sourceforge.net/DTD/sodipodi-0.dtd"
   xmlns="http://www.w3.org/2000/svg"
   xmlns:svg="http://www.w3.org/2000/svg">
 <defs
   id="defs1">
  <style
   type="text/css"
   id="style1">
   <![CDATA[
    .fil1 {fill:#FEFEFE}
    .fil0 {fill:#1F993C;fill-rule:nonzero}
   ]]>
  </style>
 </defs>
 <g
   id="Layer_x0020_1"
   inkscape:label="Layer 1"
   inkscape:groupmode="layer">
  <metadata
   id="CorelCorpID_0Corel-Layer" />
  <sodipodi:namedview
   pagecolor="#ffffff"
   bordercolor="#666666"
   borderopacity="1"
   objecttolerance="10"
   gridtolerance="10"
   guidetolerance="10"
   inkscape:pageopacity="0"
   inkscape:pageshadow="2"
   inkscape:window-width="1920"
   inkscape:window-height="1009"
   id="namedview6"
   showgrid="false"
   inkscape:zoom="7.3539105"
   inkscape:cx="52.421089"
   inkscape:cy="6.1871843"
   inkscape:window-x="-8"
   inkscape:window-y="-8"
   inkscape:window-maximized="1"
   inkscape:current-layer="Layer_x0020_1"
   inkscape:snap-to-guides="true"
   inkscape:snap-grids="true"
   inkscape:showpageshadow="2"
   inkscape:pagecheckerboard="0"
   inkscape:deskcolor="#d1d1d1"
   inkscape:document-units="mm"
   showguides="true">
   <inkscape:grid
   type="xygrid"
   id="grid2830"
   originx="0"
   originy="0"
   spacingy="1"
   spacingx="1"
   units="px"
   visible="false" />
  </sodipodi:namedview>
  <path
   id="path12"
   class="fil0"
   d="M 0,0 H 793.75001 V 529.16667 H 0 Z m 0,0 z"
   inkscape:connector-curvature="0"
   style="stroke-width:0.0352778" />
  <path
   id="circle2996"
   class="fil1"
   d="m 466.93667,163.15972 c -58.13778,0 -105.33944,45.43778 -105.33944,101.42362 0,55.98583 47.20166,101.42361 105.33944,101.42361 37.25334,0 69.95584,-18.69722 88.68834,-46.84889 -15.41639,16.33361 -37.67667,26.56417 -62.37112,26.56417 -46.49611,0 -84.24333,-36.33612 -84.24333,-81.13889 0,-44.80278 37.74722,-81.13889 84.24333,-81.13889 24.69445,0 46.95473,10.23055 62.37112,26.56416 -18.7325,-28.15166 -51.435,-46.84889 -88.68834,-46.84889 z"
   inkscape:connector-curvature="0"
   style="stroke-width:0.0352778" />
  <path
   id="path2996"
   class="fil1"
   d="m 255.27,286.63195 c -58.13778,0 -105.33944,45.43778 -105.33944,101.42361 0,55.98583 47.20166,101.42361 105.33944,101.42361 37.25334,0 69.95584,-18.69722 88.68834,-46.84889 -15.41639,16.33361 -37.67667,26.56417 -62.37111,26.56417 -46.49612,0 -84.24334,-36.33611 -84.24334,-81.13889 0,-44.80278 37.74722,-81.13889 84.24334,-81.13889 24.69444,0 46.95472,10.23056 62.37111,26.56417 -18.7325,-28.15167 -51.435,-46.84889 -88.68834,-46.84889 z"
   inkscape:connector-curvature="0"
   style="stroke-width:0.0352778" />
  <path
   id="path2998"
   class="fil1"
   d="m 255.27,39.6875 c -58.13778,0 -105.33944,45.437779 -105.33944,101.42361 0,55.98584 47.20166,101.42361 105.33944,101.42361 37.25334,0 69.95584,-18.69722 88.68834,-46.84888 -15.41639,16.33361 -37.67667,26.56416 -62.37111,26.56416 -46.49612,0 -84.24334,-36.33611 -84.24334,-81.13889 0,-44.802776 37.74722,-81.138887 84.24334,-81.138887 24.69444,0 46.95472,10.230556 62.37111,26.564167 C 325.22584,58.384723 292.52334,39.6875 255.27,39.6875 Z"
   inkscape:connector-curvature="0"
   style="stroke-width:0.0352778" />
 </g>
</svg>
