<?xml version="1.0"?>
<svg width="30" height="20" xmlns="http://www.w3.org/2000/svg" xmlns:xlink="http://www.w3.org/1999/xlink"><symbol id="hin" width="30" height="20" fill="#07038D" viewBox="-45 -30 90 60"><path d="m-45-30h90v60h-90z" fill="#FFF"/><path d="m-45-30h90v20h-90z" fill="#FF6820"/><path d="m-45 10h90v20h-90z" fill="#046A38"/><circle r="9.25"/><circle r="8" fill="#FFF"/><circle r="1.6"/><g id="d"><g id="c"><g id="b"><g id="a"><path d="m0-8 .3 4.81409L0-.80235l-.3-2.38356z"/><circle transform="rotate(7.5)" cy="-8" r=".35"/></g><use transform="scale(-1)" xlink:href="#a"/></g><use transform="rotate(15)" xlink:href="#b"/></g><use transform="rotate(30)" xlink:href="#c"/></g><use transform="rotate(60)" xlink:href="#d"/><use transform="rotate(120)" xlink:href="#d"/></symbol><use x="-5.5" href="#hin"/><path d="M19 0h11v20H19z" fill="#fff"/><path transform="matrix(0 -.1.1 0 0 0)" d="m-171.2 254.1h10.2q5.6 0 10.1-1.6t7.6-4.4q3.2-2.8 4.9-6.7t1.7-8.5q0-4.9-1.7-8.9t-4.9-6.9q-3.1-2.9-7.6-4.5t-10.1-1.6h-23.3v68.1h13.1zm0-10.6v-21.9h10.2q2.8 0 4.9.9 2 .9 3.4 2.5 1.4 1.5 2 3.6.7 2 .7 4.4 0 2.1-.7 4-.6 1.9-2 3.3-1.4 1.5-3.4 2.3-2.1.9-4.9.9zm82.08 21.4 3.98 14.2h13.86l-21.91-68.1h-11.91l-22.4 68.1h13.9l4-14.2zm-17.18-11.2 7.12-25.1 6.97 25.1zm91.13 25.4v-68.1h-13.2l-.1 43.7-18.81-43.7h-13.25v68.1h13.25v-43.9l18.96 43.9z"/></svg>
