<svg width="30" height="20" xmlns="http://www.w3.org/2000/svg"><symbol id="hin" width="30" height="20" fill="#07038D" viewBox="-45 -30 90 60"><path d="m-45-30h90v60h-90z" fill="#FFF"/><path d="m-45-30h90v20h-90z" fill="#FF6820"/><path d="m-45 10h90v20h-90z" fill="#046A38"/><circle r="9.25"/><circle r="8" fill="#FFF"/><circle r="1.6"/><g id="d"><g id="c"><g id="b"><g id="a"><path d="m0-8 .3 4.81409L0-.80235l-.3-2.38356z"/><circle transform="rotate(7.5)" cy="-8" r=".35"/></g><use transform="scale(-1)" href="#a"/></g><use transform="rotate(15)" href="#b"/></g><use transform="rotate(30)" href="#c"/></g><use transform="rotate(60)" href="#d"/><use transform="rotate(120)" href="#d"/></symbol><use x="-5.5" href="#hin"/><path d="M19 0h11v20H19z" fill="#fff"/><symbol id="P"><path d="m5.61 5.43h1.04q.57 0 1.03-.164.46-.16.788-.457.32-.29.495-.688.18-.4.178-.87 0-.5-.178-.918-.17-.41-.495-.712-.33-.29-.788-.457-.46-.17-1.03-.168h-2.39v7h1.35zm0-1.1v-2.24h1.04q.29 0 .5.091.21.091.356.25.14.16.207.37.072.21.072.457 0 .21-.072.409-.067.19-.207.342-.14.15-.356.236-.21.087-.5.087z"/></symbol><symbol id="A"><path d="m7.62 6.54.409 1.46h1.42l-2.25-7h-1.23l-2.29 7h1.42l.413-1.46zm-1.77-1.15.736-2.58.716 2.58z"/></symbol><symbol id="N"><path d="m8.79 8v-7h-1.36v4.5l-1.94-4.5h-1.36v7h1.36v-4.51l1.95 4.51z"/></symbol><g transform="rotate(-90 15 -5)"><use x="-13" href="#P"/><use x="-6.5" href="#A"/><use href="#N"/></g></svg>
