<svg width="30" height="20" xmlns="http://www.w3.org/2000/svg" xmlns:xlink="http://www.w3.org/1999/xlink"><symbol id="hin" width="30" height="20" fill="#07038D" viewBox="-45 -30 90 60"><path d="m-45-30h90v60h-90z" fill="#FFF"/><path d="m-45-30h90v20h-90z" fill="#FF6820"/><path d="m-45 10h90v20h-90z" fill="#046A38"/><circle r="9.25"/><circle r="8" fill="#FFF"/><circle r="1.6"/><g id="d"><g id="c"><g id="b"><g id="a"><path d="m0-8 .3 4.81409L0-.80235l-.3-2.38356z"/><circle transform="rotate(7.5)" cy="-8" r=".35"/></g><use transform="scale(-1)" xlink:href="#a"/></g><use transform="rotate(15)" xlink:href="#b"/></g><use transform="rotate(30)" xlink:href="#c"/></g><use transform="rotate(60)" xlink:href="#d"/><use transform="rotate(120)" xlink:href="#d"/></symbol><use x="-5.5" href="#hin"/><path d="M19 0h11v20H19z" fill="#fff"/><path transform="matrix(0 -.2.2 0 0 0)" d="m-85.58 127.1h5.08q2.78 0 5.03-.8t3.84-2.3q1.57-1.4 2.41-3.3.86-1.9.86-4.2 0-2.5-.86-4.5-.84-2-2.41-3.5-1.59-1.4-3.84-2.2t-5.03-.8h-11.66v34.1h6.58zm0-5.4v-10.9h5.08q1.4 0 2.43.5 1.03.4 1.73 1.2.68.8 1.01 1.8.35 1 .35 2.2 0 1-.35 2-.33.9-1.01 1.7-.7.7-1.73 1.1t-2.43.4zm41.02 10.7 1.99 7.2h6.93l-10.95-34.1h-5.97l-11.17 34.1h6.93l2.01-7.2zm-8.61-5.5 3.58-12.6 3.49 12.6zm45.586 12.7v-34.1h-6.596v21.9l-9.41-21.9h-6.62v34.1h6.62v-22l9.48 22z"/></svg>
