<?xml version="1.0" encoding="UTF-8" standalone="no"?>
<!-- Created with Inkscape (http://www.inkscape.org/) -->

<svg
   width="7.9375mm"
   height="5.2916698mm"
   viewBox="0 0 7.9375 5.29167"
   version="1.1"
   id="svg1"
   inkscape:version="1.4 (86a8ad7, 2024-10-11)"
   sodipodi:docname="pes.svg"
   xmlns:inkscape="http://www.inkscape.org/namespaces/inkscape"
   xmlns:sodipodi="http://sodipodi.sourceforge.net/DTD/sodipodi-0.dtd"
   xmlns:xlink="http://www.w3.org/1999/xlink"
   xmlns="http://www.w3.org/2000/svg"
   xmlns:svg="http://www.w3.org/2000/svg">
  <sodipodi:namedview
     id="namedview1"
     pagecolor="#ffffff"
     bordercolor="#000000"
     borderopacity="0.25"
     inkscape:showpageshadow="2"
     inkscape:pageopacity="0.0"
     inkscape:pagecheckerboard="0"
     inkscape:deskcolor="#d1d1d1"
     inkscape:document-units="mm"
     inkscape:zoom="0.71891835"
     inkscape:cx="316.44762"
     inkscape:cy="474.32368"
     inkscape:window-width="1904"
     inkscape:window-height="992"
     inkscape:window-x="-26"
     inkscape:window-y="145"
     inkscape:window-maximized="0"
     inkscape:current-layer="layer1" />
  <defs
     id="defs1">
    <radialGradient
       id="n"
       cx="489.07001"
       cy="210.33"
       r="0.345"
       gradientTransform="matrix(0.00861722,0,0,0.0090267,-825.15993,-674.59387)"
       gradientUnits="userSpaceOnUse">
      <stop
         style="stop-color:#fff"
         offset="0"
         id="stop19" />
      <stop
         style="stop-color:#fff;stop-opacity:0"
         offset="1"
         id="stop21" />
    </radialGradient>
    <radialGradient
       id="m"
       cx="477.85999"
       cy="215.27"
       r="0.345"
       gradientUnits="userSpaceOnUse"
       gradientTransform="matrix(0.00881945,0,0,0.00881945,-825.15993,-674.59387)">
      <stop
         style="stop-color:#a50a0a"
         offset=".259"
         id="stop14" />
      <stop
         style="stop-color:#4c0505"
         offset="1"
         id="stop16" />
    </radialGradient>
    <linearGradient
       id="l"
       x1="473.31"
       x2="475.92999"
       y1="237.25"
       y2="270.45001"
       gradientUnits="userSpaceOnUse"
       gradientTransform="matrix(0.00881945,0,0,0.00881945,-825.15993,-674.59387)">
      <stop
         style="stop-color:#f9f0aa"
         offset=".216"
         id="stop39" />
      <stop
         style="stop-color:#b07e09"
         offset="1"
         id="stop41" />
    </linearGradient>
    <linearGradient
       id="k"
       x1="451.54001"
       x2="455.37"
       y1="249.52"
       y2="240.58"
       gradientUnits="userSpaceOnUse"
       gradientTransform="matrix(0.00881945,0,0,0.00881945,-825.15993,-674.59387)">
      <stop
         style="stop-color:#f9f0aa"
         offset=".216"
         id="stop34" />
      <stop
         style="stop-color:#b07e09"
         offset="1"
         id="stop36" />
    </linearGradient>
    <radialGradient
       id="j"
       cx="445.98001"
       cy="252.36"
       r="13.018"
       gradientUnits="userSpaceOnUse"
       xlink:href="#a"
       gradientTransform="matrix(0.00881945,0,0,0.00881945,-825.15993,-674.59387)" />
    <radialGradient
       id="a">
      <stop
         style="stop-color:#f9f0aa"
         offset=".216"
         id="stop4" />
      <stop
         style="stop-color:#b07e09"
         offset="1"
         id="stop6" />
    </radialGradient>
    <linearGradient
       id="i"
       x1="483.13"
       x2="485.5"
       y1="296.66"
       y2="326.57999"
       gradientUnits="userSpaceOnUse"
       gradientTransform="matrix(0.00881945,0,0,0.00881945,-825.15993,-674.59387)">
      <stop
         style="stop-color:#b07e09;stop-opacity:0"
         offset=".216"
         id="stop29" />
      <stop
         style="stop-color:#b07e09"
         offset="1"
         id="stop31" />
    </linearGradient>
    <linearGradient
       id="h"
       x1="473.91"
       x2="472.35999"
       y1="259.17001"
       y2="231.96001"
       gradientUnits="userSpaceOnUse"
       gradientTransform="matrix(0.00881945,0,0,0.00881945,-825.15993,-674.59387)">
      <stop
         style="stop-color:#b07e09;stop-opacity:0"
         offset=".216"
         id="stop24" />
      <stop
         style="stop-color:#b07e09"
         offset="1"
         id="stop26" />
    </linearGradient>
    <radialGradient
       id="g"
       cx="458.39001"
       cy="307.06"
       r="17.354"
       gradientUnits="userSpaceOnUse"
       xlink:href="#a"
       gradientTransform="matrix(0.00881945,0,0,0.00881945,-825.15993,-674.59387)" />
    <radialGradient
       id="radialGradient2">
      <stop
         style="stop-color:#f9f0aa"
         offset=".216"
         id="stop1" />
      <stop
         style="stop-color:#b07e09"
         offset="1"
         id="stop2" />
    </radialGradient>
    <radialGradient
       id="f"
       cx="454.10999"
       cy="308.64001"
       r="9.7799997"
       gradientUnits="userSpaceOnUse"
       xlink:href="#a"
       gradientTransform="matrix(0.00881945,0,0,0.00881945,-825.15993,-674.59387)" />
    <radialGradient
       id="radialGradient5">
      <stop
         style="stop-color:#f9f0aa"
         offset=".216"
         id="stop3" />
      <stop
         style="stop-color:#b07e09"
         offset="1"
         id="stop5" />
    </radialGradient>
    <radialGradient
       id="e"
       cx="451.56"
       cy="313"
       r="10.911"
       gradientUnits="userSpaceOnUse"
       xlink:href="#a"
       gradientTransform="matrix(0.00881945,0,0,0.00881945,-825.15993,-674.59387)" />
    <radialGradient
       id="radialGradient8">
      <stop
         style="stop-color:#f9f0aa"
         offset=".216"
         id="stop7" />
      <stop
         style="stop-color:#b07e09"
         offset="1"
         id="stop8" />
    </radialGradient>
    <radialGradient
       id="d"
       cx="447.42001"
       cy="308.26999"
       r="16.534"
       gradientUnits="userSpaceOnUse"
       xlink:href="#a"
       gradientTransform="matrix(0.00881945,0,0,0.00881945,-825.15993,-674.59387)" />
    <radialGradient
       id="radialGradient10">
      <stop
         style="stop-color:#f9f0aa"
         offset=".216"
         id="stop9" />
      <stop
         style="stop-color:#b07e09"
         offset="1"
         id="stop10" />
    </radialGradient>
  </defs>
  <g
     inkscape:label="Layer 1"
     inkscape:groupmode="layer"
     id="layer1"
     transform="translate(726.23171,714.86421)">
    <path
       id="path827"
       style="fill:#da0000;stroke-width:0.0146991"
       d="m -726.23171,-714.86421 h 7.9375 v 5.29167 h -7.9375 z" />
    <path
       id="path830"
       style="fill:#ffffff;stroke-width:0.0146991"
       d="m -726.23171,-714.86421 h 7.9375 v 3.52778 h -7.9375 z" />
    <path
       id="path833"
       style="fill:#239f40;stroke-width:0.0146991"
       d="m -726.23171,-714.86421 h 7.9375 v 1.76389 h -7.9375 z" />
    <path
       style="color:#000000;fill:#ffffff;stroke-width:0.0146991;-inkscape-stroke:none"
       d="m -725.62075,-713.38997 v 0.084 h -0.14059 v 0.12046 h 0.10688 v -0.038 h -0.0688 v -0.0444 h 0.10255 v 0.0824 h 0.17863 v -0.20447 h -0.0381 v 0.16643 h -0.0322 v -0.16643 h -0.0381 v 0.16643 h -0.0322 v -0.16643 z m -0.49058,0.002 v 0.038 h 0.45687 v -0.038 z m -0.001,0.0824 v 0.12204 h 0.0381 v -0.084 h 0.10252 v 0.0824 h 0.17863 v -0.12046 h -0.10688 v 0.038 h 0.0688 v 0.0444 h -0.10252 v -0.0824 z m 0.0717,0.0824 v 0.038 h 0.0351 v -0.038 z"
       id="path803" />
    <path
       style="color:#000000;fill:#ffffff;stroke-width:0.0146991;-inkscape-stroke:none"
       d="m -726.11133,-713.13954 v 0.0761 h 0.31629 v -0.0761 z m 0.35145,0 v 0.0761 h 0.31629 v -0.0761 z"
       id="path806" />
    <path
       style="color:#000000;fill:#ffffff;stroke-width:0.0146991;-inkscape-stroke:none"
       d="m -726.11133,-711.37332 v 0.0761 h 0.31629 v -0.0761 z m 0.35145,0 v 0.0761 h 0.31629 v -0.0761 z"
       id="path809" />
    <path
       style="color:#000000;fill:#ffffff;stroke-width:0.0146991;-inkscape-stroke:none"
       d="m -725.62075,-711.25283 v 0.084 h -0.14059 v 0.12047 h 0.10688 v -0.038 h -0.0688 v -0.0444 h 0.10255 v 0.0824 h 0.17863 v -0.20447 h -0.0381 v 0.16643 h -0.0322 v -0.16643 h -0.0381 v 0.16643 h -0.0322 v -0.16643 z m -0.49058,0.002 v 0.038 h 0.45687 v -0.038 z m -0.001,0.0824 v 0.12205 h 0.0381 v -0.084 h 0.10252 v 0.0824 h 0.17863 v -0.12047 h -0.10688 v 0.038 h 0.0688 v 0.0444 h -0.10252 v -0.0824 z m 0.0717,0.0824 v 0.038 h 0.0351 v -0.038 z"
       id="path812" />
    <path
       style="color:#000000;fill:#ffffff;stroke-width:0.0146991;-inkscape-stroke:none"
       d="m -724.91787,-713.38997 v 0.084 h -0.14058 v 0.12046 h 0.10691 v -0.038 h -0.0688 v -0.0444 h 0.10252 v 0.0824 h 0.17863 v -0.20447 h -0.038 v 0.16643 h -0.0322 v -0.16643 h -0.0381 v 0.16643 h -0.0322 v -0.16643 z m -0.49058,0.002 v 0.038 h 0.45691 v -0.038 z m -10e-4,0.0824 v 0.12204 h 0.038 v -0.084 h 0.10252 v 0.0824 h 0.17865 v -0.12046 h -0.10691 v 0.038 h 0.0688 v 0.0444 h -0.10252 v -0.0824 z m 0.0717,0.0824 v 0.038 h 0.0351 v -0.038 z"
       id="path755" />
    <path
       style="color:#000000;fill:#ffffff;stroke-width:0.0146991;-inkscape-stroke:none"
       d="m -725.40845,-713.13954 v 0.0761 h 0.31632 v -0.0761 z m 0.35146,0 v 0.0761 h 0.31632 v -0.0761 z"
       id="path758" />
    <path
       style="color:#000000;fill:#ffffff;stroke-width:0.0146991;-inkscape-stroke:none"
       d="m -725.40845,-711.37332 v 0.0761 h 0.31632 v -0.0761 z m 0.35146,0 v 0.0761 h 0.31632 v -0.0761 z"
       id="path761" />
    <path
       style="color:#000000;fill:#ffffff;stroke-width:0.0146991;-inkscape-stroke:none"
       d="m -724.91787,-711.25283 v 0.084 h -0.14058 v 0.12047 h 0.10691 v -0.038 h -0.0688 v -0.0444 h 0.10252 v 0.0824 h 0.17863 v -0.20447 h -0.038 v 0.16643 h -0.0322 v -0.16643 h -0.0381 v 0.16643 h -0.0322 v -0.16643 z m -0.49058,0.002 v 0.038 h 0.45691 v -0.038 z m -10e-4,0.0824 v 0.12205 h 0.038 v -0.084 h 0.10252 v 0.0824 h 0.17865 v -0.12047 h -0.10691 v 0.038 h 0.0688 v 0.0444 h -0.10252 v -0.0824 z m 0.0717,0.0824 v 0.038 h 0.0351 v -0.038 z"
       id="path764" />
    <path
       style="color:#000000;fill:#ffffff;stroke-width:0.0146991;-inkscape-stroke:none"
       d="m -724.21498,-713.38997 v 0.084 h -0.14056 v 0.12046 h 0.10688 v -0.038 h -0.0688 v -0.0444 h 0.10252 v 0.0824 h 0.17866 v -0.20447 h -0.0381 v 0.16643 h -0.0322 v -0.16643 h -0.038 v 0.16643 h -0.0322 v -0.16643 z m -0.49055,0.002 v 0.038 h 0.45687 v -0.038 z m -0.001,0.0824 v 0.12204 h 0.0381 v -0.084 h 0.10252 v 0.0824 h 0.17863 v -0.12046 h -0.10688 v 0.038 h 0.0688 v 0.0444 h -0.10252 v -0.0824 z m 0.0717,0.0824 v 0.038 h 0.0351 v -0.038 z"
       id="path767" />
    <path
       style="color:#000000;fill:#ffffff;stroke-width:0.0146991;-inkscape-stroke:none"
       d="m -724.70553,-713.13954 v 0.0761 h 0.31629 v -0.0761 z m 0.35145,0 v 0.0761 h 0.31629 v -0.0761 z"
       id="path770" />
    <path
       style="color:#000000;fill:#ffffff;stroke-width:0.0146991;-inkscape-stroke:none"
       d="m -724.70553,-711.37332 v 0.0761 h 0.31629 v -0.0761 z m 0.35145,0 v 0.0761 h 0.31629 v -0.0761 z"
       id="path773" />
    <path
       style="color:#000000;fill:#ffffff;stroke-width:0.0146991;-inkscape-stroke:none"
       d="m -724.21498,-711.25283 v 0.084 h -0.14056 v 0.12047 h 0.10688 v -0.038 h -0.0688 v -0.0444 h 0.10252 v 0.0824 h 0.17866 v -0.20447 h -0.0381 v 0.16643 h -0.0322 v -0.16643 h -0.038 v 0.16643 h -0.0322 v -0.16643 z m -0.49055,0.002 v 0.038 h 0.45687 v -0.038 z m -0.001,0.0824 v 0.12205 h 0.0381 v -0.084 h 0.10252 v 0.0824 h 0.17863 v -0.12047 h -0.10688 v 0.038 h 0.0688 v 0.0444 h -0.10252 v -0.0824 z m 0.0717,0.0824 v 0.038 h 0.0351 v -0.038 z"
       id="path776" />
    <path
       style="color:#000000;fill:#ffffff;stroke-width:0.0146991;-inkscape-stroke:none"
       d="m -723.51207,-713.38997 v 0.084 h -0.14058 v 0.12046 h 0.10691 v -0.038 h -0.0688 v -0.0444 h 0.10252 v 0.0824 h 0.17863 v -0.20447 h -0.038 v 0.16643 h -0.0322 v -0.16643 h -0.0381 v 0.16643 h -0.0322 v -0.16643 z m -0.49058,0.002 v 0.038 h 0.45691 v -0.038 z m -10e-4,0.0824 v 0.12204 h 0.038 v -0.084 h 0.10252 v 0.0824 h 0.17865 v -0.12046 h -0.10691 v 0.038 h 0.0688 v 0.0444 h -0.10252 v -0.0824 z m 0.0717,0.0824 v 0.038 h 0.0351 v -0.038 z"
       id="path779" />
    <path
       style="color:#000000;fill:#ffffff;stroke-width:0.0146991;-inkscape-stroke:none"
       d="m -724.00265,-713.13954 v 0.0761 h 0.31632 v -0.0761 z m 0.35146,0 v 0.0761 h 0.31632 v -0.0761 z"
       id="path782" />
    <path
       style="color:#000000;fill:#ffffff;stroke-width:0.0146991;-inkscape-stroke:none"
       d="m -724.00265,-711.37332 v 0.0761 h 0.31632 v -0.0761 z m 0.35146,0 v 0.0761 h 0.31632 v -0.0761 z"
       id="path785" />
    <path
       style="color:#000000;fill:#ffffff;stroke-width:0.0146991;-inkscape-stroke:none"
       d="m -723.51207,-711.25283 v 0.084 h -0.14058 v 0.12047 h 0.10691 v -0.038 h -0.0688 v -0.0444 h 0.10252 v 0.0824 h 0.17863 v -0.20447 h -0.038 v 0.16643 h -0.0322 v -0.16643 h -0.0381 v 0.16643 h -0.0322 v -0.16643 z m -0.49058,0.002 v 0.038 h 0.45691 v -0.038 z m -10e-4,0.0824 v 0.12205 h 0.038 v -0.084 h 0.10252 v 0.0824 h 0.17865 v -0.12047 h -0.10691 v 0.038 h 0.0688 v 0.0444 h -0.10252 v -0.0824 z m 0.0717,0.0824 v 0.038 h 0.0351 v -0.038 z"
       id="path788" />
    <path
       style="color:#000000;fill:#ffffff;stroke-width:0.0146991;-inkscape-stroke:none"
       d="m -722.80918,-713.38997 v 0.084 h -0.14056 v 0.12046 h 0.10688 v -0.038 h -0.0688 v -0.0444 h 0.10252 v 0.0824 h 0.17866 v -0.20447 h -0.0381 v 0.16643 h -0.0322 v -0.16643 h -0.038 v 0.16643 h -0.0322 v -0.16643 z m -0.49055,0.002 v 0.038 h 0.45687 v -0.038 z m -0.001,0.0824 v 0.12204 h 0.0381 v -0.084 h 0.10252 v 0.0824 h 0.17863 v -0.12046 h -0.10688 v 0.038 h 0.0688 v 0.0444 h -0.10252 v -0.0824 z m 0.0717,0.0824 v 0.038 h 0.0351 v -0.038 z"
       id="path719" />
    <path
       style="color:#000000;fill:#ffffff;stroke-width:0.0146991;-inkscape-stroke:none"
       d="m -723.29973,-713.13954 v 0.0761 h 0.31629 v -0.0761 z m 0.35143,0 v 0.0761 h 0.31631 v -0.0761 z"
       id="path722" />
    <path
       style="color:#000000;fill:#ffffff;stroke-width:0.0146991;-inkscape-stroke:none"
       d="m -723.29973,-711.37332 v 0.0761 h 0.31629 v -0.0761 z m 0.35143,0 v 0.0761 h 0.31631 v -0.0761 z"
       id="path725" />
    <path
       style="color:#000000;fill:#ffffff;stroke-width:0.0146991;-inkscape-stroke:none"
       d="m -722.80918,-711.25283 v 0.084 h -0.14056 v 0.12047 h 0.10688 v -0.038 h -0.0688 v -0.0444 h 0.10252 v 0.0824 h 0.17866 v -0.20447 h -0.0381 v 0.16643 h -0.0322 v -0.16643 h -0.038 v 0.16643 h -0.0322 v -0.16643 z m -0.49055,0.002 v 0.038 h 0.45687 v -0.038 z m -0.001,0.0824 v 0.12205 h 0.0381 v -0.084 h 0.10252 v 0.0824 h 0.17863 v -0.12047 h -0.10688 v 0.038 h 0.0688 v 0.0444 h -0.10252 v -0.0824 z m 0.0717,0.0824 v 0.038 h 0.0351 v -0.038 z"
       id="path728" />
    <path
       style="color:#000000;fill:#ffffff;stroke-width:0.0146991;-inkscape-stroke:none"
       d="m -722.10627,-713.38997 v 0.084 h -0.14058 v 0.12046 h 0.10688 v -0.038 h -0.0688 v -0.0444 h 0.10252 v 0.0824 h 0.17863 v -0.20447 h -0.038 v 0.16643 h -0.0322 v -0.16643 h -0.0381 v 0.16643 h -0.0322 v -0.16643 z m -0.49058,0.002 v 0.038 h 0.45688 v -0.038 z m -10e-4,0.0824 v 0.12204 h 0.0381 v -0.084 h 0.10252 v 0.0824 h 0.17865 v -0.12046 h -0.10691 v 0.038 h 0.0688 v 0.0444 h -0.10252 v -0.0824 z m 0.0718,0.0824 v 0.038 h 0.0351 v -0.038 z"
       id="path743" />
    <path
       style="color:#000000;fill:#ffffff;stroke-width:0.0146991;-inkscape-stroke:none"
       d="m -722.59685,-713.13954 v 0.0761 h 0.31632 v -0.0761 z m 0.35146,0 v 0.0761 h 0.31632 v -0.0761 z"
       id="path746" />
    <path
       style="color:#000000;fill:#ffffff;stroke-width:0.0146991;-inkscape-stroke:none"
       d="m -722.59685,-711.37332 v 0.0761 h 0.31632 v -0.0761 z m 0.35146,0 v 0.0761 h 0.31632 v -0.0761 z"
       id="path749" />
    <path
       style="color:#000000;fill:#ffffff;stroke-width:0.0146991;-inkscape-stroke:none"
       d="m -722.10627,-711.25283 v 0.084 h -0.14058 v 0.12047 h 0.10688 v -0.038 h -0.0688 v -0.0444 h 0.10252 v 0.0824 h 0.17863 v -0.20447 h -0.038 v 0.16643 h -0.0322 v -0.16643 h -0.0381 v 0.16643 h -0.0322 v -0.16643 z m -0.49058,0.002 v 0.038 h 0.45688 v -0.038 z m -10e-4,0.0824 v 0.12205 h 0.0381 v -0.084 h 0.10252 v 0.0824 h 0.17865 v -0.12047 h -0.10691 v 0.038 h 0.0688 v 0.0444 h -0.10252 v -0.0824 z m 0.0718,0.0824 v 0.038 h 0.0351 v -0.038 z"
       id="path752" />
    <path
       style="color:#000000;fill:#ffffff;stroke-width:0.0146991;-inkscape-stroke:none"
       d="m -721.40338,-713.38997 v 0.084 h -0.14056 v 0.12046 h 0.10688 v -0.038 h -0.0688 v -0.0444 h 0.10252 v 0.0824 h 0.17866 v -0.20447 h -0.0381 v 0.16643 h -0.0322 v -0.16643 h -0.038 v 0.16643 h -0.0322 v -0.16643 z m -0.49055,0.002 v 0.038 h 0.45687 v -0.038 z m -0.001,0.0824 v 0.12204 h 0.0381 v -0.084 h 0.10252 v 0.0824 h 0.17863 v -0.12046 h -0.10688 v 0.038 h 0.0688 v 0.0444 h -0.10252 v -0.0824 z m 0.0717,0.0824 v 0.038 h 0.0351 v -0.038 z"
       id="path707" />
    <path
       style="color:#000000;fill:#ffffff;stroke-width:0.0146991;-inkscape-stroke:none"
       d="m -721.89393,-713.13954 v 0.0761 h 0.31629 v -0.0761 z m 0.35143,0 v 0.0761 h 0.31631 v -0.0761 z"
       id="path710" />
    <path
       style="color:#000000;fill:#ffffff;stroke-width:0.0146991;-inkscape-stroke:none"
       d="m -721.89393,-711.37332 v 0.0761 h 0.31629 v -0.0761 z m 0.35143,0 v 0.0761 h 0.31631 v -0.0761 z"
       id="path713" />
    <path
       style="color:#000000;fill:#ffffff;stroke-width:0.0146991;-inkscape-stroke:none"
       d="m -721.40338,-711.25283 v 0.084 h -0.14056 v 0.12047 h 0.10688 v -0.038 h -0.0688 v -0.0444 h 0.10252 v 0.0824 h 0.17866 v -0.20447 h -0.0381 v 0.16643 h -0.0322 v -0.16643 h -0.038 v 0.16643 h -0.0322 v -0.16643 z m -0.49055,0.002 v 0.038 h 0.45687 v -0.038 z m -0.001,0.0824 v 0.12205 h 0.0381 v -0.084 h 0.10252 v 0.0824 h 0.17863 v -0.12047 h -0.10688 v 0.038 h 0.0688 v 0.0444 h -0.10252 v -0.0824 z m 0.0717,0.0824 v 0.038 h 0.0351 v -0.038 z"
       id="path716" />
    <path
       style="color:#000000;fill:#ffffff;stroke-width:0.0146991;-inkscape-stroke:none"
       d="m -720.70047,-713.38997 v 0.084 h -0.14058 v 0.12046 h 0.10688 v -0.038 h -0.0688 v -0.0444 h 0.10252 v 0.0824 h 0.17863 v -0.20447 h -0.038 v 0.16643 h -0.0322 v -0.16643 h -0.0381 v 0.16643 h -0.0322 v -0.16643 z m -0.49058,0.002 v 0.038 h 0.45688 v -0.038 z m -10e-4,0.0824 v 0.12204 h 0.0381 v -0.084 h 0.10252 v 0.0824 h 0.17863 v -0.12046 h -0.10689 v 0.038 h 0.0688 v 0.0444 h -0.10252 v -0.0824 z m 0.0718,0.0824 v 0.038 h 0.0351 v -0.038 z"
       id="path791" />
    <path
       style="color:#000000;fill:#ffffff;stroke-width:0.0146991;-inkscape-stroke:none"
       d="m -721.19105,-713.13954 v 0.0761 h 0.31632 v -0.0761 z m 0.35146,0 v 0.0761 h 0.31629 v -0.0761 z"
       id="path794" />
    <path
       style="color:#000000;fill:#ffffff;stroke-width:0.0146991;-inkscape-stroke:none"
       d="m -721.19105,-711.37332 v 0.0761 h 0.31632 v -0.0761 z m 0.35146,0 v 0.0761 h 0.31629 v -0.0761 z"
       id="path797" />
    <path
       style="color:#000000;fill:#ffffff;stroke-width:0.0146991;-inkscape-stroke:none"
       d="m -720.70047,-711.25283 v 0.084 h -0.14058 v 0.12047 h 0.10688 v -0.038 h -0.0688 v -0.0444 h 0.10252 v 0.0824 h 0.17863 v -0.20447 h -0.038 v 0.16643 h -0.0322 v -0.16643 h -0.0381 v 0.16643 h -0.0322 v -0.16643 z m -0.49058,0.002 v 0.038 h 0.45688 v -0.038 z m -10e-4,0.0824 v 0.12205 h 0.0381 v -0.084 h 0.10252 v 0.0824 h 0.17863 v -0.12047 h -0.10689 v 0.038 h 0.0688 v 0.0444 h -0.10252 v -0.0824 z m 0.0718,0.0824 v 0.038 h 0.0351 v -0.038 z"
       id="path800" />
    <path
       style="color:#000000;fill:#ffffff;stroke-width:0.0146991;-inkscape-stroke:none"
       d="m -719.99758,-713.38997 v 0.084 h -0.14056 v 0.12046 h 0.10688 v -0.038 h -0.0688 v -0.0444 h 0.10252 v 0.0824 h 0.17866 v -0.20447 h -0.0381 v 0.16643 h -0.0322 v -0.16643 h -0.038 v 0.16643 h -0.0322 v -0.16643 z m -0.49055,0.002 v 0.038 h 0.45687 v -0.038 z m -0.001,0.0824 v 0.12204 h 0.0381 v -0.084 h 0.10252 v 0.0824 h 0.17863 v -0.12046 h -0.10688 v 0.038 h 0.0688 v 0.0444 h -0.10252 v -0.0824 z m 0.0717,0.0824 v 0.038 h 0.0351 v -0.038 z"
       id="path683" />
    <path
       style="color:#000000;fill:#ffffff;stroke-width:0.0146991;-inkscape-stroke:none"
       d="m -720.48813,-713.13954 v 0.0761 h 0.31629 v -0.0761 z m 0.35143,0 v 0.0761 h 0.31631 v -0.0761 z"
       id="path686" />
    <path
       style="color:#000000;fill:#ffffff;stroke-width:0.0146991;-inkscape-stroke:none"
       d="m -720.48813,-711.37332 v 0.0761 h 0.31629 v -0.0761 z m 0.35143,0 v 0.0761 h 0.31631 v -0.0761 z"
       id="path689" />
    <path
       style="color:#000000;fill:#ffffff;stroke-width:0.0146991;-inkscape-stroke:none"
       d="m -719.99758,-711.25283 v 0.084 h -0.14056 v 0.12047 h 0.10688 v -0.038 h -0.0688 v -0.0444 h 0.10252 v 0.0824 h 0.17866 v -0.20447 h -0.0381 v 0.16643 h -0.0322 v -0.16643 h -0.038 v 0.16643 h -0.0322 v -0.16643 z m -0.49055,0.002 v 0.038 h 0.45687 v -0.038 z m -0.001,0.0824 v 0.12205 h 0.0381 v -0.084 h 0.10252 v 0.0824 h 0.17863 v -0.12047 h -0.10688 v 0.038 h 0.0688 v 0.0444 h -0.10252 v -0.0824 z m 0.0717,0.0824 v 0.038 h 0.0351 v -0.038 z"
       id="path692" />
    <path
       style="color:#000000;fill:#ffffff;stroke-width:0.0146991;-inkscape-stroke:none"
       d="m -719.29467,-713.38997 v 0.084 h -0.14058 v 0.12046 h 0.10688 v -0.038 h -0.0688 v -0.0444 h 0.10252 v 0.0824 h 0.17863 v -0.20447 h -0.038 v 0.16643 h -0.0322 v -0.16643 h -0.0381 v 0.16643 h -0.0322 v -0.16643 z m -0.49058,0.002 v 0.038 h 0.45688 v -0.038 z m -10e-4,0.0824 v 0.12204 h 0.0381 v -0.084 h 0.10252 v 0.0824 h 0.17863 v -0.12046 h -0.10689 v 0.038 h 0.0688 v 0.0444 h -0.10252 v -0.0824 z m 0.0717,0.0824 v 0.038 h 0.0352 v -0.038 z"
       id="path695" />
    <path
       style="color:#000000;fill:#ffffff;stroke-width:0.0146991;-inkscape-stroke:none"
       d="m -719.78525,-713.13954 v 0.0761 h 0.31632 v -0.0761 z m 0.35146,0 v 0.0761 h 0.31629 v -0.0761 z"
       id="path698" />
    <path
       style="color:#000000;fill:#ffffff;stroke-width:0.0146991;-inkscape-stroke:none"
       d="m -719.78525,-711.37332 v 0.0761 h 0.31632 v -0.0761 z m 0.35146,0 v 0.0761 h 0.31629 v -0.0761 z"
       id="path701" />
    <path
       style="color:#000000;fill:#ffffff;stroke-width:0.0146991;-inkscape-stroke:none"
       d="m -719.29467,-711.25283 v 0.084 h -0.14058 v 0.12047 h 0.10688 v -0.038 h -0.0688 v -0.0444 h 0.10252 v 0.0824 h 0.17863 v -0.20447 h -0.038 v 0.16643 h -0.0322 v -0.16643 h -0.0381 v 0.16643 h -0.0322 v -0.16643 z m -0.49058,0.002 v 0.038 h 0.45688 v -0.038 z m -10e-4,0.0824 v 0.12205 h 0.0381 v -0.084 h 0.10252 v 0.0824 h 0.17863 v -0.12047 h -0.10689 v 0.038 h 0.0688 v 0.0444 h -0.10252 v -0.0824 z m 0.0717,0.0824 v 0.038 h 0.0352 v -0.038 z"
       id="path704" />
    <path
       style="color:#000000;fill:#ffffff;stroke-width:0.0146991;-inkscape-stroke:none"
       d="m -718.59178,-713.38997 v 0.084 h -0.14056 v 0.12046 h 0.10688 v -0.038 h -0.0688 v -0.0444 h 0.10252 v 0.0824 h 0.17866 v -0.20447 h -0.0381 v 0.16643 h -0.0322 v -0.16643 h -0.038 v 0.16643 h -0.0322 v -0.16643 z m -0.49055,0.002 v 0.038 h 0.45687 v -0.038 z m -0.001,0.0824 v 0.12204 h 0.0381 v -0.084 h 0.10252 v 0.0824 h 0.17863 v -0.12046 h -0.10688 v 0.038 h 0.0688 v 0.0444 h -0.10252 v -0.0824 z m 0.0717,0.0824 v 0.038 h 0.0351 v -0.038 z"
       id="path731" />
    <path
       style="color:#000000;fill:#ffffff;stroke-width:0.0146991;-inkscape-stroke:none"
       d="m -719.08233,-713.13954 v 0.0761 h 0.31629 v -0.0761 z m 0.35143,0 v 0.0761 h 0.31631 v -0.0761 z"
       id="path734" />
    <path
       style="color:#000000;fill:#ffffff;stroke-width:0.0146991;-inkscape-stroke:none"
       d="m -719.08233,-711.37332 v 0.0761 h 0.31629 v -0.0761 z m 0.35143,0 v 0.0761 h 0.31631 v -0.0761 z"
       id="path737" />
    <path
       style="color:#000000;fill:#ffffff;stroke-width:0.0146991;-inkscape-stroke:none"
       d="m -718.59178,-711.25283 v 0.084 h -0.14056 v 0.12047 h 0.10688 v -0.038 h -0.0688 v -0.0444 h 0.10252 v 0.0824 h 0.17866 v -0.20447 h -0.0381 v 0.16643 h -0.0322 v -0.16643 h -0.038 v 0.16643 h -0.0322 v -0.16643 z m -0.49055,0.002 v 0.038 h 0.45687 v -0.038 z m -0.001,0.0824 v 0.12205 h 0.0381 v -0.084 h 0.10252 v 0.0824 h 0.17863 v -0.12047 h -0.10688 v 0.038 h 0.0688 v 0.0444 h -0.10252 v -0.0824 z m 0.0717,0.0824 v 0.038 h 0.0351 v -0.038 z"
       id="path740" />
    <path
       d="m -722.62554,-711.66515 a 0.60328041,0.60328041 0 0 0 0.5799,-1.03105 0.66145833,0.66145833 0 0 1 -0.5799,1.03105"
       id="path821"
       style="fill:#da0000;stroke-width:0.661458" />
    <path
       d="m -721.85395,-711.78088 a 0.50530919,0.50530919 0 0 0 -0.13011,-0.92767 0.66145833,0.66145833 0 0 1 0.13011,0.92767 m -0.40901,0.22396 -0.0331,-0.66146 0.0331,-0.52075 a 0.20504878,0.20504878 0 0 0 0.0781,0.0655 v 0.3888 l -0.0266,0.65703 z m -0.0132,-1.2237 0.0132,0.0124 a 0.09545505,0.09545505 0 0 0 0.16674,-0.0903 0.09022821,0.09022821 0 0 1 -0.16674,0.0285"
       id="path824"
       style="fill:#da0000;stroke-width:0.661458" />
    <path
       d="m -721.90038,-711.66515 a 0.60328037,0.60328037 0 0 1 -0.5799,-1.03105 0.66145826,0.66145826 0 0 0 0.5799,1.03105"
       id="path815"
       style="fill:#da0000;stroke-width:0.661458" />
    <path
       d="m -722.67196,-711.78088 a 0.50530915,0.50530915 0 0 1 0.1301,-0.92767 0.66145826,0.66145826 0 0 0 -0.1301,0.92767 m 0.409,0.22396 0.0331,-0.66146 -0.0331,-0.52075 a 0.20504876,0.20504876 0 0 1 -0.0781,0.0655 v 0.3888 l 0.0266,0.65703 z m 0.0132,-1.2237 -0.0132,0.0124 a 0.09545504,0.09545504 0 0 1 -0.16674,-0.0903 0.0902282,0.0902282 0 0 0 0.16674,0.0285"
       id="path818"
       style="fill:#da0000;stroke-width:0.661458" />
  </g>
</svg>
