<svg xmlns="http://www.w3.org/2000/svg" width="30" height="20" viewBox="63.633 -4.129 858.3 572.2"><path fill="#239f40" d="M63.633-4.129H921.95V568.1H63.633Z"/><path fill="#da0000" d="M63.633 282H921.95v286.1H63.633Z"/><path fill="#fff" d="M63.633 186.6H921.95v190.7H63.633Z"/><g transform="translate(81.673 155.471) scale(4.4445)"><g id="c" fill="none" stroke="#fff"><path id="b" d="M3 .5h13M3.5 5V2.5h4v2h4v-2H9m-4 2h1m10 0h-2.5v-2h4m0-2.5v4.5h4V0m-2 0v4.5"/><path id="a" stroke-width="2" d="M3 7h9m1 0h9"/><use href="#a" y="42.91"/><use href="#b" y="51.91"/></g><g id="d"><use href="#c" x="20"/><use href="#c" x="40"/><use href="#c" x="60"/><use href="#c" x="80"/></g><use href="#d" x="80"/></g><g fill="#da0000" transform="translate(492.8 282) scale(69.28)"><g id="e"><path d="M-.548.836A.912.912 0 0 0 .329-.722 1 1 0 0 1-.548.836"/><path d="M.618.661A.764.764 0 0 0 .422-.74 2 1 0 0 1 .618.661M0 1V-.787a.31.31 0 0 0 .118.099V-.1L0 .893ZM0-.85v.019a.144.144 0 0 0 .252-.137A.136.136 0 0 1 0-.925"/></g><use href="#e" transform="scale(-1 1)"/></g></svg>