<svg xmlns="http://www.w3.org/2000/svg" width="30" height="20" viewBox="-2205 -1470 4410 2940"><defs><use href="#a" id="e" transform="scale(31.5)"/><use href="#a" id="g" transform="scale(26.25)"/><use href="#a" id="f" transform="scale(21)"/><path id="a" fill="#fff" d="M0-1-.6.8 1-.3h-2L.6.8Z"/></defs><clipPath id="d"><use href="#b"/></clipPath><clipPath id="i"><use href="#c"/></clipPath><path fill="#009440" d="M-2205-1470h4410v2940h-4410Z"/><path fill="#ffcb00" d="M0 1113 1830.2 0 0-1113Z"/><circle id="b" r="735" fill="#302681"/><path id="h" fill="none" stroke="#fff" stroke-width="105" d="M-2153 1470a1733 1733 0 0 1 3466 0" clip-path="url(#d)"/><use href="#e" x="228" y="-228"/><use href="#e" x="515" y="258"/><use href="#f" x="617" y="265"/><use href="#g" x="545" y="323"/><use href="#g" x="368" y="477"/><use href="#f" x="367" y="551"/><use href="#f" x="441" y="419"/><use href="#g" x="500" y="382"/><use href="#f" x="365" y="405"/><use href="#f" x="200" y="-37"/><use href="#e" y="330"/><use href="#g" x="85" y="184"/><use href="#g" y="118"/><use href="#g" x="220" y="495"/><use href="#f" x="283" y="430"/><use href="#f" x="162" y="412"/><use href="#a" y="54.8" transform="scale(10.5)"/><text dominant-baseline="central" font-size="93" font-weight="700" letter-spacing="21"><textPath fill="#009440" href="#h" startOffset="3120">PROGRESSO</textPath></text><g clip-path="url(#i)" transform="matrix(7.35,0,0,7.35,-2205,-1470)"><path id="c" fill="red" d="M0 0h300v400H0z"/><path fill="#060" d="M0 0h240v400H0z"/><g fill="#ff0" fill-rule="evenodd" stroke="#000" stroke-linecap="round" stroke-linejoin="round" stroke-width=".6"><path d="M318.2 262c-30.2-.9-168.7-87.3-169.6-101.1l7.6-12.8c13.7 20 155.4 104.1 169.3 101.1l-7.3 12.8m-78-92.8c30.2-.2 67.5-4.1 89-12.7l-4.6-7.5c-12.7 7-50.2 11.7-84.7 12.4-40.7-.4-69.5-4.2-83.9-13.9l-4.3 8c26.4 11.2 53.6 13.6 88.5 13.7"/><path id="j" d="M140.9 205.7c18.6 10 59.9 15 99 15.4 35.6 0 81.9-5.6 99.3-14.7l-.5-10.1c-5.4 8.5-55.1 16.7-99.2 16.3-44.1-.3-85.1-7.1-98.7-15.9l.1 9"/><path id="k" d="M239.8 260.3c-42.8-.2-79.4-11.6-87.2-13.5l5.7 8.8a233.5 233.5 0 0 0 81.9 13.4c32.5-1 60.9-3.5 80.9-13.2l5.8-9.2c-13.6 6.4-60.1 13.7-87.1 13.7"/><path d="M338.9 200.1a99.2 99.2 0 1 0-198.4 0 99.2 99.2 0 1 0 198.4 0zm-9.5 0a89.2 89 0 1 0-178.4 0 89.2 89 0 1 0 178.4 0"/><path d="M244 100.7h-8.5v198.9h8.5z"/><use href="#j" transform="rotate(180,240,200)"/><use href="#k" transform="rotate(180,240,200.5)"/><path d="M289.1 241.3a262.7 262.7 0 0 0-49.2-3.8c-61.4.7-81.2 12.6-83.6 16.2l-4.6-7.5c15.6-11.3 49.1-17.6 88.6-17a307 307 0 0 1 53.1 4.6l-4.3 7.5"/><path d="m327.6 247.4-7.4 11.4L299 240l-55-37-62-34-32.2-11 6.9-12.7 2.3-1.3 20 5 66 34 38 24 32 23 13 15z"/></g><path fill="#fff" stroke="#000" stroke-linejoin="bevel" stroke-width=".7" d="M180.6 211c0 16.3 6.7 31 17.5 41.8a59.3 59.3 0 0 0 101.2-41.7v-79.2l-118.7-.2z"/><path fill="red" stroke="#000" stroke-width=".5" d="M182.8 211a57 57 0 0 0 114 0v-76.7H182.9V211m91-53.7v54.1a34 34 0 0 1-68 0v-54.1h67.9z"/><g id="p"><g id="o" fill="#ff0" stroke="#000" stroke-width=".5"><path stroke="none" d="M190.2 154.4c.1-5.5 4-6.8 4.1-6.8 0 0 4.2 1.4 4.2 6.9l-8.3-.1"/><path d="m186.8 147.7-.7 6.3h4.2c0-5.2 3.9-6.1 4-6.1.1 0 4 1.2 4.1 6.1h4.2l-.8-6.3z"/><path id="l" d="M185.9 154.1h16.9a.8.8 0 0 1 0 1.5h-16.9a.8.8 0 0 1 0-1.5z"/><use href="#l" transform="matrix(0.9112,0,0,0.9613,17.26,-1.657)"/><use href="#l" transform="matrix(0.9519,0,0,0.9426,9.361,-0.1637)"/><use x="5.3" y="-3.2" href="#m"/><path d="m196.2 138.6.3 6.4h-4.3l.2-6.4h3.8"/><path id="n" d="m190.9 141.6.2 3.4h-4.2l.2-3.4z"/><use href="#n" x="10.6"/><path id="m" d="M186.3 139h1.2v.9h.9v-.9h1.2v.9h.9v-.9h1.2v2c0 .4-.2.6-.5.6h-4.3a.6.6 0 0 1-.6-.6z"/><use href="#m" x="10.6"/></g><use href="#o" y="46.3"/><use href="#o" transform="rotate(-45.2,312.8,180)"/></g><use href="#o" x="45.7"/><use href="#p" transform="matrix(-1,0,0,1,479.8,0)"/><path id="q" fill="#039" d="M232.6 202.4a7.5 8 0 0 0 15 0v-10.8h-15v10.8"/><use href="#q" y="-26"/><use href="#q" x="-20.8"/><use href="#q" x="20.8"/><use href="#q" y="25.8"/></g></svg>