<svg xmlns="http://www.w3.org/2000/svg"><path d="m9.1 5.23v-1.21q0-.37-.053-.707-.053-.34-.159-.639-.14-.42-.394-.764-.25-.34-.582-.577-.29-.2-.654-.312-.36-.11-.774-.111-.41 0-.764.111-.35.11-.635.312-.31.22-.538.538-.23.31-.361.702-.12.31-.178.683-.058.37-.0577.764v1.21q0 .35.062.678.062.33.183.62.13.34.351.63.22.29.514.505.29.21.644.322.36.12.779.115.19 0 .361-.024.18-.024.346-.067l1.33 1.23.87-.774-1.16-1.05q.19-.18.332-.39.15-.22.255-.452.13-.3.202-.644.072-.34.077-.702zm-1.37-1.22v1.22q0 .19-.024.385-.024.19-.0722.365-.067.24-.188.442-.12.21-.284.346-.13.1-.303.164-.17.058-.375.0577-.2 0-.365-.0577-.16-.058-.279-.164-.17-.14-.279-.351-.11-.21-.168-.471-.038-.17-.0577-.351-.014-.18-.0144-.365v-1.22q0-.22.014-.414.015-.2.0437-.38.048-.31.154-.553.11-.25.293-.409.12-.11.288-.168.16-.058.37-.0577.22 0 .389.062.18.062.312.173.14.13.25.317.11.18.168.409.067.22.096.476.029.26.029.543z"/></svg>
