<svg width="30" height="20" xmlns="http://www.w3.org/2000/svg"><symbol id="Wiphala" width="20" height="20" viewBox="0 0 7 7"><path d="M0 0h7v7H0" fill="#fff"/><path d="M0 2v2l3 3h2m0-7H3l4 4V2" fill="#742c64"/><path d="M1 0h2l4 4v2M1 5H0v2h3" fill="#eb7711"/><path d="M1 0h1v2h2v2h2v2h1V5H5V3H3V1H1M0 6h1v1H0" fill="#fcdd09"/><path d="M0 1v1l5 5h1V6H5V5H4V4H3V3H2V2H1V1m4-1h2v2" fill="#078930"/><path d="M0 2h1v2h2v2h2v1H4V5H2V3H0m5-3h1v2h1V1H5" fill="#0f47af"/><path d="M3 0h1v2h2v2h1V3H5V1H3M0 4h1v2h2v1H2V5H0" fill="#da121a"/></symbol><use href="#Wiphala"/><path d="M20 0h10v20H20z" fill="#fff"/><symbol id="Q"><path d="m9.1 5.23v-1.21q0-.37-.053-.707-.053-.34-.159-.639-.14-.42-.394-.764-.25-.34-.582-.577-.29-.2-.654-.312-.36-.11-.774-.111-.41 0-.764.111-.35.11-.635.312-.31.22-.538.538-.23.31-.361.702-.12.31-.178.683-.058.37-.0577.764v1.21q0 .35.062.678.062.33.183.62.13.34.351.63.22.29.514.505.29.21.644.322.36.12.779.115.19 0 .361-.024.18-.024.346-.067l1.33 1.23.87-.774-1.16-1.05q.19-.18.332-.39.15-.22.255-.452.13-.3.202-.644.072-.34.077-.702zm-1.37-1.22v1.22q0 .19-.024.385-.024.19-.0722.365-.067.24-.188.442-.12.21-.284.346-.13.1-.303.164-.17.058-.375.0577-.2 0-.365-.0577-.16-.058-.279-.164-.17-.14-.279-.351-.11-.21-.168-.471-.038-.17-.0577-.351-.014-.18-.0144-.365v-1.22q0-.22.014-.414.015-.2.0437-.38.048-.31.154-.553.11-.25.293-.409.12-.11.288-.168.16-.058.37-.0577.22 0 .389.062.18.062.312.173.14.13.25.317.11.18.168.409.067.22.096.476.029.26.029.543z"/></symbol><symbol id="U"><path d="m8.84 1h-1.34v4.64q-0 .34-.072.601-.072.26-.207.433-.12.17-.317.255-.19.082-.433.0817-.23 0-.399-.0769-.17-.082-.293-.24-.13-.17-.197-.438-.062-.26-.0673-.615l-.0048-4.64h-1.35v4.64q0 .59.164 1.05.17.46.471.769.3.31.726.476.43.16.957.164.56 0 1-.164t.745-.481q.3-.31.462-.769.16-.46.164-1.04z"/></symbol><symbol id="E"><path d="m8.48 4.93v-1.07h-2.88v-1.76h3.35v-1.1h-4.7v7h4.72v-1.09h-3.36v-1.98z"/></symbol><g transform="rotate(-90 15.25 -5.25)"><use x="-13" href="#Q"/><use x="-6.5" href="#U"/><use href="#E"/></g></svg>
