<svg width="30" height="20" xmlns="http://www.w3.org/2000/svg"><symbol id="Wiphala" width="20" height="20" viewBox="0 0 7 7"><path d="M0 0h7v7H0" fill="#fff"/><path d="M0 2v2l3 3h2m0-7H3l4 4V2" fill="#742c64"/><path d="M1 0h2l4 4v2M1 5H0v2h3" fill="#eb7711"/><path d="M1 0h1v2h2v2h2v2h1V5H5V3H3V1H1M0 6h1v1H0" fill="#fcdd09"/><path d="M0 1v1l5 5h1V6H5V5H4V4H3V3H2V2H1V1m4-1h2v2" fill="#078930"/><path d="M0 2h1v2h2v2h2v1H4V5H2V3H0m5-3h1v2h1V1H5" fill="#0f47af"/><path d="M3 0h1v2h2v2h1V3H5V1H3M0 4h1v2h2v1H2V5H0" fill="#da121a"/></symbol><use href="#Wiphala"/><path d="M20 0h10v20H20z" fill="#fff"/><path transform="matrix(0 -.2.2 0 0 0)" d="m-68.59 128.6v-5.9q0-1.8-.26-3.5-.26-1.6-.77-3.1-.7-2.1-1.92-3.7-1.22-1.7-2.83-2.8-1.43-1-3.18-1.5-1.76-.6-3.77-.6-2.02 0-3.72.6-1.71.5-3.09 1.5-1.52 1.1-2.62 2.6t-1.76 3.4q-.56 1.5-.87 3.3-.28 1.8-.28 3.8v5.9q0 1.6.31 3.3.3 1.5.89 3 .65 1.6 1.71 3 1.07 1.5 2.5 2.5 1.4 1 3.14 1.6 1.73.5 3.79.5.91 0 1.75-.1.87-.1 1.69-.3l6.48 6 4.24-3.8-5.64-5.1q.91-.9 1.61-1.9.73-1 1.24-2.2.66-1.5.99-3.1.35-1.7.37-3.4zm-6.67-6v6q0 .9-.12 1.8-.11.9-.35 1.8-.33 1.2-.91 2.2-.56 1-1.38 1.6-.66.5-1.48.8t-1.82.3q-.99 0-1.78-.3-.77-.2-1.36-.8-.82-.6-1.36-1.7-.53-1-.82-2.3-.18-.8-.28-1.7t-.1-1.7v-6q0-1 .1-2t.21-1.8q.24-1.5.75-2.7.54-1.3 1.43-2 .61-.6 1.41-.8.79-.3 1.8-.3 1.05 0 1.89.3.87.3 1.52.8.68.6 1.22 1.6.54.9.82 2 .33 1 .47 2.3.14 1.2.14 2.6zm36.65-14.6h-6.53v22.6q-0 1.6-.35 2.9-.33 1.3-.98 2.1-.61.8-1.55 1.2-.91.4-2.1.4-1.1 0-1.94-.3-.85-.4-1.43-1.2-.63-.8-.96-2.1-.31-1.3-.33-3v-22.6h-6.58v22.6q0 2.8.79 5.1.82 2.2 2.3 3.7 1.47 1.5 3.53 2.3 2.08.8 4.66.8 2.74 0 4.87-.8 2.15-.8 3.65-2.3 1.47-1.5 2.24-3.8.8-2.2.8-5zm29.528 19.1v-5.2h-13.998v-8.6h16.292v-5.3h-22.892v34.1h22.962v-5.4h-16.362v-9.6z"/></svg>
