<?xml version="1.0" encoding="UTF-8" standalone="no"?>
<!-- Creator: CorelDRAW Home & Student X8 -->

<svg
   xml:space="preserve"
   width="7.9375mm"
   height="5.291667mm"
   version="1.1"
   style="clip-rule:evenodd;fill-rule:evenodd;image-rendering:optimizeQuality;shape-rendering:geometricPrecision;text-rendering:geometricPrecision"
   viewBox="0 0 793.75 529.1667"
   sodipodi:version="0.32"
   inkscape:version="1.4 (86a8ad7, 2024-10-11)"
   sodipodi:docname="Paskalya Adası.svg"
   id="svg1"
   xmlns:inkscape="http://www.inkscape.org/namespaces/inkscape"
   xmlns:sodipodi="http://sodipodi.sourceforge.net/DTD/sodipodi-0.dtd"
   xmlns="http://www.w3.org/2000/svg"
   xmlns:svg="http://www.w3.org/2000/svg">
 <defs
   id="defs1">
  <style
   type="text/css"
   id="style1">
   <![CDATA[
    .fil1 {fill:#E63C24}
    .fil0 {fill:#FEFEFE}
   ]]>
  </style>
 </defs>
 <g
   id="Layer_x0020_1"
   inkscape:label="Layer 1"
   inkscape:groupmode="layer"
   transform="translate(0,-18)">
  <metadata
   id="CorelCorpID_0Corel-Layer" />
  <sodipodi:namedview
   inkscape:window-height="1009"
   inkscape:window-width="1920"
   inkscape:pageshadow="2"
   inkscape:pageopacity="0.0"
   guidetolerance="10.0"
   gridtolerance="10.0"
   objecttolerance="10.0"
   borderopacity="1.0"
   bordercolor="#666666"
   pagecolor="#ffffff"
   id="base"
   height="400px"
   inkscape:zoom="1.4142136"
   inkscape:cx="356.73536"
   inkscape:cy="217.43533"
   inkscape:window-x="-8"
   inkscape:window-y="-8"
   inkscape:current-layer="Layer_x0020_1"
   inkscape:showpageshadow="2"
   inkscape:pagecheckerboard="0"
   inkscape:deskcolor="#d1d1d1"
   inkscape:document-units="mm"
   inkscape:window-maximized="1" />
  <rect
   id="rect2510"
   class="fil0"
   y="18"
   width="793.75"
   height="529.16669"
   x="0"
   style="stroke-width:0.0352778" />
  <path
   id="path2508"
   class="fil1"
   d="m 730.1089,134.62833 1.12889,-9.66611 -2.75167,9.45445 c -5.75028,19.75555 -22.08389,36.58305 -38.80556,40.005 -12.45305,2.54 -23.42444,6.56167 -27.79889,10.16 -2.71639,2.25778 -3.73944,2.18722 -6.73805,-0.56445 -2.29306,-2.04611 -7.02028,-3.21027 -13.29972,-3.21027 -8.64306,0 -10.30112,0.70555 -14.25223,6.0325 -2.43416,3.31611 -4.93889,5.53861 -5.53861,4.97416 -0.59972,-0.59972 0.0353,-2.43416 1.41111,-4.09222 1.79917,-2.18722 1.83445,-2.99861 0.17639,-2.99861 -1.27,0 -3.52778,2.92806 -5.00944,6.45583 -3.31611,7.97278 -12.3825,16.1925 -16.79222,16.1925 -13.65251,-4.7625 -15.45167,-26.035 -31.04445,-27.16389 -5.29167,0.28223 -5.29167,0.28223 -0.38806,1.16417 6.73806,1.23472 9.31334,8.36083 17.92112,19.33222 54.2925,69.17973 130.03389,8.64306 141.78139,-66.07528 z"
   sodipodi:nodetypes="cccsssssssssssssc"
   style="stroke-width:0.0352778" />
  <path
   id="path1972"
   class="fil1"
   d="M 404.95362,464.26389 C 319.22861,465.42806 206.90417,406.83167 172.33195,324.10528 169.05111,314.65084 164.25334,305.86667 160.54917,296.55334 149.57778,280.32556 139.065,262.22806 125.23611,248.22278 92.851112,215.27334 62.159445,175.7975 60.18389,127.89028 c 0.105833,-3.84528 1.340555,0.84667 2.928055,10.40694 12.876389,78.74 89.393885,131.23334 144.039165,64.20556 3.63361,-4.445 6.94973,-11.07722 9.10167,-13.47611 3.98639,-4.48028 11.07722,-6.06778 11.07722,-2.46945 0,1.09362 -2.18722,1.97556 -4.83305,1.97556 -3.91584,0 -5.92667,2.01083 -10.05417,10.19528 -4.7625,9.41916 -24.80028,29.70389 -28.46917,30.93861 -3.06916,1.05833 -1.05833,3.4925 6.63223,7.51417 17.145,8.99583 23.07166,12.94694 40.9575,27.16388 19.08527,15.80445 41.5925,28.25751 67.02777,28.82195 22.82473,-4.7625 37.25334,-5.25639 51.15278,8.11389 7.33778,7.05555 22.01334,8.74889 47.13111,8.74889 25.11778,0 39.61695,-1.86972 47.13112,-8.74889 14.56972,-13.37028 28.32805,-12.87639 51.15277,-8.11389 25.92917,-0.14111 47.37806,-13.61722 67.02778,-28.82195 17.88584,-14.21694 23.8125,-18.16805 40.9575,-27.16388 7.69056,-4.02167 10.75973,-7.51417 6.63223,-7.51417 -3.88056,0 -23.70667,-21.51945 -28.46917,-30.93861 -4.1275,-8.18445 -6.13834,-10.19528 -10.01889,-10.19528 -2.68111,0 -4.86833,-0.88194 -4.86833,-1.97556 0,-3.59833 7.09083,-2.01083 11.07722,2.46945 2.15194,2.39889 6.27944,8.46667 9.10166,13.47611 61.20695,73.30722 133.06778,3.175 145.2739,-64.20556 1.48166,-9.56027 2.78694,-14.25222 2.89277,-10.40694 -2.11666,47.80139 -34.96028,87.03028 -66.25166,120.3325 -13.26445,14.78139 -25.50584,30.97389 -35.31306,48.33056 -4.26861,9.03111 -7.62,18.48555 -11.78278,27.55194 -42.93305,82.05611 -123.68389,141.67556 -216.46444,140.15861 z"
   sodipodi:nodetypes="csssssssssssssssssssssssssssssssc"
   style="stroke-width:0.0352778" />
  <path
   id="path1970"
   class="fil0"
   d="m 331.22306,298.38778 c 1.83444,-7.76111 -11.1125,-4.58611 -6.77333,1.76389 1.905,2.99861 7.16138,2.36361 6.77333,-1.76389 z"
   style="stroke-width:0.0352778" />
  <path
   id="path1968"
   class="fil0"
   d="m 469.72362,299.05806 c 2.15194,-7.05556 -10.05417,-7.16139 -7.16139,0.42333 1.02305,3.73945 6.35,3.175 7.16139,-0.42333 z"
   style="stroke-width:0.0352778" />
  <path
   id="path1966"
   class="fil1"
   d="m 63.888056,134.5225 -1.128889,-9.70139 2.751667,9.45445 c 5.750278,19.75555 22.083889,36.58305 38.805556,40.005 12.45306,2.54 23.42444,6.56166 27.79889,10.16 2.71639,2.25778 3.73944,2.18722 6.73805,-0.56445 2.29306,-2.04611 7.02028,-3.21027 13.29973,-3.21027 8.64305,0 10.30111,0.70555 14.25222,6.0325 2.43417,3.31611 4.93889,5.57388 5.53861,4.97416 0.59972,-0.59972 -0.0353,-2.43416 -1.41111,-4.09222 -1.79917,-2.18722 -1.83444,-2.96333 -0.17639,-2.96333 1.27,0 3.52778,2.89277 5.00945,6.42055 3.31611,7.97278 12.3825,16.22778 16.79222,16.22778 13.6525,-4.79778 15.45166,-26.07028 31.04444,-27.19917 5.29167,0.28223 5.29167,0.28223 0.38806,1.16417 -6.73806,1.23472 -9.31334,8.36083 -17.92111,19.33222 -54.2925,69.17972 -130.033894,8.64306 -141.781394,-66.04 z"
   sodipodi:nodetypes="cccsssssssssssssc"
   style="stroke-width:0.0352778" />
  <path
   id="path1964"
   class="fil0"
   d="m 155.575,224.79834 c 6.84389,-5.18584 2.54,-8.89 -9.98361,-8.53723 l -11.32417,0.3175 9.77195,1.16417 c 5.3975,0.635 9.525,2.04611 9.2075,3.10444 -0.3175,1.09362 -2.08139,1.72862 -3.91584,1.41112 -1.83444,-0.28223 -6.84388,-0.9525 -11.14777,-1.41112 l -7.86695,-0.88194 6.87917,2.08139 c 3.77472,1.12889 8.18444,2.82222 9.80722,3.77472 3.95111,2.25778 4.33917,2.18722 8.5725,-1.02305 z"
   style="stroke-width:0.0352778" />
  <path
   id="path1962"
   class="fil0"
   d="m 130.31611,215.94361 c 0,-4.40972 -9.56028,-3.81 -10.40694,0.635 -0.56445,2.89278 0.35278,3.45723 4.86833,2.96334 3.35139,-0.38806 5.53861,-1.79917 5.53861,-3.59834 z"
   style="stroke-width:0.0352778" />
  <path
   id="path1960"
   class="fil0"
   d="m 124.00139,216.71972 c 0.67028,-0.635 2.32833,-0.70555 3.77472,-0.14111 1.55222,0.635 1.09361,1.09361 -1.19944,1.19945 -2.08139,0.0705 -3.21028,-0.38806 -2.57528,-1.05834 z"
   style="stroke-width:0.0352778" />
  <path
   id="path1958"
   class="fil0"
   d="m 142.69861,196.7525 c -0.67028,-5.85611 -7.47889,-8.85472 -7.47889,-3.28083 0,1.76389 -1.76389,5.50333 -3.91583,8.21972 -5.82083,7.40833 -4.79778,8.46667 4.05694,4.19806 6.73806,-3.28084 7.86695,-4.65667 7.33778,-9.13695 z"
   style="stroke-width:0.0352778" />
  <path
   id="path1956"
   class="fil0"
   d="m 109.71389,199.22195 c -4.62139,-8.21973 -4.97417,-15.20473 -0.9525,-18.55611 3.52778,-2.89278 3.81,-1.30528 0.67028,3.70416 -1.30528,2.11667 -1.62278,5.15056 -0.70556,7.3025 1.34056,3.175 1.76389,2.8575 2.96334,-2.32833 0.74083,-3.35139 1.94027,-6.985 2.64583,-8.14917 1.86972,-2.99861 -4.58611,-4.90361 -7.76111,-2.25778 -5.25639,4.33917 -0.91722,27.23445 5.15055,27.23445 1.02306,0 0.14111,-3.13972 -2.01083,-6.94972 z"
   style="stroke-width:0.0352778" />
  <path
   id="path1954"
   class="fil0"
   d="m 128.905,200.49195 c 4.02167,-5.50334 4.05695,-5.715 0.45861,-6.6675 -2.04611,-0.52917 -4.09222,0.0353 -4.55083,1.27 -0.45861,1.23472 -2.08139,4.48027 -3.03389,3.59833 -0.9525,-0.88194 0.81139,-6.06778 3.28083,-7.9375 2.46945,-1.83444 3.84528,-3.98639 3.10445,-4.72722 -0.77611,-0.77611 -2.75167,-0.28222 -4.37445,1.02305 -2.50472,2.04611 -2.82222,1.905 -1.79916,-0.81139 1.34055,-3.56305 -3.4925,-6.6675 -5.43278,-3.52777 -0.635,1.05833 -0.14111,1.905 1.12889,1.905 1.27,0 1.76389,1.34055 1.12889,3.03389 -0.67028,1.72861 -0.35278,2.50472 0.74083,1.83444 1.09361,-0.67028 1.79917,0.38806 1.65806,2.36361 -0.635,7.05556 0.3175,14.32278 1.905,14.32278 0.84666,0 3.45722,-2.57528 5.78555,-5.67972 z"
   sodipodi:nodetypes="csssssssssssssc"
   style="stroke-width:0.0352778" />
  <path
   id="path1952"
   class="fil0"
   d="m 115.00556,190.93167 c -0.49389,-1.86972 -0.84667,0.14111 -0.84667,4.445 0.0353,4.30389 0.42333,5.85611 0.91722,3.42194 0.45861,-2.43416 0.42334,-5.96194 -0.0705,-7.86694 z"
   style="stroke-width:0.0352778" />
  <path
   id="path1950"
   class="fil0"
   d="m 158.04445,191.46084 c -1.62278,-1.62278 -3.42195,-2.92806 -3.98639,-2.92806 -0.59973,0 -0.56445,1.30528 0.0705,2.92806 0.59972,1.62277 2.39889,2.92805 3.98639,2.92805 2.50472,0 2.46945,-0.38805 -0.0705,-2.92805 z"
   style="stroke-width:0.0352778" />
  <path
   id="path1946"
   class="fil0"
   d="m 646.2889,225.92722 c 1.86972,-0.98777 6.49111,-2.75166 10.26583,-3.88055 l 6.87917,-2.08139 -7.86695,0.88194 c -4.30389,0.45862 -9.31333,1.12889 -11.14778,1.41112 -1.83444,0.3175 -3.56305,-0.3175 -3.91583,-1.41112 -0.3175,-1.05833 3.81,-2.46944 9.2075,-3.10444 l 9.77194,-1.16417 -11.32416,-0.3175 c -12.52361,-0.35277 -16.8275,3.35139 -9.98361,8.53723 4.48027,3.38666 3.95111,3.31611 8.11389,1.12888 z"
   style="stroke-width:0.0352778" />
  <path
   id="path1944"
   class="fil0"
   d="m 673.84084,216.47278 c -0.77611,-3.95111 -6.985,-5.715 -9.87778,-2.82222 -2.92805,2.92805 0,6.24416 5.60917,6.24416 3.59833,0 4.72722,-0.91722 4.26861,-3.42194 z"
   style="stroke-width:0.0352778" />
  <path
   id="path1942"
   class="fil0"
   d="m 664.91556,216.71972 c 0.67028,-0.635 2.36361,-0.70555 3.77472,-0.14111 1.55223,0.635 1.09362,1.09361 -1.19944,1.19945 -2.04611,0.0705 -3.21028,-0.38806 -2.57528,-1.05834 z"
   style="stroke-width:0.0352778" />
  <path
   id="path1940"
   class="fil0"
   d="m 662.7989,202.29111 c -2.36362,-3.175 -4.26862,-7.19666 -4.26862,-8.92527 0,-5.50334 -6.80861,-2.39889 -7.47888,3.42194 -0.52917,4.445 0.56444,5.89139 6.84388,8.92528 4.1275,2.01083 7.86695,3.35139 8.32556,2.99861 0.45861,-0.35278 -1.09361,-3.24556 -3.42194,-6.42056 z"
   style="stroke-width:0.0352778" />
  <path
   id="path1938"
   class="fil0"
   d="m 672.53556,200.77417 c 0.17639,-2.96333 0.17639,-6.985 0,-8.92528 -0.14111,-1.97555 0.56445,-3.03389 1.65806,-2.36361 1.09361,0.67028 1.41111,-0.10583 0.74083,-1.83444 -0.635,-1.69334 -0.14111,-3.03389 1.12889,-3.03389 1.27,0 1.76389,-0.84667 1.12889,-1.905 -1.94028,-3.13973 -6.77333,-0.0353 -5.43278,3.52777 1.02306,2.71639 0.70556,2.8575 -1.79917,0.81139 -1.62277,-1.30527 -3.59833,-1.79916 -4.37444,-1.02305 -0.74083,0.74083 0.635,2.89278 3.10444,4.72722 2.46945,1.86972 3.70417,4.09222 2.75167,4.97417 -0.91722,0.88194 -2.04611,0.59972 -2.50472,-0.635 -0.45861,-1.23473 -2.46945,-1.79917 -4.55083,-1.27 -3.59834,0.9525 -3.56306,1.16416 0.45861,6.6675 5.25639,7.09083 7.3025,7.16139 7.69055,0.28222 z"
   style="stroke-width:0.0352778" />
  <path
   id="path1936"
   class="fil0"
   d="m 686.89362,200.38611 c 3.70416,-7.19666 3.88055,-18.48555 0.28222,-21.44889 -3.175,-2.64583 -9.63083,-0.74083 -7.76111,2.25778 0.70555,1.16417 1.905,4.79778 2.64583,8.14917 1.19945,5.18583 1.62278,5.50333 2.96334,2.32833 0.91722,-2.15194 0.59972,-5.18583 -0.70556,-7.3025 -3.13972,-5.00944 -2.8575,-6.59694 0.67028,-3.70416 4.02166,3.35138 3.66889,10.33638 -0.9525,18.55611 -2.15195,3.81 -3.03389,6.94972 -2.01084,6.94972 1.02306,0 3.21028,-2.61056 4.86834,-5.78556 z"
   style="stroke-width:0.0352778" />
  <path
   id="path1934"
   class="fil0"
   d="m 679.45001,190.93167 c -0.45861,-1.86972 -0.84667,0.14111 -0.84667,4.445 0.0353,4.30389 0.42333,5.85611 0.91722,3.42194 0.45861,-2.43416 0.42334,-5.96194 -0.0706,-7.86694 z"
   style="stroke-width:0.0352778" />
  <path
   id="path1929"
   class="fil0"
   d="m 639.6214,191.46084 c 0.635,-1.62278 0.67027,-2.92806 0.0706,-2.92806 -0.56444,0 -2.36361,1.30528 -3.98639,2.92806 -2.54,2.54 -2.57528,2.92805 -0.0706,2.92805 1.5875,0 3.38666,-1.30528 3.98639,-2.92805 z"
   style="stroke-width:0.0352778" />
 </g>
</svg>
