<?xml version="1.0" encoding="UTF-8"?>
<svg version="1.0" viewBox="20 0 620 400" xmlns="http://www.w3.org/2000/svg" width="30" height="20">
<path d="m20 0h620v400h-620z" fill="#fff"/>
<path id="b" d="m599.29 80.43 0.91-7.8-2.21 7.62c-4.62 15.92-17.8 29.5-31.29 32.25-10.03 2.04-18.88 5.28-22.39 8.19-2.19 1.82-3.01 1.75-5.44-0.44-1.84-1.66-5.65-2.58-10.73-2.58-6.96 0-8.29 0.56-11.47 4.86-1.97 2.67-3.99 4.47-4.47 3.98-0.48-0.48 0.02-1.96 1.12-3.28 1.46-1.76 1.5-2.4 0.14-2.4-1.01 0-2.83 2.33-4.02 5.19-2.68 6.42-9.97 13.06-13.55 13.06-10.99-3.86-12.44-21-25.02-21.9-4.25 0.21-4.25 0.21-0.31 0.93 5.44 0.99 7.52 6.73 14.46 15.59 43.76 55.78 104.83 6.96 114.3-53.27z" fill="#f00"/>
<path d="m337.12 346.2c-69.11 0.95-159.69-46.3-187.55-113.01-2.66-7.62-6.52-14.71-9.49-22.2-8.86-13.09-17.33-27.67-28.48-38.97-26.12-26.56-50.86-58.38-52.44-97.02 0.08-3.1 1.07 0.67 2.33 8.39 10.39 63.49 72.09 105.82 116.14 51.76 2.92-3.59 5.6-8.92 7.34-10.88 3.21-3.6 8.94-4.86 8.94-1.97 0 0.86-1.76 1.58-3.92 1.58-3.14 0-4.75 1.63-8.08 8.21-3.85 7.59-19.99 23.96-22.96 24.96-2.47 0.83-0.83 2.81 5.34 6.05 13.83 7.25 18.61 10.43 33.02 21.9 15.38 12.74 33.55 22.79 54.04 23.23 18.42-3.85 30.05-4.24 41.26 6.53 5.9 5.68 17.74 7.05 37.99 7.05s31.95-1.51 37.99-7.05c11.76-10.78 22.83-10.38 41.26-6.53 20.88-0.11 38.18-10.99 54.04-23.23 14.4-11.47 19.18-14.64 33.02-21.9 6.18-3.24 8.66-6.05 5.34-6.05-3.13 0-19.11-17.36-22.96-24.96-3.33-6.57-4.94-8.21-8.08-8.21-2.15 0-3.92-0.71-3.92-1.58 0-2.89 5.72-1.62 8.94 1.97 1.74 1.95 5.05 6.85 7.34 10.88 49.35 59.1 107.28 2.56 117.12-51.76 1.2-7.72 2.25-11.49 2.33-8.39-1.71 38.53-28.18 70.16-53.41 97.02-10.7 11.91-20.55 24.98-28.48 38.97-3.44 7.27-6.12 14.9-9.49 22.2-34.61 66.15-99.73 114.25-174.54 113.01z" fill="#f00"/>
<path d="m277.67 212.46c1.46-6.26-8.97-3.69-5.44 1.41 1.51 2.42 5.75 1.91 5.44-1.41zm111.69 0.53c1.71-5.67-8.12-5.78-5.79 0.34 0.83 3 5.12 2.55 5.79-0.34z" fill="#fff"/>
<use transform="matrix(-1,0,0,1,661.71,4.76e-7)" href="#b"/>
<path id="a" d="m551.19 144.62c-0.52-0.48-1.88-0.53-3.02-0.11-1.26 0.46-0.88 0.81 0.95 0.88 1.66 0.06 2.59-0.28 2.07-0.77zm-15.07-14.94c0.54-4.38 6.02-6.63 6.02-2.47 0 1.34 1.42 4.12 3.16 6.17 4.69 5.54 3.88 6.32-3.25 3.12-5.43-2.43-6.34-3.47-5.92-6.81zm26.59 1.85c3.73-6.16 4.01-11.37 0.76-13.88-2.83-2.17-3.06-0.99-0.54 2.75 1.07 1.59 1.3 3.85 0.56 5.47-1.08 2.36-1.41 2.11-2.36-1.76-0.6-2.48-1.57-5.22-2.13-6.07-1.5-2.25 3.7-3.67 6.26-1.7 4.24 3.26 0.74 20.37-4.16 20.37-0.83 0-0.1-2.32 1.62-5.17zm-15.45 0.93c-3.26-4.1-3.27-4.27-0.37-4.97 1.65-0.4 3.3 0.02 3.65 0.94s1.68 3.34 2.44 2.68-0.65-4.53-2.64-5.92c-1.98-1.38-3.1-2.98-2.49-3.55 0.61-0.56 2.19-0.21 3.52 0.78 2.01 1.51 2.25 1.41 1.43-0.62-1.07-2.66 2.81-4.98 4.38-2.62 0.51 0.77 0.1 1.4-0.9 1.4-1.01 0-1.42 1.02-0.9 2.27 0.53 1.3 0.27 1.89-0.61 1.38-0.85-0.49-1.44 0.29-1.31 1.75 0.49 5.29-0.28 10.71-1.53 10.71-0.7 0-2.8-1.91-4.66-4.24zm11.18-7.13c0.39-1.4 0.7 0.09 0.68 3.31-0.01 3.22-0.34 4.37-0.71 2.54-0.37-1.82-0.36-4.46 0.03-5.86zm-34.69 0.38c1.3-1.2 2.75-2.19 3.22-2.19 0.46 0 0.44 0.98-0.05 2.19-0.5 1.2-1.95 2.19-3.22 2.19-2 0-1.99-0.29 0.05-2.19zm-393.67 25.78c-1.5-0.73-5.23-2.04-8.27-2.9l-5.53-1.56 6.32 0.66c3.47 0.36 7.52 0.84 8.99 1.07 1.47 0.22 2.89-0.24 3.16-1.05 0.26-0.8-3.06-1.85-7.41-2.33l-7.9-0.86 9.13-0.23c10.1-0.25 13.58 2.5 8.05 6.39-3.59 2.52-3.18 2.47-6.54 0.83zm-22.2-7.07c0.61-2.94 5.61-4.28 7.95-2.11 2.37 2.2 6.1e-4 4.66-4.5 4.66-2.92 0-3.83-0.67-3.44-2.54z" fill="#fff"/>
<use transform="matrix(-1,0,0,1,662.39,0)" href="#a"/>
</svg>
