<?xml version="1.0"?>
<svg width="30" height="20" xmlns="http://www.w3.org/2000/svg"><symbol id="Berber_flag" width="30" height="20" viewBox="0 0 900 600"><path d="M0 0h900v200H0z" fill="#0090DA"/><path d="M0 200h900v200H0z" fill="#78BE20"/><path d="M0 400h900v200H0z" fill="#FEDD00"/><path d="m429.68 477.64 28.455 30.081 8.13-409.75-16.26-17.073z" fill="#C03"/><path d="m657.32 515.85 54.471-23.577c-104.88-104.06-165.04-142.28-264.22-144.71-126.02 8.9431-208.13 59.349-243.09 159.35l24.39-4.8778c99.999-123.58 156.91-109.76 220.32-117.07 67.479 2.4391 136.58 46.341 208.13 130.89v-3e-4zm-367.48-422.76-52.032 13.821c50.406 89.43 122.76 143.9 215.44 147.97 122.76.81292 193.49-82.113 242.27-156.91l-41.463 12.195c-78.861 111.38-164.23 115.45-202.44 109.76-64.227-4.8778-117.07-57.723-161.79-126.83z" fill="#C03"/></symbol><use x="-6" href="#Berber_flag"/><path d="M19 0h11v20H19z" fill="#fff"/><path transform="matrix(0 -.1.1 0 0 0)" d="m-162 253.7 12.8 25.4h14.1v-.6l-14.7-28.1q2.8-1.3 5.1-3t3.9-4.1q1.6-2.3 2.4-5.2.9-2.9.9-6.6 0-5-1.7-8.9-1.8-3.8-5-6.4-3.3-2.6-7.9-3.9t-10.2-1.3h-22.9v68.1h13.2v-25.4zm-10-10.7v-21.4h9.7q2.7 0 4.8.7t3.6 1.9q1.6 1.3 2.4 3.4t.8 4.8q0 2.3-.6 4.1t-1.8 3.1q-1.5 1.7-3.8 2.5-2.3.9-5.4.9zm52.3-32v10.6h12.9v46.9h-12.9v10.6h39.38v-10.6h-13.29v-46.9h13.29v-10.6zm102.85 39.9v-10.7h-29.21v-18.5h32.86v-10.7h-46.06v68.1h13.2v-28.2z"/></svg>
