<?xml version="1.0"?>
<svg width="30" height="20" xmlns="http://www.w3.org/2000/svg"><symbol id="Berber_flag" width="30" height="20" viewBox="0 0 900 600"><path d="M0 0h900v200H0z" fill="#0090DA"/><path d="M0 200h900v200H0z" fill="#78BE20"/><path d="M0 400h900v200H0z" fill="#FEDD00"/><path d="m429.68 477.64 28.455 30.081 8.13-409.75-16.26-17.073z" fill="#C03"/><path d="m657.32 515.85 54.471-23.577c-104.88-104.06-165.04-142.28-264.22-144.71-126.02 8.9431-208.13 59.349-243.09 159.35l24.39-4.8778c99.999-123.58 156.91-109.76 220.32-117.07 67.479 2.4391 136.58 46.341 208.13 130.89v-3e-4zm-367.48-422.76-52.032 13.821c50.406 89.43 122.76 143.9 215.44 147.97 122.76.81292 193.49-82.113 242.27-156.91l-41.463 12.195c-78.861 111.38-164.23 115.45-202.44 109.76-64.227-4.8778-117.07-57.723-161.79-126.83z" fill="#C03"/></symbol><use x="-6" href="#Berber_flag"/><path d="M19 0h11v20H19z" fill="#fff"/><path transform="matrix(0 -.2.2 0 0 0)" d="m-81.02 126.8 6.41 12.8h7.05v-.3l-7.33-14.1q1.41-.6 2.53-1.5 1.15-.9 1.97-2 .79-1.2 1.21-2.6.45-1.5.45-3.3 0-2.6-.89-4.5-.87-1.9-2.48-3.2-1.64-1.3-3.93-1.9-2.3-.7-5.13-.7h-11.42v34.1h6.58v-12.8zm-4.98-5.3v-10.7h4.84q1.36 0 2.41.3 1.06.4 1.78 1 .82.7 1.22 1.7.42 1 .42 2.4 0 1.1-.33 2-.3 1-.91 1.6-.73.8-1.9 1.3-1.14.4-2.67.4zm26.14-16v5.3h6.48v23.5h-6.48v5.3h19.7v-5.3h-6.65v-23.5h6.65v-5.3zm51.433 19.9v-5.3h-14.603v-9.3h16.429v-5.3h-23.029v34.1h6.6v-14.2z"/></svg>
