<?xml version="1.0" encoding="UTF-8" standalone="no"?>
<!-- Creator: CorelDRAW Home & Student X8 -->

<svg
   xml:space="preserve"
   width="7.9375005mm"
   height="5.291667mm"
   version="1.1"
   style="clip-rule:evenodd;fill-rule:evenodd;image-rendering:optimizeQuality;shape-rendering:geometricPrecision;text-rendering:geometricPrecision"
   viewBox="0 0 793.75005 529.1667"
   id="svg35"
   sodipodi:docname="Çigan.svg"
   inkscape:version="1.4 (86a8ad7, 2024-10-11)"
   xmlns:inkscape="http://www.inkscape.org/namespaces/inkscape"
   xmlns:sodipodi="http://sodipodi.sourceforge.net/DTD/sodipodi-0.dtd"
   xmlns="http://www.w3.org/2000/svg"
   xmlns:svg="http://www.w3.org/2000/svg"><sodipodi:namedview
   id="namedview35"
   pagecolor="#ffffff"
   bordercolor="#000000"
   borderopacity="0.25"
   inkscape:showpageshadow="2"
   inkscape:pageopacity="0.0"
   inkscape:pagecheckerboard="0"
   inkscape:deskcolor="#d1d1d1"
   inkscape:document-units="mm"
   inkscape:zoom="1.4234583"
   inkscape:cx="425.37248"
   inkscape:cy="283.46457"
   inkscape:window-width="1920"
   inkscape:window-height="1009"
   inkscape:window-x="-8"
   inkscape:window-y="-8"
   inkscape:window-maximized="1"
   inkscape:current-layer="Layer_x0020_1" />
 <defs
   id="defs1">
  <style
   type="text/css"
   id="style1">
   <![CDATA[
    .fil0 {fill:#398C36;fill-rule:nonzero}
    .fil1 {fill:#4870B5;fill-rule:nonzero}
    .fil2 {fill:#E53924;fill-rule:nonzero}
   ]]>
  </style>
 </defs>
 <g
   id="Layer_x0020_1"
   inkscape:label="Layer 1"
   inkscape:groupmode="layer">
  <metadata
   id="CorelCorpID_0Corel-Layer" />
  <polygon
   class="fil0"
   points="0,0 0,15000 22500,15000 22500,0 "
   id="polygon1"
   transform="scale(0.03527778)" />
  <polygon
   class="fil1"
   points="0,0 0,7500 22500,7500 22500,0 "
   id="polygon2"
   transform="scale(0.03527778)" />
  <path
   class="fil2"
   d="m 573.26389,264.58334 c 0,97.40194 -78.98694,176.38889 -176.38889,176.38889 -97.40194,0 -176.38889,-78.98695 -176.38889,-176.38889 0,-97.40195 78.98695,-176.388895 176.38889,-176.388895 97.40195,0 176.38889,78.986945 176.38889,176.388895 z"
   id="path2"
   style="stroke-width:0.0352778" />
  <path
   class="fil1"
   d="m 262.5725,219.32195 c 9.8425,1.97555 16.26306,11.53583 14.2875,21.37833 -1.97555,9.87778 -11.53583,16.26306 -21.37833,14.2875 -9.87778,-1.94028 -16.26306,-11.53583 -14.32278,-21.37833 1.97556,-9.8425 11.57111,-16.26306 21.41361,-14.2875 z"
   id="path3"
   style="stroke-width:0.0352778" />
  <path
   class="fil1"
   d="m 348.43861,248.21445 c 3.56306,0.70555 5.89139,4.19805 5.18584,7.76111 -0.70556,3.59833 -4.19806,5.92666 -7.76111,5.22111 -3.59834,-0.74083 -5.92667,-4.19806 -5.22111,-7.79639 0.70555,-3.59833 4.19805,-5.89139 7.79638,-5.18583 z"
   id="path4"
   style="stroke-width:0.0352778" />
  <polygon
   class="fil1"
   points="7323,6491 7274,7239 9816,7406 9835,7107 "
   id="polygon4"
   transform="scale(0.03527778)" />
  <polygon
   class="fil1"
   points="7236,6929 7477,6219 9889,7038 9792,7322 "
   id="polygon5"
   transform="scale(0.03527778)" />
  <path
   class="fil1"
   d="m 290.12445,171.37945 c 8.32555,5.57389 10.58333,16.86277 5.00944,25.22361 -5.57389,8.36083 -16.89805,10.58333 -25.22361,5.00944 -8.36083,-5.57389 -10.61861,-16.86278 -5.04472,-25.22361 5.60917,-8.36083 16.89805,-10.61861 25.25889,-5.00944 z"
   id="path5"
   style="stroke-width:0.0352778" />
  <path
   class="fil1"
   d="m 358.38695,230.89306 c 3.03389,2.04611 3.84528,6.13833 1.83444,9.2075 -2.04611,3.03389 -6.13833,3.84528 -9.17222,1.79916 -3.06917,-2.01083 -3.88056,-6.13833 -1.83444,-9.17222 2.01083,-3.03389 6.13833,-3.84528 9.17222,-1.83444 z"
   id="path6"
   style="stroke-width:0.0352778" />
  <polygon
   class="fil1"
   points="8008,5065 7677,5738 9961,6864 10094,6595 "
   id="polygon6"
   transform="scale(0.03527778)" />
  <polygon
   class="fil1"
   points="7760,5437 8254,4873 10169,6552 9972,6778 "
   id="polygon7"
   transform="scale(0.03527778)" />
  <path
   class="fil1"
   d="m 333.90417,137.61861 c 5.57389,8.32556 3.35139,19.64972 -5.00944,25.22361 -8.36084,5.57389 -19.64973,3.31612 -25.22362,-5.00944 -5.60916,-8.36083 -3.35138,-19.64972 5.00945,-25.25889 8.36083,-5.57389 19.64972,-3.31611 25.22361,5.04472 z"
   id="path7"
   style="stroke-width:0.0352778" />
  <path
   class="fil1"
   d="m 374.19139,218.7575 c 2.04611,3.03389 1.23472,7.12611 -1.79916,9.17222 -3.06917,2.01084 -7.16139,1.19945 -9.2075,-1.83444 -2.01084,-3.03389 -1.19945,-7.16139 1.83444,-9.17222 3.03389,-2.04611 7.16139,-1.23472 9.17222,1.83444 z"
   id="path8"
   style="stroke-width:0.0352778" />
  <polygon
   class="fil1"
   points="9187,4010 8623,4504 10302,6419 10528,6222 "
   id="polygon8"
   transform="scale(0.03527778)" />
  <polygon
   class="fil1"
   points="8815,4258 9488,3927 10614,6211 10345,6344 "
   id="polygon9"
   transform="scale(0.03527778)" />
  <path
   class="fil1"
   d="m 387.27945,123.19 c 1.97555,9.8425 -4.40972,19.40278 -14.2875,21.37833 -9.8425,1.97556 -19.40278,-4.445 -21.37834,-14.2875 -1.97555,-9.8425 4.445,-19.43805 14.2875,-21.41361 9.8425,-1.94027 19.43806,4.445 21.37834,14.32278 z"
   id="path9"
   style="stroke-width:0.0352778" />
  <path
   class="fil1"
   d="m 393.48834,213.57167 c 0.70555,3.56305 -1.62278,7.05555 -5.22111,7.76111 -3.56306,0.70556 -7.05556,-1.62278 -7.76111,-5.18583 -0.70556,-3.59834 1.5875,-7.09084 5.18583,-7.79639 3.59833,-0.70556 7.05555,1.62278 7.79639,5.22111 z"
   id="path10"
   style="stroke-width:0.0352778" />
  <polygon
   class="fil1"
   points="10679,3486 9969,3727 10788,6139 11072,6042 "
   id="polygon10"
   transform="scale(0.03527778)" />
  <polygon
   class="fil1"
   points="10241,3573 10989,3524 11156,6066 10857,6085 "
   id="polygon11"
   transform="scale(0.03527778)" />
  <path
   class="fil1"
   d="m 442.13639,130.28083 c -1.97555,9.8425 -11.53583,16.26306 -21.37833,14.2875 -9.87778,-1.97555 -16.26306,-11.53583 -14.2875,-21.37833 1.94028,-9.87778 11.53583,-16.26305 21.37833,-14.32278 9.8425,1.97556 16.26306,11.57111 14.2875,21.41361 z"
   id="path11"
   style="stroke-width:0.0352778" />
  <path
   class="fil1"
   d="m 413.24389,216.14695 c -0.70555,3.56305 -4.19805,5.89139 -7.76111,5.18583 -3.59833,-0.70556 -5.92666,-4.19806 -5.18583,-7.76111 0.70555,-3.59833 4.19805,-5.92667 7.76111,-5.22111 3.59833,0.70555 5.92667,4.19805 5.18583,7.79639 z"
   id="path12"
   style="stroke-width:0.0352778" />
  <polygon
   class="fil1"
   points="12259,3573 11511,3524 11344,6066 11643,6085 "
   id="polygon12"
   transform="scale(0.03527778)" />
  <polygon
   class="fil1"
   points="11821,3486 12531,3727 11712,6139 11428,6042 "
   id="polygon13"
   transform="scale(0.03527778)" />
  <path
   class="fil1"
   d="m 490.07889,157.83278 c -5.57389,8.32556 -16.86277,10.58333 -25.22361,5.00944 -8.36083,-5.57389 -10.58333,-16.89805 -5.00944,-25.22361 5.57389,-8.36083 16.86278,-10.61861 25.22361,-5.04472 8.36083,5.60917 10.61861,16.89806 5.00944,25.25889 z"
   id="path13"
   style="stroke-width:0.0352778" />
  <path
   class="fil1"
   d="m 430.56528,226.09528 c -2.04611,3.03389 -6.13833,3.84528 -9.2075,1.83444 -3.03389,-2.04611 -3.84528,-6.13833 -1.79916,-9.17222 2.01083,-3.06916 6.13833,-3.88055 9.17222,-1.83444 3.03389,2.01083 3.84528,6.13833 1.83444,9.17222 z"
   id="path14"
   style="stroke-width:0.0352778" />
  <polygon
   class="fil1"
   points="13685,4258 13012,3927 11886,6211 12155,6344 "
   id="polygon14"
   transform="scale(0.03527778)" />
  <polygon
   class="fil1"
   points="13313,4010 13877,4504 12198,6419 11972,6222 "
   id="polygon15"
   transform="scale(0.03527778)" />
  <path
   class="fil1"
   d="m 523.83973,201.6125 c -8.32556,5.57389 -19.64972,3.35139 -25.22361,-5.00944 -5.57389,-8.36084 -3.31611,-19.64972 5.00944,-25.22361 8.36083,-5.60917 19.64972,-3.35139 25.25889,5.00944 5.57389,8.36083 3.31611,19.64972 -5.04472,25.22361 z"
   id="path15"
   style="stroke-width:0.0352778" />
  <path
   class="fil1"
   d="m 442.70084,241.89972 c -3.03389,2.04612 -7.12611,1.23473 -9.17222,-1.79916 -2.01084,-3.06917 -1.19945,-7.16139 1.83444,-9.2075 3.03389,-2.01084 7.16139,-1.19945 9.17222,1.83444 2.04611,3.03389 1.23472,7.16139 -1.83444,9.17222 z"
   id="path16"
   style="stroke-width:0.0352778" />
  <polygon
   class="fil1"
   points="14740,5437 14246,4873 12331,6552 12529,6778 "
   id="polygon16"
   transform="scale(0.03527778)" />
  <polygon
   class="fil1"
   points="14492,5065 14823,5738 12539,6864 12407,6595 "
   id="polygon17"
   transform="scale(0.03527778)" />
  <path
   class="fil1"
   d="m 538.26834,254.98778 c -9.8425,1.97556 -19.40278,-4.40972 -21.37833,-14.2875 -1.94028,-9.8425 4.445,-19.40278 14.2875,-21.37833 9.8425,-1.97556 19.43805,4.445 21.41361,14.2875 1.94027,9.8425 -4.445,19.43805 -14.32278,21.37833 z"
   id="path17"
   style="stroke-width:0.0352778" />
  <path
   class="fil1"
   d="m 447.92195,261.19667 c -3.59833,0.70555 -7.09083,-1.62278 -7.79639,-5.22111 -0.70556,-3.56306 1.62278,-7.05556 5.18583,-7.76111 3.59834,-0.70556 7.09084,1.5875 7.79639,5.18583 0.70556,3.59833 -1.62278,7.05556 -5.18583,7.79639 z"
   id="path18"
   style="stroke-width:0.0352778" />
  <polygon
   class="fil1"
   points="15264,6929 15023,6219 12611,7038 12708,7322 "
   id="polygon18"
   transform="scale(0.03527778)" />
  <polygon
   class="fil1"
   points="15177,6491 15226,7239 12684,7406 12665,7107 "
   id="polygon19"
   transform="scale(0.03527778)" />
  <path
   class="fil0"
   d="m 531.17751,309.84473 c -9.8425,-1.97556 -16.22778,-11.53584 -14.2875,-21.37834 1.97555,-9.87778 11.53583,-16.26305 21.37833,-14.2875 9.87778,1.94028 16.26305,11.53584 14.32278,21.37834 -1.97556,9.8425 -11.57111,16.26305 -21.41361,14.2875 z"
   id="path19"
   style="stroke-width:0.0352778" />
  <path
   class="fil0"
   d="m 445.31139,280.95223 c -3.56305,-0.70556 -5.89139,-4.19806 -5.18583,-7.76112 0.70556,-3.59833 4.19806,-5.92666 7.79639,-5.18583 3.56305,0.70556 5.89139,4.19806 5.18583,7.76111 -0.70555,3.59834 -4.19805,5.92667 -7.79639,5.18584 z"
   id="path20"
   style="stroke-width:0.0352778" />
  <polygon
   class="fil0"
   points="15177,8509 15226,7761 12684,7594 12665,7893 "
   id="polygon20"
   transform="scale(0.03527778)" />
  <polygon
   class="fil0"
   points="15264,8071 15023,8781 12611,7962 12708,7678 "
   id="polygon21"
   transform="scale(0.03527778)" />
  <path
   class="fil0"
   d="m 503.62556,357.78723 c -8.32555,-5.57389 -10.58333,-16.86278 -5.00944,-25.22362 5.57389,-8.36083 16.89805,-10.58333 25.22361,-5.00944 8.36083,5.57389 10.61861,16.86278 5.04472,25.22361 -5.60917,8.36083 -16.89806,10.61861 -25.25889,5.00945 z"
   id="path21"
   style="stroke-width:0.0352778" />
  <path
   class="fil0"
   d="m 435.36306,298.27361 c -3.03389,-2.04611 -3.84528,-6.13833 -1.83444,-9.2075 2.04611,-3.03388 6.13833,-3.84527 9.17222,-1.79916 3.06916,2.01083 3.88055,6.13833 1.83444,9.17222 -2.01083,3.03389 -6.13833,3.84528 -9.17222,1.83444 z"
   id="path22"
   style="stroke-width:0.0352778" />
  <polygon
   class="fil0"
   points="14492,9935 14823,9262 12539,8136 12407,8405 "
   id="polygon22"
   transform="scale(0.03527778)" />
  <polygon
   class="fil0"
   points="14740,9563 14246,10127 12331,8448 12529,8222 "
   id="polygon23"
   transform="scale(0.03527778)" />
  <path
   class="fil0"
   d="m 459.84584,391.54806 c -5.57389,-8.32556 -3.35139,-19.64972 5.00944,-25.22361 8.36084,-5.57389 19.64972,-3.31611 25.22361,5.00944 5.60917,8.36084 3.35139,19.64973 -5.00944,25.25889 -8.36083,5.57389 -19.64972,3.31611 -25.22361,-5.04472 z"
   id="path23"
   style="stroke-width:0.0352778" />
  <path
   class="fil0"
   d="m 419.55862,310.40917 c -2.04612,-3.03389 -1.23473,-7.12611 1.79916,-9.17222 3.06917,-2.01084 7.16139,-1.19945 9.2075,1.83444 2.01084,3.03389 1.19945,7.16139 -1.83444,9.17222 -3.03389,2.04612 -7.16139,1.23473 -9.17222,-1.83444 z"
   id="path24"
   style="stroke-width:0.0352778" />
  <polygon
   class="fil0"
   points="13313,10990 13877,10496 12198,8581 11972,8779 "
   id="polygon24"
   transform="scale(0.03527778)" />
  <polygon
   class="fil0"
   points="13685,10742 13012,11073 11886,8789 12155,8657 "
   id="polygon25"
   transform="scale(0.03527778)" />
  <path
   class="fil0"
   d="m 406.47056,405.97667 c -1.97556,-9.8425 4.40972,-19.40278 14.2875,-21.37833 9.8425,-1.94028 19.40278,4.445 21.37833,14.2875 1.97556,9.8425 -4.445,19.43805 -14.2875,21.41361 -9.8425,1.94028 -19.43805,-4.445 -21.37833,-14.32278 z"
   id="path25"
   style="stroke-width:0.0352778" />
  <path
   class="fil0"
   d="m 400.29695,315.63028 c -0.74083,-3.59833 1.5875,-7.09083 5.18583,-7.79639 3.56306,-0.70555 7.05556,1.62278 7.76111,5.18584 0.74084,3.59833 -1.5875,7.09083 -5.18583,7.79638 -3.56306,0.70556 -7.05556,-1.62277 -7.76111,-5.18583 z"
   id="path26"
   style="stroke-width:0.0352778" />
  <polygon
   class="fil0"
   points="11821,11514 12531,11273 11712,8861 11428,8958 "
   id="polygon26"
   transform="scale(0.03527778)" />
  <polygon
   class="fil0"
   points="12259,11427 11511,11476 11344,8934 11643,8915 "
   id="polygon27"
   transform="scale(0.03527778)" />
  <path
   class="fil0"
   d="m 351.61361,398.88584 c 1.97556,-9.8425 11.53584,-16.22778 21.37834,-14.2875 9.87778,1.97555 16.26305,11.53583 14.2875,21.37833 -1.94028,9.87778 -11.53584,16.26306 -21.37834,14.32278 -9.8425,-1.97556 -16.26305,-11.57111 -14.2875,-21.41361 z"
   id="path27"
   style="stroke-width:0.0352778" />
  <path
   class="fil0"
   d="m 380.50612,313.01973 c 0.70555,-3.56306 4.19805,-5.89139 7.76111,-5.18584 3.59833,0.70556 5.92666,4.19806 5.22111,7.79639 -0.74084,3.56306 -4.19806,5.89139 -7.79639,5.18583 -3.59833,-0.70555 -5.89139,-4.19805 -5.18583,-7.79638 z"
   id="path28"
   style="stroke-width:0.0352778" />
  <polygon
   class="fil0"
   points="10241,11427 10989,11476 11156,8934 10857,8915 "
   id="polygon28"
   transform="scale(0.03527778)" />
  <polygon
   class="fil0"
   points="10679,11514 9969,11273 10788,8861 11072,8958 "
   id="polygon29"
   transform="scale(0.03527778)" />
  <path
   class="fil0"
   d="m 303.67111,371.33389 c 5.57389,-8.32555 16.86278,-10.58333 25.22362,-5.00944 8.36083,5.57389 10.58333,16.89805 5.00944,25.22361 -5.57389,8.36083 -16.86278,10.61861 -25.22361,5.04472 -8.36083,-5.60916 -10.61861,-16.89805 -5.00945,-25.25889 z"
   id="path29"
   style="stroke-width:0.0352778" />
  <path
   class="fil0"
   d="m 363.18473,303.07139 c 2.04611,-3.03389 6.13833,-3.84528 9.2075,-1.83444 3.03388,2.04611 3.84527,6.13833 1.79916,9.17222 -2.01083,3.06917 -6.13833,3.88056 -9.17222,1.83444 -3.03389,-2.01083 -3.84528,-6.13833 -1.83444,-9.17222 z"
   id="path30"
   style="stroke-width:0.0352778" />
  <polygon
   class="fil0"
   points="8815,10742 9488,11073 10614,8789 10345,8657 "
   id="polygon30"
   transform="scale(0.03527778)" />
  <polygon
   class="fil0"
   points="9187,10990 8623,10496 10302,8581 10528,8779 "
   id="polygon31"
   transform="scale(0.03527778)" />
  <path
   class="fil0"
   d="m 269.91028,327.55417 c 8.32556,-5.57389 19.64972,-3.35139 25.22361,5.00944 5.57389,8.36084 3.31611,19.64973 -5.00944,25.22362 -8.36084,5.60916 -19.64972,3.35138 -25.25889,-5.00945 -5.57389,-8.36083 -3.31611,-19.64972 5.04472,-25.22361 z"
   id="path31"
   style="stroke-width:0.0352778" />
  <path
   class="fil0"
   d="m 351.04917,287.26695 c 3.03389,-2.04611 7.12611,-1.23472 9.17222,1.79916 2.01084,3.06917 1.19945,7.16139 -1.83444,9.2075 -3.03389,2.01084 -7.16139,1.19945 -9.17222,-1.83444 -2.04612,-3.03389 -1.23473,-7.16139 1.83444,-9.17222 z"
   id="path32"
   style="stroke-width:0.0352778" />
  <polygon
   class="fil0"
   points="7760,9563 8254,10127 10169,8448 9972,8222 "
   id="polygon32"
   transform="scale(0.03527778)" />
  <polygon
   class="fil0"
   points="8008,9935 7677,9262 9961,8136 10094,8405 "
   id="polygon33"
   transform="scale(0.03527778)" />
  <path
   class="fil0"
   d="m 255.48167,274.17889 c 9.8425,-1.97555 19.40278,4.40972 21.37833,14.2875 1.97556,9.8425 -4.445,19.40278 -14.2875,21.37834 -9.8425,1.97555 -19.43805,-4.445 -21.41361,-14.2875 -1.94028,-9.8425 4.445,-19.43806 14.32278,-21.37834 z"
   id="path33"
   style="stroke-width:0.0352778" />
  <path
   class="fil0"
   d="m 345.86334,268.00528 c 3.56305,-0.74083 7.05555,1.5875 7.76111,5.18583 0.70555,3.56306 -1.62278,7.05556 -5.18584,7.76112 -3.59833,0.74083 -7.09083,-1.5875 -7.79638,-5.18584 -0.70556,-3.56305 1.62277,-7.05555 5.22111,-7.76111 z"
   id="path34"
   style="stroke-width:0.0352778" />
  <polygon
   class="fil0"
   points="7236,8071 7477,8781 9889,7962 9792,7678 "
   id="polygon34"
   transform="scale(0.03527778)" />
  <polygon
   class="fil0"
   points="7323,8509 7274,7761 9816,7594 9835,7893 "
   id="polygon35"
   transform="scale(0.03527778)" />
 </g>
</svg>
