<?xml version="1.0" encoding="UTF-8" standalone="no"?>
<!-- Created with Inkscape (http://www.inkscape.org/) -->

<svg
   width="7.9375mm"
   height="5.2916698mm"
   viewBox="0 0 7.9375 5.2916698"
   version="1.1"
   id="svg1"
   inkscape:version="1.4 (86a8ad7, 2024-10-11)"
   sodipodi:docname="run.svg"
   xmlns:inkscape="http://www.inkscape.org/namespaces/inkscape"
   xmlns:sodipodi="http://sodipodi.sourceforge.net/DTD/sodipodi-0.dtd"
   xmlns="http://www.w3.org/2000/svg"
   xmlns:svg="http://www.w3.org/2000/svg">
  <sodipodi:namedview
     id="namedview1"
     pagecolor="#ffffff"
     bordercolor="#000000"
     borderopacity="0.25"
     inkscape:showpageshadow="2"
     inkscape:pageopacity="0.0"
     inkscape:pagecheckerboard="0"
     inkscape:deskcolor="#d1d1d1"
     inkscape:document-units="mm"
     inkscape:zoom="0.71891835"
     inkscape:cx="846.41044"
     inkscape:cy="462.50037"
     inkscape:window-width="1904"
     inkscape:window-height="993"
     inkscape:window-x="57"
     inkscape:window-y="125"
     inkscape:window-maximized="0"
     inkscape:current-layer="layer1" />
  <defs
     id="defs1" />
  <g
     inkscape:label="Layer 1"
     inkscape:groupmode="layer"
     id="layer1"
     transform="translate(546.8024,341.85952)">
    <path
       d="m -546.8024,-341.85952 h 7.9375 l -7.9375,5.29167 h 7.9375 z"
       fill="#ce1126"
       id="path3853"
       style="stroke-width:0.00881944" />
    <path
       d="m -546.8024,-341.85952 v 5.29167 l 7.9375,-5.29167 v 5.29167 z"
       fill="#1eb53a"
       id="path3856"
       style="stroke-width:0.00881944" />
    <path
       id="path3859"
       style="fill:#ffffff;stroke-width:0.00881944"
       d="m -541.33434,-339.21369 a 1.4993055,1.4993055 0 0 1 -1.49931,1.49931 1.4993055,1.4993055 0 0 1 -1.49931,-1.49931 1.4993055,1.4993055 0 0 1 1.49931,-1.4993 1.4993055,1.4993055 0 0 1 1.49931,1.4993 z" />
    <path
       style="color:#000000;fill:#000000;stroke-width:0.705556;-inkscape-stroke:none"
       d="m -546.8024,-341.85952 7.9375,5.29167 m 0,-5.29167 -7.9375,5.29167"
       id="path3847" />
    <path
       id="path3850"
       style="color:#000000;fill:#ffffff;stroke-width:0.00881944;-inkscape-stroke:none"
       d="m -546.8024,-341.85952 v 0.42397 l 3.33279,2.22186 -3.33279,2.22187 v 0.42397 h 0.63596 l 3.33279,-2.22187 3.33279,2.22187 h 0.63596 v -0.42397 l -3.33279,-2.22187 3.33279,-2.22186 v -0.42397 h -0.63596 l -3.33279,2.22186 -3.33279,-2.22186 z" />
    <path
       id="path3721"
       d="m -542.83365,-340.34258 -0.17639,0.30551 0.30551,0.17639"
       style="fill:#1eb53a;stroke-width:0.0176389" />
    <path
       id="path3724"
       d="m -542.83365,-340.34258 0.17639,0.30551 -0.30551,0.17639"
       style="fill:#1eb53a;stroke-width:0.0176389" />
    <path
       id="path3691"
       d="m -542.52814,-339.81341 -0.17638,-0.30551 -0.30551,0.17638"
       style="fill:#1eb53a;stroke-width:0.0176389" />
    <path
       id="path3694"
       d="m -542.52814,-339.81341 -0.35277,10e-6 v -0.35277"
       style="fill:#1eb53a;stroke-width:0.0176389" />
    <path
       id="path3769"
       d="m -543.13916,-339.81341 0.35277,10e-6 v -0.35277"
       style="fill:#1eb53a;stroke-width:0.0176389" />
    <path
       id="path3772"
       d="m -543.13916,-339.81341 0.17638,-0.30551 0.30551,0.17638"
       style="fill:#1eb53a;stroke-width:0.0176389" />
    <path
       id="path3715"
       d="m -542.83365,-339.63702 0.17639,-0.30551 -0.30551,-0.17638"
       style="fill:#1eb53a;stroke-width:0.0176389" />
    <path
       id="path3718"
       d="m -542.83365,-339.63702 -0.17639,-0.30551 0.30551,-0.17638"
       style="fill:#1eb53a;stroke-width:0.0176389" />
    <path
       id="path3793"
       d="m -543.13916,-340.16619 0.17638,0.30551 0.30551,-0.17638"
       style="fill:#1eb53a;stroke-width:0.0176389" />
    <path
       id="path3796"
       d="m -543.13916,-340.16619 h 0.35277 v 0.35277"
       style="fill:#1eb53a;stroke-width:0.0176389" />
    <path
       id="path3763"
       d="m -542.52814,-340.16619 h -0.35277 v 0.35277"
       style="fill:#1eb53a;stroke-width:0.0176389" />
    <path
       id="path3766"
       d="m -542.52814,-340.16619 -0.17638,0.30551 -0.30551,-0.17638"
       style="fill:#1eb53a;stroke-width:0.0176389" />
    <path
       id="path3835"
       d="m -542.83365,-340.27908 -0.14464,0.25052 0.25052,0.14464"
       style="fill:#ce1126;stroke-width:0.0144639" />
    <path
       id="path3838"
       d="m -542.83365,-340.27908 0.14464,0.25052 -0.25052,0.14464"
       style="fill:#ce1126;stroke-width:0.0144639" />
    <path
       id="path3667"
       d="m -542.58313,-339.84516 -0.14463,-0.25052 -0.25052,0.14464"
       style="fill:#ce1126;stroke-width:0.0144639" />
    <path
       id="path3670"
       d="m -542.58313,-339.84516 h -0.28927 v -0.28927"
       style="fill:#ce1126;stroke-width:0.0144639" />
    <path
       id="path3745"
       d="m -543.08417,-339.84516 h 0.28927 v -0.28927"
       style="fill:#ce1126;stroke-width:0.0144639" />
    <path
       id="path3748"
       d="m -543.08417,-339.84516 0.14463,-0.25052 0.25052,0.14464"
       style="fill:#ce1126;stroke-width:0.0144639" />
    <path
       id="path3799"
       d="m -542.83365,-339.70052 0.14464,-0.25051 -0.25052,-0.14464"
       style="fill:#ce1126;stroke-width:0.0144639" />
    <path
       id="path3802"
       d="m -542.83365,-339.70052 -0.14464,-0.25051 0.25052,-0.14464"
       style="fill:#ce1126;stroke-width:0.0144639" />
    <path
       id="path3823"
       d="m -543.08417,-340.13444 0.14463,0.25052 0.25052,-0.14463"
       style="fill:#ce1126;stroke-width:0.0144639" />
    <path
       id="path3826"
       d="m -543.08417,-340.13444 h 0.28927 v 0.28927"
       style="fill:#ce1126;stroke-width:0.0144639" />
    <path
       id="path3811"
       d="m -542.58313,-340.13444 h -0.28927 v 0.28927"
       style="fill:#ce1126;stroke-width:0.0144639" />
    <path
       id="path3814"
       d="m -542.58313,-340.13444 -0.14463,0.25052 -0.25052,-0.14463"
       style="fill:#ce1126;stroke-width:0.0144639" />
    <path
       id="path3841"
       d="m -541.856,-338.64924 -0.17638,-0.30551 -0.30551,0.17638"
       style="fill:#1eb53a;stroke-width:0.0176389" />
    <path
       id="path3844"
       d="m -541.856,-338.64924 h -0.35277 l -1e-5,-0.35277"
       style="fill:#1eb53a;stroke-width:0.0176389" />
    <path
       id="path3661"
       d="m -542.46703,-338.64924 h 0.35277 v -0.35277"
       style="fill:#1eb53a;stroke-width:0.0176389" />
    <path
       id="path3664"
       d="m -542.46703,-338.64924 0.17638,-0.30551 0.30551,0.17638"
       style="fill:#1eb53a;stroke-width:0.0176389" />
    <path
       id="path3679"
       d="m -542.16152,-339.17841 -0.17639,0.30551 0.30551,0.17639"
       style="fill:#1eb53a;stroke-width:0.0176389" />
    <path
       id="path3682"
       d="m -542.16152,-339.17841 0.17639,0.30551 -0.3055,0.17639"
       style="fill:#1eb53a;stroke-width:0.0176389" />
    <path
       id="path3631"
       d="m -542.46703,-339.00202 0.17638,0.30551 0.30551,-0.17638"
       style="fill:#1eb53a;stroke-width:0.0176389" />
    <path
       id="path3634"
       d="m -542.46703,-339.00202 h 0.35277 v 0.35277"
       style="fill:#1eb53a;stroke-width:0.0176389" />
    <path
       id="path3643"
       d="m -541.856,-339.00202 h -0.35277 l -1e-5,0.35277"
       style="fill:#1eb53a;stroke-width:0.0176389" />
    <path
       id="path3646"
       d="m -541.856,-339.00202 -0.17638,0.30551 -0.30551,-0.17638"
       style="fill:#1eb53a;stroke-width:0.0176389" />
    <path
       id="path3727"
       d="m -542.16152,-338.47285 0.17639,-0.30551 -0.3055,-0.17639"
       style="fill:#1eb53a;stroke-width:0.0176389" />
    <path
       id="path3730"
       d="m -542.16152,-338.47285 -0.17639,-0.30551 0.30551,-0.17639"
       style="fill:#1eb53a;stroke-width:0.0176389" />
    <path
       id="path3655"
       d="m -541.911,-338.68099 -0.14463,-0.25052 -0.25052,0.14463"
       style="fill:#ce1126;stroke-width:0.0144639" />
    <path
       id="path3658"
       d="m -541.911,-338.68099 h -0.28927 v -0.28927"
       style="fill:#ce1126;stroke-width:0.0144639" />
    <path
       id="path3787"
       d="m -542.41204,-338.68099 h 0.28927 v -0.28927"
       style="fill:#ce1126;stroke-width:0.0144639" />
    <path
       id="path3790"
       d="m -542.41204,-338.68099 0.14463,-0.25052 0.25052,0.14463"
       style="fill:#ce1126;stroke-width:0.0144639" />
    <path
       id="path3649"
       d="m -542.16152,-339.11491 -0.14464,0.25052 0.25052,0.14463"
       style="fill:#ce1126;stroke-width:0.0144639" />
    <path
       id="path3652"
       d="m -542.16152,-339.11491 0.14464,0.25052 -0.25051,0.14463"
       style="fill:#ce1126;stroke-width:0.0144639" />
    <path
       id="path3685"
       d="m -542.41204,-338.97027 0.14463,0.25052 0.25052,-0.14463"
       style="fill:#ce1126;stroke-width:0.0144639" />
    <path
       id="path3688"
       d="m -542.41204,-338.97027 h 0.28927 v 0.28927"
       style="fill:#ce1126;stroke-width:0.0144639" />
    <path
       id="path3739"
       d="m -541.911,-338.97027 h -0.28927 v 0.28927"
       style="fill:#ce1126;stroke-width:0.0144639" />
    <path
       id="path3742"
       d="m -541.911,-338.97027 -0.14463,0.25052 -0.25052,-0.14463"
       style="fill:#ce1126;stroke-width:0.0144639" />
    <path
       id="path3709"
       d="m -542.16152,-338.53635 0.14464,-0.25052 -0.25051,-0.14464"
       style="fill:#ce1126;stroke-width:0.0144639" />
    <path
       id="path3712"
       d="m -542.16152,-338.53635 -0.14464,-0.25052 0.25052,-0.14464"
       style="fill:#ce1126;stroke-width:0.0144639" />
    <path
       id="path3733"
       d="m -543.8113,-338.64924 h 0.35277 l 10e-6,-0.35277"
       style="fill:#1eb53a;stroke-width:0.0176389" />
    <path
       id="path3736"
       d="m -543.8113,-338.64924 0.17638,-0.30551 0.30551,0.17638"
       style="fill:#1eb53a;stroke-width:0.0176389" />
    <path
       id="path3781"
       d="m -543.50578,-339.17841 -0.17639,0.30551 0.3055,0.17639"
       style="fill:#1eb53a;stroke-width:0.0176389" />
    <path
       id="path3784"
       d="m -543.50578,-339.17841 0.17639,0.30551 -0.30551,0.17639"
       style="fill:#1eb53a;stroke-width:0.0176389" />
    <path
       id="path3817"
       d="m -543.20027,-338.64924 -0.17638,-0.30551 -0.30551,0.17638"
       style="fill:#1eb53a;stroke-width:0.0176389" />
    <path
       id="path3820"
       d="m -543.20027,-338.64924 h -0.35277 v -0.35277"
       style="fill:#1eb53a;stroke-width:0.0176389" />
    <path
       id="path3757"
       d="m -543.20027,-339.00202 h -0.35277 v 0.35277"
       style="fill:#1eb53a;stroke-width:0.0176389" />
    <path
       id="path3760"
       d="m -543.20027,-339.00202 -0.17638,0.30551 -0.30551,-0.17638"
       style="fill:#1eb53a;stroke-width:0.0176389" />
    <path
       id="path3637"
       d="m -543.50578,-338.47285 0.17639,-0.30551 -0.30551,-0.17639"
       style="fill:#1eb53a;stroke-width:0.0176389" />
    <path
       id="path3640"
       d="m -543.50578,-338.47285 -0.17639,-0.30551 0.3055,-0.17639"
       style="fill:#1eb53a;stroke-width:0.0176389" />
    <path
       id="path3805"
       d="m -543.8113,-339.00202 0.17638,0.30551 0.30551,-0.17638"
       style="fill:#1eb53a;stroke-width:0.0176389" />
    <path
       id="path3808"
       d="m -543.8113,-339.00202 h 0.35277 l 10e-6,0.35277"
       style="fill:#1eb53a;stroke-width:0.0176389" />
    <path
       id="path3751"
       d="m -543.7563,-338.68099 h 0.28927 v -0.28927"
       style="fill:#ce1126;stroke-width:0.0144639" />
    <path
       id="path3754"
       d="m -543.7563,-338.68099 0.14463,-0.25052 0.25052,0.14463"
       style="fill:#ce1126;stroke-width:0.0144639" />
    <path
       id="path3775"
       d="m -543.50578,-339.11491 -0.14464,0.25052 0.25051,0.14463"
       style="fill:#ce1126;stroke-width:0.0144639" />
    <path
       id="path3778"
       d="m -543.50578,-339.11491 0.14464,0.25052 -0.25052,0.14463"
       style="fill:#ce1126;stroke-width:0.0144639" />
    <path
       id="path3829"
       d="m -543.25526,-338.68099 -0.14463,-0.25052 -0.25052,0.14463"
       style="fill:#ce1126;stroke-width:0.0144639" />
    <path
       id="path3832"
       d="m -543.25526,-338.68099 h -0.28927 l -10e-6,-0.28927"
       style="fill:#ce1126;stroke-width:0.0144639" />
    <path
       id="path3703"
       d="m -543.25526,-338.97027 h -0.28927 l -10e-6,0.28927"
       style="fill:#ce1126;stroke-width:0.0144639" />
    <path
       id="path3706"
       d="m -543.25526,-338.97027 -0.14463,0.25052 -0.25052,-0.14463"
       style="fill:#ce1126;stroke-width:0.0144639" />
    <path
       id="path3673"
       d="m -543.50578,-338.53635 0.14464,-0.25052 -0.25052,-0.14464"
       style="fill:#ce1126;stroke-width:0.0144639" />
    <path
       id="path3676"
       d="m -543.50578,-338.53635 -0.14464,-0.25052 0.25051,-0.14464"
       style="fill:#ce1126;stroke-width:0.0144639" />
    <path
       id="path3697"
       d="m -543.7563,-338.97027 0.14463,0.25052 0.25052,-0.14463"
       style="fill:#ce1126;stroke-width:0.0144639" />
    <path
       id="path3700"
       d="m -543.7563,-338.97027 h 0.28927 v 0.28927"
       style="fill:#ce1126;stroke-width:0.0144639" />
  </g>
</svg>
