<svg xmlns="http://www.w3.org/2000/svg"><path d="m7.81 6.17q0 .19-.077.346-.077.15-.221.264-.14.11-.356.173-.21.062-.476.062-.3 0-.558-.067-.25-.067-.428-.211-.18-.14-.284-.37-.1-.23-.111-.543h-1.33q0 .54.207.947.21.4.572.702.38.3.889.462.51.15 1.04.154.53 0 .986-.125.45-.13.779-.38.33-.25.51-.601.19-.36.188-.822 0-.53-.245-.942-.25-.41-.659-.716-.27-.19-.601-.332-.33-.14-.688-.245-.34-.091-.606-.197-.26-.11-.452-.236-.19-.12-.288-.284-.096-.16-.0962-.356 0-.19.0721-.346.077-.16.221-.284.14-.12.351-.178.21-.067.481-.0673.29 0 .51.082.22.077.37.216.14.14.216.341.077.2.087.433h1.32q0-.47-.183-.866t-.51-.683q-.33-.28-.784-.442-.45-.16-1-.159-.53 0-.981.139-.45.13-.784.389-.33.25-.519.615t-.188.803q0 .38.139.712.14.33.423.596.28.27.716.495.44.23 1.02.385.38.1.625.221.25.12.413.255.15.14.216.308.067.16.067.351z"/></svg>
