<?xml version="1.0"?>
<svg width="30" height="20" xmlns="http://www.w3.org/2000/svg" xmlns:xlink="http://www.w3.org/1999/xlink"><symbol id="hin" width="30" height="20" fill="#07038D" viewBox="-45 -30 90 60"><path d="m-45-30h90v60h-90z" fill="#FFF"/><path d="m-45-30h90v20h-90z" fill="#FF6820"/><path d="m-45 10h90v20h-90z" fill="#046A38"/><circle r="9.25"/><circle r="8" fill="#FFF"/><circle r="1.6"/><g id="d"><g id="c"><g id="b"><g id="a"><path d="m0-8 .3 4.81409L0-.80235l-.3-2.38356z"/><circle transform="rotate(7.5)" cy="-8" r=".35"/></g><use transform="scale(-1)" xlink:href="#a"/></g><use transform="rotate(15)" xlink:href="#b"/></g><use transform="rotate(30)" xlink:href="#c"/></g><use transform="rotate(60)" xlink:href="#d"/><use transform="rotate(120)" xlink:href="#d"/></symbol><use x="-5.5" href="#hin"/><path d="M19 0h11v20H19z" fill="#fff"/><path transform="matrix(0 -.1.1 0 0 0)" d="m-149.8 261.3q0 1.9-.7 3.4-.8 1.5-2.2 2.6t-3.4 1.7q-2.1.6-4.7.6-2.9 0-5.4-.7-2.4-.6-4.2-2-1.7-1.4-2.7-3.6t-1.1-5.3h-12.9q0 5.3 2 9.2t5.6 6.8q3.7 3 8.6 4.5 5 1.5 10.1 1.5 5.2 0 9.6-1.2 4.4-1.3 7.6-3.7t5-5.9 1.8-8q0-5.2-2.4-9.1-2.4-4-6.4-7-2.7-1.8-5.9-3.2-3.1-1.4-6.7-2.4-3.2-.9-5.8-1.9-2.6-1.1-4.4-2.3-1.9-1.3-2.9-2.8-.9-1.5-.9-3.5 0-1.8.7-3.3.8-1.6 2.2-2.8 1.4-1.1 3.4-1.7 2-.7 4.7-.7 2.8 0 4.9.8 2.2.8 3.6 2.1 1.4 1.4 2.1 3.3.8 2 .9 4.3h12.8q0-4.6-1.8-8.5-1.8-3.8-4.9-6.6-3.2-2.8-7.7-4.3-4.4-1.6-9.7-1.6-5.2 0-9.6 1.4-4.4 1.3-7.6 3.8t-5 6q-1.9 3.5-1.9 7.8 0 3.7 1.4 6.9t4.1 5.8 7 4.8 10 3.8q3.6 1 6 2.1 2.5 1.2 4.1 2.5 1.5 1.4 2.1 3t.6 3.4zm60.68 3.6 3.98 14.2h13.86l-21.91-68.1h-11.91l-22.4 68.1h13.9l4-14.2zm-17.18-11.2 7.12-25.1 6.97 25.1zm96.28-32v-10.7h-54.95v10.7h20.73v57.4h13.2v-57.4z"/></svg>
