<svg width="30" height="20" xmlns="http://www.w3.org/2000/svg" xmlns:xlink="http://www.w3.org/1999/xlink"><symbol id="hin" width="30" height="20" fill="#07038D" viewBox="-45 -30 90 60"><path d="m-45-30h90v60h-90z" fill="#FFF"/><path d="m-45-30h90v20h-90z" fill="#FF6820"/><path d="m-45 10h90v20h-90z" fill="#046A38"/><circle r="9.25"/><circle r="8" fill="#FFF"/><circle r="1.6"/><g id="d"><g id="c"><g id="b"><g id="a"><path d="m0-8 .3 4.81409L0-.80235l-.3-2.38356z"/><circle transform="rotate(7.5)" cy="-8" r=".35"/></g><use transform="scale(-1)" xlink:href="#a"/></g><use transform="rotate(15)" xlink:href="#b"/></g><use transform="rotate(30)" xlink:href="#c"/></g><use transform="rotate(60)" xlink:href="#d"/><use transform="rotate(120)" xlink:href="#d"/></symbol><use x="-5.5" href="#hin"/><path d="M19 0h11v20H19z" fill="#fff"/><path transform="matrix(0 -.2.2 0 0 0)" d="m-74.89 130.7q0 .9-.37 1.7-.38.7-1.08 1.2-.7.6-1.73.9-1.01.3-2.32.3-1.47 0-2.71-.3-1.22-.4-2.08-1.1-.89-.7-1.38-1.8-.5-1.1-.54-2.6h-6.46q0 2.6 1 4.6 1.03 2 2.79 3.4 1.85 1.5 4.33 2.3 2.5.7 5.05.7 2.6 0 4.8-.6t3.79-1.9q1.59-1.1 2.48-2.9.92-1.7.92-4 0-2.6-1.2-4.6-1.19-2-3.2-3.5-1.34-.9-2.93-1.6t-3.35-1.2q-1.63-.4-2.94-.9-1.29-.5-2.2-1.2-.92-.6-1.41-1.3-.47-.8-.47-1.8 0-.9.35-1.7.38-.8 1.08-1.3.7-.6 1.71-.9 1.03-.3 2.34-.3 1.43 0 2.48.4 1.08.3 1.8 1 .7.7 1.06 1.7.37.9.42 2.1h6.41q0-2.3-.89-4.2-.89-2-2.48-3.4-1.59-1.3-3.82-2.1-2.2-.8-4.86-.8-2.58 0-4.78.7t-3.81 1.9q-1.62 1.2-2.53 3-.91 1.7-.91 3.9 0 1.9.68 3.5.7 1.6 2.06 2.9 1.35 1.3 3.48 2.4 2.16 1.1 4.99 1.8 1.82.5 3.04 1.1 1.24.6 2.01 1.3.75.7 1.06 1.5.32.8.32 1.7zm30.33 1.7 1.99 7.2h6.93l-10.95-34.1h-5.97l-11.17 34.1h6.93l2.01-7.2zm-8.61-5.5 3.58-12.6 3.49 12.6zm48.16-16.1v-5.3h-27.48v5.3h10.37v28.8h6.6v-28.8z"/></svg>
