<svg width="30" height="20" xmlns="http://www.w3.org/2000/svg"><symbol id="hin" width="30" height="20" fill="#07038D" viewBox="-45 -30 90 60"><path d="m-45-30h90v60h-90z" fill="#FFF"/><path d="m-45-30h90v20h-90z" fill="#FF6820"/><path d="m-45 10h90v20h-90z" fill="#046A38"/><circle r="9.25"/><circle r="8" fill="#FFF"/><circle r="1.6"/><g id="d"><g id="c"><g id="b"><g id="a"><path d="m0-8 .3 4.81409L0-.80235l-.3-2.38356z"/><circle transform="rotate(7.5)" cy="-8" r=".35"/></g><use transform="scale(-1)" href="#a"/></g><use transform="rotate(15)" href="#b"/></g><use transform="rotate(30)" href="#c"/></g><use transform="rotate(60)" href="#d"/><use transform="rotate(120)" href="#d"/></symbol><use x="-5.5" href="#hin"/><path d="M19 0h11v20H19z" fill="#fff"/><symbol id="S"><path d="m7.81 6.17q0 .19-.077.346-.077.15-.221.264-.14.11-.356.173-.21.062-.476.062-.3 0-.558-.067-.25-.067-.428-.211-.18-.14-.284-.37-.1-.23-.111-.543h-1.33q0 .54.207.947.21.4.572.702.38.3.889.462.51.15 1.04.154.53 0 .986-.125.45-.13.779-.38.33-.25.51-.601.19-.36.188-.822 0-.53-.245-.942-.25-.41-.659-.716-.27-.19-.601-.332-.33-.14-.688-.245-.34-.091-.606-.197-.26-.11-.452-.236-.19-.12-.288-.284-.096-.16-.0962-.356 0-.19.0721-.346.077-.16.221-.284.14-.12.351-.178.21-.067.481-.0673.29 0 .51.082.22.077.37.216.14.14.216.341.077.2.087.433h1.32q0-.47-.183-.866t-.51-.683q-.33-.28-.784-.442-.45-.16-1-.159-.53 0-.981.139-.45.13-.784.389-.33.25-.519.615t-.188.803q0 .38.139.712.14.33.423.596.28.27.716.495.44.23 1.02.385.38.1.625.221.25.12.413.255.15.14.216.308.067.16.067.351z"/></symbol><symbol id="A"><path d="m7.62 6.54.409 1.46h1.42l-2.25-7h-1.23l-2.29 7h1.42l.413-1.46zm-1.77-1.15.736-2.58.716 2.58z"/></symbol><symbol id="T"><path d="m9.32 2.1v-1.1h-5.64v1.1h2.13v5.9h1.36v-5.9z"/></symbol><g transform="rotate(-90 15 -5)"><use x="-13" href="#S"/><use x="-6.5" href="#A"/><use href="#T"/></g></svg>
