<svg width="30" height="20" xmlns="http://www.w3.org/2000/svg"><symbol id="Flag_of_Scotland" preserveAspectRatio="none" viewBox="0 0 5 3"><path d="M0 0h5v3H0" fill="#005EB8"/><path d="m0 0 5 3M0 3 5 0" stroke="#fff" stroke-width=".6"/></symbol><use width="19" height="20" href="#Flag_of_Scotland"/><path d="M19 0h11v20H19z" fill="#fff"/><symbol id="S"><path d="m7.81 6.17q0 .19-.077.346-.077.15-.221.264-.14.11-.356.173-.21.062-.476.062-.3 0-.558-.067-.25-.067-.428-.211-.18-.14-.284-.37-.1-.23-.111-.543h-1.33q0 .54.207.947.21.4.572.702.38.3.889.462.51.15 1.04.154.53 0 .986-.125.45-.13.779-.38.33-.25.51-.601.19-.36.188-.822 0-.53-.245-.942-.25-.41-.659-.716-.27-.19-.601-.332-.33-.14-.688-.245-.34-.091-.606-.197-.26-.11-.452-.236-.19-.12-.288-.284-.096-.16-.0962-.356 0-.19.0721-.346.077-.16.221-.284.14-.12.351-.178.21-.067.481-.0673.29 0 .51.082.22.077.37.216.14.14.216.341.077.2.087.433h1.32q0-.47-.183-.866t-.51-.683q-.33-.28-.784-.442-.45-.16-1-.159-.53 0-.981.139-.45.13-.784.389-.33.25-.519.615t-.188.803q0 .38.139.712.14.33.423.596.28.27.716.495.44.23 1.02.385.38.1.625.221.25.12.413.255.15.14.216.308.067.16.067.351z"/></symbol><symbol id="C"><path d="m9.04 5.81h-1.35q-.019.32-.106.543-.086.23-.236.37-.15.14-.361.212-.21.067-.476.0673-.2 0-.361-.0433-.16-.048-.288-.144-.12-.086-.216-.216-.091-.13-.159-.298-.096-.25-.144-.572-.043-.33-.0432-.75v-.952q0-.31.029-.572.029-.27.0912-.49.082-.28.216-.495.14-.22.336-.332.12-.067.25-.101.14-.034.298-.0337.3 0 .51.082.22.077.361.231.14.16.212.394.077.24.096.548h1.35q-.048-.55-.231-.986t-.5-.74q-.32-.3-.769-.466-.45-.16-1.02-.163-.39 0-.731.101-.34.096-.62.279-.32.22-.567.529t-.404.712q-.13.33-.202.712-.067.38-.0673.803v.942q0 .45.072.856.077.4.216.74.14.34.351.615.21.28.481.476.29.21.659.327.37.11.803.111.55 0 1-.159.45-.16.779-.462.33-.3.519-.721.2-.42.231-.952z"/></symbol><symbol id="O"><path d="m9.06 5.01v-1.02q0-.48-.091-.899-.087-.42-.255-.779-.15-.31-.37-.572-.21-.26-.495-.442-.28-.19-.64-.293-.35-.11-.755-.106-.4 0-.74.101-.34.1-.615.288-.28.19-.495.462-.21.27-.361.601-.15.35-.236.764-.077.41-.0769.875v1.02q0 .43.067.822.072.39.207.721.15.36.37.649.22.28.5.486.28.19.63.298.35.11.755.106.38 0 .716-.0962.34-.091.615-.26.31-.19.548-.481.24-.29.404-.635.15-.35.236-.75.082-.41.0817-.861zm-1.37-1.03v1.03q0 .26-.029.5-.024.24-.0768.442-.067.26-.183.466-.11.2-.274.336-.13.11-.298.168-.17.058-.37.0577-.21 0-.38-.0625-.16-.062-.293-.178-.14-.13-.245-.336-.1-.21-.154-.466-.048-.2-.0673-.438t-.0192-.49v-1.03q0-.27.019-.514.024-.25.0723-.452.062-.27.173-.471.12-.2.279-.337.12-.091.269-.139.15-.048.341-.0481.2 0 .356.053.16.053.293.149.16.13.284.336.12.2.192.462.058.21.082.452.029.24.029.51z"/></symbol><g transform="rotate(-90 15 -5)"><use x="-13" href="#S"/><use x="-6.5" href="#C"/><use href="#O"/></g></svg>
