<svg width="30" height="20" xmlns="http://www.w3.org/2000/svg"><symbol id="Flag_of_Scotland" preserveAspectRatio="none" viewBox="0 0 5 3"><path d="M0 0h5v3H0" fill="#005EB8"/><path d="m0 0 5 3M0 3 5 0" stroke="#fff" stroke-width=".6"/></symbol><use width="19" height="20" href="#Flag_of_Scotland"/><path d="M19 0h11v20H19z" fill="#fff"/><path transform="matrix(0 -.2.2 0 0 0)" d="m-74.89 130.7q0 .9-.37 1.7-.38.7-1.08 1.2-.7.6-1.73.9-1.01.3-2.32.3-1.47 0-2.71-.3-1.22-.4-2.08-1.1-.89-.7-1.38-1.8-.5-1.1-.54-2.6h-6.46q0 2.6 1 4.6 1.03 2 2.79 3.4 1.85 1.5 4.33 2.3 2.5.7 5.05.7 2.6 0 4.8-.6t3.79-1.9q1.59-1.1 2.48-2.9.92-1.7.92-4 0-2.6-1.2-4.6-1.19-2-3.2-3.5-1.34-.9-2.93-1.6t-3.35-1.2q-1.63-.4-2.94-.9-1.29-.5-2.2-1.2-.92-.6-1.41-1.3-.47-.8-.47-1.8 0-.9.35-1.7.38-.8 1.08-1.3.7-.6 1.71-.9 1.03-.3 2.34-.3 1.43 0 2.48.4 1.08.3 1.8 1 .7.7 1.06 1.7.37.9.42 2.1h6.41q0-2.3-.89-4.2-.89-2-2.48-3.4-1.59-1.3-3.82-2.1-2.2-.8-4.86-.8-2.58 0-4.78.7t-3.81 1.9q-1.62 1.2-2.53 3-.91 1.7-.91 3.9 0 1.9.68 3.5.7 1.6 2.06 2.9 1.35 1.3 3.48 2.4 2.16 1.1 4.99 1.8 1.82.5 3.04 1.1 1.24.6 2.01 1.3.75.7 1.06 1.5.32.8.32 1.7zm37.24-1.8h-6.58q-.1 1.5-.52 2.6t-1.14 1.8q-.73.7-1.76 1.1-1.03.3-2.31.3-.96 0-1.76-.2-.77-.3-1.4-.7-.59-.4-1.06-1.1-.44-.6-.77-1.4-.47-1.2-.7-2.8-.21-1.6-.21-3.7v-4.6q0-1.5.14-2.8t.44-2.4q.4-1.3 1.06-2.4.67-1 1.63-1.6.57-.3 1.22-.5.68-.1 1.45-.1 1.45 0 2.48.4 1.06.3 1.76 1.1.68.7 1.03 1.9.37 1.1.47 2.7h6.55q-.23-2.7-1.12-4.8-.89-2.2-2.44-3.6-1.54-1.5-3.74-2.3-2.18-.8-4.99-.8-1.89 0-3.56.5-1.63.5-3.01 1.3-1.55 1.1-2.77 2.6-1.21 1.5-1.96 3.5-.66 1.6-.99 3.4-.32 1.9-.32 4v4.5q0 2.2.35 4.2.37 2 1.05 3.6.7 1.6 1.71 3 1.03 1.4 2.34 2.3 1.43 1.1 3.21 1.6 1.8.6 3.91.6 2.66 0 4.86-.8t3.79-2.3q1.6-1.4 2.53-3.5.96-2 1.13-4.6zm31.376-3.9v-4.9q0-2.4-.444-4.4-.421-2.1-1.241-3.8-.749-1.5-1.802-2.8-1.029-1.3-2.409-2.1-1.38-1-3.11-1.5-1.71-.5-3.68-.5-1.94 0-3.6.5t-3 1.4q-1.36.9-2.41 2.3-1.03 1.3-1.75 2.9-.75 1.7-1.15 3.7-.38 2-.38 4.3v4.9q0 2.1.33 4 .35 1.9 1.01 3.5.72 1.8 1.8 3.2t2.43 2.4q1.39.9 3.07 1.4 1.69.5 3.67.5 1.88 0 3.49-.4 1.64-.5 3-1.3 1.5-.9 2.666-2.3 1.17-1.4 1.966-3.1.749-1.7 1.147-3.7.397-2 .397-4.2zm-6.666-5v5q0 1.3-.14 2.5-.12 1.1-.38 2.1-.33 1.3-.89 2.3-.54 1-1.33 1.6-.63.6-1.45.8-.82.3-1.81.3-1.02 0-1.84-.3-.8-.3-1.43-.8-.68-.7-1.2-1.7-.49-1-.74-2.3-.24-.9-.33-2.1-.1-1.1-.1-2.4v-5q0-1.3.1-2.5.12-1.2.35-2.2.3-1.3.84-2.3.56-1 1.36-1.6.58-.5 1.31-.7.75-.2 1.66-.2.96 0 1.73.2.8.3 1.43.8.8.6 1.38 1.6.59 1 .94 2.2.28 1 .4 2.2.14 1.2.14 2.5z"/></svg>
