<svg width="30" height="20" xmlns="http://www.w3.org/2000/svg"><symbol id="Flag_of_Kurdistan" width="30" height="20" viewBox="0 0 90 60"><path d="M0 0h90v60H0z" fill="#fff"/><path d="M0 0h90v20H0z" fill="#ed2024"/><path d="M0 40h90v20H0z" fill="#278e43"/><path d="m45 15 1.124 7.6264 3.3222-6.9563-1.1738 7.619 5.2249-5.668-3.3674 6.9344 6.6634-3.8761-5.2616 5.6338 7.5098-1.7399-6.6885 3.8327 7.689.551-7.521 1.6909 7.185 2.7929-7.6852-.6011 6.0425 4.7867-7.1666-2.8397 4.3632 6.355-6.0113-4.8259 2.2962 7.3589-4.3217-6.3834.025 7.7087L45 37.6264 42.7518 45l.0251-7.7087-4.3217 6.3834 2.2962-7.3589-6.0113 4.826 4.3632-6.3551-7.1666 2.8397 6.0425-4.7867-7.6852.6011 7.185-2.793-7.521-1.6908 7.689-.551-6.6885-3.8327 7.5098 1.7399-5.2616-5.6338 6.6634 3.876-3.3674-6.9343 5.2249 5.668-1.1738-7.619 3.3221 6.9563z" fill="#febd11"/></symbol><use x="-5.5" href="#Flag_of_Kurdistan"/><path d="M19 0h11v20H19z" fill="#fff"/><symbol id="S"><path d="m7.81 6.17q0 .19-.077.346-.077.15-.221.264-.14.11-.356.173-.21.062-.476.062-.3 0-.558-.067-.25-.067-.428-.211-.18-.14-.284-.37-.1-.23-.111-.543h-1.33q0 .54.207.947.21.4.572.702.38.3.889.462.51.15 1.04.154.53 0 .986-.125.45-.13.779-.38.33-.25.51-.601.19-.36.188-.822 0-.53-.245-.942-.25-.41-.659-.716-.27-.19-.601-.332-.33-.14-.688-.245-.34-.091-.606-.197-.26-.11-.452-.236-.19-.12-.288-.284-.096-.16-.0962-.356 0-.19.0721-.346.077-.16.221-.284.14-.12.351-.178.21-.067.481-.0673.29 0 .51.082.22.077.37.216.14.14.216.341.077.2.087.433h1.32q0-.47-.183-.866t-.51-.683q-.33-.28-.784-.442-.45-.16-1-.159-.53 0-.981.139-.45.13-.784.389-.33.25-.519.615t-.188.803q0 .38.139.712.14.33.423.596.28.27.716.495.44.23 1.02.385.38.1.625.221.25.12.413.255.15.14.216.308.067.16.067.351z"/></symbol><symbol id="D"><path d="m4.15 8h1.88q.47 0 .875-.115.41-.12.755-.332.29-.18.538-.452.25-.27.428-.596.19-.36.298-.793.11-.43.106-.918v-.577q0-.5-.115-.952-.11-.45-.317-.817-.18-.3-.418-.558-.24-.26-.538-.438-.35-.22-.769-.332-.42-.12-.909-.12h-1.81zm1.36-5.9h.452q.25 0 .452.058.21.053.385.154.23.13.394.346.17.21.279.481.087.23.13.5.048.27.048.572v.587q0 .32-.048.601-.043.27-.13.5-.11.26-.255.456-.14.19-.327.317-.18.12-.394.183-.22.062-.466.0625h-.519z"/></symbol><symbol id="H"><path d="m8.8 8v-7h-1.34v2.87h-1.98v-2.87h-1.34v7h1.34v-3.03h1.98v3.03z"/></symbol><g transform="rotate(-90 15 -5)"><use x="-13" href="#S"/><use x="-6.5" href="#D"/><use href="#H"/></g></svg>
