<svg width="30" height="20" xmlns="http://www.w3.org/2000/svg"><symbol id="Flag_of_Kurdistan" width="30" height="20" viewBox="0 0 90 60"><path d="M0 0h90v60H0z" fill="#fff"/><path d="M0 0h90v20H0z" fill="#ed2024"/><path d="M0 40h90v20H0z" fill="#278e43"/><path d="m45 15 1.124 7.6264 3.3222-6.9563-1.1738 7.619 5.2249-5.668-3.3674 6.9344 6.6634-3.8761-5.2616 5.6338 7.5098-1.7399-6.6885 3.8327 7.689.551-7.521 1.6909 7.185 2.7929-7.6852-.6011 6.0425 4.7867-7.1666-2.8397 4.3632 6.355-6.0113-4.8259 2.2962 7.3589-4.3217-6.3834.025 7.7087L45 37.6264 42.7518 45l.0251-7.7087-4.3217 6.3834 2.2962-7.3589-6.0113 4.826 4.3632-6.3551-7.1666 2.8397 6.0425-4.7867-7.6852.6011 7.185-2.793-7.521-1.6908 7.689-.551-6.6885-3.8327 7.5098 1.7399-5.2616-5.6338 6.6634 3.876-3.3674-6.9343 5.2249 5.668-1.1738-7.619 3.3221 6.9563z" fill="#febd11"/></symbol><use x="-5.5" href="#Flag_of_Kurdistan"/><path d="M19 0h11v20H19z" fill="#fff"/><path transform="matrix(0 -.2.2 0 0 0)" d="m-74.89 130.7q0 .9-.37 1.7-.38.7-1.08 1.2-.7.6-1.73.9-1.01.3-2.32.3-1.47 0-2.71-.3-1.22-.4-2.08-1.1-.89-.7-1.38-1.8-.5-1.1-.54-2.6h-6.46q0 2.6 1 4.6 1.03 2 2.79 3.4 1.85 1.5 4.33 2.3 2.5.7 5.05.7 2.6 0 4.8-.6t3.79-1.9q1.59-1.1 2.48-2.9.92-1.7.92-4 0-2.6-1.2-4.6-1.19-2-3.2-3.5-1.34-.9-2.93-1.6t-3.35-1.2q-1.63-.4-2.94-.9-1.29-.5-2.2-1.2-.92-.6-1.41-1.3-.47-.8-.47-1.8 0-.9.35-1.7.38-.8 1.08-1.3.7-.6 1.71-.9 1.03-.3 2.34-.3 1.43 0 2.48.4 1.08.3 1.8 1 .7.7 1.06 1.7.37.9.42 2.1h6.41q0-2.3-.89-4.2-.89-2-2.48-3.4-1.59-1.3-3.82-2.1-2.2-.8-4.86-.8-2.58 0-4.78.7t-3.81 1.9q-1.62 1.2-2.53 3-.91 1.7-.91 3.9 0 1.9.68 3.5.7 1.6 2.06 2.9 1.35 1.3 3.48 2.4 2.16 1.1 4.99 1.8 1.82.5 3.04 1.1 1.24.6 2.01 1.3.75.7 1.06 1.5.32.8.32 1.7zm13.43 8.9h9.15q2.27 0 4.26-.6 2.02-.6 3.68-1.6 1.43-.9 2.62-2.2t2.08-2.9q.94-1.8 1.45-3.9.52-2.1.52-4.4v-2.9q0-2.4-.56-4.6-.54-2.2-1.55-4-.86-1.4-2.03-2.7-1.15-1.2-2.62-2.1-1.69-1.1-3.75-1.6-2.06-.6-4.42-.6h-8.83zm6.63-28.8h2.2q1.19 0 2.2.3 1.03.3 1.87.8 1.1.6 1.92 1.6.84 1.1 1.36 2.4.42 1.1.63 2.4.23 1.3.23 2.8v2.9q0 1.5-.23 2.9-.21 1.3-.63 2.4-.52 1.3-1.24 2.2-.71 1-1.6 1.6-.86.6-1.92.9-1.05.3-2.27.3h-2.52zm47.269 28.8v-34.1h-6.509v14h-9.64v-14h-6.53v34.1h6.53v-14.8h9.64v14.8z"/></svg>
