<?xml version="1.0"?>
<svg width="30" height="20" xmlns="http://www.w3.org/2000/svg"><path d="M0 0h30v20H0z" fill="#fff"/><path transform="scale(.1)" d="m79.45 125.7q0 2.9-1.18 5.3-1.18 2.3-3.39 4-2.22 1.7-5.46 2.7-3.17 1-7.3 1-4.65 0-8.56-1.1-3.84-1-6.56-3.2-2.81-2.2-4.36-5.7-1.54-3.5-1.69-8.3h-20.36q0 8.3 3.17 14.5 3.25 6.2 8.78 10.8 5.83 4.6 13.64 7 7.9 2.4 15.94 2.4 8.18 0 15.12-1.9 6.93-2 11.95-5.8 5.01-3.8 7.81-9.3 2.88-5.5 2.88-12.6 0-8.2-3.76-14.4-3.76-6.3-10.11-11-4.2-2.9-9.22-5.11-5.01-2.21-10.54-3.76-5.17-1.4-9.3-3.02-4.05-1.63-6.93-3.62-2.88-1.92-4.43-4.35-1.47-2.43-1.47-5.46 0-2.87 1.11-5.31 1.18-2.51 3.39-4.35 2.21-1.77 5.38-2.73 3.25-1.03 7.38-1.03 4.5 0 7.82 1.25 3.39 1.18 5.68 3.32 2.21 2.21 3.32 5.24 1.18 3.02 1.32 6.64h20.21q0-7.23-2.8-13.28t-7.82-10.47q-5.01-4.36-12.02-6.79-6.93-2.43-15.34-2.43-8.12 0-15.05 2.13-6.93 2.07-12.02 5.98t-7.97 9.44q-2.87 5.53-2.87 12.32 0 5.9 2.13 10.91 2.22 5.02 6.5 9.15 4.27 4.13 10.99 7.63 6.78 3.4 15.71 5.9 5.75 1.5 9.58 3.4 3.91 1.7 6.35 3.9 2.36 2.2 3.32 4.7 1.03 2.5 1.03 5.4zm105.75 28v-107.39h-20.5v44.03h-30.4v-44.03h-20.6v107.39h20.6v-46.5h30.4v46.5zm56.4-57.9-21.1-49.49h-22.7l33.2 69.29.1 38.1h20.7v-37.2l33.8-70.19h-22.8z"/></svg>
