<?xml version="1.0" encoding="UTF-8" standalone="no"?>
<!-- Created with Inkscape (http://www.inkscape.org/) -->

<svg
   width="7.9375mm"
   height="5.2916999mm"
   viewBox="0 0 7.9375002 5.2917001"
   version="1.1"
   id="svg1"
   inkscape:version="1.4 (86a8ad7, 2024-10-11)"
   sodipodi:docname="slk.svg"
   xmlns:inkscape="http://www.inkscape.org/namespaces/inkscape"
   xmlns:sodipodi="http://sodipodi.sourceforge.net/DTD/sodipodi-0.dtd"
   xmlns:xlink="http://www.w3.org/1999/xlink"
   xmlns="http://www.w3.org/2000/svg"
   xmlns:svg="http://www.w3.org/2000/svg">
  <sodipodi:namedview
     id="namedview1"
     pagecolor="#ffffff"
     bordercolor="#000000"
     borderopacity="0.25"
     inkscape:showpageshadow="2"
     inkscape:pageopacity="0.0"
     inkscape:pagecheckerboard="0"
     inkscape:deskcolor="#d1d1d1"
     inkscape:document-units="mm"
     inkscape:zoom="0.71891835"
     inkscape:cx="589.07941"
     inkscape:cy="435.37628"
     inkscape:window-width="1904"
     inkscape:window-height="992"
     inkscape:window-x="-26"
     inkscape:window-y="145"
     inkscape:window-maximized="0"
     inkscape:current-layer="layer1" />
  <defs
     id="defs1">
    <radialGradient
       id="n"
       cx="489.07001"
       cy="210.33"
       r="0.345"
       gradientTransform="matrix(0.00861722,0,0,0.0090267,-825.15993,-674.59387)"
       gradientUnits="userSpaceOnUse">
      <stop
         style="stop-color:#fff"
         offset="0"
         id="stop19" />
      <stop
         style="stop-color:#fff;stop-opacity:0"
         offset="1"
         id="stop21" />
    </radialGradient>
    <radialGradient
       id="m"
       cx="477.85999"
       cy="215.27"
       r="0.345"
       gradientUnits="userSpaceOnUse"
       gradientTransform="matrix(0.00881945,0,0,0.00881945,-825.15993,-674.59387)">
      <stop
         style="stop-color:#a50a0a"
         offset=".259"
         id="stop14" />
      <stop
         style="stop-color:#4c0505"
         offset="1"
         id="stop16" />
    </radialGradient>
    <linearGradient
       id="l"
       x1="473.31"
       x2="475.92999"
       y1="237.25"
       y2="270.45001"
       gradientUnits="userSpaceOnUse"
       gradientTransform="matrix(0.00881945,0,0,0.00881945,-825.15993,-674.59387)">
      <stop
         style="stop-color:#f9f0aa"
         offset=".216"
         id="stop39" />
      <stop
         style="stop-color:#b07e09"
         offset="1"
         id="stop41" />
    </linearGradient>
    <linearGradient
       id="k"
       x1="451.54001"
       x2="455.37"
       y1="249.52"
       y2="240.58"
       gradientUnits="userSpaceOnUse"
       gradientTransform="matrix(0.00881945,0,0,0.00881945,-825.15993,-674.59387)">
      <stop
         style="stop-color:#f9f0aa"
         offset=".216"
         id="stop34" />
      <stop
         style="stop-color:#b07e09"
         offset="1"
         id="stop36" />
    </linearGradient>
    <radialGradient
       id="j"
       cx="445.98001"
       cy="252.36"
       r="13.018"
       gradientUnits="userSpaceOnUse"
       xlink:href="#a"
       gradientTransform="matrix(0.00881945,0,0,0.00881945,-825.15993,-674.59387)" />
    <radialGradient
       id="a">
      <stop
         style="stop-color:#f9f0aa"
         offset=".216"
         id="stop4" />
      <stop
         style="stop-color:#b07e09"
         offset="1"
         id="stop6" />
    </radialGradient>
    <linearGradient
       id="i"
       x1="483.13"
       x2="485.5"
       y1="296.66"
       y2="326.57999"
       gradientUnits="userSpaceOnUse"
       gradientTransform="matrix(0.00881945,0,0,0.00881945,-825.15993,-674.59387)">
      <stop
         style="stop-color:#b07e09;stop-opacity:0"
         offset=".216"
         id="stop29" />
      <stop
         style="stop-color:#b07e09"
         offset="1"
         id="stop31" />
    </linearGradient>
    <linearGradient
       id="h"
       x1="473.91"
       x2="472.35999"
       y1="259.17001"
       y2="231.96001"
       gradientUnits="userSpaceOnUse"
       gradientTransform="matrix(0.00881945,0,0,0.00881945,-825.15993,-674.59387)">
      <stop
         style="stop-color:#b07e09;stop-opacity:0"
         offset=".216"
         id="stop24" />
      <stop
         style="stop-color:#b07e09"
         offset="1"
         id="stop26" />
    </linearGradient>
    <radialGradient
       id="g"
       cx="458.39001"
       cy="307.06"
       r="17.354"
       gradientUnits="userSpaceOnUse"
       xlink:href="#a"
       gradientTransform="matrix(0.00881945,0,0,0.00881945,-825.15993,-674.59387)" />
    <radialGradient
       id="radialGradient2">
      <stop
         style="stop-color:#f9f0aa"
         offset=".216"
         id="stop1" />
      <stop
         style="stop-color:#b07e09"
         offset="1"
         id="stop2" />
    </radialGradient>
    <radialGradient
       id="f"
       cx="454.10999"
       cy="308.64001"
       r="9.7799997"
       gradientUnits="userSpaceOnUse"
       xlink:href="#a"
       gradientTransform="matrix(0.00881945,0,0,0.00881945,-825.15993,-674.59387)" />
    <radialGradient
       id="radialGradient5">
      <stop
         style="stop-color:#f9f0aa"
         offset=".216"
         id="stop3" />
      <stop
         style="stop-color:#b07e09"
         offset="1"
         id="stop5" />
    </radialGradient>
    <radialGradient
       id="e"
       cx="451.56"
       cy="313"
       r="10.911"
       gradientUnits="userSpaceOnUse"
       xlink:href="#a"
       gradientTransform="matrix(0.00881945,0,0,0.00881945,-825.15993,-674.59387)" />
    <radialGradient
       id="radialGradient8">
      <stop
         style="stop-color:#f9f0aa"
         offset=".216"
         id="stop7" />
      <stop
         style="stop-color:#b07e09"
         offset="1"
         id="stop8" />
    </radialGradient>
    <radialGradient
       id="d"
       cx="447.42001"
       cy="308.26999"
       r="16.534"
       gradientUnits="userSpaceOnUse"
       xlink:href="#a"
       gradientTransform="matrix(0.00881945,0,0,0.00881945,-825.15993,-674.59387)" />
    <radialGradient
       id="radialGradient10">
      <stop
         style="stop-color:#f9f0aa"
         offset=".216"
         id="stop9" />
      <stop
         style="stop-color:#b07e09"
         offset="1"
         id="stop10" />
    </radialGradient>
    <radialGradient
       id="e-9"
       cx="380.84"
       cy="740.37"
       r="25.858999"
       gradientTransform="matrix(7.0234215e-4,8.3694522e-4,-0.00162376,0.00140249,-873.47471,-923.33034)"
       gradientUnits="userSpaceOnUse"
       xlink:href="#a-6" />
    <linearGradient
       id="a-6">
      <stop
         stop-color="#fff"
         offset="0"
         id="stop2-5" />
      <stop
         stop-color="#f15770"
         offset="1"
         id="stop4-1" />
    </linearGradient>
    <radialGradient
       id="f-0"
       cx="651.52002"
       cy="550.46002"
       r="25.858999"
       gradientTransform="matrix(-1.9245334e-4,-0.00208924,0.00193863,-1.8385685e-4,-876.73368,-920.80848)"
       gradientUnits="userSpaceOnUse"
       xlink:href="#a-6" />
    <radialGradient
       id="g-6"
       cx="842.31"
       cy="103.66"
       r="25.858999"
       gradientTransform="matrix(0.00194862,8.2390338e-4,-8.0461878e-4,0.00195837,-876.97359,-922.9887)"
       gradientUnits="userSpaceOnUse"
       xlink:href="#a-6" />
  </defs>
  <g
     inkscape:label="Layer 1"
     inkscape:groupmode="layer"
     id="layer1"
     transform="translate(823.82063,1375.4163)">
    <path
       id="path149"
       class="st0"
       style="fill:#ee1c25;stroke-width:0.00881944"
       d="m -823.82063,-1375.4163 h 7.9375 v 5.2917 h -7.9375 z" />
    <path
       id="path152"
       class="st1"
       style="fill:#0b4ea2;stroke-width:0.00881944"
       d="m -823.82063,-1375.4163 h 7.9375 v 3.5278 h -7.9375 z" />
    <path
       id="path155"
       class="st2"
       style="fill:#ffffff;stroke-width:0.00881944"
       d="m -823.82063,-1375.4163 h 7.9375 v 1.7639 h -7.9375 z" />
    <path
       id="path137"
       class="st2"
       d="m -820.35036,-1374.1728 h -0.0715 -1.01828 -1.01826 -0.0715 l -0.007,0.071 c -0.002,0.015 -0.0398,0.3878 -0.0398,1.2055 0,0.3842 0.12988,0.7232 0.38603,1.0075 0.17947,0.1992 0.41383,0.3669 0.71651,0.5127 l 0.0344,0.016 0.0344,-0.016 c 0.30268,-0.1458 0.53707,-0.3135 0.71654,-0.5127 0.25615,-0.2843 0.38604,-0.6233 0.38604,-1.0075 0,-0.8177 -0.0382,-1.19 -0.0398,-1.2055 z"
       style="fill:#ffffff;stroke-width:0.00881944" />
    <path
       class="st0"
       d="m -821.44011,-1371.4476 c -0.43515,-0.2096 -1.0576,-0.6256 -1.0576,-1.4486 0,-0.8229 0.0393,-1.1972 0.0393,-1.1972 h 1.01826 1.01828 c 0,0 0.0394,0.3743 0.0394,1.1972 0,0.823 -0.62246,1.239 -1.05764,1.4486 z"
       id="path140"
       style="fill:#ee1c25;fill-opacity:1;stroke-width:0.00881944" />
    <path
       class="st2"
       d="m -821.34692,-1373.1119 c 0.11783,0 0.34771,0.01 0.55241,-0.062 0,0 -0.005,0.073 -0.005,0.1586 0,0.085 0.005,0.1586 0.005,0.1586 -0.18776,-0.063 -0.41963,-0.064 -0.55241,-0.062 v 0.4546 h -0.18612 v -0.4546 c -0.13278,0 -0.36464,-4e-4 -0.55241,0.062 0,0 0.005,-0.073 0.005,-0.1586 0,-0.085 -0.005,-0.1586 -0.005,-0.1586 0.2047,0.069 0.43458,0.064 0.55241,0.062 v -0.2855 c -0.1074,-9e-4 -0.26214,0 -0.43712,0.063 0,0 0.005,-0.073 0.005,-0.1585 0,-0.085 -0.005,-0.1586 -0.005,-0.1586 0.17471,0.058 0.32928,0.064 0.43664,0.063 -0.006,-0.1808 -0.0582,-0.4086 -0.0582,-0.4086 0,0 0.10838,0.01 0.15171,0.01 0.0434,0 0.15172,-0.01 0.15172,-0.01 0,0 -0.0526,0.2278 -0.0582,0.4086 0.10737,9e-4 0.26193,0 0.43664,-0.063 0,0 -0.005,0.073 -0.005,0.1585 0,0.085 0.005,0.1586 0.005,0.1586 -0.17497,-0.058 -0.32972,-0.064 -0.43712,-0.063 v 0.2855 z"
       id="path143"
       style="fill:#ffffff;stroke-width:0.00881944" />
    <path
       class="st1"
       d="m -821.44023,-1372.5139 c -0.21918,0 -0.33657,0.304 -0.33657,0.304 0,0 -0.0651,-0.1441 -0.24396,-0.1441 -0.12099,0 -0.21016,0.1076 -0.26684,0.2072 0.22013,0.3502 0.57132,0.5663 0.84736,0.6992 0.2761,-0.1329 0.62753,-0.3489 0.84766,-0.6992 -0.0567,-0.1 -0.14585,-0.2072 -0.26684,-0.2072 -0.17883,0 -0.24424,0.1441 -0.24424,0.1441 0,0 -0.11737,-0.304 -0.33657,-0.304 z"
       id="path146"
       style="fill:#0b4ea2;fill-opacity:1;stroke-width:0.00881944" />
  </g>
</svg>
