<?xml version="1.0" encoding="UTF-8" standalone="no"?>
<!-- Created with Inkscape (http://www.inkscape.org/) -->

<svg
   width="7.9375mm"
   height="5.2916999mm"
   viewBox="0 0 7.9375002 5.2917001"
   version="1.1"
   id="svg1"
   inkscape:version="1.4 (86a8ad7, 2024-10-11)"
   sodipodi:docname="slv.svg"
   xmlns:inkscape="http://www.inkscape.org/namespaces/inkscape"
   xmlns:sodipodi="http://sodipodi.sourceforge.net/DTD/sodipodi-0.dtd"
   xmlns:xlink="http://www.w3.org/1999/xlink"
   xmlns="http://www.w3.org/2000/svg"
   xmlns:svg="http://www.w3.org/2000/svg">
  <sodipodi:namedview
     id="namedview1"
     pagecolor="#ffffff"
     bordercolor="#000000"
     borderopacity="0.25"
     inkscape:showpageshadow="2"
     inkscape:pageopacity="0.0"
     inkscape:pagecheckerboard="0"
     inkscape:deskcolor="#d1d1d1"
     inkscape:document-units="mm"
     inkscape:zoom="0.71891835"
     inkscape:cx="685.05693"
     inkscape:cy="465.97781"
     inkscape:window-width="1904"
     inkscape:window-height="992"
     inkscape:window-x="-26"
     inkscape:window-y="145"
     inkscape:window-maximized="0"
     inkscape:current-layer="layer1" />
  <defs
     id="defs1">
    <radialGradient
       id="n"
       cx="489.07001"
       cy="210.33"
       r="0.345"
       gradientTransform="matrix(0.00861722,0,0,0.0090267,-825.15993,-674.59387)"
       gradientUnits="userSpaceOnUse">
      <stop
         style="stop-color:#fff"
         offset="0"
         id="stop19" />
      <stop
         style="stop-color:#fff;stop-opacity:0"
         offset="1"
         id="stop21" />
    </radialGradient>
    <radialGradient
       id="m"
       cx="477.85999"
       cy="215.27"
       r="0.345"
       gradientUnits="userSpaceOnUse"
       gradientTransform="matrix(0.00881945,0,0,0.00881945,-825.15993,-674.59387)">
      <stop
         style="stop-color:#a50a0a"
         offset=".259"
         id="stop14" />
      <stop
         style="stop-color:#4c0505"
         offset="1"
         id="stop16" />
    </radialGradient>
    <linearGradient
       id="l"
       x1="473.31"
       x2="475.92999"
       y1="237.25"
       y2="270.45001"
       gradientUnits="userSpaceOnUse"
       gradientTransform="matrix(0.00881945,0,0,0.00881945,-825.15993,-674.59387)">
      <stop
         style="stop-color:#f9f0aa"
         offset=".216"
         id="stop39" />
      <stop
         style="stop-color:#b07e09"
         offset="1"
         id="stop41" />
    </linearGradient>
    <linearGradient
       id="k"
       x1="451.54001"
       x2="455.37"
       y1="249.52"
       y2="240.58"
       gradientUnits="userSpaceOnUse"
       gradientTransform="matrix(0.00881945,0,0,0.00881945,-825.15993,-674.59387)">
      <stop
         style="stop-color:#f9f0aa"
         offset=".216"
         id="stop34" />
      <stop
         style="stop-color:#b07e09"
         offset="1"
         id="stop36" />
    </linearGradient>
    <radialGradient
       id="j"
       cx="445.98001"
       cy="252.36"
       r="13.018"
       gradientUnits="userSpaceOnUse"
       xlink:href="#a"
       gradientTransform="matrix(0.00881945,0,0,0.00881945,-825.15993,-674.59387)" />
    <radialGradient
       id="a">
      <stop
         style="stop-color:#f9f0aa"
         offset=".216"
         id="stop4" />
      <stop
         style="stop-color:#b07e09"
         offset="1"
         id="stop6" />
    </radialGradient>
    <linearGradient
       id="i"
       x1="483.13"
       x2="485.5"
       y1="296.66"
       y2="326.57999"
       gradientUnits="userSpaceOnUse"
       gradientTransform="matrix(0.00881945,0,0,0.00881945,-825.15993,-674.59387)">
      <stop
         style="stop-color:#b07e09;stop-opacity:0"
         offset=".216"
         id="stop29" />
      <stop
         style="stop-color:#b07e09"
         offset="1"
         id="stop31" />
    </linearGradient>
    <linearGradient
       id="h"
       x1="473.91"
       x2="472.35999"
       y1="259.17001"
       y2="231.96001"
       gradientUnits="userSpaceOnUse"
       gradientTransform="matrix(0.00881945,0,0,0.00881945,-825.15993,-674.59387)">
      <stop
         style="stop-color:#b07e09;stop-opacity:0"
         offset=".216"
         id="stop24" />
      <stop
         style="stop-color:#b07e09"
         offset="1"
         id="stop26" />
    </linearGradient>
    <radialGradient
       id="g"
       cx="458.39001"
       cy="307.06"
       r="17.354"
       gradientUnits="userSpaceOnUse"
       xlink:href="#a"
       gradientTransform="matrix(0.00881945,0,0,0.00881945,-825.15993,-674.59387)" />
    <radialGradient
       id="radialGradient2">
      <stop
         style="stop-color:#f9f0aa"
         offset=".216"
         id="stop1" />
      <stop
         style="stop-color:#b07e09"
         offset="1"
         id="stop2" />
    </radialGradient>
    <radialGradient
       id="f"
       cx="454.10999"
       cy="308.64001"
       r="9.7799997"
       gradientUnits="userSpaceOnUse"
       xlink:href="#a"
       gradientTransform="matrix(0.00881945,0,0,0.00881945,-825.15993,-674.59387)" />
    <radialGradient
       id="radialGradient5">
      <stop
         style="stop-color:#f9f0aa"
         offset=".216"
         id="stop3" />
      <stop
         style="stop-color:#b07e09"
         offset="1"
         id="stop5" />
    </radialGradient>
    <radialGradient
       id="e"
       cx="451.56"
       cy="313"
       r="10.911"
       gradientUnits="userSpaceOnUse"
       xlink:href="#a"
       gradientTransform="matrix(0.00881945,0,0,0.00881945,-825.15993,-674.59387)" />
    <radialGradient
       id="radialGradient8">
      <stop
         style="stop-color:#f9f0aa"
         offset=".216"
         id="stop7" />
      <stop
         style="stop-color:#b07e09"
         offset="1"
         id="stop8" />
    </radialGradient>
    <radialGradient
       id="d"
       cx="447.42001"
       cy="308.26999"
       r="16.534"
       gradientUnits="userSpaceOnUse"
       xlink:href="#a"
       gradientTransform="matrix(0.00881945,0,0,0.00881945,-825.15993,-674.59387)" />
    <radialGradient
       id="radialGradient10">
      <stop
         style="stop-color:#f9f0aa"
         offset=".216"
         id="stop9" />
      <stop
         style="stop-color:#b07e09"
         offset="1"
         id="stop10" />
    </radialGradient>
    <radialGradient
       id="e-9"
       cx="380.84"
       cy="740.37"
       r="25.858999"
       gradientTransform="matrix(7.0234215e-4,8.3694522e-4,-0.00162376,0.00140249,-873.47471,-923.33034)"
       gradientUnits="userSpaceOnUse"
       xlink:href="#a-6" />
    <linearGradient
       id="a-6">
      <stop
         stop-color="#fff"
         offset="0"
         id="stop2-5" />
      <stop
         stop-color="#f15770"
         offset="1"
         id="stop4-1" />
    </linearGradient>
    <radialGradient
       id="f-0"
       cx="651.52002"
       cy="550.46002"
       r="25.858999"
       gradientTransform="matrix(-1.9245334e-4,-0.00208924,0.00193863,-1.8385685e-4,-876.73368,-920.80848)"
       gradientUnits="userSpaceOnUse"
       xlink:href="#a-6" />
    <radialGradient
       id="g-6"
       cx="842.31"
       cy="103.66"
       r="25.858999"
       gradientTransform="matrix(0.00194862,8.2390338e-4,-8.0461878e-4,0.00195837,-876.97359,-922.9887)"
       gradientUnits="userSpaceOnUse"
       xlink:href="#a-6" />
  </defs>
  <g
     inkscape:label="Layer 1"
     inkscape:groupmode="layer"
     id="layer1"
     transform="translate(849.22063,1383.3538)">
    <path
       d="m -849.22063,-1383.3538 h 7.9375 v 5.2917 h -7.9375 z"
       fill="#ff0000"
       id="path379"
       style="stroke-width:0.763789" />
    <path
       d="m -849.22063,-1383.3538 h 7.9375 v 3.5278 h -7.9375 z"
       fill="#0000ff"
       id="path382"
       style="stroke-width:0.763789" />
    <path
       d="m -849.22063,-1383.3538 h 7.9375 v 1.7639 h -7.9375 z"
       fill="#ffffff"
       id="path385"
       style="stroke-width:0.763789" />
    <path
       d="m -847.06688,-1382.4259 c -0.012,0 -0.0239,3e-4 -0.0357,6e-4 -0.22908,0.01 -0.44413,0.065 -0.59726,0.1372 h 2e-5 c -0.0168,0.01 -0.0333,0.014 -0.0489,0.021 l 0.0526,0.8246 c 0.0365,0.4308 0.31726,0.6817 0.62924,0.7802 0.31199,-0.099 0.59278,-0.3494 0.62925,-0.7802 l 0.0524,-0.822 c -0.0156,-0.01 -0.0319,-0.016 -0.0486,-0.024 l 2e-5,-3e-4 c -0.16108,-0.076 -0.39064,-0.1375 -0.633,-0.1379 0,0 -10e-6,0 -2e-5,0 z"
       fill="#0000ff"
       stroke-width="0.0185208"
       id="path370"
       style="fill-rule:evenodd" />
    <path
       d="m -847.06688,-1381.8553 -0.15399,0.3007 -0.0996,-0.1294 -0.26014,0.3438 c 0.005,0.021 0.0102,0.042 0.0163,0.062 0.029,0.049 0.0849,0.105 0.15649,0.105 0.0568,0 0.11364,-0.045 0.17047,-0.045 0.0568,0 0.11364,0.045 0.17047,0.045 0.0568,0 0.11364,-0.045 0.17047,-0.045 0.0568,0 0.11364,0.045 0.17046,0.045 0.071,0 0.12642,-0.055 0.1557,-0.1037 0.006,-0.021 0.0119,-0.042 0.0167,-0.064 l -0.2598,-0.3434 -0.0995,0.1294 z m -0.17047,0.6822 c -0.0568,0 -0.11364,0.045 -0.17047,0.045 -0.045,0 -0.0836,-0.016 -0.11353,-0.038 0.0106,0.022 0.0217,0.044 0.034,0.065 0.0234,0.015 0.0501,0.024 0.0796,0.024 0.0568,0 0.11365,-0.045 0.17047,-0.045 0.0568,0 0.11365,0.045 0.17047,0.045 0.0568,0 0.11365,-0.045 0.17047,-0.045 0.0568,0 0.11365,0.045 0.17047,0.045 0.029,0 0.0553,-0.01 0.0785,-0.024 0.0122,-0.021 0.0234,-0.042 0.034,-0.065 -0.0298,0.022 -0.0681,0.038 -0.11251,0.038 -0.0568,0 -0.11365,-0.045 -0.17047,-0.045 -0.0568,0 -0.11364,0.045 -0.17047,0.045 -0.0568,0 -0.11364,-0.045 -0.17047,-0.045 z m 0,0.096 c -0.0568,0 -0.11364,0.045 -0.17047,0.045 -0.0123,0 -0.0241,0 -0.0355,0 0.0983,0.1313 0.23244,0.2192 0.37629,0.2698 0.14356,-0.051 0.27746,-0.1385 0.37572,-0.2696 -0.0111,0 -0.0226,0 -0.0347,0 -0.0568,0 -0.11364,-0.045 -0.17047,-0.045 -0.0568,0 -0.11364,0.045 -0.17047,0.045 -0.0568,0 -0.11364,-0.045 -0.17046,-0.045 z"
       fill="#ffffff"
       id="path373"
       style="fill-rule:evenodd;stroke-width:0.0185208" />
    <path
       d="m -847.06689,-1382.4259 h 10e-6 2e-5 c 7.6e-4,0 10e-4,0 0.002,0 -7.7e-4,0 -0.002,0 -0.002,0 z m 10e-6,0 c -0.0121,0 -0.0241,3e-4 -0.0361,6e-4 0.012,-4e-4 0.024,-6e-4 0.0361,-6e-4 z m -0.633,0.138 c -0.0168,0.01 -0.0332,0.014 -0.0489,0.021 l 0.0526,0.8245 c 0.0365,0.4309 0.31726,0.6817 0.62924,0.7803 0.31199,-0.099 0.59278,-0.3494 0.62925,-0.7803 l 0.0524,-0.8219 c -0.0156,-0.01 -0.0319,-0.016 -0.0486,-0.024 l -0.0489,0.8182 c -0.0339,0.4189 -0.29452,0.6628 -0.58415,0.7586 -0.28963,-0.096 -0.55029,-0.3397 -0.58415,-0.7586 z"
       fill="#ff0000"
       id="path376"
       style="fill-rule:evenodd;stroke-width:0.0185208" />
    <path
       id="path364"
       d="m -847.32321,-1382.3156 h 0.12892 l -0.0645,0.1117"
       fill="#ffff00"
       fill-rule="evenodd"
       style="stroke-width:0.0185208" />
    <path
       id="path367"
       d="m -847.3232,-1382.2411 h 0.12892 l -0.0645,-0.1116"
       fill="#ffff00"
       fill-rule="evenodd"
       style="stroke-width:0.0185208" />
    <path
       id="path352"
       d="m -846.93945,-1382.3156 h 0.12892 l -0.0645,0.1117"
       fill="#ffff00"
       fill-rule="evenodd"
       style="stroke-width:0.0185208" />
    <path
       id="path355"
       d="m -846.93945,-1382.2411 h 0.12892 l -0.0645,-0.1116"
       fill="#ffff00"
       fill-rule="evenodd"
       style="stroke-width:0.0185208" />
    <path
       id="path358"
       d="m -847.13133,-1382.0586 h 0.12892 l -0.0645,0.1117"
       fill="#ffff00"
       fill-rule="evenodd"
       style="stroke-width:0.0185208" />
    <path
       id="path361"
       d="m -847.13132,-1381.9841 h 0.12892 l -0.0645,-0.1117"
       fill="#ffff00"
       fill-rule="evenodd"
       style="stroke-width:0.0185208" />
  </g>
</svg>
