<?xml version="1.0" encoding="UTF-8" standalone="no"?>
<!-- Creator: CorelDRAW Home & Student X8 -->

<svg
   xml:space="preserve"
   width="7.9375mm"
   height="5.291667mm"
   version="1.1"
   style="clip-rule:evenodd;fill-rule:evenodd;image-rendering:optimizeQuality;shape-rendering:geometricPrecision;text-rendering:geometricPrecision"
   viewBox="0 0 793.75 529.1667"
   id="svg5"
   sodipodi:docname="Laponya.svg"
   inkscape:version="1.4 (86a8ad7, 2024-10-11)"
   xmlns:inkscape="http://www.inkscape.org/namespaces/inkscape"
   xmlns:sodipodi="http://sodipodi.sourceforge.net/DTD/sodipodi-0.dtd"
   xmlns="http://www.w3.org/2000/svg"
   xmlns:svg="http://www.w3.org/2000/svg"><sodipodi:namedview
   id="namedview5"
   pagecolor="#ffffff"
   bordercolor="#000000"
   borderopacity="0.25"
   inkscape:showpageshadow="2"
   inkscape:pageopacity="0.0"
   inkscape:pagecheckerboard="0"
   inkscape:deskcolor="#d1d1d1"
   inkscape:document-units="mm"
   inkscape:zoom="0.71172917"
   inkscape:cx="538.82856"
   inkscape:cy="284.51834"
   inkscape:window-width="1920"
   inkscape:window-height="1009"
   inkscape:window-x="-8"
   inkscape:window-y="-8"
   inkscape:window-maximized="1"
   inkscape:current-layer="Layer_x0020_1" />
 <defs
   id="defs1">
  <style
   type="text/css"
   id="style1">
   <![CDATA[
    .fil1 {fill:#057A3D}
    .fil3 {fill:#34398B}
    .fil0 {fill:#E33A24}
    .fil2 {fill:#FED411}
    .fil4 {fill:#34398B;fill-rule:nonzero}
    .fil5 {fill:#E33A24;fill-rule:nonzero}
   ]]>
  </style>
 </defs>
 <g
   id="Layer_x0020_1"
   inkscape:label="Layer 1"
   inkscape:groupmode="layer">
  <metadata
   id="CorelCorpID_0Corel-Layer" />
  <rect
   class="fil0"
   width="253.43556"
   height="529.16669"
   id="rect1"
   x="0"
   y="0"
   style="stroke-width:0.0352778" />
  <rect
   class="fil1"
   x="253.43556"
   width="54.998055"
   height="529.16669"
   id="rect2"
   y="0"
   style="stroke-width:0.0352778" />
  <rect
   class="fil2"
   x="308.4689"
   width="54.998055"
   height="529.16669"
   id="rect3"
   y="0"
   style="stroke-width:0.0352778" />
  <rect
   class="fil3"
   x="363.46695"
   width="430.28305"
   height="529.16669"
   id="rect4"
   y="0"
   style="stroke-width:0.0352778" />
  <path
   class="fil4"
   d="m 308.46889,107.42083 c -43.39167,0 -82.69111,17.56834 -111.16028,46.0375 -28.43389,28.43389 -46.0375,67.73334 -46.0375,111.12501 0,43.39166 17.60361,82.69111 46.0375,111.125 28.46917,28.46916 67.76861,46.0375 111.16028,46.0375 v 31.46778 c -52.07,0 -99.23639,-21.13139 -133.38528,-55.28028 -34.11361,-34.11361 -55.245,-81.28 -55.245,-133.35 0,-52.07 21.13139,-99.23639 55.245,-133.35001 34.14889,-34.148885 81.31528,-55.280274 133.38528,-55.280274 z"
   id="path4"
   style="stroke-width:0.0352778" />
  <path
   class="fil5"
   d="m 308.46889,75.953056 c 52.07,0 99.23639,21.131389 133.35,55.280274 34.14889,34.11362 55.245,81.28001 55.245,133.35001 0,52.07 -21.09611,99.23639 -55.245,133.35 -34.11361,34.14889 -81.28,55.28028 -133.35,55.28028 v -31.46778 c 43.39167,0 82.69111,-17.56834 111.125,-46.0375 28.43389,-28.43389 46.0375,-67.73334 46.0375,-111.125 0,-43.39167 -17.60361,-82.69112 -46.0375,-111.12501 -28.43389,-28.46916 -67.73333,-46.0375 -111.125,-46.0375 z"
   id="path5"
   style="stroke-width:0.0352778" />
 </g>
</svg>
