<?xml version="1.0" encoding="UTF-8" standalone="no"?>
<!-- Created with Inkscape (http://www.inkscape.org/) -->

<svg
   width="7.9375mm"
   height="5.2916999mm"
   viewBox="0 0 7.9375002 5.2917001"
   version="1.1"
   id="svg1"
   inkscape:version="1.4 (86a8ad7, 2024-10-11)"
   sodipodi:docname="sna.svg"
   xmlns:inkscape="http://www.inkscape.org/namespaces/inkscape"
   xmlns:sodipodi="http://sodipodi.sourceforge.net/DTD/sodipodi-0.dtd"
   xmlns:xlink="http://www.w3.org/1999/xlink"
   xmlns="http://www.w3.org/2000/svg"
   xmlns:svg="http://www.w3.org/2000/svg">
  <sodipodi:namedview
     id="namedview1"
     pagecolor="#ffffff"
     bordercolor="#000000"
     borderopacity="0.25"
     inkscape:showpageshadow="2"
     inkscape:pageopacity="0.0"
     inkscape:pagecheckerboard="0"
     inkscape:deskcolor="#d1d1d1"
     inkscape:document-units="mm"
     inkscape:zoom="0.71891835"
     inkscape:cx="398.51535"
     inkscape:cy="308.79724"
     inkscape:window-width="1904"
     inkscape:window-height="992"
     inkscape:window-x="-26"
     inkscape:window-y="145"
     inkscape:window-maximized="0"
     inkscape:current-layer="layer1" />
  <defs
     id="defs1">
    <radialGradient
       id="n"
       cx="489.07001"
       cy="210.33"
       r="0.345"
       gradientTransform="matrix(0.00861722,0,0,0.0090267,-825.15993,-674.59387)"
       gradientUnits="userSpaceOnUse">
      <stop
         style="stop-color:#fff"
         offset="0"
         id="stop19" />
      <stop
         style="stop-color:#fff;stop-opacity:0"
         offset="1"
         id="stop21" />
    </radialGradient>
    <radialGradient
       id="m"
       cx="477.85999"
       cy="215.27"
       r="0.345"
       gradientUnits="userSpaceOnUse"
       gradientTransform="matrix(0.00881945,0,0,0.00881945,-825.15993,-674.59387)">
      <stop
         style="stop-color:#a50a0a"
         offset=".259"
         id="stop14" />
      <stop
         style="stop-color:#4c0505"
         offset="1"
         id="stop16" />
    </radialGradient>
    <linearGradient
       id="l"
       x1="473.31"
       x2="475.92999"
       y1="237.25"
       y2="270.45001"
       gradientUnits="userSpaceOnUse"
       gradientTransform="matrix(0.00881945,0,0,0.00881945,-825.15993,-674.59387)">
      <stop
         style="stop-color:#f9f0aa"
         offset=".216"
         id="stop39" />
      <stop
         style="stop-color:#b07e09"
         offset="1"
         id="stop41" />
    </linearGradient>
    <linearGradient
       id="k"
       x1="451.54001"
       x2="455.37"
       y1="249.52"
       y2="240.58"
       gradientUnits="userSpaceOnUse"
       gradientTransform="matrix(0.00881945,0,0,0.00881945,-825.15993,-674.59387)">
      <stop
         style="stop-color:#f9f0aa"
         offset=".216"
         id="stop34" />
      <stop
         style="stop-color:#b07e09"
         offset="1"
         id="stop36" />
    </linearGradient>
    <radialGradient
       id="j"
       cx="445.98001"
       cy="252.36"
       r="13.018"
       gradientUnits="userSpaceOnUse"
       xlink:href="#a"
       gradientTransform="matrix(0.00881945,0,0,0.00881945,-825.15993,-674.59387)" />
    <radialGradient
       id="a">
      <stop
         style="stop-color:#f9f0aa"
         offset=".216"
         id="stop4" />
      <stop
         style="stop-color:#b07e09"
         offset="1"
         id="stop6" />
    </radialGradient>
    <linearGradient
       id="i"
       x1="483.13"
       x2="485.5"
       y1="296.66"
       y2="326.57999"
       gradientUnits="userSpaceOnUse"
       gradientTransform="matrix(0.00881945,0,0,0.00881945,-825.15993,-674.59387)">
      <stop
         style="stop-color:#b07e09;stop-opacity:0"
         offset=".216"
         id="stop29" />
      <stop
         style="stop-color:#b07e09"
         offset="1"
         id="stop31" />
    </linearGradient>
    <linearGradient
       id="h"
       x1="473.91"
       x2="472.35999"
       y1="259.17001"
       y2="231.96001"
       gradientUnits="userSpaceOnUse"
       gradientTransform="matrix(0.00881945,0,0,0.00881945,-825.15993,-674.59387)">
      <stop
         style="stop-color:#b07e09;stop-opacity:0"
         offset=".216"
         id="stop24" />
      <stop
         style="stop-color:#b07e09"
         offset="1"
         id="stop26" />
    </linearGradient>
    <radialGradient
       id="g"
       cx="458.39001"
       cy="307.06"
       r="17.354"
       gradientUnits="userSpaceOnUse"
       xlink:href="#a"
       gradientTransform="matrix(0.00881945,0,0,0.00881945,-825.15993,-674.59387)" />
    <radialGradient
       id="radialGradient2">
      <stop
         style="stop-color:#f9f0aa"
         offset=".216"
         id="stop1" />
      <stop
         style="stop-color:#b07e09"
         offset="1"
         id="stop2" />
    </radialGradient>
    <radialGradient
       id="f"
       cx="454.10999"
       cy="308.64001"
       r="9.7799997"
       gradientUnits="userSpaceOnUse"
       xlink:href="#a"
       gradientTransform="matrix(0.00881945,0,0,0.00881945,-825.15993,-674.59387)" />
    <radialGradient
       id="radialGradient5">
      <stop
         style="stop-color:#f9f0aa"
         offset=".216"
         id="stop3" />
      <stop
         style="stop-color:#b07e09"
         offset="1"
         id="stop5" />
    </radialGradient>
    <radialGradient
       id="e"
       cx="451.56"
       cy="313"
       r="10.911"
       gradientUnits="userSpaceOnUse"
       xlink:href="#a"
       gradientTransform="matrix(0.00881945,0,0,0.00881945,-825.15993,-674.59387)" />
    <radialGradient
       id="radialGradient8">
      <stop
         style="stop-color:#f9f0aa"
         offset=".216"
         id="stop7" />
      <stop
         style="stop-color:#b07e09"
         offset="1"
         id="stop8" />
    </radialGradient>
    <radialGradient
       id="d"
       cx="447.42001"
       cy="308.26999"
       r="16.534"
       gradientUnits="userSpaceOnUse"
       xlink:href="#a"
       gradientTransform="matrix(0.00881945,0,0,0.00881945,-825.15993,-674.59387)" />
    <radialGradient
       id="radialGradient10">
      <stop
         style="stop-color:#f9f0aa"
         offset=".216"
         id="stop9" />
      <stop
         style="stop-color:#b07e09"
         offset="1"
         id="stop10" />
    </radialGradient>
    <radialGradient
       id="e-9"
       cx="380.84"
       cy="740.37"
       r="25.858999"
       gradientTransform="matrix(7.0234215e-4,8.3694522e-4,-0.00162376,0.00140249,-873.47471,-923.33034)"
       gradientUnits="userSpaceOnUse"
       xlink:href="#a-6" />
    <linearGradient
       id="a-6">
      <stop
         stop-color="#fff"
         offset="0"
         id="stop2-5" />
      <stop
         stop-color="#f15770"
         offset="1"
         id="stop4-1" />
    </linearGradient>
    <radialGradient
       id="f-0"
       cx="651.52002"
       cy="550.46002"
       r="25.858999"
       gradientTransform="matrix(-1.9245334e-4,-0.00208924,0.00193863,-1.8385685e-4,-876.73368,-920.80848)"
       gradientUnits="userSpaceOnUse"
       xlink:href="#a-6" />
    <radialGradient
       id="g-6"
       cx="842.31"
       cy="103.66"
       r="25.858999"
       gradientTransform="matrix(0.00194862,8.2390338e-4,-8.0461878e-4,0.00195837,-876.97359,-922.9887)"
       gradientUnits="userSpaceOnUse"
       xlink:href="#a-6" />
    <clipPath
       id="a-66">
      <path
         fill="#0000ff"
         fill-rule="evenodd"
         d="M 0,0 H 1260 V 630 H 0 Z"
         id="path2" />
    </clipPath>
  </defs>
  <g
     inkscape:label="Layer 1"
     inkscape:groupmode="layer"
     id="layer1"
     transform="translate(773.28522,1400.023)">
    <path
       d="m -773.28522,-1400.023 h 7.9375 v 5.2917 h -7.9375 z"
       fill="#006400"
       id="path1623"
       style="stroke-width:0;stroke-miterlimit:4;stroke-dasharray:none" />
    <path
       d="m -773.28522,-1399.267 h 7.9375 v 3.7797 h -7.9375 z"
       fill="#ffd200"
       id="path1626"
       style="stroke-width:0;stroke-miterlimit:4;stroke-dasharray:none" />
    <path
       d="m -773.28522,-1398.5111 h 7.9375 v 2.2679 h -7.9375 z"
       fill="#d40000"
       id="path1629"
       style="stroke-width:0;stroke-miterlimit:4;stroke-dasharray:none" />
    <path
       d="m -773.28522,-1397.7551 h 7.9375 v 0.7559 h -7.9375 z"
       id="path1632"
       style="stroke-width:0;stroke-miterlimit:4;stroke-dasharray:none" />
    <g
       id="path15"
       clip-path="url(#a-66)"
       transform="matrix(0.00839947,0,0,0.00839947,-773.28522,-1400.023)">
      <path
         style="color:#000000;fill:#000000;stroke-width:30;-inkscape-stroke:none"
         d="M 0,0 V 630 L 420,315 Z"
         id="path192" />
      <path
         style="color:#000000;fill:#000000;-inkscape-stroke:none"
         d="M -15,-30 V 0 660 L 445,315 Z M 15,30 395,315 15,600 Z"
         id="path194" />
    </g>
    <path
       d="m -773.28522,-1400.023 v 5.2917 l 3.52778,-2.6459 z"
       fill="#ffffff"
       id="path1635"
       style="stroke-width:0;stroke-miterlimit:4;stroke-dasharray:none" />
    <path
       d="m -771.94315,-1398.7075 0.69875,2.1505 -1.82933,-1.329 h 2.26116 l -1.82932,1.329 z"
       fill="#d40000"
       id="path1638"
       style="stroke-width:0;stroke-miterlimit:4;stroke-dasharray:none" />
    <path
       d="m -772.00114,-1398.1863 c -0.0246,-0.028 -0.061,-0.043 -0.0983,-0.04 -0.0373,0 -0.0711,0.023 -0.0913,0.054 -0.0214,-5e-4 -0.0428,0 -0.0639,0 -0.0197,0 -0.0369,0.015 -0.0466,0.033 -0.01,0.017 -0.0109,0.038 -0.003,0.057 h 0.0721 c 0.0296,0.017 0.0482,0.048 0.0492,0.082 l 0.008,0.2867 c -0.0139,0.029 -0.021,0.06 -0.0206,0.092 4.9e-4,0.039 0.004,0.077 0.009,0.1151 0.006,0.038 -0.007,0.077 -0.034,0.1046 -0.0419,0.043 -0.0784,0.091 -0.10858,0.1425 -0.0231,0.04 -0.0191,0.09 0.0102,0.1253 l 0.0822,0.3181 h 0.61695 l 0.0342,-0.2699 c 0.0145,-0.1146 0.0798,-0.2165 0.17788,-0.2775 l 0.0243,0.01 c 0.0163,0 0.0336,0 0.0413,-0.018 0.008,-0.015 0.004,-0.034 -0.01,-0.044 l -0.58361,-0.4564 -0.0153,-0.1921 c -0.004,-0.044 -0.0212,-0.086 -0.0504,-0.1197"
       style="fill:#ffd200;fill-opacity:1;fill-rule:evenodd;stroke:none;stroke-width:0;stroke-miterlimit:4;stroke-dasharray:none"
       id="path1641" />
    <path
       d="m -772.00705,-1398.1811 -4.9e-4,-5e-4 0.0118,-0.011 4.9e-4,6e-4 z m -4.9e-4,-5e-4 c -0.003,0 -0.007,-0.01 -0.0103,-0.01 l 0.0104,-0.012 c 0.004,0 0.008,0.01 0.0117,0.012 z m 10e-5,-0.022 v 0 l -0.005,0.01 z m -0.0104,0.012 c -0.004,0 -0.007,-0.01 -0.0114,-0.01 l 0.009,-0.013 c 0.005,0 0.009,0.01 0.0131,0.01 z m -0.0114,-0.01 c -0.0203,-0.013 -0.0447,-0.02 -0.0696,-0.018 l -10e-4,-0.016 c 0.0283,0 0.0563,0.01 0.0795,0.021 z m -0.0696,-0.018 h -7.3e-4 l -10e-4,-0.016 h 7.3e-4 z m -0.002,-0.016 h 7e-5 l 5.5e-4,0.01 z m 10e-4,0.016 c -0.005,4e-4 -0.01,0 -0.0144,0 l -0.003,-0.015 c 0.006,0 0.011,0 0.0164,0 z m -0.0144,0 c -0.005,10e-4 -0.009,0 -0.0138,0 l -0.005,-0.015 c 0.005,0 0.0104,0 0.0158,0 z m -0.0138,0 c -0.023,0.01 -0.0429,0.024 -0.0564,0.045 l -0.0133,-0.01 c 0.0154,-0.024 0.0382,-0.042 0.0644,-0.051 z m -0.0564,0.045 h -0.007 l 1.8e-4,-0.01 z m -0.007,0 c -7.7e-4,0 -0.002,0 -0.002,0 l 1.8e-4,-0.016 c 9.4e-4,0 0.002,0 0.002,0 l -3.8e-4,0.016 z m -0.002,0 h -2e-5 l 10e-5,-0.01 z m -2e-5,0 c -0.003,0 -0.006,0 -0.009,0 l -1.1e-4,-0.016 c 0.003,0 0.006,0 0.009,0 z m -0.009,0 c -0.003,0 -0.006,0 -0.009,3e-4 l -5.6e-4,-0.016 c 0.003,0 0.006,-4e-4 0.009,-4e-4 z m -0.009,3e-4 c -0.0144,5e-4 -0.0288,0 -0.0429,0 l -0.003,-0.016 c 0.0149,0 0.03,0 0.045,0 z m -0.0429,0 h -3.2e-4 l -0.003,-0.016 h 3.2e-4 z m -0.003,-0.015 h 3e-5 l 10e-4,0.01 -10e-4,-0.01 z m 0.003,0.016 c -0.002,4e-4 -0.005,10e-4 -0.007,0 l -0.005,-0.015 c 0.003,-9e-4 0.006,0 0.009,0 z m -0.007,0 c -0.002,7e-4 -0.005,0 -0.007,0 l -0.007,-0.014 c 0.003,0 0.006,0 0.009,0 z m -0.0133,-0.012 h 2e-5 l 0.003,0.01 z m 0.007,0.014 c -0.0112,0.01 -0.0207,0.014 -0.0268,0.025 l -0.0139,-0.01 c 0.008,-0.014 0.0198,-0.025 0.0341,-0.032 z m -0.0407,0.017 h 3e-5 0.007 z m 0.0139,0.01 -4.4e-4,8e-4 -0.0139,-0.01 4.3e-4,-8e-4 z m -0.0144,-0.01 v 0 h 0.007 z m 0.0139,0.01 c -0.001,0 -0.002,0 -0.003,0.01 l -0.0148,-0.01 c 10e-4,0 0.002,-0.01 0.004,-0.01 z m -0.0178,10e-4 v 0 h 0.007 z m 0.0148,0.01 c -8.6e-4,0 -0.002,0 -0.002,0.01 h -0.0153 c 7.3e-4,0 0.002,-0.01 0.003,-0.01 z m -0.0175,0 v 0 h 0.008 z m 0.0153,0 c -0.003,0.012 -0.002,0.024 0.003,0.036 l -0.0146,0.01 c -0.006,-0.015 -0.007,-0.031 -0.003,-0.046 z m -0.004,0.047 h -0.008 0.007 z m -9.4e-4,-0.016 h 0.0721 l 9.3e-4,0.016 h -0.0721 z m 0.0721,0 0.004,10e-4 -0.004,0.01 z m 0.004,10e-4 c 0.001,6e-4 0.002,9e-4 0.002,0 l -0.008,0.014 c -8e-4,-5e-4 -10e-4,-9e-4 -10e-4,-9e-4 l 0.008,-0.014 z m 0.002,0 c 0.004,0 0.009,0.01 0.0124,0.01 l -0.01,0.012 c -0.003,0 -0.007,-0.01 -0.0106,-0.01 z m 0.0124,0.01 c 0.004,0 0.008,0.01 0.011,0.01 l -0.0116,0.011 c -0.003,0 -0.006,-0.01 -0.009,-0.01 z m 0.011,0.01 c 0.0171,0.018 0.0273,0.043 0.0281,0.068 l -0.0158,4e-4 c -6.2e-4,-0.022 -0.009,-0.043 -0.0238,-0.058 z m 0.0281,0.068 0.008,0.2866 -0.0158,4e-4 -0.008,-0.2866 z m 0.008,0.2866 h -8.1e-4 -0.007 l 0.008,-4e-4 z m -8.1e-4,0 c -4.5e-4,9e-4 -10e-4,0 -0.002,0 l -0.0144,-0.01 c 5.2e-4,0 10e-4,0 0.002,0 z m -0.0161,0 v 0 h 0.007 z m 0.0144,0.01 c -0.002,0 -0.003,0.01 -0.005,0.012 l -0.0147,-0.01 c 0.002,0 0.003,-0.01 0.005,-0.013 z m -0.0197,0.01 3e-5,-10e-5 h 0.007 z m 0.0148,0.01 c -0.002,0 -0.003,0.01 -0.004,0.012 h -0.0151 c 0.001,0 0.003,-0.01 0.004,-0.013 z m -0.004,0.012 c -0.006,0.02 -0.009,0.041 -0.009,0.061 l -0.0158,3e-4 c -2.8e-4,-0.023 0.003,-0.045 0.01,-0.066 h 0.0151 z m -0.009,0.061 c 10e-6,0 3e-5,0 7e-5,0 l -0.0158,3e-4 c -2e-5,0 -3e-5,0 -7e-5,0 l 0.0158,-4e-4 z m 7e-5,0 c 1.1e-4,0.01 2.1e-4,0.01 4.3e-4,0.016 l -0.0158,6e-4 c -1.8e-4,-0.01 -3.5e-4,-0.011 -4.3e-4,-0.016 l 0.0158,-3e-4 z m 4.3e-4,0.016 c 1.8e-4,0.01 4.3e-4,0.01 7.3e-4,0.016 l -0.0158,9e-4 c -2.9e-4,-0.01 -5.3e-4,-0.011 -7.3e-4,-0.016 z m 7.3e-4,0.016 c 10e-4,0.026 0.004,0.052 0.008,0.078 h -0.0157 c -0.004,-0.026 -0.007,-0.053 -0.008,-0.08 z m 0.008,0.078 7e-5,3e-4 h -0.0157 l -7e-5,-3e-4 z m 7e-5,3e-4 v 10e-5 h -0.008 z m 0,10e-5 c 8.2e-4,0.01 0.001,0.011 0.001,0.017 l -0.0159,4e-4 c -7e-5,-0.01 -4.5e-4,-0.01 -0.001,-0.015 h 0.0157 z m 0.001,0.017 c 7e-5,0.01 -2.1e-4,0.011 -8.8e-4,0.017 h -0.0157 c 5.6e-4,0 8.2e-4,-0.01 7.6e-4,-0.015 l 0.0158,-3e-4 z m -8.8e-4,0.017 c -0.003,0.029 -0.0161,0.056 -0.0367,0.077 l -0.0113,-0.011 c 0.0181,-0.019 0.0293,-0.042 0.0323,-0.068 z m -0.0367,0.077 h -2e-5 l -0.006,-0.01 z m -2e-5,0 c -2.1e-4,3e-4 10e-4,0 9.1e-4,0 l -0.0132,-0.01 c 4.5e-4,-8e-4 7.7e-4,-10e-4 10e-4,0 z m 9.1e-4,0 h -9.6e-4 l -0.006,-0.01 z m -9.6e-4,0 c -0.005,0.01 -0.0111,0.012 -0.0171,0.018 l -0.0117,-0.011 c 0.005,-0.01 0.0112,-0.012 0.0175,-0.018 z m -0.0288,0.01 v 0 l 0.006,0.01 z m 0.0117,0.011 c -0.006,0.01 -0.0112,0.013 -0.0165,0.019 l -0.012,-0.01 c 0.006,-0.01 0.0112,-0.013 0.0168,-0.019 z m -0.0285,0.01 h 3e-5 l 0.006,0.01 -0.006,-0.01 z m 0.0121,0.01 c -0.0277,0.033 -0.0524,0.067 -0.0738,0.1042 l -0.0137,-0.01 c 0.022,-0.038 0.0472,-0.073 0.0754,-0.1064 z m -0.0875,0.096 h 3e-5 0.007 -0.007 z m 0.0138,0.01 -3.2e-4,5e-4 -0.0137,-0.01 3.1e-4,-6e-4 z m -3.2e-4,5e-4 c -0.003,0.01 -0.006,0.011 -0.007,0.016 l -0.0149,-0.01 c 0.002,-0.01 0.005,-0.013 0.009,-0.018 z m -0.007,0.016 c -0.002,0.01 -0.004,0.011 -0.005,0.017 h -0.0155 c 10e-4,-0.01 0.003,-0.013 0.005,-0.019 z m -0.005,0.017 c -0.005,0.029 0.002,0.06 0.0217,0.083 l -0.0122,0.01 c -0.0225,-0.027 -0.0311,-0.062 -0.0251,-0.096 z m 0.0217,0.083 h 0.002 -0.008 z m 0.002,0 0.0822,0.3181 h -0.0153 l -0.0822,-0.3181 z m 0.0746,0.328 -0.008,-0.01 h 0.008 z m 0,-0.016 h 0.61693 v 0.016 h -0.61697 z m 0.62477,0.01 -0.008,0.01 v -0.01 z m -0.0157,0 0.0342,-0.2699 h 0.0157 l -0.0342,0.2699 z m 0.0499,-0.2679 h -3e-5 l -0.008,-10e-4 z m -0.0157,0 c 1.1e-4,-10e-4 -2.1e-4,0 1.1e-4,-5e-4 h 0.0157 c -2.9e-4,0 10e-5,-9e-4 -3e-5,4e-4 h -0.0157 z m 0.0158,0 v 0 l -0.008,-10e-4 z m -0.0157,0 c 0.002,-0.016 0.005,-0.033 0.009,-0.048 h 0.0153 c -0.004,0.015 -0.007,0.031 -0.009,0.046 z m 0.009,-0.048 c 0.004,-0.016 0.009,-0.031 0.0151,-0.046 l 0.0147,0.01 c -0.006,0.014 -0.0106,0.029 -0.0145,0.044 z m 0.0151,-0.046 c 0.0305,-0.077 0.0852,-0.1435 0.15716,-0.1883 l 0.008,0.013 c -0.069,0.043 -0.12146,0.1066 -0.15079,0.1807 z m 0.15716,-0.1883 0.006,-9e-4 -0.002,0.01 z m 0.006,-9e-4 0.0243,0.01 -0.004,0.015 -0.0243,-0.01 z m 0.0243,0.01 h 2e-5 l -0.002,0.01 z m 2e-5,0 h 1.8e-4 l -0.004,0.015 h -1.7e-4 z m -0.004,0.015 h -7e-5 l 0.002,-0.01 z m 0.004,-0.015 c 0.002,5e-4 0.003,8e-4 0.005,9e-4 l -10e-4,0.016 c -0.003,-3e-4 -0.005,-7e-4 -0.008,0 z m 0.005,9e-4 c 0.002,0 0.004,0 0.005,0 l 0.002,0.016 c -0.003,4e-4 -0.006,4e-4 -0.008,4e-4 z m 0.005,0 c 0.009,0 0.017,-0.01 0.0213,-0.015 l 0.0141,0.01 c -0.007,0.013 -0.0195,0.022 -0.0336,0.023 z m 0.0354,-0.01 -3e-5,10e-5 h -0.007 z m -0.0142,-0.01 1.1e-4,-4e-4 0.0142,0.01 -1e-4,3e-4 z m 1.1e-4,-4e-4 c 8.5e-4,0 0.002,0 0.002,-0.01 h 0.0152 c -7.5e-4,0 -0.002,0.01 -0.003,0.01 z m 0.0172,-9e-4 h -3e-5 -0.008 z m -0.0153,0 c 4.4e-4,0 7.4e-4,0 8.8e-4,-0.01 h 0.0158 c -1.7e-4,0 -6.9e-4,0.01 -10e-4,0.01 z m 0.0167,0 v 0 l -0.008,-6e-4 z m -0.0159,0 c 6.6e-4,-0.01 -0.003,-0.018 -0.0105,-0.024 l 0.01,-0.012 c 0.0117,0.01 0.0176,0.023 0.0166,0.037 z m -0.0105,-0.024 -0.58361,-0.4564 0.01,-0.013 0.58361,0.4564 z m -0.58361,-0.4564 -0.003,-0.01 0.008,-6e-4 z m -0.003,-0.01 -0.0153,-0.1921 h 0.0158 l 0.0154,0.1921 z m -0.0153,-0.1921 -7e-5,-7e-4 h 0.0158 l 7e-5,7e-4 z m 0.0158,0 v 0 l -0.008,6e-4 z m -0.0158,0 c -5.1e-4,-0.01 -10e-4,-0.012 -0.002,-0.018 h 0.0156 c 10e-4,0.01 0.002,0.013 0.002,0.019 z m -0.002,-0.018 c -10e-4,-0.01 -0.002,-0.012 -0.004,-0.017 h 0.0153 c 0.002,0.01 0.003,0.012 0.004,0.019 z m -0.004,-0.017 c -0.008,-0.029 -0.0223,-0.057 -0.0424,-0.08 l 0.0119,-0.01 c 0.0217,0.025 0.0373,0.054 0.0457,0.086"
       style="fill:#000000;fill-opacity:1;fill-rule:nonzero;stroke:none;stroke-width:0;stroke-miterlimit:4;stroke-dasharray:none"
       id="path1644" />
    <path
       d="m -772.00272,-1397.6651 c -7e-5,0 10e-5,-3e-4 -1.1e-4,4e-4 h -0.0152 c 7e-5,-4e-4 1.1e-4,-4e-4 3.2e-4,-9e-4 l 0.0149,0.01 z m -1.1e-4,4e-4 -7e-5,3e-4 h -0.008 z m -7e-5,3e-4 c -0.001,0 -0.003,0.01 -0.003,0.013 h -0.0155 c 10e-4,0 0.002,-0.01 0.004,-0.014 z m -0.003,0.013 c -9e-4,0 -0.002,0.01 -0.002,0.013 h -0.0157 c 4.6e-4,0 10e-4,-0.01 0.002,-0.015 z m -0.002,0.013 c -0.002,0.022 0.002,0.044 0.0127,0.064 l -0.014,0.01 c -0.0119,-0.022 -0.0168,-0.048 -0.0144,-0.073 z m 0.0127,0.064 h 1.1e-4 l -0.014,0.01 h -10e-5 l 0.014,-0.01 z m 1.1e-4,0 c 0.002,0 0.004,0.01 0.007,0.011 l -0.0131,0.01 c -0.003,0 -0.005,-0.01 -0.008,-0.013 z m 0.007,0.011 c 0.002,0 0.005,0.01 0.008,0.01 l -0.012,0.01 c -0.003,0 -0.006,-0.01 -0.009,-0.012 z m 0.008,0.01 c 0.0145,0.017 0.0337,0.029 0.0554,0.035 l -0.004,0.015 c -0.0247,-0.01 -0.0466,-0.021 -0.0631,-0.04"
       style="fill:#000000;fill-opacity:1;fill-rule:nonzero;stroke:none;stroke-width:0;stroke-miterlimit:4;stroke-dasharray:none"
       id="path1647" />
    <path
       d="m -771.93091,-1397.8679 -0.23957,0.1637 -0.009,-0.013 0.23958,-0.1637"
       style="fill:#000000;fill-opacity:1;fill-rule:nonzero;stroke:none;stroke-width:0;stroke-miterlimit:4;stroke-dasharray:none"
       id="path1650" />
    <path
       d="m -772.06272,-1398.1276 c 0,-0.017 -0.0141,-0.031 -0.0314,-0.031 -0.0174,0 -0.0314,0.014 -0.0314,0.031 0,0.017 0.0141,0.031 0.0314,0.031 0.0174,0 0.0314,-0.014 0.0314,-0.031"
       style="fill:#ffd200;fill-opacity:1;fill-rule:evenodd;stroke:none;stroke-width:0;stroke-miterlimit:4;stroke-dasharray:none"
       id="path1653" />
    <path
       d="m -772.07065,-1398.1276 v 0 h 0.0159 v 0 z m 0,0 c 0,-0.01 -0.003,-0.012 -0.007,-0.017 l 0.0111,-0.011 c 0.007,0.01 0.0116,0.017 0.0116,0.028 z m -0.007,-0.017 c -0.004,0 -0.0101,-0.01 -0.0165,-0.01 l 7e-5,-0.016 c 0.0108,0 0.0205,0 0.0276,0.011 l -0.0111,0.011 z m -0.0165,-0.023 h 3e-5 l -3e-5,0.01 z m 0,0.016 h -10e-5 v -0.016 h 10e-5 z m -10e-5,0 h -7e-5 v -0.016 h 7e-5 z m -7e-5,0 c -0.006,10e-5 -0.0124,0 -0.0166,0.01 l -0.0112,-0.011 c 0.007,-0.01 0.017,-0.012 0.0278,-0.012 z m -0.0166,0.01 c -0.004,0 -0.007,0.01 -0.007,0.017 h -0.0159 c 3e-5,-0.011 0.004,-0.021 0.0115,-0.028 l 0.0112,0.011 z m -0.0227,0.016 v 0 h 0.008 z m 0.0159,0 v 0 h -0.0159 v 0 z m 0,0 v 0 h -0.0159 v 0 z m 0,0 c 0,0.01 0.003,0.012 0.007,0.017 l -0.0111,0.011 c -0.007,-0.01 -0.0116,-0.017 -0.0116,-0.028 z m 0.007,0.017 c 0.004,0 0.0101,0.01 0.0165,0.01 l -7e-5,0.016 c -0.0108,0 -0.0205,0 -0.0276,-0.011 l 0.0112,-0.011 z m 0.0165,0.023 h -2e-5 l 2e-5,-0.01 z m 0,-0.016 h 1.1e-4 v 0.016 h -1.1e-4 z m 1.1e-4,0 h 7e-5 v 0.016 h -7e-5 z m 7e-5,0 c 0.006,0 0.0124,0 0.0166,-0.01 l 0.0112,0.011 c -0.007,0.01 -0.017,0.012 -0.0278,0.012 z m 0.0166,-0.01 c 0.004,0 0.007,-0.01 0.007,-0.016 h 0.0158 c -2e-5,0.011 -0.004,0.021 -0.0115,0.028 l -0.0112,-0.011 z m 0.0227,-0.016 v 0 h -0.008 z m -0.0158,0 v 0 h 0.0158 v 0"
       style="fill:#000000;fill-opacity:1;fill-rule:nonzero;stroke:none;stroke-width:0;stroke-miterlimit:4;stroke-dasharray:none"
       id="path1656" />
    <path
       d="m -772.12631,-1397.3772 5.6e-4,-3e-4 0.007,0.014 -5.6e-4,4e-4 -0.007,-0.014 z m 0.008,0.014 h -3e-5 l -0.004,-0.01 z m -0.007,-0.014 c 0.006,0 0.0126,-0.01 0.0183,-0.011 l 0.009,0.013 c -0.006,0 -0.0133,0.01 -0.0206,0.013 z m 0.0183,-0.011 c 0.006,0 0.011,-0.01 0.0158,-0.014 l 0.0114,0.011 c -0.005,0.01 -0.0114,0.011 -0.0178,0.016 z m 0.0158,-0.014 c 0.0248,-0.026 0.038,-0.062 0.0348,-0.099 h 0.0158 c 0.004,0.042 -0.0113,0.082 -0.0392,0.1109"
       style="fill:#000000;fill-opacity:1;fill-rule:nonzero;stroke:none;stroke-width:0;stroke-miterlimit:4;stroke-dasharray:none"
       id="path1659" />
    <path
       d="m -772.0176,-1397.5444 -5.6e-4,3e-4 -0.007,-0.014 5.6e-4,-3e-4 z m -0.008,-0.014 h 7e-5 l 0.004,0.01 z m 0.007,0.014 c -0.002,0 -0.004,0 -0.006,0 l -0.009,-0.013 c 0.003,0 0.006,0 0.008,-0.01 z m -0.006,0 c -0.002,0 -0.004,0 -0.005,0 l -0.0114,-0.011 c 0.002,0 0.005,0 0.007,-0.01 z m -0.005,0 c -0.008,0.01 -0.0126,0.021 -0.0115,0.033 h -0.0159 c -10e-4,-0.017 0.005,-0.033 0.0159,-0.045"
       style="fill:#000000;fill-opacity:1;fill-rule:nonzero;stroke:none;stroke-width:0;stroke-miterlimit:4;stroke-dasharray:none"
       id="path1662" />
    <path
       d="m -771.92864,-1397.312 h -1.1e-4 l -0.006,-0.015 h 1.1e-4 z m -1.1e-4,0 c -0.008,0 -0.0166,0.01 -0.0253,0.01 l -0.006,-0.015 c 0.008,0 0.0167,-0.01 0.0255,-0.01 z m -0.0253,0.01 c -0.008,0 -0.0169,0.01 -0.0252,0.011 l -0.006,-0.014 c 0.008,0 0.0169,-0.01 0.0254,-0.011 z m -0.0252,0.011 c -0.043,0.018 -0.0857,0.038 -0.12788,0.059 l -0.007,-0.014 c 0.0423,-0.021 0.0852,-0.04 0.12862,-0.059"
       style="fill:#000000;fill-opacity:1;fill-rule:nonzero;stroke:none;stroke-width:0;stroke-miterlimit:4;stroke-dasharray:none"
       id="path1665" />
    <path
       d="m -771.93443,-1397.3267 h 2.9e-4 l 0.006,0.015 h -2.8e-4 z m 0.006,0.015 -10e-5,10e-5 -0.003,-0.01 z m -0.006,-0.015 c 0.009,0 0.0176,-0.01 0.0258,-0.013 l 0.008,0.014 c -0.009,0.01 -0.0182,0.01 -0.0277,0.014 z m 0.0258,-0.013 c 0.008,0 0.0159,-0.01 0.0233,-0.016 l 0.01,0.013 c -0.008,0.01 -0.0163,0.012 -0.0253,0.017 z m 0.0233,-0.016 c 0.0379,-0.03 0.0643,-0.073 0.0733,-0.1216 h 0.0155 c -0.01,0.053 -0.0381,0.099 -0.0789,0.1312"
       style="fill:#000000;fill-opacity:1;fill-rule:nonzero;stroke:none;stroke-width:0;stroke-miterlimit:4;stroke-dasharray:none"
       id="path1668" />
    <path
       d="m -772.01234,-1397.2931 h 0.51483 v 0.016 h -0.51483"
       style="fill:#000000;fill-opacity:1;fill-rule:nonzero;stroke:none;stroke-width:0;stroke-miterlimit:4;stroke-dasharray:none"
       id="path1671" />
    <path
       d="m -771.89368,-1397.1887 c 0,-0.033 -0.0267,-0.06 -0.0597,-0.06 -0.033,0 -0.0597,0.027 -0.0597,0.06 0,0.033 0.0267,0.06 0.0597,0.06 0.033,0 0.0597,-0.027 0.0597,-0.06"
       style="fill:#ffd200;fill-opacity:1;fill-rule:evenodd;stroke:none;stroke-width:0;stroke-miterlimit:4;stroke-dasharray:none"
       id="path1674" />
    <path
       d="m -771.90161,-1397.1887 v 0 h 0.0159 v 0 z m 0,0 c 0,-0.014 -0.006,-0.027 -0.0152,-0.037 l 0.0112,-0.011 c 0.0122,0.012 0.0198,0.029 0.0198,0.048 z m -0.004,-0.048 h 3e-5 l -0.006,0.01 0.006,-0.01 z m -0.0111,0.011 c -0.009,-0.01 -0.0222,-0.015 -0.0365,-0.015 v -0.016 c 0.0186,0 0.0354,0.01 0.0476,0.02 z m -0.0365,-0.015 h -1.1e-4 v -0.016 h 1.1e-4 z m -1.1e-4,0 h -7e-5 v -0.016 h 7e-5 z m -7e-5,0 c -0.0143,0 -0.0272,0.01 -0.0366,0.015 l -0.0112,-0.011 c 0.0122,-0.012 0.0291,-0.02 0.0478,-0.02 z m -0.0366,0.015 c -0.009,0.01 -0.0151,0.022 -0.0152,0.037 h -0.0158 c 3e-5,-0.019 0.008,-0.036 0.0198,-0.048 z m -0.0152,0.037 v 0 h -0.0158 v 0 z m 0,0 v 0 h -0.0158 v 0 z m 0,0 c 10e-6,0.014 0.006,0.027 0.0152,0.036 l -0.0111,0.011 c -0.0122,-0.012 -0.0198,-0.029 -0.0199,-0.048 z m 0.0152,0.036 c 0.009,0.01 0.0222,0.015 0.0365,0.015 v 0.016 c -0.0186,0 -0.0354,-0.01 -0.0476,-0.02 z m 0.0365,0.015 h 1.1e-4 v 0.016 h -1.1e-4 z m 1.1e-4,0 h 7e-5 v 0.016 h -7e-5 z m 7e-5,0 c 0.0142,0 0.0272,-0.01 0.0366,-0.015 l 0.0112,0.011 c -0.0122,0.012 -0.0291,0.02 -0.0478,0.02 z m 0.0478,0 v 0 l -0.006,-0.01 z m -0.0112,-0.011 c 0.009,-0.01 0.0151,-0.022 0.0151,-0.036 h 0.0158 c -3e-5,0.019 -0.008,0.035 -0.0198,0.048 z m 0.0151,-0.036 v 0 h 0.0158 v 0"
       style="fill:#000000;fill-opacity:1;fill-rule:nonzero;stroke:none;stroke-width:0;stroke-miterlimit:4;stroke-dasharray:none"
       id="path1677" />
    <path
       d="m -771.65617,-1397.1887 c 0,-0.033 -0.0267,-0.06 -0.0597,-0.06 -0.033,0 -0.0597,0.027 -0.0597,0.06 0,0.033 0.0267,0.06 0.0597,0.06 0.033,0 0.0597,-0.027 0.0597,-0.06"
       style="fill:#ffd200;fill-opacity:1;fill-rule:evenodd;stroke:none;stroke-width:0;stroke-miterlimit:4;stroke-dasharray:none"
       id="path1680" />
    <path
       d="m -771.66409,-1397.1887 v 0 h 0.0158 v 0 z m 0,0 c -10e-6,-0.014 -0.006,-0.027 -0.0152,-0.037 l 0.0112,-0.011 c 0.0122,0.012 0.0198,0.029 0.0198,0.048 z m -0.004,-0.048 h 3e-5 l -0.006,0.01 0.006,-0.01 z m -0.0111,0.011 c -0.009,-0.01 -0.0222,-0.015 -0.0365,-0.015 v -0.016 c 0.0186,0 0.0354,0.01 0.0476,0.02 z m -0.0365,-0.015 h -1.1e-4 v -0.016 h 1.1e-4 z m -1.1e-4,0 h -7e-5 v -0.016 h 7e-5 z m -7e-5,0 c -0.0143,0 -0.0272,0.01 -0.0366,0.015 l -0.0112,-0.011 c 0.0122,-0.012 0.0291,-0.02 0.0478,-0.02 z m -0.0366,0.015 c -0.009,0.01 -0.0151,0.022 -0.0151,0.037 h -0.0158 c 3e-5,-0.019 0.008,-0.036 0.0198,-0.048 z m -0.0151,0.037 v 0 h -0.0158 v 0 z m 0,0 v 0 h -0.0158 v 0 z m 0,0 c 10e-6,0.014 0.006,0.027 0.0152,0.036 l -0.0111,0.011 c -0.0123,-0.012 -0.0199,-0.029 -0.0199,-0.048 z m 0.0152,0.036 c 0.009,0.01 0.0222,0.015 0.0365,0.015 v 0.016 c -0.0186,0 -0.0354,-0.01 -0.0476,-0.02 z m 0.0365,0.015 h 10e-5 v 0.016 h -10e-5 z m 10e-5,0 h 7e-5 v 0.016 h -7e-5 z m 7e-5,0 c 0.0143,0 0.0272,-0.01 0.0366,-0.015 l 0.0112,0.011 c -0.0122,0.012 -0.0291,0.02 -0.0478,0.02 z m 0.0478,0 v 0 l -0.006,-0.01 z m -0.0112,-0.011 c 0.009,-0.01 0.0151,-0.022 0.0151,-0.036 h 0.0159 c -3e-5,0.019 -0.008,0.035 -0.0198,0.048 z m 0.0151,-0.036 v 0 h 0.0159 v 0"
       style="fill:#000000;fill-opacity:1;fill-rule:nonzero;stroke:none;stroke-width:0;stroke-miterlimit:4;stroke-dasharray:none"
       id="path1683" />
    <path
       d="m -771.83708,-1397.3997 c 0.003,9e-4 0.006,0 0.008,0 l -0.004,0.015 c -0.003,-8e-4 -0.006,0 -0.009,0 z m 0.008,0 c 0.004,0 0.009,0 0.0126,0 l -0.003,0.015 c -0.005,-10e-4 -0.009,0 -0.0132,0 z m 0.0126,0 c 0.004,10e-4 0.009,0 0.0128,0 l -0.003,0.016 c -0.004,-8e-4 -0.009,0 -0.0134,0 z m 0.0128,0 c 0.0199,0 0.0402,0.01 0.0606,0.01 l 7e-5,0.016 c -0.0212,0 -0.0425,0 -0.0635,-0.01"
       style="fill:#000000;fill-opacity:1;fill-rule:nonzero;stroke:none;stroke-width:0;stroke-miterlimit:4;stroke-dasharray:none"
       id="path1686" />
    <path
       d="m -771.74275,-1397.3862 c 0.003,0 0.005,0 0.008,-4e-4 l 0.002,0.016 c -0.003,4e-4 -0.006,5e-4 -0.01,5e-4 l -7e-5,-0.016 z m 0.008,-4e-4 h 2e-5 l 7.8e-4,0.01 -8.1e-4,-0.01 z m 2e-5,0 c 0.004,-5e-4 0.009,0 0.0133,0 l 0.004,0.015 c -0.005,0 -0.0104,0 -0.0157,0 z m 0.0133,0 c 0.004,0 0.008,0 0.0125,0 l 0.006,0.014 c -0.005,0 -0.01,0 -0.0149,0.01 z m 0.0125,0 c 0.0191,-0.01 0.0349,-0.024 0.0437,-0.044 l 0.0145,0.01 c -0.0103,0.024 -0.0291,0.042 -0.0518,0.052"
       style="fill:#000000;fill-opacity:1;fill-rule:nonzero;stroke:none;stroke-width:0;stroke-miterlimit:4;stroke-dasharray:none"
       id="path1689" />
    <path
       d="m -771.40968,-1397.3553 -0.51996,-0.1475 0.004,-0.015 0.51995,0.1475"
       style="fill:#000000;fill-opacity:1;fill-rule:nonzero;stroke:none;stroke-width:0;stroke-miterlimit:4;stroke-dasharray:none"
       id="path1692" />
    <path
       d="m -772.30834,-1397.101 h 0.72398 v 0.016 h -0.72398"
       style="fill:#000000;fill-opacity:1;fill-rule:nonzero;stroke:none;stroke-width:0;stroke-miterlimit:4;stroke-dasharray:none"
       id="path1695" />
    <path
       d="m -772.14122,-1396.9437 h 0.53681 v 0.016 h -0.53681"
       style="fill:#000000;fill-opacity:1;fill-rule:nonzero;stroke:none;stroke-width:0;stroke-miterlimit:4;stroke-dasharray:none"
       id="path1698" />
    <path
       d="m -771.89026,-1396.9975 -0.0586,0.058 -0.0111,-0.011 0.0586,-0.058"
       style="fill:#000000;fill-opacity:1;fill-rule:nonzero;stroke:none;stroke-width:0;stroke-miterlimit:4;stroke-dasharray:none"
       id="path1701"
       sodipodi:nodetypes="cccc" />
    <path
       d="m -772.00189,-1397.0031 0.0586,0.058 -0.0111,0.011 -0.0586,-0.058"
       style="fill:#000000;fill-opacity:1;fill-rule:nonzero;stroke:none;stroke-width:0;stroke-miterlimit:4;stroke-dasharray:none"
       id="path1704"
       sodipodi:nodetypes="cccc" />
    <path
       d="m -771.99635,-1396.9975 -0.0586,0.058 -0.0111,-0.011 0.0586,-0.058"
       style="fill:#000000;fill-opacity:1;fill-rule:nonzero;stroke:none;stroke-width:0;stroke-miterlimit:4;stroke-dasharray:none"
       id="path1707"
       sodipodi:nodetypes="cccc" />
    <path
       d="m -772.10798,-1397.0031 0.0586,0.058 -0.0111,0.011 -0.0586,-0.058"
       style="fill:#000000;fill-opacity:1;fill-rule:nonzero;stroke:none;stroke-width:0;stroke-miterlimit:4;stroke-dasharray:none"
       id="path1710"
       sodipodi:nodetypes="cccc" />
    <path
       d="m -771.78418,-1396.9975 -0.0586,0.058 -0.0111,-0.011 0.0586,-0.058"
       style="fill:#000000;fill-opacity:1;fill-rule:nonzero;stroke:none;stroke-width:0;stroke-miterlimit:4;stroke-dasharray:none"
       id="path1713"
       sodipodi:nodetypes="cccc" />
    <path
       d="m -771.8958,-1397.0031 0.0586,0.052 -0.0111,0.011 -0.0586,-0.052"
       style="fill:#000000;fill-opacity:1;fill-rule:nonzero;stroke:none;stroke-width:0;stroke-miterlimit:4;stroke-dasharray:none"
       id="path1716"
       sodipodi:nodetypes="cccc" />
    <path
       d="m -771.67807,-1396.9975 -0.0586,0.058 -0.0111,-0.011 0.0586,-0.058"
       style="fill:#000000;fill-opacity:1;fill-rule:nonzero;stroke:none;stroke-width:0;stroke-miterlimit:4;stroke-dasharray:none"
       id="path1719"
       sodipodi:nodetypes="cccc" />
    <path
       d="m -771.78971,-1397.0031 0.0586,0.052 -0.0111,0.011 -0.0586,-0.052"
       style="fill:#000000;fill-opacity:1;fill-rule:nonzero;stroke:none;stroke-width:0;stroke-miterlimit:4;stroke-dasharray:none"
       id="path1722"
       sodipodi:nodetypes="cccc" />
    <path
       d="m -771.59297,-1396.9767 -0.0376,0.037 -0.0111,-0.011 0.0376,-0.037"
       style="fill:#000000;fill-opacity:1;fill-rule:nonzero;stroke:none;stroke-width:0;stroke-miterlimit:4;stroke-dasharray:none"
       id="path1725" />
    <path
       d="m -771.68361,-1397.0031 0.0586,0.058 -0.0111,0.011 -0.0586,-0.058"
       style="fill:#000000;fill-opacity:1;fill-rule:nonzero;stroke:none;stroke-width:0;stroke-miterlimit:4;stroke-dasharray:none"
       id="path1728"
       sodipodi:nodetypes="cccc" />
    <path
       d="m -771.89026,-1397.0779 -0.0586,0.058 -0.0111,-0.011 0.0586,-0.058"
       style="fill:#000000;fill-opacity:1;fill-rule:nonzero;stroke:none;stroke-width:0;stroke-miterlimit:4;stroke-dasharray:none"
       id="path1731"
       sodipodi:nodetypes="cccc" />
    <path
       d="m -772.00189,-1397.0835 0.0586,0.058 -0.0111,0.011 -0.0586,-0.058"
       style="fill:#000000;fill-opacity:1;fill-rule:nonzero;stroke:none;stroke-width:0;stroke-miterlimit:4;stroke-dasharray:none"
       id="path1734"
       sodipodi:nodetypes="cccc" />
    <path
       d="m -771.99635,-1397.0779 -0.0586,0.058 -0.0111,-0.011 0.0586,-0.058"
       style="fill:#000000;fill-opacity:1;fill-rule:nonzero;stroke:none;stroke-width:0;stroke-miterlimit:4;stroke-dasharray:none"
       id="path1737"
       sodipodi:nodetypes="cccc" />
    <path
       d="m -772.10798,-1397.0835 0.0586,0.058 -0.0111,0.011 -0.0586,-0.058"
       style="fill:#000000;fill-opacity:1;fill-rule:nonzero;stroke:none;stroke-width:0;stroke-miterlimit:4;stroke-dasharray:none"
       id="path1740"
       sodipodi:nodetypes="cccc" />
    <path
       d="m -771.78418,-1397.0779 -0.0586,0.058 -0.0111,-0.011 0.0586,-0.058"
       style="fill:#000000;fill-opacity:1;fill-rule:nonzero;stroke:none;stroke-width:0;stroke-miterlimit:4;stroke-dasharray:none"
       id="path1743"
       sodipodi:nodetypes="cccc" />
    <path
       d="m -771.8958,-1397.0835 0.0586,0.058 -0.0111,0.011 -0.0586,-0.058"
       style="fill:#000000;fill-opacity:1;fill-rule:nonzero;stroke:none;stroke-width:0;stroke-miterlimit:4;stroke-dasharray:none"
       id="path1746"
       sodipodi:nodetypes="cccc" />
    <path
       d="m -771.67807,-1397.0779 -0.0586,0.058 -0.0111,-0.011 0.0586,-0.058"
       style="fill:#000000;fill-opacity:1;fill-rule:nonzero;stroke:none;stroke-width:0;stroke-miterlimit:4;stroke-dasharray:none"
       id="path1749"
       sodipodi:nodetypes="cccc" />
    <path
       d="m -771.78971,-1397.0835 0.0586,0.058 -0.0111,0.011 -0.0586,-0.058"
       style="fill:#000000;fill-opacity:1;fill-rule:nonzero;stroke:none;stroke-width:0;stroke-miterlimit:4;stroke-dasharray:none"
       id="path1752"
       sodipodi:nodetypes="cccc" />
    <path
       d="m -771.58131,-1397.0685 -0.0493,0.048 -0.0111,-0.011 0.0493,-0.048"
       style="fill:#000000;fill-opacity:1;fill-rule:nonzero;stroke:none;stroke-width:0;stroke-miterlimit:4;stroke-dasharray:none"
       id="path1755" />
    <path
       d="m -771.68361,-1397.0835 0.0586,0.058 -0.0111,0.011 -0.0586,-0.058"
       style="fill:#000000;fill-opacity:1;fill-rule:nonzero;stroke:none;stroke-width:0;stroke-miterlimit:4;stroke-dasharray:none"
       id="path1758"
       sodipodi:nodetypes="cccc" />
    <path
       d="m -772.16252,-1398.0779 h -0.0693 l -9.4e-4,-0.016 h 0.0693"
       style="fill:#000000;fill-opacity:1;fill-rule:nonzero;stroke:none;stroke-width:0;stroke-miterlimit:4;stroke-dasharray:none"
       id="path1761" />
    <path
       d="m -772.11937,-1397.3629 h -2.1e-4 l -0.007,-0.014 h 2.1e-4 z m -0.007,-0.014 h 1.1e-4 l 0.003,0.01 z m 0.007,0.014 c -0.0135,0.01 -0.026,0.015 -0.0376,0.023 l -0.01,-0.013 c 0.0124,-0.01 0.0258,-0.018 0.0401,-0.025 z m -0.0376,0.023 c -0.0115,0.01 -0.0222,0.019 -0.0318,0.03 l -0.0118,-0.011 c 0.0102,-0.011 0.0216,-0.022 0.034,-0.031 z m -0.0318,0.03 c -0.0493,0.055 -0.0711,0.1314 -0.0545,0.2067 h -0.0155 c -0.0177,-0.08 0.006,-0.1622 0.0582,-0.2207"
       style="fill:#000000;fill-opacity:1;fill-rule:nonzero;stroke:none;stroke-width:0;stroke-miterlimit:4;stroke-dasharray:none"
       id="path1764" />
    <path
       d="m -772.10721,-1397.2323 -9.7e-4,4e-4 -0.007,-0.014 9.8e-4,-4e-4 z m -0.008,-0.014 h 7e-5 l 0.003,0.01 z m 0.007,0.014 c -0.007,0 -0.0131,0.01 -0.0191,0.012 l -0.009,-0.013 c 0.007,0 0.0138,-0.01 0.0213,-0.013 z m -0.0191,0.012 c -0.006,0 -0.0115,0.01 -0.0166,0.014 l -0.0113,-0.011 c 0.006,-0.01 0.012,-0.011 0.0186,-0.016 z m -0.0166,0.014 c -0.0261,0.026 -0.0407,0.065 -0.0388,0.1032 l -0.0156,6e-4 c -0.002,-0.043 0.014,-0.085 0.0432,-0.1149"
       style="fill:#000000;fill-opacity:1;fill-rule:nonzero;stroke:none;stroke-width:0;stroke-miterlimit:4;stroke-dasharray:none"
       id="path1767"
       sodipodi:nodetypes="ccccccccccccccccccccccc" />
    <path
       d="m -772.29305,-1397.1775 -0.0149,-10e-4 -2.1e-4,0.01 c -7e-5,-3e-4 2.4e-4,-0.01 2.1e-4,-0.01 z m -0.0151,0 h 0.0151 -0.0149 z m 0.0151,0 c 10e-4,0 0.002,0.01 0.004,0.011 l -0.0147,0.01 c -0.002,0 -0.003,-0.01 -0.004,-0.012 z m 0.004,0.011 c 10e-4,0 0.003,0.01 0.005,0.011 l -0.0142,0.01 c -0.002,0 -0.004,-0.01 -0.005,-0.012 z m 0.005,0.011 c 0.009,0.018 0.0221,0.034 0.0382,0.047 l -0.01,0.012 c -0.018,-0.014 -0.0325,-0.032 -0.0425,-0.053"
       style="fill:#000000;fill-opacity:1;fill-rule:nonzero;stroke:none;stroke-width:0;stroke-miterlimit:4;stroke-dasharray:none"
       id="path1770"
       sodipodi:nodetypes="cccccccccccccccccccccccc" />
    <path
       d="m -772.29343,-1397.1722 -0.0181,0.042 -0.0145,-0.01 0.0181,-0.042"
       style="fill:#000000;fill-opacity:1;fill-rule:nonzero;stroke:none;stroke-width:0;stroke-miterlimit:4;stroke-dasharray:none"
       id="path1773" />
    <path
       d="m -772.25878,-1397.0999 7.1e-4,-0.01 0.0142,0.01 h -7e-5 z m 0.0149,0 -0.0141,-0.01 v 0 z m -0.0141,-0.01 c 0.002,0 0.004,-0.01 0.006,-0.011 l 0.0142,0.01 c -0.002,0 -0.004,0.01 -0.006,0.011 z m 0.006,-0.011 c 0.002,0 0.004,-0.01 0.005,-0.011 l 0.0144,0.01 c -0.002,0 -0.004,0.01 -0.005,0.011 z m 0.005,-0.011 c 0.009,-0.019 0.0162,-0.039 0.0224,-0.059 h 0.0151 c -0.006,0.021 -0.0141,0.041 -0.0232,0.061"
       style="fill:#000000;fill-opacity:1;fill-rule:nonzero;stroke:none;stroke-width:0;stroke-miterlimit:4;stroke-dasharray:none"
       id="path1776"
       sodipodi:nodetypes="ccccccccccccccccccccccc" />
    <path
       d="m -772.19825,-1397.1022 -7e-5,-4e-4 h 0.0154 l 7e-5,3e-4 z m 0.0154,0 v 0 h -0.008 z m -0.0154,0 c -9.7e-4,0 -0.002,-0.01 -0.003,-0.011 h 0.0153 c 0.001,0 0.002,0.01 0.003,0.012 z m -0.003,-0.011 c -8.3e-4,0 -0.002,-0.01 -0.003,-0.011 h 0.0152 c 9.3e-4,0 0.002,0.01 0.003,0.012 z m 0.0121,-0.015 h 3e-5 -0.008 0.008 z m -0.0152,0 c -0.005,-0.019 -0.0123,-0.038 -0.0203,-0.056 l -3.1e-4,-0.01 0.0148,-9e-4 c 0.008,0.019 0.0152,0.038 0.0209,0.058"
       style="fill:#000000;fill-opacity:1;fill-rule:nonzero;stroke:none;stroke-width:0;stroke-miterlimit:4;stroke-dasharray:none"
       id="path1779"
       sodipodi:nodetypes="cccccccccccccccccccccccccccccc" />
    <path
       d="m -772.12634,-1396.8173 -0.0229,-0.118 h 0.0155 l 0.0229,0.118"
       style="fill:#000000;fill-opacity:1;fill-rule:nonzero;stroke:none;stroke-width:0;stroke-miterlimit:4;stroke-dasharray:none"
       id="path1782" />
    <path
       d="m -772.14871,-1396.9332 -0.0538,-0.1574 0.015,-0.01 0.0538,0.1573"
       style="fill:#000000;fill-opacity:1;fill-rule:nonzero;stroke:none;stroke-width:0;stroke-miterlimit:4;stroke-dasharray:none"
       id="path1785" />
    <path
       d="m -772.10243,-1396.9975 -0.0421,0.042 -0.0111,-0.011 0.0421,-0.042"
       style="fill:#000000;fill-opacity:1;fill-rule:nonzero;stroke:none;stroke-width:0;stroke-miterlimit:4;stroke-dasharray:none"
       id="path1788"
       sodipodi:nodetypes="cccc" />
    <path
       d="m -772.10243,-1397.0779 -0.0626,0.062 -0.0111,-0.011 0.0626,-0.062"
       style="fill:#000000;fill-opacity:1;fill-rule:nonzero;stroke:none;stroke-width:0;stroke-miterlimit:4;stroke-dasharray:none"
       id="path1791"
       sodipodi:nodetypes="cccc" />
  </g>
</svg>
