<?xml version="1.0" encoding="UTF-8" standalone="no"?>
<!-- Created with Inkscape (http://www.inkscape.org/) -->

<svg
   width="7.9375mm"
   height="5.2916698mm"
   viewBox="0 0 7.9375 5.29167"
   version="1.1"
   id="svg1"
   inkscape:version="1.4 (86a8ad7, 2024-10-11)"
   sodipodi:docname="sot.svg"
   xmlns:inkscape="http://www.inkscape.org/namespaces/inkscape"
   xmlns:sodipodi="http://sodipodi.sourceforge.net/DTD/sodipodi-0.dtd"
   xmlns:xlink="http://www.w3.org/1999/xlink"
   xmlns="http://www.w3.org/2000/svg"
   xmlns:svg="http://www.w3.org/2000/svg">
  <sodipodi:namedview
     id="namedview1"
     pagecolor="#ffffff"
     bordercolor="#000000"
     borderopacity="0.25"
     inkscape:showpageshadow="2"
     inkscape:pageopacity="0.0"
     inkscape:pagecheckerboard="0"
     inkscape:deskcolor="#d1d1d1"
     inkscape:document-units="mm"
     inkscape:zoom="0.71891835"
     inkscape:cx="377.65067"
     inkscape:cy="329.66191"
     inkscape:window-width="1904"
     inkscape:window-height="992"
     inkscape:window-x="-26"
     inkscape:window-y="145"
     inkscape:window-maximized="0"
     inkscape:current-layer="layer1" />
  <defs
     id="defs1">
    <radialGradient
       id="n"
       cx="489.07001"
       cy="210.33"
       r="0.345"
       gradientTransform="matrix(0.00861722,0,0,0.0090267,-825.15993,-674.59387)"
       gradientUnits="userSpaceOnUse">
      <stop
         style="stop-color:#fff"
         offset="0"
         id="stop19" />
      <stop
         style="stop-color:#fff;stop-opacity:0"
         offset="1"
         id="stop21" />
    </radialGradient>
    <radialGradient
       id="m"
       cx="477.85999"
       cy="215.27"
       r="0.345"
       gradientUnits="userSpaceOnUse"
       gradientTransform="matrix(0.00881945,0,0,0.00881945,-825.15993,-674.59387)">
      <stop
         style="stop-color:#a50a0a"
         offset=".259"
         id="stop14" />
      <stop
         style="stop-color:#4c0505"
         offset="1"
         id="stop16" />
    </radialGradient>
    <linearGradient
       id="l"
       x1="473.31"
       x2="475.92999"
       y1="237.25"
       y2="270.45001"
       gradientUnits="userSpaceOnUse"
       gradientTransform="matrix(0.00881945,0,0,0.00881945,-825.15993,-674.59387)">
      <stop
         style="stop-color:#f9f0aa"
         offset=".216"
         id="stop39" />
      <stop
         style="stop-color:#b07e09"
         offset="1"
         id="stop41" />
    </linearGradient>
    <linearGradient
       id="k"
       x1="451.54001"
       x2="455.37"
       y1="249.52"
       y2="240.58"
       gradientUnits="userSpaceOnUse"
       gradientTransform="matrix(0.00881945,0,0,0.00881945,-825.15993,-674.59387)">
      <stop
         style="stop-color:#f9f0aa"
         offset=".216"
         id="stop34" />
      <stop
         style="stop-color:#b07e09"
         offset="1"
         id="stop36" />
    </linearGradient>
    <radialGradient
       id="j"
       cx="445.98001"
       cy="252.36"
       r="13.018"
       gradientUnits="userSpaceOnUse"
       xlink:href="#a"
       gradientTransform="matrix(0.00881945,0,0,0.00881945,-825.15993,-674.59387)" />
    <radialGradient
       id="a">
      <stop
         style="stop-color:#f9f0aa"
         offset=".216"
         id="stop4" />
      <stop
         style="stop-color:#b07e09"
         offset="1"
         id="stop6" />
    </radialGradient>
    <linearGradient
       id="i"
       x1="483.13"
       x2="485.5"
       y1="296.66"
       y2="326.57999"
       gradientUnits="userSpaceOnUse"
       gradientTransform="matrix(0.00881945,0,0,0.00881945,-825.15993,-674.59387)">
      <stop
         style="stop-color:#b07e09;stop-opacity:0"
         offset=".216"
         id="stop29" />
      <stop
         style="stop-color:#b07e09"
         offset="1"
         id="stop31" />
    </linearGradient>
    <linearGradient
       id="h"
       x1="473.91"
       x2="472.35999"
       y1="259.17001"
       y2="231.96001"
       gradientUnits="userSpaceOnUse"
       gradientTransform="matrix(0.00881945,0,0,0.00881945,-825.15993,-674.59387)">
      <stop
         style="stop-color:#b07e09;stop-opacity:0"
         offset=".216"
         id="stop24" />
      <stop
         style="stop-color:#b07e09"
         offset="1"
         id="stop26" />
    </linearGradient>
    <radialGradient
       id="g"
       cx="458.39001"
       cy="307.06"
       r="17.354"
       gradientUnits="userSpaceOnUse"
       xlink:href="#a"
       gradientTransform="matrix(0.00881945,0,0,0.00881945,-825.15993,-674.59387)" />
    <radialGradient
       id="radialGradient2">
      <stop
         style="stop-color:#f9f0aa"
         offset=".216"
         id="stop1" />
      <stop
         style="stop-color:#b07e09"
         offset="1"
         id="stop2" />
    </radialGradient>
    <radialGradient
       id="f"
       cx="454.10999"
       cy="308.64001"
       r="9.7799997"
       gradientUnits="userSpaceOnUse"
       xlink:href="#a"
       gradientTransform="matrix(0.00881945,0,0,0.00881945,-825.15993,-674.59387)" />
    <radialGradient
       id="radialGradient5">
      <stop
         style="stop-color:#f9f0aa"
         offset=".216"
         id="stop3" />
      <stop
         style="stop-color:#b07e09"
         offset="1"
         id="stop5" />
    </radialGradient>
    <radialGradient
       id="e"
       cx="451.56"
       cy="313"
       r="10.911"
       gradientUnits="userSpaceOnUse"
       xlink:href="#a"
       gradientTransform="matrix(0.00881945,0,0,0.00881945,-825.15993,-674.59387)" />
    <radialGradient
       id="radialGradient8">
      <stop
         style="stop-color:#f9f0aa"
         offset=".216"
         id="stop7" />
      <stop
         style="stop-color:#b07e09"
         offset="1"
         id="stop8" />
    </radialGradient>
    <radialGradient
       id="d"
       cx="447.42001"
       cy="308.26999"
       r="16.534"
       gradientUnits="userSpaceOnUse"
       xlink:href="#a"
       gradientTransform="matrix(0.00881945,0,0,0.00881945,-825.15993,-674.59387)" />
    <radialGradient
       id="radialGradient10">
      <stop
         style="stop-color:#f9f0aa"
         offset=".216"
         id="stop9" />
      <stop
         style="stop-color:#b07e09"
         offset="1"
         id="stop10" />
    </radialGradient>
  </defs>
  <g
     inkscape:label="Layer 1"
     inkscape:groupmode="layer"
     id="layer1"
     transform="translate(745.37145,779.92582)">
    <path
       d="m -745.37145,-779.92582 h 7.9375 v 5.29167 h -7.9375 z"
       fill="#009543"
       id="path2"
       style="stroke-width:0.0176389" />
    <path
       d="m -745.37145,-779.92582 h 7.9375 v 3.70417 h -7.9375 z"
       fill="#ffffff"
       id="path4"
       style="stroke-width:0.0176389" />
    <path
       d="m -745.37145,-779.92582 h 7.9375 v 1.5875 h -7.9375 z"
       fill="#00209f"
       id="path6"
       style="stroke-width:0.0176389" />
    <path
       d="m -741.3987,-778.24909 -0.008,1.7e-4 c -0.0183,4e-4 -0.0344,0.0101 -0.0463,0.0191 -0.0119,0.009 -0.0198,0.018 -0.0198,0.018 l -0.002,0.002 c -0.0622,0.0109 -0.11894,0.0378 -0.16416,0.0817 -0.0598,0.0581 -0.098,0.14375 -0.11,0.2528 -0.0123,0.11181 0.0183,0.23648 0.0504,0.33559 0.032,0.0991 0.0671,0.17294 0.0671,0.17294 l 0.006,0.0131 -0.4035,0.54334 -0.0811,-0.028 -0.14611,0.31164 0.007,0.004 c 0,0 0.34703,0.2173 0.85012,0.21136 0.55159,-0.007 0.85283,-0.22163 0.85283,-0.22163 l 0.006,-0.004 -0.15111,-0.30785 -0.0719,0.0313 -0.41877,-0.5539 0.003,10e-4 c 0,0 0.0368,-0.0755 0.0696,-0.17659 0.0329,-0.10109 0.0637,-0.22813 0.0476,-0.34186 -0.0153,-0.10748 -0.0491,-0.1918 -0.10915,-0.24911 -0.0439,-0.0419 -0.10031,-0.0667 -0.16601,-0.0765 v -0.002 l -0.002,-0.003 c 0,0 -0.008,-0.009 -0.0206,-0.0171 -0.0102,-0.007 -0.0238,-0.0133 -0.0385,-0.0153 z m 0.0615,0.12769 c 0.0444,0.008 0.0783,0.0255 0.10534,0.0513 0.0406,0.0387 0.0691,0.10183 0.0827,0.19771 0.0125,0.0878 -0.0132,0.20719 -0.0441,0.3022 -0.019,0.0583 -0.0356,0.0988 -0.0473,0.1254 l -0.0634,-0.0839 -7.2e-4,-0.19896 h 0.10462 l -0.13759,-0.12922 z m -0.13747,10e-4 0.002,0.26742 -0.12444,0.13037 h 0.10297 l -7.2e-4,0.19292 -0.0695,0.0936 c -0.009,-0.0195 -0.027,-0.0589 -0.0504,-0.13105 -0.0302,-0.0934 -0.0563,-0.21116 -0.0466,-0.29883 0.0103,-0.0941 0.0414,-0.15803 0.0838,-0.19916 0.0285,-0.0277 0.0628,-0.046 0.10301,-0.0553 z m 0.71687,1.38408 0.0224,0.0325 -0.063,0.0935 -0.0651,-0.0833 z m -1.30121,0.0305 0.0264,0.0813 -0.0773,0.0163 c 0,0 0.0447,-0.0895 0.0508,-0.0976 z m 0.0813,0.002 0.11384,0.0346 0.0264,0.0569 -0.0996,0.0284 z m 1.04097,0.0366 0.0325,0.0346 -0.0956,0.0752 -0.059,-0.0732 z m 0.22162,0.0123 0.0386,0.0772 -0.0773,0.0264 -0.006,-0.0366 z m -1.05323,0.0122 0.11386,0.0244 0.0325,0.0488 -0.0996,0.0386 z m 0.61812,0.0204 0.0305,0.0447 -0.11386,0.0549 -0.0488,-0.0833 z m -0.40468,0.0122 0.18502,0.008 0.0163,0.0386 -0.14435,0.0529 z m 0.67098,0.0181 0.059,0.0793 -0.12606,0.0325 -0.0244,-0.0427 z m -1.13047,0.002 0.0163,0.0651 -0.0976,-0.0386 z m 0.19318,0.0184 0.0529,0.11183 -0.13215,-0.0325 -0.0142,-0.0488 z m 0.7258,0.0284 0.0691,0.0813 -0.15248,0.0244 -0.0305,-0.0488 z m -0.23375,0.0163 0.0671,0.0996 -0.1789,0.006 -0.0305,-0.0529 z m -0.26836,4e-5 0.0651,0.10166 -0.15453,-0.0224 -0.0163,-0.0427 z"
       id="path8"
       style="stroke-width:0.00881944" />
  </g>
</svg>
