<?xml version="1.0" encoding="UTF-8" standalone="no"?>
<!-- Created with Inkscape (http://www.inkscape.org/) -->

<svg
   width="7.9374995mm"
   height="5.2916665mm"
   viewBox="0 0 7.9374995 5.2916665"
   version="1.1"
   id="svg1"
   inkscape:version="1.4 (86a8ad7, 2024-10-11)"
   sodipodi:docname="sqi.svg"
   xmlns:inkscape="http://www.inkscape.org/namespaces/inkscape"
   xmlns:sodipodi="http://sodipodi.sourceforge.net/DTD/sodipodi-0.dtd"
   xmlns="http://www.w3.org/2000/svg"
   xmlns:svg="http://www.w3.org/2000/svg">
  <sodipodi:namedview
     id="namedview1"
     pagecolor="#ffffff"
     bordercolor="#000000"
     borderopacity="0.25"
     inkscape:showpageshadow="2"
     inkscape:pageopacity="0.0"
     inkscape:pagecheckerboard="0"
     inkscape:deskcolor="#d1d1d1"
     inkscape:document-units="mm"
     inkscape:zoom="8.1336326"
     inkscape:cx="16.782169"
     inkscape:cy="15.183867"
     inkscape:window-width="1920"
     inkscape:window-height="1009"
     inkscape:window-x="-8"
     inkscape:window-y="-8"
     inkscape:window-maximized="1"
     inkscape:current-layer="layer1" />
  <defs
     id="defs1" />
  <g
     inkscape:label="Layer 1"
     inkscape:groupmode="layer"
     id="layer1"
     transform="translate(-5.5562533,-0.79366333)">
    <path
       d="M 13.493753,0.79366333 H 5.5562533 V 6.08533 h 7.9374997 z"
       fill="#ff0000"
       id="path2"
       style="stroke-width:0.00755953" />
    <path
       d="M 9.7254064,4.7921979 C 9.6789152,4.7518906 9.622559,4.6702628 9.6233527,4.5915831 c 0.00416,-0.058669 0.044397,-0.092755 0.070394,-0.021136 0.036755,0.07905 0.1155852,0.209769 0.2242153,0.1330854 C 9.965421,4.6686985 9.96468,4.6174145 9.899608,4.6232955 9.81925,4.6177955 9.7698863,4.5735765 9.7339259,4.4597378 c -0.00654,-0.062608 0.019503,-0.061043 0.055842,-0.020766 0.046718,0.053597 0.1396848,0.1346052 0.2422521,0.091191 0.057,-0.023888 0.07309,-0.073176 -0.01302,-0.085309 -0.081523,0.00119 -0.1480687,-0.051662 -0.214313,-0.1322765 -0.036323,-0.044601 0.017251,-0.089626 0.049417,-0.051662 0.028688,0.024644 0.068867,0.070046 0.1033007,0.076306 0.039816,0.00782 0.089173,0.00393 0.1438573,-0.025022 0.05895,-0.049341 0.03981,-0.084939 -0.03175,-0.093133 -0.05547,0.00275 -0.085687,0.023835 -0.1572378,-0.023888 C 9.7836525,4.1082424 9.6814023,3.9920903 9.6654289,3.8523752 9.6549362,3.7604816 9.7043456,3.732655 9.7454241,3.7432308 c 0.1117297,0.028741 0.1848227,0.2375353 0.2621259,0.352236 0.02531,0.033058 0.04856,0.033595 0.06501,0.023404 0.03101,-0.026587 0.05578,-0.048441 0.08678,-0.078165 0,0 0.227428,0.040867 0.351276,0.081235 l -0.137901,0.049008 c -0.05221,-0.028832 -0.11523,0.00225 -0.11523,0.052274 -0.04941,0.034169 -0.04543,0.074227 -0.02412,0.1128865 0.0065,-0.026919 0.01205,-0.061882 0.05108,-0.066531 0.05571,0.023041 0.120612,-0.00984 0.120612,-0.053348 l 0.162673,-0.063938 0.164344,0.093043 c 0,0.062895 0.05959,0.082822 0.121595,0.065843 0.02922,0.018143 0.048,0.049621 0.0579,0.083283 0.01829,-0.048547 0.01448,-0.082822 -0.01417,-0.1066422 0.01644,-0.062767 -0.07151,-0.1231219 -0.139602,-0.082928 l -0.118231,-0.067884 0.202368,-0.00567 c 0.02349,0.041577 0.108381,0.043868 0.133146,0 0.02117,-0.0058 0.03905,-0.00949 0.08032,0.021189 -0.013,-0.049636 -0.03831,-0.070855 -0.07627,-0.070855 -0.02885,-0.05111 -0.133244,-0.050876 -0.148318,0.00667 l -0.210767,0.00586 0.125057,-0.089036 c 0.04668,0.027562 0.112183,-0.00308 0.125299,-0.053144 0.01861,-0.022127 0.04156,-0.032521 0.08674,-0.017508 -0.02328,-0.041237 -0.05609,-0.053544 -0.115343,-0.025551 -0.05405,-0.040957 -0.125292,0.00872 -0.114482,0.049953 L 10.56093,4.0721154 c -0.120771,-0.036036 -0.339498,-0.092151 -0.339498,-0.092151 0.02604,-0.027396 0.05246,-0.052849 0.07846,-0.080622 0.0094,-0.016268 -0.005,-0.035212 -0.02489,-0.039158 -0.195157,-0.040277 -0.3068942,-0.118949 -0.3745972,-0.318906 -0.028318,-0.083744 0.032906,-0.1087664 0.053945,-0.057543 0.029104,0.071241 0.061217,0.1491041 0.1488472,0.2093988 0.03022,0.021136 0.120188,0.00388 0.06698,-0.046597 -0.05511,-0.045403 -0.07883,-0.064921 -0.105985,-0.1753054 0,-0.055925 0.057,-0.081 0.0888,-0.027396 0.03402,0.1099532 0.03749,0.1572985 0.09908,0.2281463 0.04667,0.053612 0.107519,0.089633 0.137735,0.088824 0.05437,-7.56e-4 0.109099,-0.059493 0.03638,-0.1021367 -0.106779,-0.042651 -0.145801,-0.1009423 -0.161517,-0.1565426 -0.01719,-0.097011 0.0016,-0.1439786 0.06011,-0.096255 0.083,0.094313 0.241451,0.2700035 0.324455,0.3518052 0.09302,0.071241 0.199745,0.073554 0.284692,0.00119 0.04862,-0.055971 0.03137,-0.116205 -0.04476,-0.103316 -0.171798,0.014499 -0.30189,-0.07081 -0.444629,-0.3013377 -0.02795,-0.05204 -0.0356,-0.1267808 0.02604,-0.071181 0.07113,0.096255 0.174852,0.1780571 0.271311,0.2132694 0.09681,0.034789 0.176742,0.015573 0.207744,-0.014877 0.03737,-0.037359 0.02754,-0.1314753 -0.03712,-0.1087816 -0.0532,0.018778 -0.128187,0.023465 -0.206224,-0.00668 -0.0781,-0.030525 -0.159203,-0.096255 -0.245306,-0.2077736 -0.02948,-0.062986 -0.01988,-0.1162125 0.0398,-0.083759 0.141212,0.1197806 0.323358,0.216792 0.416318,0.1585005 0.0685,-0.042658 0.06966,-0.1522337 -0.01719,-0.1451731 -0.174904,0.023835 -0.24108,-0.014877 -0.409083,-0.1631723 -0.03824,-0.028582 -0.03559,-0.1010028 0.02525,-0.054791 0.141212,0.091191 0.334055,0.1267732 0.409832,0.079058 0.06813,-0.042658 0.05816,-0.1729998 -0.05663,-0.1268337 -0.09185,0.055971 -0.193259,0.054406 -0.396436,-0.09076 -0.05125,-0.042651 -0.01302,-0.098251 0.02906,-0.074363 0.163414,0.093133 0.40144,0.1330325 0.463398,-0.056349 0.0241,-0.072375 -0.0195,-0.1146477 -0.08342,-0.064558 -0.140426,0.1299104 -0.299622,0.066116 -0.388734,7.56e-4 -0.02552,-0.015043 -0.07234,-0.091183 0.0099,-0.077054 0.212778,0.048532 0.423227,0.00626 0.461508,-0.1444096 0.0222,-0.04891 -0.02147,-0.1354061 -0.09913,-0.062986 -0.102144,0.1009498 -0.210457,0.1044499 -0.346657,0.103694 -0.06929,-0.014499 -0.07002,-0.090805 -0.01187,-0.1021292 0.107519,0.00231 0.213511,-0.044654 0.298465,-0.092377 0.08305,-0.047723 0.151916,-0.1146477 0.173748,-0.2073955 0.01338,-0.082943 -0.0666,-0.1709965 -0.114799,-0.082943 -0.07119,0.1287236 -0.228849,0.2500539 -0.404132,0.2719539 -0.0091,-0.01527 -0.03211,-0.054414 -0.06043,-0.043414 -0.05147,0.019957 -0.112788,0.046657 -0.175925,0.076646 -0.136102,0.064626 -0.192821,0.095772 -0.176477,0.2074334 0.01706,0.1165149 -0.072768,0.1901447 -0.1469569,0.1698095 -0.06471,-0.017417 -0.1004058,-0.075867 -0.088809,-0.1772482 0.00929,-0.080781 0.090389,-0.1784953 0.1817762,-0.2297339 0.05916,-0.033111 0.1484847,-0.051223 0.2560037,-0.075111 0.06544,-0.012889 0.09877,-0.038342 0.102568,-0.064982 0,0 -0.04473,0.032733 -0.116326,0.027819 -0.03385,-0.00242 -0.05653,-0.017311 -0.06507,-0.032506 0.02489,-0.00506 0.07003,8.092e-4 0.110581,8.092e-4 0.05394,-4.311e-4 0.179176,-0.012511 0.2124,-0.088446 0.01033,-0.050089 -0.02258,-0.059093 -0.0532,-0.02701 -0.03291,0.034675 -0.04646,0.065843 -0.112486,0.077485 -0.04017,0.00707 -0.08036,0.01527 -0.132034,0.00276 0.0291,-0.03457 0.07535,-0.069941 0.114799,-0.063424 0.01297,0.00216 0.03022,0.014136 0.04403,0.035651 0.0084,-0.054791 -0.0065,-0.1166434 -0.15308,-0.090813 0.0023,-0.041464 -0.08495,-0.059478 -0.137357,-0.058669 -0.02984,7.56e-4 -0.090699,0.018392 -0.1346804,0.039476 -0.069653,0.021567 -0.1385207,0.037208 -0.21968,0.043089 0.047096,0.040277 0.055903,0.042651 0.1029307,0.076676 -0.071135,0.026587 -0.126244,0.081378 -0.1511226,0.1173994 0,0 0.083049,-0.00232 0.1040948,0.00706 -0.086904,0.0254 -0.1259342,0.040663 -0.1718507,0.08763 0.016079,0.00275 0.040171,0.00744 0.050513,0.011377 0.010757,0.00389 0.00796,0.010946 -7.408e-4,0.017583 C 9.624935,2.2047329 9.547586,2.2945698 9.5250128,2.3160842 9.5024398,2.2945702 9.4250908,2.2047324 9.4063736,2.1904449 c -0.0087,-0.00664 -0.011498,-0.013698 -7.408e-4,-0.017583 0.010334,-0.00393 0.034434,-0.00863 0.050513,-0.011377 -0.045924,-0.046967 -0.084946,-0.06223 -0.1718507,-0.08763 0.021046,-0.00938 0.1040945,-0.00706 0.1040945,-0.00706 C 9.3634942,2.030772 9.3083927,1.9759807 9.2372576,1.9493938 9.2842931,1.9153684 9.2930998,1.9129947 9.3401883,1.87271 9.2590367,1.8668363 9.1901695,1.8511956 9.1205086,1.8296207 9.0765348,1.8085447 9.0156807,1.7909083 8.9858357,1.7901524 8.9334252,1.7893431 8.8461506,1.8073579 8.848479,1.8488143 8.7019376,1.822991 8.6869622,1.884843 8.6953986,1.9396344 c 0.013811,-0.021514 0.031054,-0.033489 0.044027,-0.035643 0.039446,-0.00652 0.085687,0.028847 0.1147989,0.063417 -0.051677,0.012511 -0.091863,0.00431 -0.1320422,-0.00275 -0.066017,-0.011642 -0.079572,-0.042817 -0.1124857,-0.077485 -0.030624,-0.03209 -0.06353,-0.023087 -0.053196,0.02701 0.033224,0.075928 0.1584477,0.088008 0.2124,0.088439 0.040549,0 0.085687,-0.00588 0.1105807,-8.093e-4 -0.00854,0.01521 -0.031221,0.030087 -0.065072,0.032506 -0.071604,0.00491 -0.116326,-0.027819 -0.116326,-0.027819 0.0038,0.02664 0.037117,0.052085 0.1025677,0.064982 0.1075189,0.023888 0.1968423,0.042008 0.2560031,0.075119 0.091387,0.051231 0.1724857,0.1489454 0.1817691,0.2297264 0.011596,0.1013733 -0.0241,0.159831 -0.088802,0.1772481 -0.07419,0.020333 -0.1640201,-0.053297 -0.146958,-0.169812 C 9.0190062,2.2721018 8.9622882,2.2409566 8.826186,2.1763302 8.763049,2.1463412 8.701726,2.1196342 8.6502607,2.0996762 c -0.028318,-0.010991 -0.051307,0.028159 -0.060431,0.043422 -0.1752826,-0.0219 -0.332944,-0.1432303 -0.404132,-0.2719539 -0.0482,-0.088053 -0.128187,0 -0.114799,0.082943 0.021832,0.092755 0.090699,0.1596723 0.1737481,0.2073955 0.084954,0.047723 0.190946,0.094691 0.2984651,0.092377 0.058155,0.011324 0.057422,0.08763 -0.011868,0.1021292 -0.1362076,7.56e-4 -0.2445128,-0.00274 -0.3466571,-0.103694 -0.077667,-0.07242 -0.1213303,0.014076 -0.099128,0.062986 0.038281,0.1506613 0.248731,0.1929418 0.4615013,0.1444097 0.082248,-0.014136 0.035431,0.062018 0.0099,0.077062 -0.089104,0.065352 -0.2483001,0.1291469 -0.3887258,-7.56e-4 -0.063908,-0.050097 -0.1075267,-0.00782 -0.083419,0.064551 0.061958,0.1893812 0.2999846,0.149482 0.4633988,0.056349 0.042084,-0.023888 0.080312,0.031712 0.029059,0.074363 -0.2031773,0.1451656 -0.3045732,0.1467304 -0.3964365,0.09076 -0.1147914,-0.046166 -0.1247624,0.084175 -0.056628,0.1268337 0.075769,0.047723 0.2686125,0.012133 0.4098244,-0.079058 0.060854,-0.046211 0.063485,0.026209 0.025249,0.054791 C 8.3911867,3.0728821 8.3250107,3.1115944 8.150106,3.0877592 8.063247,3.0806992 8.064411,3.1902663 8.132916,3.2329323 8.225875,3.2912163 8.4080071,3.1942123 8.549219,3.0744394 8.608917,3.0419784 8.61851,3.0952054 8.589035,3.1581914 8.502932,3.2697096 8.4218183,3.3354396 8.3437285,3.365965 8.2656915,3.396105 8.1907086,3.391418 8.1375046,3.372645 8.0728486,3.349944 8.0630206,3.44406 8.1003796,3.481419 8.1313966,3.511869 8.2113231,3.531085 8.308138,3.496296 8.404582,3.461084 8.5083066,3.3792745 8.5794417,3.2830266 c 0.06164,-0.0556 0.05399,0.019141 0.026042,0.071181 -0.1427388,0.2305277 -0.2728231,0.3158369 -0.4446285,0.3013377 -0.07614,-0.012889 -0.093383,0.047345 -0.044767,0.1033161 0.084954,0.072367 0.1916792,0.070054 0.2846916,-0.00119 0.083004,-0.081802 0.2414512,-0.2574926 0.3244548,-0.3518052 0.058533,-0.047723 0.077311,-7.56e-4 0.060121,0.096255 -0.015724,0.0556 -0.054731,0.1138918 -0.1615168,0.1565426 -0.072723,0.042658 -0.017992,0.1013732 0.036384,0.1021292 0.030215,8.166e-4 0.09107,-0.035205 0.1377346,-0.088809 0.061587,-0.070855 0.065072,-0.1182007 0.099083,-0.228154 0.031795,-0.053605 0.088794,-0.02853 0.088794,0.027388 -0.027154,0.1103917 -0.050883,0.1299104 -0.1059847,0.1753053 -0.053219,0.050483 0.036754,0.067733 0.06697,0.046604 0.087637,-0.060295 0.1197427,-0.1381579 0.1488468,-0.2093989 0.021046,-0.051223 0.082271,-0.026201 0.053952,0.057543 -0.067703,0.1999495 -0.1794405,0.278629 -0.3745972,0.3189137 -0.019934,0.00393 -0.034282,0.022883 -0.024901,0.039151 0.026005,0.027774 0.052425,0.053219 0.078468,0.080622 0,0 -0.2187348,0.056114 -0.3395058,0.092151 L 8.3226988,3.9589115 c 0.01081,-0.041237 -0.060423,-0.090911 -0.1144814,-0.049968 -0.059259,-0.027978 -0.09206,-0.015671 -0.1153432,0.025566 0.045176,-0.015013 0.068126,-0.00462 0.086738,0.0175 0.013116,0.050074 0.078619,0.080713 0.1252991,0.053143 l 0.1250572,0.089051 -0.2107595,-0.00587 c -0.015081,-0.057536 -0.1194783,-0.057778 -0.1483331,-0.00667 -0.037949,0 -0.063273,0.021219 -0.076276,0.070855 0.041275,-0.030677 0.059168,-0.026988 0.080328,-0.021189 0.024765,0.043868 0.1096584,0.041577 0.1331383,0 l 0.2023761,0.00567 -0.118231,0.067884 c -0.068089,-0.040194 -0.1560437,0.020161 -0.1396018,0.082928 -0.028651,0.023812 -0.032476,0.058095 -0.014174,0.1066422 0.00989,-0.033662 0.028681,-0.06514 0.057906,-0.083291 0.061988,0.016986 0.1215874,-0.00293 0.1215874,-0.065843 l 0.164344,-0.093035 0.162681,0.063938 c 0,0.043505 0.064898,0.076389 0.1206046,0.053348 0.03903,0.00465 0.044579,0.039612 0.05108,0.066524 0.021318,-0.038652 0.025294,-0.07871 -0.024115,-0.1128787 0,-0.050021 -0.063016,-0.081114 -0.1152299,-0.052274 L 8.5393926,4.12194 C 8.6632402,4.081572 8.890676,4.040713 8.890676,4.040713 8.921678,4.070422 8.946443,4.092284 8.977459,4.118878 8.993909,4.129061 9.017162,4.128528 9.042471,4.095466 9.119775,3.9807653 9.1928602,3.7719712 9.3045976,3.74323 9.3456766,3.732647 9.3950856,3.760481 9.3845926,3.8523744 9.3686116,3.9920895 9.2663616,4.1082491 9.137759,4.1951761 9.0662,4.2428991 9.035985,4.2218161 8.9805132,4.2190641 c -0.071558,0.00819 -0.090699,0.043792 -0.03175,0.093133 0.054685,0.028953 0.1040415,0.032839 0.1438575,0.025022 0.034434,-0.00626 0.074613,-0.051662 0.103301,-0.076306 0.032166,-0.037964 0.08574,0.00706 0.049409,0.051662 -0.066237,0.080615 -0.132783,0.1334633 -0.2143125,0.1322765 -0.086103,0.012133 -0.070017,0.061421 -0.013018,0.085309 0.1025677,0.043415 0.1955271,-0.037586 0.2422525,-0.091191 0.036331,-0.040277 0.062381,-0.041842 0.055842,0.020766 -0.035968,0.1138389 -0.085325,0.1580543 -0.1656821,0.1635577 -0.065072,-0.00588 -0.065813,0.045402 -0.018355,0.080237 0.1086305,0.076684 0.1874612,-0.054035 0.2242154,-0.1330854 0.025997,-0.071611 0.066222,-0.037533 0.070394,0.021136 7.938e-4,0.07868 -0.055562,0.1603075 -0.1020533,0.2006148 -0.046476,0.040323 0.2003876,0.2966054 0.2003876,0.2966054 0,0 0.2468715,-0.256298 0.2003955,-0.2966131 z M 10.056234,1.8897943 c -0.03843,0 -0.062162,0.013456 -0.062162,0.029785 0,0.016586 0.023737,0.030102 0.062162,0.030102 0.0382,0 0.06246,-0.014741 0.06246,-0.031349 0,-0.016328 -0.02427,-0.028545 -0.06246,-0.028545 z m -1.0624157,0 c 0.038425,0 0.062162,0.013456 0.062162,0.029785 0,0.016586 -0.023737,0.030102 -0.062162,0.030102 -0.038198,0 -0.062457,-0.014741 -0.062457,-0.031349 0,-0.016328 0.024266,-0.028545 0.062457,-0.028545 z"
       fill-rule="evenodd"
       id="path4"
       style="stroke-width:0.00755953" />
  </g>
</svg>
