<?xml version="1.0" encoding="UTF-8" standalone="no"?>
<!-- Created with Inkscape (http://www.inkscape.org/) -->

<svg
   width="7.9375mm"
   height="5.2916698mm"
   viewBox="0 0 7.9375 5.29167"
   version="1.1"
   id="svg1"
   inkscape:version="1.4 (86a8ad7, 2024-10-11)"
   sodipodi:docname="ssw.svg"
   xmlns:inkscape="http://www.inkscape.org/namespaces/inkscape"
   xmlns:sodipodi="http://sodipodi.sourceforge.net/DTD/sodipodi-0.dtd"
   xmlns="http://www.w3.org/2000/svg"
   xmlns:svg="http://www.w3.org/2000/svg">
  <sodipodi:namedview
     id="namedview1"
     pagecolor="#ffffff"
     bordercolor="#000000"
     borderopacity="0.25"
     inkscape:showpageshadow="2"
     inkscape:pageopacity="0.0"
     inkscape:pagecheckerboard="0"
     inkscape:deskcolor="#d1d1d1"
     inkscape:document-units="mm"
     inkscape:zoom="0.71891835"
     inkscape:cx="429.11688"
     inkscape:cy="112.66926"
     inkscape:window-width="1904"
     inkscape:window-height="992"
     inkscape:window-x="-9"
     inkscape:window-y="252"
     inkscape:window-maximized="0"
     inkscape:current-layer="layer1" />
  <defs
     id="defs1" />
  <g
     inkscape:label="Layer 1"
     inkscape:groupmode="layer"
     id="layer1"
     transform="translate(659.53674,503.29112)">
    <path
       fill="#3e5eb9"
       d="m -659.53674,-503.29112 h 7.9375 v 5.29167 h -7.9375 z"
       id="path1801"
       style="stroke-width:0.00881944" />
    <path
       fill="#ffd900"
       d="m -659.53674,-502.29893 h 7.9375 v 3.30729 h -7.9375 z"
       id="path1804"
       style="stroke-width:0.00881944" />
    <path
       fill="#b10c0c"
       d="m -659.53674,-501.9682 h 7.9375 v 2.64583 h -7.9375 z"
       id="path1807"
       style="stroke-width:0.00881944" />
    <path
       style="color:#000000;fill:#ffffff;stroke-width:0.013335;-inkscape-stroke:none"
       d="m -653.01675,-501.25012 -0.32127,0.11338 0.32127,0.11339 0.32127,-0.11339 z"
       id="path1702" />
    <path
       style="color:#000000;fill:#000000;stroke-width:0.00881944;-inkscape-stroke:none"
       d="m -653.01674,-501.25719 -0.002,7.8e-4 -0.33909,0.11968 0.34131,0.12046 0.3413,-0.12046 z m 0,0.0141 0.30124,0.10631 -0.30124,0.10632 -0.30124,-0.10632 z"
       id="path1705" />
    <path
       style="color:#000000;fill:#ffd900;stroke-width:0.013335;-inkscape-stroke:none"
       d="m -657.87045,-501.17445 h 4.64236 c 0.0228,0 0.0411,0.0168 0.0411,0.0378 0,0.0209 -0.0183,0.0378 -0.0411,0.0378 h -4.64236 c -0.0228,0 -0.0411,-0.0169 -0.0411,-0.0378 0,-0.0209 0.0183,-0.0378 0.0411,-0.0378 z"
       id="path1684" />
    <path
       style="color:#000000;fill:#000000;stroke-width:0.00881944;-inkscape-stroke:none"
       d="m -657.87045,-501.18112 c -0.0261,0 -0.0477,0.0196 -0.0477,0.0445 0,0.0248 0.0217,0.0445 0.0477,0.0445 h 4.64235 c 0.0261,0 0.0478,-0.0196 0.0478,-0.0445 0,-0.0248 -0.0217,-0.0445 -0.0478,-0.0445 z m 0,0.0133 h 4.64235 c 0.0195,0 0.0344,0.0141 0.0344,0.0311 0,0.017 -0.015,0.0311 -0.0344,0.0311 h -4.64235 c -0.0195,0 -0.0344,-0.0141 -0.0344,-0.0311 0,-0.017 0.0149,-0.0311 0.0344,-0.0311 z"
       id="path1687" />
    <path
       style="color:#000000;fill:#ffd900;stroke-width:0.013335;-inkscape-stroke:none"
       d="m -653.29998,-501.09891 c 0.0189,0 0.0378,-0.0189 0.0378,-0.0378 0,-0.0189 -0.0189,-0.0378 -0.0378,-0.0378 m -0.0378,0.0756 c 0.0189,0 0.0378,-0.0189 0.0378,-0.0378 0,-0.0189 -0.0189,-0.0378 -0.0378,-0.0378 m -0.0378,0.0756 c 0.0189,0 0.0378,-0.0189 0.0378,-0.0378 0,-0.0189 -0.0189,-0.0378 -0.0378,-0.0378"
       id="path1738" />
    <path
       style="color:#000000;fill:#000000;stroke-width:0.00881944;-inkscape-stroke:none"
       d="m -653.37563,-501.18117 v 0.0133 c 0.007,0 0.0152,0.004 0.0213,0.01 0.006,0.006 0.01,0.014 0.01,0.0213 0,0.007 -0.004,0.0152 -0.01,0.0213 -0.006,0.006 -0.0141,0.01 -0.0213,0.01 v 0.0133 c 0.0117,0 0.0225,-0.006 0.0307,-0.0138 0.008,-0.008 0.0138,-0.019 0.0138,-0.0307 0,-0.0117 -0.006,-0.0226 -0.0138,-0.0307 -0.008,-0.008 -0.019,-0.0138 -0.0307,-0.0138 z m 0.0378,0 v 0.0133 c 0.007,0 0.0152,0.004 0.0213,0.01 0.006,0.006 0.01,0.014 0.01,0.0213 0,0.007 -0.004,0.0152 -0.01,0.0213 -0.006,0.006 -0.0141,0.01 -0.0213,0.01 v 0.0133 c 0.0117,0 0.0226,-0.006 0.0307,-0.0138 0.008,-0.008 0.0138,-0.019 0.0138,-0.0307 0,-0.0117 -0.006,-0.0226 -0.0138,-0.0307 -0.008,-0.008 -0.019,-0.0138 -0.0307,-0.0138 z m 0.0378,0 v 0.0133 c 0.007,0 0.0152,0.004 0.0213,0.01 0.006,0.006 0.01,0.014 0.01,0.0213 0,0.007 -0.004,0.0152 -0.01,0.0213 -0.006,0.006 -0.0141,0.01 -0.0213,0.01 v 0.0133 c 0.0117,0 0.0226,-0.006 0.0307,-0.0138 0.008,-0.008 0.0138,-0.019 0.0138,-0.0307 0,-0.0117 -0.006,-0.0226 -0.0138,-0.0307 -0.008,-0.008 -0.019,-0.0138 -0.0307,-0.0138 z"
       id="path1741" />
    <path
       style="color:#000000;fill:#ffffff;stroke-width:0.013335;-inkscape-stroke:none"
       d="m -653.32459,-501.02324 -0.32127,0.11338 0.32127,0.11339 0.32127,-0.11339 z"
       id="path1690" />
    <path
       style="color:#000000;fill:#000000;stroke-width:0.00881944;-inkscape-stroke:none"
       d="m -653.3246,-501.03031 -0.002,7.8e-4 -0.33908,0.11968 0.34128,0.12046 0.34131,-0.12046 z m 0,0.0141 0.30124,0.10634 -0.30124,0.10631 -0.30123,-0.10631 z"
       id="path1693" />
    <path
       style="color:#000000;fill:#ffd900;stroke-width:0.013335;-inkscape-stroke:none"
       d="m -658.17829,-500.94757 h 4.64235 c 0.0228,0 0.0411,0.0168 0.0411,0.0378 0,0.0209 -0.0183,0.0378 -0.0411,0.0378 h -4.64235 c -0.0228,0 -0.0411,-0.0169 -0.0411,-0.0378 0,-0.0209 0.0183,-0.0378 0.0411,-0.0378 z"
       id="path1732" />
    <path
       style="color:#000000;fill:#000000;stroke-width:0.00881944;-inkscape-stroke:none"
       d="m -658.17829,-500.95424 c -0.0261,0 -0.0478,0.0196 -0.0478,0.0445 0,0.0248 0.0217,0.0445 0.0478,0.0445 h 4.64236 c 0.0261,0 0.0477,-0.0196 0.0477,-0.0445 0,-0.0248 -0.0217,-0.0445 -0.0477,-0.0445 z m 0,0.0133 h 4.64236 c 0.0195,0 0.0344,0.0141 0.0344,0.0311 0,0.017 -0.0149,0.0311 -0.0344,0.0311 h -4.64236 c -0.0195,0 -0.0344,-0.0141 -0.0344,-0.0311 0,-0.017 0.0149,-0.0311 0.0344,-0.0311 z"
       id="path1735" />
    <path
       style="color:#000000;fill:#ffd900;stroke-width:0.013335;-inkscape-stroke:none"
       d="m -653.60782,-500.87203 c 0.0189,0 0.0378,-0.0189 0.0378,-0.0378 0,-0.0189 -0.0189,-0.0378 -0.0378,-0.0378 m -0.0379,0.0756 c 0.0189,0 0.0378,-0.0189 0.0378,-0.0378 0,-0.0189 -0.0189,-0.0378 -0.0378,-0.0378 m -0.0378,0.0756 c 0.0189,0 0.0378,-0.0189 0.0378,-0.0378 0,-0.0189 -0.0189,-0.0378 -0.0378,-0.0378"
       id="path1744" />
    <path
       style="color:#000000;fill:#000000;stroke-width:0.00881944;-inkscape-stroke:none"
       d="m -653.68349,-500.95429 v 0.0133 c 0.007,0 0.0152,0.004 0.0213,0.01 0.006,0.006 0.01,0.014 0.01,0.0213 0,0.007 -0.004,0.0152 -0.01,0.0213 -0.006,0.006 -0.0141,0.01 -0.0213,0.01 v 0.0134 c 0.0117,0 0.0226,-0.006 0.0307,-0.0138 0.008,-0.008 0.0138,-0.019 0.0138,-0.0307 0,-0.0117 -0.006,-0.0226 -0.0138,-0.0307 -0.008,-0.008 -0.019,-0.0138 -0.0307,-0.0138 z m 0.0379,0 v 0.0133 c 0.007,0 0.0152,0.004 0.0213,0.01 0.006,0.006 0.01,0.014 0.01,0.0213 0,0.007 -0.004,0.0152 -0.01,0.0213 -0.006,0.006 -0.0141,0.01 -0.0213,0.01 v 0.0134 c 0.0117,0 0.0226,-0.006 0.0307,-0.0138 0.008,-0.008 0.0138,-0.019 0.0138,-0.0307 0,-0.0117 -0.006,-0.0226 -0.0138,-0.0307 -0.008,-0.008 -0.019,-0.0138 -0.0307,-0.0138 z m 0.0378,0 v 0.0133 c 0.007,0 0.0152,0.004 0.0213,0.01 0.006,0.006 0.01,0.014 0.01,0.0213 0,0.007 -0.004,0.0152 -0.01,0.0213 -0.006,0.006 -0.0141,0.01 -0.0213,0.01 v 0.0134 c 0.0117,0 0.0226,-0.006 0.0307,-0.0138 0.008,-0.008 0.0138,-0.019 0.0138,-0.0307 0,-0.0117 -0.006,-0.0226 -0.0138,-0.0307 -0.008,-0.008 -0.019,-0.0138 -0.0307,-0.0138 z"
       id="path1747" />
    <path
       style="color:#000000;fill:#ffd900;stroke-width:0.0142875;-inkscape-stroke:none"
       d="m -658.6896,-500.70191 h 6.31365 c 0.031,0 0.0559,0.0253 0.0559,0.0567 0,0.0314 -0.0249,0.0567 -0.0559,0.0567 h -6.31365 c -0.0309,0 -0.0559,-0.0253 -0.0559,-0.0567 0,-0.0314 0.0249,-0.0567 0.0559,-0.0567 z"
       id="path1756" />
    <path
       style="color:#000000;fill:#000000;stroke-width:0.00881944;-inkscape-stroke:none"
       d="m -658.68959,-500.70906 c -0.0349,0 -0.063,0.0287 -0.063,0.0638 0,0.0352 0.0282,0.0638 0.063,0.0638 h 6.31364 c 0.0348,0 0.063,-0.0286 0.063,-0.0638 0,-0.0352 -0.0282,-0.0638 -0.063,-0.0638 z m 0,0.0143 h 6.31364 c 0.0271,0 0.0487,0.0219 0.0487,0.0495 0,0.0276 -0.0217,0.0496 -0.0487,0.0496 h -6.31364 c -0.0271,0 -0.0488,-0.0219 -0.0488,-0.0496 0,-0.0276 0.0217,-0.0495 0.0488,-0.0495 z"
       id="path1759" />
    <path
       style="color:#000000;fill:#ffffff;stroke-width:0.013335;-inkscape-stroke:none"
       d="m -653.6782,-500.64529 c -0.37797,0.37794 -0.88197,1.13388 -1.88992,1.13388 -0.88196,0 -1.51183,-0.75593 -1.88992,-1.13388 0.37797,-0.37801 1.0079,-1.13395 1.88992,-1.13395 1.0079,0 1.51183,0.75594 1.88992,1.13395 z"
       id="path1762" />
    <path
       style="color:#000000;fill:#000000;stroke-width:0.00881944;-inkscape-stroke:none"
       d="m -655.56813,-501.78591 c -0.88582,0 -1.51718,0.75842 -1.89463,1.1359 l -0.005,0.005 0.005,0.005 c 0.37757,0.37743 1.00886,1.13583 1.89463,1.13583 1.01129,0 1.51771,-0.75894 1.89463,-1.13583 l 0.005,-0.005 -0.005,-0.005 c -0.37704,-0.37696 -0.88339,-1.1359 -1.89463,-1.1359 z m 0,0.0133 c 1.00081,0 1.50211,0.74687 1.88075,1.12728 -0.37851,0.38035 -0.87989,1.12722 -1.88075,1.12722 -0.87485,0 -1.50153,-0.74738 -1.88059,-1.12722 0.37895,-0.37989 1.00568,-1.12728 1.88059,-1.12728 z"
       id="path1765" />
    <path
       d="m -655.70002,-501.3848 c 0.10056,0.11309 0.0166,0.1587 0.12303,0.16612 0.11225,0.008 0.0486,0.11951 0.14304,0.12338 0.066,0.003 -0.007,0.26658 0.057,0.3536 0.0647,0.0907 0.11894,0.0266 0.12008,0.0921 0.001,0.0678 -0.17618,0.0609 -0.17928,0.26974 -0.005,0.12033 -0.14962,0.12803 -0.15652,0.20547 -0.009,0.0728 0.28452,0.1137 0.28061,0.17889 -0.004,0.065 -0.31647,0.0548 -0.33007,0.12895 -0.007,0.0666 0.42923,0.12115 0.46432,0.31371 -0.0651,0.0213 -0.25029,0.0413 -0.39025,0.0414 -0.88182,6.4e-4 -1.51183,-0.756 -1.88979,-1.13395 0.37798,-0.378 1.0079,-1.13395 1.88992,-1.13395 0,0 -0.26179,0.23921 -0.1319,0.39443 z"
       id="path1810"
       style="stroke-width:0.00881944" />
    <path
       style="color:#000000;fill:#000000;stroke-width:0.0916386;-inkscape-stroke:none"
       d="m -656.70658,-500.74613 v -0.30238 m 0.18322,0 v 0.30238 m 0.18336,-0.30238 v 0.30238"
       id="path1708" />
    <path
       style="color:#000000;fill:#ffffff;stroke-width:0.00881944;-inkscape-stroke:none"
       d="m -656.7524,-501.04852 v 0.3024 h 0.0916 v -0.3024 z m 0.18321,0 v 0.3024 h 0.0916 v -0.3024 z m 0.18337,0 v 0.3024 h 0.0916 v -0.3024 z"
       id="path1711" />
    <path
       style="color:#000000;fill:#000000;stroke-width:0.0916386;-inkscape-stroke:none"
       d="m -656.70658,-500.2421 v -0.30238 m 0.18322,0 v 0.30238 m 0.18336,-0.30238 v 0.30238"
       id="path1714" />
    <path
       style="color:#000000;fill:#ffffff;stroke-width:0.00881944;-inkscape-stroke:none"
       d="m -656.7524,-500.54448 v 0.30237 h 0.0916 v -0.30237 z m 0.18321,0 v 0.30237 h 0.0916 v -0.30237 z m 0.18337,0 v 0.30237 h 0.0916 v -0.30237 z"
       id="path1717" />
    <path
       style="color:#000000;fill:#000000;stroke-width:0.0916386;-inkscape-stroke:none"
       d="m -656.15678,-500.74613 v -0.30238 m 0.18322,0 v 0.30238 m 0.18336,-0.30238 v 0.30238"
       id="path1750" />
    <path
       style="color:#000000;fill:#ffffff;stroke-width:0.00881944;-inkscape-stroke:none"
       d="m -656.20259,-501.04852 v 0.3024 h 0.0916 v -0.3024 z m 0.18321,0 v 0.3024 h 0.0916 v -0.3024 z m 0.18336,0 v 0.3024 h 0.0916 v -0.3024 z"
       id="path1753" />
    <path
       style="color:#000000;fill:#000000;stroke-width:0.0916386;-inkscape-stroke:none"
       d="m -656.15678,-500.2421 v -0.30238 m 0.18322,0 v 0.30238 m 0.18336,-0.30238 v 0.30238"
       id="path1696" />
    <path
       style="color:#000000;fill:#ffffff;stroke-width:0.00881944;-inkscape-stroke:none"
       d="m -656.20259,-500.54448 v 0.30237 h 0.0916 v -0.30237 z m 0.18321,0 v 0.30237 h 0.0916 v -0.30237 z m 0.18336,0 v 0.30237 h 0.0916 v -0.30237 z"
       id="path1699" />
    <path
       style="color:#000000;fill:#000000;stroke:none;stroke-width:0.0916386;-inkscape-stroke:none"
       d="m -655.3207,-500.74613 v -0.30238 m 0.18323,0 v 0.30238 m 0.18335,-0.30238 v 0.30238"
       id="path1774" />
    <path
       style="color:#000000;fill:#000000;stroke:none;stroke-width:0.0916386;-inkscape-stroke:none"
       d="m -655.36653,-501.04852 v 0.30239 h 0.0916 v -0.30239 z m 0.18325,0 v 0.30239 h 0.0916 v -0.30239 z m 0.18335,0 v 0.30239 h 0.0916 v -0.30239 z"
       id="path1777" />
    <path
       style="color:#000000;fill:#000000;stroke:none;stroke-width:0.0916386;-inkscape-stroke:none"
       d="m -655.3207,-500.2421 v -0.30238 m 0.18323,0 v 0.30238 m 0.18335,-0.30238 v 0.30238"
       id="path1786" />
    <path
       style="color:#000000;fill:#000000;stroke:none;stroke-width:0.0916386;-inkscape-stroke:none"
       d="m -655.36653,-500.54449 v 0.30238 h 0.0916 v -0.30238 z m 0.18325,0 v 0.30238 h 0.0916 v -0.30238 z m 0.18335,0 v 0.30238 h 0.0916 v -0.30238 z"
       id="path1789" />
    <path
       style="color:#000000;fill:#000000;stroke:none;stroke-width:0.0916386;-inkscape-stroke:none"
       d="m -654.77089,-500.74613 v -0.30238 m 0.18322,0 v 0.30238 m 0.18336,-0.30238 v 0.30238"
       id="path1780" />
    <path
       style="color:#000000;fill:#000000;stroke:none;stroke-width:0.0916386;-inkscape-stroke:none"
       d="m -654.81672,-501.04852 v 0.30239 h 0.0917 v -0.30239 z m 0.18324,0 v 0.30239 h 0.0916 v -0.30239 z m 0.18335,0 v 0.30239 h 0.0916 v -0.30239 z"
       id="path1783" />
    <path
       style="color:#000000;fill:#000000;stroke:none;stroke-width:0.0916386;-inkscape-stroke:none"
       d="m -654.77089,-500.2421 v -0.30238 m 0.18322,0 v 0.30238 m 0.18336,-0.30238 v 0.30238"
       id="path1768" />
    <path
       style="color:#000000;fill:#000000;stroke:none;stroke-width:0.0916386;-inkscape-stroke:none"
       d="m -654.81672,-500.54449 v 0.30238 h 0.0917 v -0.30238 z m 0.18324,0 v 0.30238 h 0.0916 v -0.30238 z m 0.18335,0 v 0.30238 h 0.0916 v -0.30238 z"
       id="path1771" />
    <path
       style="color:#000000;fill:#333333;stroke-width:0.0113109;-inkscape-stroke:none"
       d="m -652.77201,-500.69027 c -0.0572,0.0992 0.0439,-0.033 0.29085,0.13304 0.0458,0.0308 0.0857,0.1123 0.0857,0.16879 -0.0116,-0.008 -0.0202,-0.0251 -0.033,-0.0363 -0.0179,0.0179 0.0171,0.10024 0.0222,0.13913 -0.0386,-0.0216 -0.0349,-0.0318 -0.0477,-0.0584 0.003,0.0321 -0.007,0.12047 0.009,0.15452 -0.0304,-0.009 -0.0284,-0.0332 -0.0443,-0.0381 0.0108,0.0385 -0.009,0.0804 -0.004,0.12376 -0.0178,-0.0176 -0.0367,-0.0314 -0.045,-0.0385 -10e-4,0.0206 -0.0342,0.0748 -0.0349,0.0943 -0.0151,-0.009 -0.0192,-0.0233 -0.0217,-0.0329 -0.0188,0.0236 -0.0854,0.11057 -0.0897,0.13711 -0.0513,-0.0453 -0.18287,-0.15578 -0.19999,-0.2144 -0.0151,0.0333 -0.037,0.0445 -0.0803,0.0688 -0.0171,-0.0929 -0.0811,-0.19731 -0.0469,-0.27694 -0.0242,0.0144 -0.0442,0.0288 -0.0684,0.0464 0.023,-0.13454 0.14006,-0.2923 0.3085,-0.37044 z"
       id="path1726" />
    <path
       style="color:#000000;fill:#000000;stroke-width:0.00881944;-inkscape-stroke:none"
       d="m -652.77528,-500.69593 -8.6e-4,10e-4 c -0.16917,0.0792 -0.28661,0.23719 -0.3099,0.37365 l -0.002,0.0137 0.0113,-0.008 c 0.0198,-0.0145 0.037,-0.026 0.0556,-0.0378 -0.0106,0.0379 -0.004,0.0795 0.008,0.12182 0.014,0.0481 0.0341,0.0973 0.0425,0.14288 l 10e-4,0.008 0.007,-0.004 c 0.0216,-0.0121 0.0381,-0.0211 0.0515,-0.0315 0.0105,-0.008 0.0185,-0.0183 0.0255,-0.0303 0.0133,0.0305 0.0464,0.0676 0.0838,0.10428 0.0416,0.0408 0.0875,0.0798 0.11305,0.10242 l 0.008,0.007 0.002,-0.0102 c 7.8e-4,-0.005 0.005,-0.0153 0.0125,-0.0273 0.007,-0.012 0.0163,-0.026 0.026,-0.04 0.0171,-0.0245 0.0334,-0.0456 0.044,-0.059 0.003,0.009 0.008,0.0188 0.0204,0.0261 l 0.008,0.005 3.6e-4,-0.01 c 1.4e-4,-0.003 0.002,-0.0103 0.005,-0.0182 0.003,-0.008 0.007,-0.0171 0.0115,-0.0264 0.004,-0.009 0.009,-0.0186 0.0119,-0.0271 0.002,-0.005 0.002,-0.009 0.004,-0.0128 0.01,0.008 0.0232,0.0179 0.038,0.0326 l 0.0116,0.0115 -0.002,-0.0162 c -0.003,-0.0206 10e-4,-0.0414 0.004,-0.0622 0.002,-0.0158 0.003,-0.0316 10e-4,-0.0473 0.002,0.002 0.003,0.004 0.005,0.007 0.006,0.008 0.0141,0.018 0.0307,0.0227 l 0.0117,0.003 -0.005,-0.0111 c -0.007,-0.015 -0.009,-0.0455 -0.009,-0.0757 3e-5,-0.02 1.4e-4,-0.0349 2.8e-4,-0.051 10e-4,0.003 0.002,0.006 0.004,0.009 0.006,0.01 0.0158,0.0182 0.0355,0.0292 l 0.01,0.006 -10e-4,-0.0112 c -0.003,-0.0206 -0.0128,-0.0507 -0.0199,-0.0781 -0.004,-0.0137 -0.006,-0.0267 -0.007,-0.0369 -4.7e-4,-0.006 10e-4,-0.008 0.002,-0.0116 0.008,0.01 0.0162,0.0218 0.0271,0.0292 l 0.009,0.006 v -0.0106 c 0,-0.0296 -0.0103,-0.0646 -0.0263,-0.0965 -0.016,-0.0319 -0.0378,-0.0606 -0.0619,-0.0769 v -10e-6 c -0.12433,-0.0836 -0.213,-0.0924 -0.26264,-0.0925 -0.0124,-3e-5 -0.0224,4.7e-4 -0.0296,4.5e-4 -0.007,-2e-5 -0.0115,-10e-4 -0.0117,-10e-4 -1.4e-4,-1.1e-4 4e-5,4.3e-4 0,-2.9e-4 -3e-5,-7e-4 2.2e-4,-0.003 10e-4,-0.005 0.002,-0.005 0.007,-0.0141 0.0136,-0.0264 l -0.003,0.002 -0.002,-0.01 z m -0.0101,0.0193 c -0.002,0.004 -0.005,0.009 -0.006,0.0118 -10e-4,0.003 -0.002,0.007 -0.002,0.01 1.8e-4,0.003 0.002,0.007 0.004,0.009 0.005,0.004 0.0109,0.004 0.0187,0.004 0.008,2e-5 0.0175,-4.8e-4 0.0296,-4.5e-4 0.0484,1.1e-4 0.13375,0.008 0.25633,0.0906 0.0216,0.0146 0.0427,0.042 0.0581,0.0726 0.0124,0.0247 0.0195,0.0506 0.0224,0.0741 -0.006,-0.008 -0.0119,-0.0152 -0.021,-0.0232 l -0.004,-0.003 -0.004,0.004 c -0.007,0.007 -0.007,0.0168 -0.006,0.0283 9e-4,0.0115 0.004,0.0249 0.007,0.0388 0.006,0.0231 0.0123,0.045 0.0162,0.0633 -0.01,-0.006 -0.0162,-0.0122 -0.0197,-0.0177 -0.005,-0.008 -0.007,-0.0167 -0.0139,-0.0304 l -0.0107,0.003 c 10e-4,0.0151 -3.9e-4,0.0455 -4.4e-4,0.0761 -4e-5,0.0252 0.002,0.049 0.007,0.0678 -0.007,-0.004 -0.0115,-0.008 -0.0149,-0.0134 -0.002,-0.004 -0.005,-0.008 -0.008,-0.0112 -0.003,-0.004 -0.007,-0.007 -0.0121,-0.009 l -0.01,-0.003 0.003,0.01 c 0.005,0.0179 0.003,0.0371 -1.4e-4,0.0577 -0.002,0.0166 -0.005,0.0342 -0.004,0.0522 -0.0142,-0.0127 -0.0295,-0.0252 -0.0356,-0.0305 l -0.009,-0.007 -7.6e-4,0.0113 c -2.5e-4,0.004 -0.002,0.0109 -0.006,0.019 -0.003,0.008 -0.007,0.0173 -0.0117,0.0266 -0.004,0.009 -0.008,0.0186 -0.0118,0.027 -0.002,0.004 -0.002,0.008 -0.003,0.0113 -0.008,-0.007 -0.0115,-0.0161 -0.0135,-0.0235 l -0.003,-0.0109 -0.007,0.009 c -0.009,0.0119 -0.0308,0.0396 -0.0505,0.0677 -0.01,0.0141 -0.0192,0.0283 -0.0265,0.0407 -0.005,0.009 -0.008,0.0159 -0.0101,0.0229 -0.0263,-0.0231 -0.0678,-0.0585 -0.10701,-0.097 -0.0412,-0.0404 -0.078,-0.0832 -0.0857,-0.10971 l -0.004,-0.0146 -0.006,0.0139 c -0.007,0.0159 -0.0157,0.0261 -0.0279,0.0357 -0.0107,0.008 -0.026,0.0168 -0.0438,0.0267 -0.009,-0.045 -0.0277,-0.0916 -0.0407,-0.13629 -0.0137,-0.0473 -0.0207,-0.0919 -0.004,-0.12968 l 0.007,-0.0159 -0.0149,0.009 c -0.0201,0.0119 -0.0376,0.0247 -0.0565,0.0383 0.027,-0.12469 0.13367,-0.26687 0.28599,-0.34376 z"
       id="path1729" />
    <path
       d="m -652.98552,-500.1992 c 0.0238,-0.0475 0.0457,-0.0626 0.061,-0.0932 0.0271,-0.0538 0.031,-0.0966 0.0546,-0.0903 0.0236,0.006 0.0236,0.0283 -0.007,0.0812 -0.0306,0.0529 -0.0452,0.0642 -0.10866,0.1023 z m 0.16073,0.11324 c -0.003,-0.0362 0.007,-0.0513 0.006,-0.0746 -0.003,-0.041 -0.02,-0.0691 0.002,-0.0711 0.0218,-0.002 0.032,0.012 0.0321,0.0533 7e-5,0.0413 -0.006,0.0522 -0.0393,0.0924 z m 0.12197,0.0709 c -0.01,-0.0505 -0.002,-0.0729 -0.008,-0.10545 -0.0106,-0.0573 -0.0316,-0.0949 -0.0114,-0.10018 0.0202,-0.005 0.0324,0.0133 0.04,0.0713 0.008,0.0581 0.004,0.074 -0.0201,0.13428 z m 0.12687,-0.35388 c -0.0298,-0.0226 -0.0472,-0.0241 -0.0664,-0.0387 -0.0338,-0.0255 -0.051,-0.0528 -0.0618,-0.0392 -0.0109,0.0135 -0.003,0.0284 0.0323,0.0519 0.0355,0.0235 0.0475,0.0254 0.0959,0.026 z m -0.021,0.16761 c -0.0157,-0.0326 -0.0322,-0.0409 -0.0424,-0.0619 -0.018,-0.0369 -0.018,-0.0688 -0.0375,-0.0606 -0.0195,0.008 -0.021,0.0249 -2.1e-4,0.0606 0.0208,0.0357 0.0317,0.0421 0.08,0.0619 z"
       id="path1792"
       style="fill:#b3b3b3;stroke-width:0.00881944" />
    <path
       style="color:#000000;fill:#333333;stroke-width:0.0141155;-inkscape-stroke:none"
       d="m -658.46805,-500.59475 c -0.003,-0.0289 0.003,-0.0323 -0.0148,-0.0541 0.0259,0.0108 0.0268,0.0396 0.0583,0.0192 0.0115,-0.006 0.0166,-0.006 0.003,-0.0383 0.0328,0.002 0.14018,0.0383 0.15738,0.0392 0.0452,0.002 0.12758,-0.0474 0.18479,0.0134 0.0549,0.0555 0.0366,0.11312 0.0366,0.19 -0.0221,-0.0106 -0.0114,-0.0158 -0.0349,-0.0433 0.0176,0.0672 -9.4e-4,0.18835 -9.4e-4,0.25961 -0.009,-0.0172 -0.008,-0.01 -0.0165,-0.0275 -0.0234,0.065 -0.0515,0.0784 -0.0515,0.15531 -0.008,-0.0301 -2.8e-4,-0.0238 -0.01,-0.0396 -0.0227,0.0494 -0.17542,0.0916 -0.11659,0.14136 -0.0531,-0.0311 -0.0764,-0.0279 -0.10045,-0.0559 -0.0104,0.007 -0.0186,0.0194 -0.0283,0.0367 -0.0933,-0.043 -0.06,-0.13559 -0.13311,-0.19748 -0.0127,0.026 -0.007,0.0222 -0.0206,0.0644 -0.0148,-0.0587 -0.0189,-0.0959 -0.0355,-0.13906 -0.0144,0.0239 -0.0131,0.0147 -0.0392,0.0509 -0.0108,-0.0714 -0.0284,-0.0883 -0.0214,-0.1356 -0.0277,0.0196 -0.01,0.0116 -0.0373,0.0357 0.0263,-0.18309 0.13967,-0.31839 0.22106,-0.27506 z"
       id="path1678" />
    <path
       style="color:#000000;fill:#000000;stroke-width:0.00881944;-inkscape-stroke:none"
       d="m -658.43302,-500.67552 0.005,0.0104 c 0.007,0.0158 0.008,0.0235 0.008,0.0247 -10e-5,6.2e-4 1.4e-4,2.8e-4 -8.4e-4,9.9e-4 -9.9e-4,7.2e-4 -0.003,0.002 -0.006,0.003 l -2.8e-4,1.4e-4 -2.8e-4,1.8e-4 c -0.007,0.005 -0.0119,0.006 -0.0149,0.006 -0.003,10e-6 -0.005,-9.9e-4 -0.008,-0.003 -0.006,-0.005 -0.0138,-0.0161 -0.0288,-0.0223 l -0.008,0.011 c 0.009,0.0104 0.0105,0.015 0.0113,0.021 5.5e-4,0.004 9e-4,0.0116 10e-4,0.0181 -0.0193,-0.007 -0.04,-0.005 -0.0602,0.003 -0.024,0.0101 -0.0473,0.0294 -0.0688,0.0557 -0.0428,0.0526 -0.0781,0.13318 -0.0914,0.2259 l -0.003,0.0188 0.0143,-0.0124 c 0.0141,-0.0123 0.0176,-0.0177 0.0198,-0.0209 10e-4,-0.002 0.002,-0.002 0.004,-0.005 2.5e-4,-2.1e-4 10e-4,-7.9e-4 10e-4,-10e-4 -5.8e-4,0.0165 9.7e-4,0.0311 0.005,0.0458 0.005,0.0194 0.0119,0.0409 0.0172,0.0762 l 0.003,0.0171 0.0101,-0.014 c 0.0129,-0.0179 0.0187,-0.0242 0.0235,-0.0294 0.002,-0.002 0.005,-0.007 0.007,-0.01 0.0125,0.0371 0.0181,0.0722 0.0314,0.12506 l 0.006,0.0238 0.008,-0.0233 c 0.007,-0.0213 0.009,-0.0315 0.0108,-0.0388 10e-4,-0.004 0.004,-0.01 0.006,-0.0147 0.0283,0.0281 0.0382,0.0615 0.0497,0.0951 0.0126,0.0366 0.0291,0.0733 0.0779,0.0958 l 0.006,0.003 0.003,-0.006 c 0.008,-0.0147 0.0152,-0.0245 0.0224,-0.0306 0.0112,0.011 0.0228,0.018 0.0363,0.0237 0.0157,0.007 0.0342,0.0134 0.0603,0.0287 l 0.008,-0.0115 c -0.007,-0.006 -0.01,-0.0104 -0.0105,-0.0146 -9.7e-4,-0.004 -2.8e-4,-0.008 0.002,-0.0128 0.005,-0.01 0.0187,-0.0209 0.0353,-0.0322 0.0165,-0.0113 0.0359,-0.0228 0.0529,-0.0347 0.0123,-0.009 0.0222,-0.0178 0.03,-0.0275 10e-6,1.7e-4 2.1e-4,3.7e-4 2.1e-4,5.8e-4 1.8e-4,0.004 3.9e-4,0.0112 0.005,0.0268 l 0.0139,-0.002 c 0,-0.0376 0.007,-0.0586 0.0163,-0.0791 0.008,-0.0173 0.0188,-0.0359 0.0291,-0.0608 4e-4,5.6e-4 10e-4,0.002 0.002,0.003 0.002,0.003 0.003,0.004 0.008,0.0126 l 0.0133,-0.003 c 0,-0.035 0.005,-0.0832 0.007,-0.13096 0.002,-0.0353 10e-4,-0.0687 -0.002,-0.0989 1.7e-4,3.2e-4 6.9e-4,10e-4 8.6e-4,10e-4 0.003,0.007 0.008,0.0129 0.0202,0.0185 l 0.0101,0.005 v -0.0112 c 0,-0.0379 0.005,-0.0715 0.002,-0.10353 -0.002,-0.032 -0.0123,-0.0624 -0.0408,-0.0913 l -2e-5,-2e-5 c -0.0304,-0.0324 -0.0685,-0.0356 -0.10297,-0.0309 -0.0344,0.005 -0.0668,0.0162 -0.0866,0.0153 -0.002,-1.1e-4 -0.0128,-0.002 -0.0257,-0.006 -0.0129,-0.004 -0.029,-0.008 -0.0455,-0.0131 -0.0331,-0.01 -0.0675,-0.0192 -0.0861,-0.0201 z m 0.0225,0.0174 c 0.017,0.003 0.0428,0.009 0.0711,0.0168 0.0165,0.005 0.0326,0.009 0.0457,0.0131 0.0131,0.004 0.0223,0.006 0.0288,0.007 h 2e-5 c 0.0254,10e-4 0.0568,-0.011 0.0891,-0.0154 0.0324,-0.004 0.064,-0.002 0.0908,0.0266 l 8e-5,7e-5 7e-5,7e-5 c 0.0263,0.0266 0.0347,0.0527 0.0369,0.0826 0.002,0.0262 -10e-4,0.0569 -0.002,0.09 -0.002,-0.002 -0.003,-0.003 -0.004,-0.006 -0.003,-0.006 -0.007,-0.0151 -0.0189,-0.0294 l -0.0122,0.006 c 0.008,0.032 0.008,0.0788 0.006,0.12615 -0.002,0.039 -0.005,0.0756 -0.006,0.10853 -10e-4,-0.002 -0.002,-0.002 -0.004,-0.007 l -0.007,-0.0148 -0.006,0.0156 c -0.0115,0.0318 -0.024,0.0509 -0.0343,0.0726 -0.006,0.0126 -0.0103,0.0272 -0.0135,0.0439 -4.8e-4,-8.8e-4 -1.5e-4,-0.001 -7.3e-4,-0.002 l -0.007,-0.0116 -0.006,0.0122 c -0.005,0.01 -0.0175,0.0217 -0.0338,0.0331 -0.0163,0.0114 -0.0356,0.0229 -0.0527,0.0346 -0.0171,0.0117 -0.0321,0.0232 -0.0397,0.0371 -0.004,0.007 -0.005,0.0146 -0.004,0.0223 -0.0137,-0.007 -0.0292,-0.0144 -0.0386,-0.0184 -0.0152,-0.006 -0.0255,-0.0118 -0.0367,-0.0249 l -0.004,-0.005 -0.005,0.003 c -0.0107,0.007 -0.0185,0.0187 -0.0268,0.033 -0.0398,-0.0205 -0.0534,-0.0501 -0.0651,-0.0843 -0.0123,-0.0359 -0.0228,-0.0765 -0.0611,-0.10893 l -0.007,-0.006 -0.004,0.008 c -0.006,0.0132 -0.009,0.0197 -0.0104,0.0275 -5.6e-4,0.002 -0.002,0.008 -0.003,0.0111 -0.01,-0.0424 -0.0157,-0.0766 -0.0296,-0.11276 l -0.005,-0.0135 -0.007,0.0124 c -0.007,0.0117 -0.01,0.0145 -0.0144,0.0197 -0.003,0.003 -0.01,0.0121 -0.0151,0.0189 -0.005,-0.0254 -0.0103,-0.0476 -0.0142,-0.0628 -0.005,-0.0187 -0.007,-0.0333 -0.004,-0.056 l 0.002,-0.0163 -0.0134,0.009 c -0.007,0.005 -0.0113,0.008 -0.0143,0.011 -0.003,0.003 -0.005,0.005 -0.006,0.007 -1.4e-4,2.1e-4 -8.1e-4,8e-4 -9.5e-4,10e-4 0.0152,-0.0802 0.0464,-0.14992 0.0835,-0.19542 0.0204,-0.025 0.0423,-0.0428 0.0633,-0.0516 0.0198,-0.008 0.0384,-0.008 0.0559,-7e-5 l 4.5e-4,0.004 0.008,-0.003 0.0156,-0.005 -0.0111,-0.006 c -8.8e-4,-0.0106 -7.1e-4,-0.0183 -0.002,-0.0254 9.4e-4,8.4e-4 0.002,0.002 0.003,0.003 0.004,0.004 0.0101,0.007 0.0169,0.007 0.007,0 0.0141,-0.003 0.0226,-0.008 l -6.1e-4,3.6e-4 c 0.003,-10e-4 0.005,-0.003 0.008,-0.005 0.003,-0.002 0.006,-0.006 0.006,-0.01 10e-4,-0.006 -7.5e-4,-0.0123 -0.004,-0.0205 z"
       id="path1681" />
    <path
       d="m -658.58291,-500.2959 c 0.0241,-0.0589 0.0457,-0.0775 0.0613,-0.11542 0.0274,-0.0667 0.0319,-0.12003 0.055,-0.11189 0.0231,0.008 0.0227,0.0356 -0.008,0.10113 -0.0308,0.0656 -0.0453,0.0795 -0.1081,0.12616 z m 0.0911,0.1475 c 0.01,-0.0529 0.0249,-0.0721 0.0311,-0.10613 0.0111,-0.0599 0.005,-0.10442 0.0263,-0.10207 0.0214,0.002 0.0263,0.0249 0.012,0.0845 -0.0143,0.0595 -0.0241,0.0736 -0.0695,0.12373 z m 0.10893,0.10253 c 0.003,-0.0512 0.0147,-0.0712 0.0165,-0.10425 0.003,-0.058 -0.008,-0.0996 0.0125,-0.0998 0.0204,-2.4e-4 0.0277,0.0206 0.0215,0.0788 -0.006,0.0581 -0.0138,0.0726 -0.0505,0.12534 z m 0.23391,-0.3351 c -0.0447,-0.0446 -0.0718,-0.0529 -0.10062,-0.0815 -0.0508,-0.0503 -0.0754,-0.0976 -0.0935,-0.0808 -0.0181,0.0168 -0.007,0.0419 0.0463,0.0897 0.0535,0.0479 0.0721,0.0549 0.1478,0.0726 z m -0.0272,0.17225 c -0.0291,-0.0447 -0.0505,-0.0563 -0.0693,-0.0851 -0.0332,-0.0506 -0.0446,-0.0941 -0.0634,-0.0833 -0.0188,0.0108 -0.0146,0.0335 0.0213,0.0825 0.0359,0.049 0.0504,0.058 0.11135,0.0859 z"
       id="path1795"
       style="fill:#b3b3b3;stroke-width:0.00881944" />
    <path
       style="color:#000000;fill:#333333;stroke-width:0.0109273;-inkscape-stroke:none"
       d="m -656.17918,-501.57794 c -0.0524,0.10126 0.0917,-0.0337 0.31748,0.13585 0.0418,0.0315 0.10183,0.15593 0.10183,0.21361 -0.0481,-0.0102 -0.13321,-0.0577 -0.13321,-0.0577 0,0 0.0999,0.10006 0.0999,0.21542 -0.0353,-0.0221 -0.053,-0.0188 -0.0647,-0.0458 0,0.0373 0.0314,0.0611 0.0314,0.11883 a 0.46688375,0.46688375 0 0 0 -0.0686,-0.0458 c 0.0333,0.0577 -0.0607,0.16957 -0.0136,0.20692 -0.0823,-0.0119 -0.16642,-0.0645 -0.19972,-0.12213 -0.0177,0.0119 -0.0196,0.0306 -0.0203,0.0505 0.003,0.002 -0.12522,-0.0949 -0.11347,-0.13214 -0.0172,0.024 -0.0196,0.0373 -0.0235,0.0644 -0.047,-0.0463 -0.09,-0.0926 -0.10565,-0.15248 -0.0209,0.0271 -0.0222,0.0271 -0.043,0.0542 -0.0157,-0.0949 -0.0157,-0.0915 0.0156,-0.17279 -0.0222,0.0147 -0.0404,0.0294 -0.0626,0.0475 0.021,-0.13739 0.12809,-0.2985 0.28212,-0.37829 z"
       id="path1720" />
    <path
       style="color:#000000;fill:#000000;stroke-width:0.00881944;-inkscape-stroke:none"
       d="m -656.1791,-501.59 -0.004,0.008 c -0.15482,0.081 -0.26208,0.24231 -0.28331,0.38128 l -0.002,0.014 0.011,-0.009 c 0.0169,-0.0138 0.0318,-0.0248 0.0476,-0.036 -0.0234,0.0617 -0.0237,0.0718 -0.009,0.15803 l 0.002,0.0124 0.008,-0.01 c 0.0179,-0.0233 0.0231,-0.0289 0.0371,-0.0467 0.018,0.0568 0.0589,0.10164 0.10344,0.14554 l 0.008,0.008 0.002,-0.0107 c 0.003,-0.0202 0.007,-0.0326 0.0143,-0.0469 0.003,0.007 0.007,0.0141 0.0124,0.0215 0.0106,0.0148 0.0256,0.0305 0.0408,0.045 0.0152,0.0145 0.0307,0.0276 0.0422,0.0371 0.006,0.005 0.0105,0.008 0.0138,0.011 0.002,10e-4 0.003,0.002 0.004,0.003 4.1e-4,3.2e-4 7e-4,5.5e-4 9.1e-4,7.1e-4 1.1e-4,7e-5 4e-5,3e-5 4.7e-4,3.1e-4 1.1e-4,7e-5 10e-4,5.9e-4 10e-4,5.9e-4 10e-6,0 0.005,-0.008 0.006,-0.009 l 0.002,0.004 c 3.5e-4,-0.01 0.001,-0.019 0.004,-0.0268 0.002,-0.006 0.006,-0.0113 0.0108,-0.0159 0.0364,0.0576 0.11803,0.1078 0.19947,0.11958 l 0.02,0.003 -0.0159,-0.0126 c -0.01,-0.008 -0.0126,-0.0194 -0.011,-0.0351 0.002,-0.0157 0.008,-0.0348 0.0144,-0.0547 0.007,-0.0199 0.014,-0.0406 0.0175,-0.0605 0.002,-0.0139 0.002,-0.0271 -10e-4,-0.0396 0.0193,0.0113 0.0384,0.0232 0.0559,0.0373 l 0.009,0.007 v -0.0114 c 0,-0.0298 -0.008,-0.0512 -0.0162,-0.0692 -0.004,-0.0101 -0.008,-0.0191 -0.0111,-0.028 0.004,0.003 0.007,0.006 0.0114,0.008 0.0108,0.006 0.0236,0.0101 0.0408,0.0208 l 0.008,0.005 v -0.01 c 0,-0.0863 -0.0534,-0.16219 -0.0826,-0.1976 0.009,0.005 0.0103,0.006 0.0235,0.0121 0.0274,0.0132 0.0608,0.0278 0.0858,0.0331 l 0.007,0.001 v -0.007 c 0,-0.0307 -0.0153,-0.0763 -0.0358,-0.11898 -0.0204,-0.0427 -0.0456,-0.0819 -0.0682,-0.099 h -2e-5 c -0.1139,-0.0855 -0.20809,-0.0945 -0.26631,-0.0946 -0.0145,-2e-5 -0.0269,4.9e-4 -0.0365,4.7e-4 -0.01,-2e-5 -0.0167,-7.9e-4 -0.02,-0.002 -0.002,-7.1e-4 -0.002,-10e-4 -0.003,-0.002 -4.2e-4,-7.8e-4 -7.6e-4,-0.002 -5.2e-4,-0.004 4.6e-4,-0.005 0.004,-0.0132 0.009,-0.0245 l 0.003,-0.002 z m -0.0107,0.0249 c -0.002,0.005 -0.005,0.0108 -0.005,0.0146 -3.9e-4,0.004 7e-5,0.008 0.002,0.0108 0.002,0.003 0.005,0.005 0.008,0.007 0.006,0.003 0.0143,0.003 0.0243,0.003 0.01,2e-5 0.0222,-5e-4 0.0365,-4.7e-4 0.0571,1.1e-4 0.14786,0.008 0.25976,0.0924 0.0192,0.0144 0.045,0.0532 0.065,0.095 0.0185,0.0386 0.0311,0.0789 0.0332,0.10629 -0.0224,-0.006 -0.0509,-0.0179 -0.0753,-0.0296 -0.0271,-0.0131 -0.0483,-0.0249 -0.0483,-0.0249 l -0.007,0.009 c 0,0 0.0921,0.0939 0.0973,0.20216 -0.0125,-0.007 -0.0247,-0.0126 -0.0322,-0.0165 -0.01,-0.005 -0.0156,-0.01 -0.021,-0.0221 l -0.0105,0.002 c 0,0.0202 0.008,0.0363 0.0162,0.054 0.007,0.0149 0.012,0.0322 0.0138,0.0537 -0.0189,-0.0144 -0.0383,-0.028 -0.0591,-0.0394 l -0.0171,-0.009 0.01,0.0169 c 0.007,0.0128 0.008,0.0292 0.005,0.0477 -0.003,0.0186 -0.0103,0.0389 -0.0171,0.0589 -0.007,0.02 -0.0132,0.0395 -0.0149,0.0571 -10e-4,0.0118 10e-4,0.0223 0.006,0.0317 -0.0763,-0.0151 -0.15254,-0.0636 -0.18285,-0.11607 l -0.003,-0.005 -0.005,0.003 c -0.01,0.007 -0.0156,0.0156 -0.0186,0.0251 -0.002,0.006 -0.002,0.0131 -0.003,0.0198 -0.003,-0.002 -0.006,-0.005 -0.0107,-0.009 -0.0114,-0.009 -0.0266,-0.0223 -0.0416,-0.0365 -0.0149,-0.0142 -0.0296,-0.0296 -0.0395,-0.0434 -0.01,-0.0138 -0.0142,-0.0259 -0.0123,-0.0319 l -0.01,-0.005 c -0.0148,0.0207 -0.0188,0.0358 -0.0222,0.0559 -0.0437,-0.0436 -0.0828,-0.0873 -0.0972,-0.14224 l -0.003,-0.0108 -0.007,0.009 c -0.017,0.0221 -0.0229,0.0287 -0.0352,0.0444 -0.0131,-0.0795 -0.0123,-0.0808 0.0173,-0.15768 l 0.006,-0.016 -0.0143,0.009 c -0.0181,0.012 -0.034,0.0249 -0.051,0.0386 0.0248,-0.12806 0.12299,-0.27384 0.26286,-0.35211 z"
       id="path1723" />
    <path
       d="m -656.30829,-501.08317 c 0.008,-0.0698 0.0266,-0.0961 0.0321,-0.14101 0.01,-0.079 -0.002,-0.1368 0.0262,-0.13533 0.028,10e-4 0.0361,0.0306 0.0222,0.10948 -0.0138,0.0789 -0.0255,0.098 -0.0805,0.16687 z m 0.14618,0.12779 c -0.006,-0.0589 0.005,-0.0839 0.002,-0.12187 -0.006,-0.0667 -0.0268,-0.11192 -0.002,-0.11608 0.0244,-0.004 0.0368,0.0182 0.0394,0.0856 0.003,0.0674 -0.004,0.0853 -0.0386,0.15235 z m 0.2282,0.10425 c -0.0248,-0.051 -0.0461,-0.0661 -0.0622,-0.0989 -0.0283,-0.0576 -0.0342,-0.10469 -0.056,-0.0962 -0.0218,0.009 -0.0206,0.0329 0.0109,0.0893 0.0315,0.0564 0.0458,0.0679 0.1073,0.10581 z m 0.079,-0.45628 c -0.0632,-0.0333 -0.0957,-0.0337 -0.1364,-0.0551 -0.0717,-0.0375 -0.11348,-0.0798 -0.1283,-0.0565 -0.0148,0.0233 0.005,0.0465 0.0789,0.0806 0.0739,0.0341 0.0967,0.0357 0.1858,0.031 z m 0.0231,0.19064 c -0.046,-0.0383 -0.0732,-0.0439 -0.10292,-0.0686 -0.0523,-0.0432 -0.0783,-0.0857 -0.0958,-0.0684 -0.0175,0.0172 -0.006,0.0399 0.0491,0.0806 0.0549,0.0407 0.0737,0.0458 0.14962,0.0564 z"
       id="path1798"
       style="fill:#b3b3b3;stroke-width:0.00881944" />
  </g>
</svg>
