<?xml version="1.0"?>
<svg xmlns="http://www.w3.org/2000/svg" xmlns:xlink="http://www.w3.org/1999/xlink" width="30" height="20" viewBox="0 0 900 600"><path fill="#fff" d="M0 0h900v600H0Z"/><path fill="#ffcb21" d="M0 600V0l900 600"/><path id="a" fill="#2e9771" d="M414.3 265.8c-3.5 0-7.1.2-10.7.2-34.7-.2-66.5-5.8-94.9-13.3 2.4 13.8 4.3 30.1 4.3 48.7 0 18.2-1.9 34.5-4.3 48 19.6-4.6 41.8-8.3 66.4-10.7 13.7-1.1 26.6-1.8 38.8-1.8l74.8.2c3.3 0 7.1-.2 10.7-.2 34.7.2 66.5 5.5 94.9 13.2-2.4-13.7-4.3-30-4.3-48.7 0-18.1 1.9-34.7 4.3-48-19.6 4.7-42.1 8.4-66.4 10.8-13.7 1.1-26.8 1.8-38.8 1.8z"/><use xlink:href="#a" transform="matrix(0 -.9671 1.054 0 133.7 738)"/></svg>