<svg width="30" height="20" xmlns="http://www.w3.org/2000/svg"><path d="M0 0h30v20H0z" fill="#fff"/><symbol id="S"><path d="m7.81 6.17q0 .19-.077.346-.077.15-.221.264-.14.11-.356.173-.21.062-.476.062-.3 0-.558-.067-.25-.067-.428-.211-.18-.14-.284-.37-.1-.23-.111-.543h-1.33q0 .54.207.947.21.4.572.702.38.3.889.462.51.15 1.04.154.53 0 .986-.125.45-.13.779-.38.33-.25.51-.601.19-.36.188-.822 0-.53-.245-.942-.25-.41-.659-.716-.27-.19-.601-.332-.33-.14-.688-.245-.34-.091-.606-.197-.26-.11-.452-.236-.19-.12-.288-.284-.096-.16-.0962-.356 0-.19.0721-.346.077-.16.221-.284.14-.12.351-.178.21-.067.481-.0673.29 0 .51.082.22.077.37.216.14.14.216.341.077.2.087.433h1.32q0-.47-.183-.866t-.51-.683q-.33-.28-.784-.442-.45-.16-1-.159-.53 0-.981.139-.45.13-.784.389-.33.25-.519.615t-.188.803q0 .38.139.712.14.33.423.596.28.27.716.495.44.23 1.02.385.38.1.625.221.25.12.413.255.15.14.216.308.067.16.067.351z"/></symbol><symbol id="W"><path d="m4.63 8h1.22l.586-3.78.0529-.356.0529.356.611 3.78h1.22l.971-7h-1.24l-.476 3.92-.0336.293-.0433-.288-.586-3.93h-.966l-.553 3.9-.0433.288-.0336-.274-.466-3.91h-1.24z"/></symbol><symbol id="C"><path d="m9.04 5.81h-1.35q-.019.32-.106.543-.086.23-.236.37-.15.14-.361.212-.21.067-.476.0673-.2 0-.361-.0433-.16-.048-.288-.144-.12-.086-.216-.216-.091-.13-.159-.298-.096-.25-.144-.572-.043-.33-.0432-.75v-.952q0-.31.029-.572.029-.27.0912-.49.082-.28.216-.495.14-.22.336-.332.12-.067.25-.101.14-.034.298-.0337.3 0 .51.082.22.077.361.231.14.16.212.394.077.24.096.548h1.35q-.048-.55-.231-.986t-.5-.74q-.32-.3-.769-.466-.45-.16-1.02-.163-.39 0-.731.101-.34.096-.62.279-.32.22-.567.529t-.404.712q-.13.33-.202.712-.067.38-.0673.803v.942q0 .45.072.856.077.4.216.74.14.34.351.615.21.28.481.476.29.21.659.327.37.11.803.111.55 0 1-.159.45-.16.779-.462.33-.3.519-.721.2-.42.231-.952z"/></symbol><g transform="matrix(1.5 0 0 1.5 15 3.25)"><use x="-13" href="#S"/><use x="-6.5" href="#W"/><use href="#C"/></g></svg>
