<svg width="30" height="20" xmlns="http://www.w3.org/2000/svg"><symbol id="benbase" width="30" height="20" viewBox="0 0 9 6"><path d="M0 0h9v6H0z" fill="#006a4e"/><circle cx="3" cy="3" r="1.8" fill="#f42a41"/></symbol><use href="#benbase"/><path d="M20 0h10v20H20z" fill="#fff"/><path transform="matrix(0 -.2.2 0 0 0)" d="m-74.89 133.2q0 .9-.37 1.7-.38.7-1.08 1.2-.7.6-1.73.9-1.01.3-2.32.3-1.47 0-2.71-.3-1.22-.4-2.08-1.1-.89-.7-1.38-1.8-.5-1.1-.54-2.6h-6.46q0 2.6 1 4.6 1.03 2 2.79 3.4 1.85 1.5 4.33 2.3 2.5.7 5.05.7 2.6 0 4.8-.6t3.79-1.9q1.59-1.1 2.48-2.9.92-1.7.92-4 0-2.6-1.2-4.6-1.19-2-3.2-3.5-1.34-.9-2.93-1.6t-3.35-1.2q-1.63-.4-2.94-.9-1.29-.5-2.2-1.2-.92-.6-1.41-1.3-.47-.8-.47-1.8 0-.9.35-1.7.38-.8 1.08-1.3.7-.6 1.71-.9 1.03-.3 2.34-.3 1.43 0 2.48.4 1.08.3 1.8 1 .7.7 1.06 1.7.37.9.42 2.1h6.41q0-2.3-.89-4.2-.89-2-2.48-3.4-1.59-1.3-3.82-2.1-2.2-.8-4.86-.8-2.58 0-4.78.7t-3.81 1.9q-1.62 1.2-2.53 3-.91 1.7-.91 3.9 0 1.9.68 3.5.7 1.6 2.06 2.9 1.35 1.3 3.48 2.4 2.16 1.1 4.99 1.8 1.82.5 3.04 1.1 1.24.6 2.01 1.3.75.7 1.06 1.5.32.8.32 1.7zm25.21-9.5-6.72-15.7h-7.21l10.56 22v12.1h6.55v-11.8l10.71-22.3h-7.23zm26.67 13v-28.7h-6.6v34.1h22.564v-5.4z"/></svg>
