<?xml version="1.0" encoding="UTF-8" standalone="no"?>
<!-- Creator: CorelDRAW Home & Student X8 -->

<svg
   xml:space="preserve"
   width="7.9375mm"
   height="5.2916665mm"
   version="1.1"
   style="clip-rule:evenodd;fill-rule:evenodd;image-rendering:optimizeQuality;shape-rendering:geometricPrecision;text-rendering:geometricPrecision"
   viewBox="0 0 793.75 529.16665"
   id="svg58"
   sodipodi:docname="Fransız Polinezyası.svg"
   inkscape:version="1.4 (86a8ad7, 2024-10-11)"
   xmlns:inkscape="http://www.inkscape.org/namespaces/inkscape"
   xmlns:sodipodi="http://sodipodi.sourceforge.net/DTD/sodipodi-0.dtd"
   xmlns="http://www.w3.org/2000/svg"
   xmlns:svg="http://www.w3.org/2000/svg"><sodipodi:namedview
   id="namedview58"
   pagecolor="#ffffff"
   bordercolor="#000000"
   borderopacity="0.25"
   inkscape:showpageshadow="2"
   inkscape:pageopacity="0.0"
   inkscape:pagecheckerboard="0"
   inkscape:deskcolor="#d1d1d1"
   inkscape:document-units="mm"
   inkscape:zoom="5.6938333"
   inkscape:cx="50.141967"
   inkscape:cy="-1.3172145"
   inkscape:window-width="1920"
   inkscape:window-height="1009"
   inkscape:window-x="-8"
   inkscape:window-y="-8"
   inkscape:window-maximized="1"
   inkscape:current-layer="Layer_x0020_1" />
 <defs
   id="defs1">
  <style
   type="text/css"
   id="style1">
   <![CDATA[
    .str0 {stroke:#083D9C;stroke-width:54.42}
    .str1 {stroke:#083D9C;stroke-width:51.12}
    .str2 {stroke:#630810;stroke-width:51.11;stroke-linejoin:round}
    .str3 {stroke:#630810;stroke-width:73.86;stroke-linecap:round}
    .fil5 {fill:none}
    .fil3 {fill:#2E4090}
    .fil4 {fill:#6A221F}
    .fil0 {fill:#D12129}
    .fil2 {fill:#F49712}
    .fil1 {fill:#FEFEFE}
   ]]>
  </style>
   <clipPath
   id="id0">
    <path
   d="m 14469,7537 c 0,-1826 -1441,-3307 -3219,-3307 -1778,0 -3219,1481 -3219,3307 0,1827 1441,3308 3219,3308 1778,0 3219,-1481 3219,-3308 z"
   id="path1" />
   </clipPath>
 </defs>
 <g
   id="Layer_x0020_1"
   inkscape:label="Layer 1"
   inkscape:groupmode="layer">
  <metadata
   id="CorelCorpID_0Corel-Layer" />
  <rect
   class="fil0"
   width="793.75"
   height="132.29167"
   id="rect1"
   x="0"
   y="0"
   style="stroke-width:0.0352778" />
  <rect
   class="fil1"
   y="132.29167"
   width="793.75"
   height="264.58334"
   id="rect2"
   x="0"
   style="stroke-width:0.0352778" />
  <g
   id="g2"
   transform="scale(0.03527778)">
  </g>
  <g
   clip-path="url(#id0)"
   id="g58"
   transform="scale(0.03527778)">
   <g
   id="g57">
    <polygon
   class="fil2"
   points="10398,7163 9852,7148 9852,6931 "
   id="polygon2" />
    <path
   class="fil2"
   d="m 10396,7100 -544,-277 v -360 c 0,0 -64,9 -55,-63 3,-150 400,274 604,412 z"
   id="path2" />
    <polygon
   class="fil2"
   points="7875,7274 8039,8039 9187,8048 9187,7337 "
   id="polygon3" />
    <polygon
   class="fil2"
   points="8002,6202 7984,7057 7984,7058 9205,7175 9196,6670 "
   id="polygon4" />
    <path
   class="fil2"
   d="m 8230,6050 938,450 134,-139 c 0,0 -86,-58 -82,-112 2,-55 87,-63 89,-123 1,-54 -97,-61 -98,-116 -6,-59 76,-123 76,-123 l -847,-729 -210,891 z"
   id="path4" />
    <polygon
   class="fil2"
   points="14497,7256 14388,8048 13176,8048 13167,7355 "
   id="polygon5" />
    <path
   class="fil2"
   d="m 14418,7047 c -16,-113 -32,-225 -58,-336 -35,-147 -79,-293 -133,-434 -4,-11 -10,-20 -14,-31 l -1036,434 9,513 z"
   id="path5" />
    <path
   class="fil2"
   d="m 13710,5380 c -207,156 -414,313 -620,469 1,45 45,79 58,122 28,60 -28,114 -64,156 -28,39 33,59 54,83 45,46 5,118 -42,145 57,35 86,99 99,163 310,-161 619,-322 928,-483 -111,-234 -249,-455 -413,-655 z"
   id="path6" />
    <polygon
   class="fil2"
   points="11983,7179 11984,7179 12503,7157 12512,6949 "
   id="polygon6" />
    <path
   class="fil2"
   d="m 11983,7067 -2,-235 c 0,0 492,-438 596,-519 0,90 -56,159 -56,159 v 342 z"
   id="path7" />
    <path
   class="fil2"
   d="m 8795,5095 c 9,9 552,605 552,605 15,-56 141,-65 268,-56 128,9 229,-8 229,82 0,90 -64,77 -64,140 0,63 97,58 97,139 0,81 -71,64 -71,127 0,52 73,55 73,55 l 517,495 2,-529 -1065,-1652 z"
   id="path8" />
    <path
   class="fil2"
   d="m 9648,4470 c 8,24 722,1459 722,1459 0,0 8,-1347 130,-1419 l -203,-369 z"
   id="path9" />
    <path
   class="fil2"
   d="m 11978,4315 c -90,310 -180,621 -270,931 84,10 169,13 254,8 76,7 16,78 21,120 -1,191 -1,382 -2,573 254,-448 508,-897 762,-1345 -175,-92 -361,-159 -548,-222 -71,-25 -144,-47 -217,-65 z"
   id="path10" />
    <path
   class="fil2"
   d="m 12926,4704 c -314,483 -628,966 -942,1448 -1,186 -1,372 -1,558 209,-199 420,-398 629,-598 40,-56 -126,-84 -43,-152 75,-24 88,-145 9,-168 -65,-96 59,-147 137,-136 109,5 221,-24 327,6 59,56 113,-84 170,-116 114,-114 227,-228 340,-344 -185,-193 -397,-360 -626,-498 z"
   id="path11" />
    <path
   class="fil3 str0"
   d="m 10496,10328 c -232,13 -463,169 -571,253 194,85 401,151 622,197 352,59 703,58 1055,58 57,-7 114,-15 170,-24 l 740,-250 c 0,0 -356,-235 -638,-225 -283,10 -473,287 -701,266 -228,-20 -319,-275 -647,-275 -10,0 -20,-1 -31,0 z"
   id="path12" />
    <path
   class="fil3 str1"
   d="m 9150,10137 4209,18 c 0,0 -364,-387 -793,-396 -428,-10 -309,180 -637,207 -328,27 -410,-198 -711,-190 -300,9 -473,190 -701,199 -228,9 -519,-226 -692,-216 -173,9 -793,270 -793,270 l 119,108 z"
   id="path13" />
    <path
   class="fil3 str1"
   d="m 8613,9641 5192,18 c 82,-117 -255,-396 -564,-423 -256,9 -438,261 -647,270 -210,9 -447,-261 -683,-252 -237,9 -483,252 -720,252 -237,0 -410,-261 -711,-261 -300,0 -437,288 -665,270 -227,-18 -428,-288 -646,-288 -219,0 -583,324 -656,306 -73,-18 91,135 100,108 z"
   id="path14" />
    <path
   class="fil3 str1"
   d="m 10620,9145 1159,-1 c 9,-9 -259,-396 -579,-368 -356,9 -598,369 -580,369 z"
   id="path15" />
    <path
   class="fil3 str1"
   d="m 14316,9117 h -1586 c 0,0 206,-120 262,-231 102,56 74,111 279,120 206,10 402,-230 598,-221 195,9 447,341 447,332 z"
   id="path16" />
    <path
   class="fil3 str1"
   d="m 8066,9117 h 1586 c 0,0 -205,-120 -261,-231 -103,56 -75,111 -280,120 -205,10 -401,-230 -597,-221 -196,9 -448,341 -448,332 z"
   id="path17" />
    <path
   class="fil3 str1"
   d="m 8185,8624 1129,9 c 0,0 -73,-153 -82,-342 -291,-99 -528,216 -738,225 -209,9 -428,-225 -428,-225 z"
   id="path18" />
    <path
   class="fil3 str1"
   d="m 14215,8624 -1129,9 c 0,0 72,-153 82,-342 291,-99 528,216 737,225 210,9 429,-225 429,-225 z"
   id="path19" />
    <path
   class="fil3 str1"
   d="m 10908,8633 574,-18 c 0,0 9,-171 -291,-171 -301,0 -274,198 -283,189 z"
   id="path20" />
    <path
   class="fil0 str2"
   d="m 10608,6788 1193,315 V 5419 c -547,27 -1002,-1026 -36,-1098 -948,-135 -1057,108 -1166,369 z"
   id="path21" />
    <path
   class="fil0 str2"
   d="m 10873,8309 c -260,425 -954,299 -1116,3 -49,-14 -20,-1830 -20,-1830 0,0 -77,-35 -81,-91 -3,-57 106,-62 106,-134 0,-72 -112,-44 -114,-116 0,-70 119,-60 114,-124 -7,-73 -133,-62 -138,-129 -4,-53 90,-99 116,-123 -17,1 -88,-1 -88,-1 -66,1 -133,3 -199,4 -141,0 3,30 1,111 -2,53 -72,88 -78,133 -2,47 100,80 102,137 1,50 -101,53 -98,100 7,79 91,96 90,144 -2,48 -114,66 -114,105 4,73 16,1867 16,1867 179,914 1209,1147 1501,-56 z"
   id="path22" />
    <path
   class="fil0 str2"
   d="m 11552,8309 c 259,425 953,299 1116,3 48,-14 19,-1830 19,-1830 0,0 78,-35 82,-91 3,-57 -99,-62 -99,-134 0,-72 104,-44 107,-116 -1,-70 -110,-65 -105,-129 6,-72 92,-64 97,-130 4,-58 -54,-93 -80,-117 17,1 83,-1 84,-1 66,1 132,3 198,4 142,0 -2,30 0,111 1,53 72,88 78,133 2,47 -101,80 -102,137 -1,50 101,53 97,100 -6,79 -90,96 -89,144 1,48 113,66 114,105 -4,73 -17,1867 -17,1867 -178,914 -1208,1147 -1500,-56 z"
   id="path23" />
    <path
   class="fil4 str3"
   d="m 10562,8390 c 100,-54 192,-108 255,-234 l -391,9 c 0,0 -183,108 -274,225 z"
   id="path24" />
    <path
   class="fil4 str3"
   d="m 11828,8390 c -100,-54 -191,-108 -255,-234 l 392,9 c 0,0 182,108 273,225 z"
   id="path25" />
    <g
   id="g26">
     <path
   class="fil4"
   d="m 9852,8012 2696,9 z m 0,0 z"
   id="path26" />
     <path
   id="1"
   class="fil5 str3"
   d="m 9852,8012 2696,9 m -2696,-9 z" />
    </g>
    <g
   id="g28">
     <path
   class="fil4"
   d="m 9979,7373 319,423 z m 0,0 z"
   id="path27" />
     <path
   id="path28"
   class="fil5 str3"
   d="m 9979,7373 319,423 m -319,-423 z" />
    </g>
    <g
   id="g30">
     <path
   class="fil4"
   d="m 9979,7796 346,-414 z m 0,0 z"
   id="path29" />
     <path
   id="path30"
   class="fil5 str3"
   d="m 9979,7796 346,-414 m -346,414 z" />
    </g>
    <g
   id="g32">
     <path
   class="fil4"
   d="m 10161,7346 -9,261 z m 0,0 z"
   id="path31" />
     <path
   id="path32"
   class="fil5 str3"
   d="m 10161,7346 -9,261 m 9,-261 z" />
    </g>
    <g
   id="g34">
     <path
   class="fil4"
   d="m 10489,7373 319,423 z m 0,0 z"
   id="path33" />
     <path
   id="path34"
   class="fil5 str3"
   d="m 10489,7373 319,423 m -319,-423 z" />
    </g>
    <g
   id="g36">
     <path
   class="fil4"
   d="m 10489,7796 346,-414 z m 0,0 z"
   id="path35" />
     <path
   id="path36"
   class="fil5 str3"
   d="m 10489,7796 346,-414 m -346,414 z" />
    </g>
    <g
   id="g38">
     <path
   class="fil4"
   d="m 10672,7346 -10,261 z m 0,0 z"
   id="path37" />
     <path
   id="path38"
   class="fil5 str3"
   d="m 10672,7346 -10,261 m 10,-261 z" />
    </g>
    <g
   id="g40">
     <path
   class="fil4"
   d="m 11008,7373 319,423 z m 0,0 z"
   id="path39" />
     <path
   id="path40"
   class="fil5 str3"
   d="m 11008,7373 319,423 m -319,-423 z" />
    </g>
    <g
   id="g42">
     <path
   class="fil4"
   d="m 11008,7796 347,-414 z m 0,0 z"
   id="path41" />
     <path
   id="path42"
   class="fil5 str3"
   d="m 11008,7796 347,-414 m -347,414 z" />
    </g>
    <g
   id="g44">
     <path
   class="fil4"
   d="m 11191,7346 -9,261 z m 0,0 z"
   id="path43" />
     <path
   id="path44"
   class="fil5 str3"
   d="m 11191,7346 -9,261 m 9,-261 z" />
    </g>
    <g
   id="g46">
     <path
   class="fil4"
   d="m 11546,7373 319,423 z m 0,0 z"
   id="path45" />
     <path
   id="path46"
   class="fil5 str3"
   d="m 11546,7373 319,423 m -319,-423 z" />
    </g>
    <g
   id="g48">
     <path
   class="fil4"
   d="m 11546,7796 346,-414 z m 0,0 z"
   id="path47" />
     <path
   id="path48"
   class="fil5 str3"
   d="m 11546,7796 346,-414 m -346,414 z" />
    </g>
    <g
   id="g50">
     <path
   class="fil4"
   d="m 11728,7346 -9,261 z m 0,0 z"
   id="path49" />
     <path
   id="path50"
   class="fil5 str3"
   d="m 11728,7346 -9,261 m 9,-261 z" />
    </g>
    <g
   id="g52">
     <path
   class="fil4"
   d="m 12065,7373 319,423 z m 0,0 z"
   id="path51" />
     <path
   id="path52"
   class="fil5 str3"
   d="m 12065,7373 319,423 m -319,-423 z" />
    </g>
    <g
   id="g54">
     <path
   class="fil4"
   d="m 12065,7796 346,-414 z m 0,0 z"
   id="path53" />
     <path
   id="path54"
   class="fil5 str3"
   d="m 12065,7796 346,-414 m -346,414 z" />
    </g>
    <g
   id="g56">
     <path
   class="fil4"
   d="m 12247,7346 -9,261 z m 0,0 z"
   id="path55" />
     <path
   id="path56"
   class="fil5 str3"
   d="m 12247,7346 -9,261 m 9,-261 z" />
    </g>
   </g>
  </g>
  <path
   class="fil5"
   d="m 510.43417,265.88861 c 0,-64.41722 -50.83528,-116.66361 -113.55917,-116.66361 -62.72389,0 -113.55916,52.24639 -113.55916,116.66361 0,64.4525 50.83527,116.69889 113.55916,116.69889 62.72389,0 113.55917,-52.24639 113.55917,-116.69889 z"
   id="path58"
   style="stroke-width:0.0352778" />
  <rect
   class="fil0"
   y="396.875"
   width="793.75"
   height="132.29167"
   id="rect58"
   x="0"
   style="stroke-width:0.0352778" />
 </g>
</svg>
