<svg width="30" height="20" xmlns="http://www.w3.org/2000/svg"><symbol id="hin" width="30" height="20" fill="#07038D" viewBox="-45 -30 90 60"><path d="m-45-30h90v60h-90z" fill="#FFF"/><path d="m-45-30h90v20h-90z" fill="#FF6820"/><path d="m-45 10h90v20h-90z" fill="#046A38"/><circle r="9.25"/><circle r="8" fill="#FFF"/><circle r="1.6"/><g id="d"><g id="c"><g id="b"><g id="a"><path d="m0-8 .3 4.81409L0-.80235l-.3-2.38356z"/><circle transform="rotate(7.5)" cy="-8" r=".35"/></g><use transform="scale(-1)" href="#a"/></g><use transform="rotate(15)" href="#b"/></g><use transform="rotate(30)" href="#c"/></g><use transform="rotate(60)" href="#d"/><use transform="rotate(120)" href="#d"/></symbol><use x="-5.5" href="#hin"/><path d="M19 0h11v20H19z" fill="#fff"/><symbol id="T"><path d="m9.32 2.1v-1.1h-5.64v1.1h2.13v5.9h1.36v-5.9z"/></symbol><symbol id="E"><path d="m8.48 4.93v-1.07h-2.88v-1.76h3.35v-1.1h-4.7v7h4.72v-1.09h-3.36v-1.98z"/></symbol><symbol id="L"><path d="m5.62 6.91v-5.91h-1.36v7h4.63v-1.09z"/></symbol><g transform="rotate(-90 15 -5)"><use x="-13" href="#T"/><use x="-6.5" href="#E"/><use href="#L"/></g></svg>
