<?xml version="1.0"?>
<svg width="30" height="20" xmlns="http://www.w3.org/2000/svg" xmlns:xlink="http://www.w3.org/1999/xlink"><symbol id="hin" width="30" height="20" fill="#07038D" viewBox="-45 -30 90 60"><path d="m-45-30h90v60h-90z" fill="#FFF"/><path d="m-45-30h90v20h-90z" fill="#FF6820"/><path d="m-45 10h90v20h-90z" fill="#046A38"/><circle r="9.25"/><circle r="8" fill="#FFF"/><circle r="1.6"/><g id="d"><g id="c"><g id="b"><g id="a"><path d="m0-8 .3 4.81409L0-.80235l-.3-2.38356z"/><circle transform="rotate(7.5)" cy="-8" r=".35"/></g><use transform="scale(-1)" xlink:href="#a"/></g><use transform="rotate(15)" xlink:href="#b"/></g><use transform="rotate(30)" xlink:href="#c"/></g><use transform="rotate(60)" xlink:href="#d"/><use transform="rotate(120)" xlink:href="#d"/></symbol><use x="-5.5" href="#hin"/><path d="M19 0h11v20H19z" fill="#fff"/><path transform="matrix(0 -.2.2 0 0 0)" d="m-67.54 110.8v-5.3h-27.47v5.3h10.36v28.8h6.6v-28.8zm27.19 13.8v-5.2h-13.99v-8.6h16.29v-5.3h-22.89v34.1h22.96v-5.4h-16.36v-9.6zm17.34 9.6v-28.7h-6.6v34.1h22.564v-5.4z"/></svg>
