<?xml version="1.0" encoding="UTF-8" standalone="no"?>
<!-- Created with Inkscape (http://www.inkscape.org/) -->

<svg
   width="7.9375mm"
   height="5.2916999mm"
   viewBox="0 0 7.9375002 5.2917001"
   version="1.1"
   id="svg1"
   inkscape:version="1.4 (86a8ad7, 2024-10-11)"
   sodipodi:docname="tgk.svg"
   xmlns:inkscape="http://www.inkscape.org/namespaces/inkscape"
   xmlns:sodipodi="http://sodipodi.sourceforge.net/DTD/sodipodi-0.dtd"
   xmlns:xlink="http://www.w3.org/1999/xlink"
   xmlns="http://www.w3.org/2000/svg"
   xmlns:svg="http://www.w3.org/2000/svg">
  <sodipodi:namedview
     id="namedview1"
     pagecolor="#ffffff"
     bordercolor="#000000"
     borderopacity="0.25"
     inkscape:showpageshadow="2"
     inkscape:pageopacity="0.0"
     inkscape:pagecheckerboard="0"
     inkscape:deskcolor="#d1d1d1"
     inkscape:document-units="mm"
     inkscape:zoom="0.71891835"
     inkscape:cx="661.4103"
     inkscape:cy="371.39127"
     inkscape:window-width="1904"
     inkscape:window-height="992"
     inkscape:window-x="-26"
     inkscape:window-y="145"
     inkscape:window-maximized="0"
     inkscape:current-layer="layer1" />
  <defs
     id="defs1">
    <radialGradient
       id="n"
       cx="489.07001"
       cy="210.33"
       r="0.345"
       gradientTransform="matrix(0.00861722,0,0,0.0090267,-825.15993,-674.59387)"
       gradientUnits="userSpaceOnUse">
      <stop
         style="stop-color:#fff"
         offset="0"
         id="stop19" />
      <stop
         style="stop-color:#fff;stop-opacity:0"
         offset="1"
         id="stop21" />
    </radialGradient>
    <radialGradient
       id="m"
       cx="477.85999"
       cy="215.27"
       r="0.345"
       gradientUnits="userSpaceOnUse"
       gradientTransform="matrix(0.00881945,0,0,0.00881945,-825.15993,-674.59387)">
      <stop
         style="stop-color:#a50a0a"
         offset=".259"
         id="stop14" />
      <stop
         style="stop-color:#4c0505"
         offset="1"
         id="stop16" />
    </radialGradient>
    <linearGradient
       id="l"
       x1="473.31"
       x2="475.92999"
       y1="237.25"
       y2="270.45001"
       gradientUnits="userSpaceOnUse"
       gradientTransform="matrix(0.00881945,0,0,0.00881945,-825.15993,-674.59387)">
      <stop
         style="stop-color:#f9f0aa"
         offset=".216"
         id="stop39" />
      <stop
         style="stop-color:#b07e09"
         offset="1"
         id="stop41" />
    </linearGradient>
    <linearGradient
       id="k"
       x1="451.54001"
       x2="455.37"
       y1="249.52"
       y2="240.58"
       gradientUnits="userSpaceOnUse"
       gradientTransform="matrix(0.00881945,0,0,0.00881945,-825.15993,-674.59387)">
      <stop
         style="stop-color:#f9f0aa"
         offset=".216"
         id="stop34" />
      <stop
         style="stop-color:#b07e09"
         offset="1"
         id="stop36" />
    </linearGradient>
    <radialGradient
       id="j"
       cx="445.98001"
       cy="252.36"
       r="13.018"
       gradientUnits="userSpaceOnUse"
       xlink:href="#a"
       gradientTransform="matrix(0.00881945,0,0,0.00881945,-825.15993,-674.59387)" />
    <radialGradient
       id="a">
      <stop
         style="stop-color:#f9f0aa"
         offset=".216"
         id="stop4" />
      <stop
         style="stop-color:#b07e09"
         offset="1"
         id="stop6" />
    </radialGradient>
    <linearGradient
       id="i"
       x1="483.13"
       x2="485.5"
       y1="296.66"
       y2="326.57999"
       gradientUnits="userSpaceOnUse"
       gradientTransform="matrix(0.00881945,0,0,0.00881945,-825.15993,-674.59387)">
      <stop
         style="stop-color:#b07e09;stop-opacity:0"
         offset=".216"
         id="stop29" />
      <stop
         style="stop-color:#b07e09"
         offset="1"
         id="stop31" />
    </linearGradient>
    <linearGradient
       id="h"
       x1="473.91"
       x2="472.35999"
       y1="259.17001"
       y2="231.96001"
       gradientUnits="userSpaceOnUse"
       gradientTransform="matrix(0.00881945,0,0,0.00881945,-825.15993,-674.59387)">
      <stop
         style="stop-color:#b07e09;stop-opacity:0"
         offset=".216"
         id="stop24" />
      <stop
         style="stop-color:#b07e09"
         offset="1"
         id="stop26" />
    </linearGradient>
    <radialGradient
       id="g"
       cx="458.39001"
       cy="307.06"
       r="17.354"
       gradientUnits="userSpaceOnUse"
       xlink:href="#a"
       gradientTransform="matrix(0.00881945,0,0,0.00881945,-825.15993,-674.59387)" />
    <radialGradient
       id="radialGradient2">
      <stop
         style="stop-color:#f9f0aa"
         offset=".216"
         id="stop1" />
      <stop
         style="stop-color:#b07e09"
         offset="1"
         id="stop2" />
    </radialGradient>
    <radialGradient
       id="f"
       cx="454.10999"
       cy="308.64001"
       r="9.7799997"
       gradientUnits="userSpaceOnUse"
       xlink:href="#a"
       gradientTransform="matrix(0.00881945,0,0,0.00881945,-825.15993,-674.59387)" />
    <radialGradient
       id="radialGradient5">
      <stop
         style="stop-color:#f9f0aa"
         offset=".216"
         id="stop3" />
      <stop
         style="stop-color:#b07e09"
         offset="1"
         id="stop5" />
    </radialGradient>
    <radialGradient
       id="e"
       cx="451.56"
       cy="313"
       r="10.911"
       gradientUnits="userSpaceOnUse"
       xlink:href="#a"
       gradientTransform="matrix(0.00881945,0,0,0.00881945,-825.15993,-674.59387)" />
    <radialGradient
       id="radialGradient8">
      <stop
         style="stop-color:#f9f0aa"
         offset=".216"
         id="stop7" />
      <stop
         style="stop-color:#b07e09"
         offset="1"
         id="stop8" />
    </radialGradient>
    <radialGradient
       id="d"
       cx="447.42001"
       cy="308.26999"
       r="16.534"
       gradientUnits="userSpaceOnUse"
       xlink:href="#a"
       gradientTransform="matrix(0.00881945,0,0,0.00881945,-825.15993,-674.59387)" />
    <radialGradient
       id="radialGradient10">
      <stop
         style="stop-color:#f9f0aa"
         offset=".216"
         id="stop9" />
      <stop
         style="stop-color:#b07e09"
         offset="1"
         id="stop10" />
    </radialGradient>
    <radialGradient
       id="e-9"
       cx="380.84"
       cy="740.37"
       r="25.858999"
       gradientTransform="matrix(7.0234215e-4,8.3694522e-4,-0.00162376,0.00140249,-873.47471,-923.33034)"
       gradientUnits="userSpaceOnUse"
       xlink:href="#a-6" />
    <linearGradient
       id="a-6">
      <stop
         stop-color="#fff"
         offset="0"
         id="stop2-5" />
      <stop
         stop-color="#f15770"
         offset="1"
         id="stop4-1" />
    </linearGradient>
    <radialGradient
       id="f-0"
       cx="651.52002"
       cy="550.46002"
       r="25.858999"
       gradientTransform="matrix(-1.9245334e-4,-0.00208924,0.00193863,-1.8385685e-4,-876.73368,-920.80848)"
       gradientUnits="userSpaceOnUse"
       xlink:href="#a-6" />
    <radialGradient
       id="g-6"
       cx="842.31"
       cy="103.66"
       r="25.858999"
       gradientTransform="matrix(0.00194862,8.2390338e-4,-8.0461878e-4,0.00195837,-876.97359,-922.9887)"
       gradientUnits="userSpaceOnUse"
       xlink:href="#a-6" />
  </defs>
  <g
     inkscape:label="Layer 1"
     inkscape:groupmode="layer"
     id="layer1"
     transform="translate(842.60605,1417.2205)">
    <path
       id="path374"
       style="fill:#006600;stroke-width:0.00755953"
       d="m -842.60605,-1417.2205 h 7.9375 v 5.2917 h -7.9375 z" />
    <path
       id="path377"
       style="fill:#ffffff;stroke-width:0.00755953"
       d="m -842.60605,-1417.2205 h 7.9375 v 3.7798 h -7.9375 z" />
    <path
       id="path380"
       style="fill:#cc0000;stroke-width:0.00755953"
       d="m -842.60605,-1417.2205 h 7.9375 v 1.5119 h -7.9375 z" />
    <path
       d="m -838.84897,-1414.645 a 0.09449405,0.09449405 0 0 1 0.17614,0.045 v 0.378 h 0.0711 v -0.378 a 0.09449405,0.09449405 0 0 1 0.17614,-0.045 0.22300596,0.22300596 0 1 0 -0.42334,0"
       id="path332"
       style="fill:#f8c300;stroke-width:0.00755953" />
    <path
       style="fill:#ffffff;stroke-width:0.00755953"
       d="m -838.79832,-1414.7436 a 0.15119048,0.15119048 0 0 1 0.16102,0.072 0.15119048,0.15119048 0 0 1 0.16102,-0.072 0.16252977,0.16252977 0 0 0 -0.32204,0"
       id="path335" />
    <path
       id="path338"
       d="m -838.67283,-1414.3734 a 0.28726191,0.28726191 0 0 1 -0.48264,0.1838 0.2986012,0.2986012 0 0 1 -0.45156,0.1321 c 0.0276,0.2753 0.44036,0.2191 0.47111,-0.049 0.12968,0.2276 0.41482,0.1624 0.49825,-0.1164 z"
       style="fill:#f8c300;stroke-width:0.00755953" />
    <path
       id="path341"
       d="m -838.60177,-1414.3734 a 0.28726191,0.28726191 0 0 0 0.48264,0.1838 0.2986012,0.2986012 0 0 0 0.45156,0.1321 c -0.0276,0.2753 -0.44036,0.2191 -0.47111,-0.049 -0.12968,0.2276 -0.41481,0.1624 -0.49825,-0.1164 z"
       style="fill:#f8c300;stroke-width:0.00755953" />
    <path
       id="path344"
       d="m -838.94845,-1413.8844 c -0.0576,0.1243 -0.1727,0.1457 -0.27338,0.045 0,0 0.0405,-0.029 0.0838,-0.037 -0.008,-0.034 0.009,-0.082 0.032,-0.1082 0.0246,0.017 0.059,0.051 0.0677,0.09 0.0607,-0.01 0.0898,0.01 0.0898,0.01 z"
       style="fill:#f8c300;stroke-width:0.00755953" />
    <path
       id="path347"
       d="m -838.49791,-1413.8985 c -0.0771,0.1133 -0.19411,0.1156 -0.27712,4e-4 0,0 0.0446,-0.022 0.0886,-0.022 -0.002,-0.035 0.0218,-0.08 0.0492,-0.1016 0.0216,0.021 0.05,0.059 0.0522,0.1 0.0612,0 0.0871,0.024 0.0871,0.024 z"
       style="fill:#f8c300;stroke-width:0.00755953" />
    <path
       id="path350"
       d="m -838.0511,-1413.839 c -0.0945,0.099 -0.21034,0.082 -0.27345,-0.045 0,0 0.0475,-0.014 0.0911,-0.01 0.003,-0.035 0.0346,-0.075 0.0651,-0.092 0.0179,0.024 0.0396,0.067 0.0353,0.1068 0.06,0.012 0.082,0.038 0.082,0.038 z"
       style="fill:#f8c300;stroke-width:0.00755953" />
    <path
       style="color:#000000;fill:#f8c300;stroke-width:0.00755953;-inkscape-stroke:none"
       d="m -838.6373,-1413.7743 c -0.25283,0 -0.50567,0.036 -0.75053,0.1093 l 0.0345,0.1159 c 0.46722,-0.1391 0.9648,-0.1391 1.43202,0 l 0.0345,-0.1159 c -0.24486,-0.073 -0.4977,-0.1093 -0.75053,-0.1093 z"
       id="path329" />
    <path
       id="path362"
       style="fill:#f8c300;stroke-width:3.67916e-07"
       d="m -838.81704,-1415.4646 h 0.35948 l -0.29082,0.2113 0.11108,-0.3419 0.11108,0.3419 z" />
    <path
       id="path365"
       style="fill:#f8c300;stroke-width:3.67916e-07"
       d="m -839.27755,-1415.1115 0.11108,-0.3419 0.11109,0.3419 -0.29083,-0.2113 h 0.35948 z" />
    <path
       id="path368"
       style="fill:#f8c300;stroke-width:3.67916e-07"
       d="m -839.66493,-1414.7242 0.11109,-0.3418 0.11108,0.3418 -0.29082,-0.2112 h 0.35947 z" />
    <path
       id="path371"
       style="fill:#f8c300;stroke-width:3.67916e-07"
       d="m -839.80672,-1414.195 0.11109,-0.3419 0.11108,0.3419 -0.29082,-0.2113 h 0.35947 z" />
    <path
       id="path353"
       style="fill:#f8c300;stroke-width:3.67916e-07"
       d="m -837.99705,-1415.1115 -0.11108,-0.3419 -0.11109,0.3419 0.29083,-0.2113 h -0.35948 z" />
    <path
       id="path356"
       style="fill:#f8c300;stroke-width:3.67916e-07"
       d="m -837.60967,-1414.7242 -0.11109,-0.3418 -0.11108,0.3418 0.29082,-0.2112 h -0.35947 z" />
    <path
       id="path359"
       style="fill:#f8c300;stroke-width:3.67916e-07"
       d="m -837.46788,-1414.195 -0.11109,-0.3419 -0.11108,0.3419 0.29082,-0.2113 h -0.35947 z" />
  </g>
</svg>
