<?xml version="1.0" encoding="UTF-8" standalone="no"?>
<!-- Created with Inkscape (http://www.inkscape.org/) -->

<svg
   width="7.9375mm"
   height="5.2916698mm"
   viewBox="0 0 7.9375 5.29167"
   version="1.1"
   id="svg1"
   inkscape:version="1.4 (86a8ad7, 2024-10-11)"
   sodipodi:docname="tgl.svg"
   xmlns:inkscape="http://www.inkscape.org/namespaces/inkscape"
   xmlns:sodipodi="http://sodipodi.sourceforge.net/DTD/sodipodi-0.dtd"
   xmlns="http://www.w3.org/2000/svg"
   xmlns:svg="http://www.w3.org/2000/svg">
  <sodipodi:namedview
     id="namedview1"
     pagecolor="#ffffff"
     bordercolor="#000000"
     borderopacity="0.25"
     inkscape:showpageshadow="2"
     inkscape:pageopacity="0.0"
     inkscape:pagecheckerboard="0"
     inkscape:deskcolor="#d1d1d1"
     inkscape:document-units="mm"
     inkscape:zoom="0.71891835"
     inkscape:cx="253.85358"
     inkscape:cy="324.098"
     inkscape:window-width="1904"
     inkscape:window-height="992"
     inkscape:window-x="-26"
     inkscape:window-y="145"
     inkscape:window-maximized="0"
     inkscape:current-layer="layer1" />
  <defs
     id="defs1" />
  <g
     inkscape:label="Layer 1"
     inkscape:groupmode="layer"
     id="layer1"
     transform="translate(709.27841,675.79946)">
    <path
       id="path160"
       style="fill:#0038a8;stroke-width:0.0509196"
       d="m -709.27841,-675.79946 h 7.9375 v 5.29167 h -7.9375 z" />
    <path
       id="path163"
       style="fill:#ce1126;stroke-width:0.0509196"
       d="m -709.27841,-673.15363 h 7.9375 v 2.64584 h -7.9375 z" />
    <path
       d="m -705.84137,-673.15363 -3.43704,2.64584 v -5.29167"
       style="fill:#ffffff;stroke-width:0.0509196"
       id="path145" />
    <path
       d="m -709.07997,-675.29033 0.11946,0.10324 0.13832,-0.0761 -0.0613,0.14552 0.11516,0.10801 -0.15733,-0.0133 -0.0671,0.14289 -0.036,-0.15373 -0.15665,-0.0197 0.1351,-0.0817 z"
       style="fill:#fcd116;stroke-width:0.0440964"
       id="path148" />
    <path
       d="m -706.39064,-673.36328 0.003,0.15785 0.14914,0.0518 -0.14914,0.0518 -0.003,0.15785 -0.0954,-0.12582 -0.15112,0.0457 0.0902,-0.1296 -0.0902,-0.1296 0.15112,0.0457 z"
       style="fill:#fcd116;stroke-width:0.0440975"
       id="path151" />
    <path
       d="m -708.99278,-671.42717 0.0672,0.1429 0.15733,-0.0133 -0.11516,0.10801 0.0613,0.14552 -0.13831,-0.0761 -0.11947,0.10324 0.0297,-0.15508 -0.13509,-0.0817 0.15665,-0.0197 z"
       style="fill:#fcd116;stroke-width:0.0440975"
       id="path154" />
    <path
       d="m -708.04365,-673.99151 -0.0515,0.0515 0.0256,0.39028 c -0.009,5.6e-4 -0.0173,10e-4 -0.0258,0.003 l -0.0469,-0.35614 -0.042,0.0421 0.0633,0.31833 c -0.0521,0.0103 -0.10048,0.0308 -0.14306,0.0593 l -0.1803,-0.26984 h -0.0595 l 0.21867,0.28503 c -0.007,0.005 -0.0135,0.0108 -0.02,0.0165 l -0.25795,-0.29413 h -0.0729 v 0.0729 l 0.29413,0.25795 c -0.006,0.007 -0.0112,0.0132 -0.0165,0.0201 l -0.28502,-0.21872 v 0.0595 l 0.26989,0.18035 c -0.0285,0.0426 -0.049,0.0909 -0.0593,0.14301 l -0.31832,-0.0633 -0.0421,0.042 0.35614,0.0469 c -0.001,0.009 -0.002,0.0171 -0.003,0.0258 l -0.39029,-0.0256 -0.0515,0.0515 0.0515,0.0515 0.39029,-0.0256 c 5.6e-4,0.009 10e-4,0.0173 0.003,0.0259 l -0.35614,0.0469 0.0421,0.0421 0.31832,-0.0633 c 0.0103,0.0521 0.0308,0.10047 0.0593,0.14307 l -0.26984,0.1803 v 0.0595 l 0.28503,-0.21867 c 0.005,0.007 0.0108,0.0135 0.0165,0.02 l -0.29413,0.25795 v 0.0729 h 0.0729 l 0.25795,-0.29413 c 0.007,0.006 0.0132,0.0112 0.0201,0.0165 l -0.21873,0.28503 h 0.0595 l 0.18035,-0.2699 c 0.0426,0.0285 0.0909,0.0491 0.14301,0.0594 l -0.0633,0.31828 0.0421,0.042 0.0469,-0.35614 c 0.009,10e-4 0.0171,0.002 0.0258,0.003 l -0.0256,0.39028 0.0515,0.0515 0.0515,-0.0515 -0.0256,-0.39028 c 0.009,-5.7e-4 0.0173,-10e-4 0.0258,-0.003 l 0.0469,0.35614 0.0421,-0.042 -0.0633,-0.31833 c 0.0521,-0.0103 0.10048,-0.0308 0.14306,-0.0593 l 0.1803,0.26985 h 0.0595 l -0.21868,-0.28502 c 0.007,-0.005 0.0135,-0.0108 0.02,-0.0165 l 0.25795,0.29413 h 0.0729 v -0.0729 l -0.29413,-0.25795 c 0.006,-0.006 0.0112,-0.0132 0.0165,-0.02 l 0.28503,0.21872 v -0.0595 l -0.26989,-0.18035 c 0.0285,-0.0426 0.049,-0.091 0.0593,-0.14302 l 0.31832,0.0633 0.0421,-0.0421 -0.35614,-0.0469 c 0.001,-0.009 0.002,-0.0171 0.003,-0.0258 l 0.39029,0.0255 0.0515,-0.0515 -0.0515,-0.0515 -0.39029,0.0255 c -5.5e-4,-0.009 -10e-4,-0.0173 -0.003,-0.0258 l 0.35614,-0.0469 -0.0421,-0.0421 -0.31832,0.0633 c -0.0103,-0.0521 -0.0308,-0.10048 -0.0593,-0.14307 l 0.26984,-0.1803 v -0.0595 l -0.28503,0.21867 c -0.005,-0.007 -0.0108,-0.0135 -0.0165,-0.02 l 0.29413,-0.25794 v -0.0729 h -0.0729 l -0.25795,0.29414 c -0.007,-0.006 -0.0132,-0.0112 -0.0201,-0.0165 l 0.21873,-0.28503 h -0.0595 l -0.18035,0.2699 c -0.0426,-0.0285 -0.091,-0.049 -0.14301,-0.0593 l 0.0633,-0.31833 -0.0421,-0.0421 -0.0469,0.35614 c -0.009,-10e-4 -0.0171,-0.002 -0.0258,-0.003 l 0.0256,-0.39028 z"
       style="fill:#fcd116;stroke-width:0.0440975"
       id="path157" />
  </g>
</svg>
