<?xml version="1.0"?>
<svg width="30" height="20" xmlns="http://www.w3.org/2000/svg" xmlns:xlink="http://www.w3.org/1999/xlink"><symbol id="Flag_of_Eritrea" width="30" height="20" version="1.1" viewBox="0 0 30 20" xml:space="preserve"><path d="m0 0h30v20h-30z" fill="#e4002b"/><path d="m0 0h30v10z" fill="#43b02a"/><path d="m30 10v10h-30z" fill="#418fde"/><g transform="translate(-450)" fill="#ffc72c"><path id="w" transform="matrix(1.004,0,0,1,-3.059,0)" d="m457.4 5.939c.1.03.2-.236.5-.339.2-.09.4-.09.6-.05-.1.342-1.1.406-1.1.542.1.02.4-.08.8-.15-.6.817-1.3.43-1.6.492-.1.03-.3.155-.3.219.4-.131.5.15.8-.02-.1.617-1.2.883-1.4.522-.2.18-.2.25-.2.291.4-.166.6.223.8-.09 0 .617-.8 1.027-1.3.986 0 .06-.1.375-.1.433 0-.03 0-.108.3-.142.4-.05.4-.141.6-.422.2.314-.5 1.347-1.1 1.647 0 .07 0 .282.1.362 0-.16.1-.2.3-.287.2-.125.3-.183.4-.6.2.384 0 1.647-.5 2.137.1.1.2.35.2.4 0-.22.2-.28.3-.54.2-.26.2-.72.2-.79.4.57.4 2.24.3 2.43.1 0 .4.3.5.37l-.1-.16c-.1-.21 0-.87-.3-1.31.5 0 1.2 1.11 1.4 1.53s.5.74 1.1.93c.5.18 1 .62 1.3.89l-.3.2c-.1-.14-.9-.88-1.1-.87-1.4.12-2-.1-2.8-.38-.9-.39-1.4-1.27-1.3-1.33.2.26 1.3.47 1.6.44l-.1-.16c-.4.11-1.4-.4-1.7-.88-.5-.85-.4-1.5-.4-1.55.3.64.8.84 1.1 1v-.16c-1.2-.5-1.1-1.738-1.1-1.888 0-.534.1-.817.2-.834 0 .392.4.967.6 1.109v-.117c-.4-.333-.5-.933-.6-1.275 0-.614.6-1.303.7-1.348-.1.679 0 .979.1 1.223l.1-.128c-.5-.85.2-2.089.8-2.064-.3.273-.3.789-.2.914 0-.05 0-.06.1-.1-.1-.864.7-1.353 1-1.455.2-.06.4-.06.4-.03-.1.09-.6.285-.6.808 0-.04.2-.125.3-.15.1-.461.6-.783 1.1-.783.1 0 .1.01.1.01 0 .02-.5.444-.5.508z"/><path transform="matrix(1.004,0,0,1,-3.059,0)" d="m459 14.67c-.1.46 0 .57 0 .66-.1-.1-.5 0-.5-.1.1-.27.2-2.19-.1-3.24-.2-.12-.6-.61-.7-.71-.3.2-1.3.21-1.5-.59.2.1.6.26.8.22-.3-.13-.8-.53-.8-1.035.1.05.2.225.3.265.1 0 .4 0 .5.1s.2.23.3.28c0-.1 0-.52-.3-.628.1-.07.4-.01.6.268.3.42.2.82.2.98.1.14.4.45.5.52 0-.24-.2-.6 0-1.42.1-.282.4-.698.4-.89-.1-.125-.4-.442-.5-.475-.1-.01-.7.108-.9-.05-.2-.08-.3-.183-.3-.317.1.01.5.08.5.03s0-.03-.2-.158c-.1-.127-.3-.292-.3-.752.1.135.2.327.5.274.1-.02.3.186.4.289 0-.105-.1-.419-.3-.614.1-.08.7.372.7.759v.327c0 .08.4.517.5.484.1-.01.2-.575.3-.842 0-.323.2-.948-.1-1.311 0 .04-.3.147-.7-.239-.1-.173-.2-.35-.1-.403.1.09.3.33.4.286 0-.09-.3-.135-.2-.677 0-.07.1-.1.1-.103.1.241.3.278.4.611.1-.108 0-.258 0-.361.1-.111 0-.239 0-.286 0-.02.2 0 .3.414.1.244 0 .596 0 .672 0 .1.1.197.2.583 0 .333-.1.828-.1.931.1-.07.2-.128.2-.261.1-.156 0-.464.2-.7.1-.178.3-.306.6-.217-.1.09-.2.04-.3.161 0 .133-.1.231-.1.331.1-.01.1-.128.2-.206.2-.1.3.01.4-.02s.2-.108.2-.15c.1.09 0 .355-.3.563 0 .01-.1.01-.1.02-.1.06-.1.02-.1.04 0 .04.1.08.2.06s.3-.07.3-.161c0 .02.1.194-.3.425-.2.142-.6.09-.7.03-.1.03-.4.264-.5.339 0 .316-.3 1.058-.6 1.564 0 0 .2 0 .4-.23.1-.09.3-.734.5-.909.2-.142.4-.117.6-.109-.1.03-.4.167-.4.409.1.03.1-.1.3-.125.1-.02.3.08.4.08s.3-.1.3-.134c-.1.492-.6.625-.9.642.1.1.4.176.7-.04.1.05-.1.356-.5.486-.4.14-.5-.12-.7-.11-.2 0-.4.19-.4.23-.2.1-.3.1-.4.11 0 .1 0 .61.1 1.01 0 .26.2.67.2.93.1-.11.4-.16.6-.62 0-.21-.2-1.03.8-1.23.1 0-.1.12-.2.24-.1.13-.1.39-.1.47.1-.11.2-.29.6-.27.2 0 .3-.1.5-.2 0 0-.1.37-.3.59-.1.2-.4.28-.4.37.1 0 .4 0 .7-.34 0 .1-.2.5-.6.71-.2.11-.7.11-.9 0-.1.11-.3.42-.6.57.1 1.05.1 1.49.1 1.95z"/><use transform="matrix(-1,0,0,1,915.2,0)" xlink:href="#w"/></g></symbol><use href="#Flag_of_Eritrea"/><path d="M19 0h11v20H19z" fill="#fff"/><path transform="matrix(0 -.1.1 0 0 0)" d="m-135.1 221.7v-10.7h-54.9v10.7h20.7v57.4h13.2v-57.4zm15.4-10.7v10.6h12.9v46.9h-12.9v10.6h39.38v-10.6h-13.29v-46.9h13.29v-10.6zm106.45 60.2-.1-26.9h-24.38v9.8h11.28l-.1 12.4q-.51.6-1.54 1.2-.99.5-2.3.9t-2.81.6q-1.49.3-3.04.3-2.53-.1-4.54-.8-1.96-.8-3.46-2.3-.89-.9-1.64-2-.7-1.2-1.26-2.5-.89-2.4-1.41-5.4-.47-3.1-.47-6.8v-9.3q0-3 .33-5.5.37-2.5 1.03-4.6.84-2.7 2.11-4.6 1.31-2 2.9-3.2 1.22-.9 2.62-1.4 1.4-.4 2.9-.4 2.76 0 4.73.7 2.01.7 3.32 2.2 1.17 1.3 1.83 3.2.7 1.9 1.03 4.4h12.82q-.51-4.9-2.2-8.9-1.63-3.9-4.58-6.6-2.95-2.8-7.26-4.2-4.26-1.5-10.02-1.5-3.74 0-7.11 1.1-3.37 1-6.23 3-2.43 1.8-4.49 4.2-2.01 2.5-3.56 5.5-1.64 3.4-2.52 7.6-.89 4.2-.89 9.1v9.2q0 5.1.89 9.5.93 4.3 2.71 7.8 1.55 3.1 3.75 5.6 2.24 2.4 4.96 4.1 2.76 1.6 6.03 2.5 3.33.9 7.07.9 4.31 0 8.05-.8 3.75-.8 6.79-2.1 3-1.3 5.2-2.9t3.46-3.1z"/></svg>
