<?xml version="1.0"?>
<svg width="30" height="20" version="1.1" viewBox="0 0 30 20" xmlns="http://www.w3.org/2000/svg" xmlns:xlink="http://www.w3.org/1999/xlink"><path d="m0 0h30v20h-30z" fill="#e4002b"/><path d="m0 0h30v10z" fill="#43b02a"/><path d="m30 10v10h-30z" fill="#418fde"/><g transform="translate(-450)" fill="#ffc72c"><path id="w" transform="matrix(1.004,0,0,1,-3.059,0)" d="m457.4 5.939c0.1 0.03 0.2-0.236 0.5-0.339 0.2-0.09 0.4-0.09 0.6-0.05-0.1 0.342-1.1 0.406-1.1 0.542 0.1 0.02 0.4-0.08 0.8-0.15-0.6 0.817-1.3 0.43-1.6 0.492-0.1 0.03-0.3 0.155-0.3 0.219 0.4-0.131 0.5 0.15 0.8-0.02-0.1 0.617-1.2 0.883-1.4 0.522-0.2 0.18-0.2 0.25-0.2 0.291 0.4-0.166 0.6 0.223 0.8-0.09 0 0.617-0.8 1.027-1.3 0.986 0 0.06-0.1 0.375-0.1 0.433 0-0.03 0-0.108 0.3-0.142 0.4-0.05 0.4-0.141 0.6-0.422 0.2 0.314-0.5 1.347-1.1 1.647 0 0.07 0 0.282 0.1 0.362 0-0.16 0.1-0.2 0.3-0.287 0.2-0.125 0.3-0.183 0.4-0.6 0.2 0.384 0 1.647-0.5 2.137 0.1 0.1 0.2 0.35 0.2 0.4 0-0.22 0.2-0.28 0.3-0.54 0.2-0.26 0.2-0.72 0.2-0.79 0.4 0.57 0.4 2.24 0.3 2.43 0.1 0 0.4 0.3 0.5 0.37l-0.1-0.16c-0.1-0.21 0-0.87-0.3-1.31 0.5 0 1.2 1.11 1.4 1.53s0.5 0.74 1.1 0.93c0.5 0.18 1 0.62 1.3 0.89l-0.3 0.2c-0.1-0.14-0.9-0.88-1.1-0.87-1.4 0.12-2-0.1-2.8-0.38-0.9-0.39-1.4-1.27-1.3-1.33 0.2 0.26 1.3 0.47 1.6 0.44l-0.1-0.16c-0.4 0.11-1.4-0.4-1.7-0.88-0.5-0.85-0.4-1.5-0.4-1.55 0.3 0.64 0.8 0.84 1.1 1v-0.16c-1.2-0.5-1.1-1.738-1.1-1.888 0-0.534 0.1-0.817 0.2-0.834 0 0.392 0.4 0.967 0.6 1.109v-0.117c-0.4-0.333-0.5-0.933-0.6-1.275 0-0.614 0.6-1.303 0.7-1.348-0.1 0.679 0 0.979 0.1 1.223l0.1-0.128c-0.5-0.85 0.2-2.089 0.8-2.064-0.3 0.273-0.3 0.789-0.2 0.914 0-0.05 0-0.06 0.1-0.1-0.1-0.864 0.7-1.353 1-1.455 0.2-0.06 0.4-0.06 0.4-0.03-0.1 0.09-0.6 0.285-0.6 0.808 0-0.04 0.2-0.125 0.3-0.15 0.1-0.461 0.6-0.783 1.1-0.783 0.1 0 0.1 0.01 0.1 0.01 0 0.02-0.5 0.444-0.5 0.508z" stroke-width=".0027778"/><path transform="matrix(1.004,0,0,1,-3.059,0)" d="m459 14.67c-0.1 0.46 0 0.57 0 0.66-0.1-0.1-0.5 0-0.5-0.1 0.1-0.27 0.2-2.19-0.1-3.24-0.2-0.12-0.6-0.61-0.7-0.71-0.3 0.2-1.3 0.21-1.5-0.59 0.2 0.1 0.6 0.26 0.8 0.22-0.3-0.13-0.8-0.53-0.8-1.035 0.1 0.05 0.2 0.225 0.3 0.265 0.1 0 0.4 0 0.5 0.1s0.2 0.23 0.3 0.28c0-0.1 0-0.52-0.3-0.628 0.1-0.07 0.4-0.01 0.6 0.268 0.3 0.42 0.2 0.82 0.2 0.98 0.1 0.14 0.4 0.45 0.5 0.52 0-0.24-0.2-0.6 0-1.42 0.1-0.282 0.4-0.698 0.4-0.89-0.1-0.125-0.4-0.442-0.5-0.475-0.1-0.01-0.7 0.108-0.9-0.05-0.2-0.08-0.3-0.183-0.3-0.317 0.1 0.01 0.5 0.08 0.5 0.03s0-0.03-0.2-0.158c-0.1-0.127-0.3-0.292-0.3-0.752 0.1 0.135 0.2 0.327 0.5 0.274 0.1-0.02 0.3 0.186 0.4 0.289 0-0.105-0.1-0.419-0.3-0.614 0.1-0.08 0.7 0.372 0.7 0.759v0.327c0 0.08 0.4 0.517 0.5 0.484 0.1-0.01 0.2-0.575 0.3-0.842 0-0.323 0.2-0.948-0.1-1.311 0 0.04-0.3 0.147-0.7-0.239-0.1-0.173-0.2-0.35-0.1-0.403 0.1 0.09 0.3 0.33 0.4 0.286 0-0.09-0.3-0.135-0.2-0.677 0-0.07 0.1-0.1 0.1-0.103 0.1 0.241 0.3 0.278 0.4 0.611 0.1-0.108 0-0.258 0-0.361 0.1-0.111 0-0.239 0-0.286 0-0.02 0.2 0 0.3 0.414 0.1 0.244 0 0.596 0 0.672 0 0.1 0.1 0.197 0.2 0.583 0 0.333-0.1 0.828-0.1 0.931 0.1-0.07 0.2-0.128 0.2-0.261 0.1-0.156 0-0.464 0.2-0.7 0.1-0.178 0.3-0.306 0.6-0.217-0.1 0.09-0.2 0.04-0.3 0.161 0 0.133-0.1 0.231-0.1 0.331 0.1-0.01 0.1-0.128 0.2-0.206 0.2-0.1 0.3 0.01 0.4-0.02s0.2-0.108 0.2-0.15c0.1 0.09 0 0.355-0.3 0.563 0 0.01-0.1 0.01-0.1 0.02-0.1 0.06-0.1 0.02-0.1 0.04 0 0.04 0.1 0.08 0.2 0.06s0.3-0.07 0.3-0.161c0 0.02 0.1 0.194-0.3 0.425-0.2 0.142-0.6 0.09-0.7 0.03-0.1 0.03-0.4 0.264-0.5 0.339 0 0.316-0.3 1.058-0.6 1.564 0 0 0.2 0 0.4-0.23 0.1-0.09 0.3-0.734 0.5-0.909 0.2-0.142 0.4-0.117 0.6-0.109-0.1 0.03-0.4 0.167-0.4 0.409 0.1 0.03 0.1-0.1 0.3-0.125 0.1-0.02 0.3 0.08 0.4 0.08s0.3-0.1 0.3-0.134c-0.1 0.492-0.6 0.625-0.9 0.642 0.1 0.1 0.4 0.176 0.7-0.04 0.1 0.05-0.1 0.356-0.5 0.486-0.4 0.14-0.5-0.12-0.7-0.11-0.2 0-0.4 0.19-0.4 0.23-0.2 0.1-0.3 0.1-0.4 0.11 0 0.1 0 0.61 0.1 1.01 0 0.26 0.2 0.67 0.2 0.93 0.1-0.11 0.4-0.16 0.6-0.62 0-0.21-0.2-1.03 0.8-1.23 0.1 0-0.1 0.12-0.2 0.24-0.1 0.13-0.1 0.39-0.1 0.47 0.1-0.11 0.2-0.29 0.6-0.27 0.2 0 0.3-0.1 0.5-0.2 0 0-0.1 0.37-0.3 0.59-0.1 0.2-0.4 0.28-0.4 0.37 0.1 0 0.4 0 0.7-0.34 0 0.1-0.2 0.5-0.6 0.71-0.2 0.11-0.7 0.11-0.9 0-0.1 0.11-0.3 0.42-0.6 0.57 0.1 1.05 0.1 1.49 0.1 1.95z" stroke-width=".0027778"/><use transform="matrix(-1,0,0,1,915.2,0)" xlink:href="#w"/></g><rect x="19" width="11" height="20" fill="#fff"/><path transform="matrix(0 -.1 .1 0 0 0)" d="m-135.1 221.7v-10.7h-54.9v10.7h20.7v57.4h13.2v-57.4zm15.4-10.7v10.6h12.9v46.9h-12.9v10.6h39.38v-10.6h-13.29v-46.9h13.29v-10.6zm106.45 60.2-0.1-26.9h-24.38v9.8h11.28l-0.1 12.4q-0.51 0.6-1.54 1.2-0.99 0.5-2.3 0.9t-2.81 0.6q-1.49 0.3-3.04 0.3-2.53-0.1-4.54-0.8-1.96-0.8-3.46-2.3-0.89-0.9-1.64-2-0.7-1.2-1.26-2.5-0.89-2.4-1.41-5.4-0.47-3.1-0.47-6.8v-9.3q0-3 0.33-5.5 0.37-2.5 1.03-4.6 0.84-2.7 2.11-4.6 1.31-2 2.9-3.2 1.22-0.9 2.62-1.4 1.4-0.4 2.9-0.4 2.76 0 4.73 0.7 2.01 0.7 3.32 2.2 1.17 1.3 1.83 3.2 0.7 1.9 1.03 4.4h12.82q-0.51-4.9-2.2-8.9-1.63-3.9-4.58-6.6-2.95-2.8-7.26-4.2-4.26-1.5-10.02-1.5-3.74 0-7.11 1.1-3.37 1-6.23 3-2.43 1.8-4.49 4.2-2.01 2.5-3.56 5.5-1.64 3.4-2.52 7.6-0.89 4.2-0.89 9.1v9.2q0 5.1 0.89 9.5 0.93 4.3 2.71 7.8 1.55 3.1 3.75 5.6 2.24 2.4 4.96 4.1 2.76 1.6 6.03 2.5 3.33 0.9 7.07 0.9 4.31 0 8.05-0.8 3.75-0.8 6.79-2.1 3-1.3 5.2-2.9t3.46-3.1z"/></svg>
