<?xml version="1.0" encoding="UTF-8" standalone="no"?>
<!-- Created with Inkscape (http://www.inkscape.org/) -->

<svg
   width="7.9375mm"
   height="5.2916698mm"
   viewBox="0 0 7.9375 5.29167"
   version="1.1"
   id="svg1"
   inkscape:version="1.4 (86a8ad7, 2024-10-11)"
   sodipodi:docname="tig.svg"
   xmlns:inkscape="http://www.inkscape.org/namespaces/inkscape"
   xmlns:sodipodi="http://sodipodi.sourceforge.net/DTD/sodipodi-0.dtd"
   xmlns="http://www.w3.org/2000/svg"
   xmlns:svg="http://www.w3.org/2000/svg">
  <sodipodi:namedview
     id="namedview1"
     pagecolor="#ffffff"
     bordercolor="#000000"
     borderopacity="0.25"
     inkscape:showpageshadow="2"
     inkscape:pageopacity="0.0"
     inkscape:pagecheckerboard="0"
     inkscape:deskcolor="#d1d1d1"
     inkscape:document-units="mm"
     inkscape:zoom="0.71891835"
     inkscape:cx="416.59807"
     inkscape:cy="376.95519"
     inkscape:window-width="1904"
     inkscape:window-height="992"
     inkscape:window-x="234"
     inkscape:window-y="426"
     inkscape:window-maximized="0"
     inkscape:current-layer="layer1" />
  <defs
     id="defs1" />
  <g
     inkscape:label="Layer 1"
     inkscape:groupmode="layer"
     id="layer1"
     transform="translate(593.12632,441.37862)">
    <path
       d="m -593.12632,-436.08695 h 7.9375 v -2.64574 z"
       fill="#3c8bdc"
       fill-rule="evenodd"
       stroke-width="0.0305471"
       id="path120" />
    <path
       d="m -593.12632,-441.37862 h 7.9375 v 2.64583 l -4.41493,-1.34849 z"
       fill="#0bac24"
       id="path123"
       style="stroke-width:0.00881944" />
    <path
       d="m -593.12632,-441.37862 v 5.29167 l 7.9375,-2.64584 z"
       fill="#eb0433"
       id="path126"
       style="stroke-width:0.00881944" />
    <path
       d="m -591.53185,-440.16101 c -0.093,0.0225 -0.18705,0.10308 -0.24257,0.20768 -0.0222,0.0418 -0.0578,0.0509 -0.0578,0.0148 0,-0.0422 0.0316,-0.0843 0.0986,-0.13155 0.075,-0.0528 0.0796,-0.0623 0.0331,-0.0681 -0.0829,-0.0104 -0.16912,0.0291 -0.26024,0.11896 -0.0892,0.088 -0.10938,0.13399 -0.10938,0.24872 0,0.0646 -5.3e-4,0.0673 -0.0156,0.0831 -0.0536,0.0559 -0.0587,-0.0683 -0.008,-0.19254 0.0227,-0.0555 0.023,-0.0541 -0.0117,-0.0409 -0.0776,0.0295 -0.15052,0.0897 -0.17497,0.14448 -0.0352,0.079 -0.061,0.23056 -0.0511,0.30066 0.005,0.0321 0.01,0.0457 0.0378,0.0992 0.0195,0.0373 -0.003,0.0637 -0.03,0.0345 -0.0109,-0.0119 -0.0205,-0.0435 -0.0375,-0.12325 -0.006,-0.028 -0.003,-0.11951 0.005,-0.15637 l 0.004,-0.0171 -0.0241,0.019 c -0.0612,0.0484 -0.13094,0.15771 -0.14858,0.23276 -0.0316,0.13434 0.0239,0.33676 0.11684,0.42673 0.0429,0.0415 0.0547,0.0663 0.0317,0.0663 -0.0394,0 -0.10178,-0.0823 -0.15815,-0.20852 -0.0332,-0.0742 -0.0351,-0.0751 -0.0506,-0.0222 -0.0451,0.15359 -0.0446,0.26592 0.002,0.38001 0.0424,0.10438 0.17718,0.26678 0.26598,0.32046 0.0308,0.0186 0.0467,0.0405 0.0367,0.0505 -0.006,0.006 -0.0715,-0.019 -0.10729,-0.0399 -0.047,-0.0276 -0.13686,-0.12007 -0.17489,-0.18013 -0.0372,-0.0588 -0.0406,-0.0606 -0.0406,-0.0217 0,0.1709 0.0654,0.3285 0.18522,0.44598 0.14838,0.14553 0.23506,0.19199 0.40939,0.21945 0.0493,0.008 0.0424,0.0224 -0.0127,0.0271 -0.0991,0.008 -0.27514,-0.0271 -0.36547,-0.0739 -0.0247,-0.0128 -0.0274,-0.006 -0.0121,0.0318 0.13637,0.33093 0.53471,0.48798 1.07712,0.42464 0.0421,-0.005 0.0414,-0.004 -0.066,0.085 -0.0511,0.0423 -0.0933,0.0798 -0.094,0.0834 -0.001,0.006 0.0727,0.0737 0.0841,0.0775 0.002,7.9e-4 0.0485,-0.0403 0.10277,-0.0913 0.11519,-0.10826 0.10826,-0.10504 0.10321,-0.0479 -0.007,0.0796 -0.0108,0.0718 0.0435,0.0906 0.0571,0.0198 0.0528,0.0225 0.0573,-0.0357 0.005,-0.0697 0.003,-0.07 0.0886,0.0108 0.0891,0.0843 0.0765,0.0805 0.12766,0.0379 0.0525,-0.0437 0.0562,-0.035 -0.0544,-0.12563 -0.0524,-0.043 -0.0955,-0.0802 -0.0957,-0.0827 -2.5e-4,-0.003 0.029,-0.003 0.0649,0 0.54721,0.0391 0.86891,-0.0818 1.02173,-0.38395 0.0145,-0.0287 0.0281,-0.0595 0.0303,-0.0685 l 0.004,-0.0163 -0.0225,0.01 c -0.15117,0.0656 -0.41119,0.10388 -0.41119,0.0606 0,-0.006 0.01,-0.0101 0.0319,-0.0134 0.15409,-0.0227 0.23821,-0.0644 0.36759,-0.18213 0.15348,-0.13964 0.21094,-0.25866 0.222,-0.45982 l 0.003,-0.061 -0.0362,0.0539 c -0.0686,0.10215 -0.14919,0.17572 -0.2305,0.21041 -0.0826,0.0352 -0.0845,0.005 -0.003,-0.0464 0.0627,-0.0392 0.19432,-0.19547 0.23882,-0.28364 0.0555,-0.10989 0.0585,-0.27533 0.008,-0.42356 -0.0121,-0.0354 -0.0149,-0.0341 -0.0359,0.0165 -0.0553,0.13332 -0.12741,0.23202 -0.16946,0.23202 -0.0229,0 -0.011,-0.0244 0.032,-0.066 0.0506,-0.0489 0.0774,-0.0993 0.10376,-0.19481 0.0502,-0.18192 0.015,-0.3169 -0.11643,-0.44661 -0.0394,-0.0389 -0.0466,-0.0393 -0.0363,-0.002 0.024,0.0863 -0.0162,0.27441 -0.0586,0.27441 -0.0168,0 -0.0142,-0.0412 0.004,-0.0691 0.0405,-0.0612 0.0407,-0.15011 4.9e-4,-0.30374 -0.0297,-0.11371 -0.0931,-0.18157 -0.207,-0.22177 -0.0285,-0.01 -0.0288,-0.0164 0.003,0.0668 0.0426,0.10977 0.0309,0.22493 -0.0172,0.16789 -0.0138,-0.0165 -0.0147,-0.0207 -0.0117,-0.0595 0.0109,-0.1399 -0.0815,-0.28685 -0.22443,-0.35718 -0.0632,-0.0311 -0.1793,-0.0479 -0.1793,-0.026 0,0.0108 0.0167,0.0274 0.0534,0.0529 0.0779,0.0541 0.10907,0.0933 0.10907,0.13715 0,0.0335 -0.0366,0.0326 -0.052,-0.001 -0.0599,-0.13164 -0.19566,-0.22749 -0.3217,-0.22717 -0.064,1.8e-4 -0.0645,0.0214 -10e-4,0.0513 0.0381,0.018 0.065,0.0437 0.0711,0.0677 0.007,0.0272 -0.001,0.0265 -0.0317,-0.002 -0.0667,-0.0636 -0.1714,-0.0949 -0.2358,-0.0704 l -0.0153,0.006 0.0132,0.0234 c 0.0271,0.0482 0.0821,0.0744 0.18774,0.0894 0.0825,0.0117 0.10205,0.0215 0.0546,0.0272 -0.0656,0.008 -0.0939,0.006 -0.12256,-0.01 -0.0605,-0.0322 -0.0606,-0.01 -2.4e-4,0.0494 0.071,0.0693 0.13181,0.0923 0.22167,0.0837 0.10095,-0.01 0.19186,-0.006 0.21884,0.008 0.0334,0.0176 0.0361,0.0246 0.009,0.0246 -0.0122,0 -0.0443,0.004 -0.0714,0.009 -0.0271,0.005 -0.0642,0.009 -0.0823,0.009 -0.0438,0 -0.0444,0.003 -0.0106,0.0539 0.0518,0.0775 0.13155,0.1433 0.17353,0.1433 0.008,0 0.0155,0.009 0.0257,0.0314 0.0643,0.14051 0.17486,0.22382 0.30945,0.23328 0.062,0.004 0.063,0.005 0.0839,0.0707 l 0.01,0.0309 -0.0226,-0.004 c -0.0125,-0.002 -0.0433,-0.005 -0.0685,-0.006 -0.0597,-0.002 -0.15119,-0.0581 -0.15168,-0.0925 -7e-5,-0.003 -0.002,-0.003 -0.005,0.002 -0.005,0.009 -0.003,0.0405 0.006,0.0819 0.0257,0.11859 0.12493,0.24294 0.2707,0.33932 l 0.0421,0.0278 v 0.0278 c 0,0.0153 -0.003,0.0344 -0.006,0.0425 l -0.006,0.0148 -0.0424,-0.0303 c -0.0233,-0.0167 -0.0554,-0.0369 -0.0713,-0.0448 -0.0432,-0.0217 -0.0872,-0.0679 -0.0973,-0.1022 l -0.008,-0.0283 -0.007,0.0242 c -0.0456,0.16633 -0.002,0.37902 0.10722,0.52646 0.0281,0.0379 0.0298,0.0457 0.0166,0.0773 -0.0175,0.0419 -0.0432,0.0599 -0.0432,0.0301 0,-0.023 -0.0116,-0.041 -0.0559,-0.0868 -0.0479,-0.0495 -0.0564,-0.0696 -0.0765,-0.17981 l -0.005,-0.0261 -0.0155,0.0301 c -0.0758,0.14725 -0.11539,0.35962 -0.1022,0.54821 0.007,0.10069 0.008,0.0986 -0.0544,0.1473 -0.0417,0.0326 -0.0506,0.0358 -0.0389,0.014 0.0188,-0.0351 0.0231,-0.0685 0.0217,-0.16873 -10e-4,-0.10699 0.006,-0.14895 0.0372,-0.19958 0.0192,-0.0316 0.009,-0.0344 -0.0374,-0.011 -0.10736,0.0537 -0.20792,0.16991 -0.2953,0.34125 -0.083,0.16279 -0.15345,0.24339 -0.26087,0.29843 -0.0579,0.0297 -0.0579,0.0297 -0.0536,-0.0389 0.004,-0.0698 -0.006,-0.25321 -0.0187,-0.32301 -0.005,-0.0287 -0.01,-0.0559 -0.0101,-0.0604 -4.4e-4,-0.004 0.0227,-0.024 0.0514,-0.0434 0.0287,-0.0194 0.0701,-0.0532 0.0919,-0.0751 l 0.0397,-0.0398 0.0332,0.0149 c 0.15992,0.0717 0.28747,0.0146 0.36217,-0.16235 0.018,-0.0427 0.0161,-0.0445 -0.0155,-0.0154 -0.031,0.0286 -0.0405,0.0337 -0.072,0.0385 -0.0312,0.005 -0.0313,0.005 0.0101,-0.0345 0.0478,-0.0456 0.0677,-0.0786 0.0751,-0.12432 0.003,-0.0207 0.009,-0.0468 0.0119,-0.058 0.003,-0.0111 0.006,-0.0209 0.006,-0.0216 0,-7.6e-4 -0.0172,0.008 -0.0383,0.0196 -0.0356,0.0196 -0.043,0.0213 -0.10623,0.0254 -0.0714,0.005 -0.11664,0.018 -0.13738,0.0409 -0.055,0.0607 -0.0228,-0.0613 0.0343,-0.12982 l 0.0291,-0.0349 -0.0314,0.004 c -0.0369,0.004 -0.0886,0.0224 -0.10612,0.0368 -0.0787,0.0652 -0.10101,0.12631 -0.0943,0.25876 0.005,0.1 -0.004,0.11415 -0.12122,0.18711 -0.0495,0.0309 -0.0564,0.0297 -0.0667,-0.0111 -0.003,-0.0132 -0.0163,-0.0592 -0.0289,-0.10229 -0.033,-0.11334 -0.0479,-0.25486 -0.038,-0.36112 l 0.004,-0.0449 0.0242,-7e-5 c 0.0312,-7e-5 0.0703,-0.0189 0.13094,-0.063 0.0601,-0.0437 0.0699,-0.0445 0.14217,-0.0111 0.10669,0.0494 0.18348,0.0289 0.24677,-0.0659 0.0284,-0.0425 0.0311,-0.0575 0.008,-0.0407 -0.0443,0.0315 -0.10061,0.0389 -0.14052,0.0185 -0.0396,-0.0202 -0.037,-0.0237 0.023,-0.0319 0.0677,-0.009 0.14611,-0.0651 0.17361,-0.1238 0.0171,-0.0364 0.0151,-0.0392 -0.0175,-0.0244 -0.0329,0.0149 -0.0636,0.0149 -0.093,-1.1e-4 -0.0326,-0.0167 -0.0908,-0.0166 -0.11931,2.5e-4 -0.0114,0.007 -0.022,0.0108 -0.0237,0.009 -0.007,-0.007 0.0327,-0.0587 0.0578,-0.0752 0.0336,-0.0221 0.0325,-0.0275 -0.007,-0.0368 -0.0779,-0.0182 -0.13538,0.0145 -0.173,0.0983 -0.0143,0.0319 -0.0207,0.0537 -0.033,0.11359 -0.005,0.024 -0.13411,0.16374 -0.1514,0.16374 -0.0236,0 -0.006,-0.0503 0.0709,-0.20591 0.0367,-0.0741 0.0653,-0.13996 0.0729,-0.1682 0.0191,-0.0712 0.0189,-0.071 0.0504,-0.0803 0.0385,-0.0114 0.0734,-0.0296 0.11084,-0.0575 0.0281,-0.0209 0.0326,-0.0226 0.0435,-0.0158 0.10765,0.0673 0.19838,0.0488 0.24926,-0.0506 0.0182,-0.0356 0.01,-0.0394 -0.0346,-0.0152 -0.0531,0.0291 -0.11835,0.0205 -0.11835,-0.0156 0,-0.0223 0.009,-0.0269 0.0561,-0.0307 0.0616,-0.005 0.0963,-0.0272 0.11852,-0.0761 0.0183,-0.0403 0.0147,-0.0507 -0.0122,-0.0353 -0.009,0.005 -0.0315,0.008 -0.0596,0.009 -0.0542,2.5e-4 -0.0785,0.009 -0.0998,0.0373 -0.0313,0.041 -0.0668,0.024 -0.0447,-0.0213 0.007,-0.0134 0.0162,-0.0369 0.0215,-0.0521 0.005,-0.0152 0.0147,-0.0303 0.0209,-0.0336 0.0193,-0.0104 0.006,-0.0185 -0.023,-0.0142 -0.076,0.0114 -0.10585,0.0593 -0.11,0.17635 -0.003,0.0975 -0.0253,0.12973 -0.10266,0.15139 -0.0338,0.009 -0.0384,0.005 -0.0307,-0.0319 0.0215,-0.10206 0.003,-0.29987 -0.036,-0.39364 l -0.0169,-0.0404 0.0207,-0.0229 c 0.064,-0.0708 0.0449,-0.1962 -0.0385,-0.25316 -0.0377,-0.0257 -0.0376,-0.0258 -0.0376,0.0512 0,0.038 -0.002,0.0711 -0.004,0.0736 -0.0112,0.0112 -0.091,-0.0829 -0.10518,-0.12395 -0.009,-0.0267 -0.0139,-0.027 -0.0308,-0.002 -0.0191,0.0283 -0.0177,0.0716 0.004,0.13399 0.01,0.0271 0.0191,0.0541 0.021,0.06 0.005,0.0144 -0.0486,-0.0121 -0.0747,-0.037 -0.0238,-0.0227 -0.0242,-0.0224 -0.0202,0.0164 0.01,0.092 0.0571,0.12848 0.16747,0.12871 0.0539,1.1e-4 0.0624,10e-4 0.065,0.0103 0.0245,0.0805 0.0376,0.32856 0.0218,0.41037 -0.0207,0.1067 -0.0752,0.2024 -0.10376,0.18189 -0.0774,-0.0556 -0.12929,-0.10701 -0.12496,-0.12381 0.0244,-0.0946 -0.02,-0.20286 -0.1147,-0.27951 -0.0464,-0.0376 -0.049,-0.0357 -0.0274,0.0198 0.01,0.0247 0.0189,0.0605 0.0206,0.0795 l 0.003,0.0345 -0.0285,-0.0203 c -0.0408,-0.0291 -0.0559,-0.0342 -0.10147,-0.0342 -0.05,0 -0.0801,-0.0138 -0.10178,-0.0465 -0.0226,-0.0341 -0.0276,-0.0298 -0.0234,0.0199 0.007,0.0817 0.0344,0.12926 0.0901,0.15586 0.033,0.0158 0.0379,0.0301 0.012,0.0353 -0.0286,0.006 -0.0803,0.004 -0.0931,-0.003 -0.0207,-0.0111 0.002,0.0231 0.0369,0.0564 0.077,0.0729 0.13259,0.0828 0.28027,0.0501 0.01,-0.002 0.11517,0.0737 0.16654,0.11963 0.002,0.002 -0.008,0.0234 -0.0224,0.0471 -0.10257,0.166 -0.14325,0.37191 -0.11076,0.56088 0.01,0.0561 0.005,0.0601 -0.0346,0.0312 -0.0628,-0.0455 -0.0797,-0.0841 -0.078,-0.17859 0.003,-0.14101 -0.0359,-0.21139 -0.14211,-0.26078 -0.0671,-0.0312 -0.10602,-0.0364 -0.0771,-0.0104 0.0252,0.0226 0.0456,0.0672 0.0457,0.0995 7e-5,0.0369 -10e-4,0.0371 -0.0294,0.005 -0.0283,-0.0321 -0.0648,-0.047 -0.10281,-0.0418 -0.0956,0.013 -0.13494,0.002 -0.14921,-0.0434 -0.009,-0.0285 -0.016,-0.01 -0.0124,0.033 0.009,0.10292 0.0735,0.17331 0.17834,0.19396 0.0392,0.008 0.0423,0.0148 0.0164,0.0366 -0.0325,0.0274 -0.0822,0.0166 -0.15711,-0.0338 -0.0396,-0.0267 -0.0407,-0.0208 -0.009,0.0448 0.064,0.13161 0.17788,0.17606 0.3172,0.12392 0.0239,-0.009 0.0478,-0.0176 0.0529,-0.0192 0.019,-0.006 0.19467,0.17522 0.22241,0.22936 0.0403,0.0787 0.0806,0.3401 0.0777,0.50338 -0.002,0.12607 -9e-4,0.12207 -0.0381,0.11204 -0.14129,-0.0382 -0.24543,-0.13654 -0.34183,-0.32276 -0.098,-0.18927 -0.18666,-0.2939 -0.29629,-0.34959 -0.0526,-0.0267 -0.0563,-0.0248 -0.0369,0.0185 0.0294,0.0654 0.0353,0.1022 0.0337,0.21061 -10e-4,0.0915 -5.5e-4,0.10022 0.0117,0.12671 0.0158,0.0342 0.0139,0.0376 -0.0119,0.0216 -0.0467,-0.0288 -0.0809,-0.0741 -0.0763,-0.10101 0.0278,-0.16295 -0.0132,-0.41898 -0.0969,-0.6058 -0.0179,-0.0399 -0.0191,-0.0391 -0.0269,0.0192 -0.009,0.0661 -0.0281,0.10626 -0.0731,0.15299 -0.0416,0.0431 -0.0557,0.0669 -0.0557,0.0937 v 0.0187 l -0.0142,-0.0133 c -0.0415,-0.0389 -0.0443,-0.0761 -0.01,-0.1238 0.0999,-0.13686 0.1457,-0.34095 0.11133,-0.49587 -0.008,-0.0344 -0.018,-0.0536 -0.018,-0.0333 0,0.0334 -0.0437,0.0804 -0.11093,0.1191 -0.0236,0.0136 -0.0567,0.035 -0.0737,0.0476 -0.0366,0.0272 -0.0352,0.0279 -0.0396,-0.02 l -0.004,-0.0378 0.0272,-0.0196 c 0.18405,-0.13265 0.25767,-0.22447 0.29063,-0.3624 0.0184,-0.0771 0.013,-0.0837 -0.0312,-0.0383 -0.0428,0.044 -0.0652,0.054 -0.127,0.0565 -0.0273,0.001 -0.0573,0.004 -0.0669,0.006 l -0.0173,0.004 0.004,-0.0224 c 0.002,-0.0123 0.0107,-0.0344 0.0186,-0.0491 l 0.0145,-0.0267 0.0532,-0.004 c 0.10545,-0.007 0.17678,-0.0462 0.24886,-0.13668 0.0307,-0.0385 0.0702,-0.10502 0.0709,-0.11938 1.7e-4,-0.003 0.008,-0.007 0.0177,-0.009 0.0567,-0.0119 0.1205,-0.0649 0.17077,-0.14184 0.0367,-0.0562 0.0368,-0.0551 -0.007,-0.0551 -0.0199,0 -0.0584,-0.004 -0.0856,-0.009 -0.0271,-0.005 -0.0598,-0.009 -0.0725,-0.009 l -0.0232,-2.1e-4 0.0137,-0.0115 c 0.0349,-0.0291 0.0762,-0.0324 0.24784,-0.0195 0.087,0.006 0.1518,-0.0204 0.22037,-0.0914 0.0524,-0.0542 0.0495,-0.0725 -0.007,-0.0426 -0.0288,0.0153 -0.0579,0.0175 -0.12419,0.009 -0.0466,-0.006 -0.0253,-0.0151 0.0657,-0.029 0.0952,-0.0146 0.14269,-0.0365 0.17106,-0.0789 0.0524,-0.0784 -0.14051,-0.0542 -0.22675,0.0284 -0.0292,0.028 -0.039,0.0324 -0.039,0.0174 0,-0.0271 0.0287,-0.0575 0.0734,-0.0779 0.0869,-0.0395 0.0346,-0.0697 -0.0747,-0.0432 m -0.46895,0.51571 c 0.0164,0.0111 0.0448,0.0244 0.063,0.0298 0.0644,0.0188 0.0644,0.0188 0.0257,0.0193 -0.0285,3.7e-4 -0.0476,-0.004 -0.0884,-0.0198 -0.0286,-0.0112 -0.0559,-0.0203 -0.0608,-0.0203 -0.0134,0 -0.0105,-0.0148 0.004,-0.0219 0.0199,-0.01 0.0241,-0.009 0.0562,0.013 m 1.74113,-0.0113 c 0.0198,0.0102 0.0224,0.0202 0.005,0.0202 -0.006,0 -0.0351,0.009 -0.0637,0.0203 -0.0411,0.016 -0.0596,0.0202 -0.0884,0.0197 -0.034,-5.9e-4 -0.0351,-9.6e-4 -0.0161,-0.006 0.0558,-0.0155 0.0686,-0.0206 0.10115,-0.0406 0.0409,-0.0252 0.0394,-0.0248 0.0616,-0.0133"
       fill="#fbc724"
       fill-rule="evenodd"
       stroke-width="0.0290045"
       id="path129" />
  </g>
</svg>
