<?xml version="1.0"?>
<svg width="30" height="20" xmlns="http://www.w3.org/2000/svg"><symbol id="Flag_of_Eritrea" width="30" height="20" fill="#ffc72c" viewBox="0 0 5400 3600"><path d="M0 0h5400v3600H0Z" fill="#e4002b"/><path d="m0 0h5400v1800z" fill="#43b02a"/><path d="M5400 1800v1800H0Z" fill="#418fde"/><path id="a" d="m1110 1069c7 5 41-42 82-61 34-16 73-15 109-9-11 61-194 73-195 97 18 4 68-14 144-27-108 147-237 78-280 89-24 6-53 28-53 39 59-23 84 27 142-3-19 111-215 159-256 94-32 32-30 45-33 52 63-30 100 40 144-16-6 111-153 186-233 178-5 10-32 67-30 77 9-3 4-19 57-25 81-9 82-25 107-76 31 57-90 243-190 297-2 14 0 50 13 65 8-29 26-37 49-51 36-23 64-34 77-109 44 69-4 298-81 386 8 17 28 61 35 71-10-40 22-51 50-97 28-47 27-130 26-142 76 101 81 403 69 436 5 10 56 54 78 68 3-6 1-5-10-29-20-39-5-157-51-237 75 8 201 201 243 276 46 75 99 133 195 168 87 32 190 111 234 159l-42 36c-27-23-163-158-200-155-254 20-374-16-503-69-169-69-253-229-246-239 50 47 241 84 301 79l-29-28c-65 19-240-72-295-159-93-153-81-271-76-279 60 116 142 151 196 179l-4-28c-207-90-204-314-204-341 0-95 33-147 44-149-8 70 69 173 103 199l7-21c-70-59-94-168-102-230-12-110 101-234 116-242-24 122-1 176 20 221l10-24c-85-153 49-376 148-371-53 49-41 142-33 164l14-18c-21-155 126-243 180-262 33-10 79-11 79-4-15 17-112 51-111 145 5-6 33-22 48-27 19-83 121-141 205-141 10 0 17 2 19 3-5 3-95 80-87 91z"/><path d="m1386 2640c-8 84 12 103 0 119-15-15-80-2-87-10 25-48 35-392-20-581-26-22-100-110-122-130-46 38-224 39-261-105 28 19 104 47 144 40-61-22-157-94-147-187 15 10 37 42 56 49 22 8 74-2 91 8 18 11 36 43 40 52 6-16 4-94-52-114 16-14 73-2 111 47 55 76 32 148 42 178 8 25 67 81 82 92 0-42-32-108 9-254 15-51 63-127 73-160-22-24-79-80-91-87-12 0-123 20-169-9-25-14-47-32-57-56 16 2 101 13 102 4s-4-4-39-28c-25-23-56-53-53-136 17 25 30 59 78 50 31-5 65 33 73 52 1-19-8-76-39-111 10-13 112 67 117 137 1 23-2 40-4 59-1 13 81 92 104 86 10-1 33-103 42-151 11-58 34-170-10-236-10 7-62 27-127-43-27-31-29-63-19-72 10 17 60 59 72 51 4-17-63-24-38-122 4-12 14-17 21-18 8 43 45 50 72 110 11-20-2-47 2-65 4-20 3-43-8-52 11-3 31 0 63 75 17 44-2 107-11 121-1 17 24 35 32 105 9 60-13 149-17 167 19-12 42-23 50-47 8-28 1-83 28-126 18-32 50-55 101-39-6 17-20 8-39 29-15 24-22 42-16 60 12-2 9-23 32-37 35-18 50 1 71-4 19-6 31-19 37-27 6 16-3 64-63 102l-5 3c-21 11-22 4-26 7-6 7 10 14 36 11s50-12 55-29c6 4 14 35-49 76-41 25-111 16-132 5-10 6-77 47-83 61-13 57-68 190-119 282 1 8 41-4 84-42 19-16 47-132 85-163 33-25 71-21 101-19-15 5-60 30-60 73 6 5 16-18 44-23 26-3 49 13 69 13 20 1 53-17 57-23-18 88-101 112-156 116 11 17 74 32 130-8 3 9-19 63-96 87-83 25-94-22-129-20-34 1-64 33-78 41-22 12-55 11-61 19-9 12-8 112 7 182 11 48 34 122 47 168 20-20 75-28 110-111-12-37-35-187 146-223 4 8-30 23-42 45-16 24-17 69-12 85 18-22 36-53 97-49 38 2 64-11 85-37 7 2-6 68-41 107-30 35-70 51-75 66 24-2 64-5 125-62 3 14-32 92-103 129-45 20-125 20-171-6-12 20-54 76-107 103 21 190 18 268 11 350z"/><use transform="matrix(-1 0 0 1 2700 0)" href="#a"/></symbol><use href="#Flag_of_Eritrea"/><path d="M19 0h11v20H19z" fill="#fff"/><path transform="matrix(0 -.2.2 0 0 0)" d="m-67.54 110.8v-5.3h-27.47v5.3h10.36v28.8h6.6v-28.8zm7.68-5.3v5.3h6.48v23.5h-6.48v5.3h19.7v-5.3h-6.65v-23.5h6.65v-5.3zm53.235 30.1-.02-13.5h-12.195v5h5.64v6.1q-.26.3-.78.6-.49.3-1.14.5-.66.2-1.41.3t-1.52.1q-1.26 0-2.27-.4-.98-.4-1.73-1.1-.45-.4-.82-1-.35-.6-.63-1.3-.45-1.1-.7-2.7-.24-1.5-.24-3.3v-4.7q0-1.5.17-2.8.18-1.2.51-2.2.42-1.4 1.05-2.4.66-.9 1.45-1.6.61-.4 1.32-.6.7-.3 1.45-.3 1.38 0 2.36.4 1.01.4 1.66 1.1.59.6.91 1.6.36 1 .52 2.2h6.412q-.257-2.5-1.1-4.4-.819-2-2.292-3.4-1.48-1.3-3.63-2.1-2.13-.7-5.01-.7-1.87 0-3.56.5-1.68.5-3.11 1.6-1.21.8-2.24 2.1-1.01 1.2-1.78 2.7-.82 1.7-1.27 3.8-.44 2.1-.44 4.5v4.7q0 2.5.44 4.7.47 2.2 1.36 3.9.77 1.6 1.87 2.8 1.13 1.2 2.48 2 1.38.9 3.02 1.3 1.66.4 3.54.4 2.15 0 4.02-.4t3.4-1q1.494-.7 2.594-1.4 1.1-.8 1.731-1.6z"/></svg>
