<?xml version="1.0" encoding="UTF-8" standalone="no"?>
<!-- Creator: CorelDRAW Home & Student X8 -->

<svg
   xml:space="preserve"
   width="7.9375mm"
   height="5.291667mm"
   version="1.1"
   style="clip-rule:evenodd;fill-rule:evenodd;image-rendering:optimizeQuality;shape-rendering:geometricPrecision;text-rendering:geometricPrecision"
   viewBox="0 0 793.75 529.1667"
   id="svg5"
   sodipodi:docname="Tokelau.svg"
   inkscape:version="1.4 (86a8ad7, 2024-10-11)"
   xmlns:inkscape="http://www.inkscape.org/namespaces/inkscape"
   xmlns:sodipodi="http://sodipodi.sourceforge.net/DTD/sodipodi-0.dtd"
   xmlns="http://www.w3.org/2000/svg"
   xmlns:svg="http://www.w3.org/2000/svg"><sodipodi:namedview
   id="namedview5"
   pagecolor="#ffffff"
   bordercolor="#000000"
   borderopacity="0.25"
   inkscape:showpageshadow="2"
   inkscape:pageopacity="0.0"
   inkscape:pagecheckerboard="0"
   inkscape:deskcolor="#d1d1d1"
   inkscape:document-units="mm"
   inkscape:zoom="1.4234583"
   inkscape:cx="425.37248"
   inkscape:cy="283.46457"
   inkscape:window-width="1920"
   inkscape:window-height="1009"
   inkscape:window-x="-8"
   inkscape:window-y="-8"
   inkscape:window-maximized="1"
   inkscape:current-layer="Layer_x0020_1" />
 <defs
   id="defs1">
  <style
   type="text/css"
   id="style1">
   <![CDATA[
    .fil0 {fill:#373383}
    .fil2 {fill:#FEFEFE}
    .fil1 {fill:#FFD30A}
   ]]>
  </style>
 </defs>
 <g
   id="Layer_x0020_1"
   inkscape:label="Layer 1"
   inkscape:groupmode="layer">
  <metadata
   id="CorelCorpID_0Corel-Layer" />
  <rect
   class="fil0"
   width="793.75"
   height="529.16669"
   id="rect1"
   x="0"
   y="0"
   style="stroke-width:0.0352778" />
  <path
   class="fil1"
   d="m 145.23861,456.98834 c -7.90222,-0.0706 74.36556,-58.45528 143.22778,-133.20889 90.24056,-98.00167 284.58584,-254.881949 341.73584,-280.387783 5.96194,-2.681111 -12.24139,13.546667 -14.605,18.838334 -61.03056,96.273059 -12.31195,277.918339 63.92333,369.252499 22.93056,23.38917 21.73111,24.58862 64.24084,26.88167 v 5.29167 z"
   id="path1"
   style="stroke-width:0.0352778" />
  <path
   class="fil1"
   d="m 140.29972,467.60695 c 0,0 -5.82083,5.53861 -5.78555,9.66611 0,4.55083 6.49111,10.61861 6.49111,10.61861 l 590.33834,8.67834 10.86555,-9.66612 -15.20472,-12.52361 z"
   id="path2"
   style="stroke-width:0.0352778" />
  <polygon
   class="fil2"
   points="4799,2193 4643,1713 4487,2193 3982,2193 4390,2490 4234,2970 4643,2674 5051,2970 4895,2490 5304,2193 "
   id="polygon2"
   transform="scale(0.03527778)" />
  <polygon
   class="fil2"
   points="7391,4505 7261,4105 7131,4505 6710,4505 7050,4752 6920,5152 7261,4905 7601,5152 7471,4752 7811,4505 "
   id="polygon3"
   transform="scale(0.03527778)" />
  <polygon
   class="fil2"
   points="1432,5266 927,5266 1336,5563 1180,6043 1588,5747 1997,6043 1841,5563 2249,5266 1744,5266 1588,4786 "
   id="polygon4"
   transform="scale(0.03527778)" />
  <polygon
   class="fil2"
   points="4825,10089 4643,9529 4461,10089 3872,10089 4348,10435 4166,10995 4643,10649 5119,10995 4937,10435 5414,10089 "
   id="polygon5"
   transform="scale(0.03527778)" />
 </g>
</svg>
