<svg width="30" height="20" xmlns="http://www.w3.org/2000/svg"><symbol id="Flag_of_Malaysia" width="40" height="20" viewBox="0 0 672 336"><path d="M0 0h672v336H0z" fill="#fff"/><path d="M24 12h648m0 48H24m0 48h648m0 48H24" stroke="#c00" stroke-width="24"/><path d="M0 0h336v204H0z" fill="#006"/><path d="M0 204h672m0 48H0m0 48h672" stroke="#c00" stroke-width="24"/><path d="m210 36 5.35 36.6 20.7-30.65-11.1 35.3L256.9 58.6l-25.3 27 36.9-2.95L234 96l34.5 13.35-36.9-2.95 25.3 27-31.95-18.65 11.1 35.3-20.7-30.65L210 156l-5.35-36.6-20.7 30.65 11.1-35.3-31.95 18.65 25.3-27-36.9 2.95L186 96l-34.5-13.35 36.9 2.95-25.3-27 31.95 18.65-11.1-35.3 20.7 30.65zm-30 1.5a64 64 0 1 0 0 117 72 72 0 1 1 0-117z" fill="#fc0"/></symbol><use href="#Flag_of_Malaysia"/><path d="M19 0h11v20H19z" fill="#fff"/><path transform="matrix(0 -.2.2 0 0 0)" d="m-67.54 110.8v-5.3h-27.47v5.3h10.36v28.8h6.6v-28.8zm14.3-5.3h-8.17v34.1h6.04v-10.1l-.28-15.3 4 14.1h3.25l4.47-14.8-.28 16v10.1h6.04v-34.1h-8.17l-3.67 12.8zm25.41 34.1h5.95l2.85-18.4.26-1.8.26 1.8 2.97 18.4h5.943l4.728-34.1h-6.041l-2.31 19.1-.17 1.4-.21-1.4-2.85-19.1h-4.71l-2.69 19-.21 1.4-.16-1.4-2.27-19h-6.02z"/></svg>
