<?xml version="1.0"?>
<svg xmlns="http://www.w3.org/2000/svg" width="30" height="20" viewBox="0 0 1734 1156"><path d="m0 0h1734v1156H0z" fill="#c8e1ed"/><g transform="scale(1 -1)" fill="#11119a"><path d="m838 -161c-14-14-16-126-3-147 5-8 16-11 25-8 12 5 16 21 16 71 0 89-10 112-38 84z"/><path d="m1057 -224c-27-57-32-108-10-113 18-3 84 122 75 144-11 30-44 15-65-31z"/><path d="m570 -202c-8-22 59-158 76-154 38 7-11 167-51 167-11 0-22-6-25-13z"/><path d="m790 -409c-50-7-128-52-175-100-98-100-65-346 57-423 63-40 107-50 200-44 125 7 212 62 275 172 53 92 32 220-51 317-62 71-170 99-306 78z"/><path d="m979 -460c47-13 112-70 138-120 24-48 26-147 3-190-22-43-82-108-117-125-137-71-277-55-351 41-39 52-51 92-51 175 1 77 19 113 82 161 80 63 198 86 296 58z" fill="#ff7"/><path d="m998 -632c-5-7-15-28-21-48-21-67-100-120-144-98-30 15-65 56-88 102-21 40-51 48-57 14-5-26 53-111 96-141 89-62 204-7 252 119 15 40-15 81-38 52z"/></g></svg>
