<?xml version="1.0" encoding="UTF-8" standalone="no"?>
<!-- Created with Inkscape (http://www.inkscape.org/) -->

<svg
   width="7.9375mm"
   height="5.2916999mm"
   viewBox="0 0 7.9375002 5.2917001"
   version="1.1"
   id="svg1"
   inkscape:version="1.4 (86a8ad7, 2024-10-11)"
   sodipodi:docname="tpi.svg"
   xmlns:inkscape="http://www.inkscape.org/namespaces/inkscape"
   xmlns:sodipodi="http://sodipodi.sourceforge.net/DTD/sodipodi-0.dtd"
   xmlns:xlink="http://www.w3.org/1999/xlink"
   xmlns="http://www.w3.org/2000/svg"
   xmlns:svg="http://www.w3.org/2000/svg">
  <sodipodi:namedview
     id="namedview1"
     pagecolor="#ffffff"
     bordercolor="#000000"
     borderopacity="0.25"
     inkscape:showpageshadow="2"
     inkscape:pageopacity="0.0"
     inkscape:pagecheckerboard="0"
     inkscape:deskcolor="#d1d1d1"
     inkscape:document-units="mm"
     inkscape:zoom="0.71891835"
     inkscape:cx="334.53034"
     inkscape:cy="420.07552"
     inkscape:window-width="1904"
     inkscape:window-height="992"
     inkscape:window-x="-26"
     inkscape:window-y="145"
     inkscape:window-maximized="0"
     inkscape:current-layer="layer1" />
  <defs
     id="defs1">
    <radialGradient
       id="n"
       cx="489.07001"
       cy="210.33"
       r="0.345"
       gradientTransform="matrix(0.00861722,0,0,0.0090267,-825.15993,-674.59387)"
       gradientUnits="userSpaceOnUse">
      <stop
         style="stop-color:#fff"
         offset="0"
         id="stop19" />
      <stop
         style="stop-color:#fff;stop-opacity:0"
         offset="1"
         id="stop21" />
    </radialGradient>
    <radialGradient
       id="m"
       cx="477.85999"
       cy="215.27"
       r="0.345"
       gradientUnits="userSpaceOnUse"
       gradientTransform="matrix(0.00881945,0,0,0.00881945,-825.15993,-674.59387)">
      <stop
         style="stop-color:#a50a0a"
         offset=".259"
         id="stop14" />
      <stop
         style="stop-color:#4c0505"
         offset="1"
         id="stop16" />
    </radialGradient>
    <linearGradient
       id="l"
       x1="473.31"
       x2="475.92999"
       y1="237.25"
       y2="270.45001"
       gradientUnits="userSpaceOnUse"
       gradientTransform="matrix(0.00881945,0,0,0.00881945,-825.15993,-674.59387)">
      <stop
         style="stop-color:#f9f0aa"
         offset=".216"
         id="stop39" />
      <stop
         style="stop-color:#b07e09"
         offset="1"
         id="stop41" />
    </linearGradient>
    <linearGradient
       id="k"
       x1="451.54001"
       x2="455.37"
       y1="249.52"
       y2="240.58"
       gradientUnits="userSpaceOnUse"
       gradientTransform="matrix(0.00881945,0,0,0.00881945,-825.15993,-674.59387)">
      <stop
         style="stop-color:#f9f0aa"
         offset=".216"
         id="stop34" />
      <stop
         style="stop-color:#b07e09"
         offset="1"
         id="stop36" />
    </linearGradient>
    <radialGradient
       id="j"
       cx="445.98001"
       cy="252.36"
       r="13.018"
       gradientUnits="userSpaceOnUse"
       xlink:href="#a"
       gradientTransform="matrix(0.00881945,0,0,0.00881945,-825.15993,-674.59387)" />
    <radialGradient
       id="a">
      <stop
         style="stop-color:#f9f0aa"
         offset=".216"
         id="stop4" />
      <stop
         style="stop-color:#b07e09"
         offset="1"
         id="stop6" />
    </radialGradient>
    <linearGradient
       id="i"
       x1="483.13"
       x2="485.5"
       y1="296.66"
       y2="326.57999"
       gradientUnits="userSpaceOnUse"
       gradientTransform="matrix(0.00881945,0,0,0.00881945,-825.15993,-674.59387)">
      <stop
         style="stop-color:#b07e09;stop-opacity:0"
         offset=".216"
         id="stop29" />
      <stop
         style="stop-color:#b07e09"
         offset="1"
         id="stop31" />
    </linearGradient>
    <linearGradient
       id="h"
       x1="473.91"
       x2="472.35999"
       y1="259.17001"
       y2="231.96001"
       gradientUnits="userSpaceOnUse"
       gradientTransform="matrix(0.00881945,0,0,0.00881945,-825.15993,-674.59387)">
      <stop
         style="stop-color:#b07e09;stop-opacity:0"
         offset=".216"
         id="stop24" />
      <stop
         style="stop-color:#b07e09"
         offset="1"
         id="stop26" />
    </linearGradient>
    <radialGradient
       id="g"
       cx="458.39001"
       cy="307.06"
       r="17.354"
       gradientUnits="userSpaceOnUse"
       xlink:href="#a"
       gradientTransform="matrix(0.00881945,0,0,0.00881945,-825.15993,-674.59387)" />
    <radialGradient
       id="radialGradient2">
      <stop
         style="stop-color:#f9f0aa"
         offset=".216"
         id="stop1" />
      <stop
         style="stop-color:#b07e09"
         offset="1"
         id="stop2" />
    </radialGradient>
    <radialGradient
       id="f"
       cx="454.10999"
       cy="308.64001"
       r="9.7799997"
       gradientUnits="userSpaceOnUse"
       xlink:href="#a"
       gradientTransform="matrix(0.00881945,0,0,0.00881945,-825.15993,-674.59387)" />
    <radialGradient
       id="radialGradient5">
      <stop
         style="stop-color:#f9f0aa"
         offset=".216"
         id="stop3" />
      <stop
         style="stop-color:#b07e09"
         offset="1"
         id="stop5" />
    </radialGradient>
    <radialGradient
       id="e"
       cx="451.56"
       cy="313"
       r="10.911"
       gradientUnits="userSpaceOnUse"
       xlink:href="#a"
       gradientTransform="matrix(0.00881945,0,0,0.00881945,-825.15993,-674.59387)" />
    <radialGradient
       id="radialGradient8">
      <stop
         style="stop-color:#f9f0aa"
         offset=".216"
         id="stop7" />
      <stop
         style="stop-color:#b07e09"
         offset="1"
         id="stop8" />
    </radialGradient>
    <radialGradient
       id="d"
       cx="447.42001"
       cy="308.26999"
       r="16.534"
       gradientUnits="userSpaceOnUse"
       xlink:href="#a"
       gradientTransform="matrix(0.00881945,0,0,0.00881945,-825.15993,-674.59387)" />
    <radialGradient
       id="radialGradient10">
      <stop
         style="stop-color:#f9f0aa"
         offset=".216"
         id="stop9" />
      <stop
         style="stop-color:#b07e09"
         offset="1"
         id="stop10" />
    </radialGradient>
    <radialGradient
       id="e-9"
       cx="380.84"
       cy="740.37"
       r="25.858999"
       gradientTransform="matrix(7.0234215e-4,8.3694522e-4,-0.00162376,0.00140249,-873.47471,-923.33034)"
       gradientUnits="userSpaceOnUse"
       xlink:href="#a-6" />
    <linearGradient
       id="a-6">
      <stop
         stop-color="#fff"
         offset="0"
         id="stop2-5" />
      <stop
         stop-color="#f15770"
         offset="1"
         id="stop4-1" />
    </linearGradient>
    <radialGradient
       id="f-0"
       cx="651.52002"
       cy="550.46002"
       r="25.858999"
       gradientTransform="matrix(-1.9245334e-4,-0.00208924,0.00193863,-1.8385685e-4,-876.73368,-920.80848)"
       gradientUnits="userSpaceOnUse"
       xlink:href="#a-6" />
    <radialGradient
       id="g-6"
       cx="842.31"
       cy="103.66"
       r="25.858999"
       gradientTransform="matrix(0.00194862,8.2390338e-4,-8.0461878e-4,0.00195837,-876.97359,-922.9887)"
       gradientUnits="userSpaceOnUse"
       xlink:href="#a-6" />
  </defs>
  <g
     inkscape:label="Layer 1"
     inkscape:groupmode="layer"
     id="layer1"
     transform="translate(950.74892,1107.8611)">
    <path
       id="path162"
       d="m -950.74892,-1107.8611 h 7.9375 v 5.2917 h -7.9375 z"
       style="stroke-width:0.0117592" />
    <path
       d="m -948.7255,-1104.0155 0.10524,-0.3385 0.10523,0.3422 -0.27711,-0.2097 h 0.34375 z"
       id="path141"
       style="fill:#ffffff;stroke-width:0.00918693" />
    <path
       id="path144"
       d="m -948.98117,-1106.2212 -0.21047,0.6771 0.55422,-0.4122 h -0.68751 l 0.55422,0.4195 z"
       style="fill:#ffffff;stroke-width:0.00918693" />
    <path
       id="path147"
       d="m -949.78962,-1105.1877 -0.21046,0.6771 0.55421,-0.4121 h -0.68751 l 0.55422,0.4195 z"
       style="fill:#ffffff;stroke-width:0.00918693" />
    <path
       id="path150"
       d="m -948.17656,-1105.2612 -0.21047,0.6771 0.55422,-0.4121 h -0.68751 l 0.55422,0.4195 z"
       style="fill:#ffffff;stroke-width:0.00918693" />
    <path
       id="path153"
       d="m -948.98117,-1103.7913 -0.21047,0.6771 0.55422,-0.4121 h -0.68751 l 0.55422,0.4195 z"
       style="fill:#ffffff;stroke-width:0.00918693" />
    <path
       d="m -950.74892,-1107.8611 h 7.9375 v 5.2917 z"
       fill="#ce1126"
       id="path156"
       style="stroke-width:0.0117592" />
    <path
       d="m -945.49876,-1106.3236 c -0.0521,0.067 -0.17543,-0.068 -0.32315,-0.071 -0.14772,0 -0.25236,0.1416 -0.29545,0.1909 -0.0431,0.049 -0.18157,0.3077 -0.17849,0.3354 0.003,0.028 0.0862,-0.077 0.11695,-0.095 0.003,0.037 -0.0339,0.08 -0.0246,0.092 0.009,0.012 0.10771,-0.074 0.14157,-0.077 0.009,0.025 -0.0185,0.049 -0.009,0.086 0.0123,0.012 0.0677,-0.062 0.10465,-0.077 0.006,0.028 -0.0339,0.08 -0.0123,0.1139 0.0154,0 0.10771,-0.1046 0.13849,-0.117 0.0308,-0.012 -0.0154,0.1016 0,0.1108 0.0277,-0.018 0.11388,-0.1169 0.14158,-0.1292 0.0277,-0.012 -0.003,0.1262 0.009,0.1262 0.0339,-0.025 0.12003,-0.1416 0.12926,-0.1601 0.009,-0.018 -0.009,0.1785 0.0862,0.2832 0.0954,0.1046 0.24007,0.2246 0.25545,0.2246 0.0185,-0.034 -0.006,-0.1046 0.009,-0.1015 0.0431,0.046 0.1231,0.1138 0.14157,0.1138 0.0185,0 -0.0123,-0.074 0.0123,-0.074 0.0493,0.046 0.19082,0.2277 0.46781,0.3108 -0.0185,-0.052 -0.0585,-0.099 -0.0616,-0.1231 0.0185,0 0.0831,0.034 0.0954,0.031 0.0123,0 -0.13542,-0.1847 -0.12619,-0.2093 0.0339,0 0.0493,0.019 0.0616,0 -0.0154,-0.025 -0.14465,-0.1693 -0.14465,-0.2031 0,-0.034 0.04,0.01 0.0523,0 0.0123,-0.01 -0.0492,-0.1355 -0.0369,-0.1508 0.0123,-0.015 0.14772,0.083 0.18158,0.083 0.0339,0 0.009,-0.1201 0.0246,-0.1262 0.0154,-0.01 0.12927,0.065 0.15388,0.065 0.0246,0 0.0215,-0.052 0.0308,-0.046 0.009,0.01 0.27699,0.2739 0.18466,0.5879 -0.0923,0.2246 -0.27698,0.3447 -0.54782,0.2462 0.0154,0.025 0.16003,0.1446 0.317,0.1015 0.15696,-0.043 0.34777,-0.1662 0.32622,-0.4739 -0.0215,-0.3078 -0.12311,-0.3509 -0.13849,-0.397 -0.0154,-0.046 0.0246,0.012 0.0585,0.025 0.0338,0.012 -0.006,-0.065 -0.0154,-0.099 -0.009,-0.034 0.10156,0.071 0.12926,0.08 0.0277,0.01 -0.0646,-0.2523 -0.0923,-0.2708 -0.0277,-0.019 0.0277,0.01 0.0462,0.012 0.0185,0.01 -0.16928,-0.2862 -0.20928,-0.2862 -0.04,0 0.0338,-0.015 0.0554,-0.015 0.0215,0 -0.21541,-0.1908 -0.25543,-0.1908 -0.04,0 0.0862,-0.049 0.0985,-0.052 0.0216,0 -0.2739,-0.157 -0.53859,0 -0.0154,-0.012 0.12465,-0.1092 0.12926,-0.1508 0.002,-0.011 -0.0462,-0.034 -0.0492,-0.046 -0.003,-0.012 0.0739,-0.049 0.0769,-0.077 -0.0185,-0.025 -0.0523,-0.015 -0.0708,-0.022 -0.005,-0.023 0.0646,-0.08 0.0585,-0.1046 -0.005,-0.014 -0.0554,-0.019 -0.0677,-0.01 -0.0123,0.01 0.0323,-0.065 0.0246,-0.086 -0.006,-0.01 -0.0308,0 -0.0554,0 -0.0154,0 0.08,-0.1354 0.0616,-0.1539 -0.0185,-0.018 -0.27699,0.1355 -0.37239,0.3078 -0.0954,0.1723 -0.0215,0.3109 -0.0338,0.3693 -0.0123,0.059 -0.0277,0.117 -0.0677,0.117 -0.04,0 -0.13233,-0.062 -0.16312,-0.092 -0.0308,-0.031 -0.0369,-0.052 -0.08,-0.065 -0.0431,-0.012 -0.14157,0.025 -0.17849,0.028 -0.0369,0 -0.18159,-0.028 -0.19082,-0.019 -0.009,0.01 0.14157,0.065 0.17542,0.083 0.0339,0.019 0.037,0.043 0.0616,0.059 0.0246,0.015 0.25543,0.083 0.18157,0.1785 z m 0.90174,0.434 c 0.0739,0.074 0.57244,0.4062 0.57244,0.8125 0,0.4062 -0.36316,0.3939 -0.4678,0.3816 0.11695,0.099 0.56013,0.08 0.56013,-0.3816 0,-0.4063 -0.57244,-0.8125 -0.6463,-0.8495 -0.0739,-0.037 -0.0923,-0.037 -0.0185,0.037 z"
       fill="#fcd116"
       id="path159"
       style="stroke-width:0.0117592" />
  </g>
</svg>
