<?xml version="1.0"?>
<svg width="30" height="20" xmlns="http://www.w3.org/2000/svg"><path d="M0 0h30v20H0z" fill="#fff"/><path transform="scale(.1)" d="m102.6 63.2v-16.89h-86.58v16.89h32.67v90.5h20.8v-90.5zm83.3-16.89h-20.6l-.1 71.19q0 5.2-1.1 9.2-1 4-3.1 6.6-1.9 2.6-4.8 4-2.9 1.2-6.7 1.2-3.4 0-6.1-1.2t-4.5-3.7q-2-2.6-3-6.7-1-4-1.1-9.4v-71.19h-20.8v71.19q0 9 2.5 16.1 2.6 7 7.2 11.8 4.7 4.8 11.1 7.3 6.6 2.5 14.7 2.5 8.7 0 15.4-2.5t11.5-7.4q4.6-4.8 7-11.8 2.6-7 2.6-16zm44.5 0h-25.7v107.39h19v-31.8l-.9-48.22 12.6 44.62h10.3l14.1-46.62-.9 50.22v31.8h19v-107.39h-25.7l-11.6 40.35z"/></svg>
