<?xml version="1.0" encoding="UTF-8" standalone="no"?>
<!-- Creator: CorelDRAW Home & Student X8 -->

<svg
   xml:space="preserve"
   width="7.9375005mm"
   height="5.291667mm"
   version="1.1"
   style="clip-rule:evenodd;fill-rule:evenodd;image-rendering:optimizeQuality;shape-rendering:geometricPrecision;text-rendering:geometricPrecision"
   viewBox="0 0 793.75005 529.1667"
   id="svg8"
   sodipodi:docname="Tuva.svg"
   inkscape:version="1.4 (86a8ad7, 2024-10-11)"
   xmlns:inkscape="http://www.inkscape.org/namespaces/inkscape"
   xmlns:sodipodi="http://sodipodi.sourceforge.net/DTD/sodipodi-0.dtd"
   xmlns="http://www.w3.org/2000/svg"
   xmlns:svg="http://www.w3.org/2000/svg"><sodipodi:namedview
   id="namedview8"
   pagecolor="#ffffff"
   bordercolor="#000000"
   borderopacity="0.25"
   inkscape:showpageshadow="2"
   inkscape:pageopacity="0.0"
   inkscape:pagecheckerboard="0"
   inkscape:deskcolor="#d1d1d1"
   inkscape:document-units="mm"
   inkscape:zoom="1.4234583"
   inkscape:cx="425.37248"
   inkscape:cy="283.46457"
   inkscape:window-width="1920"
   inkscape:window-height="1009"
   inkscape:window-x="-8"
   inkscape:window-y="-8"
   inkscape:window-maximized="1"
   inkscape:current-layer="Layer_x0020_1" />
 <defs
   id="defs1">
  <style
   type="text/css"
   id="style1">
   <![CDATA[
    .fil0 {fill:#64B0E2}
    .fil2 {fill:#FECC09}
    .fil1 {fill:#FEFEFE}
   ]]>
  </style>
 </defs>
 <g
   id="Layer_x0020_1"
   inkscape:label="Layer 1"
   inkscape:groupmode="layer">
  <metadata
   id="CorelCorpID_0Corel-Layer" />
  <g
   id="_512735352"
   transform="scale(0.03527778)">
   <polygon
   class="fil0"
   points="0,0 0,15000 22500,15000 22500,0 "
   id="polygon1" />
   <g
   id="g4">
    <polygon
   class="fil1"
   points="3536,0 0,0 8250,8250 10017,6482 "
   id="polygon2" />
    <polygon
   class="fil1"
   points="0,15000 3536,15000 10017,8518 8250,6750 "
   id="polygon3" />
    <polygon
   class="fil1"
   points="0,6250 0,8750 22500,8750 22500,6250 "
   id="polygon4" />
   </g>
   <g
   id="g7">
    <polygon
   class="fil0"
   points="2357,0 1179,0 9133,7955 9723,7366 "
   id="polygon5" />
    <polygon
   class="fil0"
   points="1179,15000 2357,15000 9723,7634 9133,7045 "
   id="polygon6" />
    <polygon
   class="fil0"
   points="9167,7083 9167,7917 22500,7917 22500,7083 "
   id="polygon7" />
   </g>
   <polygon
   class="fil2"
   points="0,0 7500,7500 0,15000 "
   id="polygon8" />
  </g>
 </g>
</svg>
