<?xml version="1.0" encoding="UTF-8" standalone="no"?>
<!-- Creator: CorelDRAW Home & Student X8 -->

<svg
   xml:space="preserve"
   width="7.9375005mm"
   height="5.291667mm"
   version="1.1"
   style="clip-rule:evenodd;fill-rule:evenodd;image-rendering:optimizeQuality;shape-rendering:geometricPrecision;text-rendering:geometricPrecision"
   viewBox="0 0 793.75005 529.1667"
   id="svg4"
   sodipodi:docname="Udmurtya.svg"
   inkscape:version="1.4 (86a8ad7, 2024-10-11)"
   xmlns:inkscape="http://www.inkscape.org/namespaces/inkscape"
   xmlns:sodipodi="http://sodipodi.sourceforge.net/DTD/sodipodi-0.dtd"
   xmlns="http://www.w3.org/2000/svg"
   xmlns:svg="http://www.w3.org/2000/svg"><sodipodi:namedview
   id="namedview4"
   pagecolor="#ffffff"
   bordercolor="#000000"
   borderopacity="0.25"
   inkscape:showpageshadow="2"
   inkscape:pageopacity="0.0"
   inkscape:pagecheckerboard="0"
   inkscape:deskcolor="#d1d1d1"
   inkscape:document-units="mm"
   inkscape:zoom="1.4234583"
   inkscape:cx="425.37248"
   inkscape:cy="283.46457"
   inkscape:window-width="1920"
   inkscape:window-height="1009"
   inkscape:window-x="-8"
   inkscape:window-y="-8"
   inkscape:window-maximized="1"
   inkscape:current-layer="Layer_x0020_1" />
 <defs
   id="defs1">
  <style
   type="text/css"
   id="style1">
   <![CDATA[
    .fil0 {fill:#2B2A29;fill-rule:nonzero}
    .fil2 {fill:#E33724;fill-rule:nonzero}
    .fil1 {fill:#FEFEFE;fill-rule:nonzero}
   ]]>
  </style>
 </defs>
 <g
   id="Layer_x0020_1"
   inkscape:label="Layer 1"
   inkscape:groupmode="layer"
   transform="translate(0,9)">
  <metadata
   id="CorelCorpID_0Corel-Layer" />
  <polygon
   class="fil0"
   points="0,-9 0,14991 7500,14991 7500,-9 "
   id="polygon1"
   transform="matrix(0.03527778,0,0,0.03527778,0,-8.6825)" />
  <polygon
   class="fil1"
   points="7500,-9 7500,14991 15000,14991 15000,-9 "
   id="polygon2"
   transform="matrix(0.03527778,0,0,0.03527778,0,-8.6825)" />
  <polygon
   class="fil2"
   points="15000,-9 15000,14991 22500,14991 22500,-9 "
   id="polygon3"
   transform="matrix(0.03527778,0,0,0.03527778,0,-8.6825)" />
  <polygon
   class="fil2"
   points="12292,4366 12292,10616 8125,6450 14375,6450 10208,10616 10208,4366 14375,8533 8125,8533 "
   id="polygon4"
   transform="matrix(0.03527778,0,0,0.03527778,0,-8.6825)" />
 </g>
</svg>
