<?xml version="1.0" encoding="UTF-8" standalone="no"?>
<!-- Creator: CorelDRAW Home & Student X8 -->

<svg
   xml:space="preserve"
   width="7.9375005mm"
   height="5.291667mm"
   version="1.1"
   style="clip-rule:evenodd;fill-rule:evenodd;image-rendering:optimizeQuality;shape-rendering:geometricPrecision;text-rendering:geometricPrecision"
   viewBox="0 0 793.75005 529.1667"
   id="svg2"
   sodipodi:docname="Doğu Türkistan.svg"
   inkscape:version="1.4 (86a8ad7, 2024-10-11)"
   xmlns:inkscape="http://www.inkscape.org/namespaces/inkscape"
   xmlns:sodipodi="http://sodipodi.sourceforge.net/DTD/sodipodi-0.dtd"
   xmlns="http://www.w3.org/2000/svg"
   xmlns:svg="http://www.w3.org/2000/svg"><sodipodi:namedview
   id="namedview2"
   pagecolor="#ffffff"
   bordercolor="#000000"
   borderopacity="0.25"
   inkscape:showpageshadow="2"
   inkscape:pageopacity="0.0"
   inkscape:pagecheckerboard="0"
   inkscape:deskcolor="#d1d1d1"
   inkscape:document-units="mm"
   inkscape:zoom="1.4234583"
   inkscape:cx="425.37248"
   inkscape:cy="283.46457"
   inkscape:window-width="1920"
   inkscape:window-height="1009"
   inkscape:window-x="-8"
   inkscape:window-y="-8"
   inkscape:window-maximized="1"
   inkscape:current-layer="Layer_x0020_1" />
 <defs
   id="defs1">
  <style
   type="text/css"
   id="style1">
   <![CDATA[
    .fil0 {fill:#5B9AD3}
    .fil1 {fill:#FEFEFE}
   ]]>
  </style>
 </defs>
 <g
   id="Layer_x0020_1"
   inkscape:label="Layer 1"
   inkscape:groupmode="layer">
  <metadata
   id="CorelCorpID_0Corel-Layer" />
  <g
   id="_512558432"
   transform="scale(0.03527778)">
   <polygon
   class="fil0"
   points="0,15000 0,0 22500,0 22500,15000 "
   id="polygon1" />
   <path
   class="fil1"
   d="m 7500,3750 c 1334,0 2506,697 3170,1747 -549,-612 -1346,-997 -2232,-997 -1657,0 -3000,1343 -3000,3000 0,1657 1343,3000 3000,3000 886,0 1683,-385 2232,-997 -664,1050 -1836,1747 -3170,1747 -2071,0 -3750,-1679 -3750,-3750 0,-2071 1679,-3750 3750,-3750 z"
   id="path1" />
   <polygon
   class="fil1"
   points="12533,6822 13829,6398 13025,7500 13829,8602 12533,8178 11733,9283 11736,7919 10438,7500 11736,7081 11733,5717 "
   id="polygon2" />
  </g>
 </g>
</svg>
