<svg id="svg" version="1.1" width="400" height="266.6666666666667" viewBox="0 0 400 266.6666666666667" xmlns="http://www.w3.org/2000/svg" xmlns:xlink="http://www.w3.org/1999/xlink" ><g id="svgg"><path id="path0" d="M95.025 77.620 C 89.749 79.976,86.353 86.388,88.771 89.430 C 89.574 90.441,91.973 92.533,92.328 92.533 C 92.913 92.533,92.466 94.092,91.667 94.838 C 90.041 96.357,84.760 100.398,83.527 101.067 C 81.708 102.053,81.397 103.526,82.667 105.140 C 83.717 106.474,88.222 103.705,94.443 97.901 C 96.798 95.705,97.062 95.608,99.583 96.014 C 102.490 96.483,103.371 96.248,103.777 94.893 C 104.228 93.388,103.753 92.621,101.960 91.958 C 100.066 91.256,99.915 90.581,101.191 88.513 C 103.649 84.531,103.621 78.132,101.143 77.314 C 99.292 76.704,96.798 76.828,95.025 77.620 M290.116 77.544 C 284.998 79.779,281.283 85.467,283.004 88.435 C 283.805 89.815,285.694 92.054,286.286 92.324 C 287.506 92.880,286.862 95.493,285.415 95.856 C 285.010 95.957,284.119 96.542,283.435 97.154 C 282.751 97.766,281.387 98.807,280.404 99.467 C 276.883 101.830,276.541 102.315,277.054 104.218 C 277.672 106.516,277.627 106.521,281.937 103.637 C 284.301 102.056,286.785 100.113,288.306 98.657 C 290.939 96.135,292.103 95.531,293.715 95.848 C 296.052 96.309,297.069 96.326,297.696 95.915 C 299.075 95.012,298.780 92.267,297.303 92.267 C 294.941 92.267,294.702 90.933,296.400 87.228 C 299.748 79.925,296.417 74.793,290.116 77.544 M97.243 83.395 C 97.877 84.912,97.133 87.200,96.006 87.200 C 95.129 87.200,94.268 86.286,94.002 85.074 C 93.497 82.778,96.365 81.293,97.243 83.395 M291.960 83.533 C 292.758 85.639,290.975 88.045,289.564 86.767 C 288.234 85.563,288.168 83.860,289.414 82.865 C 290.410 82.071,291.516 82.361,291.960 83.533 M146.640 103.998 C 146.112 104.277,145.464 104.834,145.201 105.236 C 144.938 105.638,144.375 106.258,143.952 106.615 C 141.918 108.326,142.125 109.458,145.003 112.385 C 147.902 115.333,148.294 115.424,150.372 113.625 C 154.786 109.800,154.831 109.422,151.267 105.985 C 148.491 103.308,148.189 103.179,146.640 103.998 M103.287 107.061 C 101.523 107.956,96.971 112.642,95.759 114.812 C 95.271 115.685,94.592 116.774,94.250 117.230 C 93.908 117.687,93.548 118.407,93.449 118.830 C 93.351 119.254,93.116 119.848,92.927 120.151 C 92.739 120.454,92.331 121.555,92.021 122.597 C 91.710 123.640,91.279 124.832,91.063 125.246 C 90.847 125.661,90.669 126.363,90.668 126.807 C 90.667 127.251,90.505 127.851,90.308 128.141 C 89.944 128.675,89.541 131.212,89.019 136.267 C 88.440 141.862,88.809 144.023,90.621 145.660 C 92.208 147.094,96.444 149.233,98.119 149.447 C 98.918 149.549,100.238 149.874,101.053 150.169 C 102.981 150.867,105.881 151.421,109.200 151.725 C 114.265 152.189,114.570 152.596,112.625 156.299 C 111.412 158.609,110.837 159.359,107.667 162.761 C 106.970 163.508,106.400 164.210,106.400 164.320 C 106.400 164.431,105.950 164.746,105.400 165.020 C 104.138 165.650,101.024 167.437,100.654 167.744 C 100.013 168.276,95.508 170.486,94.400 170.813 C 93.740 171.008,92.326 171.471,91.259 171.842 C 85.612 173.803,79.628 173.783,72.133 171.779 C 68.539 170.817,64.344 169.136,63.749 168.418 C 63.398 167.996,63.347 168.008,63.028 168.582 C 62.548 169.448,62.586 169.978,63.167 170.503 C 63.442 170.752,63.736 171.383,63.821 171.904 C 63.918 172.504,64.394 173.313,65.121 174.112 C 65.751 174.806,66.581 175.724,66.964 176.153 C 67.348 176.582,68.467 177.593,69.452 178.400 C 70.436 179.207,71.638 180.197,72.123 180.600 C 72.607 181.003,73.150 181.333,73.328 181.333 C 73.507 181.333,73.972 181.675,74.361 182.092 C 74.998 182.773,82.638 187.060,84.467 187.761 C 87.038 188.748,92.903 189.063,95.716 188.366 C 98.989 187.556,105.869 183.654,106.273 182.380 C 106.364 182.094,106.759 181.693,107.152 181.489 C 108.016 181.039,109.625 179.105,113.131 174.301 C 114.620 172.261,119.217 163.870,119.939 161.874 C 120.285 160.917,120.680 160.019,120.817 159.880 C 120.955 159.741,121.070 159.441,121.073 159.213 C 121.076 158.986,121.378 158.080,121.744 157.200 C 122.109 156.320,122.580 154.400,122.789 152.933 C 122.999 151.467,123.385 149.847,123.646 149.333 C 124.510 147.636,124.309 133.001,123.372 129.473 C 122.984 128.009,122.667 126.593,122.667 126.325 C 122.667 126.057,122.438 125.334,122.158 124.719 C 121.686 123.681,121.310 122.687,119.988 118.980 C 119.709 118.200,119.181 117.204,118.814 116.768 C 118.448 116.333,117.907 115.431,117.612 114.766 C 116.529 112.317,112.615 108.080,110.491 107.057 C 108.703 106.196,104.989 106.198,103.287 107.061 M298.000 106.885 C 295.787 107.939,290.995 113.315,289.590 116.319 C 289.295 116.950,288.884 117.767,288.678 118.133 C 287.942 119.440,286.915 121.833,286.524 123.148 C 286.306 123.883,285.949 124.825,285.732 125.242 C 285.515 125.659,285.336 126.363,285.335 126.807 C 285.334 127.251,285.170 127.851,284.969 128.141 C 284.320 129.079,283.372 137.057,283.376 141.546 C 283.379 144.834,287.528 148.221,293.200 149.566 C 296.497 150.348,298.270 150.845,298.846 151.151 C 299.114 151.293,301.133 151.553,303.333 151.729 C 308.325 152.127,308.888 152.307,308.655 153.438 C 308.397 154.695,305.618 159.437,304.776 160.060 C 304.367 160.362,303.899 160.933,303.735 161.329 C 303.571 161.725,302.589 162.698,301.553 163.491 C 300.517 164.284,299.294 165.246,298.835 165.627 C 298.376 166.009,296.800 166.960,295.333 167.739 C 293.867 168.519,292.351 169.375,291.965 169.641 C 291.579 169.907,290.522 170.298,289.616 170.509 C 288.711 170.720,287.827 171.003,287.652 171.136 C 286.189 172.254,278.538 173.760,275.666 173.495 C 271.221 173.086,263.974 171.205,260.667 169.602 C 258.221 168.416,257.913 168.375,257.602 169.195 C 257.059 170.622,259.623 174.428,263.257 177.591 C 264.472 178.648,265.915 179.923,266.463 180.424 C 267.011 180.924,267.637 181.333,267.854 181.333 C 268.071 181.333,268.642 181.673,269.124 182.089 C 277.145 189.010,289.121 190.714,296.262 185.953 C 296.773 185.612,297.316 185.333,297.470 185.333 C 297.624 185.333,298.612 184.523,299.666 183.533 C 300.720 182.543,301.919 181.433,302.329 181.067 C 304.108 179.479,308.818 173.234,309.207 171.949 C 309.309 171.610,309.666 171.033,310.000 170.667 C 310.334 170.300,310.693 169.700,310.799 169.333 C 310.904 168.967,311.325 168.127,311.734 167.467 C 313.123 165.223,314.667 162.090,314.668 161.511 C 314.668 161.193,314.890 160.571,315.160 160.128 C 315.430 159.685,315.739 158.845,315.847 158.261 C 315.954 157.678,316.277 156.665,316.564 156.011 C 316.851 155.357,317.273 153.740,317.501 152.417 C 317.729 151.094,318.103 149.649,318.332 149.207 C 318.681 148.533,318.752 147.066,318.774 140.135 L 318.800 131.867 318.067 129.561 C 317.663 128.294,317.333 127.013,317.333 126.715 C 317.333 126.171,316.269 123.264,315.069 120.533 C 314.715 119.727,314.345 118.767,314.247 118.400 C 314.148 118.033,313.933 117.567,313.767 117.364 C 313.602 117.160,313.047 116.167,312.533 115.157 C 310.970 112.079,307.253 107.873,305.333 107.008 C 303.821 106.326,299.331 106.251,298.000 106.885 M336.637 107.849 C 334.526 108.767,331.693 111.576,330.489 113.943 C 330.220 114.471,329.588 115.600,329.084 116.452 C 327.671 118.839,327.690 122.232,329.133 124.951 C 330.294 127.137,330.310 127.250,329.595 128.217 C 328.740 129.373,328.582 131.555,329.329 131.888 C 329.973 132.175,334.330 130.246,335.537 129.139 C 336.082 128.640,336.991 128.113,340.104 126.497 C 342.597 125.203,343.587 123.990,344.101 121.601 C 344.558 119.471,344.273 117.809,343.516 118.193 C 343.416 118.244,342.042 118.930,340.463 119.717 L 337.594 121.147 335.644 120.874 C 331.283 120.262,330.196 119.047,332.296 117.133 C 334.235 115.366,336.292 114.425,337.645 114.687 C 340.020 115.146,340.716 115.024,341.041 114.094 C 342.438 110.083,339.870 106.441,336.637 107.849 M369.950 116.908 C 367.509 117.815,364.508 120.727,362.781 123.867 C 362.538 124.307,362.013 125.027,361.614 125.467 C 361.214 125.907,360.609 126.747,360.270 127.333 C 358.172 130.954,357.649 132.006,357.355 133.200 C 357.174 133.933,356.806 134.893,356.536 135.333 C 356.266 135.773,355.962 136.579,355.861 137.124 C 355.760 137.669,355.510 138.253,355.305 138.423 C 355.101 138.593,354.933 139.083,354.933 139.511 C 354.933 139.940,354.764 141.035,354.556 141.945 C 352.927 149.096,353.312 149.874,359.333 151.599 C 360.213 151.851,361.653 152.274,362.533 152.540 C 363.413 152.806,364.553 153.102,365.067 153.199 C 369.121 153.960,370.764 155.903,368.674 157.468 C 367.342 158.466,364.995 159.671,364.000 159.867 C 363.487 159.969,362.816 160.211,362.509 160.404 C 361.667 160.937,360.115 161.297,354.964 162.159 C 346.055 163.650,339.419 163.413,336.176 161.488 C 335.566 161.127,334.501 160.524,333.811 160.149 C 332.769 159.585,332.504 159.282,332.260 158.377 C 332.099 157.777,331.733 156.837,331.447 156.289 C 331.031 155.490,330.897 154.529,330.773 151.446 C 330.688 149.331,330.494 147.191,330.342 146.692 L 330.065 145.784 329.578 146.425 C 327.953 148.564,326.881 156.177,327.555 160.778 C 328.732 168.805,332.420 171.599,342.267 171.923 C 348.911 172.141,359.848 169.930,362.911 167.749 C 363.335 167.447,363.809 167.200,363.963 167.200 C 364.117 167.200,365.453 166.289,366.932 165.175 C 371.563 161.687,372.712 159.435,372.974 153.333 C 373.218 147.668,372.182 146.528,364.867 144.410 C 356.141 141.884,355.862 141.583,358.103 137.127 C 362.323 128.736,369.517 124.074,374.430 126.548 C 376.715 127.699,376.712 127.700,377.108 126.333 C 377.528 124.882,377.550 118.465,377.137 117.715 C 376.404 116.384,372.531 115.949,369.950 116.908 M104.046 123.831 C 105.795 124.243,108.410 125.875,109.019 126.936 C 109.249 127.337,109.749 127.875,110.129 128.131 C 110.510 128.386,111.066 129.032,111.366 129.565 C 111.665 130.097,112.306 131.159,112.789 131.924 C 114.706 134.956,114.069 136.816,111.247 136.426 C 110.561 136.331,109.220 136.150,108.267 136.023 C 107.313 135.895,106.215 135.666,105.826 135.512 C 105.437 135.359,104.376 135.098,103.469 134.934 C 97.371 133.828,95.436 131.034,97.927 126.931 C 99.725 123.969,101.282 123.181,104.046 123.831 M301.238 124.773 C 305.629 127.841,310.124 135.006,308.277 135.994 C 306.637 136.872,302.731 136.348,296.000 134.348 C 290.800 132.802,289.985 129.363,293.840 125.241 C 295.619 123.339,298.890 123.133,301.238 124.773 M150.400 126.304 C 143.710 127.619,139.843 129.833,138.661 133.025 C 138.354 133.855,137.870 135.021,137.585 135.618 C 137.300 136.214,137.067 136.910,137.067 137.165 C 137.067 137.419,136.808 138.078,136.491 138.628 C 135.399 140.526,136.115 141.396,139.467 142.245 C 141.776 142.830,145.252 144.479,145.892 145.293 C 146.517 146.087,146.295 146.536,144.217 148.678 C 143.500 149.417,142.708 150.334,142.457 150.716 C 142.206 151.098,141.400 152.282,140.667 153.347 C 136.575 159.287,135.020 165.587,135.931 172.533 C 136.391 176.044,138.252 180.683,139.460 181.330 C 139.751 181.486,140.264 182.017,140.599 182.510 C 143.849 187.293,157.201 193.087,163.174 192.306 C 165.808 191.962,169.304 190.498,170.514 189.234 C 170.944 188.785,172.024 187.952,172.914 187.382 C 177.494 184.450,176.891 183.033,171.200 183.351 C 164.247 183.740,151.327 181.913,149.467 180.278 C 149.173 180.020,148.284 179.463,147.491 179.039 C 145.004 177.711,141.625 173.656,140.822 171.037 C 139.929 168.120,139.873 161.132,140.735 160.185 C 141.028 159.863,141.464 159.175,141.704 158.656 C 142.408 157.135,143.593 155.875,147.010 153.014 C 151.655 149.123,152.323 148.896,154.428 150.484 C 155.073 150.971,156.320 151.827,157.200 152.386 C 158.080 152.946,159.100 153.623,159.467 153.892 C 162.659 156.226,168.315 158.456,172.933 159.201 C 173.894 159.356,186.728 159.464,205.067 159.471 L 235.600 159.483 235.968 158.608 C 236.494 157.357,236.176 145.550,235.556 143.299 C 235.319 142.438,235.032 141.133,234.918 140.400 C 234.435 137.285,231.714 131.316,230.960 131.719 C 230.210 132.120,229.995 132.518,229.105 135.139 C 228.082 138.156,228.070 137.741,229.244 139.774 C 231.509 143.695,232.006 144.766,232.423 146.620 L 232.862 148.573 232.111 149.356 L 231.360 150.140 201.747 150.064 L 172.133 149.988 170.133 149.381 C 169.033 149.047,167.533 148.421,166.800 147.991 C 166.067 147.561,164.902 146.946,164.213 146.624 C 161.496 145.355,161.878 144.120,165.401 142.776 C 167.510 141.971,169.067 140.972,169.067 140.424 C 169.067 140.232,169.363 139.638,169.725 139.105 C 171.032 137.178,171.510 132.520,170.550 131.055 C 170.062 130.310,165.989 128.333,163.200 127.487 C 162.100 127.154,160.840 126.759,160.400 126.610 C 159.558 126.325,151.542 126.079,150.400 126.304 M41.127 134.245 C 38.604 138.463,37.978 142.670,39.582 144.627 C 45.451 151.790,45.998 159.497,41.003 164.649 C 40.141 165.539,38.872 166.987,38.184 167.867 C 34.771 172.232,29.239 176.605,24.377 178.782 C 23.044 179.379,21.387 180.355,20.694 180.953 L 19.433 182.039 20.626 183.365 C 23.399 186.450,32.197 185.951,34.866 182.558 C 35.134 182.218,35.731 181.744,36.193 181.505 C 36.656 181.266,37.431 180.579,37.917 179.979 C 38.403 179.379,39.614 177.909,40.609 176.711 C 42.230 174.761,43.184 172.889,43.205 171.618 C 43.207 171.462,43.483 171.074,43.818 170.756 C 44.536 170.077,46.530 164.327,46.809 162.133 C 46.912 161.327,47.170 160.326,47.383 159.911 C 48.535 157.663,47.624 145.578,46.012 141.721 C 45.819 141.258,45.577 140.388,45.476 139.788 C 45.375 139.188,45.121 138.556,44.912 138.383 C 44.704 138.210,44.533 137.913,44.533 137.723 C 44.533 137.385,42.908 134.172,42.287 133.283 C 42.011 132.888,41.868 133.007,41.127 134.245 M160.840 133.850 C 165.107 135.185,164.341 137.103,158.975 138.523 C 158.292 138.704,157.228 139.110,156.611 139.426 C 155.168 140.164,154.153 140.151,152.591 139.376 C 151.899 139.032,150.760 138.596,150.060 138.406 C 149.359 138.216,148.725 137.961,148.649 137.839 C 148.574 137.717,147.753 137.255,146.825 136.812 C 144.115 135.519,143.969 134.625,146.339 133.843 C 149.218 132.893,157.793 132.897,160.840 133.850 M232.600 170.114 C 228.428 172.273,227.120 175.722,229.721 177.706 C 230.245 178.106,231.267 179.025,231.991 179.750 C 233.839 181.598,234.733 181.314,238.038 177.831 C 240.150 175.605,239.654 174.454,234.708 170.114 L 233.926 169.428 232.600 170.114 M213.867 169.822 C 213.867 169.939,213.357 170.315,212.733 170.657 C 210.527 171.869,208.378 174.756,208.819 175.916 C 209.099 176.653,213.799 181.333,214.259 181.333 C 214.825 181.333,216.589 180.028,218.333 178.317 C 220.629 176.065,220.603 175.719,217.927 172.888 C 216.079 170.933,213.867 169.263,213.867 169.822 " stroke="none" fill="#eaf8fa" fill-rule="evenodd"></path><path id="path1" d="M0.000 133.333 L 0.000 266.667 200.000 266.667 L 400.000 266.667 400.000 133.333 L 400.000 0.000 200.000 0.000 L 0.000 0.000 0.000 133.333 M101.143 77.314 C 103.621 78.132,103.649 84.531,101.191 88.513 C 99.915 90.581,100.066 91.256,101.960 91.958 C 103.753 92.621,104.228 93.388,103.777 94.893 C 103.371 96.248,102.490 96.483,99.583 96.014 C 97.062 95.608,96.798 95.705,94.443 97.901 C 88.222 103.705,83.717 106.474,82.667 105.140 C 81.397 103.526,81.708 102.053,83.527 101.067 C 84.760 100.398,90.041 96.357,91.667 94.838 C 92.466 94.092,92.913 92.533,92.328 92.533 C 91.973 92.533,89.574 90.441,88.771 89.430 C 84.770 84.395,94.305 75.058,101.143 77.314 M295.980 77.497 C 298.091 78.744,298.280 83.127,296.400 87.228 C 294.702 90.933,294.941 92.267,297.303 92.267 C 298.780 92.267,299.075 95.012,297.696 95.915 C 297.069 96.326,296.052 96.309,293.715 95.848 C 292.103 95.531,290.939 96.135,288.306 98.657 C 286.785 100.113,284.301 102.056,281.937 103.637 C 277.627 106.521,277.672 106.516,277.054 104.218 C 276.541 102.315,276.883 101.830,280.404 99.467 C 281.387 98.807,282.751 97.766,283.435 97.154 C 284.119 96.542,285.010 95.957,285.415 95.856 C 286.862 95.493,287.506 92.880,286.286 92.324 C 285.694 92.054,283.805 89.815,283.004 88.435 C 280.105 83.437,290.789 74.431,295.980 77.497 M94.994 82.578 C 93.204 83.299,94.058 87.200,96.006 87.200 C 96.698 87.200,96.816 87.062,97.216 85.795 C 97.977 83.380,96.895 81.814,94.994 82.578 M289.414 82.865 C 288.552 83.553,288.282 84.513,288.681 85.469 C 289.569 87.595,291.121 87.724,291.881 85.734 C 292.777 83.387,291.142 81.486,289.414 82.865 M151.267 105.985 C 154.831 109.422,154.786 109.800,150.372 113.625 C 148.294 115.424,147.902 115.333,145.003 112.385 C 142.125 109.458,141.918 108.326,143.952 106.615 C 144.375 106.258,144.938 105.638,145.201 105.236 C 145.728 104.432,147.298 103.494,148.133 103.484 C 148.450 103.480,149.725 104.498,151.267 105.985 M110.491 107.057 C 112.615 108.080,116.529 112.317,117.612 114.766 C 117.907 115.431,118.448 116.333,118.814 116.768 C 119.181 117.204,119.709 118.200,119.988 118.980 C 121.310 122.687,121.686 123.681,122.158 124.719 C 122.438 125.334,122.667 126.057,122.667 126.325 C 122.667 126.593,122.984 128.009,123.372 129.473 C 124.309 133.001,124.510 147.636,123.646 149.333 C 123.385 149.847,122.999 151.467,122.789 152.933 C 122.580 154.400,122.109 156.320,121.744 157.200 C 121.378 158.080,121.076 158.986,121.073 159.213 C 121.070 159.441,120.955 159.741,120.817 159.880 C 120.680 160.019,120.285 160.917,119.939 161.874 C 119.217 163.870,114.620 172.261,113.131 174.301 C 109.625 179.105,108.016 181.039,107.152 181.489 C 106.759 181.693,106.364 182.094,106.273 182.380 C 105.869 183.654,98.989 187.556,95.716 188.366 C 92.903 189.063,87.038 188.748,84.467 187.761 C 82.638 187.060,74.998 182.773,74.361 182.092 C 73.972 181.675,73.507 181.333,73.328 181.333 C 73.150 181.333,72.607 181.003,72.123 180.600 C 71.638 180.197,70.436 179.207,69.452 178.400 C 68.467 177.593,67.348 176.582,66.964 176.153 C 66.581 175.724,65.751 174.806,65.121 174.112 C 64.394 173.313,63.918 172.504,63.821 171.904 C 63.736 171.383,63.442 170.752,63.167 170.503 C 62.586 169.978,62.548 169.448,63.028 168.582 C 63.347 168.008,63.398 167.996,63.749 168.418 C 64.344 169.136,68.539 170.817,72.133 171.779 C 79.628 173.783,85.612 173.803,91.259 171.842 C 92.326 171.471,93.740 171.008,94.400 170.813 C 95.508 170.486,100.013 168.276,100.654 167.744 C 101.024 167.437,104.138 165.650,105.400 165.020 C 105.950 164.746,106.400 164.431,106.400 164.320 C 106.400 164.210,106.970 163.508,107.667 162.761 C 110.837 159.359,111.412 158.609,112.625 156.299 C 114.570 152.596,114.265 152.189,109.200 151.725 C 105.881 151.421,102.981 150.867,101.053 150.169 C 100.238 149.874,98.918 149.549,98.119 149.447 C 96.444 149.233,92.208 147.094,90.621 145.660 C 88.809 144.023,88.440 141.862,89.019 136.267 C 89.541 131.212,89.944 128.675,90.308 128.141 C 90.505 127.851,90.667 127.251,90.668 126.807 C 90.669 126.363,90.847 125.661,91.063 125.246 C 91.279 124.832,91.710 123.640,92.021 122.597 C 92.331 121.555,92.739 120.454,92.927 120.151 C 93.116 119.848,93.351 119.254,93.449 118.830 C 93.548 118.407,93.908 117.687,94.250 117.230 C 94.592 116.774,95.271 115.685,95.759 114.812 C 96.971 112.642,101.523 107.956,103.287 107.061 C 104.989 106.198,108.703 106.196,110.491 107.057 M305.333 107.008 C 307.253 107.873,310.970 112.079,312.533 115.157 C 313.047 116.167,313.602 117.160,313.767 117.364 C 313.933 117.567,314.148 118.033,314.247 118.400 C 314.345 118.767,314.715 119.727,315.069 120.533 C 316.269 123.264,317.333 126.171,317.333 126.715 C 317.333 127.013,317.663 128.294,318.067 129.561 L 318.800 131.867 318.774 140.135 C 318.752 147.066,318.681 148.533,318.332 149.207 C 318.103 149.649,317.729 151.094,317.501 152.417 C 317.273 153.740,316.851 155.357,316.564 156.011 C 316.277 156.665,315.954 157.678,315.847 158.261 C 315.739 158.845,315.430 159.685,315.160 160.128 C 314.890 160.571,314.668 161.193,314.668 161.511 C 314.667 162.090,313.123 165.223,311.734 167.467 C 311.325 168.127,310.904 168.967,310.799 169.333 C 310.693 169.700,310.334 170.300,310.000 170.667 C 309.666 171.033,309.309 171.610,309.207 171.949 C 308.818 173.234,304.108 179.479,302.329 181.067 C 301.919 181.433,300.720 182.543,299.666 183.533 C 298.612 184.523,297.624 185.333,297.470 185.333 C 297.316 185.333,296.773 185.612,296.262 185.953 C 289.121 190.714,277.145 189.010,269.124 182.089 C 268.642 181.673,268.071 181.333,267.854 181.333 C 267.637 181.333,267.011 180.924,266.463 180.424 C 265.915 179.923,264.472 178.648,263.257 177.591 C 259.623 174.428,257.059 170.622,257.602 169.195 C 257.913 168.375,258.221 168.416,260.667 169.602 C 263.974 171.205,271.221 173.086,275.666 173.495 C 278.538 173.760,286.189 172.254,287.652 171.136 C 287.827 171.003,288.711 170.720,289.616 170.509 C 290.522 170.298,291.579 169.907,291.965 169.641 C 292.351 169.375,293.867 168.519,295.333 167.739 C 296.800 166.960,298.376 166.009,298.835 165.627 C 299.294 165.246,300.517 164.284,301.553 163.491 C 302.589 162.698,303.571 161.725,303.735 161.329 C 303.899 160.933,304.367 160.362,304.776 160.060 C 305.618 159.437,308.397 154.695,308.655 153.438 C 308.888 152.307,308.325 152.127,303.333 151.729 C 301.133 151.553,299.114 151.293,298.846 151.151 C 298.270 150.845,296.497 150.348,293.200 149.566 C 287.528 148.221,283.379 144.834,283.376 141.546 C 283.372 137.057,284.320 129.079,284.969 128.141 C 285.170 127.851,285.334 127.251,285.335 126.807 C 285.336 126.363,285.515 125.659,285.732 125.242 C 285.949 124.825,286.306 123.883,286.524 123.148 C 286.915 121.833,287.942 119.440,288.678 118.133 C 288.884 117.767,289.295 116.950,289.590 116.319 C 290.995 113.315,295.787 107.939,298.000 106.885 C 299.331 106.251,303.821 106.326,305.333 107.008 M339.449 108.018 C 340.997 108.684,341.333 109.319,341.333 111.573 C 341.333 114.897,340.849 115.306,337.645 114.687 C 336.292 114.425,334.235 115.366,332.296 117.133 C 330.196 119.047,331.283 120.262,335.644 120.874 L 337.594 121.147 340.463 119.717 C 342.042 118.930,343.416 118.244,343.516 118.193 C 344.273 117.809,344.558 119.471,344.101 121.601 C 343.587 123.990,342.597 125.203,340.104 126.497 C 336.991 128.113,336.082 128.640,335.537 129.139 C 334.330 130.246,329.973 132.175,329.329 131.888 C 328.582 131.555,328.740 129.373,329.595 128.217 C 330.310 127.250,330.294 127.137,329.133 124.951 C 327.690 122.232,327.671 118.839,329.084 116.452 C 329.588 115.600,330.220 114.471,330.489 113.943 C 331.693 111.576,334.526 108.767,336.637 107.849 C 337.749 107.365,337.960 107.377,339.449 108.018 M375.220 116.715 C 377.345 117.306,377.441 117.523,377.438 121.733 C 377.435 127.531,377.183 127.935,374.430 126.548 C 369.517 124.074,362.323 128.736,358.103 137.127 C 355.862 141.583,356.141 141.884,364.867 144.410 C 372.182 146.528,373.218 147.668,372.974 153.333 C 372.712 159.435,371.563 161.687,366.932 165.175 C 365.453 166.289,364.117 167.200,363.963 167.200 C 363.809 167.200,363.335 167.447,362.911 167.749 C 359.848 169.930,348.911 172.141,342.267 171.923 C 332.420 171.599,328.732 168.805,327.555 160.778 C 326.881 156.177,327.953 148.564,329.578 146.425 L 330.065 145.784 330.342 146.692 C 330.494 147.191,330.688 149.331,330.773 151.446 C 330.897 154.529,331.031 155.490,331.447 156.289 C 331.733 156.837,332.099 157.777,332.260 158.377 C 332.504 159.282,332.769 159.585,333.811 160.149 C 334.501 160.524,335.566 161.127,336.176 161.488 C 339.419 163.413,346.055 163.650,354.964 162.159 C 360.115 161.297,361.667 160.937,362.509 160.404 C 362.816 160.211,363.487 159.969,364.000 159.867 C 364.995 159.671,367.342 158.466,368.674 157.468 C 370.764 155.903,369.121 153.960,365.067 153.199 C 364.553 153.102,363.413 152.806,362.533 152.540 C 361.653 152.274,360.213 151.851,359.333 151.599 C 353.312 149.874,352.927 149.096,354.556 141.945 C 354.764 141.035,354.933 139.940,354.933 139.511 C 354.933 139.083,355.101 138.593,355.305 138.423 C 355.510 138.253,355.760 137.669,355.861 137.124 C 355.962 136.579,356.266 135.773,356.536 135.333 C 356.806 134.893,357.174 133.933,357.355 133.200 C 357.649 132.006,358.172 130.954,360.270 127.333 C 360.609 126.747,361.214 125.907,361.614 125.467 C 362.013 125.027,362.538 124.307,362.781 123.867 C 365.940 118.125,370.619 115.436,375.220 116.715 M100.534 124.200 C 97.691 125.696,95.884 129.969,97.272 131.915 C 98.030 132.978,101.201 134.523,103.469 134.934 C 104.376 135.098,105.437 135.359,105.826 135.512 C 106.215 135.666,107.313 135.895,108.267 136.023 C 109.220 136.150,110.561 136.331,111.247 136.426 C 114.069 136.816,114.706 134.956,112.789 131.924 C 112.306 131.159,111.665 130.097,111.366 129.565 C 111.066 129.032,110.510 128.386,110.129 128.131 C 109.749 127.875,109.249 127.337,109.019 126.936 C 108.410 125.875,105.795 124.243,104.046 123.831 C 102.058 123.363,102.141 123.354,100.534 124.200 M295.333 123.978 C 293.808 124.656,291.467 128.191,291.467 129.816 C 291.467 132.963,293.572 134.128,302.664 136.009 C 308.193 137.154,309.681 136.296,307.999 132.933 C 304.610 126.156,299.137 122.286,295.333 123.978 M160.400 126.610 C 160.840 126.759,162.100 127.154,163.200 127.487 C 165.989 128.333,170.062 130.310,170.550 131.055 C 171.510 132.520,171.032 137.178,169.725 139.105 C 169.363 139.638,169.067 140.232,169.067 140.424 C 169.067 140.972,167.510 141.971,165.401 142.776 C 161.878 144.120,161.496 145.355,164.213 146.624 C 164.902 146.946,166.067 147.561,166.800 147.991 C 167.533 148.421,169.033 149.047,170.133 149.381 L 172.133 149.988 201.747 150.064 L 231.360 150.140 232.111 149.356 L 232.862 148.573 232.423 146.620 C 232.006 144.766,231.509 143.695,229.244 139.774 C 228.070 137.741,228.082 138.156,229.105 135.139 C 229.995 132.518,230.210 132.120,230.960 131.719 C 231.714 131.316,234.435 137.285,234.918 140.400 C 235.032 141.133,235.319 142.438,235.556 143.299 C 236.176 145.550,236.494 157.357,235.968 158.608 L 235.600 159.483 205.067 159.471 C 186.728 159.464,173.894 159.356,172.933 159.201 C 168.315 158.456,162.659 156.226,159.467 153.892 C 159.100 153.623,158.080 152.946,157.200 152.386 C 156.320 151.827,155.073 150.971,154.428 150.484 C 152.323 148.896,151.655 149.123,147.010 153.014 C 143.593 155.875,142.408 157.135,141.704 158.656 C 141.464 159.175,141.028 159.863,140.735 160.185 C 139.873 161.132,139.929 168.120,140.822 171.037 C 141.625 173.656,145.004 177.711,147.491 179.039 C 148.284 179.463,149.173 180.020,149.467 180.278 C 151.327 181.913,164.247 183.740,171.200 183.351 C 176.891 183.033,177.494 184.450,172.914 187.382 C 172.024 187.952,170.944 188.785,170.514 189.234 C 169.304 190.498,165.808 191.962,163.174 192.306 C 159.129 192.835,157.106 192.268,148.000 188.059 C 145.530 186.917,141.583 183.957,140.599 182.510 C 140.264 182.017,139.751 181.486,139.460 181.330 C 138.252 180.683,136.391 176.044,135.931 172.533 C 135.020 165.587,136.575 159.287,140.667 153.347 C 141.400 152.282,142.206 151.098,142.457 150.716 C 142.708 150.334,143.500 149.417,144.217 148.678 C 146.295 146.536,146.517 146.087,145.892 145.293 C 145.252 144.479,141.776 142.830,139.467 142.245 C 136.115 141.396,135.399 140.526,136.491 138.628 C 136.808 138.078,137.067 137.419,137.067 137.165 C 137.067 136.910,137.300 136.214,137.585 135.618 C 137.870 135.021,138.354 133.855,138.661 133.025 C 139.843 129.833,143.710 127.619,150.400 126.304 C 151.542 126.079,159.558 126.325,160.400 126.610 M43.567 135.555 C 44.099 136.558,44.533 137.533,44.533 137.723 C 44.533 137.913,44.704 138.210,44.912 138.383 C 45.121 138.556,45.375 139.188,45.476 139.788 C 45.577 140.388,45.819 141.258,46.012 141.721 C 47.624 145.578,48.535 157.663,47.383 159.911 C 47.170 160.326,46.912 161.327,46.809 162.133 C 46.530 164.327,44.536 170.077,43.818 170.756 C 43.483 171.074,43.207 171.462,43.205 171.618 C 43.184 172.889,42.230 174.761,40.609 176.711 C 39.614 177.909,38.403 179.379,37.917 179.979 C 37.431 180.579,36.656 181.266,36.193 181.505 C 35.731 181.744,35.134 182.218,34.866 182.558 C 32.197 185.951,23.399 186.450,20.626 183.365 L 19.433 182.039 20.694 180.953 C 21.387 180.355,23.044 179.379,24.377 178.782 C 29.239 176.605,34.771 172.232,38.184 167.867 C 38.872 166.987,40.141 165.539,41.003 164.649 C 45.998 159.497,45.451 151.790,39.582 144.627 C 37.978 142.670,38.604 138.463,41.127 134.245 C 42.095 132.626,41.983 132.566,43.567 135.555 M148.641 133.313 C 144.106 134.042,143.493 135.222,146.825 136.812 C 147.753 137.255,148.574 137.717,148.649 137.839 C 148.725 137.961,149.359 138.216,150.060 138.406 C 150.760 138.596,151.899 139.032,152.591 139.376 C 154.153 140.151,155.168 140.164,156.611 139.426 C 157.228 139.110,158.292 138.704,158.975 138.523 C 166.951 136.413,164.452 133.415,154.533 133.195 C 152.040 133.140,149.388 133.193,148.641 133.313 M237.091 172.400 C 240.249 175.554,240.074 176.475,235.643 180.031 C 233.977 181.368,233.579 181.337,231.991 179.750 C 231.267 179.025,230.245 178.106,229.721 177.706 C 227.120 175.722,228.428 172.273,232.600 170.114 L 233.926 169.428 234.708 170.114 C 235.138 170.491,236.211 171.520,237.091 172.400 M217.927 172.888 C 220.603 175.719,220.629 176.065,218.333 178.317 C 216.589 180.028,214.825 181.333,214.259 181.333 C 213.799 181.333,209.099 176.653,208.819 175.916 C 208.378 174.756,210.527 171.869,212.733 170.657 C 213.357 170.315,213.867 169.939,213.867 169.822 C 213.867 169.263,216.079 170.933,217.927 172.888 " stroke="none" fill="#44c3f3" fill-rule="evenodd"></path></g></svg>