<svg width="30" height="20" xmlns="http://www.w3.org/2000/svg"><symbol id="Flag_of_Nigeria" preserveAspectRatio="none" viewBox="0 0 6 3"><path d="m0 0h6v3H0z" fill="#008751"/><path d="m2 0h2v3H2z" fill="#fff"/></symbol><use width="19" height="20" href="#Flag_of_Nigeria"/><path d="M19 0h11v20H19z" fill="#fff"/><symbol id="U"><path d="m8.84 1h-1.34v4.64q-0 .34-.072.601-.072.26-.207.433-.12.17-.317.255-.19.082-.433.0817-.23 0-.399-.0769-.17-.082-.293-.24-.13-.17-.197-.438-.062-.26-.0673-.615l-.0048-4.64h-1.35v4.64q0 .59.164 1.05.17.46.471.769.3.31.726.476.43.16.957.164.56 0 1-.164t.745-.481q.3-.31.462-.769.16-.46.164-1.04z"/></symbol><symbol id="R"><path d="m6.55 5.38 1.32 2.62h1.45v-.0625l-1.5-2.89q.29-.13.519-.308.24-.18.404-.418.16-.24.25-.534.091-.3.0913-.678 0-.52-.183-.914-.18-.39-.51-.659-.34-.26-.808-.399-.47-.14-1.05-.139h-2.35v7h1.35v-2.62zm-1.02-1.1v-2.19h.995q.28 0 .495.067.22.067.365.192.17.14.25.356.087.21.087.49 0 .23-.067.418-.062.19-.188.322-.15.17-.389.26-.24.087-.548.087z"/></symbol><symbol id="H"><path d="m8.8 8v-7h-1.34v2.87h-1.98v-2.87h-1.34v7h1.34v-3.03h1.98v3.03z"/></symbol><g transform="rotate(-90 15 -5)"><use x="-13" href="#U"/><use x="-6.5" href="#R"/><use href="#H"/></g></svg>
