<svg width="30" height="20" xmlns="http://www.w3.org/2000/svg"><symbol id="Flag_of_Nigeria" preserveAspectRatio="none" viewBox="0 0 6 3"><path d="m0 0h6v3H0z" fill="#008751"/><path d="m2 0h2v3H2z" fill="#fff"/></symbol><use width="19" height="20" href="#Flag_of_Nigeria"/><path d="M19 0h11v20H19z" fill="#fff"/><path transform="matrix(0 -.2.2 0 0 0)" d="m-69.88 105.5h-6.53v22.6q-0 1.6-.35 2.9-.33 1.3-.98 2.1-.61.8-1.55 1.2-.91.4-2.11.4-1.1 0-1.94-.3-.84-.4-1.43-1.2-.63-.8-.96-2.1-.3-1.3-.32-3v-22.6h-6.57v22.6q0 2.8.8 5.1.82 2.2 2.29 3.7 1.48 1.5 3.54 2.3 2.08.8 4.65.8 2.74 0 4.87-.8 2.16-.8 3.65-2.3 1.48-1.5 2.25-3.8.8-2.2.8-5zm20.13 21.3 6.41 12.8h7.04v-.3l-7.32-14.1q1.4-.6 2.53-1.5 1.14-.9 1.96-2 .8-1.2 1.22-2.6.44-1.5.44-3.3 0-2.6-.89-4.5-.86-1.9-2.48-3.2-1.64-1.3-3.93-1.9-2.29-.7-5.12-.7h-11.43v34.1h6.58v-12.8zm-4.99-5.3v-10.7h4.85q1.35 0 2.41.3 1.05.4 1.77 1 .82.7 1.22 1.7.42 1 .42 2.4 0 1.1-.32 2-.31 1-.92 1.6-.72.8-1.89 1.3-1.15.4-2.67.4zm47.179 18.1v-34.1h-6.509v14h-9.64v-14h-6.53v34.1h6.53v-14.8h9.64v14.8z"/></svg>
