<?xml version="1.0" encoding="UTF-8" standalone="no"?>
<!-- Created with Inkscape (http://www.inkscape.org/) -->

<svg
   width="7.9375mm"
   height="5.2916999mm"
   viewBox="0 0 7.9375002 5.2917001"
   version="1.1"
   id="svg1"
   inkscape:version="1.4 (86a8ad7, 2024-10-11)"
   sodipodi:docname="uzb.svg"
   xmlns:inkscape="http://www.inkscape.org/namespaces/inkscape"
   xmlns:sodipodi="http://sodipodi.sourceforge.net/DTD/sodipodi-0.dtd"
   xmlns:xlink="http://www.w3.org/1999/xlink"
   xmlns="http://www.w3.org/2000/svg"
   xmlns:svg="http://www.w3.org/2000/svg">
  <sodipodi:namedview
     id="namedview1"
     pagecolor="#ffffff"
     bordercolor="#000000"
     borderopacity="0.25"
     inkscape:showpageshadow="2"
     inkscape:pageopacity="0.0"
     inkscape:pagecheckerboard="0"
     inkscape:deskcolor="#d1d1d1"
     inkscape:document-units="mm"
     inkscape:zoom="0.71891835"
     inkscape:cx="306.71077"
     inkscape:cy="269.84984"
     inkscape:window-width="1904"
     inkscape:window-height="992"
     inkscape:window-x="-26"
     inkscape:window-y="145"
     inkscape:window-maximized="0"
     inkscape:current-layer="layer1" />
  <defs
     id="defs1">
    <radialGradient
       id="n"
       cx="489.07001"
       cy="210.33"
       r="0.345"
       gradientTransform="matrix(0.00861722,0,0,0.0090267,-825.15993,-674.59387)"
       gradientUnits="userSpaceOnUse">
      <stop
         style="stop-color:#fff"
         offset="0"
         id="stop19" />
      <stop
         style="stop-color:#fff;stop-opacity:0"
         offset="1"
         id="stop21" />
    </radialGradient>
    <radialGradient
       id="m"
       cx="477.85999"
       cy="215.27"
       r="0.345"
       gradientUnits="userSpaceOnUse"
       gradientTransform="matrix(0.00881945,0,0,0.00881945,-825.15993,-674.59387)">
      <stop
         style="stop-color:#a50a0a"
         offset=".259"
         id="stop14" />
      <stop
         style="stop-color:#4c0505"
         offset="1"
         id="stop16" />
    </radialGradient>
    <linearGradient
       id="l"
       x1="473.31"
       x2="475.92999"
       y1="237.25"
       y2="270.45001"
       gradientUnits="userSpaceOnUse"
       gradientTransform="matrix(0.00881945,0,0,0.00881945,-825.15993,-674.59387)">
      <stop
         style="stop-color:#f9f0aa"
         offset=".216"
         id="stop39" />
      <stop
         style="stop-color:#b07e09"
         offset="1"
         id="stop41" />
    </linearGradient>
    <linearGradient
       id="k"
       x1="451.54001"
       x2="455.37"
       y1="249.52"
       y2="240.58"
       gradientUnits="userSpaceOnUse"
       gradientTransform="matrix(0.00881945,0,0,0.00881945,-825.15993,-674.59387)">
      <stop
         style="stop-color:#f9f0aa"
         offset=".216"
         id="stop34" />
      <stop
         style="stop-color:#b07e09"
         offset="1"
         id="stop36" />
    </linearGradient>
    <radialGradient
       id="j"
       cx="445.98001"
       cy="252.36"
       r="13.018"
       gradientUnits="userSpaceOnUse"
       xlink:href="#a"
       gradientTransform="matrix(0.00881945,0,0,0.00881945,-825.15993,-674.59387)" />
    <radialGradient
       id="a">
      <stop
         style="stop-color:#f9f0aa"
         offset=".216"
         id="stop4" />
      <stop
         style="stop-color:#b07e09"
         offset="1"
         id="stop6" />
    </radialGradient>
    <linearGradient
       id="i"
       x1="483.13"
       x2="485.5"
       y1="296.66"
       y2="326.57999"
       gradientUnits="userSpaceOnUse"
       gradientTransform="matrix(0.00881945,0,0,0.00881945,-825.15993,-674.59387)">
      <stop
         style="stop-color:#b07e09;stop-opacity:0"
         offset=".216"
         id="stop29" />
      <stop
         style="stop-color:#b07e09"
         offset="1"
         id="stop31" />
    </linearGradient>
    <linearGradient
       id="h"
       x1="473.91"
       x2="472.35999"
       y1="259.17001"
       y2="231.96001"
       gradientUnits="userSpaceOnUse"
       gradientTransform="matrix(0.00881945,0,0,0.00881945,-825.15993,-674.59387)">
      <stop
         style="stop-color:#b07e09;stop-opacity:0"
         offset=".216"
         id="stop24" />
      <stop
         style="stop-color:#b07e09"
         offset="1"
         id="stop26" />
    </linearGradient>
    <radialGradient
       id="g"
       cx="458.39001"
       cy="307.06"
       r="17.354"
       gradientUnits="userSpaceOnUse"
       xlink:href="#a"
       gradientTransform="matrix(0.00881945,0,0,0.00881945,-825.15993,-674.59387)" />
    <radialGradient
       id="radialGradient2">
      <stop
         style="stop-color:#f9f0aa"
         offset=".216"
         id="stop1" />
      <stop
         style="stop-color:#b07e09"
         offset="1"
         id="stop2" />
    </radialGradient>
    <radialGradient
       id="f"
       cx="454.10999"
       cy="308.64001"
       r="9.7799997"
       gradientUnits="userSpaceOnUse"
       xlink:href="#a"
       gradientTransform="matrix(0.00881945,0,0,0.00881945,-825.15993,-674.59387)" />
    <radialGradient
       id="radialGradient5">
      <stop
         style="stop-color:#f9f0aa"
         offset=".216"
         id="stop3" />
      <stop
         style="stop-color:#b07e09"
         offset="1"
         id="stop5" />
    </radialGradient>
    <radialGradient
       id="e"
       cx="451.56"
       cy="313"
       r="10.911"
       gradientUnits="userSpaceOnUse"
       xlink:href="#a"
       gradientTransform="matrix(0.00881945,0,0,0.00881945,-825.15993,-674.59387)" />
    <radialGradient
       id="radialGradient8">
      <stop
         style="stop-color:#f9f0aa"
         offset=".216"
         id="stop7" />
      <stop
         style="stop-color:#b07e09"
         offset="1"
         id="stop8" />
    </radialGradient>
    <radialGradient
       id="d"
       cx="447.42001"
       cy="308.26999"
       r="16.534"
       gradientUnits="userSpaceOnUse"
       xlink:href="#a"
       gradientTransform="matrix(0.00881945,0,0,0.00881945,-825.15993,-674.59387)" />
    <radialGradient
       id="radialGradient10">
      <stop
         style="stop-color:#f9f0aa"
         offset=".216"
         id="stop9" />
      <stop
         style="stop-color:#b07e09"
         offset="1"
         id="stop10" />
    </radialGradient>
    <radialGradient
       id="e-9"
       cx="380.84"
       cy="740.37"
       r="25.858999"
       gradientTransform="matrix(7.0234215e-4,8.3694522e-4,-0.00162376,0.00140249,-873.47471,-923.33034)"
       gradientUnits="userSpaceOnUse"
       xlink:href="#a-6" />
    <linearGradient
       id="a-6">
      <stop
         stop-color="#fff"
         offset="0"
         id="stop2-5" />
      <stop
         stop-color="#f15770"
         offset="1"
         id="stop4-1" />
    </linearGradient>
    <radialGradient
       id="f-0"
       cx="651.52002"
       cy="550.46002"
       r="25.858999"
       gradientTransform="matrix(-1.9245334e-4,-0.00208924,0.00193863,-1.8385685e-4,-876.73368,-920.80848)"
       gradientUnits="userSpaceOnUse"
       xlink:href="#a-6" />
    <radialGradient
       id="g-6"
       cx="842.31"
       cy="103.66"
       r="25.858999"
       gradientTransform="matrix(0.00194862,8.2390338e-4,-8.0461878e-4,0.00195837,-876.97359,-922.9887)"
       gradientUnits="userSpaceOnUse"
       xlink:href="#a-6" />
  </defs>
  <g
     inkscape:label="Layer 1"
     inkscape:groupmode="layer"
     id="layer1"
     transform="translate(943.60518,1068.4381)">
    <path
       d="m -943.60518,-1068.4381 h 7.9375 v 5.2917 h -7.9375 z"
       style="fill:#1eb53a;stroke-width:0.00916548"
       id="path2438" />
    <path
       d="m -943.60518,-1068.4381 h 7.9375 v 2.6458 h -7.9375 z"
       style="fill:#0099b5;stroke-width:0.00916548"
       id="path2441" />
    <path
       d="m -943.60518,-1066.7448 h 7.9375 v 1.905 h -7.9375 z"
       style="fill:#ce1126;stroke-width:0.00916548"
       id="path2444" />
    <path
       d="m -943.60518,-1066.6389 h 7.9375 v 1.6933 h -7.9375 z"
       style="fill:#ffffff;stroke-width:0.00916548"
       id="path2447" />
    <path
       id="path2450"
       style="fill:#ffffff;stroke-width:0.0105833"
       d="m -941.70018,-1067.5914 a 0.635,0.635 0 0 1 -0.635,0.635 0.635,0.635 0 0 1 -0.635,-0.635 0.635,0.635 0 0 1 0.635,-0.635 0.635,0.635 0 0 1 0.635,0.635 z" />
    <path
       id="path2453"
       style="fill:#0099b5;stroke-width:0.0105833"
       d="m -941.48851,-1067.5914 a 0.635,0.635 0 0 1 -0.635,0.635 0.635,0.635 0 0 1 -0.635,-0.635 0.635,0.635 0 0 1 0.635,-0.635 0.635,0.635 0 0 1 0.635,0.635 z" />
    <path
       id="path2432"
       d="m -940.93818,-1067.2104 -0.0393,0.1208 0.0604,0.02"
       style="fill:#ffffff;stroke-width:0.0211667" />
    <path
       id="path2435"
       d="m -940.93818,-1067.2104 0.0393,0.1208 -0.0604,0.02"
       style="fill:#ffffff;stroke-width:0.0211667" />
    <path
       id="path2102"
       d="m -940.8174,-1067.1227 h -0.127 v 0.063"
       style="fill:#ffffff;stroke-width:0.0211667" />
    <path
       id="path2105"
       d="m -940.8174,-1067.1227 -0.10274,0.075 -0.0373,-0.051"
       style="fill:#ffffff;stroke-width:0.0211667" />
    <path
       id="path2282"
       d="m -941.05896,-1067.1227 0.10274,0.075 0.0373,-0.051"
       style="fill:#ffffff;stroke-width:0.0211667" />
    <path
       id="path2285"
       d="m -941.05896,-1067.1227 h 0.127 v 0.063"
       style="fill:#ffffff;stroke-width:0.0211667" />
    <path
       id="path2252"
       d="m -940.86353,-1066.9807 -0.0393,-0.1208 -0.0604,0.02"
       style="fill:#ffffff;stroke-width:0.0211667" />
    <path
       id="path2255"
       d="m -940.86353,-1066.9807 -0.10275,-0.075 0.0373,-0.051"
       style="fill:#ffffff;stroke-width:0.0211667" />
    <path
       id="path2306"
       d="m -941.01283,-1066.9807 0.10275,-0.075 -0.0373,-0.051"
       style="fill:#ffffff;stroke-width:0.0211667" />
    <path
       id="path2309"
       d="m -941.01283,-1066.9807 0.0393,-0.1208 0.0604,0.02"
       style="fill:#ffffff;stroke-width:0.0211667" />
    <path
       id="path2324"
       d="m -940.93818,-1067.7184 -0.0393,0.1208 0.0604,0.02"
       style="fill:#ffffff;stroke-width:0.0211667" />
    <path
       id="path2327"
       d="m -940.93818,-1067.7184 0.0393,0.1208 -0.0604,0.02"
       style="fill:#ffffff;stroke-width:0.0211667" />
    <path
       id="path2204"
       d="m -940.8174,-1067.6307 h -0.127 v 0.063"
       style="fill:#ffffff;stroke-width:0.0211667" />
    <path
       id="path2207"
       d="m -940.8174,-1067.6307 -0.10274,0.075 -0.0373,-0.051"
       style="fill:#ffffff;stroke-width:0.0211667" />
    <path
       id="path2384"
       d="m -941.05896,-1067.6307 0.10274,0.075 0.0373,-0.051"
       style="fill:#ffffff;stroke-width:0.0211667" />
    <path
       id="path2387"
       d="m -941.05896,-1067.6307 h 0.127 v 0.063"
       style="fill:#ffffff;stroke-width:0.0211667" />
    <path
       id="path2270"
       d="m -940.86353,-1067.4887 -0.0393,-0.1208 -0.0604,0.02"
       style="fill:#ffffff;stroke-width:0.0211667" />
    <path
       id="path2273"
       d="m -940.86353,-1067.4887 -0.10275,-0.075 0.0373,-0.051"
       style="fill:#ffffff;stroke-width:0.0211667" />
    <path
       id="path2138"
       d="m -941.01283,-1067.4887 0.10275,-0.075 -0.0373,-0.051"
       style="fill:#ffffff;stroke-width:0.0211667" />
    <path
       id="path2141"
       d="m -941.01283,-1067.4887 0.0393,-0.1208 0.0604,0.02"
       style="fill:#ffffff;stroke-width:0.0211667" />
    <path
       id="path2120"
       d="m -940.93818,-1068.2264 -0.0393,0.1208 0.0604,0.02"
       style="fill:#ffffff;stroke-width:0.0211667" />
    <path
       id="path2123"
       d="m -940.93818,-1068.2264 0.0393,0.1208 -0.0604,0.02"
       style="fill:#ffffff;stroke-width:0.0211667" />
    <path
       id="path2378"
       d="m -940.8174,-1068.1387 h -0.127 v 0.063"
       style="fill:#ffffff;stroke-width:0.0211667" />
    <path
       id="path2381"
       d="m -940.8174,-1068.1387 -0.10274,0.075 -0.0373,-0.051"
       style="fill:#ffffff;stroke-width:0.0211667" />
    <path
       id="path2162"
       d="m -941.05896,-1068.1387 0.10274,0.075 0.0373,-0.051"
       style="fill:#ffffff;stroke-width:0.0211667" />
    <path
       id="path2165"
       d="m -941.05896,-1068.1387 h 0.127 v 0.063"
       style="fill:#ffffff;stroke-width:0.0211667" />
    <path
       id="path2258"
       d="m -940.86353,-1067.9967 -0.0393,-0.1208 -0.0604,0.02"
       style="fill:#ffffff;stroke-width:0.0211667" />
    <path
       id="path2261"
       d="m -940.86353,-1067.9967 -0.10275,-0.075 0.0373,-0.051"
       style="fill:#ffffff;stroke-width:0.0211667" />
    <path
       id="path2132"
       d="m -941.01283,-1067.9967 0.10275,-0.075 -0.0373,-0.051"
       style="fill:#ffffff;stroke-width:0.0211667" />
    <path
       id="path2135"
       d="m -941.01283,-1067.9967 0.0393,-0.1208 0.0604,0.02"
       style="fill:#ffffff;stroke-width:0.0211667" />
    <path
       id="path2210"
       d="m -940.43018,-1067.2104 -0.0393,0.1208 0.0604,0.02"
       style="fill:#ffffff;stroke-width:0.0211667" />
    <path
       id="path2213"
       d="m -940.43018,-1067.2104 0.0392,0.1208 -0.0604,0.02"
       style="fill:#ffffff;stroke-width:0.0211667" />
    <path
       id="path2150"
       d="m -940.3094,-1067.1227 h -0.127 v 0.063"
       style="fill:#ffffff;stroke-width:0.0211667" />
    <path
       id="path2153"
       d="m -940.3094,-1067.1227 -0.10274,0.075 -0.0373,-0.051"
       style="fill:#ffffff;stroke-width:0.0211667" />
    <path
       id="path2294"
       d="m -940.55096,-1067.1227 0.10274,0.075 0.0373,-0.051"
       style="fill:#ffffff;stroke-width:0.0211667" />
    <path
       id="path2297"
       d="m -940.55096,-1067.1227 h 0.127 v 0.063"
       style="fill:#ffffff;stroke-width:0.0211667" />
    <path
       id="path2216"
       d="m -940.35553,-1066.9807 -0.0392,-0.1208 -0.0604,0.02"
       style="fill:#ffffff;stroke-width:0.0211667" />
    <path
       id="path2219"
       d="m -940.35553,-1066.9807 -0.10275,-0.075 0.0373,-0.051"
       style="fill:#ffffff;stroke-width:0.0211667" />
    <path
       id="path2426"
       d="m -940.50483,-1066.9807 0.10275,-0.075 -0.0373,-0.051"
       style="fill:#ffffff;stroke-width:0.0211667" />
    <path
       id="path2429"
       d="m -940.50483,-1066.9807 0.0392,-0.1208 0.0604,0.02"
       style="fill:#ffffff;stroke-width:0.0211667" />
    <path
       id="path2300"
       d="m -940.43018,-1067.7184 -0.0393,0.1208 0.0604,0.02"
       style="fill:#ffffff;stroke-width:0.0211667" />
    <path
       id="path2303"
       d="m -940.43018,-1067.7184 0.0392,0.1208 -0.0604,0.02"
       style="fill:#ffffff;stroke-width:0.0211667" />
    <path
       id="path2330"
       d="m -940.3094,-1067.6307 h -0.127 v 0.063"
       style="fill:#ffffff;stroke-width:0.0211667" />
    <path
       id="path2333"
       d="m -940.3094,-1067.6307 -0.10274,0.075 -0.0373,-0.051"
       style="fill:#ffffff;stroke-width:0.0211667" />
    <path
       id="path2402"
       d="m -940.55096,-1067.6307 0.10274,0.075 0.0373,-0.051"
       style="fill:#ffffff;stroke-width:0.0211667" />
    <path
       id="path2405"
       d="m -940.55096,-1067.6307 h 0.127 v 0.063"
       style="fill:#ffffff;stroke-width:0.0211667" />
    <path
       id="path2192"
       d="m -940.35553,-1067.4887 -0.0392,-0.1208 -0.0604,0.02"
       style="fill:#ffffff;stroke-width:0.0211667" />
    <path
       id="path2195"
       d="m -940.35553,-1067.4887 -0.10275,-0.075 0.0373,-0.051"
       style="fill:#ffffff;stroke-width:0.0211667" />
    <path
       id="path2168"
       d="m -940.50483,-1067.4887 0.10275,-0.075 -0.0373,-0.051"
       style="fill:#ffffff;stroke-width:0.0211667" />
    <path
       id="path2171"
       d="m -940.50483,-1067.4887 0.0392,-0.1208 0.0604,0.02"
       style="fill:#ffffff;stroke-width:0.0211667" />
    <path
       id="path2312"
       d="m -940.43018,-1068.2264 -0.0393,0.1208 0.0604,0.02"
       style="fill:#ffffff;stroke-width:0.0211667" />
    <path
       id="path2315"
       d="m -940.43018,-1068.2264 0.0392,0.1208 -0.0604,0.02"
       style="fill:#ffffff;stroke-width:0.0211667" />
    <path
       id="path2180"
       d="m -940.3094,-1068.1387 h -0.127 v 0.063"
       style="fill:#ffffff;stroke-width:0.0211667" />
    <path
       id="path2183"
       d="m -940.3094,-1068.1387 -0.10274,0.075 -0.0373,-0.051"
       style="fill:#ffffff;stroke-width:0.0211667" />
    <path
       id="path2354"
       d="m -940.55096,-1068.1387 0.10274,0.075 0.0373,-0.051"
       style="fill:#ffffff;stroke-width:0.0211667" />
    <path
       id="path2357"
       d="m -940.55096,-1068.1387 h 0.127 v 0.063"
       style="fill:#ffffff;stroke-width:0.0211667" />
    <path
       id="path2078"
       d="m -940.35553,-1067.9967 -0.0392,-0.1208 -0.0604,0.02"
       style="fill:#ffffff;stroke-width:0.0211667" />
    <path
       id="path2081"
       d="m -940.35553,-1067.9967 -0.10275,-0.075 0.0373,-0.051"
       style="fill:#ffffff;stroke-width:0.0211667" />
    <path
       id="path2198"
       d="m -940.50483,-1067.9967 0.10275,-0.075 -0.0373,-0.051"
       style="fill:#ffffff;stroke-width:0.0211667" />
    <path
       id="path2201"
       d="m -940.50483,-1067.9967 0.0392,-0.1208 0.0604,0.02"
       style="fill:#ffffff;stroke-width:0.0211667" />
    <path
       id="path2186"
       d="m -939.92218,-1067.2104 -0.0392,0.1208 0.0604,0.02"
       style="fill:#ffffff;stroke-width:0.0211667" />
    <path
       id="path2189"
       d="m -939.92218,-1067.2104 0.0393,0.1208 -0.0604,0.02"
       style="fill:#ffffff;stroke-width:0.0211667" />
    <path
       id="path2174"
       d="m -939.8014,-1067.1227 h -0.127 v 0.063"
       style="fill:#ffffff;stroke-width:0.0211667" />
    <path
       id="path2177"
       d="m -939.8014,-1067.1227 -0.10274,0.075 -0.0373,-0.051"
       style="fill:#ffffff;stroke-width:0.0211667" />
    <path
       id="path2396"
       d="m -940.04296,-1067.1227 0.10274,0.075 0.0373,-0.051"
       style="fill:#ffffff;stroke-width:0.0211667" />
    <path
       id="path2399"
       d="m -940.04296,-1067.1227 h 0.127 v 0.063"
       style="fill:#ffffff;stroke-width:0.0211667" />
    <path
       id="path2318"
       d="m -939.84753,-1066.9807 -0.0393,-0.1208 -0.0604,0.02"
       style="fill:#ffffff;stroke-width:0.0211667" />
    <path
       id="path2321"
       d="m -939.84753,-1066.9807 -0.10275,-0.075 0.0373,-0.051"
       style="fill:#ffffff;stroke-width:0.0211667" />
    <path
       id="path2342"
       d="m -939.99683,-1066.9807 0.10275,-0.075 -0.0373,-0.051"
       style="fill:#ffffff;stroke-width:0.0211667" />
    <path
       id="path2345"
       d="m -939.99683,-1066.9807 0.0393,-0.1208 0.0604,0.02"
       style="fill:#ffffff;stroke-width:0.0211667" />
    <path
       id="path2234"
       d="m -939.92218,-1067.7184 -0.0392,0.1208 0.0604,0.02"
       style="fill:#ffffff;stroke-width:0.0211667" />
    <path
       id="path2237"
       d="m -939.92218,-1067.7184 0.0393,0.1208 -0.0604,0.02"
       style="fill:#ffffff;stroke-width:0.0211667" />
    <path
       id="path2228"
       d="m -939.8014,-1067.6307 h -0.127 v 0.063"
       style="fill:#ffffff;stroke-width:0.0211667" />
    <path
       id="path2231"
       d="m -939.8014,-1067.6307 -0.10274,0.075 -0.0373,-0.051"
       style="fill:#ffffff;stroke-width:0.0211667" />
    <path
       id="path2288"
       d="m -940.04296,-1067.6307 0.10274,0.075 0.0373,-0.051"
       style="fill:#ffffff;stroke-width:0.0211667" />
    <path
       id="path2291"
       d="m -940.04296,-1067.6307 h 0.127 v 0.063"
       style="fill:#ffffff;stroke-width:0.0211667" />
    <path
       id="path2276"
       d="m -939.84753,-1067.4887 -0.0393,-0.1208 -0.0604,0.02"
       style="fill:#ffffff;stroke-width:0.0211667" />
    <path
       id="path2279"
       d="m -939.84753,-1067.4887 -0.10275,-0.075 0.0373,-0.051"
       style="fill:#ffffff;stroke-width:0.0211667" />
    <path
       id="path2336"
       d="m -939.99683,-1067.4887 0.10275,-0.075 -0.0373,-0.051"
       style="fill:#ffffff;stroke-width:0.0211667" />
    <path
       id="path2339"
       d="m -939.99683,-1067.4887 0.0393,-0.1208 0.0604,0.02"
       style="fill:#ffffff;stroke-width:0.0211667" />
    <path
       id="path2264"
       d="m -939.92218,-1068.2264 -0.0392,0.1208 0.0604,0.02"
       style="fill:#ffffff;stroke-width:0.0211667" />
    <path
       id="path2267"
       d="m -939.92218,-1068.2264 0.0393,0.1208 -0.0604,0.02"
       style="fill:#ffffff;stroke-width:0.0211667" />
    <path
       id="path2348"
       d="m -939.8014,-1068.1387 h -0.127 v 0.063"
       style="fill:#ffffff;stroke-width:0.0211667" />
    <path
       id="path2351"
       d="m -939.8014,-1068.1387 -0.10274,0.075 -0.0373,-0.051"
       style="fill:#ffffff;stroke-width:0.0211667" />
    <path
       id="path2420"
       d="m -940.04296,-1068.1387 0.10274,0.075 0.0373,-0.051"
       style="fill:#ffffff;stroke-width:0.0211667" />
    <path
       id="path2423"
       d="m -940.04296,-1068.1387 h 0.127 v 0.063"
       style="fill:#ffffff;stroke-width:0.0211667" />
    <path
       id="path2144"
       d="m -939.84753,-1067.9967 -0.0393,-0.1208 -0.0604,0.02"
       style="fill:#ffffff;stroke-width:0.0211667" />
    <path
       id="path2147"
       d="m -939.84753,-1067.9967 -0.10275,-0.075 0.0373,-0.051"
       style="fill:#ffffff;stroke-width:0.0211667" />
    <path
       id="path2222"
       d="m -939.99683,-1067.9967 0.10275,-0.075 -0.0373,-0.051"
       style="fill:#ffffff;stroke-width:0.0211667" />
    <path
       id="path2225"
       d="m -939.99683,-1067.9967 0.0393,-0.1208 0.0604,0.02"
       style="fill:#ffffff;stroke-width:0.0211667" />
    <path
       id="path2366"
       d="m -941.95418,-1067.2104 -0.0393,0.1208 0.0604,0.02"
       style="fill:#ffffff;stroke-width:0.0211667" />
    <path
       id="path2369"
       d="m -941.95418,-1067.2104 0.0392,0.1208 -0.0604,0.02"
       style="fill:#ffffff;stroke-width:0.0211667" />
    <path
       id="path2126"
       d="m -941.8334,-1067.1227 h -0.127 v 0.063"
       style="fill:#ffffff;stroke-width:0.0211667" />
    <path
       id="path2129"
       d="m -941.8334,-1067.1227 -0.10274,0.075 -0.0373,-0.051"
       style="fill:#ffffff;stroke-width:0.0211667" />
    <path
       id="path2156"
       d="m -942.07496,-1067.1227 0.10274,0.075 0.0373,-0.051"
       style="fill:#ffffff;stroke-width:0.0211667" />
    <path
       id="path2159"
       d="m -942.07496,-1067.1227 h 0.127 v 0.063"
       style="fill:#ffffff;stroke-width:0.0211667" />
    <path
       id="path2084"
       d="m -941.87953,-1066.9807 -0.0392,-0.1208 -0.0604,0.02"
       style="fill:#ffffff;stroke-width:0.0211667" />
    <path
       id="path2087"
       d="m -941.87953,-1066.9807 -0.10275,-0.075 0.0373,-0.051"
       style="fill:#ffffff;stroke-width:0.0211667" />
    <path
       id="path2108"
       d="m -942.02883,-1066.9807 0.10275,-0.075 -0.0373,-0.051"
       style="fill:#ffffff;stroke-width:0.0211667" />
    <path
       id="path2111"
       d="m -942.02883,-1066.9807 0.0392,-0.1208 0.0604,0.02"
       style="fill:#ffffff;stroke-width:0.0211667" />
    <path
       id="path2390"
       d="m -941.44618,-1067.2104 -0.0392,0.1208 0.0604,0.02"
       style="fill:#ffffff;stroke-width:0.0211667" />
    <path
       id="path2393"
       d="m -941.44618,-1067.2104 0.0393,0.1208 -0.0604,0.02"
       style="fill:#ffffff;stroke-width:0.0211667" />
    <path
       id="path2096"
       d="m -941.3254,-1067.1227 h -0.127 v 0.063"
       style="fill:#ffffff;stroke-width:0.0211667" />
    <path
       id="path2099"
       d="m -941.3254,-1067.1227 -0.10274,0.075 -0.0373,-0.051"
       style="fill:#ffffff;stroke-width:0.0211667" />
    <path
       id="path2360"
       d="m -941.56696,-1067.1227 0.10274,0.075 0.0373,-0.051"
       style="fill:#ffffff;stroke-width:0.0211667" />
    <path
       id="path2363"
       d="m -941.56696,-1067.1227 h 0.127 v 0.063"
       style="fill:#ffffff;stroke-width:0.0211667" />
    <path
       id="path2414"
       d="m -941.37153,-1066.9807 -0.0393,-0.1208 -0.0604,0.02"
       style="fill:#ffffff;stroke-width:0.0211667" />
    <path
       id="path2417"
       d="m -941.37153,-1066.9807 -0.10275,-0.075 0.0373,-0.051"
       style="fill:#ffffff;stroke-width:0.0211667" />
    <path
       id="path2408"
       d="m -941.52083,-1066.9807 0.10275,-0.075 -0.0373,-0.051"
       style="fill:#ffffff;stroke-width:0.0211667" />
    <path
       id="path2411"
       d="m -941.52083,-1066.9807 0.0393,-0.1208 0.0604,0.02"
       style="fill:#ffffff;stroke-width:0.0211667" />
    <path
       id="path2090"
       d="m -941.44618,-1067.7184 -0.0392,0.1208 0.0604,0.02"
       style="fill:#ffffff;stroke-width:0.0211667" />
    <path
       id="path2093"
       d="m -941.44618,-1067.7184 0.0393,0.1208 -0.0604,0.02"
       style="fill:#ffffff;stroke-width:0.0211667" />
    <path
       id="path2372"
       d="m -941.3254,-1067.6307 h -0.127 v 0.063"
       style="fill:#ffffff;stroke-width:0.0211667" />
    <path
       id="path2375"
       d="m -941.3254,-1067.6307 -0.10274,0.075 -0.0373,-0.051"
       style="fill:#ffffff;stroke-width:0.0211667" />
    <path
       id="path2240"
       d="m -941.56696,-1067.6307 0.10274,0.075 0.0373,-0.051"
       style="fill:#ffffff;stroke-width:0.0211667" />
    <path
       id="path2243"
       d="m -941.56696,-1067.6307 h 0.127 v 0.063"
       style="fill:#ffffff;stroke-width:0.0211667" />
    <path
       id="path2246"
       d="m -941.37153,-1067.4887 -0.0393,-0.1208 -0.0604,0.02"
       style="fill:#ffffff;stroke-width:0.0211667" />
    <path
       id="path2249"
       d="m -941.37153,-1067.4887 -0.10275,-0.075 0.0373,-0.051"
       style="fill:#ffffff;stroke-width:0.0211667" />
    <path
       id="path2114"
       d="m -941.52083,-1067.4887 0.10275,-0.075 -0.0373,-0.051"
       style="fill:#ffffff;stroke-width:0.0211667" />
    <path
       id="path2117"
       d="m -941.52083,-1067.4887 0.0393,-0.1208 0.0604,0.02"
       style="fill:#ffffff;stroke-width:0.0211667" />
  </g>
</svg>
