<?xml version="1.0"?>
<svg width="30" height="20" xmlns="http://www.w3.org/2000/svg" xmlns:xlink="http://www.w3.org/1999/xlink"><symbol id="tgl" width="30" height="20" fill="#fcd116" viewBox="-28 -45 135 90"><path d="m-28-45h180V0L0 44z" fill="#0038a8"/><path d="m0 0h152v45H-28z" fill="#ce1126"/><path d="m49.942 0L-28 45v-90z" fill="#fff"/><circle r="9"/><g id="c"><g id="b"><path id="a" d="m0 0-3.164-15.909.945-.946zl-1.169-17.831L0-19l1.169 1.169zl2.219-16.855.945.946z"/><use transform="scale(-1)" xlink:href="#a"/></g><use transform="rotate(90)" xlink:href="#b"/></g><use transform="rotate(45)" xlink:href="#c"/><path id="d" d="m40.942 0-3.382 1.176-.073 3.579-2.163-2.853-3.427 1.037 2.045-2.939-2.045-2.939 3.427 1.037 2.163-2.853.073 3.579z"/><use transform="rotate(120,-2.019,0)" xlink:href="#d"/><use transform="rotate(240,-2.019,0)" xlink:href="#d"/></symbol><use href="#tgl"/><path d="M19 0h11v20H19z" fill="#fff"/><path transform="matrix(0 -.1.1 0 0 0)" d="m-180.7 279.1h11.9l5.7-36.8.5-3.4.5 3.4 6 36.8h11.9l9.4-68.1h-12.1l-4.6 38.2-.3 2.8-.5-2.8-5.7-38.2h-9.4l-5.4 37.9-.4 2.8-.3-2.6-4.5-38.1h-12.1zm91.58-14.2 3.98 14.2h13.86l-21.91-68.1h-11.91l-22.4 68.1h13.9l4-14.2zm-17.18-11.2 7.12-25.1 6.97 25.1zm69.32 0 12.82 25.4h14.09v-.6l-14.65-28.1q2.81-1.3 5.06-3 2.29-1.7 3.93-4.1 1.59-2.3 2.43-5.2.89-2.9.89-6.6 0-5-1.78-8.9-1.73-3.8-4.96-6.4-3.27-2.6-7.86-3.9t-10.25-1.3h-22.84v68.1h13.15v-25.4zm-9.97-10.7v-21.4h9.69q2.71 0 4.82.7t3.56 1.9q1.64 1.3 2.43 3.4.84 2.1.84 4.8 0 2.3-.65 4.1-.61 1.8-1.83 3.1-1.45 1.7-3.79 2.5-2.29.9-5.34.9z"/></svg>
