<svg width="30" height="20" xmlns="http://www.w3.org/2000/svg" xmlns:xlink="http://www.w3.org/1999/xlink"><symbol id="tgl" width="30" height="20" fill="#fcd116" viewBox="-28 -45 135 90"><path d="m-28-45h180V0L0 44z" fill="#0038a8"/><path d="m0 0h152v45H-28z" fill="#ce1126"/><path d="m49.942 0L-28 45v-90z" fill="#fff"/><circle r="9"/><g id="c"><g id="b"><path id="a" d="m0 0-3.164-15.909.945-.946zl-1.169-17.831L0-19l1.169 1.169zl2.219-16.855.945.946z"/><use transform="scale(-1)" xlink:href="#a"/></g><use transform="rotate(90)" xlink:href="#b"/></g><use transform="rotate(45)" xlink:href="#c"/><path id="d" d="m40.942 0-3.382 1.176-.073 3.579-2.163-2.853-3.427 1.037 2.045-2.939-2.045-2.939 3.427 1.037 2.163-2.853.073 3.579z"/><use transform="rotate(120,-2.019,0)" xlink:href="#d"/><use transform="rotate(240,-2.019,0)" xlink:href="#d"/></symbol><use href="#tgl"/><path d="M19 0h11v20H19z" fill="#fff"/><path transform="matrix(0 -.2.2 0 0 0)" d="m-90.36 139.6h5.95l2.85-18.4.26-1.8.26 1.8 2.97 18.4h5.95l4.72-34.1h-6.04l-2.31 19.1-.17 1.4-.21-1.4-2.85-19.1h-4.71l-2.69 19-.21 1.4-.16-1.4-2.27-19h-6.02zm45.8-7.2 1.99 7.2h6.93l-10.95-34.1h-5.97l-11.17 34.1h6.93l2.01-7.2zm-8.61-5.5 3.58-12.6 3.49 12.6zm34.68-.1 6.41 12.8h7.047v-.3l-7.327-14.1q1.41-.6 2.529-1.5 1.147-.9 1.966-2 .796-1.2 1.217-2.6.445-1.5.445-3.3 0-2.6-.89-4.5-.866-1.9-2.48-3.2-1.637-1.3-3.937-1.9-2.29-.7-5.12-.7h-11.42v34.1h6.57v-12.8zm-4.99-5.3v-10.7h4.85q1.36 0 2.41.3 1.05.4 1.78 1 .82.7 1.22 1.7.42 1 .42 2.4 0 1.1-.33 2-.31 1-.91 1.6-.73.8-1.9 1.3-1.15.4-2.67.4z"/></svg>
