<svg width="30" height="20" xmlns="http://www.w3.org/2000/svg"><symbol id="tgl" width="30" height="20" fill="#fcd116" viewBox="-28 -45 135 90"><path d="m-28-45h180V0L0 44z" fill="#0038a8"/><path d="m0 0h152v45H-28z" fill="#ce1126"/><path d="m49.942 0L-28 45v-90z" fill="#fff"/><circle r="9"/><g id="c"><g id="b"><path id="a" d="m0 0-3.164-15.909.945-.946zl-1.169-17.831L0-19l1.169 1.169zl2.219-16.855.945.946z"/><use transform="scale(-1)" href="#a"/></g><use transform="rotate(90)" href="#b"/></g><use transform="rotate(45)" href="#c"/><path id="d" d="m40.942 0-3.382 1.176-.073 3.579-2.163-2.853-3.427 1.037 2.045-2.939-2.045-2.939 3.427 1.037 2.163-2.853.073 3.579z"/><use transform="rotate(120,-2.019,0)" href="#d"/><use transform="rotate(240,-2.019,0)" href="#d"/></symbol><use href="#tgl"/><path d="M19 0h11v20H19z" fill="#fff"/><symbol id="W"><path d="m4.63 8h1.22l.586-3.78.0529-.356.0529.356.611 3.78h1.22l.971-7h-1.24l-.476 3.92-.0336.293-.0433-.288-.586-3.93h-.966l-.553 3.9-.0433.288-.0336-.274-.466-3.91h-1.24z"/></symbol><symbol id="A"><path d="m7.62 6.54.409 1.46h1.42l-2.25-7h-1.23l-2.29 7h1.42l.413-1.46zm-1.77-1.15.736-2.58.716 2.58z"/></symbol><symbol id="R"><path d="m6.55 5.38 1.32 2.62h1.45v-.0625l-1.5-2.89q.29-.13.519-.308.24-.18.404-.418.16-.24.25-.534.091-.3.0913-.678 0-.52-.183-.914-.18-.39-.51-.659-.34-.26-.808-.399-.47-.14-1.05-.139h-2.35v7h1.35v-2.62zm-1.02-1.1v-2.19h.995q.28 0 .495.067.22.067.365.192.17.14.25.356.087.21.087.49 0 .23-.067.418-.062.19-.188.322-.15.17-.389.26-.24.087-.548.087z"/></symbol><g transform="rotate(-90 15 -5)"><use x="-13" href="#W"/><use x="-6.5" href="#A"/><use href="#R"/></g></svg>
