<?xml version="1.0" encoding="UTF-8" standalone="no"?>
<!-- Creator: CorelDRAW Home & Student X8 -->

<svg
   xml:space="preserve"
   width="7.9375mm"
   height="5.291667mm"
   version="1.1"
   style="clip-rule:evenodd;fill-rule:evenodd;image-rendering:optimizeQuality;shape-rendering:geometricPrecision;text-rendering:geometricPrecision"
   viewBox="0 0 793.75 529.1667"
   id="svg1"
   sodipodi:docname="Valonya.svg"
   inkscape:version="1.4 (86a8ad7, 2024-10-11)"
   xmlns:inkscape="http://www.inkscape.org/namespaces/inkscape"
   xmlns:sodipodi="http://sodipodi.sourceforge.net/DTD/sodipodi-0.dtd"
   xmlns="http://www.w3.org/2000/svg"
   xmlns:svg="http://www.w3.org/2000/svg"><sodipodi:namedview
   id="namedview1"
   pagecolor="#ffffff"
   bordercolor="#000000"
   borderopacity="0.25"
   inkscape:showpageshadow="2"
   inkscape:pageopacity="0.0"
   inkscape:pagecheckerboard="0"
   inkscape:deskcolor="#d1d1d1"
   inkscape:document-units="mm"
   inkscape:zoom="1.4234583"
   inkscape:cx="425.37248"
   inkscape:cy="283.46457"
   inkscape:window-width="1920"
   inkscape:window-height="1009"
   inkscape:window-x="-8"
   inkscape:window-y="-8"
   inkscape:window-maximized="1"
   inkscape:current-layer="Layer_x0020_1" />
 <defs
   id="defs1">
  <style
   type="text/css"
   id="style1">
   <![CDATA[
    .fil1 {fill:#E63C24}
    .fil0 {fill:#FCEB0A}
   ]]>
  </style>
 </defs>
 <g
   id="Layer_x0020_1"
   inkscape:label="Layer 1"
   inkscape:groupmode="layer">
  <metadata
   id="CorelCorpID_0Corel-Layer" />
  <rect
   id="rect4"
   class="fil0"
   width="793.75"
   height="529.16669"
   x="0"
   y="0"
   style="stroke-width:0.0352778" />
  <g
   id="g1"
   transform="scale(0.03527778)">
   <path
   id="path4467"
   class="fil1"
   d="m 14990,9371 c -312,425 -675,797 -1525,660 -374,414 -709,514 -1025,454 195,197 488,157 825,9 -222,269 -473,514 -918,606 132,241 808,239 1288,-467 -376,812 -255,1462 -94,2099 13,-802 125,-1400 504,-1975 -51,217 -74,478 -89,753 99,-328 202,-647 325,-882 -26,263 3,569 36,878 36,-368 62,-729 294,-1212 -129,33 -227,36 -308,-14 487,-332 598,-623 687,-909 z M 13472,6246 c 2329,25 2600,3699 1021,4008 384,-349 581,-718 617,-1103 -968,1358 -2098,689 -2162,454 2044,491 2050,-1748 990,-2571 -115,-286 -332,-407 -567,-498 188,-14 444,35 869,239 -198,-349 -479,-453 -768,-529 z m -308,-83 c 554,-245 1466,-228 2031,153 995,669 1219,1676 1005,3450 -112,923 -630,1183 -512,3382 -334,-686 -469,-1376 -300,-2011 -341,293 -613,659 -719,1203 -542,-806 992,-1777 995,-3254 -11,-1457 -651,-3098 -2500,-2923 z m -196,-616 c 86,-69 172,-140 243,-250 80,-14 276,-6 438,19 -9,61 -69,115 -110,171 -188,40 -379,50 -571,60 z m 546,-664 c 134,-135 199,-302 288,-466 93,-11 259,-16 381,-2 -87,171 -226,341 -366,511 -80,-16 -226,-49 -303,-43 z m -2419,1848 c 186,-251 386,-468 605,-643 43,-444 275,-834 454,-1081 -583,452 -915,1013 -1059,1724 z m 1252,-3278 c 695,-273 1302,-283 1867,-165 671,-294 1071,-645 1426,-967 -518,287 -1008,269 -1462,428 604,-449 1029,-964 1132,-1600 -213,276 -411,578 -664,784 31,-38 41,-100 49,-165 -451,534 -1372,971 -2348,1685 z M 8520,2795 c 191,-43 -56,-238 -46,-46 -68,-27 -28,-112 -62,-124 -106,-21 -152,35 -145,161 -53,32 -57,56 -7,77 0,54 19,78 59,72 8,88 37,154 101,177 14,7 -9,107 4,125 80,-12 135,-70 147,-206 81,45 199,66 217,-27 -99,-4 -153,-24 -173,-61 -28,-52 26,-102 5,-136 -40,27 -98,20 -100,-12 z m -402,533 c 258,13 345,-150 141,-306 -55,29 -71,57 -162,68 -39,5 -128,-8 -182,7 -41,12 -80,33 -125,78 31,42 97,46 144,67 70,30 151,7 253,-33 -1,82 -35,53 -69,119 z m 2394,9019 c -23,58 -67,140 -100,194 160,31 516,12 543,-83 -223,-18 -348,-49 -443,-111 z m -79,-1209 c -2,0 -4,0 -7,0 -45,200 -268,939 -426,1240 -143,268 -237,263 -306,395 -13,33 -85,158 -88,194 -14,50 -33,147 -183,148 -238,1 -581,-7 -641,75 -44,13 -93,20 -110,16 -51,-13 -165,27 -202,71 -34,40 -44,106 -18,115 10,4 10,17 -3,51 -13,60 -7,141 42,179 17,-20 17,-40 25,-71 11,-42 51,-81 78,-80 2,1 -4,16 -9,29 -10,45 26,54 57,44 31,-10 68,-36 170,-100 45,-28 98,-60 164,-33 160,60 439,-96 571,-65 -54,108 -191,231 -208,244 -165,95 -408,199 -234,398 6,94 75,157 152,170 -12,-94 -14,-153 36,-191 -1,8 -22,30 30,33 98,8 89,-100 90,-197 210,-133 277,-322 431,-500 11,-10 37,4 23,20 -31,46 -82,127 -69,188 19,0 75,-1 89,21 31,-43 84,-97 166,-92 11,0 38,-20 60,-45 30,-35 39,-56 39,-98 0,-48 -16,-84 -35,-99 -3,-6 1,-16 12,-20 96,44 150,141 205,238 19,123 90,203 199,227 30,7 56,-9 69,-2 25,46 59,112 53,182 86,-18 125,-115 95,-190 -11,-28 -14,-52 -7,-64 14,-25 -7,-116 -34,-146 -23,-25 -131,-84 -154,-84 -161,-82 -212,-271 -292,-430 -6,-11 -34,4 -40,17 -14,36 -6,-52 10,-105 154,-397 412,-803 625,-1173 86,-89 257,-131 243,-274 -156,-34 -251,-36 -332,1 -71,33 -122,134 -173,244 25,-91 104,-231 70,-293 -63,-83 -159,-188 -233,-188 z M 7967,9807 c -19,-3 -72,4 -125,2 -110,-4 -166,-5 -196,-2 -386,-53 -1011,-212 -1388,-324 -66,-22 -128,-48 -183,-79 -42,-25 -104,-55 -138,-68 -27,-10 -44,-15 -61,-16 v 0 c -18,-1 -39,-5 -65,11 -35,21 -101,39 -145,14 -111,-4 -227,64 -296,118 -132,101 -236,143 -550,220 -155,32 -369,114 -422,192 -27,39 -24,89 6,128 21,17 46,50 40,74 18,50 74,123 95,123 11,0 16,-20 16,-57 0,-75 29,-132 62,-123 23,6 83,-24 227,-111 18,-11 65,-23 104,-28 136,-16 340,-94 486,-186 15,-9 31,-13 36,-8 14,14 -55,106 -173,230 -167,167 -119,193 -182,208 -90,63 -115,139 -75,235 20,47 43,68 120,110 24,13 48,29 52,35 9,14 112,30 112,18 0,-5 -14,-35 -31,-68 -35,-65 -41,-103 -16,-104 8,0 25,-13 36,-28 22,-30 87,-185 87,-206 0,-11 46,-70 143,-182 15,-17 52,-67 82,-110 58,-86 96,-107 74,-50 -95,172 315,92 347,-12 48,71 40,216 41,280 2,242 46,337 173,379 75,25 97,46 97,96 1,23 7,35 20,35 27,0 81,-57 81,-84 0,-34 -59,-155 -75,-155 -8,0 -10,-7 -6,-14 6,-10 12,-9 20,3 9,14 11,13 11,-2 0,-28 -45,-120 -80,-167 -47,-62 -63,-139 -53,-255 5,-55 17,-111 27,-125 12,-18 16,-23 18,-14 4,32 9,66 16,103 3,3 84,25 179,49 108,27 156,31 189,36 32,-4 71,-13 92,-16 13,17 20,40 27,57 24,54 64,294 64,385 v 39 l 30,-32 c 35,-38 88,-289 82,-388 -3,-34 -3,-63 -1,-63 25,40 51,78 52,128 251,53 541,166 798,271 116,59 418,162 445,151 24,-9 8,-58 -35,-102 -38,-40 -76,-145 -70,-197 3,-20 -3,-30 -16,-30 -11,0 -42,-17 -68,-36 -31,-26 -119,-213 -138,-288 z m 8265,-563 c -2,1 -4,8 -3,18 0,15 3,18 7,8 4,-9 3,-20 -1,-24 -1,-1 -2,-2 -3,-2 z m -7145,640 -157,-128 c -79,-127 -150,-285 -234,-382 -24,-14 -133,-8 -166,-13 -98,-14 -267,-80 -381,-148 -59,-35 -93,-52 -116,-52 v 0 c -22,1 -31,20 -39,57 -14,64 -1,138 60,323 16,75 103,193 11,224 -55,24 -43,96 42,212 52,56 93,77 141,103 42,22 48,51 25,118 -19,52 14,120 77,162 26,17 54,47 62,67 21,51 74,96 137,117 84,27 156,7 333,-97 61,-36 176,-64 306,-76 130,-12 218,-33 226,-55 -2,-200 -198,-340 -327,-432 z m 2012,-1246 c -11,98 -92,434 -160,479 7,14 47,17 71,-4 19,-16 67,-37 91,-28 133,-54 48,-433 -2,-447 z m -135,884 c 59,-17 112,-52 142,-79 52,-47 47,-162 48,-278 -99,3 -272,42 -278,-8 -86,68 -227,148 -306,137 50,-41 127,-195 132,-243 -162,158 -371,306 -574,271 -49,-9 -50,-29 -2,-61 49,-33 59,-57 23,-57 -23,0 -10,-10 55,-85 137,-157 197,-263 196,-317 -380,46 -755,-60 -1145,-223 -301,135 -655,51 -731,39 99,234 772,356 1149,446 -62,30 -388,1 -432,-12 43,133 439,218 503,298 179,168 756,218 1220,172 z m 327,655 c -204,129 -318,236 -528,212 83,-51 218,-255 245,-343 -75,3 -158,-4 -198,-22 30,-11 132,-23 146,-30 49,-34 246,-230 173,-439 -910,121 -1013,-23 -1341,-114 -292,120 -597,-61 -810,-41 -55,9 -112,49 -112,78 0,27 88,193 176,259 350,260 430,527 662,686 293,170 617,331 706,576 52,80 217,202 313,271 52,22 112,20 169,1 76,-12 116,13 190,38 152,-48 205,-241 171,-366 -38,-100 -114,-241 -66,-290 89,-87 93,-385 104,-476 z M 9780,8331 c -2,0 -3,1 -5,1 -116,83 -312,164 -405,219 261,130 567,250 975,193 83,-76 118,-213 119,-298 -306,3 -598,-68 -684,-115 z m 1967,-92 c 55,212 93,442 191,629 129,239 555,646 750,569 -541,-437 -691,-1018 -840,-1229 -30,16 -64,27 -101,31 z m -1252,-49 c -42,55 -80,111 -108,168 19,1 75,-5 95,-9 7,-56 9,-101 13,-159 z m -474,-90 c -33,39 -123,119 -177,174 117,85 277,82 402,79 32,-48 60,-208 54,-246 -107,3 -190,-3 -279,-7 z m 225,-428 c -95,108 -159,139 -242,194 -26,21 -13,32 33,29 35,-2 68,-11 92,-21 1,63 -37,132 -53,180 86,13 167,11 206,-3 15,-86 40,-322 -36,-379 z m 1242,0 c 60,105 116,215 170,330 70,157 150,156 237,69 180,-194 566,-73 560,313 -1,25 -89,90 -137,109 258,114 373,-161 493,-297 53,186 -46,234 -120,358 236,-79 288,-256 347,-396 196,585 -42,677 -262,766 411,111 748,-200 838,-315 -55,215 -155,405 -325,501 268,3 517,-378 521,-445 65,325 138,676 -87,893 -30,28 -54,53 -54,56 484,-150 564,-310 525,-686 43,52 60,120 73,275 270,-245 128,-613 43,-887 120,128 186,357 199,416 140,-602 -212,-1414 -685,-1679 -725,-405 -1820,-148 -2336,619 z m 567,784 c -46,-66 -107,-207 -157,-304 201,-147 367,-95 486,92 17,37 -233,108 -329,212 z m 681,-2142 c -404,112 -978,364 -1450,1059 19,34 125,173 154,230 441,-650 1560,-1031 2397,-647 -94,-205 -614,-426 -684,-442 346,-117 654,27 885,103 -360,-322 -890,-422 -1302,-303 z M 9124,6045 c 585,204 1329,972 889,1740 118,-3 199,-169 257,-268 102,203 113,625 46,808 127,-67 169,-218 215,-339 14,-1 14,343 -9,531 -17,139 -95,557 -333,733 170,98 497,-322 567,-379 3,119 -13,210 -53,312 159,94 385,-603 387,-818 346,862 67,1801 -177,1963 198,29 435,-386 525,-500 25,182 -38,342 -81,481 190,-55 239,-566 254,-711 21,464 14,1349 241,1752 -115,-677 25,-963 31,-1498 63,148 294,380 364,397 -157,-321 -331,-636 -325,-840 377,599 699,524 687,432 -297,-6 -540,-556 -666,-769 -128,-331 -171,-843 -714,-1624 -59,-115 -384,-460 -506,-550 -46,-34 -59,-30 -110,-90 -235,-375 -1122,-861 -1489,-763 z m -757,10 c -8,8 -13,36 -28,34 -54,-14 -149,3 -184,51 -13,61 44,61 71,93 -22,155 -381,209 -436,217 -289,42 -419,122 -521,223 -130,130 -143,441 -18,594 72,129 207,250 296,359 -9,17 -48,46 -35,57 510,644 864,860 1304,930 100,12 330,-14 333,-85 -61,4 -259,-98 -258,-155 302,162 606,77 810,-86 -149,-4 -321,-77 -331,-119 367,73 538,-2 687,-213 -57,5 -209,3 -215,-15 198,-222 265,-538 232,-788 -27,-171 -157,-433 -296,-594 -103,-127 -630,-539 -726,-485 3,28 10,71 -11,75 -134,-151 -501,-212 -674,-93 z m 2667,978 c 12,26 181,245 202,262 454,-588 921,-988 1658,-1097 29,-4 76,-35 114,-62 325,-201 635,-233 944,-217 56,3 221,4 305,12 356,34 745,197 960,271 -1385,-1240 -3712,-400 -4183,831 z M 8960,4976 c -239,183 -530,510 -616,768 -123,-187 -42,-333 27,-455 -229,67 -343,362 -283,578 48,63 112,117 179,163 206,-112 430,-132 602,-42 62,-10 149,-25 197,-20 -28,-81 -143,-90 -178,-181 31,-9 89,30 137,13 -124,-211 -45,-597 -65,-824 z m 2854,1076 c 283,-195 568,-364 972,-458 122,-89 208,-155 328,-287 -53,-33 -115,-11 -172,-35 644,-124 1596,160 1894,418 -302,-565 -1174,-794 -1643,-764 52,-32 112,-45 216,-51 134,-142 245,-293 319,-457 -880,18 -1895,558 -1914,1634 z M 7886,8199 c -75,-93 -160,-136 -237,-240 -64,-76 -180,-193 -182,-274 0,-26 -57,-129 -94,-170 -49,-53 -166,-217 -199,-278 -18,-32 -42,-99 -54,-148 -22,-90 -21,-122 7,-218 43,-144 95,-209 160,-280 84,-95 121,-121 342,-143 86,-9 172,-26 202,-35 93,-39 220,-76 275,-148 -48,11 -136,5 -161,-3 112,-65 255,-173 140,-299 -28,-30 -59,-55 -64,-67 -13,-65 -24,-127 -50,-180 -27,55 -47,109 -69,165 l -17,-68 c -10,-24 -21,-92 -24,-152 -9,-152 19,-266 111,-452 76,-152 107,-206 243,-349 -172,51 -329,62 -492,26 -54,-12 -124,-33 -155,-46 -67,-28 -188,-99 -241,-154 289,-25 599,-33 755,-203 -92,-5 -194,-25 -274,-81 187,-53 566,-223 620,-393 -62,19 -94,25 -145,32 -35,5 -92,3 -186,6 -317,7 -316,-84 -389,-127 -10,0 -95,39 -180,83 -566,292 -842,490 -1012,727 -189,291 -228,543 -209,744 -48,106 -81,247 -112,393 -115,411 -114,651 5,892 15,31 38,85 49,120 11,35 47,109 78,164 32,55 83,145 113,199 65,116 219,327 275,377 22,20 83,61 136,92 53,31 99,60 101,66 2,6 67,60 143,121 158,124 322,213 504,272 70,25 166,33 187,102 20,-43 63,-74 100,-73 z M 6811,7749 c 65,432 717,1125 1427,1428 106,24 189,144 325,134 49,-11 238,25 328,19 130,1 168,7 360,57 221,59 212,58 409,39 59,-10 63,-54 32,-72 -26,-19 -88,-47 -233,-112 -80,-35 -171,-76 -202,-90 -38,-17 -71,-46 -101,-87 -30,-41 -59,-67 -88,-76 -432,-156 -827,-443 -1122,-711 -450,103 -1018,-491 -1135,-529 z m 5001,-3742 c -35,67 -56,122 -75,122 -16,-38 -7,-65 -8,-104 -562,481 -896,1318 -847,1719 -20,3 -48,-3 -52,-11 -92,321 -71,570 -10,845 -29,53 -86,118 -102,185 62,87 126,129 212,184 67,-122 96,-165 131,-243 106,-834 679,-1614 1463,-2024 420,-218 643,-258 1262,-331 108,-10 278,-21 423,-5 210,22 500,85 708,154 923,345 1087,1085 914,1717 700,-569 97,-1808 -434,-2061 82,-8 253,108 312,149 -934,-1548 -3550,-1076 -3897,-296 z M 8232,3389 c -104,-12 -222,-5 -304,17 -160,49 -447,132 -382,530 29,-26 156,-48 170,-42 1,-315 351,-340 516,-505 z m -293,222 c -101,78 -127,111 -142,180 -25,116 49,193 187,196 107,-5 149,39 229,30 82,-12 263,-188 280,-273 13,-65 1,-145 -20,-235 -9,-39 -15,-182 -8,-229 -23,2 -52,-4 -76,-22 -47,84 -165,172 -227,208 z m 5403,-468 c 4,-1 10,1 14,2 10,4 7,7 -8,8 -13,0 -21,-3 -16,-7 2,-2 6,-3 10,-3 z M 8897,2876 c -61,132 -56,261 -215,244 -223,30 -156,421 -151,475 10,102 -21,253 -81,335 47,12 94,-3 126,-25 -68,292 -434,476 -537,504 62,7 167,10 242,-20 -169,265 -562,336 -762,377 319,133 722,-1 868,-70 -143,243 -457,558 -476,957 203,-276 336,-418 589,-509 2,63 -194,354 -148,469 192,-468 495,-506 714,-903 6,-12 19,-39 20,-35 -24,129 -144,747 -35,912 9,-193 50,-359 149,-475 -18,219 -24,569 108,692 -61,-284 0,-541 63,-661 26,-49 150,-384 183,-496 16,-55 39,-160 50,-233 43,-294 129,-765 4,-974 -30,-59 -118,-183 -149,-208 -144,-133 -370,-173 -509,-312 -27,-24 -51,-44 -53,-44 z m -190,-470 c -174,7 -320,89 -255,218 208,-97 222,55 207,151 42,45 25,107 15,156 158,32 181,-41 196,-150 261,285 612,312 766,558 -18,-475 -380,-940 -929,-933 z m -702,350 c 22,-45 119,-32 111,5 -1,12 22,31 53,20 28,-10 32,-21 42,-67 3,-73 18,-108 56,-128 -1,-118 65,-285 134,-315 -11,40 -86,207 -31,282 50,-180 208,-175 436,-226 34,-9 271,-79 415,-148 -36,38 -192,111 -204,118 -87,50 -81,74 31,126 558,94 1116,-394 948,-858 -55,-89 -204,-393 -204,-454 0,-28 -27,-42 -58,-54 -250,-38 -429,224 -477,412 -16,66 -17,96 -44,73 -105,-167 -1,-389 -22,-461 -11,-29 -33,-23 -110,19 -144,80 -238,204 -292,428 -19,77 -19,189 -47,192 -27,9 -40,-90 -40,-235 0,-154 -22,-189 -67,-205 -35,9 -50,12 -104,81 -112,142 -169,286 -169,396 0,128 -30,148 -105,64 -23,-25 -93,-96 -113,-98 -29,0 -90,84 -149,195 -30,57 -82,136 -115,175 -128,139 -162,246 -159,277 -1,226 63,225 83,370 21,105 163,88 201,16 z m 88,284 c 110,-10 126,-32 99,-93 51,-135 -62,-36 -80,-87 -5,-46 -24,-72 -52,-72 -20,0 -44,22 -48,29 -17,25 -71,67 -104,39 -11,-8 -31,-13 -48,-8 -103,40 -240,287 -145,382 100,-149 204,-171 378,-190 z m 2649,3381 c 25,45 39,103 40,175 -46,56 -88,96 -143,138 -28,12 -46,-22 -38,-43 47,-85 102,-172 141,-270 z" />
  </g>
 </g>
</svg>
