<svg width="30" height="20" xmlns="http://www.w3.org/2000/svg"><symbol id="cmn" width="30" height="20"><defs><path id="s" d="m0-1 .58778 1.809-1.5388-1.118h1.9021l-1.5388 1.118z" fill="#ff0"/></defs><rect width="30" height="20" fill="#ee1c25"/><use transform="translate(5,5) scale(3)" href="#s"/><use transform="translate(10 2) rotate(23.036)" href="#s"/><use transform="translate(12 4) rotate(45.87)" href="#s"/><use transform="translate(12 7) rotate(69.945)" href="#s"/><use transform="translate(10 9) rotate(20.66)" href="#s"/></symbol><use href="#cmn"/><path d="M19 0h11v20H19z" fill="#fff"/><symbol id="W"><path d="m4.63 8h1.22l.586-3.78.0529-.356.0529.356.611 3.78h1.22l.971-7h-1.24l-.476 3.92-.0336.293-.0433-.288-.586-3.93h-.966l-.553 3.9-.0433.288-.0336-.274-.466-3.91h-1.24z"/></symbol><symbol id="U"><path d="m8.84 1h-1.34v4.64q-0 .34-.072.601-.072.26-.207.433-.12.17-.317.255-.19.082-.433.0817-.23 0-.399-.0769-.17-.082-.293-.24-.13-.17-.197-.438-.062-.26-.0673-.615l-.0048-4.64h-1.35v4.64q0 .59.164 1.05.17.46.471.769.3.31.726.476.43.16.957.164.56 0 1-.164t.745-.481q.3-.31.462-.769.16-.46.164-1.04z"/></symbol><g transform="rotate(-90 15 -5)"><use x="-13" href="#W"/><use x="-6.5" href="#U"/><use href="#U"/></g></svg>
