<svg width="30" height="20" xmlns="http://www.w3.org/2000/svg"><symbol id="cmn" width="30" height="20"><defs><path id="s" d="m0-1 .58778 1.809-1.5388-1.118h1.9021l-1.5388 1.118z" fill="#ff0"/></defs><rect width="30" height="20" fill="#ee1c25"/><use transform="translate(5,5) scale(3)" href="#s"/><use transform="translate(10 2) rotate(23.036)" href="#s"/><use transform="translate(12 4) rotate(45.87)" href="#s"/><use transform="translate(12 7) rotate(69.945)" href="#s"/><use transform="translate(10 9) rotate(20.66)" href="#s"/></symbol><use href="#cmn"/><path d="M19 0h11v20H19z" fill="#fff"/><path transform="matrix(0 -.2.2 0 0 0)" d="m-90.36 139.6h5.95l2.85-18.4.26-1.8.26 1.8 2.97 18.4h5.95l4.72-34.1h-6.04l-2.31 19.1-.17 1.4-.21-1.4-2.85-19.1h-4.71l-2.69 19-.21 1.4-.16-1.4-2.27-19h-6.02zm51.75-34.1h-6.53v22.6q-0 1.6-.35 2.9-.33 1.3-.98 2.1-.61.8-1.55 1.2-.91.4-2.1.4-1.1 0-1.94-.3-.85-.4-1.43-1.2-.63-.8-.96-2.1-.31-1.3-.33-3v-22.6h-6.58v22.6q0 2.8.79 5.1.82 2.2 2.3 3.7 1.47 1.5 3.53 2.3 2.08.8 4.66.8 2.74 0 4.87-.8 2.15-.8 3.65-2.3 1.47-1.5 2.24-3.8.8-2.2.8-5zm31.26 0h-6.53v22.6q-0 1.6-.35 2.9-.33 1.3-.99 2.1-.61.8-1.54 1.2-.91.4-2.11.4-1.1 0-1.94-.3-.84-.4-1.43-1.2-.63-.8-.96-2.1-.3-1.3-.33-3v-22.6h-6.58v22.6q0 2.8.8 5.1.82 2.2 2.29 3.7t3.53 2.3q2.09.8 4.66.8 2.74 0 4.87-.8 2.15-.8 3.65-2.3 1.475-1.5 2.248-3.8.795-2.2.795-5z"/></svg>
