<?xml version="1.0"?>
<svg width="30" height="20" xmlns="http://www.w3.org/2000/svg" xmlns:xlink="http://www.w3.org/1999/xlink"><symbol id="cmn" width="30" height="20"><defs><path id="s" d="m0-1 .58778 1.809-1.5388-1.118h1.9021l-1.5388 1.118z" fill="#ff0"/></defs><rect width="30" height="20" fill="#ee1c25"/><use transform="translate(5,5) scale(3)" xlink:href="#s"/><use transform="translate(10 2) rotate(23.036)" xlink:href="#s"/><use transform="translate(12 4) rotate(45.87)" xlink:href="#s"/><use transform="translate(12 7) rotate(69.945)" xlink:href="#s"/><use transform="translate(10 9) rotate(20.66)" xlink:href="#s"/></symbol><use href="#cmn"/><path d="M19 0h11v20H19z" fill="#fff"/><path transform="matrix(0 -.1.1 0 0 0)" d="m-180.7 279.1h11.9l5.7-36.8.5-3.4.5 3.4 6 36.8h11.9l9.4-68.1h-12.1l-4.6 38.2-.3 2.8-.5-2.8-5.7-38.2h-9.4l-5.4 37.9-.4 2.8-.3-2.6-4.5-38.1h-12.1zm103.47-68.1h-13.06v45.1q-0 3.4-.71 5.9-.65 2.5-1.96 4.2-1.22 1.6-3.09 2.5-1.83.8-4.21.8-2.2 0-3.9-.8t-2.8-2.3q-1.3-1.7-2-4.3-.6-2.5-.6-6l-.1-45.1h-13.1l-.1 45.1q0 5.8 1.6 10.2 1.7 4.5 4.6 7.5 3 3.1 7.1 4.7t9.3 1.6q5.47 0 9.73-1.6 4.31-1.6 7.3-4.7 2.95-3.1 4.5-7.5 1.59-4.4 1.59-10.2zm62.53 0h-13.06v45.1q-0 3.4-.7 5.9-.65 2.5-1.96 4.2-1.22 1.6-3.09 2.5-1.83.8-4.22.8-2.2 0-3.88-.8-1.69-.8-2.86-2.3-1.26-1.7-1.92-4.3-.6-2.5-.65-6v-45.1h-13.15l-.1 45.1q0 5.8 1.59 10.2 1.64 4.5 4.59 7.5 2.95 3.1 7.07 4.7 4.16 1.6 9.31 1.6 5.48 0 9.74-1.6 4.31-1.6 7.3-4.7 2.95-3.1 4.5-7.5 1.59-4.4 1.59-10.2z"/></svg>
