<?xml version="1.0" encoding="UTF-8" standalone="no"?>
<!-- Creator: CorelDRAW Home & Student X8 -->

<svg
   xml:space="preserve"
   width="7.9375mm"
   height="5.291667mm"
   version="1.1"
   style="clip-rule:evenodd;fill-rule:evenodd;image-rendering:optimizeQuality;shape-rendering:geometricPrecision;text-rendering:geometricPrecision"
   viewBox="0 0 793.75 529.1667"
   inkscape:version="1.4 (86a8ad7, 2024-10-11)"
   sodipodi:docname="Kalmıkya.svg"
   id="svg9"
   xmlns:inkscape="http://www.inkscape.org/namespaces/inkscape"
   xmlns:sodipodi="http://sodipodi.sourceforge.net/DTD/sodipodi-0.dtd"
   xmlns="http://www.w3.org/2000/svg"
   xmlns:svg="http://www.w3.org/2000/svg">
 <defs
   id="defs1">
  <style
   type="text/css"
   id="style1">
   <![CDATA[
    .fil1 {fill:#08B0E1}
    .fil2 {fill:#FEFEFE}
    .fil0 {fill:#FFD109}
    .fil3 {fill:#08B0E1;fill-rule:nonzero}
   ]]>
  </style>
 </defs>
 <g
   id="Layer_x0020_1"
   inkscape:label="Layer 1"
   inkscape:groupmode="layer">
  <metadata
   id="CorelCorpID_0Corel-Layer" />
  <sodipodi:namedview
   pagecolor="#ffffff"
   bordercolor="#666666"
   borderopacity="1"
   objecttolerance="10"
   gridtolerance="10"
   guidetolerance="10"
   inkscape:pageopacity="0"
   inkscape:pageshadow="2"
   inkscape:window-width="1920"
   inkscape:window-height="1009"
   id="namedview28"
   showgrid="false"
   fit-margin-top="0"
   fit-margin-left="0"
   fit-margin-right="0"
   fit-margin-bottom="0"
   inkscape:zoom="0.57921008"
   inkscape:cx="489.45972"
   inkscape:cy="309.90483"
   inkscape:window-x="-8"
   inkscape:window-y="-8"
   inkscape:window-maximized="1"
   inkscape:current-layer="Layer_x0020_1"
   inkscape:showpageshadow="2"
   inkscape:pagecheckerboard="0"
   inkscape:deskcolor="#d1d1d1"
   inkscape:document-units="mm" />
  <rect
   id="rect4"
   class="fil0"
   width="793.75"
   height="529.16669"
   x="0"
   y="0"
   style="stroke-width:0.0352778" />
  <circle
   id="circle6"
   class="fil1"
   cx="396.875"
   cy="264.58334"
   r="176.38889"
   style="stroke-width:0.0352778" />
  <path
   id="path10"
   class="fil2"
   d="m 301.625,349.25 c 28.22223,3.52778 54.68056,-5.29166 72.31945,-15.875 24.69444,-12.34722 28.22222,-45.86111 28.22222,-45.86111 0,0 -44.09722,-3.52778 -67.02778,21.16667 -5.29166,3.52778 -22.93055,17.63889 -33.51389,40.56944 z"
   inkscape:connector-curvature="0"
   style="stroke-width:0.0352778" />
  <path
   class="fil3"
   d="m 303.60056,348.15639 c 12.065,1.27 23.74194,0.3175 34.53694,-2.04611 13.54667,-2.99861 25.64695,-8.18444 35.13667,-13.86417 l 0.0706,-0.0353 c 21.13139,-10.58334 26.3525,-37.11223 27.305,-43.46223 -7.58473,-0.35277 -44.41473,-0.84666 -64.55834,20.81389 l -0.0705,0.14111 -0.14111,0.0706 c -3.21028,2.15194 -11.04195,8.255 -19.05,17.92111 -4.65667,5.64445 -9.34862,12.48833 -13.22917,20.46111 z m 35.10139,0.52917 c -11.60639,2.54 -24.23584,3.4925 -37.25334,1.86972 l -0.42333,-0.0353 -0.98778,-0.98777 0.38806,-0.84667 c 4.1275,-8.89 9.27805,-16.51 14.35805,-22.68361 8.11389,-9.77195 16.08667,-16.05139 19.50862,-18.34445 23.38916,-25.01194 67.83916,-21.48416 67.98027,-21.44889 l 1.34056,0.0706 -0.14111,1.37583 c 0,0.10584 -3.59833,34.14889 -28.85722,46.84889 -9.70139,5.82084 -22.08389,11.14778 -35.91278,14.18167 z"
   id="path1"
   style="stroke-width:0.0352778" />
  <path
   id="path12"
   class="fil2"
   d="m 492.12501,349.25 c -28.22223,3.52778 -54.68056,-5.29166 -72.31945,-15.875 -24.69444,-12.34722 -28.22222,-45.86111 -28.22222,-45.86111 0,0 44.09722,-3.52778 67.02778,21.16667 5.29166,3.52778 22.93055,17.63889 33.51389,40.56944 z"
   inkscape:connector-curvature="0"
   style="stroke-width:0.0352778" />
  <path
   class="fil3"
   d="m 492.30139,350.55528 c -13.0175,1.62278 -25.64694,0.67028 -37.25333,-1.86972 -13.82889,-3.03389 -26.21139,-8.36083 -35.91278,-14.18167 -25.25889,-12.7 -28.85722,-46.74305 -28.85722,-46.84889 l -0.14111,-1.37583 1.34055,-0.0706 c 0.14112,-0.0353 44.59112,-3.56305 67.98028,21.44889 3.42195,2.29306 11.39472,8.5725 19.50861,18.34445 5.08,6.17361 10.23056,13.79361 14.35806,22.68361 l 0.38806,0.84667 -0.98778,0.98777 z m -36.68889,-4.445 c 10.795,2.36361 22.47195,3.31611 34.53695,2.04611 -3.88056,-7.97278 -8.5725,-14.81666 -13.22917,-20.46111 -8.00805,-9.66611 -15.83972,-15.76917 -19.05,-17.92111 l -0.14111,-0.0706 -0.0706,-0.14111 C 437.515,287.90195 400.685,288.39584 393.10028,288.74861 c 0.9525,6.35 6.17361,32.87889 27.305,43.46223 l 0.0706,0.0353 c 9.48972,5.67973 21.59,10.86556 35.13666,13.86417 z"
   id="path2"
   style="stroke-width:0.0352778" />
  <path
   id="path14"
   class="fil2"
   d="m 305.15278,268.11111 c -5.29167,0 -15.875,-1.76389 -31.75,10.58334 12.34722,15.875 24.69445,24.69444 45.86111,24.69444 28.22222,0 56.44445,-7.05555 56.44445,-7.05555 0,0 -38.80556,-28.22223 -52.91667,-28.22223 z"
   inkscape:connector-curvature="0"
   style="stroke-width:0.0352778" />
  <path
   class="fil3"
   d="m 305.15278,269.41639 c -0.38805,0.0353 -1.05833,0 -1.79917,-0.0353 -5.3975,-0.14111 -14.74611,-0.42333 -28.08111,9.56028 5.78556,7.3025 11.64167,13.0175 18.415,16.89806 7.05556,4.09222 15.24,6.24416 25.57639,6.24416 22.78945,0 45.50834,-4.62138 53.30472,-6.38527 -8.5725,-6.0325 -38.13527,-26.24667 -49.77694,-26.24667 z m -1.72861,-2.64583 c 0.56444,0 1.05833,0 1.72861,0 l 17.63889,0.0353 c 14.53444,0 53.58694,28.36333 53.69278,28.46916 l 2.32833,1.65806 -2.78694,0.67028 c -0.10584,0.0353 -28.39861,7.12611 -56.76195,7.12611 -10.83028,0 -19.40278,-2.29306 -26.88166,-6.59695 -7.47889,-4.26861 -13.75834,-10.58333 -20.03778,-18.62666 l -0.81139,-1.05834 1.05833,-0.81139 c 14.64028,-11.35944 24.94139,-11.04194 30.83278,-10.86555 z"
   id="path3"
   style="stroke-width:0.0352778" />
  <path
   id="path16"
   class="fil2"
   d="m 488.59723,268.11111 c 5.29166,0 15.875,-1.76389 31.75,10.58334 -12.34722,15.875 -24.69445,24.69444 -45.86111,24.69444 -28.22223,0 -56.44445,-7.05555 -56.44445,-7.05555 0,0 38.80556,-28.22223 70.55556,-28.22223 z"
   inkscape:connector-curvature="0"
   style="stroke-width:0.0352778" />
  <path
   class="fil3"
   d="m 488.59723,266.77056 c 0.67028,0 1.16416,0 1.72861,0 5.89139,-0.17639 16.1925,-0.49389 30.83278,10.86555 l 1.05833,0.81139 -0.81139,1.05834 c -6.27944,8.04333 -12.55889,14.35805 -20.03778,18.62666 -7.47889,4.30389 -16.05139,6.59695 -26.88166,6.59695 -28.36334,0 -56.65612,-7.09084 -56.76195,-7.12611 l -2.78694,-0.67028 2.32833,-1.65806 c 0.10583,-0.10583 38.69972,-28.15166 70.76722,-28.46916 v -0.0353 z m 1.79916,2.61055 -1.23472,0.0353 -0.0353,0.0353 h -0.52916 c -26.70528,0 -58.49056,20.24944 -67.38056,26.28194 7.83167,1.72862 30.51528,6.35 53.26945,6.35 10.33639,0 18.52083,-2.15194 25.57639,-6.24416 6.77333,-3.88056 12.62944,-9.59556 18.415,-16.89806 -13.335,-9.98361 -22.68362,-9.70139 -28.08112,-9.56028 z"
   id="path4"
   style="stroke-width:0.0352778" />
  <path
   id="path18"
   class="fil2"
   d="m 363.36111,174.625 c -15.875,0 -29.98611,84.66667 -29.98611,84.66667 h 58.20834 c 0,0 -5.29167,-84.66667 -28.22223,-84.66667 z"
   inkscape:connector-curvature="0"
   style="stroke-width:0.0352778" />
  <path
   class="fil3"
   d="m 363.36111,175.96556 c -13.58194,0 -26.42305,70.62611 -28.43388,82.02083 h 55.245 c -0.81139,-10.93611 -6.77334,-82.02083 -26.81112,-82.02083 z M 332.06973,259.08 c 0.0353,-0.24694 14.2875,-85.76028 31.29138,-85.76028 24.16528,0 29.52751,85.65445 29.52751,85.90139 l 0.10583,1.41111 h -61.17167 z"
   id="path5"
   style="stroke-width:0.0352778" />
  <path
   id="path20"
   class="fil2"
   d="m 430.38889,174.625 c 15.875,0 29.98611,84.66667 29.98611,84.66667 h -58.20833 c 0,0 5.29167,-84.66667 28.22222,-84.66667 z"
   inkscape:connector-curvature="0"
   style="stroke-width:0.0352778" />
  <path
   class="fil3"
   d="m 430.38889,173.31972 c 17.00389,0 31.25611,85.51334 31.29139,85.76028 l 0.24695,1.55222 h -61.17167 l 0.10583,-1.41111 c 0,-0.24694 5.36223,-85.90139 29.5275,-85.90139 z m 28.43389,84.66667 c -2.01083,-11.39472 -14.85194,-82.02083 -28.43389,-82.02083 -20.03777,0 -25.99972,71.08472 -26.81111,82.02083 z"
   id="path6"
   style="stroke-width:0.0352778" />
  <path
   id="path22"
   class="fil2"
   d="m 329.84723,190.5 c -5.29167,0 -10.58334,19.40278 -10.58334,38.80556 0,22.93055 24.69445,79.375 72.31945,70.55555 C 379.23612,273.40278 349.25,190.5 329.84723,190.5 Z"
   inkscape:connector-curvature="0"
   style="stroke-width:0.0352778" />
  <path
   class="fil3"
   d="m 329.84723,191.84056 c -1.97556,0 -4.19806,4.445 -5.99723,11.14778 -1.97555,7.16138 -3.24555,16.72166 -3.24555,26.31722 0,2.43416 0.28222,5.29166 0.84666,8.36083 2.15195,11.7475 8.39612,27.23445 18.55612,39.79334 10.08944,12.45305 24.02416,22.01333 41.73361,22.01333 2.57528,0 5.22111,-0.21167 7.9375,-0.635 -2.39889,-5.18583 -5.32695,-12.17083 -8.64306,-20.07306 -14.49917,-34.46639 -36.54778,-86.92444 -51.18805,-86.92444 z M 321.31,202.28278 c 1.83445,-6.80861 4.40973,-11.64167 7.19667,-12.84111 v -0.28222 h 1.34056 c 16.36888,0 38.87611,53.48111 53.62222,88.5825 3.66889,8.71361 6.84389,16.26305 9.31333,21.55472 l 0.70556,1.55222 -1.65806,0.3175 c -3.4925,0.635 -6.87916,0.9525 -10.08944,0.9525 -18.62667,0 -33.26695,-9.98361 -43.77973,-23.00111 -10.4775,-12.91167 -16.86277,-28.8925 -19.12055,-40.9575 -0.59972,-3.28083 -0.91722,-6.27944 -0.91722,-8.85472 0,-9.80722 1.37583,-19.64972 3.38666,-27.02278 z"
   id="path7"
   style="stroke-width:0.0352778" />
  <path
   id="path24"
   class="fil2"
   d="m 463.90278,190.5 c 5.29167,0 10.58334,19.40278 10.58334,38.80556 0,22.93055 -24.69445,79.375 -72.31945,70.55555 C 414.51389,273.40278 444.5,190.5 463.90278,190.5 Z"
   inkscape:connector-curvature="0"
   style="stroke-width:0.0352778" />
  <path
   class="fil3"
   d="m 465.24334,189.44167 c 2.78694,1.19944 5.36222,6.0325 7.19666,12.84111 2.01084,7.37306 3.38667,17.21556 3.38667,27.02278 0,2.57528 -0.3175,5.57389 -0.91722,8.85472 -2.25778,12.065 -8.64306,28.04583 -19.12056,40.9575 -10.51277,13.0175 -25.15305,23.00111 -43.77972,23.00111 -3.21028,0 -6.59694,-0.3175 -10.08944,-0.9525 l -1.65806,-0.3175 0.70556,-1.55222 c 2.46944,-5.29167 5.64444,-12.84111 9.31333,-21.55472 14.74611,-35.10139 37.25333,-88.5825 53.62222,-88.5825 h 1.34056 z M 469.9,202.98834 c -1.79916,-6.70278 -4.02166,-11.14778 -5.99722,-11.14778 v 0 c -14.64028,0 -36.68889,52.45805 -51.18805,86.92444 -3.31611,7.90223 -6.24417,14.88723 -8.64306,20.07306 2.71639,0.42333 5.36222,0.635 7.9375,0.635 17.70945,0 31.67945,-9.56028 41.73361,-22.01333 10.16,-12.55889 16.40417,-28.04584 18.55611,-39.79334 0.56445,-3.06917 0.84667,-5.92667 0.84667,-8.36083 0,-9.59556 -1.27,-19.15584 -3.24556,-26.31722 z"
   id="path8"
   style="stroke-width:0.0352778" />
  <path
   id="path26"
   class="fil2"
   d="m 396.875,303.38889 c 22.93056,0 26.45834,-24.69444 26.45834,-56.44444 0,-21.16667 -14.11111,-72.31945 -26.45834,-72.31945 -12.34722,0 -26.45833,51.15278 -26.45833,72.31945 0,31.75 3.52778,56.44444 26.45833,56.44444 z"
   inkscape:connector-curvature="0"
   style="stroke-width:0.0352778" />
  <path
   class="fil3"
   d="m 396.875,302.04834 c 10.795,0 17.03917,-5.82084 20.60223,-15.41639 3.66889,-9.98361 4.55083,-23.95361 4.55083,-39.6875 0,-11.64167 -4.33917,-32.42028 -10.26583,-48.64806 -4.62139,-12.59417 -10.05417,-22.33083 -14.88723,-22.33083 -4.83305,0 -10.26583,9.73666 -14.88722,22.33083 -5.92667,16.22778 -10.23055,37.00639 -10.23055,48.64806 0,15.73389 0.84666,29.70389 4.51555,39.6875 3.56306,9.59555 9.80722,15.41639 20.60222,15.41639 z m 23.07167,-14.53445 c -3.95111,10.68917 -10.93611,17.21556 -23.07167,17.21556 -12.13555,0 -19.12055,-6.52639 -23.07166,-17.21556 -3.81,-10.30111 -4.72723,-24.55333 -4.72723,-40.56944 0,-11.88861 4.40973,-33.05528 10.44223,-49.53 4.97416,-13.61723 11.21833,-24.13 17.35666,-24.13 6.13834,0 12.3825,10.51277 17.35667,24.13 6.0325,16.47472 10.44222,37.64139 10.44222,49.53 0,16.01611 -0.91722,30.26833 -4.72722,40.56944 z"
   id="path9"
   style="stroke-width:0.0352778" />
 </g>
</svg>
