<svg width="30" height="20" xmlns="http://www.w3.org/2000/svg"><symbol id="Flag_of_South_Africa" width="30" height="20" viewBox="0 0 90 60"><defs><clipPath id="b"><path d="m0 0 45 30L0 60z"/></clipPath><clipPath id="a"><path d="M0 0h90v60H0z"/></clipPath></defs><path d="M0 0h90v30H45z" fill="#E03C31"/><path d="M0 60h90V30H45z" fill="#001489"/><g clip-path="url(#a)" fill="none"><path d="M90 30H45L0 0v60l45-30" stroke="#FFF" stroke-width="20"/><path d="m0 0 45 30L0 60" clip-path="url(#b)" fill="#000" stroke="#ffb81c" stroke-width="20"/><path d="m0 0 45 30h45M0 60l45-30" stroke="#007749" stroke-width="12"/></g></symbol><use href="#Flag_of_South_Africa"/><path d="M19 0h11v20H19z" fill="#fff"/><path transform="matrix(0 -.2.2 0 0 0)" d="m-81.04 117.7-5.97-12.2h-7.68l9.58 16.9-9.83 17.2h7.77l6.22-12.4 6.25 12.4h7.68l-9.83-17.2 9.59-16.9h-7.72zm42.22 21.9v-34.1h-6.51v14h-9.64v-14h-6.53v34.1h6.53v-14.8h9.64v14.8zm32.546-14.6v-4.9q0-2.4-.444-4.4-.421-2.1-1.241-3.8-.749-1.5-1.802-2.8-1.029-1.3-2.409-2.1-1.38-1-3.11-1.5-1.71-.5-3.68-.5-1.94 0-3.6.5t-3 1.4q-1.36.9-2.41 2.3-1.03 1.3-1.75 2.9-.75 1.7-1.15 3.7-.38 2-.38 4.3v4.9q0 2.1.33 4 .35 1.9 1.01 3.5.72 1.8 1.8 3.2t2.43 2.4q1.39.9 3.07 1.4 1.69.5 3.67.5 1.88 0 3.49-.4 1.64-.5 3-1.3 1.5-.9 2.666-2.3 1.17-1.4 1.966-3.1.749-1.7 1.147-3.7.397-2 .397-4.2zm-6.666-5v5q0 1.3-.14 2.5-.12 1.1-.38 2.1-.33 1.3-.89 2.3-.54 1-1.33 1.6-.63.6-1.45.8-.82.3-1.81.3-1.02 0-1.84-.3-.8-.3-1.43-.8-.68-.7-1.2-1.7-.49-1-.74-2.3-.24-.9-.33-2.1-.1-1.1-.1-2.4v-5q0-1.3.1-2.5.12-1.2.35-2.2.3-1.3.84-2.3.56-1 1.36-1.6.58-.5 1.31-.7.75-.2 1.66-.2.96 0 1.73.2.8.3 1.43.8.8.6 1.38 1.6.59 1 .94 2.2.28 1 .4 2.2.14 1.2.14 2.5z"/></svg>
