<?xml version="1.0"?>
<svg width="30" height="20" xmlns="http://www.w3.org/2000/svg"><symbol id="Flag_of_South_Africa" width="30" height="20" viewBox="0 0 90 60"><defs><clipPath id="b"><path d="m0 0 45 30L0 60z"/></clipPath><clipPath id="a"><path d="M0 0h90v60H0z"/></clipPath></defs><path d="M0 0h90v30H45z" fill="#E03C31"/><path d="M0 60h90V30H45z" fill="#001489"/><g clip-path="url(#a)" fill="none"><path d="M90 30H45L0 0v60l45-30" stroke="#FFF" stroke-width="20"/><path d="m0 0 45 30L0 60" clip-path="url(#b)" fill="#000" stroke="#ffb81c" stroke-width="20"/><path d="m0 0 45 30h45M0 60l45-30" stroke="#007749" stroke-width="12"/></g></symbol><use href="#Flag_of_South_Africa"/><path d="M19 0h11v20H19z" fill="#fff"/><path transform="matrix(0 -.1.1 0 0 0)" d="m-162.1 235.4-11.9-24.4h-15.4l19.2 33.8-19.7 34.3h15.6l12.4-24.8 12.5 24.8h15.4l-19.7-34.3 19.2-33.8h-15.5zm84.45 43.7v-68.1h-13.01v27.9h-19.24v-27.9h-13.1v68.1h13.1v-29.5h19.24v29.5zm65.1-29v-10q0-4.6-.89-8.7-.84-4.1-2.48-7.6-1.5-3-3.6-5.6-2.06-2.5-4.82-4.3-2.76-1.9-6.23-2.8-3.42-1.1-7.35-1.1-3.88 0-7.21 1-3.32 1-5.99 2.8-2.71 1.9-4.82 4.5-2.06 2.6-3.51 5.9-1.5 3.4-2.29 7.4-.75 4-.75 8.5v10q0 4.2.65 8 .71 3.8 2.02 7 1.45 3.5 3.6 6.3t4.87 4.7q2.76 1.9 6.13 2.9 3.37 1.1 7.35 1.1 3.74 0 6.97-1 3.28-.9 6-2.5 2.99-1.9 5.33-4.7t3.93-6.2q1.5-3.3 2.3-7.3.79-3.9.79-8.3zm-13.34-10.1v10.1q0 2.5-.28 4.8-.23 2.4-.75 4.3-.65 2.6-1.78 4.6-1.07 1.9-2.66 3.2-1.27 1.1-2.91 1.7-1.63.5-3.6.5-2.06 0-3.7-.6-1.59-.6-2.85-1.7-1.36-1.3-2.39-3.3-.98-2-1.5-4.5-.47-2-.65-4.3-.19-2.3-.19-4.7v-10.1q0-2.6.19-5 .23-2.4.7-4.4.61-2.6 1.68-4.6 1.13-1.9 2.72-3.2 1.17-.9 2.62-1.4 1.5-.5 3.32-.5 1.92 0 3.47.6 1.59.5 2.85 1.4 1.59 1.3 2.76 3.3 1.17 1.9 1.88 4.5.56 2 .79 4.4.28 2.3.28 4.9z"/></svg>
