<?xml version="1.0" encoding="UTF-8" standalone="no"?>
<svg
   width="30.000004"
   height="20.000002"
   version="1.1"
   id="svg9"
   sodipodi:docname="Proposed_Yiddish_flag.svg"
   inkscape:version="1.4 (86a8ad7, 2024-10-11)"
   xmlns:inkscape="http://www.inkscape.org/namespaces/inkscape"
   xmlns:sodipodi="http://sodipodi.sourceforge.net/DTD/sodipodi-0.dtd"
   xmlns="http://www.w3.org/2000/svg"
   xmlns:svg="http://www.w3.org/2000/svg">
  <defs
     id="defs9" />
  <sodipodi:namedview
     id="namedview9"
     pagecolor="#ffffff"
     bordercolor="#000000"
     borderopacity="0.25"
     inkscape:showpageshadow="2"
     inkscape:pageopacity="0.0"
     inkscape:pagecheckerboard="0"
     inkscape:deskcolor="#d1d1d1"
     inkscape:zoom="0.59441164"
     inkscape:cx="-455.07184"
     inkscape:cy="118.60468"
     inkscape:window-width="1920"
     inkscape:window-height="1009"
     inkscape:window-x="-8"
     inkscape:window-y="-8"
     inkscape:window-maximized="1"
     inkscape:current-layer="g11" />
  <g
     id="g11"
     transform="translate(-315)">
    <g
       id="g12"
       transform="matrix(0.04545455,0,0,0.04166667,315,0)">
      <path
         id="rect1"
         style="fill:#ffffff"
         d="M 0,0 H 660 V 480 H 0 Z" />
      <path
         id="rect2"
         d="m 0,45 h 660 v 75 H 0 Z" />
      <path
         id="rect3"
         d="m 0,360 h 660 v 75 H 0 Z" />
    </g>
    <path
       d="m 325.86225,7.2049999 a 4.13775,4.13775 0 1 0 8.2755,0 h -0.39396 a 3.7437916,3.7437916 0 1 1 -7.48758,0 z"
       id="path3"
       style="fill:#000000;stroke-width:0.0416667" />
    <path
       d="m 327.05234,7.2229166 a 2.9476666,2.9476666 0 1 0 5.89533,0 h -0.39671 a 2.55096,2.55096 0 1 1 -5.10192,0 z"
       id="path4"
       style="fill:#000000;stroke-width:0.0416667" />
    <path
       d="m 328.25654,7.2049999 a 1.74346,1.74346 0 1 0 3.48692,0 h -0.39396 a 1.3495,1.3495 0 1 1 -2.699,0 z"
       id="path5"
       style="fill:#000000;stroke-width:0.0416667" />
    <path
       d="m 327.85675,13.244958 v 0.269625 h 4.2865 v -0.269625 l -1.94629,-0.433875 V 6.9016249 h -0.39392 v 5.9094581 z"
       id="path6"
       style="fill:#000000;stroke-width:0.0416667" />
    <path
       id="c"
       d="m 325.55654,6.7090416 h 1.0055 l -0.30575,0.4132083 h -0.39395 z"
       style="fill:#000000;stroke-width:0.0416667" />
    <path
       id="use6"
       d="m 326.75367,6.7090416 h 1.0055 l -0.30575,0.4132083 h -0.39396 z"
       style="fill:#000000;stroke-width:0.0416667" />
    <path
       id="use7"
       d="m 327.95075,6.7090416 h 1.0055 l -0.30575,0.4132083 h -0.39396 z"
       style="fill:#000000;stroke-width:0.0416667" />
    <path
       id="use8"
       d="m 329.49725,6.4064999 h 1.0055 L 330.197,6.8197083 h -0.39396 z"
       style="fill:#000000;stroke-width:0.0416667" />
    <path
       id="path9"
       d="m 331.04375,6.7090416 h 1.0055 l -0.30575,0.4132083 h -0.39396 z"
       style="fill:#000000;stroke-width:0.0416667" />
    <path
       id="use10"
       d="m 332.24088,6.7090416 h 1.0055 l -0.30575,0.4132083 h -0.39396 z"
       style="fill:#000000;stroke-width:0.0416667" />
    <path
       id="use11"
       d="m 333.43796,6.7090416 h 1.0055 l -0.30575,0.4132083 h -0.39396 z"
       style="fill:#000000;stroke-width:0.0416667" />
  </g>
</svg>
