<svg width="30" height="20" xmlns="http://www.w3.org/2000/svg"><symbol id="Flag_of_Nigeria" preserveAspectRatio="none" viewBox="0 0 6 3"><path d="m0 0h6v3H0z" fill="#008751"/><path d="m2 0h2v3H2z" fill="#fff"/></symbol><use width="19" height="20" href="#Flag_of_Nigeria"/><path d="M19 0h11v20H19z" fill="#fff"/><path transform="matrix(0 -.2.2 0 0 0)" d="m-80.95 121.2-6.71-15.7h-7.21l10.55 22v12.1h6.55v-11.8l10.72-22.3h-7.23zm43.41 3.8v-4.9q0-2.4-.44-4.4-.42-2.1-1.24-3.8-.75-1.5-1.8-2.8-1.03-1.3-2.42-2.1-1.38-1-3.11-1.5-1.71-.5-3.67-.5-1.94 0-3.61.5-1.66.5-2.99 1.4-1.36.9-2.41 2.3-1.03 1.3-1.76 2.9-.75 1.7-1.15 3.7-.37 2-.37 4.3v4.9q0 2.1.33 4 .35 1.9 1 3.5.73 1.8 1.81 3.2 1.07 1.4 2.43 2.4 1.38.9 3.07 1.4 1.68.5 3.67.5 1.87 0 3.49-.4 1.64-.5 2.99-1.3 1.5-.9 2.67-2.3t1.97-3.1q.75-1.7 1.14-3.7.4-2 .4-4.2zm-6.67-5v5q0 1.3-.14 2.5-.11 1.1-.37 2.1-.33 1.3-.89 2.3-.54 1-1.34 1.6-.63.6-1.45.8-.82.3-1.8.3-1.03 0-1.85-.3-.79-.3-1.43-.8-.67-.7-1.19-1.7-.49-1-.75-2.3-.23-.9-.33-2.1-.1-1.1-.1-2.4v-5q0-1.3.1-2.5.12-1.2.36-2.2.3-1.3.84-2.3.56-1 1.36-1.6.58-.5 1.31-.7.74-.2 1.66-.2.96 0 1.73.2.8.3 1.43.8.79.6 1.38 1.6.58 1 .93 2.2.29 1 .4 2.2.14 1.2.14 2.5zm25.72 6.8 6.41 12.8h7.047v-.3l-7.327-14.1q1.41-.6 2.529-1.5 1.147-.9 1.966-2 .796-1.2 1.217-2.6.445-1.5.445-3.3 0-2.6-.89-4.5-.866-1.9-2.48-3.2-1.637-1.3-3.937-1.9-2.29-.7-5.12-.7h-11.42v34.1h6.57v-12.8zm-4.99-5.3v-10.7h4.85q1.36 0 2.41.3 1.05.4 1.78 1 .82.7 1.22 1.7.42 1 .42 2.4 0 1.1-.33 2-.31 1-.91 1.6-.73.8-1.9 1.3-1.15.4-2.67.4z"/></svg>
