<?xml version="1.0" encoding="UTF-8" standalone="no"?>
<!-- Creator: CorelDRAW Home & Student X8 -->

<svg
   xml:space="preserve"
   width="7.9375005mm"
   height="5.291667mm"
   version="1.1"
   style="clip-rule:evenodd;fill-rule:evenodd;image-rendering:optimizeQuality;shape-rendering:geometricPrecision;text-rendering:geometricPrecision"
   viewBox="0 0 793.75005 529.1667"
   id="svg10"
   sodipodi:docname="Hong Kong.svg"
   inkscape:version="1.4 (86a8ad7, 2024-10-11)"
   xmlns:inkscape="http://www.inkscape.org/namespaces/inkscape"
   xmlns:sodipodi="http://sodipodi.sourceforge.net/DTD/sodipodi-0.dtd"
   xmlns="http://www.w3.org/2000/svg"
   xmlns:svg="http://www.w3.org/2000/svg"><sodipodi:namedview
   id="namedview10"
   pagecolor="#ffffff"
   bordercolor="#000000"
   borderopacity="0.25"
   inkscape:showpageshadow="2"
   inkscape:pageopacity="0.0"
   inkscape:pagecheckerboard="0"
   inkscape:deskcolor="#d1d1d1"
   inkscape:document-units="mm"
   inkscape:zoom="0.71172917"
   inkscape:cx="437.66648"
   inkscape:cy="295.75857"
   inkscape:window-width="1920"
   inkscape:window-height="1009"
   inkscape:window-x="-8"
   inkscape:window-y="-8"
   inkscape:window-maximized="1"
   inkscape:current-layer="Layer_x0020_1" />
 <defs
   id="defs1">
  <style
   type="text/css"
   id="style1">
   <![CDATA[
    .fil0 {fill:#D82D26;fill-rule:nonzero}
    .fil1 {fill:#FEFEFE;fill-rule:nonzero}
   ]]>
  </style>
 </defs>
 <g
   id="Layer_x0020_1"
   inkscape:label="Layer 1"
   inkscape:groupmode="layer"
   transform="translate(0,5)">
  <metadata
   id="CorelCorpID_0Corel-Layer" />
  <polygon
   class="fil0"
   points="0,-5 0,14995 22500,14995 22500,-5 "
   id="polygon1"
   transform="matrix(0.03527778,0,0,0.03527778,0,-4.8236111)" />
  <path
   class="fil1"
   d="m 396.83973,259.4775 c -92.81584,-39.26416 -51.68195,-160.16111 37.11222,-154.09333 -17.95639,9.24278 -20.56695,26.45833 -10.30111,42.43916 11.46528,17.85056 -1.05834,46.60195 -16.61584,53.58695 -25.50583,11.46528 -30.62111,42.08639 -10.19527,58.06722 z"
   id="path1"
   style="stroke-width:0.0352778" />
  <polygon
   class="fil0"
   points="10638,4910 10879,4775 10862,4500 11064,4687 11321,4586 11205,4836 11380,5049 11107,5017 10959,5249 10905,4979 "
   id="polygon2"
   transform="matrix(0.03527778,0,0,0.03527778,0,-4.8236111)" />
  <path
   class="fil0"
   d="m 397.36889,258.45445 c -11.21833,-5.78556 -20.28472,-17.78 -24.23583,-32.13806 -4.51556,-16.47472 -1.905,-34.18417 7.12611,-48.54222 l -1.94028,-1.23472 c -9.38389,14.9225 -12.065,33.30222 -7.37305,50.37666 4.16277,15.20473 13.40555,27.44611 25.36472,33.58445 z"
   id="path2"
   style="stroke-width:0.0352778" />
  <path
   class="fil1"
   d="m 396.94556,259.4775 c 8.60778,-100.40055 136.31333,-98.63666 157.97389,-12.31194 -14.32278,-14.21695 -31.50306,-11.39472 -43.4975,3.31611 -13.44083,16.43944 -44.66167,13.37028 -56.12695,0.77611 -18.80305,-20.70806 -49.49472,-16.12194 -58.34944,8.21972 z"
   id="path3"
   style="stroke-width:0.0352778" />
  <polygon
   class="fil0"
   points="13518,6113 13721,6301 13977,6200 13862,6450 14037,6662 13763,6630 13615,6862 13562,6592 13295,6523 13535,6389 "
   id="polygon3"
   transform="matrix(0.03527778,0,0,0.03527778,0,-4.8236111)" />
  <path
   class="fil0"
   d="m 398.07445,259.65389 c 2.01083,-12.45305 10.61861,-24.765 23.07167,-32.94944 14.25222,-9.38389 31.89111,-12.3825 48.36583,-8.21973 l 0.56444,-2.2225 c -17.10972,-4.33916 -35.38361,-1.19944 -50.20027,8.53723 -13.15862,8.64305 -21.94278,21.20194 -24.09473,34.50166 z"
   id="path4"
   style="stroke-width:0.0352778" />
  <path
   class="fil1"
   d="m 396.94556,259.58334 c 98.17806,-22.82473 135.96056,99.16583 60.53667,146.43805 9.10166,-18.02694 1.09361,-33.47861 -16.58056,-40.35778 -19.79083,-7.69055 -26.56417,-38.34694 -18.0975,-53.09305 13.89945,-24.30639 0.0353,-52.10528 -25.85861,-52.98722 z"
   id="path5"
   style="stroke-width:0.0352778" />
  <polygon
   class="fil0"
   points="13264,9225 13148,9475 13324,9688 13050,9655 12902,9887 12848,9617 12581,9548 12822,9414 12805,9139 13007,9326 "
   id="polygon5"
   transform="matrix(0.03527778,0,0,0.03527778,0,-4.8236111)" />
  <path
   class="fil0"
   d="m 397.12195,260.71222 c 12.45305,-1.94027 26.84639,2.46945 38.48805,11.74751 13.335,10.68916 21.62528,26.52888 22.75417,43.46222 l 2.29306,-0.14111 c -1.16417,-17.60361 -9.77195,-34.04306 -23.63611,-45.12028 -12.27667,-9.80722 -26.95223,-14.2875 -40.25195,-12.20611 z"
   id="path6"
   style="stroke-width:0.0352778" />
  <path
   class="fil1"
   d="m 396.83973,259.61861 c 52.07,86.32473 -52.31695,159.94945 -120.54417,102.83473 19.93194,3.10444 32.17333,-9.31334 33.26694,-28.2575 1.19945,-21.20195 28.22223,-37.07695 44.90861,-33.61973 27.41084,5.715 49.53001,-16.05138 42.36862,-40.9575 z"
   id="path7"
   style="stroke-width:0.0352778" />
  <polygon
   class="fil0"
   points="10226,9944 9952,9911 9804,10144 9751,9873 9484,9804 9724,9670 9708,9395 9910,9582 10166,9481 10051,9731 "
   id="polygon7"
   transform="matrix(0.03527778,0,0,0.03527778,0,-4.8236111)" />
  <path
   class="fil0"
   d="m 395.81667,260.14778 c 5.715,11.25361 5.96195,26.28195 0.74083,40.21667 -6.0325,15.98083 -18.55611,28.78666 -34.32527,35.06611 l 0.88194,2.15194 c 16.36889,-6.56166 29.31583,-19.82611 35.59528,-36.40666 5.53861,-14.74611 5.25639,-30.09195 -0.81139,-42.08639 z"
   id="path8"
   style="stroke-width:0.0352778" />
  <path
   class="fil1"
   d="m 396.80445,259.54806 c -66.00472,76.16472 -168.275,-0.35278 -135.07861,-82.90278 3.24555,19.93194 18.80305,27.72833 37.1475,22.89528 20.56694,-5.3975 44.02666,15.41639 45.86111,32.34972 3.03389,27.83417 30.58583,42.15695 52.07,27.65778 z"
   id="path9"
   style="stroke-width:0.0352778" />
  <polygon
   class="fil0"
   points="8603,7277 8550,7007 8283,6938 8523,6803 8507,6528 8709,6715 8965,6614 8850,6864 9025,7077 8752,7044 "
   id="polygon9"
   transform="matrix(0.03527778,0,0,0.03527778,0,-4.8236111)" />
  <path
   class="fil0"
   d="m 395.99306,258.73667 c -8.96056,8.89 -23.1775,13.79361 -38.06472,13.08806 -17.03917,-0.77612 -33.09056,-8.71362 -43.95611,-21.76639 l -1.76389,1.48166 c 11.28889,13.54667 27.94,21.76639 45.61416,22.57778 15.73389,0.74083 30.23306,-4.26861 39.79334,-13.75833 z"
   id="path10"
   style="stroke-width:0.0352778" />
 </g>
</svg>
