<svg xmlns="http://www.w3.org/2000/svg" viewBox="-45 -30 90 60" width="30" height="20" fill="#ee1c25"><path d="M-45 -30h90v60H-45z"/><g id="a"><path d="M4.2936022 -17.480417a2.7917245 2.7917245 0 0 0-1.4901582 4.1791893 4.5171052 4.5171052 0 0 1-2.0289932 6.6204239 3.8650583 3.8650583 0 0 0-1.0816469 6.4313021 6.8374981 6.8374981 0 0 1-1.7067835-9.3913589 1.5809868 1.5809868 0 0 1-.1109109-.1047777 6.9880683 6.9880683 0 0 0 1.6754434 9.5793146 9.0342104 9.0342104 0 0 1 4.7430493-17.3140933" fill="#fff"/><path d="m.1979333 -11.8900591-2.7564739 1.2021638 2.9366483 .6476437-1.9951229-2.2500734 .2915284 2.9930515"/></g><g id="b"><use href="#a" transform="rotate(72)"/><use href="#a" transform="rotate(216)"/></g><use href="#b" transform="rotate(72)"/></svg>