<svg width="30" height="20" xmlns="http://www.w3.org/2000/svg"><symbol id="Berber_flag" width="30" height="20" viewBox="0 0 900 600"><path d="M0 0h900v200H0z" fill="#0090DA"/><path d="M0 200h900v200H0z" fill="#78BE20"/><path d="M0 400h900v200H0z" fill="#FEDD00"/><path d="m429.68 477.64 28.455 30.081 8.13-409.75-16.26-17.073z" fill="#C03"/><path d="m657.32 515.85 54.471-23.577c-104.88-104.06-165.04-142.28-264.22-144.71-126.02 8.9431-208.13 59.349-243.09 159.35l24.39-4.8778c99.999-123.58 156.91-109.76 220.32-117.07 67.479 2.4391 136.58 46.341 208.13 130.89v-3e-4zm-367.48-422.76-52.032 13.821c50.406 89.43 122.76 143.9 215.44 147.97 122.76.81292 193.49-82.113 242.27-156.91l-41.463 12.195c-78.861 111.38-164.23 115.45-202.44 109.76-64.227-4.8778-117.07-57.723-161.79-126.83z" fill="#C03"/></symbol><use x="-6" href="#Berber_flag"/><path d="M19 0h11v20H19z" fill="#fff"/><symbol id="Z"><path d="m5.62 6.91 3.39-5.11-.0048-.803h-5.02v1.1h3.38l-3.39 5.07v.827h5.12v-1.09z"/></symbol><symbol id="G"><path d="m8.99 7.18v-2.76h-2.51v1.01h1.16v1.27q-.058.062-.163.12-.1.053-.236.0962-.13.043-.288.0673-.15.024-.312.024-.26-.0048-.466-.0817-.2-.082-.356-.236-.091-.091-.168-.207-.072-.12-.13-.26-.091-.24-.144-.553-.048-.31-.0481-.692v-.962q0-.3.034-.562.038-.26.106-.471.087-.27.216-.476.13-.2.298-.327.12-.091.269-.139.14-.048.298-.048.28 0 .486.077.21.072.341.221.12.13.188.332.072.2.106.452h1.32q-.053-.5-.226-.909-.17-.4-.471-.688-.3-.28-.745-.428-.44-.15-1.03-.149-.38 0-.731.106-.35.11-.639.312-.25.18-.462.433-.21.25-.365.562-.17.35-.26.784-.091.43-.0914.928v.952q0 .52.091.971.096.45.279.803.16.32.385.572.23.25.51.423.28.17.62.255.34.091.726.091.44 0 .827-.082.39-.081.698-.216.31-.13.534-.293.23-.16.356-.322z"/></symbol><symbol id="H"><path d="m8.8 8v-7h-1.34v2.87h-1.98v-2.87h-1.34v7h1.34v-3.03h1.98v3.03z"/></symbol><g transform="rotate(-90 15 -5)"><use x="-13" href="#Z"/><use x="-6.5" href="#G"/><use href="#H"/></g></svg>
