<?xml version="1.0"?>
<svg width="30" height="20" xmlns="http://www.w3.org/2000/svg"><symbol id="Berber_flag" width="30" height="20" viewBox="0 0 900 600"><path d="M0 0h900v200H0z" fill="#0090DA"/><path d="M0 200h900v200H0z" fill="#78BE20"/><path d="M0 400h900v200H0z" fill="#FEDD00"/><path d="m429.68 477.64 28.455 30.081 8.13-409.75-16.26-17.073z" fill="#C03"/><path d="m657.32 515.85 54.471-23.577c-104.88-104.06-165.04-142.28-264.22-144.71-126.02 8.9431-208.13 59.349-243.09 159.35l24.39-4.8778c99.999-123.58 156.91-109.76 220.32-117.07 67.479 2.4391 136.58 46.341 208.13 130.89v-3e-4zm-367.48-422.76-52.032 13.821c50.406 89.43 122.76 143.9 215.44 147.97 122.76.81292 193.49-82.113 242.27-156.91l-41.463 12.195c-78.861 111.38-164.23 115.45-202.44 109.76-64.227-4.8778-117.07-57.723-161.79-126.83z" fill="#C03"/></symbol><use x="-6" href="#Berber_flag"/><path d="M19 0h11v20H19z" fill="#fff"/><path transform="matrix(0 -.1.1 0 0 0)" d="m-171.1 268.5 33-49.7-.1-7.8h-48.8v10.7h32.9l-33 49.4v8h49.8v-10.6zm95.32 2.7v-26.9h-24.38v9.8h11.27v12.4q-.51.6-1.54 1.2-.98.5-2.29.9-1.32.4-2.81.6-1.5.3-3.05.3-2.53-.1-4.53-.8-2-.8-3.5-2.3-.9-.9-1.6-2-.7-1.2-1.3-2.5-.9-2.4-1.4-5.4-.4-3.1-.4-6.8v-9.3q0-3 .3-5.5.4-2.5 1-4.6.9-2.7 2.1-4.6 1.3-2 2.9-3.2 1.2-.9 2.6-1.4 1.4-.4 2.94-.4 2.77 0 4.73.7 2.02.7 3.33 2.2 1.17 1.3 1.82 3.2.7 1.9 1.03 4.4h12.83q-.52-4.9-2.2-8.9-1.64-3.9-4.59-6.6-2.95-2.8-7.26-4.2-4.26-1.5-10.01-1.5-3.72 0-7.12 1.1-3.4 1-6.2 3-2.5 1.8-4.5 4.2-2 2.5-3.6 5.5-1.6 3.4-2.5 7.6t-.9 9.1v9.2q0 5.1.9 9.5.9 4.3 2.7 7.8 1.6 3.1 3.8 5.6 2.2 2.4 4.9 4.1 2.8 1.6 6.1 2.5t7.03.9q4.3 0 8.05-.8 3.74-.8 6.78-2.1 3-1.3 5.2-2.9t3.46-3.1zm60.66 7.9v-68.1h-13.01v27.9h-19.29v-27.9h-13.06v68.1h13.06v-29.5h19.29v29.5z"/></svg>
