<?xml version="1.0"?>
<svg width="30" height="20" xmlns="http://www.w3.org/2000/svg"><symbol id="Berber_flag" width="30" height="20" viewBox="0 0 900 600"><path d="M0 0h900v200H0z" fill="#0090DA"/><path d="M0 200h900v200H0z" fill="#78BE20"/><path d="M0 400h900v200H0z" fill="#FEDD00"/><path d="m429.68 477.64 28.455 30.081 8.13-409.75-16.26-17.073z" fill="#C03"/><path d="m657.32 515.85 54.471-23.577c-104.88-104.06-165.04-142.28-264.22-144.71-126.02 8.9431-208.13 59.349-243.09 159.35l24.39-4.8778c99.999-123.58 156.91-109.76 220.32-117.07 67.479 2.4391 136.58 46.341 208.13 130.89v-3e-4zm-367.48-422.76-52.032 13.821c50.406 89.43 122.76 143.9 215.44 147.97 122.76.81292 193.49-82.113 242.27-156.91l-41.463 12.195c-78.861 111.38-164.23 115.45-202.44 109.76-64.227-4.8778-117.07-57.723-161.79-126.83z" fill="#C03"/></symbol><use x="-6" href="#Berber_flag"/><path d="M19 0h11v20H19z" fill="#fff"/><path transform="matrix(0 -.2.2 0 0 0)" d="m-85.56 134.2 16.5-24.8v-3.9h-24.44v5.3h16.48l-16.52 24.7v4.1h24.9v-5.4zm47.67 1.4v-13.5h-12.2v5h5.65v6.1q-.26.3-.77.6-.49.3-1.15.5-.65.2-1.4.3t-1.52.1q-1.27 0-2.27-.4-.99-.4-1.74-1.1-.44-.4-.81-1-.36-.6-.64-1.3-.44-1.1-.7-2.7-.23-1.5-.23-3.3v-4.7q0-1.5.16-2.8.19-1.2.52-2.2.42-1.4 1.05-2.4.65-.9 1.45-1.6.61-.4 1.31-.6.7-.3 1.45-.3 1.38 0 2.37.4 1 .4 1.66 1.1.58.6.91 1.6.35 1 .52 2.2h6.41q-.26-2.5-1.1-4.4-.82-2-2.3-3.4-1.47-1.3-3.62-2.1-2.13-.7-5.01-.7-1.87 0-3.56.5-1.68.5-3.11 1.6-1.22.8-2.25 2.1-1 1.2-1.78 2.7-.82 1.7-1.26 3.8-.45 2.1-.45 4.5v4.7q0 2.5.45 4.7.47 2.2 1.36 3.9.77 1.6 1.87 2.8 1.12 1.2 2.48 2 1.38.9 3.02 1.3 1.66.4 3.53.4 2.16 0 4.03-.4t3.39-1q1.5-.7 2.6-1.4 1.1-.8 1.73-1.6zm30.329 4v-34.1h-6.509v14h-9.64v-14h-6.53v34.1h6.53v-14.8h9.64v14.8z"/></svg>
