<svg width="30" height="20" xmlns="http://www.w3.org/2000/svg"><symbol id="Flag_of_Malaysia" width="40" height="20" viewBox="0 0 672 336"><path d="M0 0h672v336H0z" fill="#fff"/><path d="M24 12h648m0 48H24m0 48h648m0 48H24" stroke="#c00" stroke-width="24"/><path d="M0 0h336v204H0z" fill="#006"/><path d="M0 204h672m0 48H0m0 48h672" stroke="#c00" stroke-width="24"/><path d="m210 36 5.35 36.6 20.7-30.65-11.1 35.3L256.9 58.6l-25.3 27 36.9-2.95L234 96l34.5 13.35-36.9-2.95 25.3 27-31.95-18.65 11.1 35.3-20.7-30.65L210 156l-5.35-36.6-20.7 30.65 11.1-35.3-31.95 18.65 25.3-27-36.9 2.95L186 96l-34.5-13.35 36.9 2.95-25.3-27 31.95 18.65-11.1-35.3 20.7 30.65zm-30 1.5a64 64 0 1 0 0 117 72 72 0 1 1 0-117z" fill="#fc0"/></symbol><use href="#Flag_of_Malaysia"/><path d="M19 0h11v20H19z" fill="#fff"/><path transform="matrix(0 -.2.2 0 0 0)" d="m-85.56 134.2 16.5-24.8v-3.9h-24.44v5.3h16.48l-16.52 24.7v4.1h24.9v-5.4zm31.29 0v-28.7h-6.6v34.1h22.56v-5.4zm32.29-28.7h-8.17v34.1h6.04v-10.1l-.28-15.3 4 14.1h3.26l4.47-14.8-.28 16v10.1h6.035v-34.1h-8.165l-3.68 12.8z"/></svg>
