<svg xmlns="http://www.w3.org/2000/svg" width="30" height="20" viewBox="0 0 1008 672"><path fill="#fff" d="M0 0h1008v672H0Z"/><path stroke="#c00" stroke-width="48" d="M48 24h960m0 96H48m0 96h960m0 96H48"/><path fill="#006" d="M0 0h504v408H0Z"/><path stroke="#c00" stroke-width="48" d="M0 408h1008m0 96H0m0 96h1008"/><path fill="#fc0" d="m337.5 72 10.7 73.2 41.4-61.3-22.2 70.6 63.9-37.3-50.6 54 73.8-5.9-69 26.7 69 26.7-73.8-5.9 50.6 54-63.9-37.3 22.2 70.6-41.4-61.3-10.7 73.2-10.7-73.2-41.4 61.3 22.2-70.6-63.9 37.3 50.6-54-73.8 5.9 69-26.7-69-26.7 73.8 5.9-50.6-54 63.9 37.3-22.2-70.6 41.4 61.3zm-60 3a128 128 0 1 0 0 234 144 144 0 1 1 0-234z"/></svg>