<?xml version="1.0"?>
<svg width="30" height="20" xmlns="http://www.w3.org/2000/svg"><symbol id="Flag_of_South_Africa" width="30" height="20" viewBox="0 0 90 60"><defs><clipPath id="b"><path d="m0 0 45 30L0 60z"/></clipPath><clipPath id="a"><path d="M0 0h90v60H0z"/></clipPath></defs><path d="M0 0h90v30H45z" fill="#E03C31"/><path d="M0 60h90V30H45z" fill="#001489"/><g clip-path="url(#a)" fill="none"><path d="M90 30H45L0 0v60l45-30" stroke="#FFF" stroke-width="20"/><path d="m0 0 45 30L0 60" clip-path="url(#b)" fill="#000" stroke="#ffb81c" stroke-width="20"/><path d="m0 0 45 30h45M0 60l45-30" stroke="#007749" stroke-width="12"/></g></symbol><use href="#Flag_of_South_Africa"/><path d="M19 0h11v20H19z" fill="#fff"/><path transform="matrix(0 -.1.1 0 0 0)" d="m-171.1 268.5 33-49.7-.1-7.8h-48.8v10.7h32.9l-33 49.4v8h49.8v-10.6zm93.87-57.5h-13.06v45.1q-0 3.4-.71 5.9-.65 2.5-1.96 4.2-1.22 1.6-3.09 2.5-1.83.8-4.21.8-2.2 0-3.9-.8t-2.8-2.3q-1.3-1.7-2-4.3-.6-2.5-.6-6l-.1-45.1h-13.1l-.1 45.1q0 5.8 1.6 10.2 1.7 4.5 4.6 7.5 3 3.1 7.1 4.7t9.3 1.6q5.47 0 9.73-1.6 4.31-1.6 7.3-4.7 2.95-3.1 4.5-7.5 1.59-4.4 1.59-10.2zm31.21 57.5v-57.5h-13.19v68.1h45.12v-10.6z"/></svg>
