<svg width="30" height="20" xmlns="http://www.w3.org/2000/svg"><symbol id="Flag_of_South_Africa" width="30" height="20" viewBox="0 0 90 60"><defs><clipPath id="b"><path d="m0 0 45 30L0 60z"/></clipPath><clipPath id="a"><path d="M0 0h90v60H0z"/></clipPath></defs><path d="M0 0h90v30H45z" fill="#E03C31"/><path d="M0 60h90V30H45z" fill="#001489"/><g clip-path="url(#a)" fill="none"><path d="M90 30H45L0 0v60l45-30" stroke="#FFF" stroke-width="20"/><path d="m0 0 45 30L0 60" clip-path="url(#b)" fill="#000" stroke="#ffb81c" stroke-width="20"/><path d="m0 0 45 30h45M0 60l45-30" stroke="#007749" stroke-width="12"/></g></symbol><use href="#Flag_of_South_Africa"/><path d="M19 0h11v20H19z" fill="#fff"/><symbol id="Z"><path d="m5.62 6.91 3.39-5.11-.0048-.803h-5.02v1.1h3.38l-3.39 5.07v.827h5.12v-1.09z"/></symbol><symbol id="U"><path d="m8.84 1h-1.34v4.64q-0 .34-.072.601-.072.26-.207.433-.12.17-.317.255-.19.082-.433.0817-.23 0-.399-.0769-.17-.082-.293-.24-.13-.17-.197-.438-.062-.26-.0673-.615l-.0048-4.64h-1.35v4.64q0 .59.164 1.05.17.46.471.769.3.31.726.476.43.16.957.164.56 0 1-.164t.745-.481q.3-.31.462-.769.16-.46.164-1.04z"/></symbol><symbol id="L"><path d="m5.62 6.91v-5.91h-1.36v7h4.63v-1.09z"/></symbol><g transform="rotate(-90 15 -5)"><use x="-13" href="#Z"/><use x="-6.5" href="#U"/><use href="#L"/></g></svg>
