<svg width="30" height="20" xmlns="http://www.w3.org/2000/svg"><symbol id="Flag_of_South_Africa" width="30" height="20" viewBox="0 0 90 60"><defs><clipPath id="b"><path d="m0 0 45 30L0 60z"/></clipPath><clipPath id="a"><path d="M0 0h90v60H0z"/></clipPath></defs><path d="M0 0h90v30H45z" fill="#E03C31"/><path d="M0 60h90V30H45z" fill="#001489"/><g clip-path="url(#a)" fill="none"><path d="M90 30H45L0 0v60l45-30" stroke="#FFF" stroke-width="20"/><path d="m0 0 45 30L0 60" clip-path="url(#b)" fill="#000" stroke="#ffb81c" stroke-width="20"/><path d="m0 0 45 30h45M0 60l45-30" stroke="#007749" stroke-width="12"/></g></symbol><use href="#Flag_of_South_Africa"/><path d="M19 0h11v20H19z" fill="#fff"/><path transform="matrix(0 -.2.2 0 0 0)" d="m-85.56 134.2 16.5-24.8v-3.9h-24.44v5.3h16.48l-16.52 24.7v4.1h24.9v-5.4zm46.95-28.7h-6.53v22.6q-0 1.6-.35 2.9-.33 1.3-.98 2.1-.61.8-1.55 1.2-.91.4-2.1.4-1.1 0-1.94-.3-.85-.4-1.43-1.2-.63-.8-.96-2.1-.31-1.3-.33-3v-22.6h-6.58v22.6q0 2.8.79 5.1.82 2.2 2.3 3.7 1.47 1.5 3.53 2.3 2.08.8 4.66.8 2.74 0 4.87-.8 2.15-.8 3.65-2.3 1.47-1.5 2.24-3.8.8-2.2.8-5zm15.6 28.7v-28.7h-6.6v34.1h22.564v-5.4z"/></svg>
