<?xml version="1.0" encoding="UTF-8" standalone="no"?>
<svg
   width="30"
   height="20"
   viewBox="0 0 30 20"
   version="1.1"
   id="svg4"
   xml:space="preserve"
   xmlns:xlink="http://www.w3.org/1999/xlink"
   xmlns="http://www.w3.org/2000/svg"
   xmlns:svg="http://www.w3.org/2000/svg"><defs
   id="defs4" /><path
   fill="#e4002b"
   d="M 0,0 H 30 V 20 H 0 Z"
   id="path1" /><path
   fill="#43b02a"
   d="M 0,0 H 30 V 10 Z"
   id="path2" /><path
   fill="#418fde"
   d="M 30,10 V 20 H 0 Z"
   id="path3" /><g
   fill="#ffc72c"
   id="g4"
   transform="translate(-450)"><path
     id="w"
     d="m 457.4,5.939 c 0.1,0.03 0.2,-0.236 0.5,-0.339 0.2,-0.09 0.4,-0.09 0.6,-0.05 -0.1,0.342 -1.1,0.406 -1.1,0.542 0.1,0.02 0.4,-0.08 0.8,-0.15 -0.6,0.817 -1.3,0.43 -1.6,0.492 -0.1,0.03 -0.3,0.155 -0.3,0.219 0.4,-0.131 0.5,0.15 0.8,-0.02 -0.1,0.617 -1.2,0.883 -1.4,0.522 -0.2,0.18 -0.2,0.25 -0.2,0.291 0.4,-0.166 0.6,0.223 0.8,-0.09 0,0.617 -0.8,1.027 -1.3,0.986 0,0.06 -0.1,0.375 -0.1,0.433 0,-0.03 0,-0.108 0.3,-0.142 0.4,-0.05 0.4,-0.141 0.6,-0.422 0.2,0.314 -0.5,1.347 -1.1,1.647 0,0.07 0,0.282 0.1,0.362 0,-0.16 0.1,-0.2 0.3,-0.287 0.2,-0.125 0.3,-0.183 0.4,-0.6 0.2,0.384 0,1.647 -0.5,2.137 0.1,0.1 0.2,0.35 0.2,0.4 0,-0.22 0.2,-0.28 0.3,-0.54 0.2,-0.26 0.2,-0.72 0.2,-0.79 0.4,0.57 0.4,2.24 0.3,2.43 0.1,0 0.4,0.3 0.5,0.37 0,0 0,0 -0.1,-0.16 -0.1,-0.21 0,-0.87 -0.3,-1.31 0.5,0 1.2,1.11 1.4,1.53 0.2,0.42 0.5,0.74 1.1,0.93 0.5,0.18 1,0.62 1.3,0.89 l -0.3,0.2 c -0.1,-0.14 -0.9,-0.88 -1.1,-0.87 -1.4,0.12 -2,-0.1 -2.8,-0.38 -0.9,-0.39 -1.4,-1.27 -1.3,-1.33 0.2,0.26 1.3,0.47 1.6,0.44 l -0.1,-0.16 c -0.4,0.11 -1.4,-0.4 -1.7,-0.88 -0.5,-0.85 -0.4,-1.5 -0.4,-1.55 0.3,0.64 0.8,0.84 1.1,1 v -0.16 c -1.2,-0.5 -1.1,-1.738 -1.1,-1.888 0,-0.534 0.1,-0.817 0.2,-0.834 0,0.392 0.4,0.967 0.6,1.109 V 9.8 c -0.4,-0.333 -0.5,-0.933 -0.6,-1.275 0,-0.614 0.6,-1.303 0.7,-1.348 -0.1,0.679 0,0.979 0.1,1.223 l 0.1,-0.128 c -0.5,-0.85 0.2,-2.089 0.8,-2.064 -0.3,0.273 -0.3,0.789 -0.2,0.914 0,-0.05 0,-0.06 0.1,-0.1 -0.1,-0.864 0.7,-1.353 1,-1.455 0.2,-0.06 0.4,-0.06 0.4,-0.03 -0.1,0.09 -0.6,0.285 -0.6,0.808 0,-0.04 0.2,-0.125 0.3,-0.15 0.1,-0.461 0.6,-0.783 1.1,-0.783 0.1,0 0.1,0.01 0.1,0.01 0,0.02 -0.5,0.444 -0.5,0.508 z"
     style="stroke-width:0.00277778"
     transform="matrix(1.004,0,0,1,-3.059,0)" /><path
     d="m 459,14.67 c -0.1,0.46 0,0.57 0,0.66 -0.1,-0.1 -0.5,0 -0.5,-0.1 0.1,-0.27 0.2,-2.19 -0.1,-3.24 -0.2,-0.12 -0.6,-0.61 -0.7,-0.71 -0.3,0.2 -1.3,0.21 -1.5,-0.59 0.2,0.1 0.6,0.26 0.8,0.22 -0.3,-0.13 -0.8,-0.53 -0.8,-1.035 0.1,0.05 0.2,0.225 0.3,0.265 0.1,0 0.4,0 0.5,0.1 0.1,0.1 0.2,0.23 0.3,0.28 0,-0.1 0,-0.52 -0.3,-0.628 0.1,-0.07 0.4,-0.01 0.6,0.268 0.3,0.42 0.2,0.82 0.2,0.98 0.1,0.14 0.4,0.45 0.5,0.52 0,-0.24 -0.2,-0.6 0,-1.42 0.1,-0.282 0.4,-0.698 0.4,-0.89 -0.1,-0.125 -0.4,-0.442 -0.5,-0.475 -0.1,-0.01 -0.7,0.108 -0.9,-0.05 -0.2,-0.08 -0.3,-0.183 -0.3,-0.317 0.1,0.01 0.5,0.08 0.5,0.03 0,-0.05 0,-0.03 -0.2,-0.158 -0.1,-0.127 -0.3,-0.292 -0.3,-0.752 0.1,0.135 0.2,0.327 0.5,0.274 0.1,-0.02 0.3,0.186 0.4,0.289 0,-0.105 -0.1,-0.419 -0.3,-0.614 0.1,-0.08 0.7,0.372 0.7,0.759 0,0.127 0,0.227 0,0.327 0,0.08 0.4,0.517 0.5,0.484 0.1,-0.01 0.2,-0.575 0.3,-0.842 0,-0.323 0.2,-0.948 -0.1,-1.311 0,0.04 -0.3,0.147 -0.7,-0.239 -0.1,-0.173 -0.2,-0.35 -0.1,-0.403 0.1,0.09 0.3,0.33 0.4,0.286 0,-0.09 -0.3,-0.135 -0.2,-0.677 0,-0.07 0.1,-0.1 0.1,-0.103 0.1,0.241 0.3,0.278 0.4,0.611 0.1,-0.108 0,-0.258 0,-0.361 0.1,-0.111 0,-0.239 0,-0.286 0,-0.02 0.2,0 0.3,0.414 0.1,0.244 0,0.596 0,0.672 0,0.1 0.1,0.197 0.2,0.583 0,0.333 -0.1,0.828 -0.1,0.931 0.1,-0.07 0.2,-0.128 0.2,-0.261 0.1,-0.156 0,-0.464 0.2,-0.7 0.1,-0.178 0.3,-0.306 0.6,-0.217 -0.1,0.09 -0.2,0.04 -0.3,0.161 0,0.133 -0.1,0.231 -0.1,0.331 0.1,-0.01 0.1,-0.128 0.2,-0.206 0.2,-0.1 0.3,0.01 0.4,-0.02 0.1,-0.03 0.2,-0.108 0.2,-0.15 0.1,0.09 0,0.355 -0.3,0.563 0,0.01 -0.1,0.01 -0.1,0.02 -0.1,0.06 -0.1,0.02 -0.1,0.04 0,0.04 0.1,0.08 0.2,0.06 0.1,-0.02 0.3,-0.07 0.3,-0.161 0,0.02 0.1,0.194 -0.3,0.425 -0.2,0.142 -0.6,0.09 -0.7,0.03 -0.1,0.03 -0.4,0.264 -0.5,0.339 0,0.316 -0.3,1.058 -0.6,1.564 0,0 0.2,0 0.4,-0.23 0.1,-0.09 0.3,-0.734 0.5,-0.909 0.2,-0.142 0.4,-0.117 0.6,-0.109 -0.1,0.03 -0.4,0.167 -0.4,0.409 0.1,0.03 0.1,-0.1 0.3,-0.125 0.1,-0.02 0.3,0.08 0.4,0.08 0.1,0 0.3,-0.1 0.3,-0.134 -0.1,0.492 -0.6,0.625 -0.9,0.642 0.1,0.1 0.4,0.176 0.7,-0.04 0.1,0.05 -0.1,0.356 -0.5,0.486 -0.4,0.14 -0.5,-0.12 -0.7,-0.11 -0.2,0 -0.4,0.19 -0.4,0.23 -0.2,0.1 -0.3,0.1 -0.4,0.11 0,0.1 0,0.61 0.1,1.01 0,0.26 0.2,0.67 0.2,0.93 0.1,-0.11 0.4,-0.16 0.6,-0.62 0,-0.21 -0.2,-1.03 0.8,-1.23 0.1,0 -0.1,0.12 -0.2,0.24 -0.1,0.13 -0.1,0.39 -0.1,0.47 0.1,-0.11 0.2,-0.29 0.6,-0.27 0.2,0 0.3,-0.1 0.5,-0.2 0,0 -0.1,0.37 -0.3,0.59 -0.1,0.2 -0.4,0.28 -0.4,0.37 0.1,0 0.4,0 0.7,-0.34 0,0.1 -0.2,0.5 -0.6,0.71 -0.2,0.11 -0.7,0.11 -0.9,0 -0.1,0.11 -0.3,0.42 -0.6,0.57 0.1,1.05 0.1,1.49 0.1,1.95 z"
     id="path4"
     style="stroke-width:0.00277778"
     transform="matrix(1.004,0,0,1,-3.059,0)" /><use
     xlink:href="#w"
     transform="matrix(-1,0,0,1,915.2,0)"
     id="use4" /></g>
</svg>
