<?xml version="1.0" encoding="UTF-8" standalone="no"?>
<!-- Created with Inkscape (http://www.inkscape.org/) -->

<svg
   xmlns:dc="http://purl.org/dc/elements/1.1/"
   xmlns:cc="http://creativecommons.org/ns#"
   xmlns:rdf="http://www.w3.org/1999/02/22-rdf-syntax-ns#"
   xmlns:svg="http://www.w3.org/2000/svg"
   xmlns="http://www.w3.org/2000/svg"
   xmlns:sodipodi="http://sodipodi.sourceforge.net/DTD/sodipodi-0.dtd"
   xmlns:inkscape="http://www.inkscape.org/namespaces/inkscape"
   viewBox="0 0 708.66141 708.66142"
   id="Hant"
   version="1.1"
   inkscape:version="0.91 r13725"
   sodipodi:docname="Hant.svg">
  <defs
     id="defs4" />
  <sodipodi:namedview
     id="base"
     pagecolor="#ffffff"
     bordercolor="#666666"
     borderopacity="1.0"
     inkscape:pageopacity="0.0"
     inkscape:pageshadow="2"
     inkscape:zoom="0.49497475"
     inkscape:cx="752.34491"
     inkscape:cy="318.06397"
     inkscape:document-units="mm"
     inkscape:current-layer="layer1"
     showgrid="true"
     units="mm"
     inkscape:window-width="1280"
     inkscape:window-height="747"
     inkscape:window-x="0"
     inkscape:window-y="25"
     inkscape:window-maximized="1">
    <inkscape:grid
       type="xygrid"
       id="grid3371" />
  </sodipodi:namedview>
  <metadata
     id="metadata7">
    <rdf:RDF>
      <cc:Work
         rdf:about="">
        <dc:format>image/svg+xml</dc:format>
        <dc:type
           rdf:resource="http://purl.org/dc/dcmitype/StillImage" />
        <dc:title></dc:title>
      </cc:Work>
    </rdf:RDF>
  </metadata>
  <g
     inkscape:label="レイヤー 1"
     inkscape:groupmode="layer"
     id="layer1"
     transform="translate(0,-343.70078)">
    <flowRoot
       xml:space="preserve"
       id="flowRoot3351"
       style="font-style:normal;font-variant:normal;font-weight:normal;font-stretch:normal;font-size:14px;line-height:125%;font-family:'DejaVu Sans';-inkscape-font-specification:'DejaVu Sans';text-align:start;letter-spacing:0px;word-spacing:0px;writing-mode:tb-rl;text-anchor:start;fill-opacity:1;stroke:none;stroke-width:1px;stroke-linecap:butt;stroke-linejoin:miter;stroke-opacity:1"><flowRegion
         id="flowRegion3353"><rect
           id="rect3355"
           width="628.57141"
           height="480"
           x="80"
           y="243.79077" /></flowRegion><flowPara
         id="flowPara3357"></flowPara></flowRoot>    <g
       transform="matrix(41.310125,0,0,44.571309,-25823.186,-7772.0898)"
       style="font-style:normal;font-variant:normal;font-weight:normal;font-stretch:normal;font-size:14px;line-height:125%;font-family:'DejaVu Sans';-inkscape-font-specification:'DejaVu Sans';text-align:start;letter-spacing:0px;word-spacing:0px;writing-mode:tb-rl;text-anchor:start;fill-opacity:1;stroke:none;stroke-width:1px;stroke-linecap:butt;stroke-linejoin:miter;stroke-opacity:1"
       id="flowRoot3359">
      <path
         d="m 630.56611,193.01559 0,-0.91 4.046,0 q 0.028,-0.126 0.028,-0.364 l 0,-0.644 -3.864,0 0,-0.882 3.864,0 0,-0.77 -2.464,0 -1.008,0 0,-3.108 1.694,0 0,-0.952 -2.17,0 0,-0.91 2.17,0 0,-1.064 0.994,0 0,1.064 2.688,0 0,-1.064 1.008,0 0,1.064 2.03,0 0,0.91 -2.03,0 0,0.952 1.694,0 0,3.108 -3.5,0 0,0.77 3.682,0 0,0.882 -3.682,0 0,0.644 q 0,0.238 0.028,0.364 l 3.892,0 0,0.91 -3.514,0 q 0.938,1.414 3.528,2.086 l -0.364,0.896 q -1.33,-0.308 -2.422,-1.064 -1.092,-0.756 -1.666,-1.708 -0.63,0.952 -1.862,1.722 -1.232,0.77 -2.688,1.05 l -0.392,-0.868 q 2.87,-0.658 3.92,-2.114 l -3.64,0 z m -0.224,-1.568 q -0.826,2.52 -2.254,4.522 l -0.868,-0.574 q 1.358,-1.918 2.198,-4.326 l 0.924,0.378 z m -1.022,-1.694 q -1.134,-1.092 -2.506,-2.114 l 0.63,-0.756 q 1.414,1.05 2.52,2.1 l -0.644,0.77 z m -1.904,-5.194 0.63,-0.756 q 1.274,0.966 2.296,1.918 l -0.644,0.756 q -0.98,-0.924 -2.282,-1.918 z m 8.33,2.59 0,1.498 2.464,0 0,-1.498 -2.464,0 z m -1.106,0 -2.464,0 0,1.498 2.464,0 0,-1.498 z m -0.784,-0.812 2.688,0 0,-0.952 -2.688,0 0,0.952 z"
         style=""
         id="path3456" />
    </g>
  </g>
</svg>
