<?xml version="1.0" encoding="UTF-8" standalone="no"?>
<!-- Created with Inkscape (http://www.inkscape.org/) -->

<svg
   xmlns:dc="http://purl.org/dc/elements/1.1/"
   xmlns:cc="http://creativecommons.org/ns#"
   xmlns:rdf="http://www.w3.org/1999/02/22-rdf-syntax-ns#"
   xmlns:svg="http://www.w3.org/2000/svg"
   xmlns="http://www.w3.org/2000/svg"
   xmlns:sodipodi="http://sodipodi.sourceforge.net/DTD/sodipodi-0.dtd"
   xmlns:inkscape="http://www.inkscape.org/namespaces/inkscape"
   viewBox="0 0 708.66141 708.66142"
   id="Hrkt"
   version="1.1"
   inkscape:version="0.91 r13725"
   sodipodi:docname="Hrkt.svg">
  <defs
     id="defs4" />
  <sodipodi:namedview
     id="base"
     pagecolor="#ffffff"
     bordercolor="#666666"
     borderopacity="1.0"
     inkscape:pageopacity="0.0"
     inkscape:pageshadow="2"
     inkscape:zoom="0.49497475"
     inkscape:cx="-241.89484"
     inkscape:cy="179.63719"
     inkscape:document-units="mm"
     inkscape:current-layer="layer1"
     showgrid="true"
     units="mm"
     inkscape:window-width="1280"
     inkscape:window-height="747"
     inkscape:window-x="0"
     inkscape:window-y="25"
     inkscape:window-maximized="1">
    <inkscape:grid
       type="xygrid"
       id="grid3371" />
  </sodipodi:namedview>
  <metadata
     id="metadata7">
    <rdf:RDF>
      <cc:Work
         rdf:about="">
        <dc:format>image/svg+xml</dc:format>
        <dc:type
           rdf:resource="http://purl.org/dc/dcmitype/StillImage" />
        <dc:title></dc:title>
      </cc:Work>
    </rdf:RDF>
  </metadata>
  <g
     inkscape:label="レイヤー 1"
     inkscape:groupmode="layer"
     id="layer1"
     transform="translate(0,-343.70078)">
    <flowRoot
       xml:space="preserve"
       id="flowRoot3351"
       style="font-style:normal;font-variant:normal;font-weight:normal;font-stretch:normal;font-size:14px;line-height:125%;font-family:'DejaVu Sans';-inkscape-font-specification:'DejaVu Sans';text-align:start;letter-spacing:0px;word-spacing:0px;writing-mode:tb-rl;text-anchor:start;fill-opacity:1;stroke:none;stroke-width:1px;stroke-linecap:butt;stroke-linejoin:miter;stroke-opacity:1"><flowRegion
         id="flowRegion3353"><rect
           id="rect3355"
           width="628.57141"
           height="480"
           x="80"
           y="243.79077" /></flowRegion><flowPara
         id="flowPara3357"></flowPara></flowRoot>    <g
       transform="matrix(45.763594,0,0,42.683638,-28710.649,-7402.5947)"
       style="font-style:normal;font-variant:normal;font-weight:normal;font-stretch:normal;font-size:7.86534643px;line-height:125%;font-family:'DejaVu Sans';-inkscape-font-specification:'DejaVu Sans';text-align:start;letter-spacing:-2.33047295px;word-spacing:0px;writing-mode:tb-rl;text-anchor:start;fill-opacity:1;stroke:none;stroke-width:1px;stroke-linecap:butt;stroke-linejoin:miter;stroke-opacity:1"
       id="flowRoot3359">
      <path
         d="m 631.88264,184.62244 0,-0.52698 1.53375,0 q 0.22023,-0.96743 0.33821,-1.65959 l 0.5663,0.0629 q -0.11011,0.69215 -0.31461,1.59666 l 0.70788,0 q 0.3618,0 0.55057,0 0.18877,0 0.409,0.0472 0.22023,0.0393 0.30675,0.0708 0.0944,0.0315 0.19663,0.16518 0.11012,0.12584 0.13371,0.23596 0.0315,0.10225 0.0629,0.3618 0.0393,0.25956 0.0393,0.48765 0,0.22023 0,0.65283 0,1.45509 -0.34607,2.21016 -0.34608,0.74721 -0.88092,0.74721 -0.66856,0 -1.59667,-0.42473 l 0.18877,-0.52698 q 0.88092,0.37754 1.29778,0.37754 0.28316,0 0.51125,-0.62923 0.2281,-0.63709 0.2281,-1.83263 0,-0.25955 0,-0.3854 0,-0.12584 -0.0157,-0.29888 -0.008,-0.1809 -0.0157,-0.24383 0,-0.0708 -0.0393,-0.17303 -0.0393,-0.11012 -0.0551,-0.13372 -0.0157,-0.0315 -0.0944,-0.0865 -0.0787,-0.0551 -0.12585,-0.0551 -0.0393,-0.008 -0.17304,-0.0236 -0.12584,-0.0157 -0.21236,-0.0157 -0.0787,0 -0.26742,0 l -0.93598,0 q -0.58203,2.35961 -1.55734,4.50684 l -0.53484,-0.21236 q 0.92024,-2.03712 1.50228,-4.29448 l -1.4079,0 z m 4.87652,-1.03822 0.54271,-0.19664 q 0.88092,2.01353 1.39216,3.9956 l -0.55844,0.14157 q -0.22809,-0.87305 -0.61349,-1.98206 -0.38541,-1.10902 -0.76294,-1.95847 z"
         style="font-size:7.86534643px;line-height:125%;letter-spacing:-2.33047295px;word-spacing:0px"
         id="path3507" />
      <path
         d="m 638.44234,191.93488 q -0.70788,-0.11798 -1.62026,-0.14157 l 0,2.89444 q 0.75507,0.40114 1.68318,1.16407 l -0.3618,0.42473 q -0.75507,-0.60563 -1.32138,-0.96743 -0.0315,0.81013 -0.43259,1.1562 -0.39327,0.34608 -1.27419,0.34608 -0.78653,0 -1.23486,-0.35394 -0.44046,-0.36181 -0.44046,-0.98317 0,-0.60563 0.4326,-0.94384 0.44046,-0.33821 1.24272,-0.33821 0.55057,0 1.13261,0.23596 l 0,-3.16974 q 1.27419,0 2.26522,0.15731 l -0.0708,0.51911 z m -6.74847,-0.1573 0,-0.51912 1.45509,0 q 0.14158,-0.45619 0.34608,-1.19553 l 0.54271,0.0787 q -0.13371,0.54271 -0.30675,1.11688 l 1.47868,0 0,0.51912 -1.63599,0 q -0.63709,2.00566 -1.51801,3.99559 l -0.52698,-0.18877 q 0.85733,-1.96633 1.45509,-3.80682 l -1.28992,0 z m 4.55404,3.20906 q -0.59777,-0.28316 -1.13261,-0.28316 -1.10115,0 -1.10115,0.77081 0,0.40113 0.28315,0.62136 0.29102,0.22023 0.818,0.22023 0.65282,0 0.88878,-0.23596 0.24383,-0.24383 0.24383,-0.90451 l 0,-0.18877 z"
         style="font-size:7.86534643px;line-height:125%;letter-spacing:-2.33047295px;word-spacing:0px"
         id="path3509" />
    </g>
  </g>
</svg>
