<?xml version="1.0" encoding="utf-8"?>
<!-- Generator: Adobe Illustrator 18.0.0, SVG Export Plug-In . SVG Version: 6.00 Build 0)  -->
<!DOCTYPE svg PUBLIC "-//W3C//DTD SVG 1.1//EN" "http://www.w3.org/Graphics/SVG/1.1/DTD/svg11.dtd">
<svg version="1.1" id="Capa_1" xmlns="http://www.w3.org/2000/svg" xmlns:xlink="http://www.w3.org/1999/xlink" x="0px" y="0px"
	 width="20px" height="20px" viewBox="0 0 128 128" enable-background="new 0 0 128 128" xml:space="preserve">
<path d="M7.8,94.1h23.1l25.6,19.3c4,3,9.6,0.2,9.6-4.8V19.4c0-4.9-5.7-7.8-9.6-4.8L30.9,33.9H7.8c-3.3,0-6,2.7-6,6v48.3
	C1.8,91.4,4.5,94.1,7.8,94.1z"/>
<path d="M124.2,42.3c-2.7-2.7-7.2-2.7-9.9,0l-11.8,11.8L90.7,42.3c-2.7-2.7-7.2-2.7-9.9,0c-2.7,2.7-2.7,7.2,0,9.9L92.6,64L80.8,75.8
	c-2.7,2.7-2.7,7.2,0,9.9c1.4,1.4,3.2,2.1,5,2.1s3.6-0.7,5-2.1l11.8-11.8l11.8,11.8c1.4,1.4,3.2,2.1,5,2.1s3.6-0.7,5-2.1
	c2.7-2.7,2.7-7.2,0-9.9L112.4,64l11.8-11.8C126.9,49.5,126.9,45,124.2,42.3z"/>
</svg>
