<?xml version="1.0" encoding="iso-8859-1"?>
<!-- source: http://www.flaticon.com/free-icon/blogger-botton_8708 -->
<!-- Generator: Adobe Illustrator 18.1.1, SVG Export Plug-In . SVG Version: 6.00 Build 0)  -->
<svg version="1.1" id="Capa_1" xmlns="http://www.w3.org/2000/svg" xmlns:xlink="http://www.w3.org/1999/xlink" x="0px" y="0px"
	 viewBox="0 0 16 16" style="enable-background:new 0 0 16 16;" xml:space="preserve" width="32" height="32">
<path style="fill:#010002;" d="M8,0C3.582,0,0,3.582,0,8s3.582,8,8,8s8-3.582,8-8C16,3.581,12.418,0,8,0z M12.986,9.768
	c0,1.778-1.447,3.219-3.239,3.219H6.256c-1.79,0-3.244-1.439-3.244-3.219V6.234c0.001-1.779,1.453-3.221,3.244-3.221h1.635
	c1.792,0,3.226,1.338,3.226,3.117c0.023,0.333,0.324,0.623,0.666,0.623h0.559c0.358,0,0.645,0.376,0.645,0.731L12.986,9.768
	L12.986,9.768z"/>
<path style="fill:#010002;" d="M9.87,9.247H6.13c-0.343,0-0.623,0.28-0.623,0.623c0,0.342,0.281,0.623,0.623,0.623h3.74
	c0.343,0,0.623-0.281,0.623-0.623C10.493,9.527,10.213,9.247,9.87,9.247z"/>
<path style="fill:#010002;" d="M6.13,6.753H8c0.343,0,0.623-0.281,0.623-0.623c0-0.343-0.281-0.623-0.623-0.623H6.13
	c-0.343,0-0.623,0.281-0.623,0.623C5.506,6.473,5.787,6.753,6.13,6.753z"/>
</svg>
