<?xml version="1.0" encoding="UTF-8" standalone="no"?>
<!-- Generator: Adobe Illustrator 18.1.1, SVG Export Plug-In . SVG Version: 6.00 Build 0)  -->

<!-- http://www.flaticon.com/free-icon/error-triangle_9188 -->

<svg
   xmlns:dc="http://purl.org/dc/elements/1.1/"
   xmlns:cc="http://creativecommons.org/ns#"
   xmlns:rdf="http://www.w3.org/1999/02/22-rdf-syntax-ns#"
   xmlns:svg="http://www.w3.org/2000/svg"
   xmlns="http://www.w3.org/2000/svg"
   xmlns:xlink="http://www.w3.org/1999/xlink"
   xmlns:sodipodi="http://sodipodi.sourceforge.net/DTD/sodipodi-0.dtd"
   xmlns:inkscape="http://www.inkscape.org/namespaces/inkscape"
   version="1.1"
   id="check"
   x="0px"
   y="0px"
   viewBox="0 0 15.906 15.906"
   style="enable-background:new 0 0 15.906 15.906;"
   xml:space="preserve"
   width="16px"
   height="16px"
   inkscape:version="0.91 r13725"
   sodipodi:docname="check.svg"><metadata
     id="metadata11"><rdf:RDF><cc:Work
         rdf:about=""><dc:format>image/svg+xml</dc:format><dc:type
           rdf:resource="http://purl.org/dc/dcmitype/StillImage" /><dc:title></dc:title></cc:Work></rdf:RDF></metadata><defs
     id="defs9" /><sodipodi:namedview
     pagecolor="#ffffff"
     bordercolor="#666666"
     borderopacity="1"
     objecttolerance="10"
     gridtolerance="10"
     guidetolerance="10"
     inkscape:pageopacity="0"
     inkscape:pageshadow="2"
     inkscape:window-width="1280"
     inkscape:window-height="747"
     id="namedview7"
     showgrid="false"
     inkscape:zoom="29.5"
     inkscape:cx="11.536999"
     inkscape:cy="10.700126"
     inkscape:window-x="0"
     inkscape:window-y="25"
     inkscape:window-maximized="1"
     inkscape:snap-grids="false" /><g
     id="g3" /><path
     sodipodi:type="inkscape:offset"
     inkscape:radius="0"
     inkscape:original="M 13.175781 1.4472656 L 6.7597656 10.046875 L 3.296875 5.8730469 L 0.78125 7.4433594 L 6.1054688 13.917969 L 7.5371094 13.917969 L 15.164062 3.6972656 L 13.175781 1.4472656 z "
     xlink:href="#rect4157"
     style="opacity:1;fill:#00ff00;fill-opacity:1;stroke:#000000;stroke-width:0;stroke-linecap:round;stroke-linejoin:miter;stroke-miterlimit:4;stroke-dasharray:none;stroke-dashoffset:0;stroke-opacity:1"
     id="path4203"
     inkscape:href="#rect4157"
     d="M 12.769531,1.9882812 6.7578125,10.046875 3.296875,5.8730469 0.78125,7.4433594 l 5.3242188,6.4746096 1.4335937,0 L 15.126953,3.7480469 12.769531,1.9882812 Z" /><path
     style="opacity:1;fill:#00ff00;fill-opacity:1;stroke:#000000;stroke-width:0;stroke-linecap:round;stroke-linejoin:miter;stroke-miterlimit:4;stroke-dasharray:none;stroke-dashoffset:0;stroke-opacity:1"
     d="M 13.253906,1.4550781 6.7988281,10.105469 3.3164062,5.9082031 0.78515625,7.4882812 6.140625,14 7.5820312,14 15.253906,3.71875 Z"
     transform="scale(0.99412501,0.99412501)"
     id="rect4157"
     inkscape:connector-curvature="0"
     sodipodi:nodetypes="cccccccc" /><path
     style="opacity:1;fill:#ffffff;fill-opacity:1;stroke:#000000;stroke-width:0;stroke-linecap:round;stroke-linejoin:miter;stroke-miterlimit:4;stroke-dasharray:none;stroke-dashoffset:0;stroke-opacity:1"
     d="M 13.138672,0.7421875 A 0.70656385,0.70656385 0 0 0 12.609375,1.0253906 L 6.7285156,8.90625 3.8398438,5.421875 A 0.70656385,0.70656385 0 0 0 2.921875,5.2734375 L 0.40625,6.84375 A 0.70656385,0.70656385 0 0 0 0.23632812,7.8925781 L 5.5585938,14.367188 A 0.70656385,0.70656385 0 0 0 6.1035156,14.625 l 1.4335938,0 A 0.70656385,0.70656385 0 0 0 8.1035156,14.339844 L 15.730469,4.1191406 a 0.70656385,0.70656385 0 0 0 -0.03711,-0.890625 L 13.705078,0.97851562 A 0.70656385,0.70656385 0 0 0 13.138672,0.7421875 Z"
     id="path4894" /><path
     style="opacity:1;fill:#00ffff;fill-opacity:1;stroke:#000000;stroke-width:0;stroke-linecap:round;stroke-linejoin:miter;stroke-miterlimit:4;stroke-dasharray:none;stroke-dashoffset:0;stroke-opacity:1"
     d="M 13.175891,1.4465237 6.7587368,10.046094 3.2967744,5.8734866 0.78039561,7.4442817 6.1044008,13.917745 l 1.432938,0 7.6268022,-10.2208485 z"
     id="rect4157-4"
     inkscape:connector-curvature="0"
     sodipodi:nodetypes="cccccccc" /><path
     sodipodi:nodetypes="cccccccc"
     inkscape:connector-curvature="0"
     id="path4892"
     d="M 13.253906,1.4550781 6.7988281,10.105469 3.3164062,5.9082031 0.78515625,7.4882812 6.140625,14 7.5820312,14 15.253906,3.71875 Z"
     style="opacity:1;fill:#2dff2d;fill-opacity:1;stroke:#000000;stroke-width:0;stroke-linecap:round;stroke-linejoin:miter;stroke-miterlimit:4;stroke-dasharray:none;stroke-dashoffset:0;stroke-opacity:1"
     transform="scale(0.99412501,0.99412501)" /></svg>
