<?xml version="1.0" encoding="iso-8859-1"?>
<!-- Generator: Adobe Illustrator 18.0.0, SVG Export Plug-In . SVG Version: 6.00 Build 0)  -->
<!DOCTYPE svg PUBLIC "-//W3C//DTD SVG 1.1//EN" "http://www.w3.org/Graphics/SVG/1.1/DTD/svg11.dtd">
<svg version="1.1" id="delete" xmlns="http://www.w3.org/2000/svg" xmlns:xlink="http://www.w3.org/1999/xlink" x="0px" y="0px"
	 viewBox="0 0 65.765 83.202" xml:space="preserve">
<g>
	<path d="M60.093,9.797H48.984V2.578C48.984,1.125,47.812,0,46.359,0c-0.141,0-0.235,0.047-0.281,0.094
		C46.031,0.047,45.937,0,45.89,0H19.781h-0.187h-0.188c-1.453,0-2.578,1.125-2.578,2.578v7.219H5.672C2.484,9.797,0,12.281,0,15.469
		v4.125v5.156h4.922v52.827c0,3.188,2.437,5.625,5.625,5.625h44.671c3.188,0,5.672-2.437,5.672-5.625V24.75h4.875v-5.156v-4.125
		C65.765,12.281,63.28,9.797,60.093,9.797z M21.984,5.156h21.797v4.641H21.984V5.156z M55.687,77.577
		c0,0.329-0.141,0.469-0.469,0.469H10.547c-0.328,0-0.469-0.14-0.469-0.469V24.75h45.609V77.577z M60.562,19.594H5.203v-4.125
		c0-0.328,0.141-0.516,0.469-0.516h54.421c0.328,0,0.469,0.188,0.469,0.516V19.594z"/>
	<rect x="42.328" y="30.797" width="5.203" height="42.655"/>
	<rect x="30.328" y="30.797" width="5.203" height="42.655"/>
	<rect x="18.328" y="30.797" width="5.203" height="42.655"/>
</g>
</svg>
