<?xml version="1.0" encoding="iso-8859-1"?>
<!-- http://www.flaticon.com/free-icon/eye-hidden-design-black-interface-symbol_55975#term=hidden&page=1&position=5  -->
<!DOCTYPE svg PUBLIC "-//W3C//DTD SVG 1.1//EN" "http://www.w3.org/Graphics/SVG/1.1/DTD/svg11.dtd">
<svg version="1.1" id="hidden" xmlns="http://www.w3.org/2000/svg" xmlns:xlink="http://www.w3.org/1999/xlink" x="0px" y="0px"
     viewBox="0 0 497.199 497.199" style="enable-background:new 0 0 497.199 497.199;" xml:space="preserve">
<g>
    <path d="M191.2,248.6c0-15.3,5.7-28.7,17.2-40.2s24.9-17.2,40.2-17.2L191.2,248.6z M174,265.8c-1.9-5.7-1.9-11.5-1.9-17.2
        c0-42.1,34.4-76.5,76.5-76.5c5.701,0,11.5,0,17.201,1.9l51.6-51.6c-21-5.7-44-7.7-68.9-7.7C76.5,114.7,0,248.6,0,248.6
        s30.6,53.5,97.5,93.7L174,265.8z M306,248.6L248.6,306c15.3,0,28.701-5.7,40.201-17.2C300.199,277.3,306,263.899,306,248.6z
         M399.699,154.899l-76.5,76.5c1.9,5.7,1.9,11.5,1.9,17.2c0,42.1-34.4,76.5-76.5,76.5c-5.7,0-11.5,0-17.2-1.9L179.8,374.8
        c21,5.7,44,7.6,68.8,7.6c172.099,0,248.599-133.9,248.599-133.9S466.6,195.1,399.699,154.899z M401.4,76.899l-324.5,324.5
        l18.9,18.9L420.4,95.7L401.4,76.899z"/>
</g>
</svg>