<?xml version="1.0" encoding="iso-8859-1"?>
<!-- Generator: Adobe Illustrator 17.0.0, SVG Export Plug-In . SVG Version: 6.00 Build 0)  -->
<!DOCTYPE svg PUBLIC "-//W3C//DTD SVG 1.1//EN" "http://www.w3.org/Graphics/SVG/1.1/DTD/svg11.dtd">
<svg version="1.1" id="sentence-number" xmlns="http://www.w3.org/2000/svg" xmlns:xlink="http://www.w3.org/1999/xlink" x="2px" y="0px"
	 viewBox="0 0 64 64" style="enable-background:new 0 0 64 64;" xml:space="preserve">
<path d="M16.486,35.875c-1.587,0.279-2.646,1.79-2.367,3.377c0.248,1.415,1.478,2.411,2.868,2.411c0.168,0,0.337-0.015,0.508-0.045
	l1.682-0.295v6.05c0,1.61,1.306,2.916,2.916,2.916c1.61,0,2.916-1.306,2.916-2.916v-7.075l5.202-0.915v6.168
	c0,1.61,1.306,2.916,2.916,2.916c1.61,0,2.916-1.306,2.916-2.916v-7.192l3.566-0.628c1.586-0.278,2.646-1.79,2.367-3.376
	c-0.278-1.587-1.791-2.645-3.377-2.367l-2.557,0.449v-6.054l3.178-0.559c1.586-0.279,2.646-1.791,2.367-3.377
	c-0.278-1.586-1.792-2.643-3.377-2.367l-2.168,0.381v-6.258c0-1.61-1.306-2.916-2.916-2.916c-1.61,0-2.916,1.306-2.916,2.916v7.283
	l-5.202,0.914v-6.375c0-1.61-1.306-2.916-2.916-2.916c-1.61,0-2.916,1.306-2.916,2.916v7.401l-3.079,0.541
	c-1.587,0.279-2.646,1.791-2.367,3.377c0.248,1.415,1.478,2.412,2.868,2.412c0.168,0,0.337-0.016,0.508-0.045l2.07-0.364v6.055
	L16.486,35.875z M25.008,28.323l5.202-0.914v6.054l-5.202,0.914V28.323z"/>
</svg>