<?xml version="1.0" encoding="iso-8859-1"?>
<!-- Generator: Adobe Illustrator 18.1.1, SVG Export Plug-In . SVG Version: 6.00 Build 0)  -->
<!-- http://www.flaticon.com/free-icon/error-triangle_9188 -->
<svg version="1.1" id="warning-small" xmlns="http://www.w3.org/2000/svg" xmlns:xlink="http://www.w3.org/1999/xlink" x="0px" y="0px"
	 viewBox="0 0 15.906 15.906" style="enable-background:new 0 0 15.906 15.906;" xml:space="preserve" width="16px" height="16px">
<g>
	<path fill="red" d="M15.789,13.982l-6.938-13C8.678,0.657,8.339,0.453,7.97,0.453H7.969
		c-0.369,0-0.707,0.203-0.881,0.528l-6.969,13c-0.166,0.312-0.157,0.686,0.023,0.986C0.323,15.268,0.649,15.453,1,15.453h13.906
		c0.352,0,0.677-0.184,0.858-0.486C15.945,14.666,15.954,14.292,15.789,13.982z M7.969,13.453c-0.552,0-1-0.448-1-1s0.448-1,1-1
		c0.551,0,1,0.448,1,1S8.521,13.453,7.969,13.453z M8.97,9.469c0,0.553-0.449,1-1,1c-0.552,0-1-0.447-1-1v-4c0-0.552,0.448-1,1-1
		c0.551,0,1,0.448,1,1V9.469z"/>
</g>
</svg>
